G04 EAGLE Gerber X2 export*
%TF.Part,Single*%
%TF.FileFunction,Soldermask,Bot,1*%
%TF.FilePolarity,Negative*%
%TF.GenerationSoftware,Autodesk,EAGLE,9.1.0*%
%TF.CreationDate,2018-08-13T09:50:29Z*%
G75*
%MOMM*%
%FSLAX34Y34*%
%LPD*%
%AMOC8*
5,1,8,0,0,1.08239X$1,22.5*%
G01*
%ADD10C,0.801600*%
%ADD11R,2.601600X2.601600*%
%ADD12C,1.309600*%
%ADD13C,3.617600*%
%ADD14R,1.401600X1.801600*%
%ADD15C,1.201600*%
%ADD16R,1.625600X4.165600*%
%ADD17C,1.101600*%
%ADD18C,0.500000*%
%ADD19C,1.879600*%


D10*
X41910Y273500D03*
X41910Y234500D03*
D11*
X22910Y218000D03*
X22910Y290000D03*
D12*
X50910Y287000D02*
X50910Y299080D01*
X50910Y221000D02*
X50910Y208920D01*
D13*
X431800Y469900D03*
X25400Y469900D03*
D14*
X323630Y376150D03*
X298230Y376150D03*
X272830Y376150D03*
X272830Y119150D03*
X298230Y119150D03*
X323630Y119150D03*
D15*
X355600Y403860D03*
D16*
X229870Y472440D03*
X179070Y472440D03*
D17*
X60960Y476250D03*
D18*
X68460Y476250D02*
X68458Y476431D01*
X68451Y476612D01*
X68440Y476793D01*
X68425Y476974D01*
X68405Y477154D01*
X68381Y477334D01*
X68353Y477513D01*
X68320Y477691D01*
X68283Y477868D01*
X68242Y478045D01*
X68197Y478220D01*
X68147Y478395D01*
X68093Y478568D01*
X68035Y478739D01*
X67973Y478910D01*
X67906Y479078D01*
X67836Y479245D01*
X67762Y479411D01*
X67683Y479574D01*
X67601Y479735D01*
X67515Y479895D01*
X67425Y480052D01*
X67331Y480207D01*
X67234Y480360D01*
X67132Y480510D01*
X67028Y480658D01*
X66919Y480804D01*
X66808Y480946D01*
X66692Y481086D01*
X66574Y481223D01*
X66452Y481358D01*
X66327Y481489D01*
X66199Y481617D01*
X66068Y481742D01*
X65933Y481864D01*
X65796Y481982D01*
X65656Y482098D01*
X65514Y482209D01*
X65368Y482318D01*
X65220Y482422D01*
X65070Y482524D01*
X64917Y482621D01*
X64762Y482715D01*
X64605Y482805D01*
X64445Y482891D01*
X64284Y482973D01*
X64121Y483052D01*
X63955Y483126D01*
X63788Y483196D01*
X63620Y483263D01*
X63449Y483325D01*
X63278Y483383D01*
X63105Y483437D01*
X62930Y483487D01*
X62755Y483532D01*
X62578Y483573D01*
X62401Y483610D01*
X62223Y483643D01*
X62044Y483671D01*
X61864Y483695D01*
X61684Y483715D01*
X61503Y483730D01*
X61322Y483741D01*
X61141Y483748D01*
X60960Y483750D01*
X60779Y483748D01*
X60598Y483741D01*
X60417Y483730D01*
X60236Y483715D01*
X60056Y483695D01*
X59876Y483671D01*
X59697Y483643D01*
X59519Y483610D01*
X59342Y483573D01*
X59165Y483532D01*
X58990Y483487D01*
X58815Y483437D01*
X58642Y483383D01*
X58471Y483325D01*
X58300Y483263D01*
X58132Y483196D01*
X57965Y483126D01*
X57799Y483052D01*
X57636Y482973D01*
X57475Y482891D01*
X57315Y482805D01*
X57158Y482715D01*
X57003Y482621D01*
X56850Y482524D01*
X56700Y482422D01*
X56552Y482318D01*
X56406Y482209D01*
X56264Y482098D01*
X56124Y481982D01*
X55987Y481864D01*
X55852Y481742D01*
X55721Y481617D01*
X55593Y481489D01*
X55468Y481358D01*
X55346Y481223D01*
X55228Y481086D01*
X55112Y480946D01*
X55001Y480804D01*
X54892Y480658D01*
X54788Y480510D01*
X54686Y480360D01*
X54589Y480207D01*
X54495Y480052D01*
X54405Y479895D01*
X54319Y479735D01*
X54237Y479574D01*
X54158Y479411D01*
X54084Y479245D01*
X54014Y479078D01*
X53947Y478910D01*
X53885Y478739D01*
X53827Y478568D01*
X53773Y478395D01*
X53723Y478220D01*
X53678Y478045D01*
X53637Y477868D01*
X53600Y477691D01*
X53567Y477513D01*
X53539Y477334D01*
X53515Y477154D01*
X53495Y476974D01*
X53480Y476793D01*
X53469Y476612D01*
X53462Y476431D01*
X53460Y476250D01*
X53462Y476069D01*
X53469Y475888D01*
X53480Y475707D01*
X53495Y475526D01*
X53515Y475346D01*
X53539Y475166D01*
X53567Y474987D01*
X53600Y474809D01*
X53637Y474632D01*
X53678Y474455D01*
X53723Y474280D01*
X53773Y474105D01*
X53827Y473932D01*
X53885Y473761D01*
X53947Y473590D01*
X54014Y473422D01*
X54084Y473255D01*
X54158Y473089D01*
X54237Y472926D01*
X54319Y472765D01*
X54405Y472605D01*
X54495Y472448D01*
X54589Y472293D01*
X54686Y472140D01*
X54788Y471990D01*
X54892Y471842D01*
X55001Y471696D01*
X55112Y471554D01*
X55228Y471414D01*
X55346Y471277D01*
X55468Y471142D01*
X55593Y471011D01*
X55721Y470883D01*
X55852Y470758D01*
X55987Y470636D01*
X56124Y470518D01*
X56264Y470402D01*
X56406Y470291D01*
X56552Y470182D01*
X56700Y470078D01*
X56850Y469976D01*
X57003Y469879D01*
X57158Y469785D01*
X57315Y469695D01*
X57475Y469609D01*
X57636Y469527D01*
X57799Y469448D01*
X57965Y469374D01*
X58132Y469304D01*
X58300Y469237D01*
X58471Y469175D01*
X58642Y469117D01*
X58815Y469063D01*
X58990Y469013D01*
X59165Y468968D01*
X59342Y468927D01*
X59519Y468890D01*
X59697Y468857D01*
X59876Y468829D01*
X60056Y468805D01*
X60236Y468785D01*
X60417Y468770D01*
X60598Y468759D01*
X60779Y468752D01*
X60960Y468750D01*
X61141Y468752D01*
X61322Y468759D01*
X61503Y468770D01*
X61684Y468785D01*
X61864Y468805D01*
X62044Y468829D01*
X62223Y468857D01*
X62401Y468890D01*
X62578Y468927D01*
X62755Y468968D01*
X62930Y469013D01*
X63105Y469063D01*
X63278Y469117D01*
X63449Y469175D01*
X63620Y469237D01*
X63788Y469304D01*
X63955Y469374D01*
X64121Y469448D01*
X64284Y469527D01*
X64445Y469609D01*
X64605Y469695D01*
X64762Y469785D01*
X64917Y469879D01*
X65070Y469976D01*
X65220Y470078D01*
X65368Y470182D01*
X65514Y470291D01*
X65656Y470402D01*
X65796Y470518D01*
X65933Y470636D01*
X66068Y470758D01*
X66199Y470883D01*
X66327Y471011D01*
X66452Y471142D01*
X66574Y471277D01*
X66692Y471414D01*
X66808Y471554D01*
X66919Y471696D01*
X67028Y471842D01*
X67132Y471990D01*
X67234Y472140D01*
X67331Y472293D01*
X67425Y472448D01*
X67515Y472605D01*
X67601Y472765D01*
X67683Y472926D01*
X67762Y473089D01*
X67836Y473255D01*
X67906Y473422D01*
X67973Y473590D01*
X68035Y473761D01*
X68093Y473932D01*
X68147Y474105D01*
X68197Y474280D01*
X68242Y474455D01*
X68283Y474632D01*
X68320Y474809D01*
X68353Y474987D01*
X68381Y475166D01*
X68405Y475346D01*
X68425Y475526D01*
X68440Y475707D01*
X68451Y475888D01*
X68458Y476069D01*
X68460Y476250D01*
D17*
X285750Y250190D03*
D18*
X293250Y250190D02*
X293248Y250371D01*
X293241Y250552D01*
X293230Y250733D01*
X293215Y250914D01*
X293195Y251094D01*
X293171Y251274D01*
X293143Y251453D01*
X293110Y251631D01*
X293073Y251808D01*
X293032Y251985D01*
X292987Y252160D01*
X292937Y252335D01*
X292883Y252508D01*
X292825Y252679D01*
X292763Y252850D01*
X292696Y253018D01*
X292626Y253185D01*
X292552Y253351D01*
X292473Y253514D01*
X292391Y253675D01*
X292305Y253835D01*
X292215Y253992D01*
X292121Y254147D01*
X292024Y254300D01*
X291922Y254450D01*
X291818Y254598D01*
X291709Y254744D01*
X291598Y254886D01*
X291482Y255026D01*
X291364Y255163D01*
X291242Y255298D01*
X291117Y255429D01*
X290989Y255557D01*
X290858Y255682D01*
X290723Y255804D01*
X290586Y255922D01*
X290446Y256038D01*
X290304Y256149D01*
X290158Y256258D01*
X290010Y256362D01*
X289860Y256464D01*
X289707Y256561D01*
X289552Y256655D01*
X289395Y256745D01*
X289235Y256831D01*
X289074Y256913D01*
X288911Y256992D01*
X288745Y257066D01*
X288578Y257136D01*
X288410Y257203D01*
X288239Y257265D01*
X288068Y257323D01*
X287895Y257377D01*
X287720Y257427D01*
X287545Y257472D01*
X287368Y257513D01*
X287191Y257550D01*
X287013Y257583D01*
X286834Y257611D01*
X286654Y257635D01*
X286474Y257655D01*
X286293Y257670D01*
X286112Y257681D01*
X285931Y257688D01*
X285750Y257690D01*
X285569Y257688D01*
X285388Y257681D01*
X285207Y257670D01*
X285026Y257655D01*
X284846Y257635D01*
X284666Y257611D01*
X284487Y257583D01*
X284309Y257550D01*
X284132Y257513D01*
X283955Y257472D01*
X283780Y257427D01*
X283605Y257377D01*
X283432Y257323D01*
X283261Y257265D01*
X283090Y257203D01*
X282922Y257136D01*
X282755Y257066D01*
X282589Y256992D01*
X282426Y256913D01*
X282265Y256831D01*
X282105Y256745D01*
X281948Y256655D01*
X281793Y256561D01*
X281640Y256464D01*
X281490Y256362D01*
X281342Y256258D01*
X281196Y256149D01*
X281054Y256038D01*
X280914Y255922D01*
X280777Y255804D01*
X280642Y255682D01*
X280511Y255557D01*
X280383Y255429D01*
X280258Y255298D01*
X280136Y255163D01*
X280018Y255026D01*
X279902Y254886D01*
X279791Y254744D01*
X279682Y254598D01*
X279578Y254450D01*
X279476Y254300D01*
X279379Y254147D01*
X279285Y253992D01*
X279195Y253835D01*
X279109Y253675D01*
X279027Y253514D01*
X278948Y253351D01*
X278874Y253185D01*
X278804Y253018D01*
X278737Y252850D01*
X278675Y252679D01*
X278617Y252508D01*
X278563Y252335D01*
X278513Y252160D01*
X278468Y251985D01*
X278427Y251808D01*
X278390Y251631D01*
X278357Y251453D01*
X278329Y251274D01*
X278305Y251094D01*
X278285Y250914D01*
X278270Y250733D01*
X278259Y250552D01*
X278252Y250371D01*
X278250Y250190D01*
X278252Y250009D01*
X278259Y249828D01*
X278270Y249647D01*
X278285Y249466D01*
X278305Y249286D01*
X278329Y249106D01*
X278357Y248927D01*
X278390Y248749D01*
X278427Y248572D01*
X278468Y248395D01*
X278513Y248220D01*
X278563Y248045D01*
X278617Y247872D01*
X278675Y247701D01*
X278737Y247530D01*
X278804Y247362D01*
X278874Y247195D01*
X278948Y247029D01*
X279027Y246866D01*
X279109Y246705D01*
X279195Y246545D01*
X279285Y246388D01*
X279379Y246233D01*
X279476Y246080D01*
X279578Y245930D01*
X279682Y245782D01*
X279791Y245636D01*
X279902Y245494D01*
X280018Y245354D01*
X280136Y245217D01*
X280258Y245082D01*
X280383Y244951D01*
X280511Y244823D01*
X280642Y244698D01*
X280777Y244576D01*
X280914Y244458D01*
X281054Y244342D01*
X281196Y244231D01*
X281342Y244122D01*
X281490Y244018D01*
X281640Y243916D01*
X281793Y243819D01*
X281948Y243725D01*
X282105Y243635D01*
X282265Y243549D01*
X282426Y243467D01*
X282589Y243388D01*
X282755Y243314D01*
X282922Y243244D01*
X283090Y243177D01*
X283261Y243115D01*
X283432Y243057D01*
X283605Y243003D01*
X283780Y242953D01*
X283955Y242908D01*
X284132Y242867D01*
X284309Y242830D01*
X284487Y242797D01*
X284666Y242769D01*
X284846Y242745D01*
X285026Y242725D01*
X285207Y242710D01*
X285388Y242699D01*
X285569Y242692D01*
X285750Y242690D01*
X285931Y242692D01*
X286112Y242699D01*
X286293Y242710D01*
X286474Y242725D01*
X286654Y242745D01*
X286834Y242769D01*
X287013Y242797D01*
X287191Y242830D01*
X287368Y242867D01*
X287545Y242908D01*
X287720Y242953D01*
X287895Y243003D01*
X288068Y243057D01*
X288239Y243115D01*
X288410Y243177D01*
X288578Y243244D01*
X288745Y243314D01*
X288911Y243388D01*
X289074Y243467D01*
X289235Y243549D01*
X289395Y243635D01*
X289552Y243725D01*
X289707Y243819D01*
X289860Y243916D01*
X290010Y244018D01*
X290158Y244122D01*
X290304Y244231D01*
X290446Y244342D01*
X290586Y244458D01*
X290723Y244576D01*
X290858Y244698D01*
X290989Y244823D01*
X291117Y244951D01*
X291242Y245082D01*
X291364Y245217D01*
X291482Y245354D01*
X291598Y245494D01*
X291709Y245636D01*
X291818Y245782D01*
X291922Y245930D01*
X292024Y246080D01*
X292121Y246233D01*
X292215Y246388D01*
X292305Y246545D01*
X292391Y246705D01*
X292473Y246866D01*
X292552Y247029D01*
X292626Y247195D01*
X292696Y247362D01*
X292763Y247530D01*
X292825Y247701D01*
X292883Y247872D01*
X292937Y248045D01*
X292987Y248220D01*
X293032Y248395D01*
X293073Y248572D01*
X293110Y248749D01*
X293143Y248927D01*
X293171Y249106D01*
X293195Y249286D01*
X293215Y249466D01*
X293230Y249647D01*
X293241Y249828D01*
X293248Y250009D01*
X293250Y250190D01*
D19*
X12700Y17780D03*
X38100Y17780D03*
X63500Y17780D03*
X88900Y17780D03*
X114300Y17780D03*
X139700Y17780D03*
X165100Y17780D03*
X190500Y17780D03*
X215900Y17780D03*
X241300Y17780D03*
X266700Y17780D03*
X292100Y17780D03*
X317500Y17780D03*
X342900Y17780D03*
X368300Y17780D03*
X393700Y17780D03*
X419100Y17780D03*
X444500Y17780D03*
X254000Y482600D03*
X254000Y457200D03*
M02*
