G04 EAGLE Gerber X2 export*
%TF.Part,Single*%
%TF.FileFunction,Copper,L2,Bot,Mixed*%
%TF.FilePolarity,Positive*%
%TF.GenerationSoftware,Autodesk,EAGLE,9.1.0*%
%TF.CreationDate,2018-09-05T10:19:08Z*%
G75*
%MOMM*%
%FSLAX34Y34*%
%LPD*%
%AMOC8*
5,1,8,0,0,1.08239X$1,22.5*%
G01*
%ADD10P,2.763017X8X22.500000*%
%ADD11C,0.756400*%

G36*
X118829Y10172D02*
X118829Y10172D01*
X118900Y10174D01*
X118949Y10192D01*
X119001Y10200D01*
X119064Y10234D01*
X119131Y10259D01*
X119172Y10291D01*
X119218Y10316D01*
X119267Y10368D01*
X119323Y10412D01*
X119352Y10456D01*
X119388Y10494D01*
X119418Y10559D01*
X119456Y10619D01*
X119469Y10670D01*
X119491Y10717D01*
X119499Y10788D01*
X119517Y10858D01*
X119512Y10910D01*
X119518Y10961D01*
X119503Y11032D01*
X119497Y11103D01*
X119477Y11151D01*
X119466Y11202D01*
X119429Y11263D01*
X119401Y11329D01*
X119356Y11385D01*
X119340Y11413D01*
X119322Y11428D01*
X119296Y11460D01*
X111696Y19061D01*
X111696Y23877D01*
X126238Y23877D01*
X126258Y23880D01*
X126277Y23878D01*
X126379Y23900D01*
X126481Y23917D01*
X126498Y23926D01*
X126518Y23930D01*
X126607Y23983D01*
X126698Y24032D01*
X126712Y24046D01*
X126729Y24056D01*
X126796Y24135D01*
X126867Y24210D01*
X126876Y24228D01*
X126889Y24243D01*
X126927Y24339D01*
X126971Y24433D01*
X126973Y24453D01*
X126981Y24471D01*
X126999Y24638D01*
X126999Y25401D01*
X127001Y25401D01*
X127001Y24638D01*
X127004Y24618D01*
X127002Y24599D01*
X127024Y24497D01*
X127041Y24395D01*
X127050Y24378D01*
X127054Y24358D01*
X127107Y24269D01*
X127156Y24178D01*
X127170Y24164D01*
X127180Y24147D01*
X127259Y24080D01*
X127334Y24009D01*
X127352Y24000D01*
X127367Y23987D01*
X127463Y23948D01*
X127557Y23905D01*
X127577Y23903D01*
X127595Y23895D01*
X127762Y23877D01*
X142304Y23877D01*
X142304Y19061D01*
X134704Y11460D01*
X134662Y11402D01*
X134612Y11350D01*
X134591Y11303D01*
X134560Y11261D01*
X134539Y11192D01*
X134509Y11127D01*
X134503Y11075D01*
X134488Y11025D01*
X134490Y10954D01*
X134482Y10883D01*
X134493Y10832D01*
X134494Y10780D01*
X134519Y10712D01*
X134534Y10642D01*
X134561Y10597D01*
X134579Y10549D01*
X134623Y10493D01*
X134660Y10431D01*
X134700Y10397D01*
X134732Y10357D01*
X134793Y10318D01*
X134847Y10271D01*
X134895Y10252D01*
X134939Y10224D01*
X135009Y10206D01*
X135075Y10179D01*
X135147Y10171D01*
X135178Y10163D01*
X135201Y10165D01*
X135242Y10161D01*
X252478Y10161D01*
X252498Y10164D01*
X252517Y10162D01*
X252619Y10184D01*
X252721Y10200D01*
X252738Y10210D01*
X252758Y10214D01*
X252847Y10267D01*
X252938Y10316D01*
X252952Y10330D01*
X252969Y10340D01*
X253036Y10419D01*
X253108Y10494D01*
X253116Y10512D01*
X253129Y10527D01*
X253168Y10623D01*
X253211Y10717D01*
X253213Y10737D01*
X253221Y10755D01*
X253239Y10922D01*
X253239Y26761D01*
X253228Y26832D01*
X253226Y26903D01*
X253208Y26952D01*
X253200Y27004D01*
X253166Y27067D01*
X253141Y27134D01*
X253109Y27175D01*
X253084Y27221D01*
X253032Y27270D01*
X252988Y27326D01*
X252944Y27355D01*
X252906Y27390D01*
X252841Y27421D01*
X252781Y27459D01*
X252730Y27472D01*
X252683Y27494D01*
X252612Y27502D01*
X252542Y27519D01*
X252490Y27515D01*
X252439Y27521D01*
X252368Y27506D01*
X252297Y27500D01*
X252249Y27480D01*
X252198Y27469D01*
X252137Y27432D01*
X252071Y27404D01*
X252015Y27359D01*
X251987Y27343D01*
X251972Y27325D01*
X251940Y27299D01*
X249888Y25247D01*
X244316Y22939D01*
X238284Y22939D01*
X232712Y25247D01*
X228447Y29512D01*
X226139Y35084D01*
X226139Y41116D01*
X228447Y46688D01*
X232712Y50953D01*
X238284Y53261D01*
X244316Y53261D01*
X249888Y50953D01*
X251940Y48901D01*
X251998Y48859D01*
X252050Y48810D01*
X252097Y48788D01*
X252139Y48757D01*
X252208Y48736D01*
X252273Y48706D01*
X252325Y48700D01*
X252375Y48685D01*
X252446Y48687D01*
X252517Y48679D01*
X252568Y48690D01*
X252620Y48691D01*
X252688Y48716D01*
X252758Y48731D01*
X252803Y48758D01*
X252851Y48776D01*
X252907Y48821D01*
X252969Y48857D01*
X253003Y48897D01*
X253043Y48929D01*
X253082Y48990D01*
X253129Y49044D01*
X253148Y49093D01*
X253176Y49136D01*
X253194Y49206D01*
X253221Y49272D01*
X253229Y49344D01*
X253237Y49375D01*
X253235Y49398D01*
X253239Y49439D01*
X253239Y128361D01*
X253228Y128432D01*
X253226Y128503D01*
X253208Y128552D01*
X253200Y128604D01*
X253166Y128667D01*
X253141Y128734D01*
X253109Y128775D01*
X253084Y128821D01*
X253032Y128870D01*
X252988Y128926D01*
X252944Y128955D01*
X252906Y128990D01*
X252841Y129021D01*
X252781Y129059D01*
X252730Y129072D01*
X252683Y129094D01*
X252612Y129102D01*
X252542Y129119D01*
X252490Y129115D01*
X252439Y129121D01*
X252368Y129106D01*
X252297Y129100D01*
X252249Y129080D01*
X252198Y129069D01*
X252137Y129032D01*
X252071Y129004D01*
X252015Y128959D01*
X251987Y128943D01*
X251972Y128925D01*
X251940Y128899D01*
X249888Y126847D01*
X244316Y124539D01*
X238284Y124539D01*
X232712Y126847D01*
X228447Y131112D01*
X226139Y136684D01*
X226139Y142716D01*
X228447Y148288D01*
X232712Y152553D01*
X234697Y153375D01*
X234780Y153426D01*
X234866Y153472D01*
X234884Y153490D01*
X234906Y153504D01*
X234968Y153580D01*
X235035Y153650D01*
X235046Y153674D01*
X235063Y153694D01*
X235098Y153785D01*
X235139Y153873D01*
X235142Y153899D01*
X235151Y153923D01*
X235155Y154021D01*
X235166Y154117D01*
X235160Y154143D01*
X235161Y154169D01*
X235134Y154263D01*
X235113Y154358D01*
X235100Y154380D01*
X235093Y154405D01*
X235037Y154485D01*
X234987Y154569D01*
X234967Y154586D01*
X234953Y154607D01*
X234874Y154666D01*
X234800Y154729D01*
X234776Y154739D01*
X234755Y154754D01*
X234663Y154784D01*
X234572Y154821D01*
X234540Y154824D01*
X234521Y154830D01*
X234488Y154830D01*
X234406Y154839D01*
X10922Y154839D01*
X10902Y154836D01*
X10883Y154838D01*
X10781Y154816D01*
X10679Y154800D01*
X10662Y154790D01*
X10642Y154786D01*
X10553Y154733D01*
X10462Y154684D01*
X10448Y154670D01*
X10431Y154660D01*
X10364Y154581D01*
X10292Y154506D01*
X10284Y154488D01*
X10271Y154473D01*
X10232Y154377D01*
X10189Y154283D01*
X10187Y154263D01*
X10179Y154245D01*
X10161Y154078D01*
X10161Y10922D01*
X10164Y10902D01*
X10162Y10883D01*
X10184Y10781D01*
X10200Y10679D01*
X10210Y10662D01*
X10214Y10642D01*
X10267Y10553D01*
X10316Y10462D01*
X10330Y10448D01*
X10340Y10431D01*
X10419Y10364D01*
X10494Y10292D01*
X10512Y10284D01*
X10527Y10271D01*
X10623Y10232D01*
X10717Y10189D01*
X10737Y10187D01*
X10755Y10179D01*
X10922Y10161D01*
X118758Y10161D01*
X118829Y10172D01*
G37*
%LPC*%
G36*
X70282Y74612D02*
X70282Y74612D01*
X61912Y82982D01*
X61912Y94818D01*
X70282Y103188D01*
X82118Y103188D01*
X90488Y94818D01*
X90488Y82982D01*
X82118Y74612D01*
X70282Y74612D01*
G37*
%LPD*%
%LPC*%
G36*
X32182Y36512D02*
X32182Y36512D01*
X23812Y44882D01*
X23812Y56718D01*
X32182Y65088D01*
X44018Y65088D01*
X52388Y56718D01*
X52388Y44882D01*
X44018Y36512D01*
X32182Y36512D01*
G37*
%LPD*%
%LPC*%
G36*
X197282Y23812D02*
X197282Y23812D01*
X188912Y32182D01*
X188912Y44018D01*
X197282Y52388D01*
X209118Y52388D01*
X217488Y44018D01*
X217488Y32182D01*
X209118Y23812D01*
X197282Y23812D01*
G37*
%LPD*%
%LPC*%
G36*
X73622Y15779D02*
X73622Y15779D01*
X68785Y17783D01*
X65083Y21485D01*
X63079Y26322D01*
X63079Y31558D01*
X65083Y36395D01*
X68785Y40097D01*
X73622Y42101D01*
X78858Y42101D01*
X83695Y40097D01*
X87397Y36395D01*
X89401Y31558D01*
X89401Y26322D01*
X87397Y21485D01*
X83695Y17783D01*
X78858Y15779D01*
X73622Y15779D01*
G37*
%LPD*%
%LPC*%
G36*
X128523Y26923D02*
X128523Y26923D01*
X128523Y40704D01*
X133339Y40704D01*
X142304Y31739D01*
X142304Y26923D01*
X128523Y26923D01*
G37*
%LPD*%
%LPC*%
G36*
X111696Y26923D02*
X111696Y26923D01*
X111696Y31739D01*
X120661Y40704D01*
X125477Y40704D01*
X125477Y26923D01*
X111696Y26923D01*
G37*
%LPD*%
D10*
X203200Y38100D03*
X76200Y88900D03*
X127000Y25400D03*
X38100Y50800D03*
D11*
X101600Y152400D03*
X114300Y152400D03*
X228600Y114300D03*
X241300Y114300D03*
X50800Y88900D03*
X50800Y101600D03*
X12700Y63500D03*
X12700Y76200D03*
X12700Y38100D03*
X12700Y50800D03*
X228600Y88900D03*
X241300Y88900D03*
X228600Y76200D03*
X241300Y76200D03*
X215900Y76200D03*
X215900Y88900D03*
X228600Y63500D03*
X241300Y63500D03*
X228600Y101600D03*
X241300Y101600D03*
X152400Y63500D03*
X152400Y76200D03*
X101600Y127000D03*
X114300Y127000D03*
X101600Y25400D03*
X101600Y38100D03*
X50800Y12700D03*
X50800Y25400D03*
M02*
