G04 EAGLE Gerber RS-274X export*
G75*
%MOMM*%
%FSLAX34Y34*%
%LPD*%
%INTop Copper*%
%IPPOS*%
%AMOC8*
5,1,8,0,0,1.08239X$1,22.5*%
G01*
%ADD10R,1.600000X1.900000*%
%ADD11C,0.900000*%
%ADD12C,0.700000*%
%ADD13C,0.330000*%
%ADD14C,0.006094*%
%ADD15R,7.000000X0.850000*%
%ADD16R,1.400000X1.400000*%
%ADD17C,1.270000*%
%ADD18R,1.500000X1.300000*%
%ADD19R,1.900000X1.600000*%
%ADD20C,0.508000*%
%ADD21C,0.756400*%
%ADD22C,1.016000*%

G36*
X173130Y10176D02*
X173130Y10176D01*
X173225Y10185D01*
X173251Y10196D01*
X173279Y10200D01*
X173363Y10245D01*
X173450Y10283D01*
X173471Y10302D01*
X173496Y10316D01*
X173562Y10385D01*
X173632Y10449D01*
X173646Y10473D01*
X173666Y10494D01*
X173706Y10580D01*
X173752Y10664D01*
X173757Y10691D01*
X173769Y10717D01*
X173780Y10812D01*
X173797Y10905D01*
X173793Y10933D01*
X173796Y10961D01*
X173776Y11055D01*
X173763Y11149D01*
X173748Y11181D01*
X173744Y11202D01*
X173727Y11230D01*
X173695Y11303D01*
X173512Y11619D01*
X173339Y12266D01*
X173339Y18077D01*
X182118Y18077D01*
X182138Y18080D01*
X182157Y18078D01*
X182259Y18100D01*
X182361Y18117D01*
X182378Y18126D01*
X182398Y18130D01*
X182487Y18183D01*
X182578Y18232D01*
X182592Y18246D01*
X182609Y18256D01*
X182676Y18335D01*
X182747Y18410D01*
X182756Y18428D01*
X182769Y18443D01*
X182807Y18539D01*
X182851Y18633D01*
X182853Y18653D01*
X182861Y18671D01*
X182879Y18838D01*
X182879Y19601D01*
X182881Y19601D01*
X182881Y18838D01*
X182884Y18818D01*
X182882Y18799D01*
X182904Y18697D01*
X182921Y18595D01*
X182930Y18578D01*
X182934Y18558D01*
X182987Y18469D01*
X183036Y18378D01*
X183050Y18364D01*
X183060Y18347D01*
X183139Y18280D01*
X183214Y18209D01*
X183232Y18200D01*
X183247Y18187D01*
X183343Y18148D01*
X183437Y18105D01*
X183457Y18103D01*
X183475Y18095D01*
X183642Y18077D01*
X192421Y18077D01*
X192421Y12266D01*
X192248Y11619D01*
X192065Y11303D01*
X192031Y11213D01*
X191991Y11127D01*
X191988Y11099D01*
X191978Y11073D01*
X191974Y10977D01*
X191964Y10883D01*
X191970Y10855D01*
X191969Y10827D01*
X191996Y10735D01*
X192016Y10642D01*
X192031Y10618D01*
X192039Y10591D01*
X192093Y10513D01*
X192142Y10431D01*
X192164Y10413D01*
X192180Y10390D01*
X192257Y10333D01*
X192329Y10271D01*
X192355Y10261D01*
X192378Y10244D01*
X192469Y10215D01*
X192557Y10179D01*
X192592Y10175D01*
X192612Y10169D01*
X192645Y10169D01*
X192724Y10161D01*
X227660Y10161D01*
X227705Y10168D01*
X227751Y10166D01*
X227826Y10188D01*
X227903Y10200D01*
X227943Y10222D01*
X227988Y10235D01*
X228052Y10279D01*
X228120Y10316D01*
X228152Y10349D01*
X228190Y10375D01*
X228236Y10438D01*
X228290Y10494D01*
X228309Y10536D01*
X228336Y10572D01*
X228361Y10646D01*
X228393Y10717D01*
X228398Y10763D01*
X228413Y10806D01*
X228412Y10884D01*
X228420Y10961D01*
X228411Y11006D01*
X228410Y11052D01*
X228372Y11184D01*
X228368Y11202D01*
X228366Y11206D01*
X228363Y11213D01*
X226219Y16390D01*
X226219Y24410D01*
X229289Y31820D01*
X234960Y37491D01*
X242370Y40561D01*
X250390Y40561D01*
X257267Y37712D01*
X257311Y37702D01*
X257353Y37683D01*
X257430Y37674D01*
X257506Y37656D01*
X257552Y37661D01*
X257597Y37655D01*
X257674Y37672D01*
X257751Y37679D01*
X257793Y37698D01*
X257838Y37708D01*
X257905Y37748D01*
X257976Y37779D01*
X258010Y37810D01*
X258049Y37834D01*
X258100Y37893D01*
X258157Y37946D01*
X258179Y37986D01*
X258209Y38021D01*
X258238Y38093D01*
X258275Y38161D01*
X258284Y38206D01*
X258301Y38249D01*
X258316Y38385D01*
X258319Y38403D01*
X258318Y38408D01*
X258319Y38416D01*
X258319Y126684D01*
X258312Y126730D01*
X258314Y126775D01*
X258292Y126850D01*
X258280Y126927D01*
X258258Y126968D01*
X258245Y127012D01*
X258201Y127076D01*
X258164Y127144D01*
X258131Y127176D01*
X258105Y127214D01*
X258042Y127260D01*
X257986Y127314D01*
X257944Y127333D01*
X257908Y127361D01*
X257834Y127385D01*
X257763Y127417D01*
X257717Y127423D01*
X257674Y127437D01*
X257596Y127436D01*
X257519Y127445D01*
X257474Y127435D01*
X257428Y127434D01*
X257296Y127396D01*
X257278Y127392D01*
X257274Y127390D01*
X257267Y127388D01*
X250390Y124539D01*
X242370Y124539D01*
X234960Y127609D01*
X229289Y133280D01*
X226219Y140690D01*
X226219Y140817D01*
X226211Y140865D01*
X226213Y140914D01*
X226192Y140986D01*
X226180Y141060D01*
X226157Y141103D01*
X226143Y141150D01*
X226099Y141211D01*
X226064Y141277D01*
X226029Y141311D01*
X226001Y141351D01*
X225940Y141395D01*
X225886Y141447D01*
X225842Y141467D01*
X225802Y141496D01*
X225731Y141519D01*
X225663Y141550D01*
X225614Y141556D01*
X225568Y141570D01*
X225493Y141569D01*
X225419Y141577D01*
X225371Y141567D01*
X225322Y141566D01*
X225251Y141541D01*
X225178Y141525D01*
X225136Y141500D01*
X225090Y141483D01*
X225031Y141437D01*
X224967Y141399D01*
X224935Y141362D01*
X224897Y141331D01*
X224856Y141269D01*
X224807Y141212D01*
X224789Y141166D01*
X224762Y141125D01*
X224724Y141006D01*
X224715Y140984D01*
X224714Y140974D01*
X224711Y140966D01*
X224449Y139647D01*
X223779Y138029D01*
X222806Y136572D01*
X221568Y135334D01*
X220111Y134361D01*
X218493Y133691D01*
X217423Y133478D01*
X217423Y141478D01*
X217420Y141498D01*
X217422Y141517D01*
X217400Y141619D01*
X217383Y141721D01*
X217374Y141738D01*
X217370Y141758D01*
X217317Y141847D01*
X217268Y141938D01*
X217254Y141952D01*
X217244Y141969D01*
X217165Y142036D01*
X217090Y142107D01*
X217072Y142116D01*
X217057Y142129D01*
X216961Y142168D01*
X216867Y142211D01*
X216847Y142213D01*
X216829Y142221D01*
X216662Y142239D01*
X215899Y142239D01*
X215899Y142241D01*
X216662Y142241D01*
X216682Y142244D01*
X216701Y142242D01*
X216803Y142264D01*
X216905Y142281D01*
X216922Y142290D01*
X216942Y142294D01*
X217031Y142347D01*
X217122Y142396D01*
X217136Y142410D01*
X217153Y142420D01*
X217220Y142499D01*
X217291Y142574D01*
X217300Y142592D01*
X217313Y142607D01*
X217352Y142703D01*
X217395Y142797D01*
X217397Y142817D01*
X217405Y142835D01*
X217423Y143002D01*
X217423Y151002D01*
X218493Y150789D01*
X220111Y150119D01*
X221568Y149146D01*
X222806Y147908D01*
X223779Y146451D01*
X224449Y144833D01*
X224711Y143514D01*
X224729Y143469D01*
X224737Y143420D01*
X224771Y143354D01*
X224798Y143284D01*
X224829Y143246D01*
X224852Y143203D01*
X224906Y143151D01*
X224953Y143093D01*
X224994Y143067D01*
X225030Y143033D01*
X225098Y143002D01*
X225161Y142962D01*
X225209Y142950D01*
X225253Y142930D01*
X225327Y142922D01*
X225400Y142904D01*
X225449Y142908D01*
X225497Y142903D01*
X225570Y142919D01*
X225645Y142925D01*
X225690Y142945D01*
X225738Y142955D01*
X225802Y142993D01*
X225871Y143023D01*
X225907Y143056D01*
X225949Y143081D01*
X225998Y143138D01*
X226053Y143188D01*
X226077Y143231D01*
X226109Y143268D01*
X226137Y143338D01*
X226173Y143403D01*
X226182Y143451D01*
X226201Y143496D01*
X226215Y143621D01*
X226219Y143644D01*
X226218Y143654D01*
X226219Y143663D01*
X226219Y148710D01*
X228322Y153787D01*
X228330Y153822D01*
X228335Y153832D01*
X228336Y153838D01*
X228352Y153873D01*
X228360Y153950D01*
X228378Y154026D01*
X228374Y154072D01*
X228379Y154117D01*
X228362Y154194D01*
X228355Y154271D01*
X228336Y154313D01*
X228327Y154358D01*
X228287Y154425D01*
X228255Y154496D01*
X228224Y154530D01*
X228201Y154569D01*
X228141Y154620D01*
X228089Y154677D01*
X228048Y154699D01*
X228014Y154729D01*
X227941Y154758D01*
X227873Y154795D01*
X227828Y154804D01*
X227785Y154821D01*
X227650Y154836D01*
X227631Y154839D01*
X227626Y154838D01*
X227619Y154839D01*
X39161Y154839D01*
X39116Y154832D01*
X39070Y154834D01*
X38995Y154812D01*
X38919Y154800D01*
X38878Y154778D01*
X38834Y154765D01*
X38770Y154721D01*
X38701Y154684D01*
X38670Y154651D01*
X38632Y154625D01*
X38585Y154562D01*
X38532Y154506D01*
X38512Y154464D01*
X38485Y154428D01*
X38461Y154354D01*
X38428Y154283D01*
X38423Y154237D01*
X38409Y154194D01*
X38410Y154116D01*
X38401Y154039D01*
X38411Y153994D01*
X38411Y153948D01*
X38449Y153816D01*
X38453Y153798D01*
X38456Y153794D01*
X38458Y153787D01*
X40561Y148710D01*
X40561Y140690D01*
X37491Y133280D01*
X31820Y127609D01*
X24410Y124539D01*
X16390Y124539D01*
X11213Y126683D01*
X11169Y126694D01*
X11127Y126713D01*
X11050Y126722D01*
X10974Y126740D01*
X10928Y126735D01*
X10883Y126740D01*
X10806Y126724D01*
X10729Y126717D01*
X10687Y126698D01*
X10642Y126688D01*
X10575Y126648D01*
X10504Y126617D01*
X10470Y126585D01*
X10431Y126562D01*
X10380Y126503D01*
X10323Y126450D01*
X10301Y126410D01*
X10271Y126375D01*
X10242Y126303D01*
X10205Y126235D01*
X10196Y126189D01*
X10179Y126147D01*
X10164Y126011D01*
X10161Y125993D01*
X10162Y125988D01*
X10161Y125980D01*
X10161Y39120D01*
X10168Y39075D01*
X10166Y39029D01*
X10188Y38954D01*
X10200Y38877D01*
X10222Y38837D01*
X10235Y38792D01*
X10279Y38728D01*
X10316Y38660D01*
X10349Y38628D01*
X10375Y38590D01*
X10438Y38544D01*
X10494Y38490D01*
X10536Y38471D01*
X10572Y38444D01*
X10646Y38419D01*
X10717Y38387D01*
X10763Y38382D01*
X10806Y38367D01*
X10884Y38368D01*
X10961Y38360D01*
X11006Y38369D01*
X11052Y38370D01*
X11184Y38408D01*
X11202Y38412D01*
X11206Y38414D01*
X11213Y38417D01*
X16390Y40561D01*
X24410Y40561D01*
X31820Y37491D01*
X37491Y31820D01*
X39995Y25777D01*
X40046Y25694D01*
X40092Y25608D01*
X40111Y25590D01*
X40124Y25568D01*
X40199Y25505D01*
X40270Y25438D01*
X40294Y25427D01*
X40314Y25411D01*
X40405Y25376D01*
X40493Y25335D01*
X40519Y25332D01*
X40543Y25323D01*
X40641Y25318D01*
X40737Y25308D01*
X40763Y25313D01*
X40789Y25312D01*
X40883Y25339D01*
X40978Y25360D01*
X41000Y25373D01*
X41025Y25381D01*
X41105Y25436D01*
X41189Y25486D01*
X41206Y25506D01*
X41227Y25521D01*
X41286Y25599D01*
X41349Y25673D01*
X41359Y25697D01*
X41374Y25718D01*
X41404Y25811D01*
X41441Y25901D01*
X41444Y25934D01*
X41450Y25952D01*
X41450Y25985D01*
X41459Y26068D01*
X41459Y28477D01*
X51977Y28477D01*
X51977Y19459D01*
X43666Y19459D01*
X43019Y19632D01*
X42440Y19967D01*
X41947Y20460D01*
X41928Y20495D01*
X41874Y20547D01*
X41826Y20605D01*
X41785Y20631D01*
X41750Y20664D01*
X41681Y20696D01*
X41617Y20736D01*
X41571Y20747D01*
X41527Y20768D01*
X41452Y20776D01*
X41378Y20794D01*
X41330Y20789D01*
X41283Y20795D01*
X41209Y20779D01*
X41133Y20772D01*
X41089Y20753D01*
X41042Y20743D01*
X40977Y20704D01*
X40908Y20673D01*
X40872Y20641D01*
X40831Y20616D01*
X40782Y20559D01*
X40726Y20508D01*
X40702Y20466D01*
X40671Y20429D01*
X40643Y20359D01*
X40606Y20293D01*
X40597Y20246D01*
X40579Y20201D01*
X40565Y20074D01*
X40561Y20051D01*
X40562Y20045D01*
X40561Y20035D01*
X40561Y16390D01*
X38417Y11213D01*
X38406Y11169D01*
X38387Y11127D01*
X38378Y11050D01*
X38360Y10974D01*
X38365Y10928D01*
X38360Y10883D01*
X38376Y10806D01*
X38383Y10729D01*
X38402Y10687D01*
X38412Y10642D01*
X38452Y10575D01*
X38483Y10504D01*
X38515Y10470D01*
X38538Y10431D01*
X38597Y10380D01*
X38650Y10323D01*
X38690Y10301D01*
X38725Y10271D01*
X38797Y10242D01*
X38865Y10205D01*
X38911Y10196D01*
X38953Y10179D01*
X39089Y10164D01*
X39107Y10161D01*
X39112Y10162D01*
X39120Y10161D01*
X173036Y10161D01*
X173130Y10176D01*
G37*
%LPC*%
G36*
X211853Y19397D02*
X211853Y19397D01*
X208772Y20673D01*
X207819Y21626D01*
X207766Y21664D01*
X207719Y21711D01*
X207701Y21720D01*
X182077Y47344D01*
X182003Y47397D01*
X181933Y47457D01*
X181903Y47469D01*
X181877Y47488D01*
X181790Y47515D01*
X181705Y47549D01*
X181664Y47553D01*
X181642Y47560D01*
X181610Y47559D01*
X181538Y47567D01*
X175038Y47567D01*
X173846Y48760D01*
X173846Y48765D01*
X173824Y48867D01*
X173808Y48969D01*
X173798Y48986D01*
X173794Y49006D01*
X173741Y49095D01*
X173692Y49186D01*
X173678Y49200D01*
X173668Y49217D01*
X173589Y49284D01*
X173514Y49356D01*
X173496Y49364D01*
X173481Y49377D01*
X173385Y49416D01*
X173291Y49459D01*
X173271Y49461D01*
X173253Y49469D01*
X173086Y49487D01*
X160654Y49487D01*
X160634Y49484D01*
X160615Y49486D01*
X160513Y49464D01*
X160411Y49448D01*
X160394Y49438D01*
X160374Y49434D01*
X160285Y49381D01*
X160194Y49332D01*
X160180Y49318D01*
X160163Y49308D01*
X160096Y49229D01*
X160024Y49154D01*
X160016Y49136D01*
X160003Y49121D01*
X159964Y49025D01*
X159921Y48931D01*
X159919Y48911D01*
X159911Y48893D01*
X159893Y48726D01*
X159893Y46798D01*
X158702Y45607D01*
X141018Y45607D01*
X139827Y46798D01*
X139827Y60391D01*
X139813Y60481D01*
X139805Y60572D01*
X139793Y60601D01*
X139788Y60633D01*
X139761Y60683D01*
X139760Y60685D01*
X139745Y60714D01*
X139709Y60798D01*
X139683Y60830D01*
X139672Y60851D01*
X139649Y60873D01*
X139644Y60879D01*
X139635Y60894D01*
X139625Y60903D01*
X139604Y60929D01*
X134567Y65966D01*
X134567Y78800D01*
X134552Y78896D01*
X134542Y78993D01*
X134532Y79017D01*
X134528Y79043D01*
X134482Y79129D01*
X134442Y79218D01*
X134425Y79237D01*
X134412Y79261D01*
X134342Y79327D01*
X134276Y79399D01*
X134253Y79412D01*
X134234Y79430D01*
X134146Y79471D01*
X134060Y79518D01*
X134035Y79523D01*
X134011Y79534D01*
X133914Y79544D01*
X133818Y79562D01*
X133792Y79558D01*
X133767Y79561D01*
X133671Y79540D01*
X133575Y79526D01*
X133552Y79514D01*
X133526Y79508D01*
X133443Y79458D01*
X133356Y79414D01*
X133337Y79396D01*
X133315Y79382D01*
X133252Y79308D01*
X133184Y79239D01*
X133168Y79210D01*
X133155Y79195D01*
X133143Y79165D01*
X133103Y79092D01*
X132619Y77925D01*
X131849Y76772D01*
X130868Y75791D01*
X129715Y75021D01*
X128434Y74490D01*
X127903Y74384D01*
X127903Y80498D01*
X127900Y80518D01*
X127902Y80537D01*
X127880Y80639D01*
X127863Y80741D01*
X127854Y80758D01*
X127850Y80778D01*
X127797Y80867D01*
X127748Y80958D01*
X127734Y80972D01*
X127724Y80989D01*
X127645Y81056D01*
X127570Y81127D01*
X127552Y81136D01*
X127537Y81149D01*
X127441Y81188D01*
X127347Y81231D01*
X127327Y81233D01*
X127309Y81241D01*
X127142Y81259D01*
X126379Y81259D01*
X126379Y82022D01*
X126376Y82042D01*
X126378Y82061D01*
X126356Y82163D01*
X126339Y82265D01*
X126330Y82282D01*
X126326Y82302D01*
X126273Y82391D01*
X126224Y82482D01*
X126210Y82496D01*
X126200Y82513D01*
X126121Y82580D01*
X126046Y82651D01*
X126028Y82660D01*
X126013Y82673D01*
X125917Y82712D01*
X125823Y82755D01*
X125803Y82757D01*
X125785Y82765D01*
X125618Y82783D01*
X119504Y82783D01*
X119610Y83314D01*
X120141Y84595D01*
X120911Y85748D01*
X121892Y86729D01*
X122152Y86903D01*
X122221Y86967D01*
X122295Y87026D01*
X122310Y87051D01*
X122332Y87071D01*
X122377Y87154D01*
X122428Y87233D01*
X122435Y87261D01*
X122449Y87287D01*
X122465Y87380D01*
X122488Y87471D01*
X122485Y87501D01*
X122490Y87529D01*
X122476Y87623D01*
X122468Y87717D01*
X122457Y87744D01*
X122453Y87773D01*
X122409Y87856D01*
X122372Y87943D01*
X122349Y87972D01*
X122339Y87991D01*
X122316Y88014D01*
X122267Y88074D01*
X121194Y89147D01*
X121118Y89202D01*
X121045Y89263D01*
X121018Y89274D01*
X120994Y89291D01*
X120904Y89319D01*
X120816Y89353D01*
X120787Y89355D01*
X120759Y89363D01*
X120665Y89361D01*
X120571Y89366D01*
X120543Y89358D01*
X120513Y89357D01*
X120425Y89324D01*
X120334Y89299D01*
X120310Y89282D01*
X120282Y89272D01*
X120209Y89213D01*
X120131Y89160D01*
X120107Y89132D01*
X120090Y89119D01*
X120073Y89091D01*
X120023Y89032D01*
X119809Y88712D01*
X118828Y87731D01*
X117675Y86961D01*
X116394Y86430D01*
X115863Y86324D01*
X115863Y92438D01*
X115860Y92458D01*
X115862Y92477D01*
X115840Y92579D01*
X115823Y92681D01*
X115814Y92698D01*
X115810Y92718D01*
X115757Y92807D01*
X115708Y92898D01*
X115694Y92912D01*
X115684Y92929D01*
X115605Y92996D01*
X115530Y93067D01*
X115512Y93076D01*
X115497Y93089D01*
X115401Y93128D01*
X115307Y93171D01*
X115287Y93173D01*
X115269Y93181D01*
X115102Y93199D01*
X113578Y93199D01*
X113558Y93196D01*
X113539Y93198D01*
X113437Y93176D01*
X113335Y93159D01*
X113318Y93150D01*
X113298Y93146D01*
X113209Y93093D01*
X113118Y93044D01*
X113104Y93030D01*
X113087Y93020D01*
X113020Y92941D01*
X112949Y92866D01*
X112940Y92848D01*
X112927Y92833D01*
X112888Y92737D01*
X112845Y92643D01*
X112843Y92623D01*
X112835Y92605D01*
X112817Y92438D01*
X112817Y86324D01*
X112286Y86430D01*
X111005Y86961D01*
X109852Y87731D01*
X108871Y88712D01*
X108657Y89032D01*
X108636Y89055D01*
X108632Y89060D01*
X108623Y89068D01*
X108593Y89101D01*
X108534Y89174D01*
X108509Y89190D01*
X108489Y89212D01*
X108407Y89256D01*
X108327Y89307D01*
X108299Y89315D01*
X108273Y89329D01*
X108180Y89345D01*
X108088Y89368D01*
X108059Y89365D01*
X108030Y89370D01*
X107937Y89356D01*
X107843Y89348D01*
X107816Y89337D01*
X107787Y89332D01*
X107704Y89289D01*
X107617Y89252D01*
X107588Y89229D01*
X107569Y89219D01*
X107546Y89196D01*
X107486Y89147D01*
X106107Y87768D01*
X106095Y87752D01*
X106080Y87740D01*
X106024Y87652D01*
X105963Y87569D01*
X105958Y87550D01*
X105947Y87533D01*
X105921Y87432D01*
X105891Y87333D01*
X105892Y87314D01*
X105887Y87294D01*
X105895Y87191D01*
X105897Y87088D01*
X105904Y87069D01*
X105906Y87049D01*
X105946Y86954D01*
X105982Y86857D01*
X105994Y86841D01*
X106002Y86823D01*
X106107Y86692D01*
X107838Y84961D01*
X108833Y82559D01*
X108833Y80143D01*
X108840Y80098D01*
X108838Y80052D01*
X108860Y79977D01*
X108872Y79900D01*
X108894Y79860D01*
X108907Y79816D01*
X108951Y79752D01*
X108988Y79683D01*
X109021Y79652D01*
X109047Y79614D01*
X109110Y79567D01*
X109166Y79514D01*
X109208Y79494D01*
X109244Y79467D01*
X109318Y79443D01*
X109389Y79410D01*
X109435Y79405D01*
X109478Y79391D01*
X109556Y79392D01*
X109633Y79383D01*
X109678Y79393D01*
X109724Y79393D01*
X109856Y79431D01*
X109874Y79435D01*
X109878Y79438D01*
X109885Y79440D01*
X111722Y80201D01*
X116958Y80201D01*
X118317Y79638D01*
X118433Y79611D01*
X118550Y79582D01*
X118553Y79582D01*
X118556Y79582D01*
X118676Y79593D01*
X118795Y79603D01*
X118798Y79605D01*
X118801Y79605D01*
X118911Y79654D01*
X119020Y79701D01*
X119023Y79704D01*
X119026Y79705D01*
X119060Y79737D01*
X124857Y79737D01*
X124857Y75451D01*
X124872Y75361D01*
X124879Y75270D01*
X124891Y75240D01*
X124897Y75208D01*
X124939Y75127D01*
X124975Y75043D01*
X125001Y75011D01*
X125012Y74990D01*
X125035Y74968D01*
X125080Y74912D01*
X125497Y74495D01*
X127501Y69658D01*
X127501Y65701D01*
X127502Y65694D01*
X127502Y65693D01*
X127503Y65686D01*
X127512Y65633D01*
X127513Y65565D01*
X127532Y65513D01*
X127540Y65458D01*
X127573Y65398D01*
X127596Y65333D01*
X127630Y65289D01*
X127656Y65241D01*
X127705Y65194D01*
X127748Y65140D01*
X127794Y65109D01*
X127834Y65071D01*
X127896Y65043D01*
X127954Y65005D01*
X128027Y64982D01*
X128057Y64968D01*
X128078Y64965D01*
X128113Y64954D01*
X128142Y64949D01*
X129241Y64493D01*
X130231Y63832D01*
X131072Y62991D01*
X131733Y62001D01*
X132189Y60902D01*
X132236Y60663D01*
X127142Y60663D01*
X127122Y60660D01*
X127103Y60662D01*
X127001Y60640D01*
X126899Y60623D01*
X126882Y60614D01*
X126862Y60610D01*
X126773Y60557D01*
X126682Y60508D01*
X126668Y60494D01*
X126651Y60484D01*
X126584Y60405D01*
X126513Y60330D01*
X126504Y60312D01*
X126491Y60297D01*
X126452Y60201D01*
X126409Y60107D01*
X126407Y60087D01*
X126399Y60069D01*
X126381Y59902D01*
X126381Y59139D01*
X125618Y59139D01*
X125598Y59136D01*
X125579Y59138D01*
X125477Y59116D01*
X125375Y59099D01*
X125358Y59090D01*
X125338Y59086D01*
X125249Y59033D01*
X125158Y58984D01*
X125144Y58970D01*
X125127Y58960D01*
X125060Y58881D01*
X124989Y58806D01*
X124980Y58788D01*
X124967Y58773D01*
X124928Y58677D01*
X124885Y58583D01*
X124883Y58563D01*
X124875Y58545D01*
X124857Y58378D01*
X124857Y53284D01*
X124618Y53331D01*
X123519Y53787D01*
X122529Y54448D01*
X121659Y55318D01*
X121565Y55386D01*
X121470Y55456D01*
X121464Y55458D01*
X121459Y55462D01*
X121348Y55496D01*
X121237Y55532D01*
X121230Y55532D01*
X121224Y55534D01*
X121108Y55531D01*
X120991Y55530D01*
X120983Y55528D01*
X120978Y55528D01*
X120961Y55521D01*
X120830Y55483D01*
X116958Y53879D01*
X111722Y53879D01*
X107850Y55483D01*
X107737Y55510D01*
X107623Y55538D01*
X107617Y55538D01*
X107611Y55539D01*
X107494Y55528D01*
X107378Y55519D01*
X107372Y55517D01*
X107366Y55516D01*
X107259Y55468D01*
X107152Y55423D01*
X107146Y55418D01*
X107141Y55416D01*
X107128Y55404D01*
X107021Y55318D01*
X106151Y54448D01*
X105161Y53787D01*
X104062Y53331D01*
X103823Y53284D01*
X103823Y58378D01*
X103820Y58398D01*
X103822Y58417D01*
X103800Y58519D01*
X103783Y58621D01*
X103774Y58638D01*
X103770Y58658D01*
X103717Y58747D01*
X103668Y58838D01*
X103654Y58852D01*
X103644Y58869D01*
X103565Y58936D01*
X103490Y59007D01*
X103472Y59016D01*
X103457Y59029D01*
X103361Y59068D01*
X103267Y59111D01*
X103247Y59113D01*
X103229Y59121D01*
X103062Y59139D01*
X102299Y59139D01*
X102299Y59902D01*
X102296Y59922D01*
X102298Y59941D01*
X102276Y60043D01*
X102259Y60145D01*
X102250Y60162D01*
X102246Y60182D01*
X102193Y60271D01*
X102144Y60362D01*
X102130Y60376D01*
X102120Y60393D01*
X102041Y60460D01*
X101966Y60531D01*
X101948Y60540D01*
X101933Y60553D01*
X101837Y60592D01*
X101743Y60635D01*
X101723Y60637D01*
X101705Y60645D01*
X101538Y60663D01*
X96444Y60663D01*
X96491Y60902D01*
X96947Y62001D01*
X97608Y62991D01*
X98449Y63832D01*
X99439Y64493D01*
X100538Y64949D01*
X100567Y64954D01*
X100631Y64978D01*
X100698Y64993D01*
X100745Y65021D01*
X100797Y65041D01*
X100850Y65084D01*
X100909Y65119D01*
X100945Y65161D01*
X100988Y65196D01*
X101024Y65254D01*
X101069Y65306D01*
X101090Y65357D01*
X101119Y65404D01*
X101135Y65470D01*
X101161Y65534D01*
X101169Y65611D01*
X101177Y65643D01*
X101175Y65664D01*
X101179Y65701D01*
X101179Y69658D01*
X102554Y72976D01*
X102576Y73070D01*
X102604Y73163D01*
X102604Y73190D01*
X102610Y73215D01*
X102601Y73312D01*
X102598Y73409D01*
X102589Y73434D01*
X102587Y73460D01*
X102547Y73549D01*
X102514Y73640D01*
X102497Y73661D01*
X102487Y73685D01*
X102421Y73756D01*
X102360Y73832D01*
X102338Y73846D01*
X102320Y73866D01*
X102235Y73913D01*
X102153Y73965D01*
X102128Y73972D01*
X102105Y73984D01*
X102009Y74002D01*
X101914Y74025D01*
X101888Y74023D01*
X101863Y74028D01*
X101766Y74014D01*
X101669Y74006D01*
X101645Y73996D01*
X101619Y73992D01*
X101532Y73948D01*
X101443Y73910D01*
X101417Y73890D01*
X101400Y73881D01*
X101377Y73857D01*
X101312Y73805D01*
X99434Y71927D01*
X92294Y71927D01*
X92274Y71924D01*
X92255Y71926D01*
X92153Y71904D01*
X92051Y71888D01*
X92034Y71878D01*
X92014Y71874D01*
X91925Y71821D01*
X91834Y71772D01*
X91820Y71758D01*
X91803Y71748D01*
X91736Y71669D01*
X91664Y71594D01*
X91656Y71576D01*
X91643Y71561D01*
X91604Y71465D01*
X91561Y71371D01*
X91559Y71351D01*
X91551Y71333D01*
X91533Y71166D01*
X91533Y69158D01*
X90342Y67967D01*
X73658Y67967D01*
X72467Y69158D01*
X72467Y71166D01*
X72464Y71186D01*
X72466Y71205D01*
X72444Y71307D01*
X72428Y71409D01*
X72418Y71426D01*
X72414Y71446D01*
X72361Y71535D01*
X72312Y71626D01*
X72298Y71640D01*
X72288Y71657D01*
X72209Y71724D01*
X72134Y71796D01*
X72116Y71804D01*
X72101Y71817D01*
X72005Y71856D01*
X71911Y71899D01*
X71891Y71901D01*
X71873Y71909D01*
X71706Y71927D01*
X67869Y71927D01*
X67779Y71913D01*
X67688Y71905D01*
X67659Y71893D01*
X67627Y71888D01*
X67546Y71845D01*
X67462Y71809D01*
X67430Y71783D01*
X67409Y71772D01*
X67387Y71749D01*
X67331Y71704D01*
X61474Y65847D01*
X40318Y65847D01*
X40227Y65833D01*
X40137Y65825D01*
X40107Y65813D01*
X40075Y65808D01*
X39994Y65765D01*
X39910Y65729D01*
X39878Y65703D01*
X39857Y65692D01*
X39835Y65669D01*
X39779Y65624D01*
X37468Y63313D01*
X34387Y62037D01*
X31053Y62037D01*
X27972Y63313D01*
X25613Y65672D01*
X24337Y68753D01*
X24337Y72087D01*
X25613Y75168D01*
X27972Y77527D01*
X31053Y78803D01*
X34387Y78803D01*
X37468Y77527D01*
X39779Y75216D01*
X39853Y75163D01*
X39923Y75103D01*
X39953Y75091D01*
X39979Y75072D01*
X40066Y75045D01*
X40151Y75011D01*
X40192Y75007D01*
X40214Y75000D01*
X40246Y75001D01*
X40318Y74993D01*
X57371Y74993D01*
X57461Y75007D01*
X57552Y75015D01*
X57581Y75027D01*
X57613Y75032D01*
X57694Y75075D01*
X57778Y75111D01*
X57810Y75137D01*
X57831Y75148D01*
X57853Y75171D01*
X57909Y75216D01*
X63766Y81073D01*
X71706Y81073D01*
X71726Y81076D01*
X71745Y81074D01*
X71847Y81096D01*
X71949Y81112D01*
X71966Y81122D01*
X71986Y81126D01*
X72075Y81179D01*
X72166Y81228D01*
X72180Y81242D01*
X72197Y81252D01*
X72264Y81331D01*
X72336Y81406D01*
X72344Y81424D01*
X72357Y81439D01*
X72396Y81535D01*
X72439Y81629D01*
X72441Y81649D01*
X72449Y81667D01*
X72467Y81834D01*
X72467Y83842D01*
X73658Y85033D01*
X90342Y85033D01*
X91533Y83842D01*
X91533Y81834D01*
X91536Y81814D01*
X91534Y81795D01*
X91556Y81693D01*
X91572Y81591D01*
X91582Y81574D01*
X91586Y81554D01*
X91639Y81465D01*
X91688Y81374D01*
X91702Y81360D01*
X91712Y81343D01*
X91791Y81276D01*
X91866Y81204D01*
X91884Y81196D01*
X91899Y81183D01*
X91995Y81144D01*
X92089Y81101D01*
X92109Y81099D01*
X92127Y81091D01*
X92294Y81073D01*
X95006Y81073D01*
X95026Y81076D01*
X95045Y81074D01*
X95147Y81096D01*
X95249Y81112D01*
X95266Y81122D01*
X95286Y81126D01*
X95375Y81179D01*
X95466Y81228D01*
X95480Y81242D01*
X95497Y81252D01*
X95564Y81331D01*
X95636Y81406D01*
X95644Y81424D01*
X95657Y81439D01*
X95696Y81535D01*
X95739Y81629D01*
X95741Y81649D01*
X95749Y81667D01*
X95767Y81834D01*
X95767Y82559D01*
X96762Y84961D01*
X98493Y86692D01*
X98505Y86708D01*
X98520Y86720D01*
X98576Y86808D01*
X98637Y86891D01*
X98642Y86910D01*
X98653Y86927D01*
X98679Y87028D01*
X98709Y87127D01*
X98708Y87146D01*
X98713Y87166D01*
X98705Y87269D01*
X98703Y87372D01*
X98696Y87391D01*
X98694Y87411D01*
X98654Y87506D01*
X98618Y87603D01*
X98606Y87619D01*
X98598Y87637D01*
X98493Y87768D01*
X96762Y89499D01*
X95767Y91901D01*
X95767Y94499D01*
X96762Y96901D01*
X97504Y97643D01*
X97557Y97717D01*
X97617Y97786D01*
X97629Y97817D01*
X97648Y97843D01*
X97675Y97930D01*
X97709Y98015D01*
X97713Y98055D01*
X97720Y98078D01*
X97719Y98110D01*
X97727Y98181D01*
X97727Y109206D01*
X97724Y109226D01*
X97726Y109245D01*
X97704Y109347D01*
X97688Y109449D01*
X97678Y109466D01*
X97674Y109486D01*
X97621Y109575D01*
X97572Y109666D01*
X97558Y109680D01*
X97548Y109697D01*
X97469Y109764D01*
X97394Y109836D01*
X97376Y109844D01*
X97361Y109857D01*
X97265Y109896D01*
X97171Y109939D01*
X97151Y109941D01*
X97133Y109949D01*
X96966Y109967D01*
X93158Y109967D01*
X91967Y111158D01*
X91967Y128842D01*
X93158Y130033D01*
X96266Y130033D01*
X96286Y130036D01*
X96305Y130034D01*
X96407Y130056D01*
X96509Y130072D01*
X96526Y130082D01*
X96546Y130086D01*
X96635Y130139D01*
X96726Y130188D01*
X96740Y130202D01*
X96757Y130212D01*
X96824Y130291D01*
X96896Y130366D01*
X96904Y130384D01*
X96917Y130399D01*
X96956Y130495D01*
X96999Y130589D01*
X97001Y130609D01*
X97009Y130627D01*
X97027Y130794D01*
X97027Y137182D01*
X97013Y137273D01*
X97005Y137363D01*
X96993Y137393D01*
X96988Y137425D01*
X96945Y137506D01*
X96909Y137590D01*
X96883Y137622D01*
X96872Y137643D01*
X96849Y137665D01*
X96804Y137721D01*
X94493Y140032D01*
X93217Y143113D01*
X93217Y146447D01*
X94493Y149528D01*
X96852Y151887D01*
X99933Y153163D01*
X103267Y153163D01*
X106348Y151887D01*
X108707Y149528D01*
X109983Y146447D01*
X109983Y143113D01*
X108707Y140032D01*
X106396Y137721D01*
X106343Y137647D01*
X106283Y137577D01*
X106271Y137547D01*
X106252Y137521D01*
X106225Y137434D01*
X106191Y137349D01*
X106187Y137308D01*
X106180Y137286D01*
X106181Y137254D01*
X106173Y137182D01*
X106173Y130794D01*
X106176Y130774D01*
X106174Y130755D01*
X106196Y130653D01*
X106212Y130551D01*
X106222Y130534D01*
X106226Y130514D01*
X106279Y130425D01*
X106328Y130334D01*
X106342Y130320D01*
X106352Y130303D01*
X106431Y130236D01*
X106506Y130164D01*
X106524Y130156D01*
X106539Y130143D01*
X106635Y130104D01*
X106729Y130061D01*
X106749Y130059D01*
X106767Y130051D01*
X106934Y130033D01*
X113842Y130033D01*
X115033Y128842D01*
X115033Y111158D01*
X113842Y109967D01*
X107634Y109967D01*
X107614Y109964D01*
X107595Y109966D01*
X107493Y109944D01*
X107391Y109928D01*
X107374Y109918D01*
X107354Y109914D01*
X107265Y109861D01*
X107174Y109812D01*
X107160Y109798D01*
X107143Y109788D01*
X107076Y109709D01*
X107004Y109634D01*
X106996Y109616D01*
X106983Y109601D01*
X106944Y109505D01*
X106901Y109411D01*
X106899Y109391D01*
X106891Y109373D01*
X106873Y109206D01*
X106873Y98181D01*
X106887Y98091D01*
X106895Y98000D01*
X106907Y97970D01*
X106912Y97939D01*
X106955Y97858D01*
X106991Y97774D01*
X107017Y97742D01*
X107028Y97721D01*
X107051Y97699D01*
X107096Y97643D01*
X107486Y97253D01*
X107562Y97198D01*
X107635Y97137D01*
X107662Y97126D01*
X107686Y97109D01*
X107776Y97081D01*
X107864Y97047D01*
X107893Y97045D01*
X107921Y97037D01*
X108015Y97039D01*
X108109Y97034D01*
X108137Y97042D01*
X108167Y97043D01*
X108255Y97076D01*
X108346Y97101D01*
X108370Y97118D01*
X108398Y97128D01*
X108471Y97187D01*
X108549Y97240D01*
X108573Y97268D01*
X108590Y97281D01*
X108607Y97309D01*
X108657Y97368D01*
X108871Y97688D01*
X109852Y98669D01*
X111005Y99439D01*
X112286Y99970D01*
X112817Y100076D01*
X112817Y93962D01*
X112820Y93942D01*
X112818Y93923D01*
X112840Y93821D01*
X112857Y93719D01*
X112866Y93702D01*
X112870Y93682D01*
X112923Y93593D01*
X112972Y93502D01*
X112986Y93488D01*
X112996Y93471D01*
X113075Y93404D01*
X113150Y93333D01*
X113168Y93324D01*
X113183Y93311D01*
X113279Y93272D01*
X113373Y93229D01*
X113393Y93227D01*
X113411Y93219D01*
X113578Y93201D01*
X115102Y93201D01*
X115122Y93204D01*
X115141Y93202D01*
X115243Y93224D01*
X115345Y93241D01*
X115362Y93250D01*
X115382Y93254D01*
X115471Y93307D01*
X115562Y93356D01*
X115576Y93370D01*
X115593Y93380D01*
X115660Y93459D01*
X115731Y93534D01*
X115740Y93552D01*
X115753Y93567D01*
X115792Y93663D01*
X115835Y93757D01*
X115837Y93777D01*
X115845Y93795D01*
X115863Y93962D01*
X115863Y100076D01*
X116394Y99970D01*
X117675Y99439D01*
X118828Y98669D01*
X119809Y97688D01*
X120023Y97368D01*
X120087Y97299D01*
X120146Y97226D01*
X120171Y97210D01*
X120191Y97188D01*
X120273Y97144D01*
X120353Y97093D01*
X120381Y97085D01*
X120407Y97071D01*
X120500Y97055D01*
X120592Y97032D01*
X120621Y97035D01*
X120650Y97030D01*
X120743Y97044D01*
X120837Y97052D01*
X120864Y97063D01*
X120893Y97068D01*
X120976Y97111D01*
X121063Y97148D01*
X121092Y97171D01*
X121111Y97181D01*
X121134Y97204D01*
X121194Y97253D01*
X122679Y98738D01*
X125081Y99733D01*
X127679Y99733D01*
X130081Y98738D01*
X130823Y97996D01*
X130897Y97943D01*
X130966Y97883D01*
X130996Y97871D01*
X131023Y97852D01*
X131110Y97825D01*
X131195Y97791D01*
X131235Y97787D01*
X131258Y97780D01*
X131290Y97781D01*
X131361Y97773D01*
X139324Y97773D01*
X143713Y93384D01*
X143713Y70069D01*
X143727Y69979D01*
X143735Y69888D01*
X143747Y69859D01*
X143752Y69827D01*
X143795Y69746D01*
X143831Y69662D01*
X143857Y69630D01*
X143868Y69609D01*
X143891Y69587D01*
X143936Y69531D01*
X144571Y68896D01*
X144645Y68843D01*
X144715Y68783D01*
X144745Y68771D01*
X144771Y68752D01*
X144858Y68725D01*
X144943Y68691D01*
X144984Y68687D01*
X145006Y68680D01*
X145038Y68681D01*
X145109Y68673D01*
X158702Y68673D01*
X159893Y67482D01*
X159893Y64474D01*
X159896Y64454D01*
X159894Y64435D01*
X159916Y64333D01*
X159932Y64231D01*
X159942Y64214D01*
X159946Y64194D01*
X159999Y64105D01*
X160048Y64014D01*
X160062Y64000D01*
X160072Y63983D01*
X160151Y63916D01*
X160226Y63844D01*
X160244Y63836D01*
X160259Y63823D01*
X160355Y63784D01*
X160449Y63741D01*
X160469Y63739D01*
X160487Y63731D01*
X160654Y63713D01*
X173086Y63713D01*
X173106Y63716D01*
X173125Y63714D01*
X173227Y63736D01*
X173329Y63752D01*
X173346Y63762D01*
X173366Y63766D01*
X173455Y63819D01*
X173546Y63868D01*
X173560Y63882D01*
X173577Y63892D01*
X173644Y63971D01*
X173716Y64046D01*
X173724Y64064D01*
X173737Y64079D01*
X173776Y64175D01*
X173819Y64269D01*
X173821Y64289D01*
X173829Y64307D01*
X173843Y64438D01*
X175040Y65634D01*
X175045Y65634D01*
X175147Y65656D01*
X175249Y65672D01*
X175266Y65682D01*
X175286Y65686D01*
X175375Y65739D01*
X175466Y65788D01*
X175480Y65802D01*
X175497Y65812D01*
X175564Y65891D01*
X175636Y65966D01*
X175644Y65984D01*
X175657Y65999D01*
X175696Y66095D01*
X175739Y66189D01*
X175741Y66209D01*
X175749Y66227D01*
X175767Y66394D01*
X175767Y68015D01*
X176850Y70629D01*
X178644Y72423D01*
X178697Y72497D01*
X178757Y72567D01*
X178769Y72597D01*
X178788Y72623D01*
X178815Y72710D01*
X178849Y72795D01*
X178853Y72836D01*
X178860Y72858D01*
X178859Y72890D01*
X178867Y72962D01*
X178867Y78992D01*
X180058Y80183D01*
X186610Y80183D01*
X186675Y80193D01*
X186740Y80194D01*
X186820Y80217D01*
X186853Y80222D01*
X186870Y80232D01*
X186882Y80235D01*
X186884Y80235D01*
X186885Y80236D01*
X186901Y80241D01*
X188765Y81013D01*
X191595Y81013D01*
X193459Y80241D01*
X193522Y80226D01*
X193583Y80201D01*
X193666Y80192D01*
X193698Y80185D01*
X193717Y80186D01*
X193750Y80183D01*
X251742Y80183D01*
X252933Y78992D01*
X252933Y68808D01*
X251742Y67617D01*
X194272Y67617D01*
X194181Y67603D01*
X194091Y67595D01*
X194061Y67583D01*
X194029Y67578D01*
X193948Y67535D01*
X193864Y67499D01*
X193832Y67473D01*
X193811Y67462D01*
X193789Y67439D01*
X193733Y67394D01*
X191885Y65546D01*
X191873Y65530D01*
X191858Y65518D01*
X191802Y65430D01*
X191742Y65346D01*
X191736Y65327D01*
X191725Y65311D01*
X191700Y65210D01*
X191669Y65111D01*
X191670Y65091D01*
X191665Y65072D01*
X191673Y64969D01*
X191676Y64866D01*
X191682Y64847D01*
X191684Y64827D01*
X191724Y64732D01*
X191760Y64634D01*
X191773Y64619D01*
X191780Y64601D01*
X191885Y64470D01*
X191913Y64442D01*
X191913Y57942D01*
X191927Y57851D01*
X191935Y57761D01*
X191947Y57731D01*
X191952Y57699D01*
X191995Y57618D01*
X192031Y57534D01*
X192057Y57502D01*
X192068Y57481D01*
X192091Y57459D01*
X192136Y57403D01*
X213153Y36386D01*
X213227Y36333D01*
X213297Y36273D01*
X213327Y36261D01*
X213353Y36242D01*
X213440Y36215D01*
X213525Y36181D01*
X213566Y36177D01*
X213588Y36170D01*
X213620Y36171D01*
X213692Y36163D01*
X215187Y36163D01*
X218268Y34887D01*
X220627Y32528D01*
X221903Y29447D01*
X221903Y26113D01*
X220627Y23032D01*
X218268Y20673D01*
X215187Y19397D01*
X211853Y19397D01*
G37*
%LPD*%
%LPC*%
G36*
X180058Y82617D02*
X180058Y82617D01*
X178791Y83884D01*
X178761Y83935D01*
X178712Y84026D01*
X178698Y84040D01*
X178688Y84057D01*
X178609Y84124D01*
X178534Y84196D01*
X178516Y84204D01*
X178501Y84217D01*
X178405Y84256D01*
X178311Y84299D01*
X178291Y84301D01*
X178273Y84309D01*
X178106Y84327D01*
X164712Y84327D01*
X161810Y87229D01*
X147535Y101504D01*
X144633Y104406D01*
X144633Y105085D01*
X144619Y105175D01*
X144611Y105266D01*
X144599Y105295D01*
X144594Y105327D01*
X144551Y105408D01*
X144515Y105492D01*
X144489Y105524D01*
X144478Y105545D01*
X144455Y105567D01*
X144410Y105623D01*
X140289Y109744D01*
X140215Y109797D01*
X140145Y109857D01*
X140115Y109869D01*
X140089Y109888D01*
X140002Y109915D01*
X139917Y109949D01*
X139876Y109953D01*
X139854Y109960D01*
X139822Y109959D01*
X139751Y109967D01*
X126158Y109967D01*
X124967Y111158D01*
X124967Y128842D01*
X126158Y130033D01*
X146842Y130033D01*
X148033Y128842D01*
X148033Y115249D01*
X148047Y115159D01*
X148055Y115068D01*
X148067Y115039D01*
X148072Y115007D01*
X148115Y114926D01*
X148151Y114842D01*
X148177Y114810D01*
X148188Y114789D01*
X148211Y114767D01*
X148256Y114711D01*
X153779Y109188D01*
X153779Y108509D01*
X153793Y108419D01*
X153801Y108328D01*
X153813Y108298D01*
X153818Y108266D01*
X153861Y108186D01*
X153897Y108102D01*
X153923Y108070D01*
X153934Y108049D01*
X153957Y108027D01*
X154002Y107971D01*
X168277Y93696D01*
X168351Y93643D01*
X168420Y93583D01*
X168450Y93571D01*
X168476Y93552D01*
X168563Y93525D01*
X168648Y93491D01*
X168689Y93487D01*
X168712Y93480D01*
X168744Y93481D01*
X168815Y93473D01*
X178106Y93473D01*
X178126Y93476D01*
X178145Y93474D01*
X178247Y93496D01*
X178349Y93512D01*
X178366Y93522D01*
X178386Y93526D01*
X178475Y93579D01*
X178566Y93628D01*
X178580Y93642D01*
X178597Y93652D01*
X178664Y93731D01*
X178736Y93806D01*
X178744Y93824D01*
X178757Y93839D01*
X178786Y93910D01*
X180058Y95183D01*
X251742Y95183D01*
X252933Y93992D01*
X252933Y83808D01*
X251742Y82617D01*
X180058Y82617D01*
G37*
%LPD*%
%LPC*%
G36*
X76158Y19967D02*
X76158Y19967D01*
X74967Y21158D01*
X74967Y38842D01*
X76158Y40033D01*
X81663Y40033D01*
X81733Y40044D01*
X81805Y40046D01*
X81854Y40064D01*
X81905Y40072D01*
X81969Y40106D01*
X82036Y40131D01*
X82077Y40163D01*
X82123Y40188D01*
X82172Y40240D01*
X82228Y40284D01*
X82256Y40328D01*
X82292Y40366D01*
X82322Y40431D01*
X82361Y40491D01*
X82374Y40542D01*
X82396Y40589D01*
X82404Y40660D01*
X82421Y40730D01*
X82417Y40782D01*
X82423Y40833D01*
X82408Y40904D01*
X82402Y40975D01*
X82382Y41023D01*
X82371Y41074D01*
X82334Y41135D01*
X82306Y41201D01*
X82261Y41257D01*
X82244Y41285D01*
X82227Y41300D01*
X82201Y41332D01*
X77427Y46106D01*
X77427Y48206D01*
X77424Y48226D01*
X77426Y48245D01*
X77404Y48347D01*
X77388Y48449D01*
X77378Y48466D01*
X77374Y48486D01*
X77321Y48575D01*
X77272Y48666D01*
X77258Y48680D01*
X77248Y48697D01*
X77169Y48764D01*
X77094Y48836D01*
X77076Y48844D01*
X77061Y48857D01*
X76965Y48896D01*
X76871Y48939D01*
X76851Y48941D01*
X76833Y48949D01*
X76666Y48967D01*
X73658Y48967D01*
X72467Y50158D01*
X72467Y64842D01*
X73658Y66033D01*
X90342Y66033D01*
X91533Y64842D01*
X91533Y50158D01*
X90342Y48967D01*
X89337Y48967D01*
X89267Y48956D01*
X89195Y48954D01*
X89146Y48936D01*
X89095Y48928D01*
X89031Y48894D01*
X88964Y48869D01*
X88923Y48837D01*
X88877Y48812D01*
X88828Y48760D01*
X88772Y48716D01*
X88744Y48672D01*
X88708Y48634D01*
X88678Y48569D01*
X88639Y48509D01*
X88626Y48458D01*
X88604Y48411D01*
X88596Y48340D01*
X88579Y48270D01*
X88583Y48218D01*
X88577Y48167D01*
X88592Y48096D01*
X88598Y48025D01*
X88618Y47977D01*
X88629Y47926D01*
X88666Y47865D01*
X88694Y47799D01*
X88739Y47743D01*
X88756Y47715D01*
X88773Y47700D01*
X88799Y47668D01*
X91671Y44796D01*
X94573Y41894D01*
X94573Y40794D01*
X94576Y40774D01*
X94574Y40755D01*
X94596Y40653D01*
X94612Y40551D01*
X94622Y40534D01*
X94626Y40514D01*
X94679Y40425D01*
X94728Y40334D01*
X94742Y40320D01*
X94752Y40303D01*
X94831Y40236D01*
X94906Y40164D01*
X94924Y40156D01*
X94939Y40143D01*
X95035Y40104D01*
X95129Y40061D01*
X95149Y40059D01*
X95167Y40051D01*
X95334Y40033D01*
X96842Y40033D01*
X98033Y38842D01*
X98033Y21158D01*
X96842Y19967D01*
X76158Y19967D01*
G37*
%LPD*%
%LPC*%
G36*
X217423Y105423D02*
X217423Y105423D01*
X217423Y110691D01*
X251234Y110691D01*
X251881Y110518D01*
X252460Y110183D01*
X252933Y109710D01*
X253268Y109131D01*
X253441Y108484D01*
X253441Y105423D01*
X217423Y105423D01*
G37*
%LPD*%
%LPC*%
G36*
X178359Y105423D02*
X178359Y105423D01*
X178359Y108484D01*
X178532Y109131D01*
X178867Y109710D01*
X179340Y110183D01*
X179919Y110518D01*
X180566Y110691D01*
X214377Y110691D01*
X214377Y105423D01*
X178359Y105423D01*
G37*
%LPD*%
%LPC*%
G36*
X217423Y97109D02*
X217423Y97109D01*
X217423Y102377D01*
X253441Y102377D01*
X253441Y99316D01*
X253268Y98669D01*
X252933Y98090D01*
X252460Y97617D01*
X251881Y97282D01*
X251234Y97109D01*
X217423Y97109D01*
G37*
%LPD*%
%LPC*%
G36*
X180566Y97109D02*
X180566Y97109D01*
X179919Y97282D01*
X179340Y97617D01*
X178867Y98090D01*
X178532Y98669D01*
X178359Y99316D01*
X178359Y102377D01*
X214377Y102377D01*
X214377Y97109D01*
X180566Y97109D01*
G37*
%LPD*%
%LPC*%
G36*
X55023Y31523D02*
X55023Y31523D01*
X55023Y40541D01*
X63334Y40541D01*
X63981Y40368D01*
X64560Y40033D01*
X65033Y39560D01*
X65368Y38981D01*
X65541Y38334D01*
X65541Y31523D01*
X55023Y31523D01*
G37*
%LPD*%
%LPC*%
G36*
X151383Y25663D02*
X151383Y25663D01*
X151383Y36181D01*
X158194Y36181D01*
X158841Y36008D01*
X159420Y35673D01*
X159893Y35200D01*
X160228Y34621D01*
X160401Y33974D01*
X160401Y25663D01*
X151383Y25663D01*
G37*
%LPD*%
%LPC*%
G36*
X41459Y31523D02*
X41459Y31523D01*
X41459Y38334D01*
X41632Y38981D01*
X41967Y39560D01*
X42440Y40033D01*
X43019Y40368D01*
X43666Y40541D01*
X51977Y40541D01*
X51977Y31523D01*
X41459Y31523D01*
G37*
%LPD*%
%LPC*%
G36*
X151383Y12099D02*
X151383Y12099D01*
X151383Y22617D01*
X160401Y22617D01*
X160401Y14306D01*
X160228Y13659D01*
X159893Y13080D01*
X159420Y12607D01*
X158841Y12272D01*
X158194Y12099D01*
X151383Y12099D01*
G37*
%LPD*%
%LPC*%
G36*
X139319Y25663D02*
X139319Y25663D01*
X139319Y33974D01*
X139492Y34621D01*
X139827Y35200D01*
X140300Y35673D01*
X140879Y36008D01*
X141526Y36181D01*
X148337Y36181D01*
X148337Y25663D01*
X139319Y25663D01*
G37*
%LPD*%
%LPC*%
G36*
X55023Y19459D02*
X55023Y19459D01*
X55023Y28477D01*
X65541Y28477D01*
X65541Y21666D01*
X65368Y21019D01*
X65033Y20440D01*
X64560Y19967D01*
X63981Y19632D01*
X63334Y19459D01*
X55023Y19459D01*
G37*
%LPD*%
%LPC*%
G36*
X141526Y12099D02*
X141526Y12099D01*
X140879Y12272D01*
X140300Y12607D01*
X139827Y13080D01*
X139492Y13659D01*
X139319Y14306D01*
X139319Y22617D01*
X148337Y22617D01*
X148337Y12099D01*
X141526Y12099D01*
G37*
%LPD*%
%LPC*%
G36*
X184403Y21123D02*
X184403Y21123D01*
X184403Y29141D01*
X190214Y29141D01*
X190861Y28968D01*
X191440Y28633D01*
X191913Y28160D01*
X192248Y27581D01*
X192421Y26934D01*
X192421Y21123D01*
X184403Y21123D01*
G37*
%LPD*%
%LPC*%
G36*
X173339Y21123D02*
X173339Y21123D01*
X173339Y26934D01*
X173512Y27581D01*
X173847Y28160D01*
X174320Y28633D01*
X174899Y28968D01*
X175546Y29141D01*
X181357Y29141D01*
X181357Y21123D01*
X173339Y21123D01*
G37*
%LPD*%
%LPC*%
G36*
X207138Y143763D02*
X207138Y143763D01*
X207351Y144833D01*
X208021Y146451D01*
X208994Y147908D01*
X210232Y149146D01*
X211689Y150119D01*
X213307Y150789D01*
X214377Y151002D01*
X214377Y143763D01*
X207138Y143763D01*
G37*
%LPD*%
%LPC*%
G36*
X213307Y133691D02*
X213307Y133691D01*
X211689Y134361D01*
X210232Y135334D01*
X208994Y136572D01*
X208021Y138029D01*
X207351Y139647D01*
X207138Y140717D01*
X214377Y140717D01*
X214377Y133478D01*
X213307Y133691D01*
G37*
%LPD*%
%LPC*%
G36*
X127903Y57617D02*
X127903Y57617D01*
X132236Y57617D01*
X132189Y57378D01*
X131733Y56279D01*
X131072Y55289D01*
X130231Y54448D01*
X129241Y53787D01*
X128142Y53331D01*
X127903Y53284D01*
X127903Y57617D01*
G37*
%LPD*%
%LPC*%
G36*
X100538Y53331D02*
X100538Y53331D01*
X99439Y53787D01*
X98449Y54448D01*
X97608Y55289D01*
X96947Y56279D01*
X96491Y57378D01*
X96444Y57617D01*
X100777Y57617D01*
X100777Y53284D01*
X100538Y53331D01*
G37*
%LPD*%
%LPC*%
G36*
X215899Y103899D02*
X215899Y103899D01*
X215899Y103901D01*
X215901Y103901D01*
X215901Y103899D01*
X215899Y103899D01*
G37*
%LPD*%
%LPC*%
G36*
X53499Y29999D02*
X53499Y29999D01*
X53499Y30001D01*
X53501Y30001D01*
X53501Y29999D01*
X53499Y29999D01*
G37*
%LPD*%
%LPC*%
G36*
X149859Y24139D02*
X149859Y24139D01*
X149859Y24141D01*
X149861Y24141D01*
X149861Y24139D01*
X149859Y24139D01*
G37*
%LPD*%
D10*
X149860Y24140D03*
X149860Y57140D03*
D11*
X102300Y93200D03*
X114340Y93200D03*
X126380Y93200D03*
X102300Y81260D03*
X126380Y81260D03*
D12*
X102300Y59140D03*
X126380Y59140D03*
D13*
X107610Y67040D02*
X107612Y67205D01*
X107618Y67370D01*
X107628Y67535D01*
X107642Y67700D01*
X107661Y67864D01*
X107683Y68027D01*
X107709Y68191D01*
X107739Y68353D01*
X107774Y68515D01*
X107812Y68675D01*
X107854Y68835D01*
X107900Y68994D01*
X107950Y69151D01*
X108003Y69307D01*
X108061Y69462D01*
X108122Y69615D01*
X108187Y69767D01*
X108256Y69917D01*
X108329Y70066D01*
X108405Y70213D01*
X108484Y70357D01*
X108567Y70500D01*
X108654Y70641D01*
X108744Y70779D01*
X108838Y70915D01*
X108934Y71049D01*
X109034Y71181D01*
X109138Y71309D01*
X109244Y71436D01*
X109353Y71560D01*
X109466Y71681D01*
X109581Y71799D01*
X109699Y71914D01*
X109820Y72027D01*
X109944Y72136D01*
X110071Y72242D01*
X110199Y72346D01*
X110331Y72446D01*
X110465Y72542D01*
X110601Y72636D01*
X110739Y72726D01*
X110880Y72813D01*
X111023Y72896D01*
X111167Y72975D01*
X111314Y73051D01*
X111463Y73124D01*
X111613Y73193D01*
X111765Y73258D01*
X111918Y73319D01*
X112073Y73377D01*
X112229Y73430D01*
X112386Y73480D01*
X112545Y73526D01*
X112705Y73568D01*
X112865Y73606D01*
X113027Y73641D01*
X113189Y73671D01*
X113353Y73697D01*
X113516Y73719D01*
X113680Y73738D01*
X113845Y73752D01*
X114010Y73762D01*
X114175Y73768D01*
X114340Y73770D01*
X114505Y73768D01*
X114670Y73762D01*
X114835Y73752D01*
X115000Y73738D01*
X115164Y73719D01*
X115327Y73697D01*
X115491Y73671D01*
X115653Y73641D01*
X115815Y73606D01*
X115975Y73568D01*
X116135Y73526D01*
X116294Y73480D01*
X116451Y73430D01*
X116607Y73377D01*
X116762Y73319D01*
X116915Y73258D01*
X117067Y73193D01*
X117217Y73124D01*
X117366Y73051D01*
X117513Y72975D01*
X117657Y72896D01*
X117800Y72813D01*
X117941Y72726D01*
X118079Y72636D01*
X118215Y72542D01*
X118349Y72446D01*
X118481Y72346D01*
X118609Y72242D01*
X118736Y72136D01*
X118860Y72027D01*
X118981Y71914D01*
X119099Y71799D01*
X119214Y71681D01*
X119327Y71560D01*
X119436Y71436D01*
X119542Y71309D01*
X119646Y71181D01*
X119746Y71049D01*
X119842Y70915D01*
X119936Y70779D01*
X120026Y70641D01*
X120113Y70500D01*
X120196Y70357D01*
X120275Y70213D01*
X120351Y70066D01*
X120424Y69917D01*
X120493Y69767D01*
X120558Y69615D01*
X120619Y69462D01*
X120677Y69307D01*
X120730Y69151D01*
X120780Y68994D01*
X120826Y68835D01*
X120868Y68675D01*
X120906Y68515D01*
X120941Y68353D01*
X120971Y68191D01*
X120997Y68027D01*
X121019Y67864D01*
X121038Y67700D01*
X121052Y67535D01*
X121062Y67370D01*
X121068Y67205D01*
X121070Y67040D01*
X121068Y66875D01*
X121062Y66710D01*
X121052Y66545D01*
X121038Y66380D01*
X121019Y66216D01*
X120997Y66053D01*
X120971Y65889D01*
X120941Y65727D01*
X120906Y65565D01*
X120868Y65405D01*
X120826Y65245D01*
X120780Y65086D01*
X120730Y64929D01*
X120677Y64773D01*
X120619Y64618D01*
X120558Y64465D01*
X120493Y64313D01*
X120424Y64163D01*
X120351Y64014D01*
X120275Y63867D01*
X120196Y63723D01*
X120113Y63580D01*
X120026Y63439D01*
X119936Y63301D01*
X119842Y63165D01*
X119746Y63031D01*
X119646Y62899D01*
X119542Y62771D01*
X119436Y62644D01*
X119327Y62520D01*
X119214Y62399D01*
X119099Y62281D01*
X118981Y62166D01*
X118860Y62053D01*
X118736Y61944D01*
X118609Y61838D01*
X118481Y61734D01*
X118349Y61634D01*
X118215Y61538D01*
X118079Y61444D01*
X117941Y61354D01*
X117800Y61267D01*
X117657Y61184D01*
X117513Y61105D01*
X117366Y61029D01*
X117217Y60956D01*
X117067Y60887D01*
X116915Y60822D01*
X116762Y60761D01*
X116607Y60703D01*
X116451Y60650D01*
X116294Y60600D01*
X116135Y60554D01*
X115975Y60512D01*
X115815Y60474D01*
X115653Y60439D01*
X115491Y60409D01*
X115327Y60383D01*
X115164Y60361D01*
X115000Y60342D01*
X114835Y60328D01*
X114670Y60318D01*
X114505Y60312D01*
X114340Y60310D01*
X114175Y60312D01*
X114010Y60318D01*
X113845Y60328D01*
X113680Y60342D01*
X113516Y60361D01*
X113353Y60383D01*
X113189Y60409D01*
X113027Y60439D01*
X112865Y60474D01*
X112705Y60512D01*
X112545Y60554D01*
X112386Y60600D01*
X112229Y60650D01*
X112073Y60703D01*
X111918Y60761D01*
X111765Y60822D01*
X111613Y60887D01*
X111463Y60956D01*
X111314Y61029D01*
X111167Y61105D01*
X111023Y61184D01*
X110880Y61267D01*
X110739Y61354D01*
X110601Y61444D01*
X110465Y61538D01*
X110331Y61634D01*
X110199Y61734D01*
X110071Y61838D01*
X109944Y61944D01*
X109820Y62053D01*
X109699Y62166D01*
X109581Y62281D01*
X109466Y62399D01*
X109353Y62520D01*
X109244Y62644D01*
X109138Y62771D01*
X109034Y62899D01*
X108934Y63031D01*
X108838Y63165D01*
X108744Y63301D01*
X108654Y63439D01*
X108567Y63580D01*
X108484Y63723D01*
X108405Y63867D01*
X108329Y64014D01*
X108256Y64163D01*
X108187Y64313D01*
X108122Y64465D01*
X108061Y64618D01*
X108003Y64773D01*
X107950Y64929D01*
X107900Y65086D01*
X107854Y65245D01*
X107812Y65405D01*
X107774Y65565D01*
X107739Y65727D01*
X107709Y65889D01*
X107683Y66053D01*
X107661Y66216D01*
X107642Y66380D01*
X107628Y66545D01*
X107618Y66710D01*
X107612Y66875D01*
X107610Y67040D01*
D14*
X112298Y72614D02*
X116302Y72614D01*
X112298Y72614D02*
X112298Y74586D01*
X116302Y74586D01*
X116302Y72614D01*
X116302Y72672D02*
X112298Y72672D01*
X112298Y72730D02*
X116302Y72730D01*
X116302Y72788D02*
X112298Y72788D01*
X112298Y72846D02*
X116302Y72846D01*
X116302Y72904D02*
X112298Y72904D01*
X112298Y72962D02*
X116302Y72962D01*
X116302Y73020D02*
X112298Y73020D01*
X112298Y73078D02*
X116302Y73078D01*
X116302Y73136D02*
X112298Y73136D01*
X112298Y73194D02*
X116302Y73194D01*
X116302Y73252D02*
X112298Y73252D01*
X112298Y73310D02*
X116302Y73310D01*
X116302Y73368D02*
X112298Y73368D01*
X112298Y73426D02*
X116302Y73426D01*
X116302Y73484D02*
X112298Y73484D01*
X112298Y73542D02*
X116302Y73542D01*
X116302Y73600D02*
X112298Y73600D01*
X112298Y73658D02*
X116302Y73658D01*
X116302Y73716D02*
X112298Y73716D01*
X112298Y73774D02*
X116302Y73774D01*
X116302Y73832D02*
X112298Y73832D01*
X112298Y73890D02*
X116302Y73890D01*
X116302Y73948D02*
X112298Y73948D01*
X112298Y74006D02*
X116302Y74006D01*
X116302Y74064D02*
X112298Y74064D01*
X112298Y74122D02*
X116302Y74122D01*
X116302Y74180D02*
X112298Y74180D01*
X112298Y74238D02*
X116302Y74238D01*
X116302Y74296D02*
X112298Y74296D01*
X112298Y74354D02*
X116302Y74354D01*
X116302Y74412D02*
X112298Y74412D01*
X112298Y74470D02*
X116302Y74470D01*
X116302Y74528D02*
X112298Y74528D01*
X112298Y74586D02*
X116302Y74586D01*
D15*
X215900Y73900D03*
X215900Y88900D03*
X215900Y103900D03*
D16*
X182880Y56600D03*
X182880Y19600D03*
D17*
X213520Y27780D03*
X215900Y142240D03*
X32720Y70420D03*
X101600Y144780D03*
D18*
X82000Y57500D03*
X82000Y76500D03*
D19*
X53500Y30000D03*
X86500Y30000D03*
X136500Y120000D03*
X103500Y120000D03*
D20*
X59580Y70420D02*
X32720Y70420D01*
X65660Y76500D02*
X82000Y76500D01*
X65660Y76500D02*
X59580Y70420D01*
X97540Y76500D02*
X102300Y81260D01*
X97540Y76500D02*
X82000Y76500D01*
X102300Y118800D02*
X103500Y120000D01*
X102300Y118800D02*
X102300Y93200D01*
X103500Y120000D02*
X101600Y121900D01*
X101600Y144780D01*
X121960Y81260D02*
X126380Y81260D01*
X121960Y81260D02*
X114300Y73600D01*
D21*
X50960Y116840D03*
X50960Y101600D03*
X50960Y86360D03*
D20*
X50960Y116840D02*
X54074Y116840D01*
D21*
X35720Y116840D03*
X35720Y101600D03*
X35720Y86360D03*
X20480Y116840D03*
X20480Y101600D03*
X20480Y86360D03*
X50800Y142240D03*
X66040Y142240D03*
X81280Y142240D03*
X202240Y132240D03*
X187480Y132240D03*
X172720Y132240D03*
X142560Y147000D03*
X157800Y147000D03*
X173040Y147000D03*
X218440Y50800D03*
X233680Y50800D03*
X106680Y40640D03*
X106680Y25400D03*
X121920Y40640D03*
X121920Y25400D03*
X66200Y116840D03*
X66200Y101600D03*
X66200Y86360D03*
X164560Y102760D03*
X171560Y97760D03*
X158560Y84760D03*
X170560Y79760D03*
X157560Y109760D03*
X144560Y98760D03*
X151400Y91440D03*
D22*
X182880Y66600D02*
X190180Y73900D01*
X182880Y66600D02*
X182880Y56600D01*
X150400Y56600D01*
D20*
X149860Y57140D01*
X139140Y67860D01*
X139140Y91490D01*
D22*
X182880Y56600D02*
X211700Y27780D01*
D20*
X213520Y27780D01*
X215900Y73900D02*
X190180Y73900D01*
X137430Y93200D02*
X126380Y93200D01*
X137430Y93200D02*
X139140Y91490D01*
X82000Y57500D02*
X82000Y48000D01*
X90000Y40000D01*
X90000Y33500D01*
X86500Y30000D01*
X149206Y107294D02*
X136500Y120000D01*
X149206Y107294D02*
X149206Y106300D01*
X166606Y88900D01*
X215900Y88900D01*
M02*
