M48
;GenerationSoftware,Autodesk,EAGLE,9.1.0*%
;CreationDate,2018-08-23T06:33:31Z*%
FMAT,2
ICI,OFF
METRIC,TZ,000.000
T4C0.350
T3C0.600
T2C1.000
T1C1.702
%
G90
M71
T1
X21590Y7620
X20320Y2540
X11430Y8890
X13970Y2540
T2
X24130Y13970
X24130Y3810
T3
X7624Y2894
T4
X22860Y1270
X24130Y1270
X16510Y1270
X17780Y1270
X10160Y1270
X5080Y1270
X13970Y8890
X6350Y7620
X5080Y8890
X5080Y10160
X5080Y12700
X5080Y13970
X5080Y4445
X6350Y15240
X7620Y15240
X8890Y15240
X10160Y15240
X11430Y15240
X10160Y12700
X21590Y11430
X11430Y12700
X12700Y12700
X10160Y3810
X11430Y2540
X22860Y11430
X24130Y11430
X24130Y8890
X24130Y10160
X24130Y7620
X24130Y6350
X5080Y15240
M30