M48
;GenerationSoftware,Autodesk,EAGLE,9.1.0*%
;CreationDate,2018-09-05T10:19:08Z*%
FMAT,2
ICI,OFF
METRIC,TZ,000.000
T4C0.350
T3C0.600
T2C1.000
T1C1.702
%
G90
M71
T1
X3810Y5080
X20320Y3810
X7620Y8890
X12700Y2540
T2
X24130Y13970
X24130Y3810
T3
X7624Y2894
T4
X1270Y7620
X1270Y3810
X1270Y5080
X22860Y8890
X24130Y8890
X22860Y7620
X24130Y7620
X21590Y7620
X21590Y8890
X22860Y6350
X10160Y15240
X22860Y10160
X24130Y10160
X15240Y6350
X15240Y7620
X10160Y12700
X11430Y12700
X10160Y2540
X10160Y3810
X5080Y1270
X5080Y2540
X11430Y15240
X22860Y11430
X24130Y11430
X5080Y8890
X5080Y10160
X1270Y6350
X24130Y6350
M30