M48
;GenerationSoftware,Autodesk,EAGLE,9.1.3*%
;CreationDate,2018-09-14T10:28:26Z*%
FMAT,2
ICI,OFF
METRIC,TZ,000.000
T3C0.350
T2C0.600
T1C1.000
%
G90
M71
T1
X24638Y13970
X24638Y2540
X2540Y13970
X2540Y2540
T2
X11434Y6704
T3
X17780Y13970
X19050Y13970
X17780Y12700
X19050Y12700
X20320Y13970
X20320Y12700
X6350Y10160
X7620Y10160
X2540Y10160
X2540Y8890
X2540Y7620
X2540Y6350
X2540Y5080
X6350Y2540
X7620Y2540
X11430Y3810
X12700Y3810
X12700Y2540
X13970Y5080
X13970Y6350
X15240Y6350
X16510Y6350
X21590Y5080
X21590Y3810
M30