M48
;GenerationSoftware,Autodesk,EAGLE,9.2.1*%
;CreationDate,2018-10-30T11:32:10Z*%
FMAT,2
ICI,OFF
METRIC,TZ,000.000
T3C0.350
T2C0.600
T1C2.000
%
G90
M71
T1
X2040Y2040
X24638Y14470
X24638Y2040
X2040Y14470
T2
X11434Y6704
T3
X3572Y8636
X2048Y11684
X2048Y10160
X2048Y8636
X5080Y14224
X6604Y14224
X8128Y14224
X20224Y13224
X18748Y13224
X17272Y13224
X14256Y14700
X15780Y14700
X17304Y14700
X21844Y5080
X5096Y11684
X10668Y4064
X10668Y2540
X12192Y4064
X12192Y2540
X6620Y11684
X6620Y10160
X6620Y8636
X16456Y10276
X17156Y9776
X15856Y8476
X17056Y7976
X15756Y10976
X14456Y9876
X15140Y9144
X5096Y10160
X5096Y8636
X3572Y11684
X3572Y10160
X23368Y5080
M30