G04 EAGLE Gerber X2 export*
%TF.Part,Single*%
%TF.FileFunction,Profile,NP*%
%TF.FilePolarity,Positive*%
%TF.GenerationSoftware,Autodesk,EAGLE,9.1.0*%
%TF.CreationDate,2018-08-23T06:33:32Z*%
G75*
%MOMM*%
%FSLAX34Y34*%
%LPD*%
%AMOC8*
5,1,8,0,0,1.08239X$1,22.5*%
G01*
%ADD10C,0.254000*%


D10*
X0Y0D02*
X263400Y0D01*
X263400Y165000D01*
X0Y165000D01*
X0Y0D01*
X246300Y139419D02*
X246237Y138861D01*
X246112Y138314D01*
X245927Y137784D01*
X245683Y137278D01*
X245384Y136802D01*
X245034Y136363D01*
X244637Y135966D01*
X244198Y135616D01*
X243722Y135317D01*
X243216Y135073D01*
X242686Y134888D01*
X242139Y134763D01*
X241581Y134700D01*
X241019Y134700D01*
X240461Y134763D01*
X239914Y134888D01*
X239384Y135073D01*
X238878Y135317D01*
X238402Y135616D01*
X237963Y135966D01*
X237566Y136363D01*
X237216Y136802D01*
X236917Y137278D01*
X236673Y137784D01*
X236488Y138314D01*
X236363Y138861D01*
X236300Y139419D01*
X236300Y139981D01*
X236363Y140539D01*
X236488Y141086D01*
X236673Y141616D01*
X236917Y142122D01*
X237216Y142598D01*
X237566Y143037D01*
X237963Y143434D01*
X238402Y143784D01*
X238878Y144083D01*
X239384Y144327D01*
X239914Y144512D01*
X240461Y144637D01*
X241019Y144700D01*
X241581Y144700D01*
X242139Y144637D01*
X242686Y144512D01*
X243216Y144327D01*
X243722Y144083D01*
X244198Y143784D01*
X244637Y143434D01*
X245034Y143037D01*
X245384Y142598D01*
X245683Y142122D01*
X245927Y141616D01*
X246112Y141086D01*
X246237Y140539D01*
X246300Y139981D01*
X246300Y139419D01*
X246300Y37819D02*
X246237Y37261D01*
X246112Y36714D01*
X245927Y36184D01*
X245683Y35678D01*
X245384Y35202D01*
X245034Y34763D01*
X244637Y34366D01*
X244198Y34016D01*
X243722Y33717D01*
X243216Y33473D01*
X242686Y33288D01*
X242139Y33163D01*
X241581Y33100D01*
X241019Y33100D01*
X240461Y33163D01*
X239914Y33288D01*
X239384Y33473D01*
X238878Y33717D01*
X238402Y34016D01*
X237963Y34366D01*
X237566Y34763D01*
X237216Y35202D01*
X236917Y35678D01*
X236673Y36184D01*
X236488Y36714D01*
X236363Y37261D01*
X236300Y37819D01*
X236300Y38381D01*
X236363Y38939D01*
X236488Y39486D01*
X236673Y40016D01*
X236917Y40522D01*
X237216Y40998D01*
X237566Y41437D01*
X237963Y41834D01*
X238402Y42184D01*
X238878Y42483D01*
X239384Y42727D01*
X239914Y42912D01*
X240461Y43037D01*
X241019Y43100D01*
X241581Y43100D01*
X242139Y43037D01*
X242686Y42912D01*
X243216Y42727D01*
X243722Y42483D01*
X244198Y42184D01*
X244637Y41834D01*
X245034Y41437D01*
X245384Y40998D01*
X245683Y40522D01*
X245927Y40016D01*
X246112Y39486D01*
X246237Y38939D01*
X246300Y38381D01*
X246300Y37819D01*
X79240Y28704D02*
X79166Y28238D01*
X79020Y27788D01*
X78806Y27368D01*
X78528Y26986D01*
X78194Y26652D01*
X77812Y26374D01*
X77392Y26160D01*
X76943Y26014D01*
X76476Y25940D01*
X76004Y25940D01*
X75538Y26014D01*
X75088Y26160D01*
X74668Y26374D01*
X74286Y26652D01*
X73952Y26986D01*
X73674Y27368D01*
X73460Y27788D01*
X73314Y28238D01*
X73240Y28704D01*
X73240Y29176D01*
X73314Y29643D01*
X73460Y30092D01*
X73674Y30512D01*
X73952Y30894D01*
X74286Y31228D01*
X74668Y31506D01*
X75088Y31720D01*
X75538Y31866D01*
X76004Y31940D01*
X76476Y31940D01*
X76943Y31866D01*
X77392Y31720D01*
X77812Y31506D01*
X78194Y31228D01*
X78528Y30894D01*
X78806Y30512D01*
X79020Y30092D01*
X79166Y29643D01*
X79240Y29176D01*
X79240Y28704D01*
M02*
