G04 EAGLE Gerber X2 export*
%TF.Part,Single*%
%TF.FileFunction,Profile,NP*%
%TF.FilePolarity,Positive*%
%TF.GenerationSoftware,Autodesk,EAGLE,9.1.3*%
%TF.CreationDate,2018-09-14T10:28:26Z*%
G75*
%MOMM*%
%FSLAX34Y34*%
%LPD*%
%AMOC8*
5,1,8,0,0,1.08239X$1,22.5*%
G01*
%ADD10C,0.254000*%


D10*
X0Y0D02*
X268480Y0D01*
X268480Y165000D01*
X0Y165000D01*
X0Y0D01*
X251380Y139419D02*
X251317Y138861D01*
X251192Y138314D01*
X251007Y137784D01*
X250763Y137278D01*
X250464Y136802D01*
X250114Y136363D01*
X249717Y135966D01*
X249278Y135616D01*
X248802Y135317D01*
X248296Y135073D01*
X247766Y134888D01*
X247219Y134763D01*
X246661Y134700D01*
X246099Y134700D01*
X245541Y134763D01*
X244994Y134888D01*
X244464Y135073D01*
X243958Y135317D01*
X243482Y135616D01*
X243043Y135966D01*
X242646Y136363D01*
X242296Y136802D01*
X241997Y137278D01*
X241753Y137784D01*
X241568Y138314D01*
X241443Y138861D01*
X241380Y139419D01*
X241380Y139981D01*
X241443Y140539D01*
X241568Y141086D01*
X241753Y141616D01*
X241997Y142122D01*
X242296Y142598D01*
X242646Y143037D01*
X243043Y143434D01*
X243482Y143784D01*
X243958Y144083D01*
X244464Y144327D01*
X244994Y144512D01*
X245541Y144637D01*
X246099Y144700D01*
X246661Y144700D01*
X247219Y144637D01*
X247766Y144512D01*
X248296Y144327D01*
X248802Y144083D01*
X249278Y143784D01*
X249717Y143434D01*
X250114Y143037D01*
X250464Y142598D01*
X250763Y142122D01*
X251007Y141616D01*
X251192Y141086D01*
X251317Y140539D01*
X251380Y139981D01*
X251380Y139419D01*
X251380Y25119D02*
X251317Y24561D01*
X251192Y24014D01*
X251007Y23484D01*
X250763Y22978D01*
X250464Y22502D01*
X250114Y22063D01*
X249717Y21666D01*
X249278Y21316D01*
X248802Y21017D01*
X248296Y20773D01*
X247766Y20588D01*
X247219Y20463D01*
X246661Y20400D01*
X246099Y20400D01*
X245541Y20463D01*
X244994Y20588D01*
X244464Y20773D01*
X243958Y21017D01*
X243482Y21316D01*
X243043Y21666D01*
X242646Y22063D01*
X242296Y22502D01*
X241997Y22978D01*
X241753Y23484D01*
X241568Y24014D01*
X241443Y24561D01*
X241380Y25119D01*
X241380Y25681D01*
X241443Y26239D01*
X241568Y26786D01*
X241753Y27316D01*
X241997Y27822D01*
X242296Y28298D01*
X242646Y28737D01*
X243043Y29134D01*
X243482Y29484D01*
X243958Y29783D01*
X244464Y30027D01*
X244994Y30212D01*
X245541Y30337D01*
X246099Y30400D01*
X246661Y30400D01*
X247219Y30337D01*
X247766Y30212D01*
X248296Y30027D01*
X248802Y29783D01*
X249278Y29484D01*
X249717Y29134D01*
X250114Y28737D01*
X250464Y28298D01*
X250763Y27822D01*
X251007Y27316D01*
X251192Y26786D01*
X251317Y26239D01*
X251380Y25681D01*
X251380Y25119D01*
X30400Y139419D02*
X30337Y138861D01*
X30212Y138314D01*
X30027Y137784D01*
X29783Y137278D01*
X29484Y136802D01*
X29134Y136363D01*
X28737Y135966D01*
X28298Y135616D01*
X27822Y135317D01*
X27316Y135073D01*
X26786Y134888D01*
X26239Y134763D01*
X25681Y134700D01*
X25119Y134700D01*
X24561Y134763D01*
X24014Y134888D01*
X23484Y135073D01*
X22978Y135317D01*
X22502Y135616D01*
X22063Y135966D01*
X21666Y136363D01*
X21316Y136802D01*
X21017Y137278D01*
X20773Y137784D01*
X20588Y138314D01*
X20463Y138861D01*
X20400Y139419D01*
X20400Y139981D01*
X20463Y140539D01*
X20588Y141086D01*
X20773Y141616D01*
X21017Y142122D01*
X21316Y142598D01*
X21666Y143037D01*
X22063Y143434D01*
X22502Y143784D01*
X22978Y144083D01*
X23484Y144327D01*
X24014Y144512D01*
X24561Y144637D01*
X25119Y144700D01*
X25681Y144700D01*
X26239Y144637D01*
X26786Y144512D01*
X27316Y144327D01*
X27822Y144083D01*
X28298Y143784D01*
X28737Y143434D01*
X29134Y143037D01*
X29484Y142598D01*
X29783Y142122D01*
X30027Y141616D01*
X30212Y141086D01*
X30337Y140539D01*
X30400Y139981D01*
X30400Y139419D01*
X30400Y25119D02*
X30337Y24561D01*
X30212Y24014D01*
X30027Y23484D01*
X29783Y22978D01*
X29484Y22502D01*
X29134Y22063D01*
X28737Y21666D01*
X28298Y21316D01*
X27822Y21017D01*
X27316Y20773D01*
X26786Y20588D01*
X26239Y20463D01*
X25681Y20400D01*
X25119Y20400D01*
X24561Y20463D01*
X24014Y20588D01*
X23484Y20773D01*
X22978Y21017D01*
X22502Y21316D01*
X22063Y21666D01*
X21666Y22063D01*
X21316Y22502D01*
X21017Y22978D01*
X20773Y23484D01*
X20588Y24014D01*
X20463Y24561D01*
X20400Y25119D01*
X20400Y25681D01*
X20463Y26239D01*
X20588Y26786D01*
X20773Y27316D01*
X21017Y27822D01*
X21316Y28298D01*
X21666Y28737D01*
X22063Y29134D01*
X22502Y29484D01*
X22978Y29783D01*
X23484Y30027D01*
X24014Y30212D01*
X24561Y30337D01*
X25119Y30400D01*
X25681Y30400D01*
X26239Y30337D01*
X26786Y30212D01*
X27316Y30027D01*
X27822Y29783D01*
X28298Y29484D01*
X28737Y29134D01*
X29134Y28737D01*
X29484Y28298D01*
X29783Y27822D01*
X30027Y27316D01*
X30212Y26786D01*
X30337Y26239D01*
X30400Y25681D01*
X30400Y25119D01*
X117340Y66804D02*
X117266Y66338D01*
X117120Y65888D01*
X116906Y65468D01*
X116628Y65086D01*
X116294Y64752D01*
X115912Y64474D01*
X115492Y64260D01*
X115043Y64114D01*
X114576Y64040D01*
X114104Y64040D01*
X113638Y64114D01*
X113188Y64260D01*
X112768Y64474D01*
X112386Y64752D01*
X112052Y65086D01*
X111774Y65468D01*
X111560Y65888D01*
X111414Y66338D01*
X111340Y66804D01*
X111340Y67276D01*
X111414Y67743D01*
X111560Y68192D01*
X111774Y68612D01*
X112052Y68994D01*
X112386Y69328D01*
X112768Y69606D01*
X113188Y69820D01*
X113638Y69966D01*
X114104Y70040D01*
X114576Y70040D01*
X115043Y69966D01*
X115492Y69820D01*
X115912Y69606D01*
X116294Y69328D01*
X116628Y68994D01*
X116906Y68612D01*
X117120Y68192D01*
X117266Y67743D01*
X117340Y67276D01*
X117340Y66804D01*
M02*
