G04 EAGLE Gerber X2 export*
%TF.Part,Single*%
%TF.FileFunction,Legend,Top,1*%
%TF.FilePolarity,Positive*%
%TF.GenerationSoftware,Autodesk,EAGLE,9.1.3*%
%TF.CreationDate,2018-09-14T10:28:26Z*%
G75*
%MOMM*%
%FSLAX34Y34*%
%LPD*%
%AMOC8*
5,1,8,0,0,1.08239X$1,22.5*%
G01*
%ADD10C,0.050800*%
%ADD11C,0.076200*%
%ADD12C,0.203200*%
%ADD13C,0.127000*%
%ADD14C,0.025400*%
%ADD15C,0.101600*%
%ADD16C,0.152400*%
%ADD17R,1.000000X0.200000*%

G36*
X152516Y112295D02*
X152516Y112295D01*
X152543Y112295D01*
X152654Y112327D01*
X152767Y112353D01*
X152790Y112366D01*
X152816Y112374D01*
X152914Y112436D01*
X153015Y112492D01*
X153031Y112510D01*
X153056Y112525D01*
X153241Y112733D01*
X153245Y112737D01*
X155245Y115737D01*
X155276Y115801D01*
X155316Y115861D01*
X155337Y115929D01*
X155368Y115993D01*
X155380Y116064D01*
X155401Y116132D01*
X155403Y116203D01*
X155415Y116274D01*
X155407Y116345D01*
X155409Y116416D01*
X155391Y116485D01*
X155382Y116556D01*
X155355Y116622D01*
X155337Y116691D01*
X155300Y116752D01*
X155273Y116818D01*
X155228Y116874D01*
X155192Y116936D01*
X155140Y116985D01*
X155095Y117040D01*
X155037Y117081D01*
X154984Y117130D01*
X154921Y117163D01*
X154863Y117204D01*
X154795Y117227D01*
X154731Y117260D01*
X154672Y117270D01*
X154594Y117297D01*
X154475Y117303D01*
X154400Y117315D01*
X150400Y117315D01*
X150329Y117305D01*
X150257Y117305D01*
X150189Y117285D01*
X150119Y117275D01*
X150053Y117246D01*
X149984Y117226D01*
X149924Y117188D01*
X149859Y117159D01*
X149804Y117113D01*
X149744Y117075D01*
X149696Y117022D01*
X149642Y116976D01*
X149602Y116916D01*
X149555Y116862D01*
X149524Y116798D01*
X149485Y116739D01*
X149463Y116671D01*
X149432Y116606D01*
X149420Y116536D01*
X149399Y116468D01*
X149397Y116396D01*
X149385Y116326D01*
X149393Y116255D01*
X149391Y116184D01*
X149410Y116114D01*
X149418Y116043D01*
X149443Y115988D01*
X149463Y115909D01*
X149524Y115806D01*
X149555Y115737D01*
X151555Y112737D01*
X151632Y112650D01*
X151705Y112560D01*
X151727Y112545D01*
X151745Y112525D01*
X151842Y112463D01*
X151937Y112396D01*
X151963Y112388D01*
X151985Y112373D01*
X152096Y112341D01*
X152206Y112303D01*
X152233Y112302D01*
X152258Y112295D01*
X152374Y112295D01*
X152490Y112289D01*
X152516Y112295D01*
G37*
D10*
X228854Y56642D02*
X230717Y51054D01*
X232579Y56642D01*
X234834Y56642D02*
X234834Y51054D01*
X234834Y56642D02*
X236386Y56642D01*
X236462Y56640D01*
X236538Y56635D01*
X236614Y56625D01*
X236689Y56612D01*
X236763Y56595D01*
X236837Y56575D01*
X236909Y56551D01*
X236980Y56524D01*
X237050Y56493D01*
X237118Y56459D01*
X237184Y56421D01*
X237248Y56380D01*
X237311Y56337D01*
X237371Y56290D01*
X237428Y56240D01*
X237483Y56187D01*
X237536Y56132D01*
X237586Y56075D01*
X237633Y56015D01*
X237676Y55952D01*
X237717Y55888D01*
X237755Y55822D01*
X237789Y55754D01*
X237820Y55684D01*
X237847Y55613D01*
X237871Y55540D01*
X237891Y55467D01*
X237908Y55393D01*
X237921Y55318D01*
X237931Y55242D01*
X237936Y55166D01*
X237938Y55090D01*
X237938Y52606D01*
X237936Y52527D01*
X237930Y52449D01*
X237920Y52371D01*
X237906Y52294D01*
X237888Y52217D01*
X237867Y52141D01*
X237841Y52067D01*
X237812Y51994D01*
X237779Y51923D01*
X237743Y51853D01*
X237703Y51785D01*
X237660Y51719D01*
X237613Y51656D01*
X237564Y51595D01*
X237511Y51537D01*
X237455Y51481D01*
X237397Y51428D01*
X237336Y51379D01*
X237273Y51332D01*
X237207Y51289D01*
X237139Y51249D01*
X237070Y51213D01*
X236998Y51180D01*
X236925Y51151D01*
X236851Y51125D01*
X236775Y51104D01*
X236698Y51086D01*
X236621Y51072D01*
X236543Y51062D01*
X236465Y51056D01*
X236386Y51054D01*
X234834Y51054D01*
X240686Y51054D02*
X240686Y56642D01*
X242238Y56642D01*
X242314Y56640D01*
X242390Y56635D01*
X242466Y56625D01*
X242541Y56612D01*
X242615Y56595D01*
X242689Y56575D01*
X242761Y56551D01*
X242832Y56524D01*
X242902Y56493D01*
X242970Y56459D01*
X243036Y56421D01*
X243100Y56380D01*
X243163Y56337D01*
X243223Y56290D01*
X243280Y56240D01*
X243335Y56187D01*
X243388Y56132D01*
X243438Y56075D01*
X243485Y56015D01*
X243528Y55952D01*
X243569Y55888D01*
X243607Y55822D01*
X243641Y55754D01*
X243672Y55684D01*
X243699Y55613D01*
X243723Y55540D01*
X243743Y55467D01*
X243760Y55393D01*
X243773Y55318D01*
X243783Y55242D01*
X243788Y55166D01*
X243790Y55090D01*
X243790Y52606D01*
X243788Y52527D01*
X243782Y52449D01*
X243772Y52371D01*
X243758Y52294D01*
X243740Y52217D01*
X243719Y52141D01*
X243693Y52067D01*
X243664Y51994D01*
X243631Y51923D01*
X243595Y51853D01*
X243555Y51785D01*
X243512Y51719D01*
X243465Y51656D01*
X243416Y51595D01*
X243363Y51537D01*
X243307Y51481D01*
X243249Y51428D01*
X243188Y51379D01*
X243125Y51332D01*
X243059Y51289D01*
X242991Y51249D01*
X242922Y51213D01*
X242850Y51180D01*
X242777Y51151D01*
X242703Y51125D01*
X242627Y51104D01*
X242550Y51086D01*
X242473Y51072D01*
X242395Y51062D01*
X242317Y51056D01*
X242238Y51054D01*
X240686Y51054D01*
X216718Y125278D02*
X215787Y125278D01*
X216718Y125278D02*
X216718Y122174D01*
X214856Y122174D01*
X214786Y122176D01*
X214717Y122182D01*
X214648Y122192D01*
X214580Y122205D01*
X214512Y122223D01*
X214446Y122244D01*
X214381Y122269D01*
X214317Y122297D01*
X214255Y122329D01*
X214195Y122364D01*
X214137Y122403D01*
X214082Y122445D01*
X214028Y122490D01*
X213978Y122538D01*
X213930Y122588D01*
X213885Y122642D01*
X213843Y122697D01*
X213804Y122755D01*
X213769Y122815D01*
X213737Y122877D01*
X213709Y122941D01*
X213684Y123006D01*
X213663Y123072D01*
X213645Y123140D01*
X213632Y123208D01*
X213622Y123277D01*
X213616Y123346D01*
X213614Y123416D01*
X213614Y126520D01*
X213616Y126590D01*
X213622Y126659D01*
X213632Y126728D01*
X213645Y126796D01*
X213663Y126864D01*
X213684Y126930D01*
X213709Y126995D01*
X213737Y127059D01*
X213769Y127121D01*
X213804Y127181D01*
X213843Y127239D01*
X213885Y127294D01*
X213930Y127348D01*
X213978Y127398D01*
X214028Y127446D01*
X214082Y127491D01*
X214137Y127533D01*
X214195Y127572D01*
X214255Y127607D01*
X214317Y127639D01*
X214381Y127667D01*
X214446Y127692D01*
X214512Y127713D01*
X214580Y127731D01*
X214648Y127744D01*
X214717Y127754D01*
X214786Y127760D01*
X214856Y127762D01*
X216718Y127762D01*
X219466Y127762D02*
X219466Y122174D01*
X222571Y122174D02*
X219466Y127762D01*
X222571Y127762D02*
X222571Y122174D01*
X225318Y122174D02*
X225318Y127762D01*
X226870Y127762D01*
X226946Y127760D01*
X227022Y127755D01*
X227098Y127745D01*
X227173Y127732D01*
X227247Y127715D01*
X227321Y127695D01*
X227393Y127671D01*
X227464Y127644D01*
X227534Y127613D01*
X227602Y127579D01*
X227668Y127541D01*
X227732Y127500D01*
X227795Y127457D01*
X227855Y127410D01*
X227912Y127360D01*
X227967Y127307D01*
X228020Y127252D01*
X228070Y127195D01*
X228117Y127135D01*
X228160Y127072D01*
X228201Y127008D01*
X228239Y126942D01*
X228273Y126874D01*
X228304Y126804D01*
X228331Y126733D01*
X228355Y126660D01*
X228375Y126587D01*
X228392Y126513D01*
X228405Y126438D01*
X228415Y126362D01*
X228420Y126286D01*
X228422Y126210D01*
X228423Y126210D02*
X228423Y123726D01*
X228422Y123726D02*
X228420Y123647D01*
X228414Y123569D01*
X228404Y123491D01*
X228390Y123414D01*
X228372Y123337D01*
X228351Y123261D01*
X228325Y123187D01*
X228296Y123114D01*
X228263Y123043D01*
X228227Y122973D01*
X228187Y122905D01*
X228144Y122839D01*
X228097Y122776D01*
X228048Y122715D01*
X227995Y122657D01*
X227939Y122601D01*
X227881Y122548D01*
X227820Y122499D01*
X227757Y122452D01*
X227691Y122409D01*
X227623Y122369D01*
X227554Y122333D01*
X227482Y122300D01*
X227409Y122271D01*
X227335Y122245D01*
X227259Y122224D01*
X227182Y122206D01*
X227105Y122192D01*
X227027Y122182D01*
X226949Y122176D01*
X226870Y122174D01*
X225318Y122174D01*
D11*
X98905Y31131D02*
X97268Y31131D01*
X97190Y31133D01*
X97112Y31138D01*
X97035Y31148D01*
X96958Y31161D01*
X96882Y31177D01*
X96807Y31197D01*
X96733Y31221D01*
X96660Y31248D01*
X96588Y31279D01*
X96518Y31313D01*
X96450Y31350D01*
X96383Y31391D01*
X96318Y31435D01*
X96256Y31481D01*
X96196Y31531D01*
X96138Y31583D01*
X96083Y31638D01*
X96031Y31696D01*
X95981Y31756D01*
X95935Y31818D01*
X95891Y31883D01*
X95850Y31950D01*
X95813Y32018D01*
X95779Y32088D01*
X95748Y32160D01*
X95721Y32233D01*
X95697Y32307D01*
X95677Y32382D01*
X95661Y32458D01*
X95648Y32535D01*
X95638Y32612D01*
X95633Y32690D01*
X95631Y32768D01*
X95631Y36860D01*
X95633Y36940D01*
X95639Y37020D01*
X95649Y37100D01*
X95662Y37179D01*
X95680Y37258D01*
X95701Y37335D01*
X95727Y37411D01*
X95756Y37486D01*
X95788Y37560D01*
X95824Y37632D01*
X95864Y37702D01*
X95907Y37769D01*
X95953Y37835D01*
X96003Y37898D01*
X96055Y37959D01*
X96110Y38018D01*
X96169Y38073D01*
X96229Y38125D01*
X96293Y38175D01*
X96359Y38221D01*
X96426Y38264D01*
X96496Y38304D01*
X96568Y38340D01*
X96642Y38372D01*
X96716Y38401D01*
X96793Y38427D01*
X96870Y38448D01*
X96949Y38466D01*
X97028Y38479D01*
X97108Y38489D01*
X97188Y38495D01*
X97268Y38497D01*
X98905Y38497D01*
X101750Y36860D02*
X103796Y38497D01*
X103796Y31131D01*
X101750Y31131D02*
X105842Y31131D01*
D12*
X111600Y139000D02*
X131600Y139000D01*
X131600Y115000D01*
X111600Y115000D01*
X91600Y139000D02*
X75600Y139000D01*
X71600Y135000D01*
X71600Y119000D01*
X75600Y115000D01*
X91600Y115000D01*
D13*
X97790Y116840D02*
X97790Y137160D01*
D14*
X112304Y109253D02*
X113151Y109253D01*
X112304Y109253D02*
X112249Y109255D01*
X112193Y109260D01*
X112139Y109269D01*
X112085Y109282D01*
X112032Y109298D01*
X111980Y109317D01*
X111929Y109340D01*
X111881Y109366D01*
X111833Y109396D01*
X111788Y109428D01*
X111746Y109463D01*
X111705Y109501D01*
X111667Y109542D01*
X111632Y109584D01*
X111600Y109629D01*
X111570Y109677D01*
X111544Y109725D01*
X111521Y109776D01*
X111502Y109828D01*
X111486Y109881D01*
X111473Y109935D01*
X111464Y109989D01*
X111459Y110045D01*
X111457Y110100D01*
X111458Y110100D02*
X111458Y112216D01*
X111457Y112216D02*
X111459Y112274D01*
X111465Y112331D01*
X111475Y112388D01*
X111488Y112445D01*
X111506Y112500D01*
X111527Y112553D01*
X111552Y112606D01*
X111580Y112656D01*
X111612Y112704D01*
X111647Y112751D01*
X111685Y112794D01*
X111726Y112835D01*
X111769Y112873D01*
X111816Y112908D01*
X111864Y112940D01*
X111914Y112968D01*
X111967Y112993D01*
X112020Y113014D01*
X112075Y113032D01*
X112132Y113045D01*
X112189Y113055D01*
X112246Y113061D01*
X112304Y113063D01*
X113151Y113063D01*
X114361Y108830D02*
X116054Y108830D01*
X117441Y110311D02*
X117441Y112005D01*
X117442Y112005D02*
X117444Y112069D01*
X117450Y112133D01*
X117459Y112196D01*
X117473Y112258D01*
X117490Y112320D01*
X117511Y112380D01*
X117535Y112439D01*
X117563Y112497D01*
X117595Y112552D01*
X117629Y112606D01*
X117667Y112657D01*
X117708Y112707D01*
X117752Y112753D01*
X117798Y112797D01*
X117848Y112838D01*
X117899Y112876D01*
X117953Y112910D01*
X118008Y112942D01*
X118066Y112970D01*
X118125Y112994D01*
X118185Y113015D01*
X118247Y113032D01*
X118309Y113046D01*
X118372Y113055D01*
X118436Y113061D01*
X118500Y113063D01*
X118564Y113061D01*
X118628Y113055D01*
X118691Y113046D01*
X118753Y113032D01*
X118815Y113015D01*
X118875Y112994D01*
X118934Y112970D01*
X118992Y112942D01*
X119047Y112910D01*
X119101Y112876D01*
X119152Y112838D01*
X119202Y112797D01*
X119248Y112753D01*
X119292Y112707D01*
X119333Y112657D01*
X119371Y112606D01*
X119405Y112552D01*
X119437Y112497D01*
X119465Y112439D01*
X119489Y112380D01*
X119510Y112320D01*
X119527Y112258D01*
X119541Y112196D01*
X119550Y112133D01*
X119556Y112069D01*
X119558Y112005D01*
X119558Y110311D01*
X119556Y110247D01*
X119550Y110183D01*
X119541Y110120D01*
X119527Y110058D01*
X119510Y109996D01*
X119489Y109936D01*
X119465Y109877D01*
X119437Y109819D01*
X119405Y109764D01*
X119371Y109710D01*
X119333Y109659D01*
X119292Y109609D01*
X119248Y109563D01*
X119202Y109519D01*
X119152Y109478D01*
X119101Y109440D01*
X119047Y109406D01*
X118992Y109374D01*
X118934Y109346D01*
X118875Y109322D01*
X118815Y109301D01*
X118753Y109284D01*
X118691Y109270D01*
X118628Y109261D01*
X118564Y109255D01*
X118500Y109253D01*
X118436Y109255D01*
X118372Y109261D01*
X118309Y109270D01*
X118247Y109284D01*
X118185Y109301D01*
X118125Y109322D01*
X118066Y109346D01*
X118008Y109374D01*
X117953Y109406D01*
X117899Y109440D01*
X117848Y109478D01*
X117798Y109519D01*
X117752Y109563D01*
X117708Y109609D01*
X117667Y109659D01*
X117629Y109710D01*
X117595Y109764D01*
X117563Y109819D01*
X117535Y109877D01*
X117511Y109936D01*
X117490Y109996D01*
X117473Y110058D01*
X117459Y110120D01*
X117450Y110183D01*
X117444Y110247D01*
X117442Y110311D01*
X121221Y110311D02*
X121221Y113063D01*
X121221Y110311D02*
X121223Y110247D01*
X121229Y110183D01*
X121238Y110120D01*
X121252Y110058D01*
X121269Y109996D01*
X121290Y109936D01*
X121314Y109877D01*
X121342Y109819D01*
X121374Y109764D01*
X121408Y109710D01*
X121446Y109659D01*
X121487Y109609D01*
X121531Y109563D01*
X121577Y109519D01*
X121627Y109478D01*
X121678Y109440D01*
X121732Y109406D01*
X121787Y109374D01*
X121845Y109346D01*
X121904Y109322D01*
X121964Y109301D01*
X122026Y109284D01*
X122088Y109270D01*
X122151Y109261D01*
X122215Y109255D01*
X122279Y109253D01*
X122343Y109255D01*
X122407Y109261D01*
X122470Y109270D01*
X122532Y109284D01*
X122594Y109301D01*
X122654Y109322D01*
X122713Y109346D01*
X122771Y109374D01*
X122826Y109406D01*
X122880Y109440D01*
X122931Y109478D01*
X122981Y109519D01*
X123027Y109563D01*
X123071Y109609D01*
X123112Y109659D01*
X123150Y109710D01*
X123184Y109764D01*
X123216Y109819D01*
X123244Y109877D01*
X123268Y109936D01*
X123289Y109996D01*
X123306Y110058D01*
X123320Y110120D01*
X123329Y110183D01*
X123335Y110247D01*
X123337Y110311D01*
X123337Y113063D01*
X125815Y113063D02*
X125815Y109253D01*
X124756Y113063D02*
X126873Y113063D01*
D12*
X147800Y26100D02*
X167800Y26100D01*
X147800Y26100D02*
X147800Y50100D01*
X167800Y50100D01*
X187800Y26100D02*
X203800Y26100D01*
X207800Y30100D01*
X207800Y46100D01*
X203800Y50100D01*
X187800Y50100D01*
D13*
X181610Y48260D02*
X181610Y27940D01*
D14*
X154220Y52037D02*
X153374Y52037D01*
X153319Y52039D01*
X153263Y52044D01*
X153209Y52053D01*
X153155Y52066D01*
X153102Y52082D01*
X153050Y52101D01*
X152999Y52124D01*
X152951Y52150D01*
X152903Y52180D01*
X152858Y52212D01*
X152816Y52247D01*
X152775Y52285D01*
X152737Y52326D01*
X152702Y52368D01*
X152670Y52413D01*
X152640Y52461D01*
X152614Y52509D01*
X152591Y52560D01*
X152572Y52612D01*
X152556Y52665D01*
X152543Y52719D01*
X152534Y52773D01*
X152529Y52829D01*
X152527Y52884D01*
X152527Y55000D01*
X152529Y55058D01*
X152535Y55115D01*
X152545Y55172D01*
X152558Y55229D01*
X152576Y55284D01*
X152597Y55337D01*
X152622Y55390D01*
X152650Y55440D01*
X152682Y55488D01*
X152717Y55535D01*
X152755Y55578D01*
X152796Y55619D01*
X152839Y55657D01*
X152886Y55692D01*
X152934Y55724D01*
X152984Y55752D01*
X153037Y55777D01*
X153090Y55798D01*
X153145Y55816D01*
X153202Y55829D01*
X153259Y55839D01*
X153316Y55845D01*
X153374Y55847D01*
X154220Y55847D01*
X155430Y51614D02*
X157124Y51614D01*
X159569Y52037D02*
X158299Y55847D01*
X160839Y55847D02*
X159569Y52037D01*
X162290Y52037D02*
X162290Y55847D01*
X163348Y55847D01*
X163412Y55845D01*
X163476Y55839D01*
X163539Y55830D01*
X163601Y55816D01*
X163663Y55799D01*
X163723Y55778D01*
X163782Y55754D01*
X163840Y55726D01*
X163895Y55694D01*
X163949Y55660D01*
X164000Y55622D01*
X164050Y55581D01*
X164096Y55537D01*
X164140Y55491D01*
X164181Y55441D01*
X164219Y55390D01*
X164253Y55336D01*
X164285Y55281D01*
X164313Y55223D01*
X164337Y55164D01*
X164358Y55104D01*
X164375Y55042D01*
X164389Y54980D01*
X164398Y54917D01*
X164404Y54853D01*
X164406Y54789D01*
X164407Y54789D02*
X164407Y53095D01*
X164406Y53095D02*
X164404Y53031D01*
X164398Y52967D01*
X164389Y52904D01*
X164375Y52842D01*
X164358Y52780D01*
X164337Y52720D01*
X164313Y52661D01*
X164285Y52603D01*
X164253Y52548D01*
X164219Y52494D01*
X164181Y52443D01*
X164140Y52393D01*
X164096Y52347D01*
X164050Y52303D01*
X164000Y52262D01*
X163949Y52224D01*
X163895Y52190D01*
X163840Y52158D01*
X163782Y52130D01*
X163723Y52106D01*
X163663Y52085D01*
X163601Y52068D01*
X163539Y52054D01*
X163476Y52045D01*
X163412Y52039D01*
X163348Y52037D01*
X162290Y52037D01*
X166191Y52037D02*
X166191Y55847D01*
X167250Y55847D01*
X167314Y55845D01*
X167378Y55839D01*
X167441Y55830D01*
X167503Y55816D01*
X167565Y55799D01*
X167625Y55778D01*
X167684Y55754D01*
X167742Y55726D01*
X167797Y55694D01*
X167851Y55660D01*
X167902Y55622D01*
X167952Y55581D01*
X167998Y55537D01*
X168042Y55491D01*
X168083Y55441D01*
X168121Y55390D01*
X168155Y55336D01*
X168187Y55281D01*
X168215Y55223D01*
X168239Y55164D01*
X168260Y55104D01*
X168277Y55042D01*
X168291Y54980D01*
X168300Y54917D01*
X168306Y54853D01*
X168308Y54789D01*
X168308Y53095D01*
X168306Y53031D01*
X168300Y52967D01*
X168291Y52904D01*
X168277Y52842D01*
X168260Y52780D01*
X168239Y52720D01*
X168215Y52661D01*
X168187Y52603D01*
X168155Y52548D01*
X168121Y52494D01*
X168083Y52443D01*
X168042Y52393D01*
X167998Y52347D01*
X167952Y52303D01*
X167902Y52262D01*
X167851Y52224D01*
X167797Y52190D01*
X167742Y52158D01*
X167684Y52130D01*
X167625Y52106D01*
X167565Y52085D01*
X167503Y52068D01*
X167441Y52054D01*
X167378Y52045D01*
X167314Y52039D01*
X167250Y52037D01*
X166191Y52037D01*
D11*
X70469Y44831D02*
X63103Y44831D01*
X63103Y46877D01*
X63105Y46966D01*
X63111Y47055D01*
X63121Y47144D01*
X63134Y47232D01*
X63151Y47320D01*
X63173Y47407D01*
X63198Y47492D01*
X63226Y47577D01*
X63259Y47660D01*
X63295Y47742D01*
X63334Y47822D01*
X63377Y47900D01*
X63423Y47976D01*
X63473Y48051D01*
X63526Y48123D01*
X63582Y48192D01*
X63641Y48259D01*
X63702Y48324D01*
X63767Y48385D01*
X63834Y48444D01*
X63903Y48500D01*
X63975Y48553D01*
X64050Y48603D01*
X64126Y48649D01*
X64204Y48692D01*
X64284Y48731D01*
X64366Y48767D01*
X64449Y48800D01*
X64534Y48828D01*
X64619Y48853D01*
X64706Y48875D01*
X64794Y48892D01*
X64882Y48905D01*
X64971Y48915D01*
X65060Y48921D01*
X65149Y48923D01*
X65238Y48921D01*
X65327Y48915D01*
X65416Y48905D01*
X65504Y48892D01*
X65592Y48875D01*
X65679Y48853D01*
X65764Y48828D01*
X65849Y48800D01*
X65932Y48767D01*
X66014Y48731D01*
X66094Y48692D01*
X66172Y48649D01*
X66248Y48603D01*
X66323Y48553D01*
X66395Y48500D01*
X66464Y48444D01*
X66531Y48385D01*
X66596Y48324D01*
X66657Y48259D01*
X66716Y48192D01*
X66772Y48123D01*
X66825Y48051D01*
X66875Y47976D01*
X66921Y47900D01*
X66964Y47822D01*
X67003Y47742D01*
X67039Y47660D01*
X67072Y47577D01*
X67100Y47492D01*
X67125Y47407D01*
X67147Y47320D01*
X67164Y47232D01*
X67177Y47144D01*
X67187Y47055D01*
X67193Y46966D01*
X67195Y46877D01*
X67195Y44831D01*
X67195Y47286D02*
X70469Y48923D01*
X64740Y52095D02*
X63103Y54141D01*
X70469Y54141D01*
X70469Y52095D02*
X70469Y56187D01*
D13*
X97300Y98200D02*
X131300Y98200D01*
X131300Y55200D01*
X97300Y55200D01*
X97300Y98200D01*
D10*
X96554Y102430D02*
X96554Y107566D01*
X96554Y102430D02*
X96556Y102343D01*
X96562Y102255D01*
X96571Y102168D01*
X96585Y102082D01*
X96602Y101996D01*
X96623Y101912D01*
X96648Y101828D01*
X96677Y101745D01*
X96709Y101664D01*
X96744Y101584D01*
X96783Y101506D01*
X96826Y101429D01*
X96872Y101355D01*
X96921Y101283D01*
X96973Y101213D01*
X97029Y101145D01*
X97087Y101080D01*
X97148Y101017D01*
X97212Y100958D01*
X97279Y100901D01*
X97347Y100847D01*
X97419Y100796D01*
X97492Y100749D01*
X97567Y100704D01*
X97645Y100663D01*
X97724Y100626D01*
X97804Y100592D01*
X97886Y100562D01*
X97969Y100535D01*
X98054Y100512D01*
X98139Y100493D01*
X98225Y100478D01*
X98312Y100466D01*
X98399Y100458D01*
X98486Y100454D01*
X98574Y100454D01*
X98661Y100458D01*
X98748Y100466D01*
X98835Y100478D01*
X98921Y100493D01*
X99006Y100512D01*
X99091Y100535D01*
X99174Y100562D01*
X99256Y100592D01*
X99336Y100626D01*
X99415Y100663D01*
X99493Y100704D01*
X99568Y100749D01*
X99641Y100796D01*
X99713Y100847D01*
X99781Y100901D01*
X99848Y100958D01*
X99912Y101017D01*
X99973Y101080D01*
X100031Y101145D01*
X100087Y101213D01*
X100139Y101283D01*
X100188Y101355D01*
X100234Y101429D01*
X100277Y101506D01*
X100316Y101584D01*
X100351Y101664D01*
X100383Y101745D01*
X100412Y101828D01*
X100437Y101912D01*
X100458Y101996D01*
X100475Y102082D01*
X100489Y102168D01*
X100498Y102255D01*
X100504Y102343D01*
X100506Y102430D01*
X100505Y102430D02*
X100505Y107566D01*
X105814Y107566D02*
X105896Y107564D01*
X105978Y107558D01*
X106060Y107549D01*
X106141Y107536D01*
X106221Y107519D01*
X106301Y107498D01*
X106379Y107474D01*
X106456Y107446D01*
X106532Y107415D01*
X106607Y107380D01*
X106679Y107341D01*
X106750Y107300D01*
X106819Y107255D01*
X106885Y107207D01*
X106950Y107156D01*
X107012Y107102D01*
X107071Y107045D01*
X107128Y106986D01*
X107182Y106924D01*
X107233Y106859D01*
X107281Y106793D01*
X107326Y106724D01*
X107367Y106653D01*
X107406Y106581D01*
X107441Y106506D01*
X107472Y106430D01*
X107500Y106353D01*
X107524Y106275D01*
X107545Y106195D01*
X107562Y106115D01*
X107575Y106034D01*
X107584Y105952D01*
X107590Y105870D01*
X107592Y105788D01*
X105814Y107566D02*
X105721Y107564D01*
X105629Y107558D01*
X105537Y107549D01*
X105445Y107536D01*
X105354Y107519D01*
X105264Y107499D01*
X105174Y107475D01*
X105086Y107447D01*
X104998Y107415D01*
X104913Y107381D01*
X104828Y107342D01*
X104746Y107301D01*
X104665Y107256D01*
X104585Y107207D01*
X104508Y107156D01*
X104433Y107102D01*
X104361Y107044D01*
X104291Y106984D01*
X104223Y106920D01*
X104158Y106855D01*
X104095Y106786D01*
X104036Y106715D01*
X103979Y106642D01*
X103925Y106566D01*
X103875Y106489D01*
X103827Y106409D01*
X103783Y106328D01*
X103743Y106244D01*
X103705Y106160D01*
X103671Y106073D01*
X103641Y105986D01*
X106999Y104405D02*
X107060Y104466D01*
X107118Y104529D01*
X107173Y104595D01*
X107226Y104663D01*
X107275Y104734D01*
X107320Y104806D01*
X107363Y104881D01*
X107402Y104957D01*
X107438Y105036D01*
X107470Y105115D01*
X107498Y105196D01*
X107523Y105279D01*
X107544Y105362D01*
X107561Y105446D01*
X107575Y105531D01*
X107584Y105616D01*
X107590Y105702D01*
X107592Y105788D01*
X106999Y104405D02*
X103641Y100454D01*
X107592Y100454D01*
D12*
X256400Y73900D02*
X263900Y73900D01*
X256400Y73900D02*
X256400Y60900D01*
X208400Y60900D01*
X208400Y116900D02*
X256400Y116900D01*
X256400Y103900D01*
X263900Y103900D01*
X263900Y73900D01*
D15*
X242111Y50892D02*
X234322Y39208D01*
X242111Y39208D02*
X234322Y50892D01*
X246401Y48296D02*
X249646Y50892D01*
X249646Y39208D01*
X246401Y39208D02*
X252892Y39208D01*
D16*
X141478Y102362D02*
X134874Y102362D01*
X134874Y104196D01*
X134876Y104281D01*
X134882Y104365D01*
X134892Y104449D01*
X134905Y104533D01*
X134923Y104616D01*
X134944Y104698D01*
X134969Y104779D01*
X134998Y104859D01*
X135030Y104937D01*
X135066Y105013D01*
X135106Y105088D01*
X135149Y105161D01*
X135195Y105232D01*
X135244Y105301D01*
X135297Y105368D01*
X135353Y105432D01*
X135411Y105493D01*
X135472Y105551D01*
X135536Y105607D01*
X135603Y105660D01*
X135672Y105709D01*
X135743Y105755D01*
X135816Y105798D01*
X135891Y105838D01*
X135967Y105874D01*
X136046Y105906D01*
X136125Y105935D01*
X136206Y105960D01*
X136288Y105981D01*
X136371Y105999D01*
X136455Y106012D01*
X136539Y106022D01*
X136623Y106028D01*
X136708Y106030D01*
X136708Y106031D02*
X139644Y106031D01*
X139644Y106030D02*
X139729Y106028D01*
X139813Y106022D01*
X139897Y106012D01*
X139981Y105999D01*
X140064Y105981D01*
X140146Y105960D01*
X140227Y105935D01*
X140307Y105906D01*
X140385Y105874D01*
X140461Y105838D01*
X140536Y105798D01*
X140609Y105755D01*
X140680Y105709D01*
X140749Y105660D01*
X140816Y105607D01*
X140880Y105551D01*
X140941Y105493D01*
X140999Y105432D01*
X141055Y105368D01*
X141108Y105301D01*
X141157Y105232D01*
X141203Y105161D01*
X141246Y105088D01*
X141286Y105013D01*
X141322Y104937D01*
X141354Y104859D01*
X141383Y104779D01*
X141408Y104698D01*
X141429Y104616D01*
X141447Y104533D01*
X141460Y104449D01*
X141470Y104365D01*
X141476Y104281D01*
X141478Y104196D01*
X141478Y102362D01*
X134874Y111939D02*
X134876Y112018D01*
X134881Y112096D01*
X134891Y112174D01*
X134904Y112251D01*
X134921Y112328D01*
X134941Y112404D01*
X134965Y112479D01*
X134992Y112553D01*
X135023Y112625D01*
X135058Y112696D01*
X135095Y112765D01*
X135136Y112832D01*
X135180Y112897D01*
X135227Y112960D01*
X135277Y113020D01*
X135330Y113078D01*
X135386Y113134D01*
X135444Y113187D01*
X135504Y113237D01*
X135567Y113284D01*
X135632Y113328D01*
X135700Y113369D01*
X135768Y113406D01*
X135839Y113441D01*
X135911Y113472D01*
X135985Y113499D01*
X136060Y113523D01*
X136136Y113543D01*
X136213Y113560D01*
X136290Y113573D01*
X136368Y113583D01*
X136446Y113588D01*
X136525Y113590D01*
X134874Y111939D02*
X134876Y111850D01*
X134881Y111761D01*
X134891Y111673D01*
X134904Y111585D01*
X134920Y111498D01*
X134941Y111411D01*
X134965Y111326D01*
X134992Y111241D01*
X135023Y111158D01*
X135058Y111076D01*
X135096Y110995D01*
X135137Y110916D01*
X135181Y110840D01*
X135229Y110764D01*
X135280Y110691D01*
X135333Y110621D01*
X135390Y110552D01*
X135450Y110486D01*
X135512Y110423D01*
X135577Y110362D01*
X135644Y110304D01*
X135714Y110249D01*
X135786Y110196D01*
X135860Y110147D01*
X135936Y110101D01*
X136014Y110059D01*
X136094Y110019D01*
X136175Y109983D01*
X136258Y109950D01*
X136342Y109921D01*
X137809Y113040D02*
X137753Y113096D01*
X137694Y113150D01*
X137633Y113201D01*
X137569Y113250D01*
X137504Y113295D01*
X137436Y113338D01*
X137367Y113377D01*
X137296Y113414D01*
X137223Y113447D01*
X137149Y113476D01*
X137074Y113503D01*
X136998Y113526D01*
X136920Y113545D01*
X136842Y113561D01*
X136764Y113574D01*
X136684Y113583D01*
X136605Y113588D01*
X136525Y113590D01*
X137809Y113040D02*
X141478Y109921D01*
X141478Y113590D01*
D12*
X145400Y105570D02*
X145400Y123030D01*
X159400Y123030D02*
X159400Y105570D01*
X152400Y111300D02*
X148400Y117300D01*
X156400Y117300D01*
X152400Y111300D01*
D17*
X152400Y110300D03*
D13*
X40005Y108585D02*
X28575Y108585D01*
X28575Y111760D01*
X28577Y111871D01*
X28583Y111981D01*
X28592Y112092D01*
X28606Y112202D01*
X28623Y112311D01*
X28644Y112420D01*
X28669Y112528D01*
X28698Y112635D01*
X28730Y112741D01*
X28766Y112846D01*
X28806Y112949D01*
X28849Y113051D01*
X28896Y113152D01*
X28947Y113251D01*
X29000Y113347D01*
X29057Y113442D01*
X29118Y113535D01*
X29181Y113626D01*
X29248Y113715D01*
X29318Y113801D01*
X29391Y113884D01*
X29466Y113966D01*
X29544Y114044D01*
X29626Y114119D01*
X29709Y114192D01*
X29795Y114262D01*
X29884Y114329D01*
X29975Y114392D01*
X30068Y114453D01*
X30162Y114510D01*
X30259Y114563D01*
X30358Y114614D01*
X30459Y114661D01*
X30561Y114704D01*
X30664Y114744D01*
X30769Y114780D01*
X30875Y114812D01*
X30982Y114841D01*
X31090Y114866D01*
X31199Y114887D01*
X31308Y114904D01*
X31418Y114918D01*
X31529Y114927D01*
X31639Y114933D01*
X31750Y114935D01*
X31861Y114933D01*
X31971Y114927D01*
X32082Y114918D01*
X32192Y114904D01*
X32301Y114887D01*
X32410Y114866D01*
X32518Y114841D01*
X32625Y114812D01*
X32731Y114780D01*
X32836Y114744D01*
X32939Y114704D01*
X33041Y114661D01*
X33142Y114614D01*
X33241Y114563D01*
X33338Y114510D01*
X33432Y114453D01*
X33525Y114392D01*
X33616Y114329D01*
X33705Y114262D01*
X33791Y114192D01*
X33874Y114119D01*
X33956Y114044D01*
X34034Y113966D01*
X34109Y113884D01*
X34182Y113801D01*
X34252Y113715D01*
X34319Y113626D01*
X34382Y113535D01*
X34443Y113442D01*
X34500Y113348D01*
X34553Y113251D01*
X34604Y113152D01*
X34651Y113051D01*
X34694Y112949D01*
X34734Y112846D01*
X34770Y112741D01*
X34802Y112635D01*
X34831Y112528D01*
X34856Y112420D01*
X34877Y112311D01*
X34894Y112202D01*
X34908Y112092D01*
X34917Y111981D01*
X34923Y111871D01*
X34925Y111760D01*
X34925Y108585D01*
X31115Y119444D02*
X28575Y122619D01*
X40005Y122619D01*
X40005Y119444D02*
X40005Y125794D01*
X39307Y27305D02*
X39307Y15875D01*
X39307Y27305D02*
X42482Y27305D01*
X42593Y27303D01*
X42703Y27297D01*
X42814Y27288D01*
X42924Y27274D01*
X43033Y27257D01*
X43142Y27236D01*
X43250Y27211D01*
X43357Y27182D01*
X43463Y27150D01*
X43568Y27114D01*
X43671Y27074D01*
X43773Y27031D01*
X43874Y26984D01*
X43973Y26933D01*
X44070Y26880D01*
X44164Y26823D01*
X44257Y26762D01*
X44348Y26699D01*
X44437Y26632D01*
X44523Y26562D01*
X44606Y26489D01*
X44688Y26414D01*
X44766Y26336D01*
X44841Y26254D01*
X44914Y26171D01*
X44984Y26085D01*
X45051Y25996D01*
X45114Y25905D01*
X45175Y25812D01*
X45232Y25717D01*
X45285Y25621D01*
X45336Y25522D01*
X45383Y25421D01*
X45426Y25319D01*
X45466Y25216D01*
X45502Y25111D01*
X45534Y25005D01*
X45563Y24898D01*
X45588Y24790D01*
X45609Y24681D01*
X45626Y24572D01*
X45640Y24462D01*
X45649Y24351D01*
X45655Y24241D01*
X45657Y24130D01*
X45655Y24019D01*
X45649Y23909D01*
X45640Y23798D01*
X45626Y23688D01*
X45609Y23579D01*
X45588Y23470D01*
X45563Y23362D01*
X45534Y23255D01*
X45502Y23149D01*
X45466Y23044D01*
X45426Y22941D01*
X45383Y22839D01*
X45336Y22738D01*
X45285Y22639D01*
X45232Y22542D01*
X45175Y22448D01*
X45114Y22355D01*
X45051Y22264D01*
X44984Y22175D01*
X44914Y22089D01*
X44841Y22006D01*
X44766Y21924D01*
X44688Y21846D01*
X44606Y21771D01*
X44523Y21698D01*
X44437Y21628D01*
X44348Y21561D01*
X44257Y21498D01*
X44164Y21437D01*
X44069Y21380D01*
X43973Y21327D01*
X43874Y21276D01*
X43773Y21229D01*
X43671Y21186D01*
X43568Y21146D01*
X43463Y21110D01*
X43357Y21078D01*
X43250Y21049D01*
X43142Y21024D01*
X43033Y21003D01*
X42924Y20986D01*
X42814Y20972D01*
X42703Y20963D01*
X42593Y20957D01*
X42482Y20955D01*
X39307Y20955D01*
X53658Y27306D02*
X53762Y27304D01*
X53867Y27298D01*
X53971Y27289D01*
X54074Y27276D01*
X54177Y27258D01*
X54279Y27238D01*
X54381Y27213D01*
X54481Y27185D01*
X54581Y27153D01*
X54679Y27117D01*
X54776Y27078D01*
X54871Y27036D01*
X54965Y26990D01*
X55057Y26940D01*
X55147Y26888D01*
X55235Y26832D01*
X55321Y26772D01*
X55405Y26710D01*
X55486Y26645D01*
X55565Y26577D01*
X55642Y26505D01*
X55715Y26432D01*
X55787Y26355D01*
X55855Y26276D01*
X55920Y26195D01*
X55982Y26111D01*
X56042Y26025D01*
X56098Y25937D01*
X56150Y25847D01*
X56200Y25755D01*
X56246Y25661D01*
X56288Y25566D01*
X56327Y25469D01*
X56363Y25371D01*
X56395Y25271D01*
X56423Y25171D01*
X56448Y25069D01*
X56468Y24967D01*
X56486Y24864D01*
X56499Y24761D01*
X56508Y24657D01*
X56514Y24552D01*
X56516Y24448D01*
X53658Y27305D02*
X53540Y27303D01*
X53421Y27297D01*
X53303Y27288D01*
X53186Y27275D01*
X53069Y27257D01*
X52952Y27237D01*
X52836Y27212D01*
X52721Y27184D01*
X52608Y27151D01*
X52495Y27116D01*
X52383Y27076D01*
X52273Y27034D01*
X52164Y26987D01*
X52056Y26937D01*
X51951Y26884D01*
X51847Y26827D01*
X51745Y26767D01*
X51645Y26704D01*
X51547Y26637D01*
X51451Y26568D01*
X51358Y26495D01*
X51267Y26419D01*
X51178Y26341D01*
X51092Y26259D01*
X51009Y26175D01*
X50928Y26089D01*
X50851Y25999D01*
X50776Y25908D01*
X50704Y25814D01*
X50635Y25717D01*
X50570Y25619D01*
X50507Y25518D01*
X50448Y25415D01*
X50392Y25311D01*
X50340Y25205D01*
X50291Y25097D01*
X50246Y24988D01*
X50204Y24877D01*
X50166Y24765D01*
X55563Y22226D02*
X55639Y22301D01*
X55714Y22380D01*
X55785Y22461D01*
X55854Y22545D01*
X55919Y22631D01*
X55981Y22719D01*
X56041Y22809D01*
X56097Y22901D01*
X56150Y22996D01*
X56199Y23092D01*
X56245Y23190D01*
X56288Y23289D01*
X56327Y23390D01*
X56362Y23492D01*
X56394Y23595D01*
X56422Y23699D01*
X56447Y23804D01*
X56468Y23911D01*
X56485Y24017D01*
X56498Y24124D01*
X56507Y24232D01*
X56513Y24340D01*
X56515Y24448D01*
X55563Y22225D02*
X50165Y15875D01*
X56515Y15875D01*
X40005Y57785D02*
X28575Y57785D01*
X28575Y60960D01*
X28577Y61071D01*
X28583Y61181D01*
X28592Y61292D01*
X28606Y61402D01*
X28623Y61511D01*
X28644Y61620D01*
X28669Y61728D01*
X28698Y61835D01*
X28730Y61941D01*
X28766Y62046D01*
X28806Y62149D01*
X28849Y62251D01*
X28896Y62352D01*
X28947Y62451D01*
X29000Y62547D01*
X29057Y62642D01*
X29118Y62735D01*
X29181Y62826D01*
X29248Y62915D01*
X29318Y63001D01*
X29391Y63084D01*
X29466Y63166D01*
X29544Y63244D01*
X29626Y63319D01*
X29709Y63392D01*
X29795Y63462D01*
X29884Y63529D01*
X29975Y63592D01*
X30068Y63653D01*
X30162Y63710D01*
X30259Y63763D01*
X30358Y63814D01*
X30459Y63861D01*
X30561Y63904D01*
X30664Y63944D01*
X30769Y63980D01*
X30875Y64012D01*
X30982Y64041D01*
X31090Y64066D01*
X31199Y64087D01*
X31308Y64104D01*
X31418Y64118D01*
X31529Y64127D01*
X31639Y64133D01*
X31750Y64135D01*
X31861Y64133D01*
X31971Y64127D01*
X32082Y64118D01*
X32192Y64104D01*
X32301Y64087D01*
X32410Y64066D01*
X32518Y64041D01*
X32625Y64012D01*
X32731Y63980D01*
X32836Y63944D01*
X32939Y63904D01*
X33041Y63861D01*
X33142Y63814D01*
X33241Y63763D01*
X33338Y63710D01*
X33432Y63653D01*
X33525Y63592D01*
X33616Y63529D01*
X33705Y63462D01*
X33791Y63392D01*
X33874Y63319D01*
X33956Y63244D01*
X34034Y63166D01*
X34109Y63084D01*
X34182Y63001D01*
X34252Y62915D01*
X34319Y62826D01*
X34382Y62735D01*
X34443Y62642D01*
X34500Y62548D01*
X34553Y62451D01*
X34604Y62352D01*
X34651Y62251D01*
X34694Y62149D01*
X34734Y62046D01*
X34770Y61941D01*
X34802Y61835D01*
X34831Y61728D01*
X34856Y61620D01*
X34877Y61511D01*
X34894Y61402D01*
X34908Y61292D01*
X34917Y61181D01*
X34923Y61071D01*
X34925Y60960D01*
X34925Y57785D01*
X40005Y68644D02*
X40005Y71819D01*
X40003Y71930D01*
X39997Y72040D01*
X39988Y72151D01*
X39974Y72261D01*
X39957Y72370D01*
X39936Y72479D01*
X39911Y72587D01*
X39882Y72694D01*
X39850Y72800D01*
X39814Y72905D01*
X39774Y73008D01*
X39731Y73110D01*
X39684Y73211D01*
X39633Y73310D01*
X39580Y73407D01*
X39523Y73501D01*
X39462Y73594D01*
X39399Y73685D01*
X39332Y73774D01*
X39262Y73860D01*
X39189Y73943D01*
X39114Y74025D01*
X39036Y74103D01*
X38954Y74178D01*
X38871Y74251D01*
X38785Y74321D01*
X38696Y74388D01*
X38605Y74451D01*
X38512Y74512D01*
X38418Y74569D01*
X38321Y74622D01*
X38222Y74673D01*
X38121Y74720D01*
X38019Y74763D01*
X37916Y74803D01*
X37811Y74839D01*
X37705Y74871D01*
X37598Y74900D01*
X37490Y74925D01*
X37381Y74946D01*
X37272Y74963D01*
X37162Y74977D01*
X37051Y74986D01*
X36941Y74992D01*
X36830Y74994D01*
X36719Y74992D01*
X36609Y74986D01*
X36498Y74977D01*
X36388Y74963D01*
X36279Y74946D01*
X36170Y74925D01*
X36062Y74900D01*
X35955Y74871D01*
X35849Y74839D01*
X35744Y74803D01*
X35641Y74763D01*
X35539Y74720D01*
X35438Y74673D01*
X35339Y74622D01*
X35242Y74569D01*
X35148Y74512D01*
X35055Y74451D01*
X34964Y74388D01*
X34875Y74321D01*
X34789Y74251D01*
X34706Y74178D01*
X34624Y74103D01*
X34546Y74025D01*
X34471Y73943D01*
X34398Y73860D01*
X34328Y73774D01*
X34261Y73685D01*
X34198Y73594D01*
X34137Y73501D01*
X34080Y73406D01*
X34027Y73310D01*
X33976Y73211D01*
X33929Y73110D01*
X33886Y73008D01*
X33846Y72905D01*
X33810Y72800D01*
X33778Y72694D01*
X33749Y72587D01*
X33724Y72479D01*
X33703Y72370D01*
X33686Y72261D01*
X33672Y72151D01*
X33663Y72040D01*
X33657Y71930D01*
X33655Y71819D01*
X28575Y72454D02*
X28575Y68644D01*
X28575Y72454D02*
X28577Y72554D01*
X28583Y72653D01*
X28593Y72753D01*
X28606Y72851D01*
X28624Y72950D01*
X28645Y73047D01*
X28670Y73143D01*
X28699Y73239D01*
X28732Y73333D01*
X28768Y73426D01*
X28808Y73517D01*
X28852Y73607D01*
X28899Y73695D01*
X28949Y73781D01*
X29003Y73865D01*
X29060Y73947D01*
X29120Y74026D01*
X29184Y74104D01*
X29250Y74178D01*
X29319Y74250D01*
X29391Y74319D01*
X29465Y74385D01*
X29543Y74449D01*
X29622Y74509D01*
X29704Y74566D01*
X29788Y74620D01*
X29874Y74670D01*
X29962Y74717D01*
X30052Y74761D01*
X30143Y74801D01*
X30236Y74837D01*
X30330Y74870D01*
X30426Y74899D01*
X30522Y74924D01*
X30619Y74945D01*
X30718Y74963D01*
X30816Y74976D01*
X30916Y74986D01*
X31015Y74992D01*
X31115Y74994D01*
X31215Y74992D01*
X31314Y74986D01*
X31414Y74976D01*
X31512Y74963D01*
X31611Y74945D01*
X31708Y74924D01*
X31804Y74899D01*
X31900Y74870D01*
X31994Y74837D01*
X32087Y74801D01*
X32178Y74761D01*
X32268Y74717D01*
X32356Y74670D01*
X32442Y74620D01*
X32526Y74566D01*
X32608Y74509D01*
X32687Y74449D01*
X32765Y74385D01*
X32839Y74319D01*
X32911Y74250D01*
X32980Y74178D01*
X33046Y74104D01*
X33110Y74026D01*
X33170Y73947D01*
X33227Y73865D01*
X33281Y73781D01*
X33331Y73695D01*
X33378Y73607D01*
X33422Y73517D01*
X33462Y73426D01*
X33498Y73333D01*
X33531Y73239D01*
X33560Y73143D01*
X33585Y73047D01*
X33606Y72950D01*
X33624Y72851D01*
X33637Y72753D01*
X33647Y72653D01*
X33653Y72554D01*
X33655Y72454D01*
X33655Y69914D01*
X61595Y77407D02*
X73025Y77407D01*
X61595Y77407D02*
X61595Y80582D01*
X61597Y80693D01*
X61603Y80803D01*
X61612Y80914D01*
X61626Y81024D01*
X61643Y81133D01*
X61664Y81242D01*
X61689Y81350D01*
X61718Y81457D01*
X61750Y81563D01*
X61786Y81668D01*
X61826Y81771D01*
X61869Y81873D01*
X61916Y81974D01*
X61967Y82073D01*
X62020Y82169D01*
X62077Y82264D01*
X62138Y82357D01*
X62201Y82448D01*
X62268Y82537D01*
X62338Y82623D01*
X62411Y82706D01*
X62486Y82788D01*
X62564Y82866D01*
X62646Y82941D01*
X62729Y83014D01*
X62815Y83084D01*
X62904Y83151D01*
X62995Y83214D01*
X63088Y83275D01*
X63182Y83332D01*
X63279Y83385D01*
X63378Y83436D01*
X63479Y83483D01*
X63581Y83526D01*
X63684Y83566D01*
X63789Y83602D01*
X63895Y83634D01*
X64002Y83663D01*
X64110Y83688D01*
X64219Y83709D01*
X64328Y83726D01*
X64438Y83740D01*
X64549Y83749D01*
X64659Y83755D01*
X64770Y83757D01*
X64881Y83755D01*
X64991Y83749D01*
X65102Y83740D01*
X65212Y83726D01*
X65321Y83709D01*
X65430Y83688D01*
X65538Y83663D01*
X65645Y83634D01*
X65751Y83602D01*
X65856Y83566D01*
X65959Y83526D01*
X66061Y83483D01*
X66162Y83436D01*
X66261Y83385D01*
X66358Y83332D01*
X66452Y83275D01*
X66545Y83214D01*
X66636Y83151D01*
X66725Y83084D01*
X66811Y83014D01*
X66894Y82941D01*
X66976Y82866D01*
X67054Y82788D01*
X67129Y82706D01*
X67202Y82623D01*
X67272Y82537D01*
X67339Y82448D01*
X67402Y82357D01*
X67463Y82264D01*
X67520Y82170D01*
X67573Y82073D01*
X67624Y81974D01*
X67671Y81873D01*
X67714Y81771D01*
X67754Y81668D01*
X67790Y81563D01*
X67822Y81457D01*
X67851Y81350D01*
X67876Y81242D01*
X67897Y81133D01*
X67914Y81024D01*
X67928Y80914D01*
X67937Y80803D01*
X67943Y80693D01*
X67945Y80582D01*
X67945Y77407D01*
X70485Y88265D02*
X61595Y90805D01*
X70485Y88265D02*
X70485Y94615D01*
X67945Y92710D02*
X73025Y92710D01*
M02*
