G04 EAGLE Gerber X2 export*
%TF.Part,Single*%
%TF.FileFunction,Legend,Top,1*%
%TF.FilePolarity,Positive*%
%TF.GenerationSoftware,Autodesk,EAGLE,9.1.0*%
%TF.CreationDate,2018-08-23T06:33:32Z*%
G75*
%MOMM*%
%FSLAX34Y34*%
%LPD*%
%AMOC8*
5,1,8,0,0,1.08239X$1,22.5*%
G01*
%ADD10C,0.076200*%
%ADD11C,0.203200*%
%ADD12C,0.127000*%
%ADD13C,0.025400*%
%ADD14C,0.050800*%
%ADD15C,0.101600*%
%ADD16C,0.152400*%
%ADD17R,0.200000X1.000000*%

G36*
X167145Y47793D02*
X167145Y47793D01*
X167216Y47791D01*
X167285Y47809D01*
X167356Y47818D01*
X167422Y47845D01*
X167491Y47863D01*
X167552Y47900D01*
X167618Y47927D01*
X167674Y47972D01*
X167736Y48009D01*
X167785Y48060D01*
X167840Y48105D01*
X167881Y48164D01*
X167930Y48216D01*
X167963Y48279D01*
X168004Y48337D01*
X168027Y48405D01*
X168060Y48469D01*
X168070Y48528D01*
X168097Y48606D01*
X168103Y48725D01*
X168115Y48800D01*
X168115Y52800D01*
X168105Y52871D01*
X168105Y52943D01*
X168085Y53011D01*
X168075Y53082D01*
X168046Y53147D01*
X168026Y53216D01*
X167988Y53276D01*
X167959Y53341D01*
X167913Y53396D01*
X167875Y53456D01*
X167822Y53504D01*
X167776Y53558D01*
X167716Y53598D01*
X167662Y53645D01*
X167598Y53676D01*
X167539Y53716D01*
X167471Y53737D01*
X167406Y53768D01*
X167336Y53780D01*
X167268Y53801D01*
X167196Y53803D01*
X167126Y53815D01*
X167055Y53807D01*
X166984Y53809D01*
X166914Y53790D01*
X166843Y53782D01*
X166788Y53757D01*
X166709Y53737D01*
X166606Y53676D01*
X166537Y53645D01*
X163537Y51645D01*
X163450Y51568D01*
X163360Y51495D01*
X163345Y51473D01*
X163325Y51455D01*
X163263Y51358D01*
X163196Y51263D01*
X163188Y51237D01*
X163173Y51215D01*
X163141Y51104D01*
X163103Y50994D01*
X163102Y50967D01*
X163095Y50942D01*
X163095Y50826D01*
X163089Y50710D01*
X163095Y50684D01*
X163095Y50657D01*
X163127Y50546D01*
X163153Y50433D01*
X163166Y50410D01*
X163174Y50384D01*
X163236Y50286D01*
X163292Y50185D01*
X163310Y50169D01*
X163325Y50144D01*
X163533Y49959D01*
X163537Y49955D01*
X166537Y47955D01*
X166601Y47924D01*
X166661Y47885D01*
X166729Y47863D01*
X166793Y47832D01*
X166864Y47820D01*
X166932Y47799D01*
X167003Y47797D01*
X167074Y47785D01*
X167145Y47793D01*
G37*
D10*
X22705Y31131D02*
X21068Y31131D01*
X20990Y31133D01*
X20912Y31138D01*
X20835Y31148D01*
X20758Y31161D01*
X20682Y31177D01*
X20607Y31197D01*
X20533Y31221D01*
X20460Y31248D01*
X20388Y31279D01*
X20318Y31313D01*
X20249Y31350D01*
X20183Y31391D01*
X20118Y31435D01*
X20056Y31481D01*
X19996Y31531D01*
X19938Y31583D01*
X19883Y31638D01*
X19831Y31696D01*
X19781Y31756D01*
X19735Y31818D01*
X19691Y31883D01*
X19650Y31950D01*
X19613Y32018D01*
X19579Y32088D01*
X19548Y32160D01*
X19521Y32233D01*
X19497Y32307D01*
X19477Y32382D01*
X19461Y32458D01*
X19448Y32535D01*
X19438Y32612D01*
X19433Y32690D01*
X19431Y32768D01*
X19431Y36860D01*
X19433Y36940D01*
X19439Y37020D01*
X19449Y37100D01*
X19462Y37179D01*
X19480Y37258D01*
X19501Y37335D01*
X19527Y37411D01*
X19556Y37486D01*
X19588Y37560D01*
X19624Y37632D01*
X19664Y37702D01*
X19707Y37769D01*
X19753Y37835D01*
X19803Y37898D01*
X19855Y37959D01*
X19910Y38018D01*
X19969Y38073D01*
X20029Y38125D01*
X20093Y38175D01*
X20159Y38221D01*
X20226Y38264D01*
X20296Y38304D01*
X20368Y38340D01*
X20442Y38372D01*
X20516Y38401D01*
X20593Y38427D01*
X20670Y38448D01*
X20749Y38466D01*
X20828Y38479D01*
X20908Y38489D01*
X20988Y38495D01*
X21068Y38497D01*
X22705Y38497D01*
X25550Y36860D02*
X27596Y38497D01*
X27596Y31131D01*
X25550Y31131D02*
X29642Y31131D01*
D11*
X13400Y137000D02*
X13400Y157000D01*
X37400Y157000D01*
X37400Y137000D01*
X13400Y117000D02*
X13400Y101000D01*
X17400Y97000D01*
X33400Y97000D01*
X37400Y101000D01*
X37400Y117000D01*
D12*
X35560Y123190D02*
X15240Y123190D01*
D13*
X43147Y137704D02*
X43147Y138551D01*
X43147Y137704D02*
X43145Y137646D01*
X43139Y137589D01*
X43129Y137532D01*
X43116Y137475D01*
X43098Y137420D01*
X43077Y137367D01*
X43052Y137314D01*
X43024Y137264D01*
X42992Y137216D01*
X42957Y137169D01*
X42919Y137126D01*
X42878Y137085D01*
X42835Y137047D01*
X42788Y137012D01*
X42740Y136980D01*
X42690Y136952D01*
X42637Y136927D01*
X42584Y136906D01*
X42529Y136888D01*
X42472Y136875D01*
X42415Y136865D01*
X42358Y136859D01*
X42300Y136857D01*
X42300Y136858D02*
X40184Y136858D01*
X40184Y136857D02*
X40126Y136859D01*
X40069Y136865D01*
X40012Y136875D01*
X39955Y136888D01*
X39900Y136906D01*
X39847Y136927D01*
X39794Y136952D01*
X39744Y136980D01*
X39696Y137012D01*
X39649Y137047D01*
X39606Y137085D01*
X39565Y137126D01*
X39527Y137169D01*
X39492Y137216D01*
X39460Y137264D01*
X39432Y137314D01*
X39407Y137367D01*
X39386Y137420D01*
X39368Y137475D01*
X39355Y137532D01*
X39345Y137589D01*
X39339Y137646D01*
X39337Y137704D01*
X39337Y138551D01*
X43570Y139761D02*
X43570Y141454D01*
X42089Y142841D02*
X40395Y142841D01*
X40395Y142842D02*
X40331Y142844D01*
X40267Y142850D01*
X40204Y142859D01*
X40142Y142873D01*
X40080Y142890D01*
X40020Y142911D01*
X39961Y142935D01*
X39903Y142963D01*
X39848Y142995D01*
X39794Y143029D01*
X39743Y143067D01*
X39693Y143108D01*
X39647Y143152D01*
X39603Y143198D01*
X39562Y143248D01*
X39524Y143299D01*
X39490Y143353D01*
X39458Y143408D01*
X39430Y143466D01*
X39406Y143525D01*
X39385Y143585D01*
X39368Y143647D01*
X39354Y143709D01*
X39345Y143772D01*
X39339Y143836D01*
X39337Y143900D01*
X39339Y143964D01*
X39345Y144028D01*
X39354Y144091D01*
X39368Y144153D01*
X39385Y144215D01*
X39406Y144275D01*
X39430Y144334D01*
X39458Y144392D01*
X39490Y144447D01*
X39524Y144501D01*
X39562Y144552D01*
X39603Y144602D01*
X39647Y144648D01*
X39693Y144692D01*
X39743Y144733D01*
X39794Y144771D01*
X39848Y144805D01*
X39903Y144837D01*
X39961Y144865D01*
X40020Y144889D01*
X40080Y144910D01*
X40142Y144927D01*
X40204Y144941D01*
X40267Y144950D01*
X40331Y144956D01*
X40395Y144958D01*
X42089Y144958D01*
X42153Y144956D01*
X42217Y144950D01*
X42280Y144941D01*
X42342Y144927D01*
X42404Y144910D01*
X42464Y144889D01*
X42523Y144865D01*
X42581Y144837D01*
X42636Y144805D01*
X42690Y144771D01*
X42741Y144733D01*
X42791Y144692D01*
X42837Y144648D01*
X42881Y144602D01*
X42922Y144552D01*
X42960Y144501D01*
X42994Y144447D01*
X43026Y144392D01*
X43054Y144334D01*
X43078Y144275D01*
X43099Y144215D01*
X43116Y144153D01*
X43130Y144091D01*
X43139Y144028D01*
X43145Y143964D01*
X43147Y143900D01*
X43145Y143836D01*
X43139Y143772D01*
X43130Y143709D01*
X43116Y143647D01*
X43099Y143585D01*
X43078Y143525D01*
X43054Y143466D01*
X43026Y143408D01*
X42994Y143353D01*
X42960Y143299D01*
X42922Y143248D01*
X42881Y143198D01*
X42837Y143152D01*
X42791Y143108D01*
X42741Y143067D01*
X42690Y143029D01*
X42636Y142995D01*
X42581Y142963D01*
X42523Y142935D01*
X42464Y142911D01*
X42404Y142890D01*
X42342Y142873D01*
X42280Y142859D01*
X42217Y142850D01*
X42153Y142844D01*
X42089Y142842D01*
X42089Y146621D02*
X39337Y146621D01*
X42089Y146621D02*
X42153Y146623D01*
X42217Y146629D01*
X42280Y146638D01*
X42342Y146652D01*
X42404Y146669D01*
X42464Y146690D01*
X42523Y146714D01*
X42581Y146742D01*
X42636Y146774D01*
X42690Y146808D01*
X42741Y146846D01*
X42791Y146887D01*
X42837Y146931D01*
X42881Y146977D01*
X42922Y147027D01*
X42960Y147078D01*
X42994Y147132D01*
X43026Y147187D01*
X43054Y147245D01*
X43078Y147304D01*
X43099Y147364D01*
X43116Y147426D01*
X43130Y147488D01*
X43139Y147551D01*
X43145Y147615D01*
X43147Y147679D01*
X43145Y147743D01*
X43139Y147807D01*
X43130Y147870D01*
X43116Y147932D01*
X43099Y147994D01*
X43078Y148054D01*
X43054Y148113D01*
X43026Y148171D01*
X42994Y148226D01*
X42960Y148280D01*
X42922Y148331D01*
X42881Y148381D01*
X42837Y148427D01*
X42791Y148471D01*
X42741Y148512D01*
X42690Y148550D01*
X42636Y148584D01*
X42581Y148616D01*
X42523Y148644D01*
X42464Y148668D01*
X42404Y148689D01*
X42342Y148706D01*
X42280Y148720D01*
X42217Y148729D01*
X42153Y148735D01*
X42089Y148737D01*
X39337Y148737D01*
X39337Y151215D02*
X43147Y151215D01*
X39337Y150156D02*
X39337Y152273D01*
D11*
X64200Y144300D02*
X64200Y124300D01*
X64200Y144300D02*
X88200Y144300D01*
X88200Y124300D01*
X64200Y104300D02*
X64200Y88300D01*
X68200Y84300D01*
X84200Y84300D01*
X88200Y88300D01*
X88200Y104300D01*
D12*
X86360Y110490D02*
X66040Y110490D01*
D13*
X93947Y124639D02*
X93947Y125485D01*
X93947Y124639D02*
X93945Y124581D01*
X93939Y124524D01*
X93929Y124467D01*
X93916Y124410D01*
X93898Y124355D01*
X93877Y124302D01*
X93852Y124249D01*
X93824Y124199D01*
X93792Y124151D01*
X93757Y124104D01*
X93719Y124061D01*
X93678Y124020D01*
X93635Y123982D01*
X93588Y123947D01*
X93540Y123915D01*
X93490Y123887D01*
X93437Y123862D01*
X93384Y123841D01*
X93329Y123823D01*
X93272Y123810D01*
X93215Y123800D01*
X93158Y123794D01*
X93100Y123792D01*
X90984Y123792D01*
X90926Y123794D01*
X90869Y123800D01*
X90812Y123810D01*
X90755Y123823D01*
X90700Y123841D01*
X90647Y123862D01*
X90594Y123887D01*
X90544Y123915D01*
X90496Y123947D01*
X90449Y123982D01*
X90406Y124020D01*
X90365Y124061D01*
X90327Y124104D01*
X90292Y124151D01*
X90260Y124199D01*
X90232Y124249D01*
X90207Y124302D01*
X90186Y124355D01*
X90168Y124410D01*
X90155Y124467D01*
X90145Y124524D01*
X90139Y124581D01*
X90137Y124639D01*
X90137Y125485D01*
X94370Y126695D02*
X94370Y128389D01*
X93947Y130834D02*
X90137Y129564D01*
X90137Y132104D02*
X93947Y130834D01*
X93947Y133555D02*
X90137Y133555D01*
X90137Y134613D01*
X90139Y134677D01*
X90145Y134741D01*
X90154Y134804D01*
X90168Y134866D01*
X90185Y134928D01*
X90206Y134988D01*
X90230Y135047D01*
X90258Y135105D01*
X90290Y135160D01*
X90324Y135214D01*
X90362Y135265D01*
X90403Y135315D01*
X90447Y135361D01*
X90493Y135405D01*
X90543Y135446D01*
X90594Y135484D01*
X90648Y135518D01*
X90703Y135550D01*
X90761Y135578D01*
X90820Y135602D01*
X90880Y135623D01*
X90942Y135640D01*
X91004Y135654D01*
X91068Y135663D01*
X91131Y135669D01*
X91195Y135671D01*
X91195Y135672D02*
X92889Y135672D01*
X92889Y135671D02*
X92953Y135669D01*
X93017Y135663D01*
X93080Y135654D01*
X93142Y135640D01*
X93204Y135623D01*
X93264Y135602D01*
X93323Y135578D01*
X93381Y135550D01*
X93436Y135518D01*
X93490Y135484D01*
X93541Y135446D01*
X93591Y135405D01*
X93637Y135361D01*
X93681Y135315D01*
X93722Y135265D01*
X93760Y135214D01*
X93794Y135160D01*
X93826Y135105D01*
X93854Y135047D01*
X93878Y134988D01*
X93899Y134928D01*
X93916Y134866D01*
X93930Y134804D01*
X93939Y134741D01*
X93945Y134677D01*
X93947Y134613D01*
X93947Y133555D01*
X93947Y137456D02*
X90137Y137456D01*
X90137Y138515D01*
X90139Y138579D01*
X90145Y138643D01*
X90154Y138706D01*
X90168Y138768D01*
X90185Y138830D01*
X90206Y138890D01*
X90230Y138949D01*
X90258Y139007D01*
X90290Y139062D01*
X90324Y139116D01*
X90362Y139167D01*
X90403Y139217D01*
X90447Y139263D01*
X90493Y139307D01*
X90543Y139348D01*
X90594Y139386D01*
X90648Y139420D01*
X90703Y139452D01*
X90761Y139480D01*
X90820Y139504D01*
X90880Y139525D01*
X90942Y139542D01*
X91004Y139556D01*
X91068Y139565D01*
X91131Y139571D01*
X91195Y139573D01*
X92889Y139573D01*
X92953Y139571D01*
X93017Y139565D01*
X93080Y139556D01*
X93142Y139542D01*
X93204Y139525D01*
X93264Y139504D01*
X93323Y139480D01*
X93381Y139452D01*
X93436Y139420D01*
X93490Y139386D01*
X93541Y139348D01*
X93591Y139307D01*
X93637Y139263D01*
X93681Y139217D01*
X93722Y139167D01*
X93760Y139116D01*
X93794Y139062D01*
X93826Y139007D01*
X93854Y138949D01*
X93878Y138890D01*
X93899Y138830D01*
X93916Y138768D01*
X93930Y138706D01*
X93939Y138643D01*
X93945Y138579D01*
X93947Y138515D01*
X93947Y137456D01*
D10*
X19431Y76597D02*
X19431Y69231D01*
X19431Y76597D02*
X21477Y76597D01*
X21566Y76595D01*
X21655Y76589D01*
X21744Y76579D01*
X21832Y76566D01*
X21920Y76549D01*
X22007Y76527D01*
X22092Y76502D01*
X22177Y76474D01*
X22260Y76441D01*
X22342Y76405D01*
X22422Y76366D01*
X22500Y76323D01*
X22576Y76277D01*
X22651Y76227D01*
X22723Y76174D01*
X22792Y76118D01*
X22859Y76059D01*
X22924Y75998D01*
X22985Y75933D01*
X23044Y75866D01*
X23100Y75797D01*
X23153Y75725D01*
X23203Y75650D01*
X23249Y75574D01*
X23292Y75496D01*
X23331Y75416D01*
X23367Y75334D01*
X23400Y75251D01*
X23428Y75166D01*
X23453Y75081D01*
X23475Y74994D01*
X23492Y74906D01*
X23505Y74818D01*
X23515Y74729D01*
X23521Y74640D01*
X23523Y74551D01*
X23521Y74462D01*
X23515Y74373D01*
X23505Y74284D01*
X23492Y74196D01*
X23475Y74108D01*
X23453Y74021D01*
X23428Y73936D01*
X23400Y73851D01*
X23367Y73768D01*
X23331Y73686D01*
X23292Y73606D01*
X23249Y73528D01*
X23203Y73452D01*
X23153Y73377D01*
X23100Y73305D01*
X23044Y73236D01*
X22985Y73169D01*
X22924Y73104D01*
X22859Y73043D01*
X22792Y72984D01*
X22723Y72928D01*
X22651Y72875D01*
X22576Y72825D01*
X22500Y72779D01*
X22422Y72736D01*
X22342Y72697D01*
X22260Y72661D01*
X22177Y72628D01*
X22092Y72600D01*
X22007Y72575D01*
X21920Y72553D01*
X21832Y72536D01*
X21744Y72523D01*
X21655Y72513D01*
X21566Y72507D01*
X21477Y72505D01*
X19431Y72505D01*
X21886Y72505D02*
X23523Y69231D01*
X26695Y74960D02*
X28741Y76597D01*
X28741Y69231D01*
X26695Y69231D02*
X30787Y69231D01*
D12*
X59200Y60100D02*
X93200Y60100D01*
X93200Y17100D01*
X59200Y17100D01*
X59200Y60100D01*
D14*
X58454Y64330D02*
X58454Y69466D01*
X58454Y64330D02*
X58456Y64243D01*
X58462Y64155D01*
X58471Y64068D01*
X58485Y63982D01*
X58502Y63896D01*
X58523Y63812D01*
X58548Y63728D01*
X58577Y63645D01*
X58609Y63564D01*
X58644Y63484D01*
X58683Y63406D01*
X58726Y63329D01*
X58772Y63255D01*
X58821Y63183D01*
X58873Y63113D01*
X58929Y63045D01*
X58987Y62980D01*
X59048Y62917D01*
X59112Y62858D01*
X59179Y62801D01*
X59247Y62747D01*
X59319Y62696D01*
X59392Y62649D01*
X59467Y62604D01*
X59545Y62563D01*
X59624Y62526D01*
X59704Y62492D01*
X59786Y62462D01*
X59869Y62435D01*
X59954Y62412D01*
X60039Y62393D01*
X60125Y62378D01*
X60212Y62366D01*
X60299Y62358D01*
X60386Y62354D01*
X60474Y62354D01*
X60561Y62358D01*
X60648Y62366D01*
X60735Y62378D01*
X60821Y62393D01*
X60906Y62412D01*
X60991Y62435D01*
X61074Y62462D01*
X61156Y62492D01*
X61236Y62526D01*
X61315Y62563D01*
X61393Y62604D01*
X61468Y62649D01*
X61541Y62696D01*
X61613Y62747D01*
X61681Y62801D01*
X61748Y62858D01*
X61812Y62917D01*
X61873Y62980D01*
X61931Y63045D01*
X61987Y63113D01*
X62039Y63183D01*
X62088Y63255D01*
X62134Y63329D01*
X62177Y63406D01*
X62216Y63484D01*
X62251Y63564D01*
X62283Y63645D01*
X62312Y63728D01*
X62337Y63812D01*
X62358Y63896D01*
X62375Y63982D01*
X62389Y64068D01*
X62398Y64155D01*
X62404Y64243D01*
X62406Y64330D01*
X62405Y64330D02*
X62405Y69466D01*
X67714Y69466D02*
X67796Y69464D01*
X67878Y69458D01*
X67960Y69449D01*
X68041Y69436D01*
X68121Y69419D01*
X68201Y69398D01*
X68279Y69374D01*
X68356Y69346D01*
X68432Y69315D01*
X68507Y69280D01*
X68579Y69241D01*
X68650Y69200D01*
X68719Y69155D01*
X68785Y69107D01*
X68850Y69056D01*
X68912Y69002D01*
X68971Y68945D01*
X69028Y68886D01*
X69082Y68824D01*
X69133Y68759D01*
X69181Y68693D01*
X69226Y68624D01*
X69267Y68553D01*
X69306Y68481D01*
X69341Y68406D01*
X69372Y68330D01*
X69400Y68253D01*
X69424Y68175D01*
X69445Y68095D01*
X69462Y68015D01*
X69475Y67934D01*
X69484Y67852D01*
X69490Y67770D01*
X69492Y67688D01*
X67714Y69466D02*
X67621Y69464D01*
X67529Y69458D01*
X67437Y69449D01*
X67345Y69436D01*
X67254Y69419D01*
X67164Y69399D01*
X67074Y69375D01*
X66986Y69347D01*
X66898Y69315D01*
X66813Y69281D01*
X66728Y69242D01*
X66646Y69201D01*
X66565Y69156D01*
X66485Y69107D01*
X66408Y69056D01*
X66333Y69002D01*
X66261Y68944D01*
X66191Y68884D01*
X66123Y68820D01*
X66058Y68755D01*
X65995Y68686D01*
X65936Y68615D01*
X65879Y68542D01*
X65825Y68466D01*
X65775Y68389D01*
X65727Y68309D01*
X65683Y68228D01*
X65643Y68144D01*
X65605Y68060D01*
X65571Y67973D01*
X65541Y67886D01*
X68899Y66305D02*
X68960Y66366D01*
X69018Y66429D01*
X69073Y66495D01*
X69126Y66563D01*
X69175Y66634D01*
X69220Y66706D01*
X69263Y66781D01*
X69302Y66857D01*
X69338Y66936D01*
X69370Y67015D01*
X69398Y67096D01*
X69423Y67179D01*
X69444Y67262D01*
X69461Y67346D01*
X69475Y67431D01*
X69484Y67516D01*
X69490Y67602D01*
X69492Y67688D01*
X68899Y66305D02*
X65541Y62354D01*
X69492Y62354D01*
D11*
X192800Y154800D02*
X192800Y162300D01*
X192800Y154800D02*
X205800Y154800D01*
X205800Y106800D01*
X149800Y106800D02*
X149800Y154800D01*
X162800Y154800D01*
X162800Y162300D01*
X192800Y162300D01*
D15*
X215808Y140511D02*
X227492Y132722D01*
X227492Y140511D02*
X215808Y132722D01*
X218404Y144801D02*
X215808Y148046D01*
X227492Y148046D01*
X227492Y144801D02*
X227492Y151292D01*
D16*
X153162Y68326D02*
X153162Y61722D01*
X153162Y68326D02*
X154996Y68326D01*
X155081Y68324D01*
X155165Y68318D01*
X155249Y68308D01*
X155333Y68295D01*
X155416Y68277D01*
X155498Y68256D01*
X155579Y68231D01*
X155659Y68202D01*
X155737Y68170D01*
X155813Y68134D01*
X155888Y68094D01*
X155961Y68051D01*
X156032Y68005D01*
X156101Y67956D01*
X156168Y67903D01*
X156232Y67847D01*
X156293Y67789D01*
X156351Y67728D01*
X156407Y67664D01*
X156460Y67597D01*
X156509Y67528D01*
X156555Y67457D01*
X156598Y67384D01*
X156638Y67309D01*
X156674Y67233D01*
X156706Y67155D01*
X156735Y67075D01*
X156760Y66994D01*
X156781Y66912D01*
X156799Y66829D01*
X156812Y66745D01*
X156822Y66661D01*
X156828Y66577D01*
X156830Y66492D01*
X156831Y66492D02*
X156831Y63556D01*
X156830Y63556D02*
X156828Y63471D01*
X156822Y63387D01*
X156812Y63303D01*
X156799Y63219D01*
X156781Y63136D01*
X156760Y63054D01*
X156735Y62973D01*
X156706Y62893D01*
X156674Y62815D01*
X156638Y62739D01*
X156598Y62664D01*
X156555Y62591D01*
X156509Y62520D01*
X156460Y62451D01*
X156407Y62384D01*
X156351Y62320D01*
X156293Y62259D01*
X156232Y62201D01*
X156168Y62145D01*
X156101Y62092D01*
X156032Y62043D01*
X155961Y61997D01*
X155888Y61954D01*
X155813Y61914D01*
X155737Y61878D01*
X155659Y61846D01*
X155579Y61817D01*
X155498Y61792D01*
X155416Y61771D01*
X155333Y61753D01*
X155249Y61740D01*
X155165Y61730D01*
X155081Y61724D01*
X154996Y61722D01*
X153162Y61722D01*
X162739Y68326D02*
X162818Y68324D01*
X162896Y68319D01*
X162974Y68309D01*
X163051Y68296D01*
X163128Y68279D01*
X163204Y68259D01*
X163279Y68235D01*
X163353Y68208D01*
X163425Y68177D01*
X163496Y68142D01*
X163565Y68105D01*
X163632Y68064D01*
X163697Y68020D01*
X163760Y67973D01*
X163820Y67923D01*
X163878Y67870D01*
X163934Y67814D01*
X163987Y67756D01*
X164037Y67696D01*
X164084Y67633D01*
X164128Y67568D01*
X164169Y67501D01*
X164206Y67432D01*
X164241Y67361D01*
X164272Y67289D01*
X164299Y67215D01*
X164323Y67140D01*
X164343Y67064D01*
X164360Y66987D01*
X164373Y66910D01*
X164383Y66832D01*
X164388Y66754D01*
X164390Y66675D01*
X162739Y68326D02*
X162650Y68324D01*
X162561Y68319D01*
X162473Y68309D01*
X162385Y68296D01*
X162298Y68280D01*
X162211Y68259D01*
X162126Y68235D01*
X162041Y68208D01*
X161958Y68177D01*
X161876Y68142D01*
X161795Y68104D01*
X161716Y68063D01*
X161640Y68019D01*
X161564Y67971D01*
X161491Y67920D01*
X161421Y67867D01*
X161352Y67810D01*
X161286Y67750D01*
X161223Y67688D01*
X161162Y67623D01*
X161104Y67556D01*
X161049Y67486D01*
X160996Y67414D01*
X160947Y67340D01*
X160901Y67264D01*
X160859Y67186D01*
X160819Y67106D01*
X160783Y67025D01*
X160750Y66942D01*
X160721Y66858D01*
X163840Y65391D02*
X163896Y65447D01*
X163950Y65506D01*
X164001Y65567D01*
X164050Y65631D01*
X164095Y65696D01*
X164138Y65764D01*
X164177Y65833D01*
X164214Y65904D01*
X164247Y65977D01*
X164276Y66051D01*
X164303Y66126D01*
X164326Y66202D01*
X164345Y66280D01*
X164361Y66358D01*
X164374Y66436D01*
X164383Y66516D01*
X164388Y66595D01*
X164390Y66675D01*
X163840Y65391D02*
X160721Y61722D01*
X164390Y61722D01*
D11*
X156370Y57800D02*
X173830Y57800D01*
X173830Y43800D02*
X156370Y43800D01*
X162100Y50800D02*
X168100Y54800D01*
X168100Y46800D01*
X162100Y50800D01*
D17*
X161100Y50800D03*
D12*
X195580Y51435D02*
X195580Y40005D01*
X192405Y51435D02*
X198755Y51435D01*
X203645Y51435D02*
X203645Y40005D01*
X203645Y51435D02*
X206820Y51435D01*
X206931Y51433D01*
X207041Y51427D01*
X207152Y51418D01*
X207262Y51404D01*
X207371Y51387D01*
X207480Y51366D01*
X207588Y51341D01*
X207695Y51312D01*
X207801Y51280D01*
X207906Y51244D01*
X208009Y51204D01*
X208111Y51161D01*
X208212Y51114D01*
X208311Y51063D01*
X208408Y51010D01*
X208502Y50953D01*
X208595Y50892D01*
X208686Y50829D01*
X208775Y50762D01*
X208861Y50692D01*
X208944Y50619D01*
X209026Y50544D01*
X209104Y50466D01*
X209179Y50384D01*
X209252Y50301D01*
X209322Y50215D01*
X209389Y50126D01*
X209452Y50035D01*
X209513Y49942D01*
X209570Y49847D01*
X209623Y49751D01*
X209674Y49652D01*
X209721Y49551D01*
X209764Y49449D01*
X209804Y49346D01*
X209840Y49241D01*
X209872Y49135D01*
X209901Y49028D01*
X209926Y48920D01*
X209947Y48811D01*
X209964Y48702D01*
X209978Y48592D01*
X209987Y48481D01*
X209993Y48371D01*
X209995Y48260D01*
X209993Y48149D01*
X209987Y48039D01*
X209978Y47928D01*
X209964Y47818D01*
X209947Y47709D01*
X209926Y47600D01*
X209901Y47492D01*
X209872Y47385D01*
X209840Y47279D01*
X209804Y47174D01*
X209764Y47071D01*
X209721Y46969D01*
X209674Y46868D01*
X209623Y46769D01*
X209570Y46672D01*
X209513Y46578D01*
X209452Y46485D01*
X209389Y46394D01*
X209322Y46305D01*
X209252Y46219D01*
X209179Y46136D01*
X209104Y46054D01*
X209026Y45976D01*
X208944Y45901D01*
X208861Y45828D01*
X208775Y45758D01*
X208686Y45691D01*
X208595Y45628D01*
X208502Y45567D01*
X208407Y45510D01*
X208311Y45457D01*
X208212Y45406D01*
X208111Y45359D01*
X208009Y45316D01*
X207906Y45276D01*
X207801Y45240D01*
X207695Y45208D01*
X207588Y45179D01*
X207480Y45154D01*
X207371Y45133D01*
X207262Y45116D01*
X207152Y45102D01*
X207041Y45093D01*
X206931Y45087D01*
X206820Y45085D01*
X203645Y45085D01*
X214503Y48895D02*
X217678Y51435D01*
X217678Y40005D01*
X214503Y40005D02*
X220853Y40005D01*
X99822Y62865D02*
X99822Y74295D01*
X96647Y74295D02*
X102997Y74295D01*
X107887Y74295D02*
X107887Y62865D01*
X107887Y74295D02*
X111062Y74295D01*
X111173Y74293D01*
X111283Y74287D01*
X111394Y74278D01*
X111504Y74264D01*
X111613Y74247D01*
X111722Y74226D01*
X111830Y74201D01*
X111937Y74172D01*
X112043Y74140D01*
X112148Y74104D01*
X112251Y74064D01*
X112353Y74021D01*
X112454Y73974D01*
X112553Y73923D01*
X112650Y73870D01*
X112744Y73813D01*
X112837Y73752D01*
X112928Y73689D01*
X113017Y73622D01*
X113103Y73552D01*
X113186Y73479D01*
X113268Y73404D01*
X113346Y73326D01*
X113421Y73244D01*
X113494Y73161D01*
X113564Y73075D01*
X113631Y72986D01*
X113694Y72895D01*
X113755Y72802D01*
X113812Y72707D01*
X113865Y72611D01*
X113916Y72512D01*
X113963Y72411D01*
X114006Y72309D01*
X114046Y72206D01*
X114082Y72101D01*
X114114Y71995D01*
X114143Y71888D01*
X114168Y71780D01*
X114189Y71671D01*
X114206Y71562D01*
X114220Y71452D01*
X114229Y71341D01*
X114235Y71231D01*
X114237Y71120D01*
X114235Y71009D01*
X114229Y70899D01*
X114220Y70788D01*
X114206Y70678D01*
X114189Y70569D01*
X114168Y70460D01*
X114143Y70352D01*
X114114Y70245D01*
X114082Y70139D01*
X114046Y70034D01*
X114006Y69931D01*
X113963Y69829D01*
X113916Y69728D01*
X113865Y69629D01*
X113812Y69532D01*
X113755Y69438D01*
X113694Y69345D01*
X113631Y69254D01*
X113564Y69165D01*
X113494Y69079D01*
X113421Y68996D01*
X113346Y68914D01*
X113268Y68836D01*
X113186Y68761D01*
X113103Y68688D01*
X113017Y68618D01*
X112928Y68551D01*
X112837Y68488D01*
X112744Y68427D01*
X112649Y68370D01*
X112553Y68317D01*
X112454Y68266D01*
X112353Y68219D01*
X112251Y68176D01*
X112148Y68136D01*
X112043Y68100D01*
X111937Y68068D01*
X111830Y68039D01*
X111722Y68014D01*
X111613Y67993D01*
X111504Y67976D01*
X111394Y67962D01*
X111283Y67953D01*
X111173Y67947D01*
X111062Y67945D01*
X107887Y67945D01*
X122238Y74296D02*
X122342Y74294D01*
X122447Y74288D01*
X122551Y74279D01*
X122654Y74266D01*
X122757Y74248D01*
X122859Y74228D01*
X122961Y74203D01*
X123061Y74175D01*
X123161Y74143D01*
X123259Y74107D01*
X123356Y74068D01*
X123451Y74026D01*
X123545Y73980D01*
X123637Y73930D01*
X123727Y73878D01*
X123815Y73822D01*
X123901Y73762D01*
X123985Y73700D01*
X124066Y73635D01*
X124145Y73567D01*
X124222Y73495D01*
X124295Y73422D01*
X124367Y73345D01*
X124435Y73266D01*
X124500Y73185D01*
X124562Y73101D01*
X124622Y73015D01*
X124678Y72927D01*
X124730Y72837D01*
X124780Y72745D01*
X124826Y72651D01*
X124868Y72556D01*
X124907Y72459D01*
X124943Y72361D01*
X124975Y72261D01*
X125003Y72161D01*
X125028Y72059D01*
X125048Y71957D01*
X125066Y71854D01*
X125079Y71751D01*
X125088Y71647D01*
X125094Y71542D01*
X125096Y71438D01*
X122238Y74295D02*
X122120Y74293D01*
X122001Y74287D01*
X121883Y74278D01*
X121766Y74265D01*
X121649Y74247D01*
X121532Y74227D01*
X121416Y74202D01*
X121301Y74174D01*
X121188Y74141D01*
X121075Y74106D01*
X120963Y74066D01*
X120853Y74024D01*
X120744Y73977D01*
X120636Y73927D01*
X120531Y73874D01*
X120427Y73817D01*
X120325Y73757D01*
X120225Y73694D01*
X120127Y73627D01*
X120031Y73558D01*
X119938Y73485D01*
X119847Y73409D01*
X119758Y73331D01*
X119672Y73249D01*
X119589Y73165D01*
X119508Y73079D01*
X119431Y72989D01*
X119356Y72898D01*
X119284Y72804D01*
X119215Y72707D01*
X119150Y72609D01*
X119087Y72508D01*
X119028Y72405D01*
X118972Y72301D01*
X118920Y72195D01*
X118871Y72087D01*
X118826Y71978D01*
X118784Y71867D01*
X118746Y71755D01*
X124143Y69216D02*
X124219Y69291D01*
X124294Y69370D01*
X124365Y69451D01*
X124434Y69535D01*
X124499Y69621D01*
X124561Y69709D01*
X124621Y69799D01*
X124677Y69891D01*
X124730Y69986D01*
X124779Y70082D01*
X124825Y70180D01*
X124868Y70279D01*
X124907Y70380D01*
X124942Y70482D01*
X124974Y70585D01*
X125002Y70689D01*
X125027Y70794D01*
X125048Y70901D01*
X125065Y71007D01*
X125078Y71114D01*
X125087Y71222D01*
X125093Y71330D01*
X125095Y71438D01*
X124143Y69215D02*
X118745Y62865D01*
X125095Y62865D01*
X125095Y17780D02*
X113665Y17780D01*
X113665Y14605D02*
X113665Y20955D01*
X113665Y25845D02*
X125095Y25845D01*
X113665Y25845D02*
X113665Y29020D01*
X113667Y29131D01*
X113673Y29241D01*
X113682Y29352D01*
X113696Y29462D01*
X113713Y29571D01*
X113734Y29680D01*
X113759Y29788D01*
X113788Y29895D01*
X113820Y30001D01*
X113856Y30106D01*
X113896Y30209D01*
X113939Y30311D01*
X113986Y30412D01*
X114037Y30511D01*
X114090Y30607D01*
X114147Y30702D01*
X114208Y30795D01*
X114271Y30886D01*
X114338Y30975D01*
X114408Y31061D01*
X114481Y31144D01*
X114556Y31226D01*
X114634Y31304D01*
X114716Y31379D01*
X114799Y31452D01*
X114885Y31522D01*
X114974Y31589D01*
X115065Y31652D01*
X115158Y31713D01*
X115253Y31770D01*
X115349Y31823D01*
X115448Y31874D01*
X115549Y31921D01*
X115651Y31964D01*
X115754Y32004D01*
X115859Y32040D01*
X115965Y32072D01*
X116072Y32101D01*
X116180Y32126D01*
X116289Y32147D01*
X116398Y32164D01*
X116508Y32178D01*
X116619Y32187D01*
X116729Y32193D01*
X116840Y32195D01*
X116951Y32193D01*
X117061Y32187D01*
X117172Y32178D01*
X117282Y32164D01*
X117391Y32147D01*
X117500Y32126D01*
X117608Y32101D01*
X117715Y32072D01*
X117821Y32040D01*
X117926Y32004D01*
X118029Y31964D01*
X118131Y31921D01*
X118232Y31874D01*
X118331Y31823D01*
X118428Y31770D01*
X118522Y31713D01*
X118615Y31652D01*
X118706Y31589D01*
X118795Y31522D01*
X118881Y31452D01*
X118964Y31379D01*
X119046Y31304D01*
X119124Y31226D01*
X119199Y31144D01*
X119272Y31061D01*
X119342Y30975D01*
X119409Y30886D01*
X119472Y30795D01*
X119533Y30702D01*
X119590Y30608D01*
X119643Y30511D01*
X119694Y30412D01*
X119741Y30311D01*
X119784Y30209D01*
X119824Y30106D01*
X119860Y30001D01*
X119892Y29895D01*
X119921Y29788D01*
X119946Y29680D01*
X119967Y29571D01*
X119984Y29462D01*
X119998Y29352D01*
X120007Y29241D01*
X120013Y29131D01*
X120015Y29020D01*
X120015Y25845D01*
X125095Y36703D02*
X125095Y39878D01*
X125093Y39989D01*
X125087Y40099D01*
X125078Y40210D01*
X125064Y40320D01*
X125047Y40429D01*
X125026Y40538D01*
X125001Y40646D01*
X124972Y40753D01*
X124940Y40859D01*
X124904Y40964D01*
X124864Y41067D01*
X124821Y41169D01*
X124774Y41270D01*
X124723Y41369D01*
X124670Y41466D01*
X124613Y41560D01*
X124552Y41653D01*
X124489Y41744D01*
X124422Y41833D01*
X124352Y41919D01*
X124279Y42002D01*
X124204Y42084D01*
X124126Y42162D01*
X124044Y42237D01*
X123961Y42310D01*
X123875Y42380D01*
X123786Y42447D01*
X123695Y42510D01*
X123602Y42571D01*
X123508Y42628D01*
X123411Y42681D01*
X123312Y42732D01*
X123211Y42779D01*
X123109Y42822D01*
X123006Y42862D01*
X122901Y42898D01*
X122795Y42930D01*
X122688Y42959D01*
X122580Y42984D01*
X122471Y43005D01*
X122362Y43022D01*
X122252Y43036D01*
X122141Y43045D01*
X122031Y43051D01*
X121920Y43053D01*
X121809Y43051D01*
X121699Y43045D01*
X121588Y43036D01*
X121478Y43022D01*
X121369Y43005D01*
X121260Y42984D01*
X121152Y42959D01*
X121045Y42930D01*
X120939Y42898D01*
X120834Y42862D01*
X120731Y42822D01*
X120629Y42779D01*
X120528Y42732D01*
X120429Y42681D01*
X120333Y42628D01*
X120238Y42571D01*
X120145Y42510D01*
X120054Y42447D01*
X119965Y42380D01*
X119879Y42310D01*
X119796Y42237D01*
X119714Y42162D01*
X119636Y42084D01*
X119561Y42002D01*
X119488Y41919D01*
X119418Y41833D01*
X119351Y41744D01*
X119288Y41653D01*
X119227Y41560D01*
X119170Y41465D01*
X119117Y41369D01*
X119066Y41270D01*
X119019Y41169D01*
X118976Y41067D01*
X118936Y40964D01*
X118900Y40859D01*
X118868Y40753D01*
X118839Y40646D01*
X118814Y40538D01*
X118793Y40429D01*
X118776Y40320D01*
X118762Y40210D01*
X118753Y40099D01*
X118747Y39989D01*
X118745Y39878D01*
X113665Y40513D02*
X113665Y36703D01*
X113665Y40513D02*
X113667Y40613D01*
X113673Y40712D01*
X113683Y40812D01*
X113696Y40910D01*
X113714Y41009D01*
X113735Y41106D01*
X113760Y41202D01*
X113789Y41298D01*
X113822Y41392D01*
X113858Y41485D01*
X113898Y41576D01*
X113942Y41666D01*
X113989Y41754D01*
X114039Y41840D01*
X114093Y41924D01*
X114150Y42006D01*
X114210Y42085D01*
X114274Y42163D01*
X114340Y42237D01*
X114409Y42309D01*
X114481Y42378D01*
X114555Y42444D01*
X114633Y42508D01*
X114712Y42568D01*
X114794Y42625D01*
X114878Y42679D01*
X114964Y42729D01*
X115052Y42776D01*
X115142Y42820D01*
X115233Y42860D01*
X115326Y42896D01*
X115420Y42929D01*
X115516Y42958D01*
X115612Y42983D01*
X115709Y43004D01*
X115808Y43022D01*
X115906Y43035D01*
X116006Y43045D01*
X116105Y43051D01*
X116205Y43053D01*
X116305Y43051D01*
X116404Y43045D01*
X116504Y43035D01*
X116602Y43022D01*
X116701Y43004D01*
X116798Y42983D01*
X116894Y42958D01*
X116990Y42929D01*
X117084Y42896D01*
X117177Y42860D01*
X117268Y42820D01*
X117358Y42776D01*
X117446Y42729D01*
X117532Y42679D01*
X117616Y42625D01*
X117698Y42568D01*
X117777Y42508D01*
X117855Y42444D01*
X117929Y42378D01*
X118001Y42309D01*
X118070Y42237D01*
X118136Y42163D01*
X118200Y42085D01*
X118260Y42006D01*
X118317Y41924D01*
X118371Y41840D01*
X118421Y41754D01*
X118468Y41666D01*
X118512Y41576D01*
X118552Y41485D01*
X118588Y41392D01*
X118621Y41298D01*
X118650Y41202D01*
X118675Y41106D01*
X118696Y41009D01*
X118714Y40910D01*
X118727Y40812D01*
X118737Y40712D01*
X118743Y40613D01*
X118745Y40513D01*
X118745Y37973D01*
X208280Y90805D02*
X208280Y102235D01*
X205105Y102235D02*
X211455Y102235D01*
X216345Y102235D02*
X216345Y90805D01*
X216345Y102235D02*
X219520Y102235D01*
X219631Y102233D01*
X219741Y102227D01*
X219852Y102218D01*
X219962Y102204D01*
X220071Y102187D01*
X220180Y102166D01*
X220288Y102141D01*
X220395Y102112D01*
X220501Y102080D01*
X220606Y102044D01*
X220709Y102004D01*
X220811Y101961D01*
X220912Y101914D01*
X221011Y101863D01*
X221108Y101810D01*
X221202Y101753D01*
X221295Y101692D01*
X221386Y101629D01*
X221475Y101562D01*
X221561Y101492D01*
X221644Y101419D01*
X221726Y101344D01*
X221804Y101266D01*
X221879Y101184D01*
X221952Y101101D01*
X222022Y101015D01*
X222089Y100926D01*
X222152Y100835D01*
X222213Y100742D01*
X222270Y100647D01*
X222323Y100551D01*
X222374Y100452D01*
X222421Y100351D01*
X222464Y100249D01*
X222504Y100146D01*
X222540Y100041D01*
X222572Y99935D01*
X222601Y99828D01*
X222626Y99720D01*
X222647Y99611D01*
X222664Y99502D01*
X222678Y99392D01*
X222687Y99281D01*
X222693Y99171D01*
X222695Y99060D01*
X222693Y98949D01*
X222687Y98839D01*
X222678Y98728D01*
X222664Y98618D01*
X222647Y98509D01*
X222626Y98400D01*
X222601Y98292D01*
X222572Y98185D01*
X222540Y98079D01*
X222504Y97974D01*
X222464Y97871D01*
X222421Y97769D01*
X222374Y97668D01*
X222323Y97569D01*
X222270Y97472D01*
X222213Y97378D01*
X222152Y97285D01*
X222089Y97194D01*
X222022Y97105D01*
X221952Y97019D01*
X221879Y96936D01*
X221804Y96854D01*
X221726Y96776D01*
X221644Y96701D01*
X221561Y96628D01*
X221475Y96558D01*
X221386Y96491D01*
X221295Y96428D01*
X221202Y96367D01*
X221107Y96310D01*
X221011Y96257D01*
X220912Y96206D01*
X220811Y96159D01*
X220709Y96116D01*
X220606Y96076D01*
X220501Y96040D01*
X220395Y96008D01*
X220288Y95979D01*
X220180Y95954D01*
X220071Y95933D01*
X219962Y95916D01*
X219852Y95902D01*
X219741Y95893D01*
X219631Y95887D01*
X219520Y95885D01*
X216345Y95885D01*
X227203Y93345D02*
X229743Y102235D01*
X227203Y93345D02*
X233553Y93345D01*
X231648Y95885D02*
X231648Y90805D01*
M02*
