G04 EAGLE Gerber RS-274X export*
G75*
%MOMM*%
%FSLAX34Y34*%
%LPD*%
%INSilkscreen Top*%
%IPPOS*%
%AMOC8*
5,1,8,0,0,1.08239X$1,22.5*%
G01*
%ADD10C,0.050800*%
%ADD11C,0.203200*%
%ADD12C,0.127000*%
%ADD13C,0.025400*%
%ADD14C,0.101600*%
%ADD15R,1.000000X0.200000*%
%ADD16C,0.152400*%

G36*
X184951Y35095D02*
X184951Y35095D01*
X185023Y35095D01*
X185091Y35115D01*
X185162Y35125D01*
X185227Y35154D01*
X185296Y35174D01*
X185356Y35212D01*
X185421Y35241D01*
X185476Y35287D01*
X185536Y35325D01*
X185584Y35379D01*
X185638Y35425D01*
X185678Y35484D01*
X185725Y35538D01*
X185756Y35602D01*
X185796Y35661D01*
X185817Y35730D01*
X185848Y35794D01*
X185860Y35864D01*
X185881Y35932D01*
X185883Y36004D01*
X185895Y36075D01*
X185887Y36145D01*
X185889Y36216D01*
X185870Y36286D01*
X185862Y36357D01*
X185837Y36412D01*
X185817Y36491D01*
X185756Y36594D01*
X185725Y36663D01*
X183725Y39663D01*
X183648Y39750D01*
X183575Y39840D01*
X183553Y39855D01*
X183535Y39875D01*
X183438Y39937D01*
X183343Y40004D01*
X183317Y40012D01*
X183295Y40027D01*
X183184Y40059D01*
X183074Y40097D01*
X183047Y40098D01*
X183022Y40105D01*
X182906Y40105D01*
X182790Y40111D01*
X182764Y40105D01*
X182737Y40105D01*
X182626Y40073D01*
X182513Y40047D01*
X182490Y40034D01*
X182464Y40026D01*
X182366Y39964D01*
X182265Y39908D01*
X182249Y39890D01*
X182224Y39875D01*
X182039Y39667D01*
X182035Y39663D01*
X180035Y36663D01*
X180004Y36599D01*
X179965Y36539D01*
X179943Y36471D01*
X179912Y36407D01*
X179900Y36336D01*
X179879Y36268D01*
X179877Y36197D01*
X179865Y36127D01*
X179873Y36055D01*
X179871Y35984D01*
X179889Y35915D01*
X179898Y35844D01*
X179925Y35778D01*
X179943Y35709D01*
X179980Y35648D01*
X180007Y35582D01*
X180052Y35526D01*
X180089Y35464D01*
X180140Y35415D01*
X180185Y35360D01*
X180244Y35319D01*
X180296Y35270D01*
X180359Y35237D01*
X180417Y35196D01*
X180485Y35173D01*
X180549Y35140D01*
X180608Y35130D01*
X180686Y35103D01*
X180805Y35097D01*
X180880Y35085D01*
X184880Y35085D01*
X184951Y35095D01*
G37*
D10*
X228854Y56642D02*
X230717Y51054D01*
X232579Y56642D01*
X234834Y56642D02*
X234834Y51054D01*
X234834Y56642D02*
X236386Y56642D01*
X236462Y56640D01*
X236538Y56635D01*
X236614Y56625D01*
X236689Y56612D01*
X236763Y56595D01*
X236837Y56575D01*
X236909Y56551D01*
X236980Y56524D01*
X237050Y56493D01*
X237118Y56459D01*
X237184Y56421D01*
X237248Y56380D01*
X237311Y56337D01*
X237371Y56290D01*
X237428Y56240D01*
X237483Y56187D01*
X237536Y56132D01*
X237586Y56075D01*
X237633Y56015D01*
X237676Y55952D01*
X237717Y55888D01*
X237755Y55822D01*
X237789Y55754D01*
X237820Y55684D01*
X237847Y55613D01*
X237871Y55540D01*
X237891Y55467D01*
X237908Y55393D01*
X237921Y55318D01*
X237931Y55242D01*
X237936Y55166D01*
X237938Y55090D01*
X237938Y52606D01*
X237936Y52527D01*
X237930Y52449D01*
X237920Y52371D01*
X237906Y52294D01*
X237888Y52217D01*
X237867Y52141D01*
X237841Y52067D01*
X237812Y51994D01*
X237779Y51923D01*
X237743Y51853D01*
X237703Y51785D01*
X237660Y51719D01*
X237613Y51656D01*
X237564Y51595D01*
X237511Y51537D01*
X237455Y51481D01*
X237397Y51428D01*
X237336Y51379D01*
X237273Y51332D01*
X237207Y51289D01*
X237139Y51249D01*
X237070Y51213D01*
X236998Y51180D01*
X236925Y51151D01*
X236851Y51125D01*
X236775Y51104D01*
X236698Y51086D01*
X236621Y51072D01*
X236543Y51062D01*
X236465Y51056D01*
X236386Y51054D01*
X234834Y51054D01*
X240686Y51054D02*
X240686Y56642D01*
X242238Y56642D01*
X242314Y56640D01*
X242390Y56635D01*
X242466Y56625D01*
X242541Y56612D01*
X242615Y56595D01*
X242689Y56575D01*
X242761Y56551D01*
X242832Y56524D01*
X242902Y56493D01*
X242970Y56459D01*
X243036Y56421D01*
X243100Y56380D01*
X243163Y56337D01*
X243223Y56290D01*
X243280Y56240D01*
X243335Y56187D01*
X243388Y56132D01*
X243438Y56075D01*
X243485Y56015D01*
X243528Y55952D01*
X243569Y55888D01*
X243607Y55822D01*
X243641Y55754D01*
X243672Y55684D01*
X243699Y55613D01*
X243723Y55540D01*
X243743Y55467D01*
X243760Y55393D01*
X243773Y55318D01*
X243783Y55242D01*
X243788Y55166D01*
X243790Y55090D01*
X243790Y52606D01*
X243788Y52527D01*
X243782Y52449D01*
X243772Y52371D01*
X243758Y52294D01*
X243740Y52217D01*
X243719Y52141D01*
X243693Y52067D01*
X243664Y51994D01*
X243631Y51923D01*
X243595Y51853D01*
X243555Y51785D01*
X243512Y51719D01*
X243465Y51656D01*
X243416Y51595D01*
X243363Y51537D01*
X243307Y51481D01*
X243249Y51428D01*
X243188Y51379D01*
X243125Y51332D01*
X243059Y51289D01*
X242991Y51249D01*
X242922Y51213D01*
X242850Y51180D01*
X242777Y51151D01*
X242703Y51125D01*
X242627Y51104D01*
X242550Y51086D01*
X242473Y51072D01*
X242395Y51062D01*
X242317Y51056D01*
X242238Y51054D01*
X240686Y51054D01*
X216718Y125278D02*
X215787Y125278D01*
X216718Y125278D02*
X216718Y122174D01*
X214856Y122174D01*
X214786Y122176D01*
X214717Y122182D01*
X214648Y122192D01*
X214580Y122205D01*
X214512Y122223D01*
X214446Y122244D01*
X214381Y122269D01*
X214317Y122297D01*
X214255Y122329D01*
X214195Y122364D01*
X214137Y122403D01*
X214082Y122445D01*
X214028Y122490D01*
X213978Y122538D01*
X213930Y122588D01*
X213885Y122642D01*
X213843Y122697D01*
X213804Y122755D01*
X213769Y122815D01*
X213737Y122877D01*
X213709Y122941D01*
X213684Y123006D01*
X213663Y123072D01*
X213645Y123140D01*
X213632Y123208D01*
X213622Y123277D01*
X213616Y123346D01*
X213614Y123416D01*
X213614Y126520D01*
X213616Y126590D01*
X213622Y126659D01*
X213632Y126728D01*
X213645Y126796D01*
X213663Y126864D01*
X213684Y126930D01*
X213709Y126995D01*
X213737Y127059D01*
X213769Y127121D01*
X213804Y127181D01*
X213843Y127239D01*
X213885Y127294D01*
X213930Y127348D01*
X213978Y127398D01*
X214028Y127446D01*
X214082Y127491D01*
X214137Y127533D01*
X214195Y127572D01*
X214255Y127607D01*
X214317Y127639D01*
X214381Y127667D01*
X214446Y127692D01*
X214512Y127713D01*
X214580Y127731D01*
X214648Y127744D01*
X214717Y127754D01*
X214786Y127760D01*
X214856Y127762D01*
X216718Y127762D01*
X219466Y127762D02*
X219466Y122174D01*
X222571Y122174D02*
X219466Y127762D01*
X222571Y127762D02*
X222571Y122174D01*
X225318Y122174D02*
X225318Y127762D01*
X226870Y127762D01*
X226946Y127760D01*
X227022Y127755D01*
X227098Y127745D01*
X227173Y127732D01*
X227247Y127715D01*
X227321Y127695D01*
X227393Y127671D01*
X227464Y127644D01*
X227534Y127613D01*
X227602Y127579D01*
X227668Y127541D01*
X227732Y127500D01*
X227795Y127457D01*
X227855Y127410D01*
X227912Y127360D01*
X227967Y127307D01*
X228020Y127252D01*
X228070Y127195D01*
X228117Y127135D01*
X228160Y127072D01*
X228201Y127008D01*
X228239Y126942D01*
X228273Y126874D01*
X228304Y126804D01*
X228331Y126733D01*
X228355Y126660D01*
X228375Y126587D01*
X228392Y126513D01*
X228405Y126438D01*
X228415Y126362D01*
X228420Y126286D01*
X228422Y126210D01*
X228423Y126210D02*
X228423Y123726D01*
X228422Y123726D02*
X228420Y123647D01*
X228414Y123569D01*
X228404Y123491D01*
X228390Y123414D01*
X228372Y123337D01*
X228351Y123261D01*
X228325Y123187D01*
X228296Y123114D01*
X228263Y123043D01*
X228227Y122973D01*
X228187Y122905D01*
X228144Y122839D01*
X228097Y122776D01*
X228048Y122715D01*
X227995Y122657D01*
X227939Y122601D01*
X227881Y122548D01*
X227820Y122499D01*
X227757Y122452D01*
X227691Y122409D01*
X227623Y122369D01*
X227554Y122333D01*
X227482Y122300D01*
X227409Y122271D01*
X227335Y122245D01*
X227259Y122224D01*
X227182Y122206D01*
X227105Y122192D01*
X227027Y122182D01*
X226949Y122176D01*
X226870Y122174D01*
X225318Y122174D01*
D11*
X161860Y30640D02*
X161860Y10640D01*
X137860Y10640D01*
X137860Y30640D01*
X161860Y50640D02*
X161860Y66640D01*
X157860Y70640D01*
X141860Y70640D01*
X137860Y66640D01*
X137860Y50640D01*
D12*
X139700Y44450D02*
X160020Y44450D01*
D13*
X135923Y17060D02*
X135923Y16214D01*
X135921Y16156D01*
X135915Y16099D01*
X135905Y16042D01*
X135892Y15985D01*
X135874Y15930D01*
X135853Y15877D01*
X135828Y15824D01*
X135800Y15774D01*
X135768Y15726D01*
X135733Y15679D01*
X135695Y15636D01*
X135654Y15595D01*
X135611Y15557D01*
X135564Y15522D01*
X135516Y15490D01*
X135466Y15462D01*
X135413Y15437D01*
X135360Y15416D01*
X135305Y15398D01*
X135248Y15385D01*
X135191Y15375D01*
X135134Y15369D01*
X135076Y15367D01*
X132960Y15367D01*
X132902Y15369D01*
X132845Y15375D01*
X132788Y15385D01*
X132731Y15398D01*
X132676Y15416D01*
X132623Y15437D01*
X132570Y15462D01*
X132520Y15490D01*
X132472Y15522D01*
X132425Y15557D01*
X132382Y15595D01*
X132341Y15636D01*
X132303Y15679D01*
X132268Y15726D01*
X132236Y15774D01*
X132208Y15824D01*
X132183Y15877D01*
X132162Y15930D01*
X132144Y15985D01*
X132131Y16042D01*
X132121Y16099D01*
X132115Y16156D01*
X132113Y16214D01*
X132113Y17060D01*
X136346Y18270D02*
X136346Y19964D01*
X135923Y22409D02*
X132113Y21139D01*
X132113Y23679D02*
X135923Y22409D01*
X135923Y25130D02*
X132113Y25130D01*
X132113Y26188D01*
X132115Y26252D01*
X132121Y26316D01*
X132130Y26379D01*
X132144Y26441D01*
X132161Y26503D01*
X132182Y26563D01*
X132206Y26622D01*
X132234Y26680D01*
X132266Y26735D01*
X132300Y26789D01*
X132338Y26840D01*
X132379Y26890D01*
X132423Y26936D01*
X132469Y26980D01*
X132519Y27021D01*
X132570Y27059D01*
X132624Y27093D01*
X132679Y27125D01*
X132737Y27153D01*
X132796Y27177D01*
X132856Y27198D01*
X132918Y27215D01*
X132980Y27229D01*
X133044Y27238D01*
X133107Y27244D01*
X133171Y27246D01*
X133171Y27247D02*
X134865Y27247D01*
X134865Y27246D02*
X134929Y27244D01*
X134993Y27238D01*
X135056Y27229D01*
X135118Y27215D01*
X135180Y27198D01*
X135240Y27177D01*
X135299Y27153D01*
X135357Y27125D01*
X135412Y27093D01*
X135466Y27059D01*
X135517Y27021D01*
X135567Y26980D01*
X135613Y26936D01*
X135657Y26890D01*
X135698Y26840D01*
X135736Y26789D01*
X135770Y26735D01*
X135802Y26680D01*
X135830Y26622D01*
X135854Y26563D01*
X135875Y26503D01*
X135892Y26441D01*
X135906Y26379D01*
X135915Y26316D01*
X135921Y26252D01*
X135923Y26188D01*
X135923Y25130D01*
X135923Y29031D02*
X132113Y29031D01*
X132113Y30090D01*
X132115Y30154D01*
X132121Y30218D01*
X132130Y30281D01*
X132144Y30343D01*
X132161Y30405D01*
X132182Y30465D01*
X132206Y30524D01*
X132234Y30582D01*
X132266Y30637D01*
X132300Y30691D01*
X132338Y30742D01*
X132379Y30792D01*
X132423Y30838D01*
X132469Y30882D01*
X132519Y30923D01*
X132570Y30961D01*
X132624Y30995D01*
X132679Y31027D01*
X132737Y31055D01*
X132796Y31079D01*
X132856Y31100D01*
X132918Y31117D01*
X132980Y31131D01*
X133044Y31140D01*
X133107Y31146D01*
X133171Y31148D01*
X134865Y31148D01*
X134929Y31146D01*
X134993Y31140D01*
X135056Y31131D01*
X135118Y31117D01*
X135180Y31100D01*
X135240Y31079D01*
X135299Y31055D01*
X135357Y31027D01*
X135412Y30995D01*
X135466Y30961D01*
X135517Y30923D01*
X135567Y30882D01*
X135613Y30838D01*
X135657Y30792D01*
X135698Y30742D01*
X135736Y30691D01*
X135770Y30637D01*
X135802Y30582D01*
X135830Y30524D01*
X135854Y30465D01*
X135875Y30405D01*
X135892Y30343D01*
X135906Y30281D01*
X135915Y30218D01*
X135921Y30154D01*
X135923Y30090D01*
X135923Y29031D01*
D12*
X131300Y98200D02*
X97300Y98200D01*
X131300Y98200D02*
X131300Y55200D01*
X97300Y55200D01*
X97300Y98200D01*
D10*
X96554Y102430D02*
X96554Y107566D01*
X96554Y102430D02*
X96556Y102343D01*
X96562Y102255D01*
X96571Y102168D01*
X96585Y102082D01*
X96602Y101996D01*
X96623Y101912D01*
X96648Y101828D01*
X96677Y101745D01*
X96709Y101664D01*
X96744Y101584D01*
X96783Y101506D01*
X96826Y101429D01*
X96872Y101355D01*
X96921Y101283D01*
X96973Y101213D01*
X97029Y101145D01*
X97087Y101080D01*
X97148Y101017D01*
X97212Y100958D01*
X97279Y100901D01*
X97347Y100847D01*
X97419Y100796D01*
X97492Y100749D01*
X97567Y100704D01*
X97645Y100663D01*
X97724Y100626D01*
X97804Y100592D01*
X97886Y100562D01*
X97969Y100535D01*
X98054Y100512D01*
X98139Y100493D01*
X98225Y100478D01*
X98312Y100466D01*
X98399Y100458D01*
X98486Y100454D01*
X98574Y100454D01*
X98661Y100458D01*
X98748Y100466D01*
X98835Y100478D01*
X98921Y100493D01*
X99006Y100512D01*
X99091Y100535D01*
X99174Y100562D01*
X99256Y100592D01*
X99336Y100626D01*
X99415Y100663D01*
X99493Y100704D01*
X99568Y100749D01*
X99641Y100796D01*
X99713Y100847D01*
X99781Y100901D01*
X99848Y100958D01*
X99912Y101017D01*
X99973Y101080D01*
X100031Y101145D01*
X100087Y101213D01*
X100139Y101283D01*
X100188Y101355D01*
X100234Y101429D01*
X100277Y101506D01*
X100316Y101584D01*
X100351Y101664D01*
X100383Y101745D01*
X100412Y101828D01*
X100437Y101912D01*
X100458Y101996D01*
X100475Y102082D01*
X100489Y102168D01*
X100498Y102255D01*
X100504Y102343D01*
X100506Y102430D01*
X100505Y102430D02*
X100505Y107566D01*
X105814Y107566D02*
X105896Y107564D01*
X105978Y107558D01*
X106060Y107549D01*
X106141Y107536D01*
X106221Y107519D01*
X106301Y107498D01*
X106379Y107474D01*
X106456Y107446D01*
X106532Y107415D01*
X106607Y107380D01*
X106679Y107341D01*
X106750Y107300D01*
X106819Y107255D01*
X106885Y107207D01*
X106950Y107156D01*
X107012Y107102D01*
X107071Y107045D01*
X107128Y106986D01*
X107182Y106924D01*
X107233Y106859D01*
X107281Y106793D01*
X107326Y106724D01*
X107367Y106653D01*
X107406Y106581D01*
X107441Y106506D01*
X107472Y106430D01*
X107500Y106353D01*
X107524Y106275D01*
X107545Y106195D01*
X107562Y106115D01*
X107575Y106034D01*
X107584Y105952D01*
X107590Y105870D01*
X107592Y105788D01*
X105814Y107566D02*
X105721Y107564D01*
X105629Y107558D01*
X105537Y107549D01*
X105445Y107536D01*
X105354Y107519D01*
X105264Y107499D01*
X105174Y107475D01*
X105086Y107447D01*
X104998Y107415D01*
X104913Y107381D01*
X104828Y107342D01*
X104746Y107301D01*
X104665Y107256D01*
X104585Y107207D01*
X104508Y107156D01*
X104433Y107102D01*
X104361Y107044D01*
X104291Y106984D01*
X104223Y106920D01*
X104158Y106855D01*
X104095Y106786D01*
X104036Y106715D01*
X103979Y106642D01*
X103925Y106566D01*
X103875Y106489D01*
X103827Y106409D01*
X103783Y106328D01*
X103743Y106244D01*
X103705Y106160D01*
X103671Y106073D01*
X103641Y105986D01*
X106999Y104405D02*
X107060Y104466D01*
X107118Y104529D01*
X107173Y104595D01*
X107226Y104663D01*
X107275Y104734D01*
X107320Y104806D01*
X107363Y104881D01*
X107402Y104957D01*
X107438Y105036D01*
X107470Y105115D01*
X107498Y105196D01*
X107523Y105279D01*
X107544Y105362D01*
X107561Y105446D01*
X107575Y105531D01*
X107584Y105616D01*
X107590Y105702D01*
X107592Y105788D01*
X106999Y104405D02*
X103641Y100454D01*
X107592Y100454D01*
D11*
X256400Y73900D02*
X263900Y73900D01*
X256400Y73900D02*
X256400Y60900D01*
X208400Y60900D01*
X208400Y116900D02*
X256400Y116900D01*
X256400Y103900D01*
X263900Y103900D01*
X263900Y73900D01*
D14*
X242111Y45892D02*
X234322Y34208D01*
X242111Y34208D02*
X234322Y45892D01*
X246401Y43296D02*
X249646Y45892D01*
X249646Y34208D01*
X246401Y34208D02*
X252892Y34208D01*
D11*
X189880Y29370D02*
X189880Y46830D01*
X175880Y46830D02*
X175880Y29370D01*
X186880Y35100D02*
X182880Y41100D01*
X186880Y35100D02*
X178880Y35100D01*
X182880Y41100D01*
D15*
X182880Y42100D03*
D16*
X169926Y23570D02*
X163322Y23570D01*
X163322Y25405D01*
X163324Y25490D01*
X163330Y25574D01*
X163340Y25658D01*
X163353Y25742D01*
X163371Y25825D01*
X163392Y25907D01*
X163417Y25988D01*
X163446Y26068D01*
X163478Y26146D01*
X163514Y26222D01*
X163554Y26297D01*
X163597Y26370D01*
X163643Y26441D01*
X163692Y26510D01*
X163745Y26577D01*
X163801Y26641D01*
X163859Y26702D01*
X163920Y26760D01*
X163984Y26816D01*
X164051Y26869D01*
X164120Y26918D01*
X164191Y26964D01*
X164264Y27007D01*
X164339Y27047D01*
X164415Y27083D01*
X164494Y27115D01*
X164573Y27144D01*
X164654Y27169D01*
X164736Y27190D01*
X164819Y27208D01*
X164903Y27221D01*
X164987Y27231D01*
X165071Y27237D01*
X165156Y27239D01*
X168092Y27239D01*
X168177Y27237D01*
X168261Y27231D01*
X168345Y27221D01*
X168429Y27208D01*
X168512Y27190D01*
X168594Y27169D01*
X168675Y27144D01*
X168755Y27115D01*
X168833Y27083D01*
X168909Y27047D01*
X168984Y27007D01*
X169057Y26964D01*
X169128Y26918D01*
X169197Y26869D01*
X169264Y26816D01*
X169328Y26760D01*
X169389Y26702D01*
X169447Y26641D01*
X169503Y26577D01*
X169556Y26510D01*
X169605Y26441D01*
X169651Y26370D01*
X169694Y26297D01*
X169734Y26222D01*
X169770Y26146D01*
X169802Y26068D01*
X169831Y25988D01*
X169856Y25907D01*
X169877Y25825D01*
X169895Y25742D01*
X169908Y25658D01*
X169918Y25574D01*
X169924Y25490D01*
X169926Y25405D01*
X169926Y23570D01*
X163322Y33147D02*
X163324Y33226D01*
X163329Y33304D01*
X163339Y33382D01*
X163352Y33459D01*
X163369Y33536D01*
X163389Y33612D01*
X163413Y33687D01*
X163440Y33761D01*
X163471Y33833D01*
X163506Y33904D01*
X163543Y33973D01*
X163584Y34040D01*
X163628Y34105D01*
X163675Y34168D01*
X163725Y34228D01*
X163778Y34286D01*
X163834Y34342D01*
X163892Y34395D01*
X163952Y34445D01*
X164015Y34492D01*
X164080Y34536D01*
X164148Y34577D01*
X164216Y34614D01*
X164287Y34649D01*
X164359Y34680D01*
X164433Y34707D01*
X164508Y34731D01*
X164584Y34751D01*
X164661Y34768D01*
X164738Y34781D01*
X164816Y34791D01*
X164894Y34796D01*
X164973Y34798D01*
X163322Y33147D02*
X163324Y33058D01*
X163329Y32969D01*
X163339Y32881D01*
X163352Y32793D01*
X163368Y32706D01*
X163389Y32619D01*
X163413Y32534D01*
X163440Y32449D01*
X163471Y32366D01*
X163506Y32284D01*
X163544Y32203D01*
X163585Y32124D01*
X163629Y32048D01*
X163677Y31972D01*
X163728Y31899D01*
X163781Y31829D01*
X163838Y31760D01*
X163898Y31694D01*
X163960Y31631D01*
X164025Y31570D01*
X164092Y31512D01*
X164162Y31457D01*
X164234Y31404D01*
X164308Y31355D01*
X164384Y31309D01*
X164462Y31267D01*
X164542Y31227D01*
X164623Y31191D01*
X164706Y31158D01*
X164790Y31129D01*
X166257Y34248D02*
X166201Y34304D01*
X166142Y34358D01*
X166081Y34409D01*
X166017Y34458D01*
X165952Y34503D01*
X165884Y34546D01*
X165815Y34585D01*
X165744Y34622D01*
X165671Y34655D01*
X165597Y34684D01*
X165522Y34711D01*
X165446Y34734D01*
X165368Y34753D01*
X165290Y34769D01*
X165212Y34782D01*
X165132Y34791D01*
X165053Y34796D01*
X164973Y34798D01*
X166257Y34248D02*
X169926Y31129D01*
X169926Y34798D01*
D12*
X191295Y22065D02*
X202725Y22065D01*
X191295Y22065D02*
X191295Y25240D01*
X191297Y25351D01*
X191303Y25461D01*
X191312Y25572D01*
X191326Y25682D01*
X191343Y25791D01*
X191364Y25900D01*
X191389Y26008D01*
X191418Y26115D01*
X191450Y26221D01*
X191486Y26326D01*
X191526Y26429D01*
X191569Y26531D01*
X191616Y26632D01*
X191667Y26731D01*
X191720Y26827D01*
X191777Y26922D01*
X191838Y27015D01*
X191901Y27106D01*
X191968Y27195D01*
X192038Y27281D01*
X192111Y27364D01*
X192186Y27446D01*
X192264Y27524D01*
X192346Y27599D01*
X192429Y27672D01*
X192515Y27742D01*
X192604Y27809D01*
X192695Y27872D01*
X192788Y27933D01*
X192883Y27990D01*
X192979Y28043D01*
X193078Y28094D01*
X193179Y28141D01*
X193281Y28184D01*
X193384Y28224D01*
X193489Y28260D01*
X193595Y28292D01*
X193702Y28321D01*
X193810Y28346D01*
X193919Y28367D01*
X194028Y28384D01*
X194138Y28398D01*
X194249Y28407D01*
X194359Y28413D01*
X194470Y28415D01*
X194581Y28413D01*
X194691Y28407D01*
X194802Y28398D01*
X194912Y28384D01*
X195021Y28367D01*
X195130Y28346D01*
X195238Y28321D01*
X195345Y28292D01*
X195451Y28260D01*
X195556Y28224D01*
X195659Y28184D01*
X195761Y28141D01*
X195862Y28094D01*
X195961Y28043D01*
X196058Y27990D01*
X196152Y27933D01*
X196245Y27872D01*
X196336Y27809D01*
X196425Y27742D01*
X196511Y27672D01*
X196594Y27599D01*
X196676Y27524D01*
X196754Y27446D01*
X196829Y27364D01*
X196902Y27281D01*
X196972Y27195D01*
X197039Y27106D01*
X197102Y27015D01*
X197163Y26922D01*
X197220Y26828D01*
X197273Y26731D01*
X197324Y26632D01*
X197371Y26531D01*
X197414Y26429D01*
X197454Y26326D01*
X197490Y26221D01*
X197522Y26115D01*
X197551Y26008D01*
X197576Y25900D01*
X197597Y25791D01*
X197614Y25682D01*
X197628Y25572D01*
X197637Y25461D01*
X197643Y25351D01*
X197645Y25240D01*
X197645Y22065D01*
X193835Y32924D02*
X191295Y36099D01*
X202725Y36099D01*
X202725Y32924D02*
X202725Y39274D01*
X205105Y136525D02*
X193675Y136525D01*
X193675Y139700D01*
X193677Y139811D01*
X193683Y139921D01*
X193692Y140032D01*
X193706Y140142D01*
X193723Y140251D01*
X193744Y140360D01*
X193769Y140468D01*
X193798Y140575D01*
X193830Y140681D01*
X193866Y140786D01*
X193906Y140889D01*
X193949Y140991D01*
X193996Y141092D01*
X194047Y141191D01*
X194100Y141288D01*
X194157Y141382D01*
X194218Y141475D01*
X194281Y141566D01*
X194348Y141655D01*
X194418Y141741D01*
X194491Y141824D01*
X194566Y141906D01*
X194644Y141984D01*
X194726Y142059D01*
X194809Y142132D01*
X194895Y142202D01*
X194984Y142269D01*
X195075Y142332D01*
X195168Y142393D01*
X195263Y142450D01*
X195359Y142503D01*
X195458Y142554D01*
X195559Y142601D01*
X195661Y142644D01*
X195764Y142684D01*
X195869Y142720D01*
X195975Y142752D01*
X196082Y142781D01*
X196190Y142806D01*
X196299Y142827D01*
X196408Y142844D01*
X196518Y142858D01*
X196629Y142867D01*
X196739Y142873D01*
X196850Y142875D01*
X196961Y142873D01*
X197071Y142867D01*
X197182Y142858D01*
X197292Y142844D01*
X197401Y142827D01*
X197510Y142806D01*
X197618Y142781D01*
X197725Y142752D01*
X197831Y142720D01*
X197936Y142684D01*
X198039Y142644D01*
X198141Y142601D01*
X198242Y142554D01*
X198341Y142503D01*
X198438Y142450D01*
X198532Y142393D01*
X198625Y142332D01*
X198716Y142269D01*
X198805Y142202D01*
X198891Y142132D01*
X198974Y142059D01*
X199056Y141984D01*
X199134Y141906D01*
X199209Y141824D01*
X199282Y141741D01*
X199352Y141655D01*
X199419Y141566D01*
X199482Y141475D01*
X199543Y141382D01*
X199600Y141288D01*
X199653Y141191D01*
X199704Y141092D01*
X199751Y140991D01*
X199794Y140889D01*
X199834Y140786D01*
X199870Y140681D01*
X199902Y140575D01*
X199931Y140468D01*
X199956Y140360D01*
X199977Y140251D01*
X199994Y140142D01*
X200008Y140032D01*
X200017Y139921D01*
X200023Y139811D01*
X200025Y139700D01*
X200025Y136525D01*
X193675Y150876D02*
X193677Y150980D01*
X193683Y151085D01*
X193692Y151189D01*
X193705Y151292D01*
X193723Y151395D01*
X193743Y151497D01*
X193768Y151599D01*
X193796Y151699D01*
X193828Y151799D01*
X193864Y151897D01*
X193903Y151994D01*
X193945Y152089D01*
X193991Y152183D01*
X194041Y152275D01*
X194093Y152365D01*
X194149Y152453D01*
X194209Y152539D01*
X194271Y152623D01*
X194336Y152704D01*
X194404Y152783D01*
X194476Y152860D01*
X194549Y152933D01*
X194626Y153005D01*
X194705Y153073D01*
X194786Y153138D01*
X194870Y153200D01*
X194956Y153260D01*
X195044Y153316D01*
X195134Y153368D01*
X195226Y153418D01*
X195320Y153464D01*
X195415Y153506D01*
X195512Y153545D01*
X195610Y153581D01*
X195710Y153613D01*
X195810Y153641D01*
X195912Y153666D01*
X196014Y153686D01*
X196117Y153704D01*
X196220Y153717D01*
X196324Y153726D01*
X196429Y153732D01*
X196533Y153734D01*
X193675Y150876D02*
X193677Y150758D01*
X193683Y150639D01*
X193692Y150521D01*
X193705Y150404D01*
X193723Y150287D01*
X193743Y150170D01*
X193768Y150054D01*
X193796Y149939D01*
X193829Y149826D01*
X193864Y149713D01*
X193904Y149601D01*
X193946Y149491D01*
X193993Y149382D01*
X194043Y149274D01*
X194096Y149169D01*
X194153Y149065D01*
X194213Y148963D01*
X194276Y148863D01*
X194343Y148765D01*
X194412Y148669D01*
X194485Y148576D01*
X194561Y148485D01*
X194639Y148396D01*
X194721Y148310D01*
X194805Y148227D01*
X194891Y148146D01*
X194981Y148069D01*
X195072Y147994D01*
X195166Y147922D01*
X195263Y147853D01*
X195361Y147788D01*
X195462Y147725D01*
X195565Y147666D01*
X195669Y147610D01*
X195775Y147558D01*
X195883Y147509D01*
X195992Y147464D01*
X196103Y147422D01*
X196215Y147384D01*
X198755Y152781D02*
X198680Y152857D01*
X198601Y152932D01*
X198520Y153003D01*
X198436Y153072D01*
X198350Y153137D01*
X198262Y153199D01*
X198172Y153259D01*
X198080Y153315D01*
X197985Y153368D01*
X197889Y153417D01*
X197791Y153463D01*
X197692Y153506D01*
X197591Y153545D01*
X197489Y153580D01*
X197386Y153612D01*
X197282Y153640D01*
X197177Y153665D01*
X197070Y153686D01*
X196964Y153703D01*
X196857Y153716D01*
X196749Y153725D01*
X196641Y153731D01*
X196533Y153733D01*
X198755Y152781D02*
X205105Y147384D01*
X205105Y153734D01*
X21925Y64705D02*
X10495Y64705D01*
X10495Y67880D01*
X10497Y67991D01*
X10503Y68101D01*
X10512Y68212D01*
X10526Y68322D01*
X10543Y68431D01*
X10564Y68540D01*
X10589Y68648D01*
X10618Y68755D01*
X10650Y68861D01*
X10686Y68966D01*
X10726Y69069D01*
X10769Y69171D01*
X10816Y69272D01*
X10867Y69371D01*
X10920Y69467D01*
X10977Y69562D01*
X11038Y69655D01*
X11101Y69746D01*
X11168Y69835D01*
X11238Y69921D01*
X11311Y70004D01*
X11386Y70086D01*
X11464Y70164D01*
X11546Y70239D01*
X11629Y70312D01*
X11715Y70382D01*
X11804Y70449D01*
X11895Y70512D01*
X11988Y70573D01*
X12082Y70630D01*
X12179Y70683D01*
X12278Y70734D01*
X12379Y70781D01*
X12481Y70824D01*
X12584Y70864D01*
X12689Y70900D01*
X12795Y70932D01*
X12902Y70961D01*
X13010Y70986D01*
X13119Y71007D01*
X13228Y71024D01*
X13338Y71038D01*
X13449Y71047D01*
X13559Y71053D01*
X13670Y71055D01*
X13781Y71053D01*
X13891Y71047D01*
X14002Y71038D01*
X14112Y71024D01*
X14221Y71007D01*
X14330Y70986D01*
X14438Y70961D01*
X14545Y70932D01*
X14651Y70900D01*
X14756Y70864D01*
X14859Y70824D01*
X14961Y70781D01*
X15062Y70734D01*
X15161Y70683D01*
X15257Y70630D01*
X15352Y70573D01*
X15445Y70512D01*
X15536Y70449D01*
X15625Y70382D01*
X15711Y70312D01*
X15794Y70239D01*
X15876Y70164D01*
X15954Y70086D01*
X16029Y70004D01*
X16102Y69921D01*
X16172Y69835D01*
X16239Y69746D01*
X16302Y69655D01*
X16363Y69562D01*
X16420Y69468D01*
X16473Y69371D01*
X16524Y69272D01*
X16571Y69171D01*
X16614Y69069D01*
X16654Y68966D01*
X16690Y68861D01*
X16722Y68755D01*
X16751Y68648D01*
X16776Y68540D01*
X16797Y68431D01*
X16814Y68322D01*
X16828Y68212D01*
X16837Y68101D01*
X16843Y67991D01*
X16845Y67880D01*
X16845Y64705D01*
X21925Y75564D02*
X21925Y78739D01*
X21923Y78850D01*
X21917Y78960D01*
X21908Y79071D01*
X21894Y79181D01*
X21877Y79290D01*
X21856Y79399D01*
X21831Y79507D01*
X21802Y79614D01*
X21770Y79720D01*
X21734Y79825D01*
X21694Y79928D01*
X21651Y80030D01*
X21604Y80131D01*
X21553Y80230D01*
X21500Y80327D01*
X21443Y80421D01*
X21382Y80514D01*
X21319Y80605D01*
X21252Y80694D01*
X21182Y80780D01*
X21109Y80863D01*
X21034Y80945D01*
X20956Y81023D01*
X20874Y81098D01*
X20791Y81171D01*
X20705Y81241D01*
X20616Y81308D01*
X20525Y81371D01*
X20432Y81432D01*
X20338Y81489D01*
X20241Y81542D01*
X20142Y81593D01*
X20041Y81640D01*
X19939Y81683D01*
X19836Y81723D01*
X19731Y81759D01*
X19625Y81791D01*
X19518Y81820D01*
X19410Y81845D01*
X19301Y81866D01*
X19192Y81883D01*
X19082Y81897D01*
X18971Y81906D01*
X18861Y81912D01*
X18750Y81914D01*
X18639Y81912D01*
X18529Y81906D01*
X18418Y81897D01*
X18308Y81883D01*
X18199Y81866D01*
X18090Y81845D01*
X17982Y81820D01*
X17875Y81791D01*
X17769Y81759D01*
X17664Y81723D01*
X17561Y81683D01*
X17459Y81640D01*
X17358Y81593D01*
X17259Y81542D01*
X17162Y81489D01*
X17068Y81432D01*
X16975Y81371D01*
X16884Y81308D01*
X16795Y81241D01*
X16709Y81171D01*
X16626Y81098D01*
X16544Y81023D01*
X16466Y80945D01*
X16391Y80863D01*
X16318Y80780D01*
X16248Y80694D01*
X16181Y80605D01*
X16118Y80514D01*
X16057Y80421D01*
X16000Y80326D01*
X15947Y80230D01*
X15896Y80131D01*
X15849Y80030D01*
X15806Y79928D01*
X15766Y79825D01*
X15730Y79720D01*
X15698Y79614D01*
X15669Y79507D01*
X15644Y79399D01*
X15623Y79290D01*
X15606Y79181D01*
X15592Y79071D01*
X15583Y78960D01*
X15577Y78850D01*
X15575Y78739D01*
X10495Y79374D02*
X10495Y75564D01*
X10495Y79374D02*
X10497Y79474D01*
X10503Y79573D01*
X10513Y79673D01*
X10526Y79771D01*
X10544Y79870D01*
X10565Y79967D01*
X10590Y80063D01*
X10619Y80159D01*
X10652Y80253D01*
X10688Y80346D01*
X10728Y80437D01*
X10772Y80527D01*
X10819Y80615D01*
X10869Y80701D01*
X10923Y80785D01*
X10980Y80867D01*
X11040Y80946D01*
X11104Y81024D01*
X11170Y81098D01*
X11239Y81170D01*
X11311Y81239D01*
X11385Y81305D01*
X11463Y81369D01*
X11542Y81429D01*
X11624Y81486D01*
X11708Y81540D01*
X11794Y81590D01*
X11882Y81637D01*
X11972Y81681D01*
X12063Y81721D01*
X12156Y81757D01*
X12250Y81790D01*
X12346Y81819D01*
X12442Y81844D01*
X12539Y81865D01*
X12638Y81883D01*
X12736Y81896D01*
X12836Y81906D01*
X12935Y81912D01*
X13035Y81914D01*
X13135Y81912D01*
X13234Y81906D01*
X13334Y81896D01*
X13432Y81883D01*
X13531Y81865D01*
X13628Y81844D01*
X13724Y81819D01*
X13820Y81790D01*
X13914Y81757D01*
X14007Y81721D01*
X14098Y81681D01*
X14188Y81637D01*
X14276Y81590D01*
X14362Y81540D01*
X14446Y81486D01*
X14528Y81429D01*
X14607Y81369D01*
X14685Y81305D01*
X14759Y81239D01*
X14831Y81170D01*
X14900Y81098D01*
X14966Y81024D01*
X15030Y80946D01*
X15090Y80867D01*
X15147Y80785D01*
X15201Y80701D01*
X15251Y80615D01*
X15298Y80527D01*
X15342Y80437D01*
X15382Y80346D01*
X15418Y80253D01*
X15451Y80159D01*
X15480Y80063D01*
X15505Y79967D01*
X15526Y79870D01*
X15544Y79771D01*
X15557Y79673D01*
X15567Y79573D01*
X15573Y79474D01*
X15575Y79374D01*
X15575Y76834D01*
X112395Y133287D02*
X123825Y133287D01*
X112395Y133287D02*
X112395Y136462D01*
X112397Y136573D01*
X112403Y136683D01*
X112412Y136794D01*
X112426Y136904D01*
X112443Y137013D01*
X112464Y137122D01*
X112489Y137230D01*
X112518Y137337D01*
X112550Y137443D01*
X112586Y137548D01*
X112626Y137651D01*
X112669Y137753D01*
X112716Y137854D01*
X112767Y137953D01*
X112820Y138050D01*
X112877Y138144D01*
X112938Y138237D01*
X113001Y138328D01*
X113068Y138417D01*
X113138Y138503D01*
X113211Y138586D01*
X113286Y138668D01*
X113364Y138746D01*
X113446Y138821D01*
X113529Y138894D01*
X113615Y138964D01*
X113704Y139031D01*
X113795Y139094D01*
X113888Y139155D01*
X113983Y139212D01*
X114079Y139265D01*
X114178Y139316D01*
X114279Y139363D01*
X114381Y139406D01*
X114484Y139446D01*
X114589Y139482D01*
X114695Y139514D01*
X114802Y139543D01*
X114910Y139568D01*
X115019Y139589D01*
X115128Y139606D01*
X115238Y139620D01*
X115349Y139629D01*
X115459Y139635D01*
X115570Y139637D01*
X115681Y139635D01*
X115791Y139629D01*
X115902Y139620D01*
X116012Y139606D01*
X116121Y139589D01*
X116230Y139568D01*
X116338Y139543D01*
X116445Y139514D01*
X116551Y139482D01*
X116656Y139446D01*
X116759Y139406D01*
X116861Y139363D01*
X116962Y139316D01*
X117061Y139265D01*
X117158Y139212D01*
X117252Y139155D01*
X117345Y139094D01*
X117436Y139031D01*
X117525Y138964D01*
X117611Y138894D01*
X117694Y138821D01*
X117776Y138746D01*
X117854Y138668D01*
X117929Y138586D01*
X118002Y138503D01*
X118072Y138417D01*
X118139Y138328D01*
X118202Y138237D01*
X118263Y138144D01*
X118320Y138050D01*
X118373Y137953D01*
X118424Y137854D01*
X118471Y137753D01*
X118514Y137651D01*
X118554Y137548D01*
X118590Y137443D01*
X118622Y137337D01*
X118651Y137230D01*
X118676Y137122D01*
X118697Y137013D01*
X118714Y136904D01*
X118728Y136794D01*
X118737Y136683D01*
X118743Y136573D01*
X118745Y136462D01*
X118745Y133287D01*
X121285Y144145D02*
X112395Y146685D01*
X121285Y144145D02*
X121285Y150495D01*
X118745Y148590D02*
X123825Y148590D01*
D14*
X68792Y61158D02*
X57108Y61158D01*
X57108Y64404D01*
X57110Y64517D01*
X57116Y64630D01*
X57126Y64743D01*
X57140Y64856D01*
X57157Y64968D01*
X57179Y65079D01*
X57204Y65189D01*
X57234Y65299D01*
X57267Y65407D01*
X57304Y65514D01*
X57344Y65620D01*
X57389Y65724D01*
X57437Y65827D01*
X57488Y65928D01*
X57543Y66027D01*
X57601Y66124D01*
X57663Y66219D01*
X57728Y66312D01*
X57796Y66402D01*
X57867Y66490D01*
X57942Y66576D01*
X58019Y66659D01*
X58099Y66739D01*
X58182Y66816D01*
X58268Y66891D01*
X58356Y66962D01*
X58446Y67030D01*
X58539Y67095D01*
X58634Y67157D01*
X58731Y67215D01*
X58830Y67270D01*
X58931Y67321D01*
X59034Y67369D01*
X59138Y67414D01*
X59244Y67454D01*
X59351Y67491D01*
X59459Y67524D01*
X59569Y67554D01*
X59679Y67579D01*
X59790Y67601D01*
X59902Y67618D01*
X60015Y67632D01*
X60128Y67642D01*
X60241Y67648D01*
X60354Y67650D01*
X60467Y67648D01*
X60580Y67642D01*
X60693Y67632D01*
X60806Y67618D01*
X60918Y67601D01*
X61029Y67579D01*
X61139Y67554D01*
X61249Y67524D01*
X61357Y67491D01*
X61464Y67454D01*
X61570Y67414D01*
X61674Y67369D01*
X61777Y67321D01*
X61878Y67270D01*
X61977Y67215D01*
X62074Y67157D01*
X62169Y67095D01*
X62262Y67030D01*
X62352Y66962D01*
X62440Y66891D01*
X62526Y66816D01*
X62609Y66739D01*
X62689Y66659D01*
X62766Y66576D01*
X62841Y66490D01*
X62912Y66402D01*
X62980Y66312D01*
X63045Y66219D01*
X63107Y66124D01*
X63165Y66027D01*
X63220Y65928D01*
X63271Y65827D01*
X63319Y65724D01*
X63364Y65620D01*
X63404Y65514D01*
X63441Y65407D01*
X63474Y65299D01*
X63504Y65189D01*
X63529Y65079D01*
X63551Y64968D01*
X63568Y64856D01*
X63582Y64743D01*
X63592Y64630D01*
X63598Y64517D01*
X63600Y64404D01*
X63599Y64404D02*
X63599Y61158D01*
X63599Y65053D02*
X68792Y67649D01*
X59704Y72514D02*
X57108Y75760D01*
X68792Y75760D01*
X68792Y79005D02*
X68792Y72514D01*
D11*
X60000Y18000D02*
X40000Y18000D01*
X40000Y42000D01*
X60000Y42000D01*
X80000Y18000D02*
X96000Y18000D01*
X100000Y22000D01*
X100000Y38000D01*
X96000Y42000D01*
X80000Y42000D01*
D12*
X73810Y40160D02*
X73810Y19840D01*
D13*
X46420Y43937D02*
X45574Y43937D01*
X45519Y43939D01*
X45463Y43944D01*
X45409Y43953D01*
X45355Y43966D01*
X45302Y43982D01*
X45250Y44001D01*
X45199Y44024D01*
X45151Y44050D01*
X45103Y44080D01*
X45058Y44112D01*
X45016Y44147D01*
X44975Y44185D01*
X44937Y44226D01*
X44902Y44268D01*
X44870Y44313D01*
X44840Y44361D01*
X44814Y44409D01*
X44791Y44460D01*
X44772Y44512D01*
X44756Y44565D01*
X44743Y44619D01*
X44734Y44673D01*
X44729Y44729D01*
X44727Y44784D01*
X44727Y46900D01*
X44729Y46958D01*
X44735Y47015D01*
X44745Y47072D01*
X44758Y47129D01*
X44776Y47184D01*
X44797Y47237D01*
X44822Y47290D01*
X44850Y47340D01*
X44882Y47388D01*
X44917Y47435D01*
X44955Y47478D01*
X44996Y47519D01*
X45039Y47557D01*
X45086Y47592D01*
X45134Y47624D01*
X45184Y47652D01*
X45237Y47677D01*
X45290Y47698D01*
X45345Y47716D01*
X45402Y47729D01*
X45459Y47739D01*
X45516Y47745D01*
X45574Y47747D01*
X46420Y47747D01*
X47784Y46900D02*
X48843Y47747D01*
X48843Y43937D01*
X49901Y43937D02*
X47784Y43937D01*
D11*
X130000Y132000D02*
X150000Y132000D01*
X150000Y108000D01*
X130000Y108000D01*
X110000Y132000D02*
X94000Y132000D01*
X90000Y128000D01*
X90000Y112000D01*
X94000Y108000D01*
X110000Y108000D01*
D12*
X116190Y109840D02*
X116190Y130160D01*
D13*
X122218Y106063D02*
X122218Y102253D01*
X123488Y103946D02*
X122218Y106063D01*
X123488Y103946D02*
X124758Y106063D01*
X124758Y102253D01*
X126780Y102253D02*
X126780Y106063D01*
X126357Y102253D02*
X127204Y102253D01*
X127204Y106063D02*
X126357Y106063D01*
X129485Y102253D02*
X130332Y102253D01*
X129485Y102253D02*
X129430Y102255D01*
X129374Y102260D01*
X129320Y102269D01*
X129266Y102282D01*
X129213Y102298D01*
X129161Y102317D01*
X129110Y102340D01*
X129062Y102366D01*
X129014Y102396D01*
X128969Y102428D01*
X128927Y102463D01*
X128886Y102501D01*
X128848Y102542D01*
X128813Y102584D01*
X128781Y102629D01*
X128751Y102677D01*
X128725Y102725D01*
X128702Y102776D01*
X128683Y102828D01*
X128667Y102881D01*
X128654Y102935D01*
X128645Y102989D01*
X128640Y103045D01*
X128638Y103100D01*
X128639Y103100D02*
X128639Y105216D01*
X128638Y105216D02*
X128640Y105274D01*
X128646Y105331D01*
X128656Y105388D01*
X128669Y105445D01*
X128687Y105500D01*
X128708Y105553D01*
X128733Y105606D01*
X128761Y105656D01*
X128793Y105704D01*
X128828Y105751D01*
X128866Y105794D01*
X128907Y105835D01*
X128950Y105873D01*
X128997Y105908D01*
X129045Y105940D01*
X129095Y105968D01*
X129148Y105993D01*
X129201Y106014D01*
X129256Y106032D01*
X129313Y106045D01*
X129370Y106055D01*
X129427Y106061D01*
X129485Y106063D01*
X130332Y106063D01*
X131728Y103735D02*
X134268Y103735D01*
X135841Y103311D02*
X135841Y105005D01*
X135842Y105005D02*
X135844Y105069D01*
X135850Y105133D01*
X135859Y105196D01*
X135873Y105258D01*
X135890Y105320D01*
X135911Y105380D01*
X135935Y105439D01*
X135963Y105497D01*
X135995Y105552D01*
X136029Y105606D01*
X136067Y105657D01*
X136108Y105707D01*
X136152Y105753D01*
X136198Y105797D01*
X136248Y105838D01*
X136299Y105876D01*
X136353Y105910D01*
X136408Y105942D01*
X136466Y105970D01*
X136525Y105994D01*
X136585Y106015D01*
X136647Y106032D01*
X136709Y106046D01*
X136772Y106055D01*
X136836Y106061D01*
X136900Y106063D01*
X136964Y106061D01*
X137028Y106055D01*
X137091Y106046D01*
X137153Y106032D01*
X137215Y106015D01*
X137275Y105994D01*
X137334Y105970D01*
X137392Y105942D01*
X137447Y105910D01*
X137501Y105876D01*
X137552Y105838D01*
X137602Y105797D01*
X137648Y105753D01*
X137692Y105707D01*
X137733Y105657D01*
X137771Y105606D01*
X137805Y105552D01*
X137837Y105497D01*
X137865Y105439D01*
X137889Y105380D01*
X137910Y105320D01*
X137927Y105258D01*
X137941Y105196D01*
X137950Y105133D01*
X137956Y105069D01*
X137958Y105005D01*
X137958Y103311D01*
X137956Y103247D01*
X137950Y103183D01*
X137941Y103120D01*
X137927Y103058D01*
X137910Y102996D01*
X137889Y102936D01*
X137865Y102877D01*
X137837Y102819D01*
X137805Y102764D01*
X137771Y102710D01*
X137733Y102659D01*
X137692Y102609D01*
X137648Y102563D01*
X137602Y102519D01*
X137552Y102478D01*
X137501Y102440D01*
X137447Y102406D01*
X137392Y102374D01*
X137334Y102346D01*
X137275Y102322D01*
X137215Y102301D01*
X137153Y102284D01*
X137091Y102270D01*
X137028Y102261D01*
X136964Y102255D01*
X136900Y102253D01*
X136836Y102255D01*
X136772Y102261D01*
X136709Y102270D01*
X136647Y102284D01*
X136585Y102301D01*
X136525Y102322D01*
X136466Y102346D01*
X136408Y102374D01*
X136353Y102406D01*
X136299Y102440D01*
X136248Y102478D01*
X136198Y102519D01*
X136152Y102563D01*
X136108Y102609D01*
X136067Y102659D01*
X136029Y102710D01*
X135995Y102764D01*
X135963Y102819D01*
X135935Y102877D01*
X135911Y102936D01*
X135890Y102996D01*
X135873Y103058D01*
X135859Y103120D01*
X135850Y103183D01*
X135844Y103247D01*
X135842Y103311D01*
X139621Y103311D02*
X139621Y106063D01*
X139621Y103311D02*
X139623Y103247D01*
X139629Y103183D01*
X139638Y103120D01*
X139652Y103058D01*
X139669Y102996D01*
X139690Y102936D01*
X139714Y102877D01*
X139742Y102819D01*
X139774Y102764D01*
X139808Y102710D01*
X139846Y102659D01*
X139887Y102609D01*
X139931Y102563D01*
X139977Y102519D01*
X140027Y102478D01*
X140078Y102440D01*
X140132Y102406D01*
X140187Y102374D01*
X140245Y102346D01*
X140304Y102322D01*
X140364Y102301D01*
X140426Y102284D01*
X140488Y102270D01*
X140551Y102261D01*
X140615Y102255D01*
X140679Y102253D01*
X140743Y102255D01*
X140807Y102261D01*
X140870Y102270D01*
X140932Y102284D01*
X140994Y102301D01*
X141054Y102322D01*
X141113Y102346D01*
X141171Y102374D01*
X141226Y102406D01*
X141280Y102440D01*
X141331Y102478D01*
X141381Y102519D01*
X141427Y102563D01*
X141471Y102609D01*
X141512Y102659D01*
X141550Y102710D01*
X141584Y102764D01*
X141616Y102819D01*
X141644Y102877D01*
X141668Y102936D01*
X141689Y102996D01*
X141706Y103058D01*
X141720Y103120D01*
X141729Y103183D01*
X141735Y103247D01*
X141737Y103311D01*
X141737Y106063D01*
X144215Y106063D02*
X144215Y102253D01*
X143156Y106063D02*
X145273Y106063D01*
M02*
