G04 EAGLE Gerber RS-274X export*
G75*
%MOMM*%
%FSLAX34Y34*%
%LPD*%
%INSilkscreen Bottom*%
%IPPOS*%
%AMOC8*
5,1,8,0,0,1.08239X$1,22.5*%
G01*
%ADD10C,0.076200*%


D10*
X75766Y10631D02*
X82298Y17163D01*
X76492Y15711D01*
X77943Y21518D01*
X71411Y14985D01*
X68178Y18218D02*
X65275Y21121D01*
X68178Y18218D02*
X74711Y24751D01*
X71807Y27654D01*
X69630Y24025D02*
X71807Y21847D01*
X69146Y30315D02*
X62614Y23783D01*
X63340Y28863D02*
X69146Y30315D01*
X63340Y28863D02*
X64791Y34670D01*
X58259Y28138D01*
X53285Y33111D02*
X53223Y33176D01*
X53164Y33243D01*
X53108Y33313D01*
X53055Y33385D01*
X53006Y33460D01*
X52959Y33536D01*
X52916Y33615D01*
X52876Y33695D01*
X52840Y33777D01*
X52808Y33861D01*
X52779Y33946D01*
X52754Y34032D01*
X52733Y34119D01*
X52715Y34206D01*
X52702Y34295D01*
X52692Y34384D01*
X52686Y34473D01*
X52684Y34563D01*
X52686Y34653D01*
X52692Y34742D01*
X52702Y34831D01*
X52715Y34920D01*
X52733Y35007D01*
X52754Y35094D01*
X52779Y35180D01*
X52808Y35265D01*
X52840Y35349D01*
X52876Y35431D01*
X52916Y35511D01*
X52959Y35590D01*
X53006Y35666D01*
X53055Y35741D01*
X53108Y35813D01*
X53164Y35883D01*
X53223Y35950D01*
X53285Y36015D01*
X53285Y33111D02*
X53376Y33023D01*
X53470Y32937D01*
X53566Y32854D01*
X53664Y32774D01*
X53765Y32697D01*
X53868Y32623D01*
X53973Y32552D01*
X54080Y32484D01*
X54189Y32419D01*
X54300Y32357D01*
X54412Y32299D01*
X54526Y32244D01*
X54642Y32192D01*
X54759Y32144D01*
X54878Y32099D01*
X54998Y32058D01*
X55119Y32020D01*
X55241Y31986D01*
X55364Y31955D01*
X55488Y31928D01*
X55613Y31904D01*
X55738Y31885D01*
X55864Y31869D01*
X55990Y31856D01*
X56116Y31847D01*
X56243Y31842D01*
X56370Y31841D01*
X60362Y36195D02*
X60424Y36260D01*
X60483Y36327D01*
X60539Y36397D01*
X60592Y36469D01*
X60641Y36544D01*
X60688Y36621D01*
X60731Y36699D01*
X60771Y36779D01*
X60807Y36861D01*
X60839Y36945D01*
X60868Y37030D01*
X60893Y37116D01*
X60914Y37203D01*
X60932Y37291D01*
X60945Y37379D01*
X60955Y37468D01*
X60961Y37557D01*
X60963Y37647D01*
X60961Y37737D01*
X60955Y37826D01*
X60945Y37915D01*
X60932Y38003D01*
X60914Y38091D01*
X60893Y38178D01*
X60868Y38264D01*
X60839Y38349D01*
X60807Y38433D01*
X60771Y38515D01*
X60731Y38595D01*
X60688Y38674D01*
X60641Y38750D01*
X60592Y38825D01*
X60539Y38897D01*
X60483Y38967D01*
X60424Y39034D01*
X60362Y39099D01*
X60273Y39185D01*
X60181Y39268D01*
X60087Y39348D01*
X59990Y39425D01*
X59891Y39499D01*
X59789Y39570D01*
X59685Y39638D01*
X59579Y39702D01*
X59471Y39763D01*
X59361Y39820D01*
X59250Y39873D01*
X59136Y39923D01*
X59021Y39970D01*
X58905Y40012D01*
X58788Y40051D01*
X58669Y40086D01*
X58549Y40117D01*
X58428Y40144D01*
X58307Y40168D01*
X58184Y40187D01*
X58366Y35651D02*
X58454Y35631D01*
X58543Y35614D01*
X58632Y35601D01*
X58722Y35592D01*
X58812Y35586D01*
X58902Y35585D01*
X58992Y35588D01*
X59082Y35594D01*
X59172Y35604D01*
X59261Y35619D01*
X59349Y35637D01*
X59437Y35658D01*
X59523Y35684D01*
X59608Y35713D01*
X59692Y35746D01*
X59775Y35783D01*
X59856Y35823D01*
X59935Y35867D01*
X60012Y35914D01*
X60086Y35964D01*
X60159Y36017D01*
X60229Y36074D01*
X60297Y36133D01*
X60362Y36196D01*
X55282Y36559D02*
X55194Y36579D01*
X55105Y36596D01*
X55016Y36609D01*
X54926Y36618D01*
X54836Y36624D01*
X54746Y36625D01*
X54656Y36622D01*
X54566Y36616D01*
X54476Y36606D01*
X54387Y36591D01*
X54299Y36573D01*
X54211Y36552D01*
X54125Y36526D01*
X54040Y36497D01*
X53956Y36464D01*
X53873Y36427D01*
X53792Y36387D01*
X53714Y36343D01*
X53636Y36296D01*
X53562Y36246D01*
X53489Y36193D01*
X53419Y36136D01*
X53351Y36077D01*
X53286Y36014D01*
X55281Y36559D02*
X58366Y35651D01*
X48859Y36086D02*
X45956Y38989D01*
X43946Y42450D02*
X50479Y48982D01*
X44672Y47531D01*
X46124Y53337D01*
X39592Y46805D01*
X36042Y50355D02*
X42574Y56887D01*
X35316Y51081D02*
X36767Y49629D01*
X43300Y56162D02*
X41848Y57613D01*
X31331Y55065D02*
X29880Y56517D01*
X31331Y55065D02*
X31396Y55003D01*
X31463Y54944D01*
X31533Y54888D01*
X31605Y54835D01*
X31680Y54786D01*
X31757Y54739D01*
X31835Y54696D01*
X31915Y54656D01*
X31997Y54620D01*
X32081Y54588D01*
X32166Y54559D01*
X32252Y54534D01*
X32339Y54513D01*
X32427Y54495D01*
X32515Y54482D01*
X32604Y54472D01*
X32693Y54466D01*
X32783Y54464D01*
X32873Y54466D01*
X32962Y54472D01*
X33051Y54482D01*
X33140Y54495D01*
X33227Y54513D01*
X33314Y54534D01*
X33400Y54559D01*
X33485Y54588D01*
X33569Y54620D01*
X33651Y54656D01*
X33731Y54696D01*
X33810Y54739D01*
X33886Y54786D01*
X33961Y54835D01*
X34033Y54888D01*
X34103Y54944D01*
X34170Y55003D01*
X34235Y55065D01*
X37864Y58694D01*
X37926Y58759D01*
X37985Y58826D01*
X38041Y58896D01*
X38094Y58968D01*
X38143Y59043D01*
X38190Y59120D01*
X38233Y59198D01*
X38273Y59278D01*
X38309Y59360D01*
X38341Y59444D01*
X38370Y59529D01*
X38395Y59615D01*
X38416Y59702D01*
X38434Y59790D01*
X38447Y59878D01*
X38457Y59967D01*
X38463Y60056D01*
X38465Y60146D01*
X38463Y60236D01*
X38457Y60325D01*
X38447Y60414D01*
X38434Y60503D01*
X38416Y60590D01*
X38395Y60677D01*
X38370Y60763D01*
X38341Y60848D01*
X38309Y60932D01*
X38273Y61014D01*
X38233Y61094D01*
X38190Y61173D01*
X38143Y61249D01*
X38094Y61324D01*
X38041Y61396D01*
X37985Y61466D01*
X37926Y61533D01*
X37864Y61598D01*
X36412Y63049D01*
X27009Y57936D02*
X24106Y60839D01*
X20556Y65841D02*
X29266Y70195D01*
X24911Y74550D02*
X20556Y65841D01*
X21087Y75471D02*
X20724Y78737D01*
X14192Y72205D01*
X12378Y74019D02*
X16007Y70390D01*
X9919Y76478D02*
X10282Y76841D01*
X9919Y77204D01*
X9556Y76841D01*
X9919Y76478D01*
X10363Y82566D02*
X10490Y82696D01*
X10614Y82829D01*
X10735Y82965D01*
X10852Y83104D01*
X10966Y83245D01*
X11077Y83389D01*
X11184Y83536D01*
X11287Y83686D01*
X11387Y83837D01*
X11484Y83991D01*
X11576Y84148D01*
X11665Y84306D01*
X11750Y84467D01*
X11831Y84630D01*
X11909Y84794D01*
X11982Y84960D01*
X12051Y85128D01*
X12117Y85298D01*
X12178Y85469D01*
X12213Y85546D01*
X12245Y85623D01*
X12273Y85703D01*
X12298Y85783D01*
X12319Y85864D01*
X12337Y85947D01*
X12351Y86030D01*
X12361Y86113D01*
X12368Y86197D01*
X12371Y86281D01*
X12370Y86365D01*
X12365Y86449D01*
X12357Y86533D01*
X12345Y86616D01*
X12330Y86699D01*
X12310Y86781D01*
X12287Y86862D01*
X12261Y86942D01*
X12231Y87020D01*
X12197Y87097D01*
X12161Y87173D01*
X12120Y87247D01*
X12077Y87319D01*
X12030Y87389D01*
X11981Y87457D01*
X11928Y87523D01*
X11873Y87586D01*
X11815Y87647D01*
X11754Y87705D01*
X11691Y87760D01*
X11625Y87813D01*
X11557Y87862D01*
X11487Y87909D01*
X11415Y87952D01*
X11341Y87993D01*
X11265Y88029D01*
X11188Y88063D01*
X11110Y88093D01*
X11030Y88119D01*
X10949Y88142D01*
X10867Y88162D01*
X10784Y88177D01*
X10701Y88189D01*
X10617Y88197D01*
X10533Y88202D01*
X10449Y88203D01*
X10365Y88200D01*
X10281Y88193D01*
X10198Y88183D01*
X10115Y88169D01*
X10032Y88151D01*
X9951Y88130D01*
X9871Y88105D01*
X9791Y88077D01*
X9714Y88045D01*
X9637Y88010D01*
X9638Y88009D02*
X9466Y87947D01*
X9297Y87882D01*
X9129Y87813D01*
X8963Y87739D01*
X8798Y87662D01*
X8635Y87581D01*
X8475Y87496D01*
X8316Y87407D01*
X8160Y87314D01*
X8006Y87218D01*
X7854Y87118D01*
X7705Y87015D01*
X7558Y86907D01*
X7414Y86797D01*
X7272Y86683D01*
X7133Y86566D01*
X6997Y86445D01*
X6864Y86321D01*
X6734Y86194D01*
X10363Y82566D02*
X10233Y82439D01*
X10100Y82315D01*
X9964Y82194D01*
X9825Y82077D01*
X9684Y81963D01*
X9540Y81852D01*
X9393Y81745D01*
X9243Y81642D01*
X9092Y81542D01*
X8938Y81446D01*
X8781Y81353D01*
X8623Y81264D01*
X8462Y81179D01*
X8299Y81098D01*
X8135Y81021D01*
X7969Y80947D01*
X7801Y80878D01*
X7631Y80813D01*
X7460Y80751D01*
X7383Y80716D01*
X7305Y80684D01*
X7226Y80656D01*
X7146Y80631D01*
X7065Y80610D01*
X6982Y80592D01*
X6899Y80578D01*
X6816Y80568D01*
X6732Y80561D01*
X6648Y80558D01*
X6564Y80559D01*
X6480Y80564D01*
X6396Y80572D01*
X6313Y80584D01*
X6230Y80600D01*
X6148Y80619D01*
X6067Y80642D01*
X5987Y80668D01*
X5909Y80698D01*
X5832Y80732D01*
X5756Y80768D01*
X5682Y80809D01*
X5610Y80852D01*
X5540Y80899D01*
X5472Y80948D01*
X5406Y81001D01*
X5343Y81056D01*
X5282Y81114D01*
X4919Y83291D02*
X4980Y83462D01*
X5046Y83632D01*
X5115Y83800D01*
X5188Y83966D01*
X5266Y84130D01*
X5347Y84293D01*
X5432Y84454D01*
X5521Y84612D01*
X5613Y84769D01*
X5710Y84923D01*
X5810Y85074D01*
X5913Y85224D01*
X6020Y85371D01*
X6131Y85515D01*
X6245Y85656D01*
X6362Y85795D01*
X6483Y85931D01*
X6607Y86064D01*
X6734Y86194D01*
X4919Y83292D02*
X4884Y83215D01*
X4852Y83137D01*
X4824Y83058D01*
X4799Y82978D01*
X4778Y82897D01*
X4760Y82814D01*
X4746Y82731D01*
X4736Y82648D01*
X4729Y82564D01*
X4726Y82480D01*
X4727Y82396D01*
X4732Y82312D01*
X4740Y82228D01*
X4752Y82145D01*
X4768Y82062D01*
X4787Y81980D01*
X4810Y81899D01*
X4836Y81819D01*
X4866Y81741D01*
X4900Y81664D01*
X4936Y81588D01*
X4977Y81514D01*
X5020Y81442D01*
X5067Y81372D01*
X5116Y81304D01*
X5169Y81238D01*
X5224Y81175D01*
X5282Y81114D01*
X8186Y81114D02*
X8912Y87646D01*
X245381Y63687D02*
X254619Y61634D01*
X251540Y65740D02*
X245381Y63687D01*
X245381Y67793D02*
X251540Y65740D01*
X254619Y69846D02*
X245381Y67793D01*
X245381Y74140D02*
X254619Y74140D01*
X245381Y73113D02*
X245381Y75166D01*
X254619Y75166D02*
X254619Y73113D01*
X254619Y79091D02*
X245381Y79091D01*
X245381Y83197D01*
X245381Y86874D02*
X254619Y86874D01*
X254619Y89440D01*
X254617Y89538D01*
X254611Y89636D01*
X254602Y89734D01*
X254589Y89832D01*
X254572Y89929D01*
X254552Y90025D01*
X254527Y90120D01*
X254499Y90214D01*
X254468Y90307D01*
X254433Y90399D01*
X254394Y90490D01*
X254353Y90579D01*
X254307Y90666D01*
X254259Y90751D01*
X254207Y90835D01*
X254152Y90916D01*
X254094Y90996D01*
X254033Y91073D01*
X253969Y91147D01*
X253902Y91219D01*
X253832Y91289D01*
X253760Y91356D01*
X253686Y91420D01*
X253609Y91481D01*
X253529Y91539D01*
X253448Y91594D01*
X253364Y91646D01*
X253279Y91694D01*
X253192Y91740D01*
X253103Y91781D01*
X253012Y91820D01*
X252920Y91855D01*
X252827Y91886D01*
X252733Y91914D01*
X252638Y91939D01*
X252542Y91959D01*
X252445Y91976D01*
X252347Y91989D01*
X252249Y91998D01*
X252151Y92004D01*
X252053Y92006D01*
X247947Y92006D01*
X247849Y92004D01*
X247751Y91998D01*
X247653Y91989D01*
X247555Y91976D01*
X247458Y91959D01*
X247362Y91939D01*
X247267Y91914D01*
X247173Y91886D01*
X247080Y91855D01*
X246988Y91820D01*
X246897Y91781D01*
X246808Y91740D01*
X246721Y91694D01*
X246636Y91646D01*
X246552Y91594D01*
X246471Y91539D01*
X246391Y91481D01*
X246314Y91420D01*
X246240Y91356D01*
X246168Y91289D01*
X246098Y91219D01*
X246031Y91147D01*
X245967Y91073D01*
X245906Y90996D01*
X245848Y90916D01*
X245793Y90835D01*
X245741Y90751D01*
X245693Y90666D01*
X245647Y90579D01*
X245606Y90490D01*
X245567Y90399D01*
X245532Y90307D01*
X245501Y90214D01*
X245473Y90120D01*
X245448Y90025D01*
X245428Y89929D01*
X245411Y89832D01*
X245398Y89734D01*
X245389Y89636D01*
X245383Y89538D01*
X245381Y89440D01*
X245381Y86874D01*
X245381Y96491D02*
X254619Y96491D01*
X245381Y96491D02*
X245381Y100597D01*
X250257Y106540D02*
X254619Y103460D01*
X250257Y106540D02*
X254619Y109619D01*
X250257Y106540D02*
X245381Y106540D01*
M02*
