G04 EAGLE Gerber X2 export*
%TF.Part,Single*%
%TF.FileFunction,Legend,Top,1*%
%TF.FilePolarity,Positive*%
%TF.GenerationSoftware,Autodesk,EAGLE,9.1.0*%
%TF.CreationDate,2018-09-05T10:19:08Z*%
G75*
%MOMM*%
%FSLAX34Y34*%
%LPD*%
%AMOC8*
5,1,8,0,0,1.08239X$1,22.5*%
G01*
%ADD10C,0.076200*%
%ADD11C,0.203200*%
%ADD12C,0.127000*%
%ADD13C,0.025400*%
%ADD14C,0.050800*%
%ADD15C,0.101600*%
%ADD16C,0.152400*%
%ADD17R,1.000000X0.200000*%

G36*
X165216Y36095D02*
X165216Y36095D01*
X165243Y36095D01*
X165354Y36127D01*
X165467Y36153D01*
X165490Y36166D01*
X165516Y36174D01*
X165614Y36236D01*
X165715Y36292D01*
X165731Y36310D01*
X165756Y36325D01*
X165941Y36533D01*
X165945Y36537D01*
X167945Y39537D01*
X167976Y39601D01*
X168016Y39661D01*
X168037Y39729D01*
X168068Y39793D01*
X168080Y39864D01*
X168101Y39932D01*
X168103Y40003D01*
X168115Y40074D01*
X168107Y40145D01*
X168109Y40216D01*
X168091Y40285D01*
X168082Y40356D01*
X168055Y40422D01*
X168037Y40491D01*
X168000Y40552D01*
X167973Y40618D01*
X167928Y40674D01*
X167892Y40736D01*
X167840Y40785D01*
X167795Y40840D01*
X167737Y40881D01*
X167684Y40930D01*
X167621Y40963D01*
X167563Y41004D01*
X167495Y41027D01*
X167431Y41060D01*
X167372Y41070D01*
X167294Y41097D01*
X167175Y41103D01*
X167100Y41115D01*
X163100Y41115D01*
X163029Y41105D01*
X162957Y41105D01*
X162889Y41085D01*
X162819Y41075D01*
X162753Y41046D01*
X162684Y41026D01*
X162624Y40988D01*
X162559Y40959D01*
X162504Y40913D01*
X162444Y40875D01*
X162396Y40822D01*
X162342Y40776D01*
X162302Y40716D01*
X162255Y40662D01*
X162224Y40598D01*
X162185Y40539D01*
X162163Y40471D01*
X162132Y40406D01*
X162120Y40336D01*
X162099Y40268D01*
X162097Y40196D01*
X162085Y40126D01*
X162093Y40055D01*
X162091Y39984D01*
X162110Y39914D01*
X162118Y39843D01*
X162143Y39788D01*
X162163Y39709D01*
X162224Y39606D01*
X162255Y39537D01*
X164255Y36537D01*
X164332Y36450D01*
X164405Y36360D01*
X164427Y36345D01*
X164445Y36325D01*
X164542Y36263D01*
X164637Y36196D01*
X164663Y36188D01*
X164685Y36173D01*
X164796Y36141D01*
X164906Y36103D01*
X164933Y36102D01*
X164958Y36095D01*
X165074Y36095D01*
X165190Y36089D01*
X165216Y36095D01*
G37*
D10*
X22705Y31131D02*
X21068Y31131D01*
X20990Y31133D01*
X20912Y31138D01*
X20835Y31148D01*
X20758Y31161D01*
X20682Y31177D01*
X20607Y31197D01*
X20533Y31221D01*
X20460Y31248D01*
X20388Y31279D01*
X20318Y31313D01*
X20249Y31350D01*
X20183Y31391D01*
X20118Y31435D01*
X20056Y31481D01*
X19996Y31531D01*
X19938Y31583D01*
X19883Y31638D01*
X19831Y31696D01*
X19781Y31756D01*
X19735Y31818D01*
X19691Y31883D01*
X19650Y31950D01*
X19613Y32018D01*
X19579Y32088D01*
X19548Y32160D01*
X19521Y32233D01*
X19497Y32307D01*
X19477Y32382D01*
X19461Y32458D01*
X19448Y32535D01*
X19438Y32612D01*
X19433Y32690D01*
X19431Y32768D01*
X19431Y36860D01*
X19433Y36940D01*
X19439Y37020D01*
X19449Y37100D01*
X19462Y37179D01*
X19480Y37258D01*
X19501Y37335D01*
X19527Y37411D01*
X19556Y37486D01*
X19588Y37560D01*
X19624Y37632D01*
X19664Y37702D01*
X19707Y37769D01*
X19753Y37835D01*
X19803Y37898D01*
X19855Y37959D01*
X19910Y38018D01*
X19969Y38073D01*
X20029Y38125D01*
X20093Y38175D01*
X20159Y38221D01*
X20226Y38264D01*
X20296Y38304D01*
X20368Y38340D01*
X20442Y38372D01*
X20516Y38401D01*
X20593Y38427D01*
X20670Y38448D01*
X20749Y38466D01*
X20828Y38479D01*
X20908Y38489D01*
X20988Y38495D01*
X21068Y38497D01*
X22705Y38497D01*
X25550Y36860D02*
X27596Y38497D01*
X27596Y31131D01*
X25550Y31131D02*
X29642Y31131D01*
D11*
X60800Y151700D02*
X80800Y151700D01*
X80800Y127700D01*
X60800Y127700D01*
X40800Y151700D02*
X24800Y151700D01*
X20800Y147700D01*
X20800Y131700D01*
X24800Y127700D01*
X40800Y127700D01*
D12*
X46990Y129540D02*
X46990Y149860D01*
D13*
X61504Y121953D02*
X62351Y121953D01*
X61504Y121953D02*
X61449Y121955D01*
X61393Y121960D01*
X61339Y121969D01*
X61285Y121982D01*
X61232Y121998D01*
X61180Y122017D01*
X61129Y122040D01*
X61081Y122066D01*
X61033Y122096D01*
X60988Y122128D01*
X60946Y122163D01*
X60905Y122201D01*
X60867Y122242D01*
X60832Y122284D01*
X60800Y122329D01*
X60770Y122377D01*
X60744Y122425D01*
X60721Y122476D01*
X60702Y122528D01*
X60686Y122581D01*
X60673Y122635D01*
X60664Y122689D01*
X60659Y122745D01*
X60657Y122800D01*
X60658Y122800D02*
X60658Y124916D01*
X60657Y124916D02*
X60659Y124974D01*
X60665Y125031D01*
X60675Y125088D01*
X60688Y125145D01*
X60706Y125200D01*
X60727Y125253D01*
X60752Y125306D01*
X60780Y125356D01*
X60812Y125404D01*
X60847Y125451D01*
X60885Y125494D01*
X60926Y125535D01*
X60969Y125573D01*
X61016Y125608D01*
X61064Y125640D01*
X61114Y125668D01*
X61167Y125693D01*
X61220Y125714D01*
X61275Y125732D01*
X61332Y125745D01*
X61389Y125755D01*
X61446Y125761D01*
X61504Y125763D01*
X62351Y125763D01*
X63561Y121530D02*
X65254Y121530D01*
X66641Y123011D02*
X66641Y124705D01*
X66642Y124705D02*
X66644Y124769D01*
X66650Y124833D01*
X66659Y124896D01*
X66673Y124958D01*
X66690Y125020D01*
X66711Y125080D01*
X66735Y125139D01*
X66763Y125197D01*
X66795Y125252D01*
X66829Y125306D01*
X66867Y125357D01*
X66908Y125407D01*
X66952Y125453D01*
X66998Y125497D01*
X67048Y125538D01*
X67099Y125576D01*
X67153Y125610D01*
X67208Y125642D01*
X67266Y125670D01*
X67325Y125694D01*
X67385Y125715D01*
X67447Y125732D01*
X67509Y125746D01*
X67572Y125755D01*
X67636Y125761D01*
X67700Y125763D01*
X67764Y125761D01*
X67828Y125755D01*
X67891Y125746D01*
X67953Y125732D01*
X68015Y125715D01*
X68075Y125694D01*
X68134Y125670D01*
X68192Y125642D01*
X68247Y125610D01*
X68301Y125576D01*
X68352Y125538D01*
X68402Y125497D01*
X68448Y125453D01*
X68492Y125407D01*
X68533Y125357D01*
X68571Y125306D01*
X68605Y125252D01*
X68637Y125197D01*
X68665Y125139D01*
X68689Y125080D01*
X68710Y125020D01*
X68727Y124958D01*
X68741Y124896D01*
X68750Y124833D01*
X68756Y124769D01*
X68758Y124705D01*
X68758Y123011D01*
X68756Y122947D01*
X68750Y122883D01*
X68741Y122820D01*
X68727Y122758D01*
X68710Y122696D01*
X68689Y122636D01*
X68665Y122577D01*
X68637Y122519D01*
X68605Y122464D01*
X68571Y122410D01*
X68533Y122359D01*
X68492Y122309D01*
X68448Y122263D01*
X68402Y122219D01*
X68352Y122178D01*
X68301Y122140D01*
X68247Y122106D01*
X68192Y122074D01*
X68134Y122046D01*
X68075Y122022D01*
X68015Y122001D01*
X67953Y121984D01*
X67891Y121970D01*
X67828Y121961D01*
X67764Y121955D01*
X67700Y121953D01*
X67636Y121955D01*
X67572Y121961D01*
X67509Y121970D01*
X67447Y121984D01*
X67385Y122001D01*
X67325Y122022D01*
X67266Y122046D01*
X67208Y122074D01*
X67153Y122106D01*
X67099Y122140D01*
X67048Y122178D01*
X66998Y122219D01*
X66952Y122263D01*
X66908Y122309D01*
X66867Y122359D01*
X66829Y122410D01*
X66795Y122464D01*
X66763Y122519D01*
X66735Y122577D01*
X66711Y122636D01*
X66690Y122696D01*
X66673Y122758D01*
X66659Y122820D01*
X66650Y122883D01*
X66644Y122947D01*
X66642Y123011D01*
X70421Y123011D02*
X70421Y125763D01*
X70421Y123011D02*
X70423Y122947D01*
X70429Y122883D01*
X70438Y122820D01*
X70452Y122758D01*
X70469Y122696D01*
X70490Y122636D01*
X70514Y122577D01*
X70542Y122519D01*
X70574Y122464D01*
X70608Y122410D01*
X70646Y122359D01*
X70687Y122309D01*
X70731Y122263D01*
X70777Y122219D01*
X70827Y122178D01*
X70878Y122140D01*
X70932Y122106D01*
X70987Y122074D01*
X71045Y122046D01*
X71104Y122022D01*
X71164Y122001D01*
X71226Y121984D01*
X71288Y121970D01*
X71351Y121961D01*
X71415Y121955D01*
X71479Y121953D01*
X71543Y121955D01*
X71607Y121961D01*
X71670Y121970D01*
X71732Y121984D01*
X71794Y122001D01*
X71854Y122022D01*
X71913Y122046D01*
X71971Y122074D01*
X72026Y122106D01*
X72080Y122140D01*
X72131Y122178D01*
X72181Y122219D01*
X72227Y122263D01*
X72271Y122309D01*
X72312Y122359D01*
X72350Y122410D01*
X72384Y122464D01*
X72416Y122519D01*
X72444Y122577D01*
X72468Y122636D01*
X72489Y122696D01*
X72506Y122758D01*
X72520Y122820D01*
X72529Y122883D01*
X72535Y122947D01*
X72537Y123011D01*
X72537Y125763D01*
X75015Y125763D02*
X75015Y121953D01*
X73956Y125763D02*
X76073Y125763D01*
D11*
X102300Y118900D02*
X102300Y98900D01*
X102300Y118900D02*
X126300Y118900D01*
X126300Y98900D01*
X102300Y78900D02*
X102300Y62900D01*
X106300Y58900D01*
X122300Y58900D01*
X126300Y62900D01*
X126300Y78900D01*
D12*
X124460Y85090D02*
X104140Y85090D01*
D13*
X132047Y99239D02*
X132047Y100085D01*
X132047Y99239D02*
X132045Y99181D01*
X132039Y99124D01*
X132029Y99067D01*
X132016Y99010D01*
X131998Y98955D01*
X131977Y98902D01*
X131952Y98849D01*
X131924Y98799D01*
X131892Y98751D01*
X131857Y98704D01*
X131819Y98661D01*
X131778Y98620D01*
X131735Y98582D01*
X131688Y98547D01*
X131640Y98515D01*
X131590Y98487D01*
X131537Y98462D01*
X131484Y98441D01*
X131429Y98423D01*
X131372Y98410D01*
X131315Y98400D01*
X131258Y98394D01*
X131200Y98392D01*
X129084Y98392D01*
X129026Y98394D01*
X128969Y98400D01*
X128912Y98410D01*
X128855Y98423D01*
X128800Y98441D01*
X128747Y98462D01*
X128694Y98487D01*
X128644Y98515D01*
X128596Y98547D01*
X128549Y98582D01*
X128506Y98620D01*
X128465Y98661D01*
X128427Y98704D01*
X128392Y98751D01*
X128360Y98799D01*
X128332Y98849D01*
X128307Y98902D01*
X128286Y98955D01*
X128268Y99010D01*
X128255Y99067D01*
X128245Y99124D01*
X128239Y99181D01*
X128237Y99239D01*
X128237Y100085D01*
X132470Y101295D02*
X132470Y102989D01*
X132047Y105434D02*
X128237Y104164D01*
X128237Y106704D02*
X132047Y105434D01*
X132047Y108155D02*
X128237Y108155D01*
X128237Y109213D01*
X128239Y109277D01*
X128245Y109341D01*
X128254Y109404D01*
X128268Y109466D01*
X128285Y109528D01*
X128306Y109588D01*
X128330Y109647D01*
X128358Y109705D01*
X128390Y109760D01*
X128424Y109814D01*
X128462Y109865D01*
X128503Y109915D01*
X128547Y109961D01*
X128593Y110005D01*
X128643Y110046D01*
X128694Y110084D01*
X128748Y110118D01*
X128803Y110150D01*
X128861Y110178D01*
X128920Y110202D01*
X128980Y110223D01*
X129042Y110240D01*
X129104Y110254D01*
X129168Y110263D01*
X129231Y110269D01*
X129295Y110271D01*
X129295Y110272D02*
X130989Y110272D01*
X130989Y110271D02*
X131053Y110269D01*
X131117Y110263D01*
X131180Y110254D01*
X131242Y110240D01*
X131304Y110223D01*
X131364Y110202D01*
X131423Y110178D01*
X131481Y110150D01*
X131536Y110118D01*
X131590Y110084D01*
X131641Y110046D01*
X131691Y110005D01*
X131737Y109961D01*
X131781Y109915D01*
X131822Y109865D01*
X131860Y109814D01*
X131894Y109760D01*
X131926Y109705D01*
X131954Y109647D01*
X131978Y109588D01*
X131999Y109528D01*
X132016Y109466D01*
X132030Y109404D01*
X132039Y109341D01*
X132045Y109277D01*
X132047Y109213D01*
X132047Y108155D01*
X132047Y112056D02*
X128237Y112056D01*
X128237Y113115D01*
X128239Y113179D01*
X128245Y113243D01*
X128254Y113306D01*
X128268Y113368D01*
X128285Y113430D01*
X128306Y113490D01*
X128330Y113549D01*
X128358Y113607D01*
X128390Y113662D01*
X128424Y113716D01*
X128462Y113767D01*
X128503Y113817D01*
X128547Y113863D01*
X128593Y113907D01*
X128643Y113948D01*
X128694Y113986D01*
X128748Y114020D01*
X128803Y114052D01*
X128861Y114080D01*
X128920Y114104D01*
X128980Y114125D01*
X129042Y114142D01*
X129104Y114156D01*
X129168Y114165D01*
X129231Y114171D01*
X129295Y114173D01*
X130989Y114173D01*
X131053Y114171D01*
X131117Y114165D01*
X131180Y114156D01*
X131242Y114142D01*
X131304Y114125D01*
X131364Y114104D01*
X131423Y114080D01*
X131481Y114052D01*
X131536Y114020D01*
X131590Y113986D01*
X131641Y113948D01*
X131691Y113907D01*
X131737Y113863D01*
X131781Y113817D01*
X131822Y113767D01*
X131860Y113716D01*
X131894Y113662D01*
X131926Y113607D01*
X131954Y113549D01*
X131978Y113490D01*
X131999Y113430D01*
X132016Y113368D01*
X132030Y113306D01*
X132039Y113243D01*
X132045Y113179D01*
X132047Y113115D01*
X132047Y112056D01*
D10*
X19431Y114697D02*
X19431Y107331D01*
X19431Y114697D02*
X21477Y114697D01*
X21566Y114695D01*
X21655Y114689D01*
X21744Y114679D01*
X21832Y114666D01*
X21920Y114649D01*
X22007Y114627D01*
X22092Y114602D01*
X22177Y114574D01*
X22260Y114541D01*
X22342Y114505D01*
X22422Y114466D01*
X22500Y114423D01*
X22576Y114377D01*
X22651Y114327D01*
X22723Y114274D01*
X22792Y114218D01*
X22859Y114159D01*
X22924Y114098D01*
X22985Y114033D01*
X23044Y113966D01*
X23100Y113897D01*
X23153Y113825D01*
X23203Y113750D01*
X23249Y113674D01*
X23292Y113596D01*
X23331Y113516D01*
X23367Y113434D01*
X23400Y113351D01*
X23428Y113266D01*
X23453Y113181D01*
X23475Y113094D01*
X23492Y113006D01*
X23505Y112918D01*
X23515Y112829D01*
X23521Y112740D01*
X23523Y112651D01*
X23521Y112562D01*
X23515Y112473D01*
X23505Y112384D01*
X23492Y112296D01*
X23475Y112208D01*
X23453Y112121D01*
X23428Y112036D01*
X23400Y111951D01*
X23367Y111868D01*
X23331Y111786D01*
X23292Y111706D01*
X23249Y111628D01*
X23203Y111552D01*
X23153Y111477D01*
X23100Y111405D01*
X23044Y111336D01*
X22985Y111269D01*
X22924Y111204D01*
X22859Y111143D01*
X22792Y111084D01*
X22723Y111028D01*
X22651Y110975D01*
X22576Y110925D01*
X22500Y110879D01*
X22422Y110836D01*
X22342Y110797D01*
X22260Y110761D01*
X22177Y110728D01*
X22092Y110700D01*
X22007Y110675D01*
X21920Y110653D01*
X21832Y110636D01*
X21744Y110623D01*
X21655Y110613D01*
X21566Y110607D01*
X21477Y110605D01*
X19431Y110605D01*
X21886Y110605D02*
X23523Y107331D01*
X26695Y113060D02*
X28741Y114697D01*
X28741Y107331D01*
X26695Y107331D02*
X30787Y107331D01*
D12*
X59200Y60100D02*
X93200Y60100D01*
X93200Y17100D01*
X59200Y17100D01*
X59200Y60100D01*
D14*
X58454Y64330D02*
X58454Y69466D01*
X58454Y64330D02*
X58456Y64243D01*
X58462Y64155D01*
X58471Y64068D01*
X58485Y63982D01*
X58502Y63896D01*
X58523Y63812D01*
X58548Y63728D01*
X58577Y63645D01*
X58609Y63564D01*
X58644Y63484D01*
X58683Y63406D01*
X58726Y63329D01*
X58772Y63255D01*
X58821Y63183D01*
X58873Y63113D01*
X58929Y63045D01*
X58987Y62980D01*
X59048Y62917D01*
X59112Y62858D01*
X59179Y62801D01*
X59247Y62747D01*
X59319Y62696D01*
X59392Y62649D01*
X59467Y62604D01*
X59545Y62563D01*
X59624Y62526D01*
X59704Y62492D01*
X59786Y62462D01*
X59869Y62435D01*
X59954Y62412D01*
X60039Y62393D01*
X60125Y62378D01*
X60212Y62366D01*
X60299Y62358D01*
X60386Y62354D01*
X60474Y62354D01*
X60561Y62358D01*
X60648Y62366D01*
X60735Y62378D01*
X60821Y62393D01*
X60906Y62412D01*
X60991Y62435D01*
X61074Y62462D01*
X61156Y62492D01*
X61236Y62526D01*
X61315Y62563D01*
X61393Y62604D01*
X61468Y62649D01*
X61541Y62696D01*
X61613Y62747D01*
X61681Y62801D01*
X61748Y62858D01*
X61812Y62917D01*
X61873Y62980D01*
X61931Y63045D01*
X61987Y63113D01*
X62039Y63183D01*
X62088Y63255D01*
X62134Y63329D01*
X62177Y63406D01*
X62216Y63484D01*
X62251Y63564D01*
X62283Y63645D01*
X62312Y63728D01*
X62337Y63812D01*
X62358Y63896D01*
X62375Y63982D01*
X62389Y64068D01*
X62398Y64155D01*
X62404Y64243D01*
X62406Y64330D01*
X62405Y64330D02*
X62405Y69466D01*
X67714Y69466D02*
X67796Y69464D01*
X67878Y69458D01*
X67960Y69449D01*
X68041Y69436D01*
X68121Y69419D01*
X68201Y69398D01*
X68279Y69374D01*
X68356Y69346D01*
X68432Y69315D01*
X68507Y69280D01*
X68579Y69241D01*
X68650Y69200D01*
X68719Y69155D01*
X68785Y69107D01*
X68850Y69056D01*
X68912Y69002D01*
X68971Y68945D01*
X69028Y68886D01*
X69082Y68824D01*
X69133Y68759D01*
X69181Y68693D01*
X69226Y68624D01*
X69267Y68553D01*
X69306Y68481D01*
X69341Y68406D01*
X69372Y68330D01*
X69400Y68253D01*
X69424Y68175D01*
X69445Y68095D01*
X69462Y68015D01*
X69475Y67934D01*
X69484Y67852D01*
X69490Y67770D01*
X69492Y67688D01*
X67714Y69466D02*
X67621Y69464D01*
X67529Y69458D01*
X67437Y69449D01*
X67345Y69436D01*
X67254Y69419D01*
X67164Y69399D01*
X67074Y69375D01*
X66986Y69347D01*
X66898Y69315D01*
X66813Y69281D01*
X66728Y69242D01*
X66646Y69201D01*
X66565Y69156D01*
X66485Y69107D01*
X66408Y69056D01*
X66333Y69002D01*
X66261Y68944D01*
X66191Y68884D01*
X66123Y68820D01*
X66058Y68755D01*
X65995Y68686D01*
X65936Y68615D01*
X65879Y68542D01*
X65825Y68466D01*
X65775Y68389D01*
X65727Y68309D01*
X65683Y68228D01*
X65643Y68144D01*
X65605Y68060D01*
X65571Y67973D01*
X65541Y67886D01*
X68899Y66305D02*
X68960Y66366D01*
X69018Y66429D01*
X69073Y66495D01*
X69126Y66563D01*
X69175Y66634D01*
X69220Y66706D01*
X69263Y66781D01*
X69302Y66857D01*
X69338Y66936D01*
X69370Y67015D01*
X69398Y67096D01*
X69423Y67179D01*
X69444Y67262D01*
X69461Y67346D01*
X69475Y67431D01*
X69484Y67516D01*
X69490Y67602D01*
X69492Y67688D01*
X68899Y66305D02*
X65541Y62354D01*
X69492Y62354D01*
D11*
X192800Y154800D02*
X192800Y162300D01*
X192800Y154800D02*
X205800Y154800D01*
X205800Y106800D01*
X149800Y106800D02*
X149800Y154800D01*
X162800Y154800D01*
X162800Y162300D01*
X192800Y162300D01*
D15*
X215808Y140511D02*
X227492Y132722D01*
X227492Y140511D02*
X215808Y132722D01*
X218404Y144801D02*
X215808Y148046D01*
X227492Y148046D01*
X227492Y144801D02*
X227492Y151292D01*
D16*
X154178Y26162D02*
X147574Y26162D01*
X147574Y27996D01*
X147576Y28081D01*
X147582Y28165D01*
X147592Y28249D01*
X147605Y28333D01*
X147623Y28416D01*
X147644Y28498D01*
X147669Y28579D01*
X147698Y28659D01*
X147730Y28737D01*
X147766Y28813D01*
X147806Y28888D01*
X147849Y28961D01*
X147895Y29032D01*
X147944Y29101D01*
X147997Y29168D01*
X148053Y29232D01*
X148111Y29293D01*
X148172Y29351D01*
X148236Y29407D01*
X148303Y29460D01*
X148372Y29509D01*
X148443Y29555D01*
X148516Y29598D01*
X148591Y29638D01*
X148667Y29674D01*
X148746Y29706D01*
X148825Y29735D01*
X148906Y29760D01*
X148988Y29781D01*
X149071Y29799D01*
X149155Y29812D01*
X149239Y29822D01*
X149323Y29828D01*
X149408Y29830D01*
X149408Y29831D02*
X152344Y29831D01*
X152344Y29830D02*
X152429Y29828D01*
X152513Y29822D01*
X152597Y29812D01*
X152681Y29799D01*
X152764Y29781D01*
X152846Y29760D01*
X152927Y29735D01*
X153007Y29706D01*
X153085Y29674D01*
X153161Y29638D01*
X153236Y29598D01*
X153309Y29555D01*
X153380Y29509D01*
X153449Y29460D01*
X153516Y29407D01*
X153580Y29351D01*
X153641Y29293D01*
X153699Y29232D01*
X153755Y29168D01*
X153808Y29101D01*
X153857Y29032D01*
X153903Y28961D01*
X153946Y28888D01*
X153986Y28813D01*
X154022Y28737D01*
X154054Y28659D01*
X154083Y28579D01*
X154108Y28498D01*
X154129Y28416D01*
X154147Y28333D01*
X154160Y28249D01*
X154170Y28165D01*
X154176Y28081D01*
X154178Y27996D01*
X154178Y26162D01*
X147574Y35739D02*
X147576Y35818D01*
X147581Y35896D01*
X147591Y35974D01*
X147604Y36051D01*
X147621Y36128D01*
X147641Y36204D01*
X147665Y36279D01*
X147692Y36353D01*
X147723Y36425D01*
X147758Y36496D01*
X147795Y36565D01*
X147836Y36632D01*
X147880Y36697D01*
X147927Y36760D01*
X147977Y36820D01*
X148030Y36878D01*
X148086Y36934D01*
X148144Y36987D01*
X148204Y37037D01*
X148267Y37084D01*
X148332Y37128D01*
X148400Y37169D01*
X148468Y37206D01*
X148539Y37241D01*
X148611Y37272D01*
X148685Y37299D01*
X148760Y37323D01*
X148836Y37343D01*
X148913Y37360D01*
X148990Y37373D01*
X149068Y37383D01*
X149146Y37388D01*
X149225Y37390D01*
X147574Y35739D02*
X147576Y35650D01*
X147581Y35561D01*
X147591Y35473D01*
X147604Y35385D01*
X147620Y35298D01*
X147641Y35211D01*
X147665Y35126D01*
X147692Y35041D01*
X147723Y34958D01*
X147758Y34876D01*
X147796Y34795D01*
X147837Y34716D01*
X147881Y34640D01*
X147929Y34564D01*
X147980Y34491D01*
X148033Y34421D01*
X148090Y34352D01*
X148150Y34286D01*
X148212Y34223D01*
X148277Y34162D01*
X148344Y34104D01*
X148414Y34049D01*
X148486Y33996D01*
X148560Y33947D01*
X148636Y33901D01*
X148714Y33859D01*
X148794Y33819D01*
X148875Y33783D01*
X148958Y33750D01*
X149042Y33721D01*
X150509Y36840D02*
X150453Y36896D01*
X150394Y36950D01*
X150333Y37001D01*
X150269Y37050D01*
X150204Y37095D01*
X150136Y37138D01*
X150067Y37177D01*
X149996Y37214D01*
X149923Y37247D01*
X149849Y37276D01*
X149774Y37303D01*
X149698Y37326D01*
X149620Y37345D01*
X149542Y37361D01*
X149464Y37374D01*
X149384Y37383D01*
X149305Y37388D01*
X149225Y37390D01*
X150509Y36840D02*
X154178Y33721D01*
X154178Y37390D01*
D11*
X158100Y29370D02*
X158100Y46830D01*
X172100Y46830D02*
X172100Y29370D01*
X165100Y35100D02*
X161100Y41100D01*
X169100Y41100D01*
X165100Y35100D01*
D17*
X165100Y34100D03*
D12*
X195580Y52705D02*
X195580Y64135D01*
X192405Y64135D02*
X198755Y64135D01*
X203645Y64135D02*
X203645Y52705D01*
X203645Y64135D02*
X206820Y64135D01*
X206931Y64133D01*
X207041Y64127D01*
X207152Y64118D01*
X207262Y64104D01*
X207371Y64087D01*
X207480Y64066D01*
X207588Y64041D01*
X207695Y64012D01*
X207801Y63980D01*
X207906Y63944D01*
X208009Y63904D01*
X208111Y63861D01*
X208212Y63814D01*
X208311Y63763D01*
X208408Y63710D01*
X208502Y63653D01*
X208595Y63592D01*
X208686Y63529D01*
X208775Y63462D01*
X208861Y63392D01*
X208944Y63319D01*
X209026Y63244D01*
X209104Y63166D01*
X209179Y63084D01*
X209252Y63001D01*
X209322Y62915D01*
X209389Y62826D01*
X209452Y62735D01*
X209513Y62642D01*
X209570Y62547D01*
X209623Y62451D01*
X209674Y62352D01*
X209721Y62251D01*
X209764Y62149D01*
X209804Y62046D01*
X209840Y61941D01*
X209872Y61835D01*
X209901Y61728D01*
X209926Y61620D01*
X209947Y61511D01*
X209964Y61402D01*
X209978Y61292D01*
X209987Y61181D01*
X209993Y61071D01*
X209995Y60960D01*
X209993Y60849D01*
X209987Y60739D01*
X209978Y60628D01*
X209964Y60518D01*
X209947Y60409D01*
X209926Y60300D01*
X209901Y60192D01*
X209872Y60085D01*
X209840Y59979D01*
X209804Y59874D01*
X209764Y59771D01*
X209721Y59669D01*
X209674Y59568D01*
X209623Y59469D01*
X209570Y59372D01*
X209513Y59278D01*
X209452Y59185D01*
X209389Y59094D01*
X209322Y59005D01*
X209252Y58919D01*
X209179Y58836D01*
X209104Y58754D01*
X209026Y58676D01*
X208944Y58601D01*
X208861Y58528D01*
X208775Y58458D01*
X208686Y58391D01*
X208595Y58328D01*
X208502Y58267D01*
X208407Y58210D01*
X208311Y58157D01*
X208212Y58106D01*
X208111Y58059D01*
X208009Y58016D01*
X207906Y57976D01*
X207801Y57940D01*
X207695Y57908D01*
X207588Y57879D01*
X207480Y57854D01*
X207371Y57833D01*
X207262Y57816D01*
X207152Y57802D01*
X207041Y57793D01*
X206931Y57787D01*
X206820Y57785D01*
X203645Y57785D01*
X214503Y61595D02*
X217678Y64135D01*
X217678Y52705D01*
X214503Y52705D02*
X220853Y52705D01*
X68580Y103505D02*
X68580Y114935D01*
X65405Y114935D02*
X71755Y114935D01*
X76645Y114935D02*
X76645Y103505D01*
X76645Y114935D02*
X79820Y114935D01*
X79931Y114933D01*
X80041Y114927D01*
X80152Y114918D01*
X80262Y114904D01*
X80371Y114887D01*
X80480Y114866D01*
X80588Y114841D01*
X80695Y114812D01*
X80801Y114780D01*
X80906Y114744D01*
X81009Y114704D01*
X81111Y114661D01*
X81212Y114614D01*
X81311Y114563D01*
X81408Y114510D01*
X81502Y114453D01*
X81595Y114392D01*
X81686Y114329D01*
X81775Y114262D01*
X81861Y114192D01*
X81944Y114119D01*
X82026Y114044D01*
X82104Y113966D01*
X82179Y113884D01*
X82252Y113801D01*
X82322Y113715D01*
X82389Y113626D01*
X82452Y113535D01*
X82513Y113442D01*
X82570Y113347D01*
X82623Y113251D01*
X82674Y113152D01*
X82721Y113051D01*
X82764Y112949D01*
X82804Y112846D01*
X82840Y112741D01*
X82872Y112635D01*
X82901Y112528D01*
X82926Y112420D01*
X82947Y112311D01*
X82964Y112202D01*
X82978Y112092D01*
X82987Y111981D01*
X82993Y111871D01*
X82995Y111760D01*
X82993Y111649D01*
X82987Y111539D01*
X82978Y111428D01*
X82964Y111318D01*
X82947Y111209D01*
X82926Y111100D01*
X82901Y110992D01*
X82872Y110885D01*
X82840Y110779D01*
X82804Y110674D01*
X82764Y110571D01*
X82721Y110469D01*
X82674Y110368D01*
X82623Y110269D01*
X82570Y110172D01*
X82513Y110078D01*
X82452Y109985D01*
X82389Y109894D01*
X82322Y109805D01*
X82252Y109719D01*
X82179Y109636D01*
X82104Y109554D01*
X82026Y109476D01*
X81944Y109401D01*
X81861Y109328D01*
X81775Y109258D01*
X81686Y109191D01*
X81595Y109128D01*
X81502Y109067D01*
X81407Y109010D01*
X81311Y108957D01*
X81212Y108906D01*
X81111Y108859D01*
X81009Y108816D01*
X80906Y108776D01*
X80801Y108740D01*
X80695Y108708D01*
X80588Y108679D01*
X80480Y108654D01*
X80371Y108633D01*
X80262Y108616D01*
X80152Y108602D01*
X80041Y108593D01*
X79931Y108587D01*
X79820Y108585D01*
X76645Y108585D01*
X90996Y114936D02*
X91100Y114934D01*
X91205Y114928D01*
X91309Y114919D01*
X91412Y114906D01*
X91515Y114888D01*
X91617Y114868D01*
X91719Y114843D01*
X91819Y114815D01*
X91919Y114783D01*
X92017Y114747D01*
X92114Y114708D01*
X92209Y114666D01*
X92303Y114620D01*
X92395Y114570D01*
X92485Y114518D01*
X92573Y114462D01*
X92659Y114402D01*
X92743Y114340D01*
X92824Y114275D01*
X92903Y114207D01*
X92980Y114135D01*
X93053Y114062D01*
X93125Y113985D01*
X93193Y113906D01*
X93258Y113825D01*
X93320Y113741D01*
X93380Y113655D01*
X93436Y113567D01*
X93488Y113477D01*
X93538Y113385D01*
X93584Y113291D01*
X93626Y113196D01*
X93665Y113099D01*
X93701Y113001D01*
X93733Y112901D01*
X93761Y112801D01*
X93786Y112699D01*
X93806Y112597D01*
X93824Y112494D01*
X93837Y112391D01*
X93846Y112287D01*
X93852Y112182D01*
X93854Y112078D01*
X90996Y114935D02*
X90878Y114933D01*
X90759Y114927D01*
X90641Y114918D01*
X90524Y114905D01*
X90407Y114887D01*
X90290Y114867D01*
X90174Y114842D01*
X90059Y114814D01*
X89946Y114781D01*
X89833Y114746D01*
X89721Y114706D01*
X89611Y114664D01*
X89502Y114617D01*
X89394Y114567D01*
X89289Y114514D01*
X89185Y114457D01*
X89083Y114397D01*
X88983Y114334D01*
X88885Y114267D01*
X88789Y114198D01*
X88696Y114125D01*
X88605Y114049D01*
X88516Y113971D01*
X88430Y113889D01*
X88347Y113805D01*
X88266Y113719D01*
X88189Y113629D01*
X88114Y113538D01*
X88042Y113444D01*
X87973Y113347D01*
X87908Y113249D01*
X87845Y113148D01*
X87786Y113045D01*
X87730Y112941D01*
X87678Y112835D01*
X87629Y112727D01*
X87584Y112618D01*
X87542Y112507D01*
X87504Y112395D01*
X92901Y109856D02*
X92977Y109931D01*
X93052Y110010D01*
X93123Y110091D01*
X93192Y110175D01*
X93257Y110261D01*
X93319Y110349D01*
X93379Y110439D01*
X93435Y110531D01*
X93488Y110626D01*
X93537Y110722D01*
X93583Y110820D01*
X93626Y110919D01*
X93665Y111020D01*
X93700Y111122D01*
X93732Y111225D01*
X93760Y111329D01*
X93785Y111434D01*
X93806Y111541D01*
X93823Y111647D01*
X93836Y111754D01*
X93845Y111862D01*
X93851Y111970D01*
X93853Y112078D01*
X92901Y109855D02*
X87503Y103505D01*
X93853Y103505D01*
X119380Y51435D02*
X119380Y40005D01*
X116205Y51435D02*
X122555Y51435D01*
X127445Y51435D02*
X127445Y40005D01*
X127445Y51435D02*
X130620Y51435D01*
X130731Y51433D01*
X130841Y51427D01*
X130952Y51418D01*
X131062Y51404D01*
X131171Y51387D01*
X131280Y51366D01*
X131388Y51341D01*
X131495Y51312D01*
X131601Y51280D01*
X131706Y51244D01*
X131809Y51204D01*
X131911Y51161D01*
X132012Y51114D01*
X132111Y51063D01*
X132208Y51010D01*
X132302Y50953D01*
X132395Y50892D01*
X132486Y50829D01*
X132575Y50762D01*
X132661Y50692D01*
X132744Y50619D01*
X132826Y50544D01*
X132904Y50466D01*
X132979Y50384D01*
X133052Y50301D01*
X133122Y50215D01*
X133189Y50126D01*
X133252Y50035D01*
X133313Y49942D01*
X133370Y49847D01*
X133423Y49751D01*
X133474Y49652D01*
X133521Y49551D01*
X133564Y49449D01*
X133604Y49346D01*
X133640Y49241D01*
X133672Y49135D01*
X133701Y49028D01*
X133726Y48920D01*
X133747Y48811D01*
X133764Y48702D01*
X133778Y48592D01*
X133787Y48481D01*
X133793Y48371D01*
X133795Y48260D01*
X133793Y48149D01*
X133787Y48039D01*
X133778Y47928D01*
X133764Y47818D01*
X133747Y47709D01*
X133726Y47600D01*
X133701Y47492D01*
X133672Y47385D01*
X133640Y47279D01*
X133604Y47174D01*
X133564Y47071D01*
X133521Y46969D01*
X133474Y46868D01*
X133423Y46769D01*
X133370Y46672D01*
X133313Y46578D01*
X133252Y46485D01*
X133189Y46394D01*
X133122Y46305D01*
X133052Y46219D01*
X132979Y46136D01*
X132904Y46054D01*
X132826Y45976D01*
X132744Y45901D01*
X132661Y45828D01*
X132575Y45758D01*
X132486Y45691D01*
X132395Y45628D01*
X132302Y45567D01*
X132207Y45510D01*
X132111Y45457D01*
X132012Y45406D01*
X131911Y45359D01*
X131809Y45316D01*
X131706Y45276D01*
X131601Y45240D01*
X131495Y45208D01*
X131388Y45179D01*
X131280Y45154D01*
X131171Y45133D01*
X131062Y45116D01*
X130952Y45102D01*
X130841Y45093D01*
X130731Y45087D01*
X130620Y45085D01*
X127445Y45085D01*
X138303Y40005D02*
X141478Y40005D01*
X141589Y40007D01*
X141699Y40013D01*
X141810Y40022D01*
X141920Y40036D01*
X142029Y40053D01*
X142138Y40074D01*
X142246Y40099D01*
X142353Y40128D01*
X142459Y40160D01*
X142564Y40196D01*
X142667Y40236D01*
X142769Y40279D01*
X142870Y40326D01*
X142969Y40377D01*
X143065Y40430D01*
X143160Y40487D01*
X143253Y40548D01*
X143344Y40611D01*
X143433Y40678D01*
X143519Y40748D01*
X143602Y40821D01*
X143684Y40896D01*
X143762Y40974D01*
X143837Y41056D01*
X143910Y41139D01*
X143980Y41225D01*
X144047Y41314D01*
X144110Y41405D01*
X144171Y41498D01*
X144228Y41592D01*
X144281Y41689D01*
X144332Y41788D01*
X144379Y41889D01*
X144422Y41991D01*
X144462Y42094D01*
X144498Y42199D01*
X144530Y42305D01*
X144559Y42412D01*
X144584Y42520D01*
X144605Y42629D01*
X144622Y42738D01*
X144636Y42848D01*
X144645Y42959D01*
X144651Y43069D01*
X144653Y43180D01*
X144651Y43291D01*
X144645Y43401D01*
X144636Y43512D01*
X144622Y43622D01*
X144605Y43731D01*
X144584Y43840D01*
X144559Y43948D01*
X144530Y44055D01*
X144498Y44161D01*
X144462Y44266D01*
X144422Y44369D01*
X144379Y44471D01*
X144332Y44572D01*
X144281Y44671D01*
X144228Y44767D01*
X144171Y44862D01*
X144110Y44955D01*
X144047Y45046D01*
X143980Y45135D01*
X143910Y45221D01*
X143837Y45304D01*
X143762Y45386D01*
X143684Y45464D01*
X143602Y45539D01*
X143519Y45612D01*
X143433Y45682D01*
X143344Y45749D01*
X143253Y45812D01*
X143160Y45873D01*
X143066Y45930D01*
X142969Y45983D01*
X142870Y46034D01*
X142769Y46081D01*
X142667Y46124D01*
X142564Y46164D01*
X142459Y46200D01*
X142353Y46232D01*
X142246Y46261D01*
X142138Y46286D01*
X142029Y46307D01*
X141920Y46324D01*
X141810Y46338D01*
X141699Y46347D01*
X141589Y46353D01*
X141478Y46355D01*
X142113Y51435D02*
X138303Y51435D01*
X142113Y51435D02*
X142213Y51433D01*
X142312Y51427D01*
X142412Y51417D01*
X142510Y51404D01*
X142609Y51386D01*
X142706Y51365D01*
X142802Y51340D01*
X142898Y51311D01*
X142992Y51278D01*
X143085Y51242D01*
X143176Y51202D01*
X143266Y51158D01*
X143354Y51111D01*
X143440Y51061D01*
X143524Y51007D01*
X143606Y50950D01*
X143685Y50890D01*
X143763Y50826D01*
X143837Y50760D01*
X143909Y50691D01*
X143978Y50619D01*
X144044Y50545D01*
X144108Y50467D01*
X144168Y50388D01*
X144225Y50306D01*
X144279Y50222D01*
X144329Y50136D01*
X144376Y50048D01*
X144420Y49958D01*
X144460Y49867D01*
X144496Y49774D01*
X144529Y49680D01*
X144558Y49584D01*
X144583Y49488D01*
X144604Y49391D01*
X144622Y49292D01*
X144635Y49194D01*
X144645Y49094D01*
X144651Y48995D01*
X144653Y48895D01*
X144651Y48795D01*
X144645Y48696D01*
X144635Y48596D01*
X144622Y48498D01*
X144604Y48399D01*
X144583Y48302D01*
X144558Y48206D01*
X144529Y48110D01*
X144496Y48016D01*
X144460Y47923D01*
X144420Y47832D01*
X144376Y47742D01*
X144329Y47654D01*
X144279Y47568D01*
X144225Y47484D01*
X144168Y47402D01*
X144108Y47323D01*
X144044Y47245D01*
X143978Y47171D01*
X143909Y47099D01*
X143837Y47030D01*
X143763Y46964D01*
X143685Y46900D01*
X143606Y46840D01*
X143524Y46783D01*
X143440Y46729D01*
X143354Y46679D01*
X143266Y46632D01*
X143176Y46588D01*
X143085Y46548D01*
X142992Y46512D01*
X142898Y46479D01*
X142802Y46450D01*
X142706Y46425D01*
X142609Y46404D01*
X142510Y46386D01*
X142412Y46373D01*
X142312Y46363D01*
X142213Y46357D01*
X142113Y46355D01*
X139573Y46355D01*
X30480Y65405D02*
X30480Y76835D01*
X27305Y76835D02*
X33655Y76835D01*
X38545Y76835D02*
X38545Y65405D01*
X38545Y76835D02*
X41720Y76835D01*
X41831Y76833D01*
X41941Y76827D01*
X42052Y76818D01*
X42162Y76804D01*
X42271Y76787D01*
X42380Y76766D01*
X42488Y76741D01*
X42595Y76712D01*
X42701Y76680D01*
X42806Y76644D01*
X42909Y76604D01*
X43011Y76561D01*
X43112Y76514D01*
X43211Y76463D01*
X43308Y76410D01*
X43402Y76353D01*
X43495Y76292D01*
X43586Y76229D01*
X43675Y76162D01*
X43761Y76092D01*
X43844Y76019D01*
X43926Y75944D01*
X44004Y75866D01*
X44079Y75784D01*
X44152Y75701D01*
X44222Y75615D01*
X44289Y75526D01*
X44352Y75435D01*
X44413Y75342D01*
X44470Y75247D01*
X44523Y75151D01*
X44574Y75052D01*
X44621Y74951D01*
X44664Y74849D01*
X44704Y74746D01*
X44740Y74641D01*
X44772Y74535D01*
X44801Y74428D01*
X44826Y74320D01*
X44847Y74211D01*
X44864Y74102D01*
X44878Y73992D01*
X44887Y73881D01*
X44893Y73771D01*
X44895Y73660D01*
X44893Y73549D01*
X44887Y73439D01*
X44878Y73328D01*
X44864Y73218D01*
X44847Y73109D01*
X44826Y73000D01*
X44801Y72892D01*
X44772Y72785D01*
X44740Y72679D01*
X44704Y72574D01*
X44664Y72471D01*
X44621Y72369D01*
X44574Y72268D01*
X44523Y72169D01*
X44470Y72072D01*
X44413Y71978D01*
X44352Y71885D01*
X44289Y71794D01*
X44222Y71705D01*
X44152Y71619D01*
X44079Y71536D01*
X44004Y71454D01*
X43926Y71376D01*
X43844Y71301D01*
X43761Y71228D01*
X43675Y71158D01*
X43586Y71091D01*
X43495Y71028D01*
X43402Y70967D01*
X43307Y70910D01*
X43211Y70857D01*
X43112Y70806D01*
X43011Y70759D01*
X42909Y70716D01*
X42806Y70676D01*
X42701Y70640D01*
X42595Y70608D01*
X42488Y70579D01*
X42380Y70554D01*
X42271Y70533D01*
X42162Y70516D01*
X42052Y70502D01*
X41941Y70493D01*
X41831Y70487D01*
X41720Y70485D01*
X38545Y70485D01*
X49403Y67945D02*
X51943Y76835D01*
X49403Y67945D02*
X55753Y67945D01*
X53848Y70485D02*
X53848Y65405D01*
M02*
