G04 EAGLE Gerber X2 export*
%TF.Part,Single*%
%TF.FileFunction,Paste,Top*%
%TF.FilePolarity,Positive*%
%TF.GenerationSoftware,Autodesk,EAGLE,9.1.3*%
%TF.CreationDate,2018-09-14T10:28:26Z*%
G75*
%MOMM*%
%FSLAX34Y34*%
%LPD*%
%AMOC8*
5,1,8,0,0,1.08239X$1,22.5*%
G01*
%ADD10R,0.600000X0.700000*%
%ADD11R,1.900000X1.600000*%
%ADD12R,0.700000X0.600000*%
%ADD13C,0.900000*%
%ADD14C,0.700000*%
%ADD15C,0.330000*%
%ADD16C,0.006094*%
%ADD17R,7.000000X0.850000*%
%ADD18R,1.400000X1.400000*%


D10*
X96600Y25400D03*
X106600Y25400D03*
D11*
X118100Y127000D03*
X85100Y127000D03*
X161300Y38100D03*
X194300Y38100D03*
D12*
X76200Y45800D03*
X76200Y55800D03*
D13*
X102300Y93200D03*
X114340Y93200D03*
X126380Y93200D03*
X102300Y81260D03*
X126380Y81260D03*
D14*
X102300Y59140D03*
X126380Y59140D03*
D15*
X107610Y67040D02*
X107612Y67205D01*
X107618Y67370D01*
X107628Y67535D01*
X107642Y67700D01*
X107661Y67864D01*
X107683Y68027D01*
X107709Y68191D01*
X107739Y68353D01*
X107774Y68515D01*
X107812Y68675D01*
X107854Y68835D01*
X107900Y68994D01*
X107950Y69151D01*
X108003Y69307D01*
X108061Y69462D01*
X108122Y69615D01*
X108187Y69767D01*
X108256Y69917D01*
X108329Y70066D01*
X108405Y70213D01*
X108484Y70357D01*
X108567Y70500D01*
X108654Y70641D01*
X108744Y70779D01*
X108838Y70915D01*
X108934Y71049D01*
X109034Y71181D01*
X109138Y71309D01*
X109244Y71436D01*
X109353Y71560D01*
X109466Y71681D01*
X109581Y71799D01*
X109699Y71914D01*
X109820Y72027D01*
X109944Y72136D01*
X110071Y72242D01*
X110199Y72346D01*
X110331Y72446D01*
X110465Y72542D01*
X110601Y72636D01*
X110739Y72726D01*
X110880Y72813D01*
X111023Y72896D01*
X111167Y72975D01*
X111314Y73051D01*
X111463Y73124D01*
X111613Y73193D01*
X111765Y73258D01*
X111918Y73319D01*
X112073Y73377D01*
X112229Y73430D01*
X112386Y73480D01*
X112545Y73526D01*
X112705Y73568D01*
X112865Y73606D01*
X113027Y73641D01*
X113189Y73671D01*
X113353Y73697D01*
X113516Y73719D01*
X113680Y73738D01*
X113845Y73752D01*
X114010Y73762D01*
X114175Y73768D01*
X114340Y73770D01*
X114505Y73768D01*
X114670Y73762D01*
X114835Y73752D01*
X115000Y73738D01*
X115164Y73719D01*
X115327Y73697D01*
X115491Y73671D01*
X115653Y73641D01*
X115815Y73606D01*
X115975Y73568D01*
X116135Y73526D01*
X116294Y73480D01*
X116451Y73430D01*
X116607Y73377D01*
X116762Y73319D01*
X116915Y73258D01*
X117067Y73193D01*
X117217Y73124D01*
X117366Y73051D01*
X117513Y72975D01*
X117657Y72896D01*
X117800Y72813D01*
X117941Y72726D01*
X118079Y72636D01*
X118215Y72542D01*
X118349Y72446D01*
X118481Y72346D01*
X118609Y72242D01*
X118736Y72136D01*
X118860Y72027D01*
X118981Y71914D01*
X119099Y71799D01*
X119214Y71681D01*
X119327Y71560D01*
X119436Y71436D01*
X119542Y71309D01*
X119646Y71181D01*
X119746Y71049D01*
X119842Y70915D01*
X119936Y70779D01*
X120026Y70641D01*
X120113Y70500D01*
X120196Y70357D01*
X120275Y70213D01*
X120351Y70066D01*
X120424Y69917D01*
X120493Y69767D01*
X120558Y69615D01*
X120619Y69462D01*
X120677Y69307D01*
X120730Y69151D01*
X120780Y68994D01*
X120826Y68835D01*
X120868Y68675D01*
X120906Y68515D01*
X120941Y68353D01*
X120971Y68191D01*
X120997Y68027D01*
X121019Y67864D01*
X121038Y67700D01*
X121052Y67535D01*
X121062Y67370D01*
X121068Y67205D01*
X121070Y67040D01*
X121068Y66875D01*
X121062Y66710D01*
X121052Y66545D01*
X121038Y66380D01*
X121019Y66216D01*
X120997Y66053D01*
X120971Y65889D01*
X120941Y65727D01*
X120906Y65565D01*
X120868Y65405D01*
X120826Y65245D01*
X120780Y65086D01*
X120730Y64929D01*
X120677Y64773D01*
X120619Y64618D01*
X120558Y64465D01*
X120493Y64313D01*
X120424Y64163D01*
X120351Y64014D01*
X120275Y63867D01*
X120196Y63723D01*
X120113Y63580D01*
X120026Y63439D01*
X119936Y63301D01*
X119842Y63165D01*
X119746Y63031D01*
X119646Y62899D01*
X119542Y62771D01*
X119436Y62644D01*
X119327Y62520D01*
X119214Y62399D01*
X119099Y62281D01*
X118981Y62166D01*
X118860Y62053D01*
X118736Y61944D01*
X118609Y61838D01*
X118481Y61734D01*
X118349Y61634D01*
X118215Y61538D01*
X118079Y61444D01*
X117941Y61354D01*
X117800Y61267D01*
X117657Y61184D01*
X117513Y61105D01*
X117366Y61029D01*
X117217Y60956D01*
X117067Y60887D01*
X116915Y60822D01*
X116762Y60761D01*
X116607Y60703D01*
X116451Y60650D01*
X116294Y60600D01*
X116135Y60554D01*
X115975Y60512D01*
X115815Y60474D01*
X115653Y60439D01*
X115491Y60409D01*
X115327Y60383D01*
X115164Y60361D01*
X115000Y60342D01*
X114835Y60328D01*
X114670Y60318D01*
X114505Y60312D01*
X114340Y60310D01*
X114175Y60312D01*
X114010Y60318D01*
X113845Y60328D01*
X113680Y60342D01*
X113516Y60361D01*
X113353Y60383D01*
X113189Y60409D01*
X113027Y60439D01*
X112865Y60474D01*
X112705Y60512D01*
X112545Y60554D01*
X112386Y60600D01*
X112229Y60650D01*
X112073Y60703D01*
X111918Y60761D01*
X111765Y60822D01*
X111613Y60887D01*
X111463Y60956D01*
X111314Y61029D01*
X111167Y61105D01*
X111023Y61184D01*
X110880Y61267D01*
X110739Y61354D01*
X110601Y61444D01*
X110465Y61538D01*
X110331Y61634D01*
X110199Y61734D01*
X110071Y61838D01*
X109944Y61944D01*
X109820Y62053D01*
X109699Y62166D01*
X109581Y62281D01*
X109466Y62399D01*
X109353Y62520D01*
X109244Y62644D01*
X109138Y62771D01*
X109034Y62899D01*
X108934Y63031D01*
X108838Y63165D01*
X108744Y63301D01*
X108654Y63439D01*
X108567Y63580D01*
X108484Y63723D01*
X108405Y63867D01*
X108329Y64014D01*
X108256Y64163D01*
X108187Y64313D01*
X108122Y64465D01*
X108061Y64618D01*
X108003Y64773D01*
X107950Y64929D01*
X107900Y65086D01*
X107854Y65245D01*
X107812Y65405D01*
X107774Y65565D01*
X107739Y65727D01*
X107709Y65889D01*
X107683Y66053D01*
X107661Y66216D01*
X107642Y66380D01*
X107628Y66545D01*
X107618Y66710D01*
X107612Y66875D01*
X107610Y67040D01*
D16*
X112298Y72614D02*
X116302Y72614D01*
X112298Y72614D02*
X112298Y74586D01*
X116302Y74586D01*
X116302Y72614D01*
X116302Y72672D02*
X112298Y72672D01*
X112298Y72730D02*
X116302Y72730D01*
X116302Y72788D02*
X112298Y72788D01*
X112298Y72846D02*
X116302Y72846D01*
X116302Y72904D02*
X112298Y72904D01*
X112298Y72962D02*
X116302Y72962D01*
X116302Y73020D02*
X112298Y73020D01*
X112298Y73078D02*
X116302Y73078D01*
X116302Y73136D02*
X112298Y73136D01*
X112298Y73194D02*
X116302Y73194D01*
X116302Y73252D02*
X112298Y73252D01*
X112298Y73310D02*
X116302Y73310D01*
X116302Y73368D02*
X112298Y73368D01*
X112298Y73426D02*
X116302Y73426D01*
X116302Y73484D02*
X112298Y73484D01*
X112298Y73542D02*
X116302Y73542D01*
X116302Y73600D02*
X112298Y73600D01*
X112298Y73658D02*
X116302Y73658D01*
X116302Y73716D02*
X112298Y73716D01*
X112298Y73774D02*
X116302Y73774D01*
X116302Y73832D02*
X112298Y73832D01*
X112298Y73890D02*
X116302Y73890D01*
X116302Y73948D02*
X112298Y73948D01*
X112298Y74006D02*
X116302Y74006D01*
X116302Y74064D02*
X112298Y74064D01*
X112298Y74122D02*
X116302Y74122D01*
X116302Y74180D02*
X112298Y74180D01*
X112298Y74238D02*
X116302Y74238D01*
X116302Y74296D02*
X112298Y74296D01*
X112298Y74354D02*
X116302Y74354D01*
X116302Y74412D02*
X112298Y74412D01*
X112298Y74470D02*
X116302Y74470D01*
X116302Y74528D02*
X112298Y74528D01*
X112298Y74586D02*
X116302Y74586D01*
D17*
X215900Y73900D03*
X215900Y88900D03*
X215900Y103900D03*
D18*
X152400Y95800D03*
X152400Y132800D03*
M02*
