G04 EAGLE Gerber X2 export*
%TF.Part,Single*%
%TF.FileFunction,Paste,Top*%
%TF.FilePolarity,Positive*%
%TF.GenerationSoftware,Autodesk,EAGLE,9.1.0*%
%TF.CreationDate,2018-08-23T06:33:32Z*%
G75*
%MOMM*%
%FSLAX34Y34*%
%LPD*%
%AMOC8*
5,1,8,0,0,1.08239X$1,22.5*%
G01*
%ADD10R,0.600000X0.700000*%
%ADD11R,1.600000X1.900000*%
%ADD12C,0.900000*%
%ADD13C,0.700000*%
%ADD14C,0.330000*%
%ADD15C,0.006094*%
%ADD16R,0.850000X7.000000*%
%ADD17R,1.400000X1.400000*%


D10*
X20400Y25400D03*
X30400Y25400D03*
D11*
X25400Y143500D03*
X25400Y110500D03*
X76200Y130800D03*
X76200Y97800D03*
D10*
X20400Y63500D03*
X30400Y63500D03*
D12*
X64200Y55100D03*
X76240Y55100D03*
X88280Y55100D03*
X64200Y43160D03*
X88280Y43160D03*
D13*
X64200Y21040D03*
X88280Y21040D03*
D14*
X69510Y28940D02*
X69512Y29105D01*
X69518Y29270D01*
X69528Y29435D01*
X69542Y29600D01*
X69561Y29764D01*
X69583Y29927D01*
X69609Y30091D01*
X69639Y30253D01*
X69674Y30415D01*
X69712Y30575D01*
X69754Y30735D01*
X69800Y30894D01*
X69850Y31051D01*
X69903Y31207D01*
X69961Y31362D01*
X70022Y31515D01*
X70087Y31667D01*
X70156Y31817D01*
X70229Y31966D01*
X70305Y32113D01*
X70384Y32257D01*
X70467Y32400D01*
X70554Y32541D01*
X70644Y32679D01*
X70738Y32815D01*
X70834Y32949D01*
X70934Y33081D01*
X71038Y33209D01*
X71144Y33336D01*
X71253Y33460D01*
X71366Y33581D01*
X71481Y33699D01*
X71599Y33814D01*
X71720Y33927D01*
X71844Y34036D01*
X71971Y34142D01*
X72099Y34246D01*
X72231Y34346D01*
X72365Y34442D01*
X72501Y34536D01*
X72639Y34626D01*
X72780Y34713D01*
X72923Y34796D01*
X73067Y34875D01*
X73214Y34951D01*
X73363Y35024D01*
X73513Y35093D01*
X73665Y35158D01*
X73818Y35219D01*
X73973Y35277D01*
X74129Y35330D01*
X74286Y35380D01*
X74445Y35426D01*
X74605Y35468D01*
X74765Y35506D01*
X74927Y35541D01*
X75089Y35571D01*
X75253Y35597D01*
X75416Y35619D01*
X75580Y35638D01*
X75745Y35652D01*
X75910Y35662D01*
X76075Y35668D01*
X76240Y35670D01*
X76405Y35668D01*
X76570Y35662D01*
X76735Y35652D01*
X76900Y35638D01*
X77064Y35619D01*
X77227Y35597D01*
X77391Y35571D01*
X77553Y35541D01*
X77715Y35506D01*
X77875Y35468D01*
X78035Y35426D01*
X78194Y35380D01*
X78351Y35330D01*
X78507Y35277D01*
X78662Y35219D01*
X78815Y35158D01*
X78967Y35093D01*
X79117Y35024D01*
X79266Y34951D01*
X79413Y34875D01*
X79557Y34796D01*
X79700Y34713D01*
X79841Y34626D01*
X79979Y34536D01*
X80115Y34442D01*
X80249Y34346D01*
X80381Y34246D01*
X80509Y34142D01*
X80636Y34036D01*
X80760Y33927D01*
X80881Y33814D01*
X80999Y33699D01*
X81114Y33581D01*
X81227Y33460D01*
X81336Y33336D01*
X81442Y33209D01*
X81546Y33081D01*
X81646Y32949D01*
X81742Y32815D01*
X81836Y32679D01*
X81926Y32541D01*
X82013Y32400D01*
X82096Y32257D01*
X82175Y32113D01*
X82251Y31966D01*
X82324Y31817D01*
X82393Y31667D01*
X82458Y31515D01*
X82519Y31362D01*
X82577Y31207D01*
X82630Y31051D01*
X82680Y30894D01*
X82726Y30735D01*
X82768Y30575D01*
X82806Y30415D01*
X82841Y30253D01*
X82871Y30091D01*
X82897Y29927D01*
X82919Y29764D01*
X82938Y29600D01*
X82952Y29435D01*
X82962Y29270D01*
X82968Y29105D01*
X82970Y28940D01*
X82968Y28775D01*
X82962Y28610D01*
X82952Y28445D01*
X82938Y28280D01*
X82919Y28116D01*
X82897Y27953D01*
X82871Y27789D01*
X82841Y27627D01*
X82806Y27465D01*
X82768Y27305D01*
X82726Y27145D01*
X82680Y26986D01*
X82630Y26829D01*
X82577Y26673D01*
X82519Y26518D01*
X82458Y26365D01*
X82393Y26213D01*
X82324Y26063D01*
X82251Y25914D01*
X82175Y25767D01*
X82096Y25623D01*
X82013Y25480D01*
X81926Y25339D01*
X81836Y25201D01*
X81742Y25065D01*
X81646Y24931D01*
X81546Y24799D01*
X81442Y24671D01*
X81336Y24544D01*
X81227Y24420D01*
X81114Y24299D01*
X80999Y24181D01*
X80881Y24066D01*
X80760Y23953D01*
X80636Y23844D01*
X80509Y23738D01*
X80381Y23634D01*
X80249Y23534D01*
X80115Y23438D01*
X79979Y23344D01*
X79841Y23254D01*
X79700Y23167D01*
X79557Y23084D01*
X79413Y23005D01*
X79266Y22929D01*
X79117Y22856D01*
X78967Y22787D01*
X78815Y22722D01*
X78662Y22661D01*
X78507Y22603D01*
X78351Y22550D01*
X78194Y22500D01*
X78035Y22454D01*
X77875Y22412D01*
X77715Y22374D01*
X77553Y22339D01*
X77391Y22309D01*
X77227Y22283D01*
X77064Y22261D01*
X76900Y22242D01*
X76735Y22228D01*
X76570Y22218D01*
X76405Y22212D01*
X76240Y22210D01*
X76075Y22212D01*
X75910Y22218D01*
X75745Y22228D01*
X75580Y22242D01*
X75416Y22261D01*
X75253Y22283D01*
X75089Y22309D01*
X74927Y22339D01*
X74765Y22374D01*
X74605Y22412D01*
X74445Y22454D01*
X74286Y22500D01*
X74129Y22550D01*
X73973Y22603D01*
X73818Y22661D01*
X73665Y22722D01*
X73513Y22787D01*
X73363Y22856D01*
X73214Y22929D01*
X73067Y23005D01*
X72923Y23084D01*
X72780Y23167D01*
X72639Y23254D01*
X72501Y23344D01*
X72365Y23438D01*
X72231Y23534D01*
X72099Y23634D01*
X71971Y23738D01*
X71844Y23844D01*
X71720Y23953D01*
X71599Y24066D01*
X71481Y24181D01*
X71366Y24299D01*
X71253Y24420D01*
X71144Y24544D01*
X71038Y24671D01*
X70934Y24799D01*
X70834Y24931D01*
X70738Y25065D01*
X70644Y25201D01*
X70554Y25339D01*
X70467Y25480D01*
X70384Y25623D01*
X70305Y25767D01*
X70229Y25914D01*
X70156Y26063D01*
X70087Y26213D01*
X70022Y26365D01*
X69961Y26518D01*
X69903Y26673D01*
X69850Y26829D01*
X69800Y26986D01*
X69754Y27145D01*
X69712Y27305D01*
X69674Y27465D01*
X69639Y27627D01*
X69609Y27789D01*
X69583Y27953D01*
X69561Y28116D01*
X69542Y28280D01*
X69528Y28445D01*
X69518Y28610D01*
X69512Y28775D01*
X69510Y28940D01*
D15*
X74198Y34514D02*
X78202Y34514D01*
X74198Y34514D02*
X74198Y36486D01*
X78202Y36486D01*
X78202Y34514D01*
X78202Y34572D02*
X74198Y34572D01*
X74198Y34630D02*
X78202Y34630D01*
X78202Y34688D02*
X74198Y34688D01*
X74198Y34746D02*
X78202Y34746D01*
X78202Y34804D02*
X74198Y34804D01*
X74198Y34862D02*
X78202Y34862D01*
X78202Y34920D02*
X74198Y34920D01*
X74198Y34978D02*
X78202Y34978D01*
X78202Y35036D02*
X74198Y35036D01*
X74198Y35094D02*
X78202Y35094D01*
X78202Y35152D02*
X74198Y35152D01*
X74198Y35210D02*
X78202Y35210D01*
X78202Y35268D02*
X74198Y35268D01*
X74198Y35326D02*
X78202Y35326D01*
X78202Y35384D02*
X74198Y35384D01*
X74198Y35442D02*
X78202Y35442D01*
X78202Y35500D02*
X74198Y35500D01*
X74198Y35558D02*
X78202Y35558D01*
X78202Y35616D02*
X74198Y35616D01*
X74198Y35674D02*
X78202Y35674D01*
X78202Y35732D02*
X74198Y35732D01*
X74198Y35790D02*
X78202Y35790D01*
X78202Y35848D02*
X74198Y35848D01*
X74198Y35906D02*
X78202Y35906D01*
X78202Y35964D02*
X74198Y35964D01*
X74198Y36022D02*
X78202Y36022D01*
X78202Y36080D02*
X74198Y36080D01*
X74198Y36138D02*
X78202Y36138D01*
X78202Y36196D02*
X74198Y36196D01*
X74198Y36254D02*
X78202Y36254D01*
X78202Y36312D02*
X74198Y36312D01*
X74198Y36370D02*
X78202Y36370D01*
X78202Y36428D02*
X74198Y36428D01*
X74198Y36486D02*
X78202Y36486D01*
D16*
X192800Y114300D03*
X177800Y114300D03*
X162800Y114300D03*
D17*
X146600Y50800D03*
X183600Y50800D03*
M02*
