G04 EAGLE Gerber X2 export*
%TF.Part,Single*%
%TF.FileFunction,Soldermask,Top,1*%
%TF.FilePolarity,Negative*%
%TF.GenerationSoftware,Autodesk,EAGLE,9.1.0*%
%TF.CreationDate,2018-08-23T06:33:32Z*%
G75*
%MOMM*%
%FSLAX34Y34*%
%LPD*%
%AMOC8*
5,1,8,0,0,1.08239X$1,22.5*%
G01*
%ADD10C,1.203200*%
%ADD11R,0.803200X0.903200*%
%ADD12R,1.803200X2.103200*%
%ADD13C,1.103200*%
%ADD14C,0.903200*%
%ADD15C,0.350000*%
%ADD16C,0.803200*%
%ADD17C,0.211325*%
%ADD18R,1.053200X7.203200*%
%ADD19R,1.603200X1.603200*%
%ADD20P,2.982959X8X22.500000*%
%ADD21P,2.982959X8X202.500000*%
%ADD22P,2.982959X8X112.500000*%
%ADD23C,0.959600*%


D10*
X241300Y139700D03*
X241300Y38100D03*
D11*
X20400Y25400D03*
X30400Y25400D03*
D12*
X25400Y143500D03*
X25400Y110500D03*
X76200Y130800D03*
X76200Y97800D03*
D11*
X20400Y63500D03*
X30400Y63500D03*
D13*
X64200Y55100D03*
X76240Y55100D03*
X88280Y55100D03*
X64200Y43160D03*
X88280Y43160D03*
D14*
X64200Y21040D03*
X88280Y21040D03*
D15*
X69240Y28940D02*
X69242Y29112D01*
X69248Y29283D01*
X69259Y29455D01*
X69274Y29626D01*
X69293Y29797D01*
X69316Y29967D01*
X69343Y30137D01*
X69375Y30306D01*
X69410Y30474D01*
X69450Y30641D01*
X69494Y30807D01*
X69541Y30972D01*
X69593Y31136D01*
X69649Y31298D01*
X69709Y31459D01*
X69773Y31619D01*
X69841Y31777D01*
X69912Y31933D01*
X69987Y32087D01*
X70067Y32240D01*
X70149Y32390D01*
X70236Y32539D01*
X70326Y32685D01*
X70420Y32829D01*
X70517Y32971D01*
X70618Y33110D01*
X70722Y33247D01*
X70829Y33381D01*
X70940Y33512D01*
X71053Y33641D01*
X71170Y33767D01*
X71290Y33890D01*
X71413Y34010D01*
X71539Y34127D01*
X71668Y34240D01*
X71799Y34351D01*
X71933Y34458D01*
X72070Y34562D01*
X72209Y34663D01*
X72351Y34760D01*
X72495Y34854D01*
X72641Y34944D01*
X72790Y35031D01*
X72940Y35113D01*
X73093Y35193D01*
X73247Y35268D01*
X73403Y35339D01*
X73561Y35407D01*
X73721Y35471D01*
X73882Y35531D01*
X74044Y35587D01*
X74208Y35639D01*
X74373Y35686D01*
X74539Y35730D01*
X74706Y35770D01*
X74874Y35805D01*
X75043Y35837D01*
X75213Y35864D01*
X75383Y35887D01*
X75554Y35906D01*
X75725Y35921D01*
X75897Y35932D01*
X76068Y35938D01*
X76240Y35940D01*
X76412Y35938D01*
X76583Y35932D01*
X76755Y35921D01*
X76926Y35906D01*
X77097Y35887D01*
X77267Y35864D01*
X77437Y35837D01*
X77606Y35805D01*
X77774Y35770D01*
X77941Y35730D01*
X78107Y35686D01*
X78272Y35639D01*
X78436Y35587D01*
X78598Y35531D01*
X78759Y35471D01*
X78919Y35407D01*
X79077Y35339D01*
X79233Y35268D01*
X79387Y35193D01*
X79540Y35113D01*
X79690Y35031D01*
X79839Y34944D01*
X79985Y34854D01*
X80129Y34760D01*
X80271Y34663D01*
X80410Y34562D01*
X80547Y34458D01*
X80681Y34351D01*
X80812Y34240D01*
X80941Y34127D01*
X81067Y34010D01*
X81190Y33890D01*
X81310Y33767D01*
X81427Y33641D01*
X81540Y33512D01*
X81651Y33381D01*
X81758Y33247D01*
X81862Y33110D01*
X81963Y32971D01*
X82060Y32829D01*
X82154Y32685D01*
X82244Y32539D01*
X82331Y32390D01*
X82413Y32240D01*
X82493Y32087D01*
X82568Y31933D01*
X82639Y31777D01*
X82707Y31619D01*
X82771Y31459D01*
X82831Y31298D01*
X82887Y31136D01*
X82939Y30972D01*
X82986Y30807D01*
X83030Y30641D01*
X83070Y30474D01*
X83105Y30306D01*
X83137Y30137D01*
X83164Y29967D01*
X83187Y29797D01*
X83206Y29626D01*
X83221Y29455D01*
X83232Y29283D01*
X83238Y29112D01*
X83240Y28940D01*
X83238Y28768D01*
X83232Y28597D01*
X83221Y28425D01*
X83206Y28254D01*
X83187Y28083D01*
X83164Y27913D01*
X83137Y27743D01*
X83105Y27574D01*
X83070Y27406D01*
X83030Y27239D01*
X82986Y27073D01*
X82939Y26908D01*
X82887Y26744D01*
X82831Y26582D01*
X82771Y26421D01*
X82707Y26261D01*
X82639Y26103D01*
X82568Y25947D01*
X82493Y25793D01*
X82413Y25640D01*
X82331Y25490D01*
X82244Y25341D01*
X82154Y25195D01*
X82060Y25051D01*
X81963Y24909D01*
X81862Y24770D01*
X81758Y24633D01*
X81651Y24499D01*
X81540Y24368D01*
X81427Y24239D01*
X81310Y24113D01*
X81190Y23990D01*
X81067Y23870D01*
X80941Y23753D01*
X80812Y23640D01*
X80681Y23529D01*
X80547Y23422D01*
X80410Y23318D01*
X80271Y23217D01*
X80129Y23120D01*
X79985Y23026D01*
X79839Y22936D01*
X79690Y22849D01*
X79540Y22767D01*
X79387Y22687D01*
X79233Y22612D01*
X79077Y22541D01*
X78919Y22473D01*
X78759Y22409D01*
X78598Y22349D01*
X78436Y22293D01*
X78272Y22241D01*
X78107Y22194D01*
X77941Y22150D01*
X77774Y22110D01*
X77606Y22075D01*
X77437Y22043D01*
X77267Y22016D01*
X77097Y21993D01*
X76926Y21974D01*
X76755Y21959D01*
X76583Y21948D01*
X76412Y21942D01*
X76240Y21940D01*
X76068Y21942D01*
X75897Y21948D01*
X75725Y21959D01*
X75554Y21974D01*
X75383Y21993D01*
X75213Y22016D01*
X75043Y22043D01*
X74874Y22075D01*
X74706Y22110D01*
X74539Y22150D01*
X74373Y22194D01*
X74208Y22241D01*
X74044Y22293D01*
X73882Y22349D01*
X73721Y22409D01*
X73561Y22473D01*
X73403Y22541D01*
X73247Y22612D01*
X73093Y22687D01*
X72940Y22767D01*
X72790Y22849D01*
X72641Y22936D01*
X72495Y23026D01*
X72351Y23120D01*
X72209Y23217D01*
X72070Y23318D01*
X71933Y23422D01*
X71799Y23529D01*
X71668Y23640D01*
X71539Y23753D01*
X71413Y23870D01*
X71290Y23990D01*
X71170Y24113D01*
X71053Y24239D01*
X70940Y24368D01*
X70829Y24499D01*
X70722Y24633D01*
X70618Y24770D01*
X70517Y24909D01*
X70420Y25051D01*
X70326Y25195D01*
X70236Y25341D01*
X70149Y25490D01*
X70067Y25640D01*
X69987Y25793D01*
X69912Y25947D01*
X69841Y26103D01*
X69773Y26261D01*
X69709Y26421D01*
X69649Y26582D01*
X69593Y26744D01*
X69541Y26908D01*
X69494Y27073D01*
X69450Y27239D01*
X69410Y27406D01*
X69375Y27574D01*
X69343Y27743D01*
X69316Y27913D01*
X69293Y28083D01*
X69274Y28254D01*
X69259Y28425D01*
X69248Y28597D01*
X69242Y28768D01*
X69240Y28940D01*
D16*
X76240Y28940D03*
D17*
X78192Y34524D02*
X74208Y34524D01*
X74208Y36476D01*
X78192Y36476D01*
X78192Y34524D01*
D18*
X192800Y114300D03*
X177800Y114300D03*
X162800Y114300D03*
D19*
X146600Y50800D03*
X183600Y50800D03*
D20*
X203200Y25400D03*
D21*
X114300Y88900D03*
D22*
X139700Y25400D03*
D20*
X215900Y76200D03*
D23*
X50800Y44450D03*
X228600Y114300D03*
X241300Y114300D03*
X241300Y88900D03*
X241300Y101600D03*
X241300Y76200D03*
X241300Y63500D03*
X228600Y12700D03*
X241300Y12700D03*
X165100Y12700D03*
X177800Y12700D03*
X101600Y12700D03*
X50800Y12700D03*
X139700Y88900D03*
X63500Y76200D03*
X50800Y88900D03*
X50800Y101600D03*
X50800Y127000D03*
X50800Y139700D03*
X50800Y152400D03*
X63500Y152400D03*
X76200Y152400D03*
X88900Y152400D03*
X101600Y152400D03*
X114300Y152400D03*
X101600Y127000D03*
X215900Y114300D03*
X114300Y127000D03*
X127000Y127000D03*
X101600Y38100D03*
X114300Y25400D03*
M02*
