G04 EAGLE Gerber X2 export*
%TF.Part,Single*%
%TF.FileFunction,Copper,L2,Bot,Mixed*%
%TF.FilePolarity,Positive*%
%TF.GenerationSoftware,Autodesk,EAGLE,9.1.0*%
%TF.CreationDate,2018-08-24T06:17:03Z*%
G75*
%MOMM*%
%FSLAX34Y34*%
%LPD*%
%AMOC8*
5,1,8,0,0,1.08239X$1,22.5*%
G01*
%ADD10C,0.203200*%
%ADD11R,1.270000X0.635000*%
%ADD12R,3.000000X1.250000*%
%ADD13C,1.000000*%
%ADD14C,1.016000*%
%ADD15C,0.254000*%

G36*
X199269Y4080D02*
X199269Y4080D01*
X199388Y4087D01*
X199426Y4100D01*
X199467Y4105D01*
X199577Y4148D01*
X199691Y4185D01*
X199725Y4207D01*
X199762Y4222D01*
X199859Y4291D01*
X199959Y4355D01*
X199987Y4385D01*
X200020Y4408D01*
X200096Y4500D01*
X200177Y4587D01*
X200197Y4622D01*
X200222Y4653D01*
X200273Y4761D01*
X200331Y4865D01*
X200341Y4905D01*
X200358Y4941D01*
X200380Y5058D01*
X200410Y5173D01*
X200414Y5233D01*
X200418Y5253D01*
X200417Y5274D01*
X200420Y5334D01*
X200420Y5920D01*
X200408Y6018D01*
X200405Y6118D01*
X200388Y6176D01*
X200381Y6236D01*
X200344Y6328D01*
X200317Y6423D01*
X200286Y6475D01*
X200263Y6532D01*
X200205Y6612D01*
X200155Y6697D01*
X200089Y6772D01*
X200077Y6789D01*
X200067Y6797D01*
X200049Y6818D01*
X199403Y7463D01*
X199403Y10830D01*
X200049Y11475D01*
X200109Y11554D01*
X200177Y11626D01*
X200206Y11679D01*
X200244Y11727D01*
X200283Y11818D01*
X200331Y11904D01*
X200346Y11963D01*
X200370Y12019D01*
X200385Y12116D01*
X200410Y12212D01*
X200417Y12312D01*
X200420Y12333D01*
X200419Y12345D01*
X200420Y12373D01*
X200420Y13881D01*
X202801Y16262D01*
X206169Y16262D01*
X207330Y15101D01*
X207424Y15028D01*
X207513Y14949D01*
X207549Y14931D01*
X207581Y14906D01*
X207690Y14859D01*
X207796Y14805D01*
X207836Y14796D01*
X207873Y14780D01*
X207990Y14761D01*
X208107Y14735D01*
X208147Y14736D01*
X208187Y14730D01*
X208306Y14741D01*
X208424Y14745D01*
X208463Y14756D01*
X208504Y14760D01*
X208616Y14800D01*
X208730Y14833D01*
X208765Y14854D01*
X208803Y14867D01*
X208901Y14934D01*
X209004Y14995D01*
X209049Y15034D01*
X209066Y15046D01*
X209079Y15061D01*
X209125Y15101D01*
X209640Y15617D01*
X210286Y16262D01*
X211924Y16262D01*
X215687Y16262D01*
X216992Y14956D01*
X217051Y14910D01*
X217104Y14857D01*
X217176Y14813D01*
X217244Y14761D01*
X217312Y14732D01*
X217376Y14693D01*
X217457Y14669D01*
X217536Y14635D01*
X217609Y14623D01*
X217681Y14602D01*
X217765Y14598D01*
X217850Y14585D01*
X217924Y14592D01*
X217998Y14589D01*
X218007Y14591D01*
X220069Y13904D01*
X220078Y13902D01*
X220086Y13898D01*
X220232Y13871D01*
X220381Y13842D01*
X220390Y13842D01*
X220399Y13841D01*
X220548Y13851D01*
X220698Y13859D01*
X220707Y13862D01*
X220716Y13863D01*
X220872Y13904D01*
X222816Y14552D01*
X225828Y13046D01*
X226893Y9852D01*
X224918Y5902D01*
X224886Y5812D01*
X224846Y5727D01*
X224834Y5663D01*
X224812Y5602D01*
X224804Y5507D01*
X224786Y5414D01*
X224790Y5350D01*
X224785Y5285D01*
X224800Y5191D01*
X224806Y5097D01*
X224826Y5035D01*
X224837Y4971D01*
X224875Y4884D01*
X224904Y4795D01*
X224939Y4740D01*
X224965Y4680D01*
X225023Y4606D01*
X225074Y4526D01*
X225122Y4481D01*
X225162Y4430D01*
X225237Y4373D01*
X225306Y4308D01*
X225363Y4277D01*
X225414Y4237D01*
X225501Y4200D01*
X225584Y4154D01*
X225647Y4138D01*
X225707Y4113D01*
X225801Y4099D01*
X225892Y4075D01*
X226003Y4068D01*
X226022Y4065D01*
X226031Y4066D01*
X226053Y4065D01*
X286766Y4065D01*
X286884Y4080D01*
X287003Y4087D01*
X287041Y4100D01*
X287082Y4105D01*
X287192Y4148D01*
X287305Y4185D01*
X287340Y4207D01*
X287377Y4222D01*
X287473Y4291D01*
X287574Y4355D01*
X287602Y4385D01*
X287635Y4408D01*
X287711Y4500D01*
X287792Y4587D01*
X287812Y4622D01*
X287837Y4653D01*
X287888Y4761D01*
X287946Y4865D01*
X287956Y4905D01*
X287973Y4941D01*
X287995Y5058D01*
X288025Y5173D01*
X288029Y5233D01*
X288033Y5253D01*
X288031Y5274D01*
X288035Y5334D01*
X288035Y167386D01*
X288020Y167504D01*
X288013Y167623D01*
X288000Y167661D01*
X287995Y167702D01*
X287952Y167812D01*
X287915Y167925D01*
X287893Y167960D01*
X287878Y167997D01*
X287809Y168093D01*
X287745Y168194D01*
X287715Y168222D01*
X287692Y168255D01*
X287600Y168331D01*
X287513Y168412D01*
X287478Y168432D01*
X287447Y168457D01*
X287339Y168508D01*
X287235Y168566D01*
X287195Y168576D01*
X287159Y168593D01*
X287042Y168615D01*
X286927Y168645D01*
X286867Y168649D01*
X286847Y168653D01*
X286826Y168651D01*
X286766Y168655D01*
X275084Y168655D01*
X274946Y168638D01*
X274808Y168625D01*
X274788Y168618D01*
X274768Y168615D01*
X274639Y168564D01*
X274508Y168517D01*
X274492Y168506D01*
X274473Y168498D01*
X274360Y168417D01*
X274245Y168339D01*
X274232Y168323D01*
X274215Y168312D01*
X274127Y168204D01*
X274035Y168100D01*
X274026Y168082D01*
X274013Y168067D01*
X273953Y167941D01*
X273890Y167817D01*
X273886Y167797D01*
X273877Y167779D01*
X273851Y167643D01*
X273820Y167507D01*
X273821Y167486D01*
X273817Y167467D01*
X273826Y167328D01*
X273830Y167189D01*
X273836Y167169D01*
X273837Y167149D01*
X273880Y167017D01*
X273919Y166883D01*
X273929Y166866D01*
X273935Y166847D01*
X274010Y166729D01*
X274080Y166609D01*
X274099Y166588D01*
X274105Y166578D01*
X274120Y166564D01*
X274186Y166489D01*
X277834Y162841D01*
X280049Y157494D01*
X280049Y151706D01*
X277834Y146359D01*
X273741Y142266D01*
X268394Y140051D01*
X262606Y140051D01*
X257259Y142266D01*
X253166Y146359D01*
X250951Y151706D01*
X250951Y157494D01*
X253166Y162841D01*
X256814Y166489D01*
X256899Y166598D01*
X256987Y166705D01*
X256996Y166724D01*
X257008Y166740D01*
X257064Y166868D01*
X257123Y166993D01*
X257127Y167013D01*
X257135Y167032D01*
X257157Y167170D01*
X257183Y167306D01*
X257181Y167326D01*
X257185Y167346D01*
X257172Y167485D01*
X257163Y167623D01*
X257157Y167642D01*
X257155Y167662D01*
X257108Y167794D01*
X257065Y167925D01*
X257054Y167943D01*
X257047Y167962D01*
X256969Y168077D01*
X256895Y168194D01*
X256880Y168208D01*
X256869Y168225D01*
X256764Y168317D01*
X256663Y168412D01*
X256645Y168422D01*
X256630Y168435D01*
X256506Y168499D01*
X256385Y168566D01*
X256365Y168571D01*
X256347Y168580D01*
X256211Y168610D01*
X256077Y168645D01*
X256049Y168647D01*
X256037Y168650D01*
X256016Y168649D01*
X255916Y168655D01*
X226440Y168655D01*
X226390Y168649D01*
X226341Y168651D01*
X226233Y168629D01*
X226124Y168615D01*
X226078Y168597D01*
X226029Y168587D01*
X225930Y168539D01*
X225828Y168498D01*
X225788Y168469D01*
X225743Y168447D01*
X225660Y168376D01*
X225571Y168312D01*
X225539Y168273D01*
X225501Y168241D01*
X225438Y168151D01*
X225368Y168067D01*
X225347Y168022D01*
X225318Y167981D01*
X225279Y167878D01*
X225233Y167779D01*
X225223Y167730D01*
X225206Y167684D01*
X225193Y167574D01*
X225173Y167467D01*
X225176Y167417D01*
X225170Y167368D01*
X225186Y167259D01*
X225193Y167149D01*
X225208Y167102D01*
X225215Y167053D01*
X225267Y166900D01*
X225981Y165177D01*
X225981Y161975D01*
X224755Y159017D01*
X222491Y156753D01*
X219533Y155527D01*
X216331Y155527D01*
X213373Y156753D01*
X211109Y159017D01*
X209883Y161975D01*
X209883Y165177D01*
X210597Y166900D01*
X210610Y166948D01*
X210631Y166993D01*
X210652Y167101D01*
X210681Y167207D01*
X210682Y167257D01*
X210691Y167306D01*
X210684Y167415D01*
X210686Y167525D01*
X210674Y167573D01*
X210671Y167623D01*
X210638Y167727D01*
X210612Y167834D01*
X210589Y167878D01*
X210573Y167925D01*
X210515Y168018D01*
X210463Y168115D01*
X210430Y168152D01*
X210403Y168194D01*
X210323Y168269D01*
X210249Y168351D01*
X210208Y168378D01*
X210172Y168412D01*
X210075Y168465D01*
X209984Y168525D01*
X209937Y168542D01*
X209893Y168566D01*
X209787Y168593D01*
X209683Y168629D01*
X209633Y168633D01*
X209585Y168645D01*
X209424Y168655D01*
X5334Y168655D01*
X5216Y168640D01*
X5097Y168633D01*
X5059Y168620D01*
X5018Y168615D01*
X4908Y168572D01*
X4795Y168535D01*
X4760Y168513D01*
X4723Y168498D01*
X4627Y168429D01*
X4526Y168365D01*
X4498Y168335D01*
X4465Y168312D01*
X4389Y168220D01*
X4308Y168133D01*
X4288Y168098D01*
X4263Y168067D01*
X4212Y167959D01*
X4154Y167855D01*
X4144Y167815D01*
X4127Y167779D01*
X4105Y167662D01*
X4075Y167547D01*
X4071Y167487D01*
X4067Y167467D01*
X4069Y167446D01*
X4065Y167386D01*
X4065Y5334D01*
X4080Y5216D01*
X4087Y5097D01*
X4100Y5059D01*
X4105Y5018D01*
X4148Y4908D01*
X4185Y4795D01*
X4207Y4760D01*
X4222Y4723D01*
X4291Y4627D01*
X4355Y4526D01*
X4385Y4498D01*
X4408Y4465D01*
X4500Y4389D01*
X4587Y4308D01*
X4622Y4288D01*
X4653Y4263D01*
X4761Y4212D01*
X4865Y4154D01*
X4905Y4144D01*
X4941Y4127D01*
X5058Y4105D01*
X5173Y4075D01*
X5233Y4071D01*
X5253Y4067D01*
X5274Y4069D01*
X5334Y4065D01*
X199151Y4065D01*
X199269Y4080D01*
G37*
%LPC*%
G36*
X97997Y13561D02*
X97997Y13561D01*
X96211Y15347D01*
X96211Y17272D01*
X96196Y17390D01*
X96189Y17509D01*
X96176Y17547D01*
X96171Y17588D01*
X96128Y17698D01*
X96091Y17811D01*
X96069Y17846D01*
X96054Y17883D01*
X95985Y17979D01*
X95921Y18080D01*
X95891Y18108D01*
X95868Y18141D01*
X95776Y18217D01*
X95689Y18298D01*
X95654Y18318D01*
X95623Y18343D01*
X95515Y18394D01*
X95411Y18452D01*
X95371Y18462D01*
X95335Y18479D01*
X95218Y18501D01*
X95103Y18531D01*
X95043Y18535D01*
X95023Y18539D01*
X95002Y18537D01*
X94942Y18541D01*
X80761Y18541D01*
X43033Y56270D01*
X42955Y56330D01*
X42882Y56398D01*
X42829Y56427D01*
X42782Y56464D01*
X42691Y56504D01*
X42604Y56552D01*
X42545Y56567D01*
X42490Y56591D01*
X42392Y56606D01*
X42296Y56631D01*
X42196Y56637D01*
X42176Y56641D01*
X42163Y56639D01*
X42135Y56641D01*
X39023Y56641D01*
X36035Y57879D01*
X33749Y60165D01*
X32511Y63153D01*
X32511Y66387D01*
X33749Y69375D01*
X36035Y71661D01*
X39023Y72899D01*
X42257Y72899D01*
X45245Y71661D01*
X46092Y70813D01*
X46186Y70740D01*
X46276Y70662D01*
X46312Y70643D01*
X46344Y70618D01*
X46453Y70571D01*
X46559Y70517D01*
X46598Y70508D01*
X46636Y70492D01*
X46753Y70473D01*
X46869Y70447D01*
X46910Y70448D01*
X46950Y70442D01*
X47068Y70453D01*
X47187Y70457D01*
X47226Y70468D01*
X47266Y70472D01*
X47379Y70512D01*
X47493Y70545D01*
X47527Y70566D01*
X47566Y70580D01*
X47664Y70646D01*
X47767Y70707D01*
X47812Y70747D01*
X47829Y70758D01*
X47842Y70773D01*
X47887Y70813D01*
X48735Y71661D01*
X51723Y72899D01*
X54835Y72899D01*
X54934Y72911D01*
X55033Y72914D01*
X55091Y72931D01*
X55151Y72939D01*
X55243Y72975D01*
X55338Y73003D01*
X55390Y73033D01*
X55447Y73056D01*
X55527Y73114D01*
X55612Y73164D01*
X55687Y73230D01*
X55704Y73242D01*
X55712Y73252D01*
X55733Y73270D01*
X85841Y103379D01*
X94942Y103379D01*
X95060Y103394D01*
X95179Y103401D01*
X95217Y103414D01*
X95258Y103419D01*
X95368Y103462D01*
X95481Y103499D01*
X95516Y103521D01*
X95553Y103536D01*
X95649Y103605D01*
X95750Y103669D01*
X95778Y103699D01*
X95811Y103722D01*
X95887Y103814D01*
X95968Y103901D01*
X95988Y103936D01*
X96013Y103967D01*
X96064Y104075D01*
X96122Y104179D01*
X96132Y104219D01*
X96149Y104255D01*
X96171Y104372D01*
X96201Y104487D01*
X96205Y104547D01*
X96209Y104567D01*
X96207Y104588D01*
X96211Y104648D01*
X96211Y106573D01*
X97997Y108359D01*
X130523Y108359D01*
X132309Y106573D01*
X132309Y104648D01*
X132324Y104530D01*
X132331Y104411D01*
X132344Y104373D01*
X132349Y104332D01*
X132392Y104222D01*
X132429Y104109D01*
X132451Y104074D01*
X132466Y104037D01*
X132535Y103941D01*
X132599Y103840D01*
X132629Y103812D01*
X132652Y103779D01*
X132744Y103703D01*
X132831Y103622D01*
X132866Y103602D01*
X132897Y103577D01*
X133005Y103526D01*
X133109Y103468D01*
X133149Y103458D01*
X133185Y103441D01*
X133302Y103419D01*
X133417Y103389D01*
X133477Y103385D01*
X133497Y103381D01*
X133518Y103383D01*
X133578Y103379D01*
X135139Y103379D01*
X140835Y97683D01*
X140944Y97598D01*
X141051Y97509D01*
X141070Y97501D01*
X141086Y97488D01*
X141214Y97433D01*
X141339Y97374D01*
X141359Y97370D01*
X141378Y97362D01*
X141516Y97340D01*
X141652Y97314D01*
X141672Y97315D01*
X141692Y97312D01*
X141831Y97325D01*
X141969Y97334D01*
X141988Y97340D01*
X142008Y97342D01*
X142140Y97389D01*
X142271Y97432D01*
X142289Y97442D01*
X142308Y97449D01*
X142423Y97527D01*
X142540Y97602D01*
X142554Y97617D01*
X142571Y97628D01*
X142663Y97732D01*
X142758Y97833D01*
X142768Y97851D01*
X142781Y97866D01*
X142845Y97990D01*
X142912Y98112D01*
X142917Y98132D01*
X142926Y98150D01*
X142956Y98285D01*
X142991Y98420D01*
X142993Y98448D01*
X142996Y98460D01*
X142995Y98480D01*
X143001Y98581D01*
X143001Y99688D01*
X144787Y101474D01*
X158594Y101474D01*
X158732Y101491D01*
X158871Y101504D01*
X158890Y101511D01*
X158910Y101514D01*
X159039Y101565D01*
X159170Y101612D01*
X159187Y101623D01*
X159206Y101631D01*
X159318Y101712D01*
X159433Y101790D01*
X159447Y101806D01*
X159463Y101817D01*
X159552Y101925D01*
X159644Y102029D01*
X159653Y102047D01*
X159666Y102062D01*
X159725Y102188D01*
X159788Y102312D01*
X159793Y102332D01*
X159801Y102350D01*
X159827Y102486D01*
X159858Y102622D01*
X159857Y102643D01*
X159861Y102662D01*
X159852Y102801D01*
X159848Y102940D01*
X159843Y102960D01*
X159841Y102980D01*
X159799Y103112D01*
X159760Y103246D01*
X159750Y103263D01*
X159743Y103282D01*
X159669Y103400D01*
X159598Y103520D01*
X159580Y103541D01*
X159573Y103551D01*
X159558Y103565D01*
X159492Y103640D01*
X143363Y119770D01*
X143285Y119830D01*
X143212Y119898D01*
X143159Y119927D01*
X143112Y119964D01*
X143021Y120004D01*
X142934Y120052D01*
X142875Y120067D01*
X142820Y120091D01*
X142722Y120106D01*
X142626Y120131D01*
X142526Y120137D01*
X142506Y120141D01*
X142493Y120139D01*
X142465Y120141D01*
X133578Y120141D01*
X133460Y120126D01*
X133341Y120119D01*
X133303Y120106D01*
X133262Y120101D01*
X133152Y120058D01*
X133039Y120021D01*
X133004Y119999D01*
X132967Y119984D01*
X132871Y119915D01*
X132770Y119851D01*
X132742Y119821D01*
X132709Y119798D01*
X132633Y119706D01*
X132552Y119619D01*
X132532Y119584D01*
X132507Y119553D01*
X132456Y119445D01*
X132398Y119341D01*
X132388Y119301D01*
X132371Y119265D01*
X132349Y119148D01*
X132319Y119033D01*
X132315Y118973D01*
X132311Y118953D01*
X132313Y118932D01*
X132309Y118872D01*
X132309Y116947D01*
X130523Y115161D01*
X97997Y115161D01*
X96211Y116947D01*
X96211Y131973D01*
X97997Y133759D01*
X130523Y133759D01*
X132309Y131973D01*
X132309Y130048D01*
X132324Y129930D01*
X132331Y129811D01*
X132344Y129773D01*
X132349Y129732D01*
X132392Y129622D01*
X132429Y129509D01*
X132451Y129474D01*
X132466Y129437D01*
X132535Y129341D01*
X132599Y129240D01*
X132629Y129212D01*
X132652Y129179D01*
X132744Y129103D01*
X132831Y129022D01*
X132866Y129002D01*
X132897Y128977D01*
X133005Y128926D01*
X133109Y128868D01*
X133149Y128858D01*
X133185Y128841D01*
X133302Y128819D01*
X133417Y128789D01*
X133477Y128785D01*
X133497Y128781D01*
X133518Y128783D01*
X133578Y128779D01*
X146569Y128779D01*
X175769Y99579D01*
X175769Y56631D01*
X165980Y46843D01*
X163079Y43941D01*
X150611Y43941D01*
X138283Y56270D01*
X138205Y56330D01*
X138132Y56398D01*
X138079Y56427D01*
X138032Y56464D01*
X137941Y56504D01*
X137854Y56552D01*
X137795Y56567D01*
X137740Y56591D01*
X137642Y56606D01*
X137546Y56631D01*
X137446Y56637D01*
X137426Y56641D01*
X137413Y56639D01*
X137385Y56641D01*
X133578Y56641D01*
X133460Y56626D01*
X133341Y56619D01*
X133303Y56606D01*
X133262Y56601D01*
X133152Y56558D01*
X133039Y56521D01*
X133004Y56499D01*
X132967Y56484D01*
X132871Y56415D01*
X132770Y56351D01*
X132742Y56321D01*
X132709Y56298D01*
X132633Y56206D01*
X132552Y56119D01*
X132532Y56084D01*
X132507Y56053D01*
X132456Y55945D01*
X132398Y55841D01*
X132388Y55801D01*
X132371Y55765D01*
X132349Y55648D01*
X132319Y55533D01*
X132315Y55473D01*
X132311Y55453D01*
X132313Y55432D01*
X132309Y55372D01*
X132309Y40747D01*
X130523Y38961D01*
X97997Y38961D01*
X96211Y40747D01*
X96211Y42672D01*
X96196Y42790D01*
X96189Y42909D01*
X96176Y42947D01*
X96171Y42988D01*
X96128Y43098D01*
X96091Y43211D01*
X96069Y43246D01*
X96054Y43283D01*
X95985Y43379D01*
X95921Y43480D01*
X95891Y43508D01*
X95868Y43541D01*
X95776Y43617D01*
X95689Y43698D01*
X95654Y43718D01*
X95623Y43743D01*
X95515Y43794D01*
X95411Y43852D01*
X95371Y43862D01*
X95335Y43879D01*
X95218Y43901D01*
X95103Y43931D01*
X95043Y43935D01*
X95023Y43939D01*
X95002Y43937D01*
X94942Y43941D01*
X82031Y43941D01*
X69703Y56270D01*
X69625Y56330D01*
X69552Y56398D01*
X69499Y56427D01*
X69452Y56464D01*
X69361Y56504D01*
X69274Y56552D01*
X69215Y56567D01*
X69160Y56591D01*
X69062Y56606D01*
X68966Y56631D01*
X68866Y56637D01*
X68846Y56641D01*
X68833Y56639D01*
X68805Y56641D01*
X65693Y56641D01*
X62705Y57879D01*
X61223Y59362D01*
X61128Y59435D01*
X61039Y59513D01*
X61003Y59532D01*
X60971Y59557D01*
X60862Y59604D01*
X60756Y59658D01*
X60717Y59667D01*
X60679Y59683D01*
X60562Y59702D01*
X60446Y59728D01*
X60405Y59727D01*
X60365Y59733D01*
X60247Y59722D01*
X60128Y59718D01*
X60089Y59707D01*
X60049Y59703D01*
X59936Y59663D01*
X59822Y59630D01*
X59788Y59609D01*
X59749Y59595D01*
X59651Y59529D01*
X59548Y59468D01*
X59503Y59428D01*
X59486Y59417D01*
X59473Y59402D01*
X59428Y59362D01*
X57945Y57879D01*
X56655Y57345D01*
X56612Y57320D01*
X56565Y57303D01*
X56474Y57242D01*
X56379Y57187D01*
X56343Y57152D01*
X56302Y57125D01*
X56229Y57042D01*
X56150Y56966D01*
X56124Y56923D01*
X56091Y56886D01*
X56041Y56788D01*
X55984Y56695D01*
X55969Y56647D01*
X55947Y56603D01*
X55923Y56496D01*
X55890Y56391D01*
X55888Y56341D01*
X55877Y56293D01*
X55880Y56183D01*
X55875Y56073D01*
X55885Y56024D01*
X55887Y55975D01*
X55917Y55869D01*
X55940Y55762D01*
X55961Y55717D01*
X55975Y55669D01*
X56031Y55575D01*
X56079Y55476D01*
X56111Y55438D01*
X56137Y55395D01*
X56243Y55274D01*
X83967Y27550D01*
X84045Y27490D01*
X84118Y27422D01*
X84171Y27393D01*
X84218Y27356D01*
X84309Y27316D01*
X84396Y27268D01*
X84455Y27253D01*
X84510Y27229D01*
X84608Y27214D01*
X84704Y27189D01*
X84804Y27183D01*
X84824Y27179D01*
X84837Y27181D01*
X84865Y27179D01*
X94942Y27179D01*
X95060Y27194D01*
X95179Y27201D01*
X95217Y27214D01*
X95258Y27219D01*
X95368Y27262D01*
X95481Y27299D01*
X95516Y27321D01*
X95553Y27336D01*
X95649Y27405D01*
X95750Y27469D01*
X95778Y27499D01*
X95811Y27522D01*
X95887Y27614D01*
X95968Y27701D01*
X95988Y27736D01*
X96013Y27767D01*
X96064Y27875D01*
X96122Y27979D01*
X96132Y28019D01*
X96149Y28055D01*
X96171Y28172D01*
X96201Y28287D01*
X96205Y28347D01*
X96209Y28367D01*
X96207Y28388D01*
X96211Y28448D01*
X96211Y30373D01*
X97997Y32159D01*
X130523Y32159D01*
X132309Y30373D01*
X132309Y15347D01*
X130523Y13561D01*
X97997Y13561D01*
G37*
%LPD*%
%LPC*%
G36*
X262606Y8651D02*
X262606Y8651D01*
X257259Y10866D01*
X253166Y14959D01*
X250951Y20306D01*
X250951Y26094D01*
X253166Y31441D01*
X257259Y35534D01*
X262606Y37749D01*
X268394Y37749D01*
X273741Y35534D01*
X277834Y31441D01*
X280049Y26094D01*
X280049Y20306D01*
X277834Y14959D01*
X273741Y10866D01*
X268394Y8651D01*
X262606Y8651D01*
G37*
%LPD*%
%LPC*%
G36*
X15163Y15827D02*
X15163Y15827D01*
X12205Y17053D01*
X9941Y19317D01*
X8715Y22275D01*
X8715Y25477D01*
X9941Y28435D01*
X12205Y30699D01*
X15163Y31925D01*
X18365Y31925D01*
X21323Y30699D01*
X23587Y28435D01*
X24813Y25477D01*
X24813Y22275D01*
X23587Y19317D01*
X21323Y17053D01*
X18365Y15827D01*
X15163Y15827D01*
G37*
%LPD*%
%LPC*%
G36*
X116799Y152399D02*
X116799Y152399D01*
X116799Y158651D01*
X129594Y158651D01*
X130241Y158478D01*
X130820Y158143D01*
X131293Y157670D01*
X131628Y157091D01*
X131801Y156444D01*
X131801Y152399D01*
X116799Y152399D01*
G37*
%LPD*%
%LPC*%
G36*
X96719Y152399D02*
X96719Y152399D01*
X96719Y156444D01*
X96892Y157091D01*
X97227Y157670D01*
X97700Y158143D01*
X98279Y158478D01*
X98926Y158651D01*
X111721Y158651D01*
X111721Y152399D01*
X96719Y152399D01*
G37*
%LPD*%
%LPC*%
G36*
X116799Y141069D02*
X116799Y141069D01*
X116799Y147321D01*
X131801Y147321D01*
X131801Y143276D01*
X131628Y142629D01*
X131293Y142050D01*
X130820Y141577D01*
X130241Y141242D01*
X129594Y141069D01*
X116799Y141069D01*
G37*
%LPD*%
%LPC*%
G36*
X98926Y141069D02*
X98926Y141069D01*
X98279Y141242D01*
X97700Y141577D01*
X97227Y142050D01*
X96892Y142629D01*
X96719Y143276D01*
X96719Y147321D01*
X111721Y147321D01*
X111721Y141069D01*
X98926Y141069D01*
G37*
%LPD*%
%LPC*%
G36*
X114259Y149859D02*
X114259Y149859D01*
X114259Y149861D01*
X114261Y149861D01*
X114261Y149859D01*
X114259Y149859D01*
G37*
%LPD*%
D10*
X222504Y10163D02*
X220470Y6096D01*
X218437Y10163D01*
X215020Y6096D02*
X210952Y6096D01*
X210952Y10163D02*
X215020Y6096D01*
X210952Y10163D02*
X210952Y11180D01*
X211969Y12197D01*
X214003Y12197D01*
X215020Y11180D01*
X204485Y12197D02*
X204485Y6096D01*
X207536Y9147D02*
X204485Y12197D01*
X203468Y9147D02*
X207536Y9147D01*
D11*
X152400Y95250D03*
X152400Y86360D03*
X152400Y77470D03*
D12*
X114260Y73660D03*
X114260Y48260D03*
X114260Y22860D03*
X114260Y99060D03*
X114260Y124460D03*
X114260Y149860D03*
D13*
X16764Y23876D03*
X217932Y163576D03*
D14*
X180340Y36830D03*
X46990Y139700D03*
X31750Y96520D03*
X69850Y17780D03*
X135890Y111760D03*
D15*
X144780Y124460D02*
X114260Y124460D01*
X139700Y60960D02*
X152400Y48260D01*
X139700Y60960D02*
X95250Y60960D01*
X91440Y64770D01*
X144780Y124460D02*
X171450Y97790D01*
X171450Y58420D01*
X161290Y48260D01*
X152400Y48260D01*
D14*
X91440Y64770D03*
D15*
X82550Y22860D02*
X114260Y22860D01*
X82550Y22860D02*
X40640Y64770D01*
D14*
X40640Y64770D03*
D15*
X146050Y77470D02*
X152400Y77470D01*
X137160Y86360D02*
X91440Y86360D01*
X137160Y86360D02*
X146050Y77470D01*
D14*
X91440Y86360D03*
D15*
X77470Y73660D02*
X114260Y73660D01*
D14*
X77470Y73660D03*
D15*
X67310Y64770D02*
X83820Y48260D01*
X114260Y48260D01*
D14*
X67310Y64770D03*
D15*
X152400Y86360D02*
X152400Y93980D01*
X152400Y86360D02*
X146050Y86360D01*
X133350Y99060D02*
X114260Y99060D01*
X133350Y99060D02*
X146050Y86360D01*
X114260Y99060D02*
X87630Y99060D01*
X53340Y64770D01*
D14*
X53340Y64770D03*
D15*
X152400Y95250D02*
X162560Y95250D01*
X165100Y92710D01*
X165100Y64770D01*
X160020Y59690D01*
D14*
X160020Y59690D03*
M02*
