G04 EAGLE Gerber X2 export*
%TF.Part,Single*%
%TF.FileFunction,Copper,L1,Top,Mixed*%
%TF.FilePolarity,Positive*%
%TF.GenerationSoftware,Autodesk,EAGLE,9.1.0*%
%TF.CreationDate,2018-08-24T06:17:03Z*%
G75*
%MOMM*%
%FSLAX34Y34*%
%LPD*%
%AMOC8*
5,1,8,0,0,1.08239X$1,22.5*%
G01*
%ADD10R,1.100000X1.000000*%
%ADD11R,1.400000X1.600000*%
%ADD12R,0.348000X1.397000*%
%ADD13R,0.800000X0.800000*%
%ADD14C,1.000000*%
%ADD15R,4.000000X1.120000*%
%ADD16C,1.016000*%
%ADD17C,0.254000*%
%ADD18C,0.203200*%

G36*
X34712Y4082D02*
X34712Y4082D01*
X34851Y4095D01*
X34870Y4102D01*
X34890Y4105D01*
X35019Y4156D01*
X35150Y4203D01*
X35167Y4214D01*
X35186Y4222D01*
X35298Y4303D01*
X35413Y4381D01*
X35427Y4397D01*
X35443Y4408D01*
X35532Y4516D01*
X35624Y4620D01*
X35633Y4638D01*
X35646Y4653D01*
X35705Y4779D01*
X35768Y4903D01*
X35773Y4923D01*
X35781Y4941D01*
X35807Y5078D01*
X35838Y5213D01*
X35837Y5234D01*
X35841Y5253D01*
X35832Y5392D01*
X35828Y5531D01*
X35823Y5551D01*
X35821Y5571D01*
X35779Y5703D01*
X35740Y5837D01*
X35730Y5854D01*
X35723Y5873D01*
X35649Y5991D01*
X35578Y6111D01*
X35560Y6132D01*
X35553Y6142D01*
X35538Y6156D01*
X35472Y6231D01*
X33817Y7887D01*
X32591Y10845D01*
X32591Y14047D01*
X33817Y17005D01*
X35222Y18411D01*
X35295Y18505D01*
X35374Y18594D01*
X35393Y18630D01*
X35417Y18662D01*
X35465Y18772D01*
X35519Y18878D01*
X35528Y18917D01*
X35544Y18954D01*
X35562Y19072D01*
X35588Y19188D01*
X35587Y19228D01*
X35594Y19268D01*
X35582Y19387D01*
X35579Y19506D01*
X35568Y19545D01*
X35564Y19585D01*
X35523Y19697D01*
X35490Y19811D01*
X35470Y19846D01*
X35456Y19884D01*
X35389Y19983D01*
X35329Y20085D01*
X35289Y20130D01*
X35278Y20147D01*
X35262Y20161D01*
X35222Y20206D01*
X33751Y21677D01*
X33751Y22352D01*
X33736Y22470D01*
X33729Y22589D01*
X33716Y22627D01*
X33711Y22668D01*
X33668Y22778D01*
X33631Y22891D01*
X33609Y22926D01*
X33594Y22963D01*
X33525Y23059D01*
X33461Y23160D01*
X33431Y23188D01*
X33408Y23221D01*
X33316Y23297D01*
X33229Y23378D01*
X33194Y23398D01*
X33163Y23423D01*
X33055Y23474D01*
X32951Y23532D01*
X32911Y23542D01*
X32875Y23559D01*
X32758Y23581D01*
X32643Y23611D01*
X32583Y23615D01*
X32563Y23619D01*
X32542Y23617D01*
X32482Y23621D01*
X23611Y23621D01*
X8381Y38851D01*
X8381Y71050D01*
X8377Y71082D01*
X8380Y71114D01*
X8357Y71239D01*
X8341Y71366D01*
X8330Y71395D01*
X8324Y71427D01*
X8271Y71543D01*
X8224Y71661D01*
X8213Y71676D01*
X8374Y73187D01*
X8374Y73204D01*
X8381Y73321D01*
X8381Y74852D01*
X8445Y74934D01*
X8457Y74963D01*
X8476Y74989D01*
X8520Y75109D01*
X8571Y75225D01*
X8574Y75244D01*
X9756Y76198D01*
X9767Y76211D01*
X9856Y76288D01*
X10938Y77371D01*
X11041Y77384D01*
X11070Y77395D01*
X11102Y77401D01*
X11218Y77454D01*
X11336Y77501D01*
X11362Y77519D01*
X11391Y77533D01*
X11523Y77626D01*
X26266Y89533D01*
X26278Y89546D01*
X26366Y89623D01*
X27448Y90706D01*
X27551Y90719D01*
X27580Y90730D01*
X27612Y90736D01*
X27728Y90789D01*
X27846Y90836D01*
X27861Y90847D01*
X29372Y90686D01*
X29389Y90686D01*
X29506Y90679D01*
X83737Y90679D01*
X83835Y90691D01*
X83934Y90694D01*
X83993Y90711D01*
X84053Y90719D01*
X84145Y90755D01*
X84240Y90783D01*
X84292Y90813D01*
X84348Y90836D01*
X84428Y90894D01*
X84514Y90944D01*
X84589Y91010D01*
X84606Y91022D01*
X84614Y91032D01*
X84635Y91050D01*
X86835Y93251D01*
X89823Y94489D01*
X92935Y94489D01*
X93034Y94501D01*
X93133Y94504D01*
X93191Y94521D01*
X93251Y94529D01*
X93343Y94565D01*
X93438Y94593D01*
X93490Y94623D01*
X93547Y94646D01*
X93627Y94704D01*
X93712Y94754D01*
X93787Y94820D01*
X93804Y94832D01*
X93812Y94842D01*
X93833Y94860D01*
X100760Y101787D01*
X100820Y101865D01*
X100888Y101938D01*
X100917Y101991D01*
X100954Y102038D01*
X100994Y102129D01*
X101042Y102216D01*
X101057Y102275D01*
X101081Y102330D01*
X101096Y102428D01*
X101121Y102524D01*
X101127Y102624D01*
X101131Y102644D01*
X101129Y102657D01*
X101131Y102685D01*
X101131Y112125D01*
X101116Y112243D01*
X101109Y112362D01*
X101096Y112400D01*
X101091Y112441D01*
X101048Y112551D01*
X101011Y112664D01*
X100989Y112699D01*
X100974Y112736D01*
X100905Y112832D01*
X100841Y112933D01*
X100811Y112961D01*
X100788Y112994D01*
X100696Y113070D01*
X100609Y113151D01*
X100574Y113171D01*
X100543Y113196D01*
X100435Y113247D01*
X100331Y113305D01*
X100291Y113315D01*
X100255Y113332D01*
X100219Y113339D01*
X100219Y122920D01*
X100219Y132446D01*
X101024Y132446D01*
X101038Y132442D01*
X101143Y132428D01*
X101246Y132405D01*
X101300Y132406D01*
X101353Y132399D01*
X101458Y132411D01*
X101564Y132414D01*
X101615Y132429D01*
X101669Y132435D01*
X101768Y132473D01*
X101869Y132503D01*
X101916Y132530D01*
X101966Y132549D01*
X102052Y132610D01*
X102143Y132664D01*
X102207Y132721D01*
X102225Y132733D01*
X102235Y132745D01*
X102264Y132771D01*
X102708Y133215D01*
X102793Y133324D01*
X102882Y133431D01*
X102890Y133450D01*
X102903Y133466D01*
X102958Y133594D01*
X103017Y133719D01*
X103021Y133739D01*
X103029Y133758D01*
X103051Y133896D01*
X103077Y134032D01*
X103076Y134052D01*
X103079Y134072D01*
X103066Y134211D01*
X103057Y134349D01*
X103051Y134368D01*
X103049Y134388D01*
X103002Y134520D01*
X102959Y134651D01*
X102949Y134669D01*
X102942Y134688D01*
X102864Y134803D01*
X102789Y134920D01*
X102774Y134934D01*
X102763Y134951D01*
X102659Y135043D01*
X102558Y135138D01*
X102540Y135148D01*
X102525Y135161D01*
X102401Y135224D01*
X102279Y135292D01*
X102260Y135297D01*
X102241Y135306D01*
X102106Y135336D01*
X101971Y135371D01*
X101943Y135373D01*
X101931Y135376D01*
X101911Y135375D01*
X101810Y135381D01*
X96090Y135381D01*
X95952Y135364D01*
X95813Y135351D01*
X95794Y135344D01*
X95774Y135341D01*
X95645Y135290D01*
X95514Y135243D01*
X95497Y135232D01*
X95478Y135224D01*
X95366Y135143D01*
X95251Y135065D01*
X95237Y135049D01*
X95221Y135038D01*
X95132Y134930D01*
X95040Y134826D01*
X95031Y134808D01*
X95018Y134793D01*
X94959Y134667D01*
X94896Y134543D01*
X94891Y134523D01*
X94883Y134505D01*
X94857Y134369D01*
X94826Y134233D01*
X94827Y134212D01*
X94823Y134193D01*
X94831Y134054D01*
X94836Y133915D01*
X94841Y133895D01*
X94843Y133875D01*
X94886Y133743D01*
X94924Y133609D01*
X94934Y133592D01*
X94941Y133573D01*
X95015Y133455D01*
X95086Y133335D01*
X95104Y133314D01*
X95111Y133304D01*
X95126Y133290D01*
X95192Y133215D01*
X95636Y132771D01*
X95720Y132706D01*
X95797Y132634D01*
X95845Y132609D01*
X95887Y132576D01*
X95984Y132534D01*
X96078Y132484D01*
X96130Y132471D01*
X96179Y132449D01*
X96284Y132433D01*
X96386Y132407D01*
X96440Y132408D01*
X96493Y132399D01*
X96599Y132409D01*
X96704Y132410D01*
X96788Y132427D01*
X96810Y132429D01*
X96825Y132435D01*
X96862Y132442D01*
X96876Y132446D01*
X97681Y132446D01*
X97681Y122920D01*
X97681Y113394D01*
X96876Y113394D01*
X96862Y113398D01*
X96757Y113412D01*
X96654Y113435D01*
X96600Y113434D01*
X96547Y113441D01*
X96442Y113429D01*
X96336Y113426D01*
X96285Y113411D01*
X96231Y113405D01*
X96132Y113367D01*
X96031Y113337D01*
X95984Y113310D01*
X95934Y113291D01*
X95848Y113230D01*
X95757Y113176D01*
X95693Y113119D01*
X95675Y113107D01*
X95665Y113095D01*
X95636Y113069D01*
X95453Y112886D01*
X91538Y112886D01*
X91420Y112871D01*
X91301Y112864D01*
X91263Y112851D01*
X91222Y112846D01*
X91112Y112803D01*
X90999Y112766D01*
X90964Y112744D01*
X90927Y112729D01*
X90831Y112660D01*
X90730Y112596D01*
X90702Y112566D01*
X90669Y112543D01*
X90593Y112451D01*
X90512Y112364D01*
X90492Y112329D01*
X90467Y112298D01*
X90416Y112190D01*
X90358Y112086D01*
X90348Y112046D01*
X90331Y112010D01*
X90309Y111893D01*
X90279Y111778D01*
X90275Y111718D01*
X90271Y111698D01*
X90273Y111677D01*
X90269Y111617D01*
X90269Y107021D01*
X87240Y103993D01*
X84339Y101091D01*
X31231Y101091D01*
X26523Y105800D01*
X23621Y108701D01*
X23621Y141489D01*
X26523Y144390D01*
X26857Y144725D01*
X26942Y144834D01*
X27031Y144941D01*
X27039Y144960D01*
X27052Y144976D01*
X27107Y145104D01*
X27166Y145229D01*
X27170Y145249D01*
X27178Y145268D01*
X27200Y145406D01*
X27226Y145542D01*
X27225Y145562D01*
X27228Y145582D01*
X27215Y145721D01*
X27206Y145859D01*
X27200Y145878D01*
X27198Y145898D01*
X27151Y146030D01*
X27108Y146161D01*
X27098Y146179D01*
X27091Y146198D01*
X27013Y146313D01*
X26938Y146430D01*
X26923Y146444D01*
X26912Y146461D01*
X26808Y146553D01*
X26707Y146648D01*
X26689Y146658D01*
X26674Y146671D01*
X26550Y146734D01*
X26428Y146802D01*
X26408Y146807D01*
X26390Y146816D01*
X26255Y146846D01*
X26120Y146881D01*
X26092Y146883D01*
X26080Y146886D01*
X26060Y146885D01*
X25959Y146891D01*
X25377Y146891D01*
X23591Y148677D01*
X23591Y161203D01*
X25377Y162989D01*
X38903Y162989D01*
X39743Y162149D01*
X39837Y162076D01*
X39926Y161997D01*
X39962Y161979D01*
X39994Y161954D01*
X40103Y161907D01*
X40209Y161853D01*
X40248Y161844D01*
X40286Y161828D01*
X40403Y161809D01*
X40519Y161783D01*
X40560Y161784D01*
X40600Y161778D01*
X40718Y161789D01*
X40837Y161793D01*
X40876Y161804D01*
X40916Y161808D01*
X41028Y161848D01*
X41143Y161881D01*
X41178Y161902D01*
X41216Y161915D01*
X41314Y161982D01*
X41417Y162043D01*
X41462Y162082D01*
X41479Y162094D01*
X41492Y162109D01*
X41538Y162149D01*
X42377Y162989D01*
X55903Y162989D01*
X56531Y162360D01*
X56609Y162300D01*
X56681Y162232D01*
X56734Y162203D01*
X56782Y162166D01*
X56873Y162126D01*
X56960Y162078D01*
X57019Y162063D01*
X57074Y162039D01*
X57172Y162024D01*
X57268Y161999D01*
X57368Y161993D01*
X57388Y161989D01*
X57401Y161991D01*
X57429Y161989D01*
X67613Y161989D01*
X68953Y160649D01*
X69047Y160576D01*
X69136Y160497D01*
X69172Y160479D01*
X69204Y160454D01*
X69313Y160407D01*
X69419Y160353D01*
X69458Y160344D01*
X69496Y160328D01*
X69613Y160309D01*
X69729Y160283D01*
X69770Y160284D01*
X69810Y160278D01*
X69928Y160289D01*
X70047Y160293D01*
X70086Y160304D01*
X70126Y160308D01*
X70238Y160348D01*
X70353Y160381D01*
X70388Y160402D01*
X70426Y160415D01*
X70524Y160482D01*
X70627Y160543D01*
X70672Y160582D01*
X70689Y160594D01*
X70702Y160609D01*
X70748Y160649D01*
X72087Y161989D01*
X82856Y161989D01*
X82948Y161974D01*
X83064Y161948D01*
X83105Y161949D01*
X83144Y161943D01*
X83263Y161954D01*
X83382Y161958D01*
X83421Y161969D01*
X83461Y161973D01*
X83506Y161989D01*
X94283Y161989D01*
X95622Y160649D01*
X95717Y160576D01*
X95806Y160497D01*
X95842Y160479D01*
X95874Y160454D01*
X95983Y160407D01*
X96089Y160353D01*
X96128Y160344D01*
X96166Y160328D01*
X96283Y160309D01*
X96399Y160283D01*
X96440Y160284D01*
X96480Y160278D01*
X96598Y160289D01*
X96717Y160293D01*
X96756Y160304D01*
X96796Y160308D01*
X96909Y160348D01*
X97023Y160381D01*
X97057Y160402D01*
X97096Y160415D01*
X97194Y160482D01*
X97297Y160543D01*
X97342Y160583D01*
X97359Y160594D01*
X97372Y160609D01*
X97417Y160649D01*
X98757Y161989D01*
X108941Y161989D01*
X109040Y162001D01*
X109139Y162004D01*
X109197Y162021D01*
X109257Y162029D01*
X109349Y162065D01*
X109444Y162093D01*
X109496Y162123D01*
X109553Y162146D01*
X109633Y162204D01*
X109718Y162254D01*
X109793Y162320D01*
X109810Y162332D01*
X109818Y162342D01*
X109839Y162360D01*
X110467Y162989D01*
X123993Y162989D01*
X124833Y162149D01*
X124927Y162076D01*
X125016Y161997D01*
X125052Y161979D01*
X125084Y161954D01*
X125193Y161907D01*
X125299Y161853D01*
X125338Y161844D01*
X125376Y161828D01*
X125493Y161809D01*
X125609Y161783D01*
X125650Y161784D01*
X125690Y161778D01*
X125808Y161789D01*
X125927Y161793D01*
X125966Y161804D01*
X126006Y161808D01*
X126118Y161848D01*
X126233Y161881D01*
X126268Y161902D01*
X126306Y161915D01*
X126404Y161982D01*
X126507Y162043D01*
X126552Y162082D01*
X126569Y162094D01*
X126582Y162109D01*
X126628Y162149D01*
X127467Y162989D01*
X140993Y162989D01*
X142779Y161203D01*
X142779Y160528D01*
X142794Y160410D01*
X142801Y160291D01*
X142814Y160253D01*
X142819Y160212D01*
X142862Y160102D01*
X142899Y159989D01*
X142921Y159954D01*
X142936Y159917D01*
X143005Y159821D01*
X143069Y159720D01*
X143099Y159692D01*
X143122Y159659D01*
X143214Y159583D01*
X143301Y159502D01*
X143336Y159482D01*
X143367Y159457D01*
X143475Y159406D01*
X143579Y159348D01*
X143619Y159338D01*
X143655Y159321D01*
X143772Y159299D01*
X143887Y159269D01*
X143947Y159265D01*
X143967Y159261D01*
X143988Y159263D01*
X144048Y159259D01*
X177049Y159259D01*
X194819Y141489D01*
X194819Y121695D01*
X194831Y121596D01*
X194834Y121497D01*
X194851Y121439D01*
X194859Y121379D01*
X194895Y121287D01*
X194923Y121192D01*
X194953Y121140D01*
X194976Y121083D01*
X195034Y121003D01*
X195084Y120918D01*
X195150Y120843D01*
X195162Y120826D01*
X195172Y120818D01*
X195190Y120797D01*
X198267Y117720D01*
X201169Y114819D01*
X201169Y113030D01*
X201184Y112912D01*
X201191Y112793D01*
X201204Y112755D01*
X201209Y112714D01*
X201252Y112604D01*
X201289Y112491D01*
X201311Y112456D01*
X201326Y112419D01*
X201395Y112323D01*
X201459Y112222D01*
X201489Y112194D01*
X201512Y112161D01*
X201604Y112085D01*
X201691Y112004D01*
X201726Y111984D01*
X201757Y111959D01*
X201865Y111908D01*
X201969Y111850D01*
X202009Y111840D01*
X202045Y111823D01*
X202162Y111801D01*
X202277Y111771D01*
X202337Y111767D01*
X202357Y111763D01*
X202378Y111765D01*
X202438Y111761D01*
X251620Y111761D01*
X256033Y107348D01*
X256033Y70452D01*
X249743Y64163D01*
X249670Y64069D01*
X249592Y63980D01*
X249573Y63944D01*
X249549Y63912D01*
X249501Y63802D01*
X249447Y63697D01*
X249438Y63657D01*
X249422Y63620D01*
X249403Y63502D01*
X249377Y63386D01*
X249379Y63346D01*
X249372Y63306D01*
X249383Y63187D01*
X249387Y63068D01*
X249398Y63029D01*
X249402Y62989D01*
X249442Y62877D01*
X249476Y62763D01*
X249496Y62728D01*
X249510Y62690D01*
X249577Y62591D01*
X249637Y62489D01*
X249677Y62444D01*
X249688Y62427D01*
X249704Y62413D01*
X249743Y62368D01*
X251349Y60763D01*
X251349Y47037D01*
X249563Y45251D01*
X207037Y45251D01*
X205251Y47037D01*
X205251Y48514D01*
X205236Y48632D01*
X205229Y48751D01*
X205216Y48789D01*
X205211Y48830D01*
X205168Y48940D01*
X205131Y49053D01*
X205109Y49088D01*
X205094Y49125D01*
X205025Y49221D01*
X204961Y49322D01*
X204931Y49350D01*
X204908Y49383D01*
X204816Y49459D01*
X204729Y49540D01*
X204694Y49560D01*
X204663Y49585D01*
X204555Y49636D01*
X204451Y49694D01*
X204411Y49704D01*
X204375Y49721D01*
X204258Y49743D01*
X204143Y49773D01*
X204083Y49777D01*
X204063Y49781D01*
X204042Y49779D01*
X203982Y49783D01*
X187121Y49783D01*
X187023Y49771D01*
X186924Y49768D01*
X186866Y49751D01*
X186806Y49743D01*
X186714Y49707D01*
X186619Y49679D01*
X186567Y49649D01*
X186510Y49626D01*
X186430Y49568D01*
X186345Y49518D01*
X186269Y49452D01*
X186253Y49440D01*
X186245Y49430D01*
X186224Y49412D01*
X175420Y38607D01*
X131601Y38607D01*
X131502Y38595D01*
X131403Y38592D01*
X131345Y38575D01*
X131285Y38567D01*
X131193Y38531D01*
X131098Y38503D01*
X131046Y38473D01*
X130989Y38450D01*
X130909Y38392D01*
X130824Y38342D01*
X130749Y38276D01*
X130732Y38264D01*
X130724Y38254D01*
X130703Y38236D01*
X128417Y35950D01*
X126020Y33553D01*
X125960Y33475D01*
X125892Y33403D01*
X125863Y33350D01*
X125826Y33302D01*
X125786Y33211D01*
X125738Y33124D01*
X125723Y33065D01*
X125699Y33010D01*
X125684Y32912D01*
X125659Y32816D01*
X125653Y32716D01*
X125649Y32696D01*
X125651Y32683D01*
X125649Y32655D01*
X125649Y18677D01*
X123863Y16891D01*
X107337Y16891D01*
X105551Y18677D01*
X105551Y37203D01*
X105948Y37600D01*
X106033Y37709D01*
X106122Y37816D01*
X106130Y37835D01*
X106143Y37851D01*
X106198Y37979D01*
X106257Y38104D01*
X106261Y38124D01*
X106269Y38143D01*
X106291Y38281D01*
X106317Y38417D01*
X106316Y38437D01*
X106319Y38457D01*
X106306Y38596D01*
X106297Y38734D01*
X106291Y38753D01*
X106289Y38773D01*
X106242Y38904D01*
X106199Y39036D01*
X106189Y39054D01*
X106182Y39073D01*
X106104Y39187D01*
X106029Y39305D01*
X106014Y39319D01*
X106003Y39336D01*
X105899Y39428D01*
X105798Y39523D01*
X105780Y39533D01*
X105765Y39546D01*
X105641Y39609D01*
X105519Y39677D01*
X105500Y39682D01*
X105481Y39691D01*
X105346Y39721D01*
X105211Y39756D01*
X105183Y39758D01*
X105171Y39761D01*
X105151Y39760D01*
X105050Y39766D01*
X97431Y39766D01*
X97293Y39749D01*
X97155Y39736D01*
X97136Y39729D01*
X97116Y39726D01*
X96987Y39675D01*
X96855Y39628D01*
X96839Y39617D01*
X96820Y39609D01*
X96708Y39528D01*
X96592Y39450D01*
X96579Y39434D01*
X96563Y39423D01*
X96474Y39315D01*
X96382Y39211D01*
X96373Y39193D01*
X96360Y39178D01*
X96300Y39052D01*
X96237Y38928D01*
X96233Y38908D01*
X96224Y38890D01*
X96198Y38753D01*
X96168Y38618D01*
X96168Y38597D01*
X96164Y38578D01*
X96173Y38439D01*
X96177Y38300D01*
X96183Y38280D01*
X96184Y38260D01*
X96227Y38128D01*
X96266Y37994D01*
X96276Y37977D01*
X96282Y37958D01*
X96357Y37840D01*
X96427Y37720D01*
X96446Y37699D01*
X96452Y37689D01*
X96467Y37675D01*
X96534Y37599D01*
X96633Y37500D01*
X96968Y36921D01*
X97141Y36274D01*
X97141Y30479D01*
X88870Y30479D01*
X88752Y30464D01*
X88633Y30457D01*
X88595Y30444D01*
X88555Y30439D01*
X88444Y30395D01*
X88331Y30359D01*
X88296Y30337D01*
X88259Y30322D01*
X88163Y30252D01*
X88062Y30189D01*
X88034Y30159D01*
X88002Y30135D01*
X87926Y30044D01*
X87844Y29957D01*
X87825Y29922D01*
X87799Y29890D01*
X87748Y29783D01*
X87691Y29679D01*
X87680Y29639D01*
X87663Y29603D01*
X87641Y29486D01*
X87611Y29371D01*
X87607Y29310D01*
X87603Y29290D01*
X87605Y29270D01*
X87601Y29210D01*
X87601Y27939D01*
X87599Y27939D01*
X87599Y29210D01*
X87584Y29328D01*
X87577Y29447D01*
X87564Y29485D01*
X87559Y29525D01*
X87515Y29636D01*
X87479Y29749D01*
X87457Y29784D01*
X87442Y29821D01*
X87372Y29917D01*
X87309Y30018D01*
X87279Y30046D01*
X87255Y30078D01*
X87164Y30154D01*
X87077Y30236D01*
X87042Y30255D01*
X87010Y30281D01*
X86903Y30332D01*
X86799Y30389D01*
X86759Y30400D01*
X86723Y30417D01*
X86606Y30439D01*
X86491Y30469D01*
X86430Y30473D01*
X86410Y30477D01*
X86390Y30475D01*
X86330Y30479D01*
X78059Y30479D01*
X78059Y36274D01*
X78232Y36921D01*
X78567Y37500D01*
X78666Y37599D01*
X78751Y37709D01*
X78840Y37816D01*
X78849Y37835D01*
X78861Y37851D01*
X78917Y37978D01*
X78976Y38104D01*
X78980Y38124D01*
X78988Y38143D01*
X79010Y38280D01*
X79036Y38417D01*
X79034Y38437D01*
X79038Y38457D01*
X79025Y38595D01*
X79016Y38734D01*
X79010Y38753D01*
X79008Y38773D01*
X78961Y38904D01*
X78918Y39036D01*
X78907Y39054D01*
X78900Y39073D01*
X78822Y39187D01*
X78748Y39305D01*
X78733Y39319D01*
X78722Y39336D01*
X78618Y39427D01*
X78516Y39523D01*
X78498Y39533D01*
X78483Y39546D01*
X78359Y39609D01*
X78238Y39677D01*
X78218Y39682D01*
X78200Y39691D01*
X78064Y39721D01*
X77930Y39756D01*
X77902Y39758D01*
X77890Y39761D01*
X77869Y39760D01*
X77769Y39766D01*
X76447Y39766D01*
X76264Y39949D01*
X76180Y40014D01*
X76103Y40086D01*
X76055Y40111D01*
X76013Y40144D01*
X75916Y40186D01*
X75823Y40236D01*
X75770Y40249D01*
X75721Y40271D01*
X75616Y40287D01*
X75514Y40313D01*
X75460Y40312D01*
X75407Y40321D01*
X75301Y40311D01*
X75196Y40310D01*
X75112Y40293D01*
X75090Y40291D01*
X75075Y40285D01*
X75038Y40278D01*
X75025Y40274D01*
X74219Y40274D01*
X74219Y49800D01*
X74204Y49918D01*
X74197Y50037D01*
X74185Y50075D01*
X74180Y50115D01*
X74136Y50226D01*
X74099Y50339D01*
X74077Y50373D01*
X74063Y50411D01*
X73993Y50507D01*
X73929Y50608D01*
X73899Y50636D01*
X73876Y50668D01*
X73784Y50744D01*
X73697Y50826D01*
X73662Y50845D01*
X73631Y50871D01*
X73523Y50922D01*
X73419Y50979D01*
X73380Y50989D01*
X73343Y51007D01*
X73226Y51029D01*
X73111Y51059D01*
X73051Y51063D01*
X73031Y51066D01*
X73030Y51066D01*
X73010Y51065D01*
X72950Y51069D01*
X72832Y51054D01*
X72713Y51047D01*
X72674Y51034D01*
X72634Y51029D01*
X72524Y50985D01*
X72410Y50949D01*
X72376Y50927D01*
X72339Y50912D01*
X72242Y50842D01*
X72142Y50778D01*
X72114Y50749D01*
X72081Y50725D01*
X72005Y50633D01*
X71924Y50547D01*
X71904Y50511D01*
X71878Y50480D01*
X71828Y50373D01*
X71770Y50268D01*
X71760Y50229D01*
X71743Y50193D01*
X71721Y50076D01*
X71691Y49960D01*
X71687Y49900D01*
X71683Y49880D01*
X71684Y49860D01*
X71681Y49800D01*
X71681Y40274D01*
X70875Y40274D01*
X70862Y40278D01*
X70757Y40292D01*
X70654Y40315D01*
X70600Y40314D01*
X70547Y40321D01*
X70442Y40309D01*
X70336Y40306D01*
X70285Y40291D01*
X70231Y40285D01*
X70132Y40247D01*
X70031Y40217D01*
X69984Y40190D01*
X69934Y40171D01*
X69848Y40110D01*
X69757Y40056D01*
X69692Y39999D01*
X69675Y39987D01*
X69665Y39975D01*
X69636Y39949D01*
X69453Y39766D01*
X30947Y39766D01*
X29161Y41552D01*
X29161Y44212D01*
X29146Y44330D01*
X29139Y44449D01*
X29126Y44487D01*
X29121Y44528D01*
X29078Y44638D01*
X29041Y44751D01*
X29019Y44786D01*
X29004Y44823D01*
X28935Y44919D01*
X28871Y45020D01*
X28841Y45048D01*
X28818Y45081D01*
X28726Y45157D01*
X28639Y45238D01*
X28604Y45258D01*
X28573Y45283D01*
X28465Y45334D01*
X28361Y45392D01*
X28321Y45402D01*
X28285Y45419D01*
X28168Y45441D01*
X28053Y45471D01*
X27993Y45475D01*
X27973Y45479D01*
X27952Y45477D01*
X27892Y45481D01*
X23341Y45481D01*
X19185Y49637D01*
X19076Y49722D01*
X18969Y49811D01*
X18950Y49819D01*
X18934Y49832D01*
X18806Y49887D01*
X18681Y49946D01*
X18661Y49950D01*
X18642Y49958D01*
X18504Y49980D01*
X18368Y50006D01*
X18348Y50005D01*
X18328Y50008D01*
X18189Y49995D01*
X18051Y49986D01*
X18032Y49980D01*
X18012Y49978D01*
X17880Y49931D01*
X17749Y49888D01*
X17731Y49878D01*
X17712Y49871D01*
X17597Y49793D01*
X17480Y49718D01*
X17466Y49703D01*
X17449Y49692D01*
X17357Y49588D01*
X17262Y49487D01*
X17252Y49469D01*
X17239Y49454D01*
X17175Y49330D01*
X17108Y49208D01*
X17103Y49188D01*
X17094Y49170D01*
X17064Y49035D01*
X17029Y48900D01*
X17027Y48872D01*
X17024Y48860D01*
X17025Y48840D01*
X17019Y48739D01*
X17019Y42955D01*
X17031Y42856D01*
X17034Y42757D01*
X17051Y42699D01*
X17059Y42639D01*
X17095Y42547D01*
X17123Y42452D01*
X17153Y42400D01*
X17176Y42343D01*
X17234Y42263D01*
X17284Y42178D01*
X17350Y42103D01*
X17362Y42086D01*
X17372Y42078D01*
X17390Y42057D01*
X26817Y32630D01*
X26895Y32570D01*
X26968Y32502D01*
X27021Y32473D01*
X27068Y32436D01*
X27159Y32396D01*
X27246Y32348D01*
X27305Y32333D01*
X27360Y32309D01*
X27458Y32294D01*
X27554Y32269D01*
X27654Y32263D01*
X27674Y32259D01*
X27687Y32261D01*
X27715Y32259D01*
X32482Y32259D01*
X32600Y32274D01*
X32719Y32281D01*
X32757Y32294D01*
X32798Y32299D01*
X32908Y32342D01*
X33021Y32379D01*
X33056Y32401D01*
X33093Y32416D01*
X33189Y32485D01*
X33290Y32549D01*
X33318Y32579D01*
X33351Y32602D01*
X33427Y32694D01*
X33508Y32781D01*
X33528Y32816D01*
X33553Y32847D01*
X33604Y32955D01*
X33662Y33059D01*
X33672Y33099D01*
X33689Y33135D01*
X33711Y33252D01*
X33741Y33367D01*
X33745Y33427D01*
X33749Y33447D01*
X33747Y33468D01*
X33751Y33528D01*
X33751Y34203D01*
X35537Y35989D01*
X49063Y35989D01*
X50262Y34790D01*
X50356Y34717D01*
X50445Y34638D01*
X50481Y34620D01*
X50513Y34595D01*
X50622Y34548D01*
X50728Y34493D01*
X50768Y34485D01*
X50805Y34469D01*
X50923Y34450D01*
X51039Y34424D01*
X51079Y34425D01*
X51119Y34419D01*
X51238Y34430D01*
X51356Y34433D01*
X51395Y34445D01*
X51436Y34449D01*
X51548Y34489D01*
X51662Y34522D01*
X51697Y34542D01*
X51735Y34556D01*
X51833Y34623D01*
X51936Y34683D01*
X51981Y34723D01*
X51998Y34735D01*
X52011Y34750D01*
X52057Y34790D01*
X52240Y34973D01*
X52819Y35308D01*
X53466Y35481D01*
X56801Y35481D01*
X56801Y29170D01*
X56816Y29052D01*
X56823Y28933D01*
X56835Y28895D01*
X56841Y28855D01*
X56884Y28744D01*
X56921Y28631D01*
X56943Y28597D01*
X56958Y28559D01*
X57027Y28463D01*
X57091Y28362D01*
X57121Y28334D01*
X57144Y28302D01*
X57236Y28226D01*
X57323Y28144D01*
X57358Y28125D01*
X57389Y28099D01*
X57497Y28048D01*
X57601Y27991D01*
X57641Y27981D01*
X57677Y27963D01*
X57784Y27943D01*
X57754Y27939D01*
X57644Y27895D01*
X57531Y27859D01*
X57496Y27837D01*
X57459Y27822D01*
X57362Y27752D01*
X57262Y27689D01*
X57234Y27659D01*
X57201Y27635D01*
X57125Y27544D01*
X57044Y27457D01*
X57024Y27422D01*
X56999Y27390D01*
X56948Y27283D01*
X56890Y27178D01*
X56880Y27139D01*
X56863Y27103D01*
X56841Y26986D01*
X56811Y26870D01*
X56807Y26810D01*
X56803Y26790D01*
X56805Y26770D01*
X56801Y26710D01*
X56801Y20399D01*
X53466Y20399D01*
X52819Y20572D01*
X52240Y20907D01*
X52057Y21090D01*
X51963Y21163D01*
X51873Y21242D01*
X51837Y21260D01*
X51805Y21285D01*
X51696Y21332D01*
X51590Y21387D01*
X51551Y21395D01*
X51514Y21411D01*
X51396Y21430D01*
X51280Y21456D01*
X51239Y21455D01*
X51199Y21461D01*
X51081Y21450D01*
X50962Y21447D01*
X50923Y21435D01*
X50883Y21431D01*
X50771Y21391D01*
X50656Y21358D01*
X50622Y21338D01*
X50584Y21324D01*
X50485Y21257D01*
X50383Y21197D01*
X50337Y21157D01*
X50320Y21145D01*
X50307Y21130D01*
X50262Y21090D01*
X49063Y19891D01*
X47642Y19891D01*
X47504Y19874D01*
X47365Y19861D01*
X47346Y19854D01*
X47326Y19851D01*
X47197Y19800D01*
X47066Y19753D01*
X47049Y19742D01*
X47030Y19734D01*
X46918Y19653D01*
X46803Y19575D01*
X46789Y19559D01*
X46773Y19548D01*
X46684Y19440D01*
X46592Y19336D01*
X46583Y19318D01*
X46570Y19303D01*
X46511Y19177D01*
X46448Y19053D01*
X46443Y19033D01*
X46435Y19015D01*
X46409Y18878D01*
X46378Y18743D01*
X46379Y18722D01*
X46375Y18703D01*
X46384Y18564D01*
X46388Y18425D01*
X46393Y18405D01*
X46395Y18385D01*
X46437Y18253D01*
X46476Y18119D01*
X46486Y18102D01*
X46493Y18083D01*
X46567Y17965D01*
X46638Y17845D01*
X46656Y17824D01*
X46663Y17814D01*
X46678Y17800D01*
X46744Y17725D01*
X47463Y17005D01*
X48689Y14047D01*
X48689Y10845D01*
X47463Y7887D01*
X45808Y6231D01*
X45723Y6122D01*
X45634Y6015D01*
X45626Y5996D01*
X45613Y5980D01*
X45558Y5852D01*
X45499Y5727D01*
X45495Y5707D01*
X45487Y5688D01*
X45465Y5550D01*
X45439Y5414D01*
X45440Y5394D01*
X45437Y5374D01*
X45450Y5235D01*
X45459Y5097D01*
X45465Y5078D01*
X45467Y5058D01*
X45514Y4926D01*
X45557Y4795D01*
X45568Y4777D01*
X45574Y4758D01*
X45652Y4643D01*
X45727Y4526D01*
X45742Y4512D01*
X45753Y4495D01*
X45857Y4403D01*
X45958Y4308D01*
X45976Y4298D01*
X45991Y4285D01*
X46116Y4221D01*
X46237Y4154D01*
X46257Y4149D01*
X46275Y4140D01*
X46410Y4110D01*
X46545Y4075D01*
X46573Y4073D01*
X46585Y4070D01*
X46605Y4071D01*
X46706Y4065D01*
X286766Y4065D01*
X286884Y4080D01*
X287003Y4087D01*
X287041Y4100D01*
X287082Y4105D01*
X287192Y4148D01*
X287305Y4185D01*
X287340Y4207D01*
X287377Y4222D01*
X287473Y4291D01*
X287574Y4355D01*
X287602Y4385D01*
X287635Y4408D01*
X287711Y4500D01*
X287792Y4587D01*
X287812Y4622D01*
X287837Y4653D01*
X287888Y4761D01*
X287946Y4865D01*
X287956Y4905D01*
X287973Y4941D01*
X287995Y5058D01*
X288025Y5173D01*
X288029Y5233D01*
X288033Y5253D01*
X288031Y5274D01*
X288035Y5334D01*
X288035Y167386D01*
X288020Y167504D01*
X288013Y167623D01*
X288000Y167661D01*
X287995Y167702D01*
X287952Y167812D01*
X287915Y167925D01*
X287893Y167960D01*
X287878Y167997D01*
X287809Y168093D01*
X287745Y168194D01*
X287715Y168222D01*
X287692Y168255D01*
X287600Y168331D01*
X287513Y168412D01*
X287478Y168432D01*
X287447Y168457D01*
X287339Y168508D01*
X287235Y168566D01*
X287195Y168576D01*
X287159Y168593D01*
X287042Y168615D01*
X286927Y168645D01*
X286867Y168649D01*
X286847Y168653D01*
X286826Y168651D01*
X286766Y168655D01*
X275084Y168655D01*
X274946Y168638D01*
X274808Y168625D01*
X274788Y168618D01*
X274768Y168615D01*
X274639Y168564D01*
X274508Y168517D01*
X274492Y168506D01*
X274473Y168498D01*
X274360Y168417D01*
X274245Y168339D01*
X274232Y168323D01*
X274215Y168312D01*
X274127Y168204D01*
X274035Y168100D01*
X274026Y168082D01*
X274013Y168067D01*
X273953Y167941D01*
X273890Y167817D01*
X273886Y167797D01*
X273877Y167779D01*
X273851Y167643D01*
X273820Y167507D01*
X273821Y167486D01*
X273817Y167467D01*
X273826Y167328D01*
X273830Y167189D01*
X273836Y167169D01*
X273837Y167149D01*
X273880Y167017D01*
X273919Y166883D01*
X273929Y166866D01*
X273935Y166847D01*
X274010Y166729D01*
X274080Y166609D01*
X274099Y166588D01*
X274105Y166578D01*
X274120Y166564D01*
X274186Y166489D01*
X277834Y162841D01*
X280049Y157494D01*
X280049Y151706D01*
X277834Y146359D01*
X273741Y142266D01*
X268394Y140051D01*
X262606Y140051D01*
X257259Y142266D01*
X253166Y146359D01*
X250951Y151706D01*
X250951Y157494D01*
X253166Y162841D01*
X256814Y166489D01*
X256899Y166598D01*
X256987Y166705D01*
X256996Y166724D01*
X257008Y166740D01*
X257064Y166868D01*
X257123Y166993D01*
X257127Y167013D01*
X257135Y167032D01*
X257157Y167170D01*
X257183Y167306D01*
X257181Y167326D01*
X257185Y167346D01*
X257172Y167485D01*
X257163Y167623D01*
X257157Y167642D01*
X257155Y167662D01*
X257108Y167794D01*
X257065Y167925D01*
X257054Y167943D01*
X257047Y167962D01*
X256969Y168077D01*
X256895Y168194D01*
X256880Y168208D01*
X256869Y168225D01*
X256764Y168317D01*
X256663Y168412D01*
X256645Y168422D01*
X256630Y168435D01*
X256506Y168499D01*
X256385Y168566D01*
X256365Y168571D01*
X256347Y168580D01*
X256211Y168610D01*
X256077Y168645D01*
X256049Y168647D01*
X256037Y168650D01*
X256016Y168649D01*
X255916Y168655D01*
X226440Y168655D01*
X226390Y168649D01*
X226341Y168651D01*
X226233Y168629D01*
X226124Y168615D01*
X226078Y168597D01*
X226029Y168587D01*
X225930Y168539D01*
X225828Y168498D01*
X225788Y168469D01*
X225743Y168447D01*
X225660Y168376D01*
X225571Y168312D01*
X225539Y168273D01*
X225501Y168241D01*
X225438Y168151D01*
X225368Y168067D01*
X225347Y168022D01*
X225318Y167981D01*
X225279Y167878D01*
X225233Y167779D01*
X225223Y167730D01*
X225206Y167684D01*
X225193Y167574D01*
X225173Y167467D01*
X225176Y167417D01*
X225170Y167368D01*
X225186Y167259D01*
X225193Y167149D01*
X225208Y167102D01*
X225215Y167053D01*
X225267Y166900D01*
X225981Y165177D01*
X225981Y161975D01*
X224755Y159017D01*
X222491Y156753D01*
X219533Y155527D01*
X216331Y155527D01*
X213373Y156753D01*
X211109Y159017D01*
X209883Y161975D01*
X209883Y165177D01*
X210597Y166900D01*
X210610Y166948D01*
X210631Y166993D01*
X210652Y167101D01*
X210681Y167207D01*
X210682Y167257D01*
X210691Y167306D01*
X210684Y167415D01*
X210686Y167525D01*
X210674Y167573D01*
X210671Y167623D01*
X210638Y167727D01*
X210612Y167834D01*
X210589Y167878D01*
X210573Y167925D01*
X210515Y168018D01*
X210463Y168115D01*
X210430Y168152D01*
X210403Y168194D01*
X210323Y168269D01*
X210249Y168351D01*
X210208Y168378D01*
X210172Y168412D01*
X210075Y168465D01*
X209984Y168525D01*
X209937Y168542D01*
X209893Y168566D01*
X209787Y168593D01*
X209683Y168629D01*
X209633Y168633D01*
X209585Y168645D01*
X209424Y168655D01*
X5334Y168655D01*
X5216Y168640D01*
X5097Y168633D01*
X5059Y168620D01*
X5018Y168615D01*
X4908Y168572D01*
X4795Y168535D01*
X4760Y168513D01*
X4723Y168498D01*
X4627Y168429D01*
X4526Y168365D01*
X4498Y168335D01*
X4465Y168312D01*
X4389Y168220D01*
X4308Y168133D01*
X4288Y168098D01*
X4263Y168067D01*
X4212Y167959D01*
X4154Y167855D01*
X4144Y167815D01*
X4127Y167779D01*
X4105Y167662D01*
X4075Y167547D01*
X4071Y167487D01*
X4067Y167467D01*
X4069Y167446D01*
X4065Y167386D01*
X4065Y5334D01*
X4080Y5216D01*
X4087Y5097D01*
X4100Y5059D01*
X4105Y5018D01*
X4148Y4908D01*
X4185Y4795D01*
X4207Y4760D01*
X4222Y4723D01*
X4291Y4627D01*
X4355Y4526D01*
X4385Y4498D01*
X4408Y4465D01*
X4500Y4389D01*
X4587Y4308D01*
X4622Y4288D01*
X4653Y4263D01*
X4761Y4212D01*
X4865Y4154D01*
X4905Y4144D01*
X4941Y4127D01*
X5058Y4105D01*
X5173Y4075D01*
X5233Y4071D01*
X5253Y4067D01*
X5274Y4069D01*
X5334Y4065D01*
X34574Y4065D01*
X34712Y4082D01*
G37*
G36*
X156849Y69585D02*
X156849Y69585D01*
X156968Y69588D01*
X157007Y69599D01*
X157047Y69603D01*
X157159Y69643D01*
X157273Y69677D01*
X157308Y69697D01*
X157346Y69711D01*
X157445Y69778D01*
X157547Y69838D01*
X157593Y69878D01*
X157609Y69889D01*
X157623Y69905D01*
X157668Y69944D01*
X161446Y73722D01*
X161452Y73731D01*
X161461Y73738D01*
X161565Y73860D01*
X162352Y74914D01*
X162415Y74932D01*
X162562Y74973D01*
X162568Y74977D01*
X162576Y74979D01*
X162706Y75056D01*
X162838Y75131D01*
X162843Y75137D01*
X162850Y75140D01*
X162900Y75185D01*
X164207Y75185D01*
X164218Y75186D01*
X164229Y75185D01*
X164389Y75198D01*
X165691Y75387D01*
X165749Y75355D01*
X165881Y75280D01*
X165888Y75278D01*
X165895Y75274D01*
X166041Y75237D01*
X166188Y75197D01*
X166195Y75197D01*
X166203Y75195D01*
X166270Y75191D01*
X166410Y75050D01*
X166488Y74990D01*
X166560Y74922D01*
X166613Y74893D01*
X166661Y74856D01*
X166752Y74816D01*
X166839Y74768D01*
X166897Y74753D01*
X166953Y74729D01*
X167051Y74714D01*
X167147Y74689D01*
X167247Y74683D01*
X167267Y74679D01*
X167279Y74681D01*
X167307Y74679D01*
X167399Y74679D01*
X167537Y74540D01*
X167615Y74480D01*
X167688Y74412D01*
X167741Y74383D01*
X167788Y74346D01*
X167879Y74306D01*
X167966Y74258D01*
X168025Y74243D01*
X168080Y74219D01*
X168178Y74204D01*
X168274Y74179D01*
X168374Y74173D01*
X168394Y74169D01*
X168407Y74171D01*
X168435Y74169D01*
X169135Y74169D01*
X169234Y74181D01*
X169333Y74184D01*
X169391Y74201D01*
X169451Y74209D01*
X169543Y74245D01*
X169638Y74273D01*
X169690Y74303D01*
X169747Y74326D01*
X169827Y74384D01*
X169912Y74434D01*
X169987Y74500D01*
X170004Y74512D01*
X170012Y74522D01*
X170033Y74540D01*
X192160Y96667D01*
X192220Y96745D01*
X192288Y96818D01*
X192317Y96871D01*
X192354Y96918D01*
X192394Y97009D01*
X192442Y97096D01*
X192457Y97155D01*
X192481Y97210D01*
X192496Y97308D01*
X192521Y97404D01*
X192527Y97504D01*
X192531Y97524D01*
X192529Y97537D01*
X192531Y97565D01*
X192531Y110715D01*
X192519Y110814D01*
X192516Y110913D01*
X192499Y110971D01*
X192491Y111031D01*
X192455Y111123D01*
X192427Y111218D01*
X192397Y111270D01*
X192374Y111327D01*
X192316Y111407D01*
X192266Y111492D01*
X192200Y111567D01*
X192188Y111584D01*
X192178Y111592D01*
X192160Y111613D01*
X189083Y114690D01*
X186181Y117591D01*
X186181Y137385D01*
X186169Y137484D01*
X186166Y137583D01*
X186149Y137641D01*
X186141Y137701D01*
X186105Y137793D01*
X186077Y137888D01*
X186047Y137940D01*
X186024Y137997D01*
X185966Y138077D01*
X185916Y138162D01*
X185850Y138237D01*
X185838Y138254D01*
X185828Y138262D01*
X185810Y138283D01*
X173843Y150250D01*
X173765Y150310D01*
X173692Y150378D01*
X173639Y150407D01*
X173592Y150444D01*
X173501Y150484D01*
X173414Y150532D01*
X173355Y150547D01*
X173300Y150571D01*
X173202Y150586D01*
X173106Y150611D01*
X173006Y150617D01*
X172986Y150621D01*
X172973Y150619D01*
X172945Y150621D01*
X144048Y150621D01*
X143930Y150606D01*
X143811Y150599D01*
X143773Y150586D01*
X143732Y150581D01*
X143622Y150538D01*
X143509Y150501D01*
X143474Y150479D01*
X143437Y150464D01*
X143341Y150395D01*
X143240Y150331D01*
X143212Y150301D01*
X143179Y150278D01*
X143103Y150186D01*
X143022Y150099D01*
X143002Y150064D01*
X142977Y150033D01*
X142926Y149925D01*
X142868Y149821D01*
X142858Y149781D01*
X142841Y149745D01*
X142819Y149628D01*
X142789Y149513D01*
X142785Y149453D01*
X142781Y149433D01*
X142783Y149412D01*
X142779Y149352D01*
X142779Y148677D01*
X141939Y147837D01*
X141870Y147749D01*
X141795Y147665D01*
X141773Y147623D01*
X141744Y147586D01*
X141699Y147483D01*
X141647Y147383D01*
X141636Y147337D01*
X141617Y147294D01*
X141600Y147183D01*
X141574Y147074D01*
X141575Y147027D01*
X141568Y146980D01*
X141578Y146868D01*
X141580Y146756D01*
X141593Y146710D01*
X141597Y146663D01*
X141636Y146557D01*
X141666Y146449D01*
X141698Y146385D01*
X141705Y146364D01*
X141715Y146349D01*
X141737Y146305D01*
X142098Y145681D01*
X142271Y145034D01*
X142271Y142199D01*
X135460Y142199D01*
X135342Y142184D01*
X135223Y142177D01*
X135185Y142164D01*
X135145Y142159D01*
X135034Y142116D01*
X134921Y142079D01*
X134887Y142057D01*
X134849Y142042D01*
X134753Y141973D01*
X134652Y141909D01*
X134624Y141879D01*
X134592Y141856D01*
X134516Y141764D01*
X134434Y141677D01*
X134415Y141642D01*
X134389Y141611D01*
X134338Y141503D01*
X134281Y141399D01*
X134271Y141359D01*
X134253Y141323D01*
X134231Y141206D01*
X134201Y141091D01*
X134197Y141031D01*
X134194Y141011D01*
X134195Y140990D01*
X134191Y140930D01*
X134191Y139739D01*
X133000Y139739D01*
X132882Y139724D01*
X132763Y139717D01*
X132725Y139704D01*
X132684Y139699D01*
X132574Y139655D01*
X132461Y139619D01*
X132426Y139597D01*
X132389Y139582D01*
X132292Y139512D01*
X132192Y139449D01*
X132164Y139419D01*
X132131Y139395D01*
X132055Y139304D01*
X131974Y139217D01*
X131954Y139182D01*
X131929Y139150D01*
X131878Y139043D01*
X131820Y138938D01*
X131810Y138899D01*
X131793Y138863D01*
X131771Y138746D01*
X131741Y138630D01*
X131737Y138570D01*
X131733Y138550D01*
X131735Y138530D01*
X131731Y138470D01*
X131731Y132159D01*
X128396Y132159D01*
X127749Y132332D01*
X127170Y132667D01*
X126987Y132850D01*
X126893Y132923D01*
X126803Y133002D01*
X126767Y133020D01*
X126735Y133045D01*
X126626Y133092D01*
X126520Y133147D01*
X126481Y133155D01*
X126444Y133171D01*
X126326Y133190D01*
X126210Y133216D01*
X126169Y133215D01*
X126129Y133221D01*
X126011Y133210D01*
X125892Y133207D01*
X125853Y133195D01*
X125813Y133191D01*
X125701Y133151D01*
X125586Y133118D01*
X125552Y133098D01*
X125514Y133084D01*
X125415Y133017D01*
X125313Y132957D01*
X125267Y132917D01*
X125250Y132905D01*
X125237Y132890D01*
X125192Y132850D01*
X123707Y131365D01*
X123700Y131361D01*
X123672Y131331D01*
X123639Y131308D01*
X123563Y131216D01*
X123482Y131129D01*
X123462Y131094D01*
X123437Y131063D01*
X123386Y130955D01*
X123328Y130851D01*
X123318Y130811D01*
X123301Y130775D01*
X123279Y130658D01*
X123249Y130543D01*
X123245Y130483D01*
X123241Y130463D01*
X123243Y130442D01*
X123239Y130382D01*
X123239Y122284D01*
X123240Y122270D01*
X123239Y122257D01*
X123260Y122112D01*
X123279Y121968D01*
X123284Y121956D01*
X123286Y121942D01*
X123288Y121934D01*
X123250Y121791D01*
X123250Y121786D01*
X123249Y121781D01*
X123239Y121620D01*
X123239Y114654D01*
X123180Y114592D01*
X123151Y114539D01*
X123114Y114491D01*
X123074Y114400D01*
X123026Y114313D01*
X123011Y114254D01*
X122987Y114199D01*
X122972Y114101D01*
X122947Y114005D01*
X122941Y113905D01*
X122937Y113885D01*
X122939Y113873D01*
X122937Y113844D01*
X122937Y101777D01*
X122949Y101679D01*
X122952Y101580D01*
X122969Y101522D01*
X122977Y101462D01*
X123013Y101370D01*
X123041Y101275D01*
X123071Y101223D01*
X123094Y101166D01*
X123152Y101086D01*
X123202Y101001D01*
X123268Y100925D01*
X123280Y100909D01*
X123290Y100901D01*
X123308Y100880D01*
X152588Y71600D01*
X152666Y71540D01*
X152738Y71472D01*
X152791Y71443D01*
X152839Y71406D01*
X152930Y71366D01*
X153017Y71318D01*
X153075Y71303D01*
X153131Y71279D01*
X153229Y71264D01*
X153325Y71239D01*
X153425Y71233D01*
X153445Y71229D01*
X153457Y71231D01*
X153485Y71229D01*
X154589Y71229D01*
X155873Y69944D01*
X155967Y69871D01*
X156056Y69793D01*
X156092Y69774D01*
X156124Y69750D01*
X156234Y69702D01*
X156340Y69648D01*
X156379Y69639D01*
X156416Y69623D01*
X156534Y69605D01*
X156650Y69578D01*
X156690Y69580D01*
X156730Y69573D01*
X156849Y69585D01*
G37*
G36*
X80334Y109741D02*
X80334Y109741D01*
X80433Y109744D01*
X80491Y109761D01*
X80551Y109769D01*
X80643Y109805D01*
X80738Y109833D01*
X80790Y109863D01*
X80847Y109886D01*
X80927Y109944D01*
X81012Y109994D01*
X81087Y110060D01*
X81104Y110072D01*
X81112Y110082D01*
X81133Y110101D01*
X81260Y110227D01*
X81320Y110305D01*
X81388Y110378D01*
X81417Y110431D01*
X81455Y110479D01*
X81494Y110569D01*
X81542Y110656D01*
X81557Y110715D01*
X81581Y110770D01*
X81596Y110868D01*
X81621Y110964D01*
X81627Y111064D01*
X81631Y111085D01*
X81629Y111097D01*
X81631Y111125D01*
X81631Y112125D01*
X81616Y112243D01*
X81609Y112362D01*
X81596Y112400D01*
X81591Y112441D01*
X81548Y112551D01*
X81511Y112664D01*
X81489Y112699D01*
X81474Y112736D01*
X81405Y112832D01*
X81341Y112933D01*
X81311Y112961D01*
X81288Y112994D01*
X81196Y113070D01*
X81109Y113151D01*
X81074Y113171D01*
X81043Y113196D01*
X80935Y113247D01*
X80831Y113305D01*
X80791Y113315D01*
X80755Y113332D01*
X80719Y113339D01*
X80719Y122920D01*
X80704Y123038D01*
X80697Y123157D01*
X80685Y123195D01*
X80680Y123235D01*
X80636Y123346D01*
X80599Y123459D01*
X80577Y123493D01*
X80563Y123531D01*
X80493Y123627D01*
X80429Y123728D01*
X80399Y123756D01*
X80376Y123788D01*
X80284Y123864D01*
X80197Y123946D01*
X80162Y123965D01*
X80131Y123991D01*
X80023Y124042D01*
X79919Y124099D01*
X79880Y124109D01*
X79843Y124127D01*
X79726Y124149D01*
X79611Y124179D01*
X79551Y124183D01*
X79531Y124186D01*
X79530Y124186D01*
X79510Y124185D01*
X79450Y124189D01*
X79332Y124174D01*
X79213Y124167D01*
X79174Y124154D01*
X79134Y124149D01*
X79024Y124105D01*
X78910Y124069D01*
X78876Y124047D01*
X78839Y124032D01*
X78742Y123962D01*
X78642Y123898D01*
X78614Y123869D01*
X78581Y123845D01*
X78505Y123753D01*
X78424Y123667D01*
X78404Y123631D01*
X78378Y123600D01*
X78328Y123493D01*
X78270Y123388D01*
X78260Y123349D01*
X78243Y123313D01*
X78221Y123196D01*
X78191Y123080D01*
X78187Y123020D01*
X78183Y123000D01*
X78184Y122980D01*
X78181Y122920D01*
X78181Y113394D01*
X77376Y113394D01*
X77362Y113398D01*
X77257Y113412D01*
X77154Y113435D01*
X77100Y113434D01*
X77047Y113441D01*
X76942Y113429D01*
X76836Y113426D01*
X76785Y113411D01*
X76731Y113405D01*
X76632Y113367D01*
X76531Y113337D01*
X76484Y113310D01*
X76434Y113291D01*
X76348Y113230D01*
X76257Y113176D01*
X76193Y113119D01*
X76175Y113107D01*
X76165Y113095D01*
X76136Y113069D01*
X75953Y112886D01*
X56947Y112886D01*
X56764Y113069D01*
X56680Y113134D01*
X56603Y113206D01*
X56555Y113231D01*
X56513Y113264D01*
X56416Y113306D01*
X56323Y113356D01*
X56270Y113369D01*
X56221Y113391D01*
X56116Y113407D01*
X56014Y113433D01*
X55960Y113432D01*
X55907Y113441D01*
X55801Y113431D01*
X55696Y113430D01*
X55612Y113413D01*
X55590Y113411D01*
X55575Y113405D01*
X55538Y113398D01*
X55525Y113394D01*
X54719Y113394D01*
X54719Y122920D01*
X54719Y132446D01*
X55525Y132446D01*
X55538Y132442D01*
X55643Y132428D01*
X55746Y132405D01*
X55800Y132406D01*
X55853Y132399D01*
X55958Y132411D01*
X56064Y132414D01*
X56115Y132429D01*
X56169Y132435D01*
X56268Y132473D01*
X56369Y132503D01*
X56416Y132530D01*
X56466Y132549D01*
X56552Y132610D01*
X56643Y132664D01*
X56708Y132721D01*
X56725Y132733D01*
X56735Y132745D01*
X56764Y132771D01*
X56947Y132954D01*
X60862Y132954D01*
X60980Y132969D01*
X61099Y132976D01*
X61137Y132989D01*
X61178Y132994D01*
X61288Y133037D01*
X61401Y133074D01*
X61436Y133096D01*
X61473Y133111D01*
X61569Y133180D01*
X61670Y133244D01*
X61698Y133274D01*
X61731Y133297D01*
X61807Y133389D01*
X61888Y133476D01*
X61908Y133511D01*
X61933Y133542D01*
X61984Y133650D01*
X62042Y133754D01*
X62052Y133794D01*
X62069Y133830D01*
X62091Y133947D01*
X62121Y134062D01*
X62125Y134122D01*
X62129Y134142D01*
X62127Y134163D01*
X62131Y134223D01*
X62131Y139359D01*
X65033Y142260D01*
X68497Y145725D01*
X68582Y145834D01*
X68671Y145941D01*
X68679Y145960D01*
X68692Y145976D01*
X68747Y146104D01*
X68806Y146229D01*
X68810Y146249D01*
X68818Y146268D01*
X68840Y146406D01*
X68866Y146542D01*
X68865Y146562D01*
X68868Y146582D01*
X68855Y146721D01*
X68846Y146859D01*
X68840Y146878D01*
X68838Y146898D01*
X68791Y147030D01*
X68748Y147161D01*
X68738Y147179D01*
X68731Y147198D01*
X68653Y147313D01*
X68578Y147430D01*
X68563Y147444D01*
X68552Y147461D01*
X68448Y147553D01*
X68347Y147648D01*
X68329Y147658D01*
X68314Y147671D01*
X68190Y147735D01*
X68068Y147802D01*
X68048Y147807D01*
X68030Y147816D01*
X67895Y147846D01*
X67760Y147881D01*
X67732Y147883D01*
X67720Y147886D01*
X67700Y147885D01*
X67599Y147891D01*
X57429Y147891D01*
X57330Y147879D01*
X57231Y147876D01*
X57173Y147859D01*
X57113Y147851D01*
X57021Y147815D01*
X56926Y147787D01*
X56874Y147757D01*
X56817Y147734D01*
X56737Y147676D01*
X56652Y147626D01*
X56577Y147560D01*
X56560Y147548D01*
X56552Y147538D01*
X56531Y147520D01*
X55903Y146891D01*
X42377Y146891D01*
X41538Y147731D01*
X41444Y147804D01*
X41354Y147883D01*
X41318Y147901D01*
X41286Y147926D01*
X41177Y147973D01*
X41071Y148027D01*
X41032Y148036D01*
X40994Y148052D01*
X40877Y148071D01*
X40761Y148097D01*
X40720Y148096D01*
X40680Y148102D01*
X40562Y148091D01*
X40443Y148087D01*
X40404Y148076D01*
X40364Y148072D01*
X40251Y148032D01*
X40137Y147999D01*
X40103Y147978D01*
X40064Y147965D01*
X39966Y147898D01*
X39863Y147837D01*
X39818Y147797D01*
X39801Y147786D01*
X39788Y147771D01*
X39743Y147731D01*
X38903Y146891D01*
X37728Y146891D01*
X37610Y146876D01*
X37491Y146869D01*
X37453Y146856D01*
X37412Y146851D01*
X37302Y146808D01*
X37189Y146771D01*
X37154Y146749D01*
X37117Y146734D01*
X37021Y146665D01*
X36920Y146601D01*
X36892Y146571D01*
X36859Y146548D01*
X36783Y146456D01*
X36702Y146369D01*
X36682Y146334D01*
X36657Y146303D01*
X36606Y146195D01*
X36548Y146091D01*
X36538Y146051D01*
X36521Y146015D01*
X36499Y145898D01*
X36469Y145783D01*
X36465Y145723D01*
X36461Y145703D01*
X36463Y145682D01*
X36459Y145622D01*
X36459Y142111D01*
X33557Y139210D01*
X33557Y139209D01*
X32631Y138283D01*
X32570Y138205D01*
X32502Y138133D01*
X32473Y138079D01*
X32436Y138032D01*
X32396Y137941D01*
X32348Y137854D01*
X32333Y137795D01*
X32309Y137740D01*
X32294Y137642D01*
X32269Y137546D01*
X32263Y137446D01*
X32259Y137426D01*
X32261Y137413D01*
X32259Y137385D01*
X32259Y134223D01*
X32274Y134105D01*
X32281Y133986D01*
X32294Y133948D01*
X32299Y133907D01*
X32342Y133797D01*
X32379Y133684D01*
X32401Y133649D01*
X32416Y133612D01*
X32485Y133516D01*
X32549Y133415D01*
X32579Y133387D01*
X32602Y133354D01*
X32694Y133278D01*
X32781Y133197D01*
X32816Y133177D01*
X32847Y133152D01*
X32955Y133101D01*
X33059Y133043D01*
X33099Y133033D01*
X33135Y133016D01*
X33252Y132994D01*
X33367Y132964D01*
X33427Y132960D01*
X33447Y132956D01*
X33468Y132958D01*
X33528Y132954D01*
X43453Y132954D01*
X43636Y132771D01*
X43720Y132706D01*
X43797Y132634D01*
X43845Y132609D01*
X43887Y132576D01*
X43984Y132534D01*
X44077Y132484D01*
X44130Y132471D01*
X44179Y132449D01*
X44284Y132433D01*
X44386Y132407D01*
X44440Y132408D01*
X44493Y132399D01*
X44599Y132409D01*
X44704Y132410D01*
X44788Y132427D01*
X44810Y132429D01*
X44825Y132435D01*
X44862Y132442D01*
X44875Y132446D01*
X45681Y132446D01*
X45681Y122920D01*
X45681Y113394D01*
X44875Y113394D01*
X44862Y113398D01*
X44757Y113412D01*
X44654Y113435D01*
X44600Y113434D01*
X44547Y113441D01*
X44442Y113429D01*
X44336Y113426D01*
X44285Y113411D01*
X44231Y113405D01*
X44132Y113367D01*
X44031Y113337D01*
X43984Y113310D01*
X43934Y113291D01*
X43848Y113230D01*
X43757Y113176D01*
X43692Y113119D01*
X43675Y113107D01*
X43665Y113095D01*
X43636Y113069D01*
X43453Y112886D01*
X34716Y112886D01*
X34578Y112869D01*
X34439Y112856D01*
X34420Y112849D01*
X34400Y112846D01*
X34270Y112795D01*
X34140Y112748D01*
X34123Y112737D01*
X34104Y112729D01*
X33992Y112648D01*
X33877Y112570D01*
X33863Y112554D01*
X33847Y112543D01*
X33758Y112435D01*
X33666Y112331D01*
X33657Y112313D01*
X33644Y112298D01*
X33585Y112172D01*
X33522Y112048D01*
X33517Y112028D01*
X33509Y112010D01*
X33483Y111874D01*
X33452Y111738D01*
X33453Y111717D01*
X33449Y111698D01*
X33458Y111559D01*
X33462Y111420D01*
X33467Y111400D01*
X33469Y111380D01*
X33511Y111248D01*
X33550Y111114D01*
X33560Y111097D01*
X33567Y111078D01*
X33641Y110960D01*
X33712Y110840D01*
X33730Y110819D01*
X33737Y110809D01*
X33752Y110795D01*
X33818Y110719D01*
X34437Y110100D01*
X34515Y110040D01*
X34588Y109972D01*
X34641Y109943D01*
X34688Y109906D01*
X34779Y109866D01*
X34866Y109818D01*
X34925Y109803D01*
X34980Y109779D01*
X35078Y109764D01*
X35174Y109739D01*
X35274Y109733D01*
X35294Y109729D01*
X35307Y109731D01*
X35335Y109729D01*
X80235Y109729D01*
X80334Y109741D01*
G37*
%LPC*%
G36*
X262606Y8651D02*
X262606Y8651D01*
X257259Y10866D01*
X253166Y14959D01*
X250951Y20306D01*
X250951Y26094D01*
X253166Y31441D01*
X257259Y35534D01*
X262606Y37749D01*
X268394Y37749D01*
X273741Y35534D01*
X277834Y31441D01*
X280049Y26094D01*
X280049Y20306D01*
X277834Y14959D01*
X273741Y10866D01*
X268394Y8651D01*
X262606Y8651D01*
G37*
%LPD*%
%LPC*%
G36*
X230839Y126439D02*
X230839Y126439D01*
X230839Y132041D01*
X248634Y132041D01*
X249281Y131868D01*
X249860Y131533D01*
X250333Y131060D01*
X250668Y130481D01*
X250841Y129834D01*
X250841Y126439D01*
X230839Y126439D01*
G37*
%LPD*%
%LPC*%
G36*
X205759Y126439D02*
X205759Y126439D01*
X205759Y129834D01*
X205932Y130481D01*
X206267Y131060D01*
X206740Y131533D01*
X207319Y131868D01*
X207966Y132041D01*
X225761Y132041D01*
X225761Y126439D01*
X205759Y126439D01*
G37*
%LPD*%
%LPC*%
G36*
X207966Y115759D02*
X207966Y115759D01*
X207319Y115932D01*
X206740Y116267D01*
X206267Y116740D01*
X205932Y117319D01*
X205759Y117966D01*
X205759Y121361D01*
X225761Y121361D01*
X225761Y115759D01*
X207966Y115759D01*
G37*
%LPD*%
%LPC*%
G36*
X230839Y115759D02*
X230839Y115759D01*
X230839Y121361D01*
X250841Y121361D01*
X250841Y117966D01*
X250668Y117319D01*
X250333Y116740D01*
X249860Y116267D01*
X249281Y115932D01*
X248634Y115759D01*
X230839Y115759D01*
G37*
%LPD*%
%LPC*%
G36*
X90139Y17399D02*
X90139Y17399D01*
X90139Y25401D01*
X97141Y25401D01*
X97141Y19606D01*
X96968Y18959D01*
X96633Y18380D01*
X96160Y17907D01*
X95581Y17572D01*
X94934Y17399D01*
X90139Y17399D01*
G37*
%LPD*%
%LPC*%
G36*
X80266Y17399D02*
X80266Y17399D01*
X79619Y17572D01*
X79040Y17907D01*
X78567Y18380D01*
X78232Y18959D01*
X78059Y19606D01*
X78059Y25401D01*
X85061Y25401D01*
X85061Y17399D01*
X80266Y17399D01*
G37*
%LPD*%
%LPC*%
G36*
X48219Y124189D02*
X48219Y124189D01*
X48219Y132446D01*
X49024Y132446D01*
X49732Y132256D01*
X49756Y132243D01*
X49809Y132231D01*
X49858Y132210D01*
X49963Y132195D01*
X50066Y132170D01*
X50120Y132171D01*
X50173Y132164D01*
X50278Y132175D01*
X50384Y132177D01*
X50436Y132191D01*
X50489Y132197D01*
X50588Y132233D01*
X50690Y132262D01*
X50692Y132262D01*
X51376Y132446D01*
X52181Y132446D01*
X52181Y124189D01*
X48219Y124189D01*
G37*
%LPD*%
%LPC*%
G36*
X48219Y113394D02*
X48219Y113394D01*
X48219Y121651D01*
X52181Y121651D01*
X52181Y113394D01*
X51376Y113394D01*
X50668Y113584D01*
X50643Y113597D01*
X50591Y113609D01*
X50541Y113630D01*
X50437Y113645D01*
X50334Y113670D01*
X50280Y113669D01*
X50227Y113676D01*
X50121Y113665D01*
X50016Y113663D01*
X49964Y113649D01*
X49911Y113643D01*
X49811Y113606D01*
X49709Y113578D01*
X49708Y113578D01*
X49024Y113394D01*
X48219Y113394D01*
G37*
%LPD*%
%LPC*%
G36*
X61799Y30439D02*
X61799Y30439D01*
X61799Y35481D01*
X65134Y35481D01*
X65781Y35308D01*
X66360Y34973D01*
X66833Y34500D01*
X67168Y33921D01*
X67341Y33274D01*
X67341Y30439D01*
X61799Y30439D01*
G37*
%LPD*%
%LPC*%
G36*
X136729Y132159D02*
X136729Y132159D01*
X136729Y137201D01*
X142271Y137201D01*
X142271Y134366D01*
X142098Y133719D01*
X141763Y133140D01*
X141290Y132667D01*
X140711Y132332D01*
X140064Y132159D01*
X136729Y132159D01*
G37*
%LPD*%
%LPC*%
G36*
X61799Y20399D02*
X61799Y20399D01*
X61799Y25441D01*
X67341Y25441D01*
X67341Y22606D01*
X67168Y21959D01*
X66833Y21380D01*
X66360Y20907D01*
X65781Y20572D01*
X65134Y20399D01*
X61799Y20399D01*
G37*
%LPD*%
%LPC*%
G36*
X228299Y123899D02*
X228299Y123899D01*
X228299Y123901D01*
X228301Y123901D01*
X228301Y123899D01*
X228299Y123899D01*
G37*
%LPD*%
D10*
X117230Y139700D03*
X134230Y139700D03*
D11*
X87600Y27940D03*
X115600Y27940D03*
D10*
X42300Y27940D03*
X59300Y27940D03*
D12*
X33950Y122920D03*
X40450Y122920D03*
X46950Y122920D03*
X53450Y122920D03*
X59950Y122920D03*
X66450Y122920D03*
X72950Y122920D03*
X85950Y122920D03*
X79450Y122920D03*
X92450Y122920D03*
X98950Y122920D03*
X105450Y122920D03*
X111950Y122920D03*
X118450Y122920D03*
X33950Y49800D03*
X40450Y49800D03*
X46950Y49800D03*
X53450Y49800D03*
X59950Y49800D03*
X66450Y49800D03*
X72950Y49800D03*
X79450Y49800D03*
X85950Y49800D03*
X92450Y49800D03*
X98950Y49800D03*
X105450Y49800D03*
X111950Y49800D03*
X118450Y49800D03*
D10*
X49140Y154940D03*
X32140Y154940D03*
X117230Y154940D03*
X134230Y154940D03*
D13*
X77350Y154940D03*
X62350Y154940D03*
X89020Y154940D03*
X104020Y154940D03*
D14*
X40640Y12446D03*
X217932Y163576D03*
D15*
X228300Y78900D03*
X228300Y98900D03*
X228300Y53900D03*
X228300Y123900D03*
D16*
X180340Y36830D03*
X46990Y139700D03*
X31750Y96520D03*
X69850Y17780D03*
X135890Y111760D03*
D17*
X111950Y122920D02*
X111950Y93790D01*
X127380Y78360D01*
D18*
X128016Y77216D02*
X135128Y77216D01*
X144272Y68072D01*
X144272Y56896D01*
X154432Y46736D01*
X171704Y46736D01*
X203200Y78232D01*
X227584Y78232D01*
X128016Y77216D02*
X127380Y78360D01*
X227584Y78232D02*
X228300Y78900D01*
X118872Y99568D02*
X118872Y121920D01*
X118872Y99568D02*
X148336Y70104D01*
X148336Y58928D01*
X156464Y50800D01*
X169672Y50800D01*
X217424Y98552D01*
X227584Y98552D01*
X118872Y121920D02*
X118450Y122920D01*
X227584Y98552D02*
X228300Y98900D01*
D17*
X98950Y57260D02*
X98950Y49800D01*
X98950Y57260D02*
X91440Y64770D01*
D16*
X91440Y64770D03*
D17*
X40640Y49990D02*
X40450Y49800D01*
X40640Y49990D02*
X40640Y64770D01*
D16*
X40640Y64770D03*
D17*
X29210Y86360D02*
X91440Y86360D01*
X29210Y86360D02*
X12700Y73025D01*
X12700Y40640D01*
X25400Y27940D01*
X42300Y27940D01*
X105450Y100370D02*
X105450Y122920D01*
X105450Y100370D02*
X91440Y86360D01*
D16*
X91440Y86360D03*
D17*
X77350Y148470D02*
X77350Y154940D01*
X77350Y148470D02*
X66450Y137570D01*
X66450Y122920D01*
X72950Y122920D02*
X72950Y133910D01*
X89020Y149980D01*
X89020Y154940D01*
X62350Y154940D02*
X49140Y154940D01*
X104020Y154940D02*
X117230Y154940D01*
X33950Y49800D02*
X25130Y49800D01*
X19050Y55880D01*
X19050Y68580D01*
X24130Y73660D01*
X77470Y73660D01*
D16*
X77470Y73660D03*
D17*
X59950Y57410D02*
X59950Y49800D01*
X59950Y57410D02*
X67310Y64770D01*
D16*
X67310Y64770D03*
D17*
X53340Y64770D02*
X53340Y49910D01*
X53450Y49800D01*
D16*
X53340Y64770D03*
D17*
X27940Y110490D02*
X27940Y139700D01*
X85950Y122920D02*
X85950Y108810D01*
X82550Y105410D01*
X33020Y105410D01*
X27940Y110490D01*
X152800Y66910D02*
X160020Y59690D01*
X115600Y29240D02*
X115600Y27940D01*
X115600Y29240D02*
X127000Y40640D01*
X127000Y42672D01*
X127000Y62230D01*
X135130Y70360D01*
X190500Y119380D02*
X196850Y113030D01*
X165610Y70360D02*
X166120Y69850D01*
X171450Y69850D01*
X196850Y95250D01*
X196850Y107696D01*
X196850Y113030D01*
X175260Y154940D02*
X134230Y154940D01*
X175260Y154940D02*
X190500Y139700D01*
X190500Y119380D01*
X32140Y143900D02*
X27940Y139700D01*
X32140Y143900D02*
X32140Y154940D01*
X85950Y135480D02*
X85950Y122920D01*
X90170Y139700D02*
X117230Y139700D01*
X90170Y139700D02*
X85950Y135480D01*
X133350Y154940D02*
X134230Y154940D01*
X133350Y154940D02*
X125730Y147320D01*
X124850Y147320D01*
X117230Y139700D01*
D16*
X160020Y59690D03*
D18*
X157480Y64008D02*
X164592Y71120D01*
X157480Y64008D02*
X160020Y59690D01*
X165610Y70360D02*
X164592Y71120D01*
X196850Y107696D02*
X249936Y107696D01*
X251968Y105664D01*
X251968Y72136D01*
X234696Y54864D01*
X228600Y54864D01*
X228300Y53900D01*
X173736Y42672D02*
X127000Y42672D01*
X173736Y42672D02*
X184912Y53848D01*
X227584Y53848D01*
X228300Y53900D01*
M02*
