G04 EAGLE Gerber X2 export*
%TF.Part,Single*%
%TF.FileFunction,Legend,Top,1*%
%TF.FilePolarity,Positive*%
%TF.GenerationSoftware,Autodesk,EAGLE,9.1.0*%
%TF.CreationDate,2018-08-24T06:17:03Z*%
G75*
%MOMM*%
%FSLAX34Y34*%
%LPD*%
%AMOC8*
5,1,8,0,0,1.08239X$1,22.5*%
G01*
%ADD10C,0.127000*%
%ADD11C,0.152400*%
%ADD12C,0.558800*%
%ADD13C,0.025400*%
%ADD14C,0.203200*%
%ADD15R,0.457200X0.762000*%
%ADD16C,0.304800*%
%ADD17C,0.101600*%
%ADD18R,0.200000X0.100000*%


D10*
X5201Y97032D02*
X5201Y92456D01*
X8633Y92456D01*
X7489Y94744D01*
X7489Y95888D01*
X8633Y97032D01*
X10921Y97032D01*
X12065Y95888D01*
X12065Y93600D01*
X10921Y92456D01*
X9777Y99940D02*
X5201Y99940D01*
X9777Y99940D02*
X12065Y102228D01*
X9777Y104516D01*
X5201Y104516D01*
X5201Y69090D02*
X12065Y69090D01*
X5201Y66802D02*
X5201Y71378D01*
X5201Y74286D02*
X12065Y78862D01*
X12065Y74286D02*
X5201Y78862D01*
X5201Y82914D02*
X5201Y85202D01*
X5201Y82914D02*
X6345Y81770D01*
X10921Y81770D01*
X12065Y82914D01*
X12065Y85202D01*
X10921Y86346D01*
X6345Y86346D01*
X5201Y85202D01*
X5201Y42672D02*
X12065Y42672D01*
X5201Y42672D02*
X5201Y46104D01*
X6345Y47248D01*
X8633Y47248D01*
X9777Y46104D01*
X9777Y42672D01*
X9777Y44960D02*
X12065Y47248D01*
X5201Y50156D02*
X12065Y54732D01*
X12065Y50156D02*
X5201Y54732D01*
X12065Y57640D02*
X12065Y59928D01*
X12065Y58784D02*
X5201Y58784D01*
X5201Y57640D02*
X5201Y59928D01*
X5201Y143767D02*
X6345Y144911D01*
X5201Y143767D02*
X5201Y141479D01*
X6345Y140335D01*
X10921Y140335D01*
X12065Y141479D01*
X12065Y143767D01*
X10921Y144911D01*
X8633Y144911D01*
X8633Y142623D01*
X12065Y147819D02*
X5201Y147819D01*
X12065Y152395D01*
X5201Y152395D01*
X5201Y155303D02*
X12065Y155303D01*
X12065Y158735D01*
X10921Y159879D01*
X6345Y159879D01*
X5201Y158735D01*
X5201Y155303D01*
D11*
X136652Y18295D02*
X136652Y9652D01*
X136652Y18295D02*
X142414Y18295D01*
X139533Y13974D02*
X136652Y13974D01*
X148888Y9652D02*
X148888Y18295D01*
X146007Y18295D02*
X151769Y18295D01*
X155362Y18295D02*
X155362Y9652D01*
X159684Y9652D01*
X161125Y11093D01*
X161125Y16855D01*
X159684Y18295D01*
X155362Y18295D01*
X164718Y9652D02*
X167599Y9652D01*
X166158Y9652D02*
X166158Y18295D01*
X164718Y18295D02*
X167599Y18295D01*
X180310Y18295D02*
X180310Y9652D01*
X180310Y18295D02*
X184631Y18295D01*
X186072Y16855D01*
X186072Y15414D01*
X184631Y13974D01*
X186072Y12533D01*
X186072Y11093D01*
X184631Y9652D01*
X180310Y9652D01*
X180310Y13974D02*
X184631Y13974D01*
X191105Y15414D02*
X193986Y15414D01*
X195427Y13974D01*
X195427Y9652D01*
X191105Y9652D01*
X189665Y11093D01*
X191105Y12533D01*
X195427Y12533D01*
X199020Y9652D02*
X203342Y9652D01*
X204782Y11093D01*
X203342Y12533D01*
X200460Y12533D01*
X199020Y13974D01*
X200460Y15414D01*
X204782Y15414D01*
X208375Y15414D02*
X209816Y15414D01*
X209816Y9652D01*
X211256Y9652D02*
X208375Y9652D01*
X209816Y18295D02*
X209816Y19736D01*
X216052Y15414D02*
X220374Y15414D01*
X216052Y15414D02*
X214612Y13974D01*
X214612Y11093D01*
X216052Y9652D01*
X220374Y9652D01*
D10*
X12065Y13335D02*
X5201Y13335D01*
X12065Y13335D02*
X12065Y16767D01*
X10921Y17911D01*
X6345Y17911D01*
X5201Y16767D01*
X5201Y13335D01*
X5201Y23107D02*
X12065Y23107D01*
X5201Y20819D02*
X5201Y25395D01*
X5201Y28303D02*
X12065Y28303D01*
X5201Y28303D02*
X5201Y31735D01*
X6345Y32879D01*
X8633Y32879D01*
X9777Y31735D01*
X9777Y28303D01*
X9777Y30591D02*
X12065Y32879D01*
D11*
X89662Y136652D02*
X89662Y145295D01*
X93984Y145295D01*
X95424Y143855D01*
X95424Y140974D01*
X93984Y139533D01*
X89662Y139533D01*
X92543Y139533D02*
X95424Y136652D01*
X104779Y136652D02*
X99017Y145295D01*
X104779Y145295D02*
X99017Y136652D01*
X63333Y136652D02*
X63333Y145295D01*
X60452Y145295D02*
X66214Y145295D01*
X69807Y145295D02*
X75569Y136652D01*
X69807Y136652D02*
X75569Y145295D01*
D10*
X6091Y116336D02*
X4947Y115192D01*
X4947Y112904D01*
X6091Y111760D01*
X10667Y111760D01*
X11811Y112904D01*
X11811Y115192D01*
X10667Y116336D01*
X11811Y121532D02*
X4947Y121532D01*
X4947Y119244D02*
X4947Y123820D01*
X4947Y130160D02*
X6091Y131304D01*
X4947Y130160D02*
X4947Y127872D01*
X6091Y126728D01*
X7235Y126728D01*
X8379Y127872D01*
X8379Y130160D01*
X9523Y131304D01*
X10667Y131304D01*
X11811Y130160D01*
X11811Y127872D01*
X10667Y126728D01*
D11*
X169672Y160535D02*
X175434Y160535D01*
X169672Y160535D02*
X169672Y156214D01*
X172553Y157654D01*
X173994Y157654D01*
X175434Y156214D01*
X175434Y153333D01*
X173994Y151892D01*
X171113Y151892D01*
X169672Y153333D01*
X179027Y154773D02*
X179027Y160535D01*
X179027Y154773D02*
X181908Y151892D01*
X184789Y154773D01*
X184789Y160535D01*
D10*
X23495Y140335D02*
X16631Y140335D01*
X16631Y143767D01*
X17775Y144911D01*
X18919Y144911D01*
X20063Y143767D01*
X21207Y144911D01*
X22351Y144911D01*
X23495Y143767D01*
X23495Y140335D01*
X20063Y140335D02*
X20063Y143767D01*
X16631Y147819D02*
X23495Y147819D01*
X23495Y152395D01*
X23495Y155303D02*
X16631Y155303D01*
X21207Y155303D02*
X16631Y159879D01*
X20063Y156447D02*
X23495Y159879D01*
X17775Y17911D02*
X16631Y16767D01*
X16631Y14479D01*
X17775Y13335D01*
X22351Y13335D01*
X23495Y14479D01*
X23495Y16767D01*
X22351Y17911D01*
X20063Y17911D01*
X20063Y15623D01*
X23495Y20819D02*
X16631Y20819D01*
X16631Y24251D01*
X17775Y25395D01*
X20063Y25395D01*
X21207Y24251D01*
X21207Y20819D01*
X21207Y23107D02*
X23495Y25395D01*
X23495Y28303D02*
X16631Y28303D01*
X23495Y32879D01*
X16631Y32879D01*
D12*
X125730Y139395D02*
X125730Y140005D01*
D13*
X119509Y150625D02*
X118874Y151260D01*
X117603Y151260D01*
X116967Y150625D01*
X116967Y148083D01*
X117603Y147447D01*
X118874Y147447D01*
X119509Y148083D01*
X120709Y147447D02*
X123251Y147447D01*
X120709Y147447D02*
X123251Y149989D01*
X123251Y150625D01*
X122616Y151260D01*
X121345Y151260D01*
X120709Y150625D01*
D14*
X91600Y15940D02*
X76600Y15940D01*
X76600Y39940D01*
X91600Y39940D01*
X111600Y15940D02*
X122600Y15940D01*
X126600Y19940D01*
X126600Y35940D01*
X122600Y39940D01*
X111600Y39940D01*
D10*
X105410Y38100D02*
X105410Y17780D01*
D13*
X78869Y45055D02*
X78234Y45690D01*
X76963Y45690D01*
X76327Y45055D01*
X76327Y42513D01*
X76963Y41877D01*
X78234Y41877D01*
X78869Y42513D01*
X80069Y45690D02*
X82611Y45690D01*
X80069Y45690D02*
X80069Y43784D01*
X81340Y44419D01*
X81976Y44419D01*
X82611Y43784D01*
X82611Y42513D01*
X81976Y41877D01*
X80705Y41877D01*
X80069Y42513D01*
D12*
X50800Y28245D02*
X50800Y27635D01*
D13*
X44579Y38865D02*
X43944Y39500D01*
X42673Y39500D01*
X42037Y38865D01*
X42037Y36323D01*
X42673Y35687D01*
X43944Y35687D01*
X44579Y36323D01*
X45779Y38229D02*
X47050Y39500D01*
X47050Y35687D01*
X45779Y35687D02*
X48321Y35687D01*
D11*
X24200Y115610D02*
X128200Y115610D01*
X128200Y57110D01*
X24200Y57110D01*
X24200Y115610D01*
X29354Y66860D02*
X29356Y66996D01*
X29362Y67131D01*
X29372Y67266D01*
X29386Y67401D01*
X29404Y67535D01*
X29426Y67669D01*
X29452Y67802D01*
X29481Y67935D01*
X29515Y68066D01*
X29553Y68196D01*
X29594Y68325D01*
X29639Y68453D01*
X29688Y68580D01*
X29740Y68705D01*
X29797Y68828D01*
X29856Y68950D01*
X29920Y69069D01*
X29987Y69187D01*
X30057Y69303D01*
X30131Y69417D01*
X30208Y69528D01*
X30288Y69638D01*
X30372Y69744D01*
X30458Y69849D01*
X30548Y69950D01*
X30641Y70049D01*
X30736Y70146D01*
X30835Y70239D01*
X30936Y70329D01*
X31039Y70417D01*
X31145Y70501D01*
X31254Y70582D01*
X31365Y70660D01*
X31478Y70735D01*
X31594Y70806D01*
X31711Y70874D01*
X31830Y70938D01*
X31952Y70999D01*
X32074Y71056D01*
X32199Y71109D01*
X32325Y71159D01*
X32453Y71205D01*
X32581Y71248D01*
X32711Y71286D01*
X32843Y71321D01*
X32975Y71351D01*
X33107Y71378D01*
X33241Y71401D01*
X33375Y71420D01*
X33510Y71435D01*
X33645Y71446D01*
X33781Y71453D01*
X33916Y71456D01*
X34052Y71455D01*
X34187Y71450D01*
X34322Y71441D01*
X34457Y71428D01*
X34592Y71411D01*
X34726Y71390D01*
X34859Y71365D01*
X34992Y71336D01*
X35123Y71304D01*
X35254Y71267D01*
X35383Y71227D01*
X35511Y71183D01*
X35638Y71135D01*
X35763Y71083D01*
X35887Y71028D01*
X36009Y70969D01*
X36130Y70906D01*
X36248Y70840D01*
X36364Y70771D01*
X36479Y70698D01*
X36591Y70622D01*
X36701Y70542D01*
X36808Y70459D01*
X36913Y70373D01*
X37015Y70285D01*
X37115Y70193D01*
X37212Y70098D01*
X37306Y70000D01*
X37397Y69900D01*
X37485Y69797D01*
X37570Y69691D01*
X37652Y69583D01*
X37731Y69473D01*
X37806Y69360D01*
X37878Y69245D01*
X37947Y69129D01*
X38012Y69010D01*
X38074Y68889D01*
X38132Y68766D01*
X38186Y68642D01*
X38237Y68517D01*
X38284Y68389D01*
X38327Y68261D01*
X38367Y68131D01*
X38402Y68000D01*
X38434Y67869D01*
X38462Y67736D01*
X38486Y67602D01*
X38506Y67468D01*
X38522Y67334D01*
X38534Y67199D01*
X38542Y67063D01*
X38546Y66928D01*
X38546Y66792D01*
X38542Y66657D01*
X38534Y66521D01*
X38522Y66386D01*
X38506Y66252D01*
X38486Y66118D01*
X38462Y65984D01*
X38434Y65851D01*
X38402Y65720D01*
X38367Y65589D01*
X38327Y65459D01*
X38284Y65331D01*
X38237Y65203D01*
X38186Y65078D01*
X38132Y64954D01*
X38074Y64831D01*
X38012Y64710D01*
X37947Y64591D01*
X37878Y64475D01*
X37806Y64360D01*
X37731Y64247D01*
X37652Y64137D01*
X37570Y64029D01*
X37485Y63923D01*
X37397Y63820D01*
X37306Y63720D01*
X37212Y63622D01*
X37115Y63527D01*
X37015Y63435D01*
X36913Y63347D01*
X36808Y63261D01*
X36701Y63178D01*
X36591Y63098D01*
X36479Y63022D01*
X36364Y62949D01*
X36248Y62880D01*
X36130Y62814D01*
X36009Y62751D01*
X35887Y62692D01*
X35763Y62637D01*
X35638Y62585D01*
X35511Y62537D01*
X35383Y62493D01*
X35254Y62453D01*
X35123Y62416D01*
X34992Y62384D01*
X34859Y62355D01*
X34726Y62330D01*
X34592Y62309D01*
X34457Y62292D01*
X34322Y62279D01*
X34187Y62270D01*
X34052Y62265D01*
X33916Y62264D01*
X33781Y62267D01*
X33645Y62274D01*
X33510Y62285D01*
X33375Y62300D01*
X33241Y62319D01*
X33107Y62342D01*
X32975Y62369D01*
X32843Y62399D01*
X32711Y62434D01*
X32581Y62472D01*
X32453Y62515D01*
X32325Y62561D01*
X32199Y62611D01*
X32074Y62664D01*
X31952Y62721D01*
X31830Y62782D01*
X31711Y62846D01*
X31594Y62914D01*
X31478Y62985D01*
X31365Y63060D01*
X31254Y63138D01*
X31145Y63219D01*
X31039Y63303D01*
X30936Y63391D01*
X30835Y63481D01*
X30736Y63574D01*
X30641Y63671D01*
X30548Y63770D01*
X30458Y63871D01*
X30372Y63976D01*
X30288Y64082D01*
X30208Y64192D01*
X30131Y64303D01*
X30057Y64417D01*
X29987Y64533D01*
X29920Y64651D01*
X29856Y64770D01*
X29797Y64892D01*
X29740Y65015D01*
X29688Y65140D01*
X29639Y65267D01*
X29594Y65395D01*
X29553Y65524D01*
X29515Y65654D01*
X29481Y65785D01*
X29452Y65918D01*
X29426Y66051D01*
X29404Y66185D01*
X29386Y66319D01*
X29372Y66454D01*
X29362Y66589D01*
X29356Y66724D01*
X29354Y66860D01*
D13*
X38227Y99823D02*
X38227Y103000D01*
X38227Y99823D02*
X38863Y99187D01*
X40134Y99187D01*
X40769Y99823D01*
X40769Y103000D01*
X41969Y101729D02*
X43240Y103000D01*
X43240Y99187D01*
X41969Y99187D02*
X44511Y99187D01*
D15*
X40640Y154940D03*
D13*
X42173Y147831D02*
X42173Y144018D01*
X42173Y147831D02*
X44079Y147831D01*
X44715Y147196D01*
X44715Y145925D01*
X44079Y145289D01*
X42173Y145289D01*
X43444Y145289D02*
X44715Y144018D01*
X45915Y146560D02*
X47186Y147831D01*
X47186Y144018D01*
X45915Y144018D02*
X48457Y144018D01*
D15*
X125730Y154940D03*
D13*
X116967Y162052D02*
X116967Y165865D01*
X118874Y165865D01*
X119509Y165230D01*
X119509Y163959D01*
X118874Y163323D01*
X116967Y163323D01*
X118238Y163323D02*
X119509Y162052D01*
X120709Y162052D02*
X123251Y162052D01*
X120709Y162052D02*
X123251Y164594D01*
X123251Y165230D01*
X122616Y165865D01*
X121345Y165865D01*
X120709Y165230D01*
D14*
X71550Y154940D02*
X71550Y150340D01*
X71550Y154940D02*
X71550Y159540D01*
X71550Y154940D02*
X68450Y152602D01*
X71396Y155194D02*
X68450Y157124D01*
D13*
X61087Y162052D02*
X61087Y165865D01*
X61087Y162052D02*
X63629Y162052D01*
X64829Y165865D02*
X67371Y165865D01*
X64829Y165865D02*
X64829Y162052D01*
X67371Y162052D01*
X66100Y163959D02*
X64829Y163959D01*
X68571Y165865D02*
X68571Y162052D01*
X70478Y162052D01*
X71113Y162688D01*
X71113Y165230D01*
X70478Y165865D01*
X68571Y165865D01*
X72313Y164594D02*
X73584Y165865D01*
X73584Y162052D01*
X72313Y162052D02*
X74855Y162052D01*
D14*
X94820Y159540D02*
X94820Y154940D01*
X94820Y150340D01*
X94820Y154940D02*
X97920Y157278D01*
X94974Y154686D02*
X97920Y152756D01*
D13*
X90569Y147831D02*
X90569Y144018D01*
X93111Y144018D01*
X94311Y147831D02*
X96853Y147831D01*
X94311Y147831D02*
X94311Y144018D01*
X96853Y144018D01*
X95582Y145925D02*
X94311Y145925D01*
X98053Y147831D02*
X98053Y144018D01*
X99959Y144018D01*
X100595Y144654D01*
X100595Y147196D01*
X99959Y147831D01*
X98053Y147831D01*
X101795Y144018D02*
X104337Y144018D01*
X101795Y144018D02*
X104337Y146560D01*
X104337Y147196D01*
X103702Y147831D01*
X102430Y147831D01*
X101795Y147196D01*
D14*
X229300Y27400D02*
X364300Y27400D01*
X229300Y27400D02*
X229300Y46400D01*
X229300Y61400D02*
X229300Y71400D01*
X229300Y86400D02*
X229300Y91400D01*
X229300Y106400D02*
X229300Y116400D01*
X229300Y131400D02*
X229300Y150400D01*
X364300Y150400D01*
X364300Y145900D01*
X367300Y145900D01*
X367300Y103900D01*
X361300Y103900D01*
X361300Y73900D01*
X367300Y73900D01*
X367300Y31900D01*
X364300Y31900D01*
X364300Y27400D02*
X364407Y27398D01*
X364514Y27392D01*
X364621Y27383D01*
X364727Y27369D01*
X364833Y27352D01*
X364938Y27331D01*
X365042Y27307D01*
X365145Y27278D01*
X365247Y27246D01*
X365348Y27211D01*
X365448Y27172D01*
X365546Y27129D01*
X365643Y27083D01*
X365738Y27033D01*
X365831Y26980D01*
X365922Y26924D01*
X366011Y26864D01*
X366098Y26802D01*
X366182Y26736D01*
X366265Y26667D01*
X366344Y26596D01*
X366421Y26521D01*
X366496Y26444D01*
X366567Y26365D01*
X366636Y26282D01*
X366702Y26198D01*
X366764Y26111D01*
X366824Y26022D01*
X366880Y25931D01*
X366933Y25838D01*
X366983Y25743D01*
X367029Y25646D01*
X367072Y25548D01*
X367111Y25448D01*
X367146Y25347D01*
X367178Y25245D01*
X367207Y25142D01*
X367231Y25038D01*
X367252Y24933D01*
X367269Y24827D01*
X367283Y24721D01*
X367292Y24614D01*
X367298Y24507D01*
X367300Y24400D01*
X364300Y150400D02*
X364407Y150402D01*
X364514Y150408D01*
X364621Y150417D01*
X364727Y150431D01*
X364833Y150448D01*
X364938Y150469D01*
X365042Y150493D01*
X365145Y150522D01*
X365247Y150554D01*
X365348Y150589D01*
X365448Y150628D01*
X365546Y150671D01*
X365643Y150717D01*
X365738Y150767D01*
X365831Y150820D01*
X365922Y150876D01*
X366011Y150936D01*
X366098Y150998D01*
X366182Y151064D01*
X366265Y151133D01*
X366344Y151204D01*
X366421Y151279D01*
X366496Y151356D01*
X366567Y151435D01*
X366636Y151518D01*
X366702Y151602D01*
X366764Y151689D01*
X366824Y151778D01*
X366880Y151869D01*
X366933Y151962D01*
X366983Y152057D01*
X367029Y152154D01*
X367072Y152252D01*
X367111Y152352D01*
X367146Y152453D01*
X367178Y152555D01*
X367207Y152658D01*
X367231Y152762D01*
X367252Y152867D01*
X367269Y152973D01*
X367283Y153079D01*
X367292Y153186D01*
X367298Y153293D01*
X367300Y153400D01*
X364300Y31900D02*
X364300Y27400D01*
X258300Y13900D02*
X253300Y26400D01*
X258300Y13900D02*
X273300Y13900D01*
X278300Y26400D01*
X278300Y151400D02*
X273300Y163900D01*
X258300Y163900D01*
X253300Y151400D01*
X313300Y73900D02*
X353300Y63900D01*
X353300Y53900D01*
X313300Y43900D01*
X353300Y123900D02*
X313300Y133900D01*
X353300Y123900D02*
X353300Y113900D01*
X313300Y103900D01*
D16*
X278300Y106400D02*
X278300Y71400D01*
X278300Y70900D02*
X284800Y72400D01*
X288300Y73400D01*
X290300Y74400D01*
X291800Y75900D01*
X288300Y80400D02*
X284800Y81400D01*
X288300Y80400D02*
X290300Y79400D01*
X291800Y77900D01*
X291800Y75900D01*
X271800Y93400D02*
X268300Y92400D01*
X266300Y91400D01*
X264800Y89900D01*
X271800Y84400D02*
X284800Y81400D01*
X271800Y84400D02*
X268300Y85400D01*
X266300Y86400D01*
X264800Y87900D01*
X264800Y89900D01*
X271800Y93400D02*
X284800Y96400D01*
X288300Y97400D01*
X290300Y98400D01*
X291800Y99900D01*
X284800Y105400D02*
X278300Y106900D01*
X284800Y105400D02*
X288300Y104400D01*
X290300Y103400D01*
X291800Y101900D01*
X291800Y99900D01*
X256279Y88900D02*
X256286Y89465D01*
X256307Y90030D01*
X256341Y90594D01*
X256390Y91156D01*
X256452Y91718D01*
X256528Y92278D01*
X256618Y92836D01*
X256721Y93391D01*
X256838Y93944D01*
X256969Y94494D01*
X257113Y95040D01*
X257270Y95583D01*
X257441Y96121D01*
X257625Y96656D01*
X257822Y97185D01*
X258031Y97710D01*
X258254Y98229D01*
X258489Y98743D01*
X258737Y99251D01*
X258997Y99752D01*
X259270Y100247D01*
X259554Y100735D01*
X259851Y101216D01*
X260159Y101690D01*
X260478Y102156D01*
X260809Y102614D01*
X261151Y103063D01*
X261505Y103504D01*
X261868Y103937D01*
X262243Y104360D01*
X262627Y104774D01*
X263022Y105178D01*
X263426Y105573D01*
X263840Y105957D01*
X264263Y106332D01*
X264696Y106695D01*
X265137Y107049D01*
X265586Y107391D01*
X266044Y107722D01*
X266510Y108041D01*
X266984Y108349D01*
X267465Y108646D01*
X267953Y108930D01*
X268448Y109203D01*
X268949Y109463D01*
X269457Y109711D01*
X269971Y109946D01*
X270490Y110169D01*
X271015Y110378D01*
X271544Y110575D01*
X272079Y110759D01*
X272617Y110930D01*
X273160Y111087D01*
X273706Y111231D01*
X274256Y111362D01*
X274809Y111479D01*
X275364Y111582D01*
X275922Y111672D01*
X276482Y111748D01*
X277044Y111810D01*
X277606Y111859D01*
X278170Y111893D01*
X278735Y111914D01*
X279300Y111921D01*
X279865Y111914D01*
X280430Y111893D01*
X280994Y111859D01*
X281556Y111810D01*
X282118Y111748D01*
X282678Y111672D01*
X283236Y111582D01*
X283791Y111479D01*
X284344Y111362D01*
X284894Y111231D01*
X285440Y111087D01*
X285983Y110930D01*
X286521Y110759D01*
X287056Y110575D01*
X287585Y110378D01*
X288110Y110169D01*
X288629Y109946D01*
X289143Y109711D01*
X289651Y109463D01*
X290152Y109203D01*
X290647Y108930D01*
X291135Y108646D01*
X291616Y108349D01*
X292090Y108041D01*
X292556Y107722D01*
X293014Y107391D01*
X293463Y107049D01*
X293904Y106695D01*
X294337Y106332D01*
X294760Y105957D01*
X295174Y105573D01*
X295578Y105178D01*
X295973Y104774D01*
X296357Y104360D01*
X296732Y103937D01*
X297095Y103504D01*
X297449Y103063D01*
X297791Y102614D01*
X298122Y102156D01*
X298441Y101690D01*
X298749Y101216D01*
X299046Y100735D01*
X299330Y100247D01*
X299603Y99752D01*
X299863Y99251D01*
X300111Y98743D01*
X300346Y98229D01*
X300569Y97710D01*
X300778Y97185D01*
X300975Y96656D01*
X301159Y96121D01*
X301330Y95583D01*
X301487Y95040D01*
X301631Y94494D01*
X301762Y93944D01*
X301879Y93391D01*
X301982Y92836D01*
X302072Y92278D01*
X302148Y91718D01*
X302210Y91156D01*
X302259Y90594D01*
X302293Y90030D01*
X302314Y89465D01*
X302321Y88900D01*
X302314Y88335D01*
X302293Y87770D01*
X302259Y87206D01*
X302210Y86644D01*
X302148Y86082D01*
X302072Y85522D01*
X301982Y84964D01*
X301879Y84409D01*
X301762Y83856D01*
X301631Y83306D01*
X301487Y82760D01*
X301330Y82217D01*
X301159Y81679D01*
X300975Y81144D01*
X300778Y80615D01*
X300569Y80090D01*
X300346Y79571D01*
X300111Y79057D01*
X299863Y78549D01*
X299603Y78048D01*
X299330Y77553D01*
X299046Y77065D01*
X298749Y76584D01*
X298441Y76110D01*
X298122Y75644D01*
X297791Y75186D01*
X297449Y74737D01*
X297095Y74296D01*
X296732Y73863D01*
X296357Y73440D01*
X295973Y73026D01*
X295578Y72622D01*
X295174Y72227D01*
X294760Y71843D01*
X294337Y71468D01*
X293904Y71105D01*
X293463Y70751D01*
X293014Y70409D01*
X292556Y70078D01*
X292090Y69759D01*
X291616Y69451D01*
X291135Y69154D01*
X290647Y68870D01*
X290152Y68597D01*
X289651Y68337D01*
X289143Y68089D01*
X288629Y67854D01*
X288110Y67631D01*
X287585Y67422D01*
X287056Y67225D01*
X286521Y67041D01*
X285983Y66870D01*
X285440Y66713D01*
X284894Y66569D01*
X284344Y66438D01*
X283791Y66321D01*
X283236Y66218D01*
X282678Y66128D01*
X282118Y66052D01*
X281556Y65990D01*
X280994Y65941D01*
X280430Y65907D01*
X279865Y65886D01*
X279300Y65879D01*
X278735Y65886D01*
X278170Y65907D01*
X277606Y65941D01*
X277044Y65990D01*
X276482Y66052D01*
X275922Y66128D01*
X275364Y66218D01*
X274809Y66321D01*
X274256Y66438D01*
X273706Y66569D01*
X273160Y66713D01*
X272617Y66870D01*
X272079Y67041D01*
X271544Y67225D01*
X271015Y67422D01*
X270490Y67631D01*
X269971Y67854D01*
X269457Y68089D01*
X268949Y68337D01*
X268448Y68597D01*
X267953Y68870D01*
X267465Y69154D01*
X266984Y69451D01*
X266510Y69759D01*
X266044Y70078D01*
X265586Y70409D01*
X265137Y70751D01*
X264696Y71105D01*
X264263Y71468D01*
X263840Y71843D01*
X263426Y72227D01*
X263022Y72622D01*
X262627Y73026D01*
X262243Y73440D01*
X261868Y73863D01*
X261505Y74296D01*
X261151Y74737D01*
X260809Y75186D01*
X260478Y75644D01*
X260159Y76110D01*
X259851Y76584D01*
X259554Y77065D01*
X259270Y77553D01*
X258997Y78048D01*
X258737Y78549D01*
X258489Y79057D01*
X258254Y79571D01*
X258031Y80090D01*
X257822Y80615D01*
X257625Y81144D01*
X257441Y81679D01*
X257270Y82217D01*
X257113Y82760D01*
X256969Y83306D01*
X256838Y83856D01*
X256721Y84409D01*
X256618Y84964D01*
X256528Y85522D01*
X256452Y86082D01*
X256390Y86644D01*
X256341Y87206D01*
X256307Y87770D01*
X256286Y88335D01*
X256279Y88900D01*
D17*
X320020Y12202D02*
X327816Y508D01*
X320020Y508D02*
X327816Y12202D01*
X331714Y8304D02*
X335612Y12202D01*
X335612Y508D01*
X331714Y508D02*
X339510Y508D01*
X341140Y79408D02*
X348767Y79408D01*
X350292Y80933D01*
X350292Y83984D01*
X348767Y85509D01*
X341140Y85509D01*
X341140Y93339D02*
X342666Y94864D01*
X341140Y93339D02*
X341140Y90288D01*
X342666Y88763D01*
X344191Y88763D01*
X345716Y90288D01*
X345716Y93339D01*
X347241Y94864D01*
X348767Y94864D01*
X350292Y93339D01*
X350292Y90288D01*
X348767Y88763D01*
X350292Y98118D02*
X341140Y98118D01*
X341140Y102694D01*
X342666Y104220D01*
X344191Y104220D01*
X345716Y102694D01*
X347241Y104220D01*
X348767Y104220D01*
X350292Y102694D01*
X350292Y98118D01*
X345716Y98118D02*
X345716Y102694D01*
D18*
X367300Y23900D03*
X367300Y153900D03*
M02*
