G04 EAGLE Gerber X2 export*
%TF.Part,Single*%
%TF.FileFunction,Copper,L2,Bot,Mixed*%
%TF.FilePolarity,Positive*%
%TF.GenerationSoftware,Autodesk,EAGLE,9.1.0*%
%TF.CreationDate,2018-08-21T06:48:51Z*%
G75*
%MOMM*%
%FSLAX34Y34*%
%LPD*%
%AMOC8*
5,1,8,0,0,1.08239X$1,22.5*%
G01*
%ADD10P,1.924489X8X202.500000*%
%ADD11C,0.304800*%
%ADD12C,0.906400*%

G36*
X298492Y4070D02*
X298492Y4070D01*
X298570Y4069D01*
X300675Y4235D01*
X300732Y4246D01*
X300789Y4248D01*
X300999Y4298D01*
X301017Y4302D01*
X301021Y4304D01*
X301027Y4305D01*
X305032Y5607D01*
X305138Y5655D01*
X305248Y5696D01*
X305312Y5734D01*
X305349Y5751D01*
X305384Y5779D01*
X305457Y5823D01*
X308864Y8299D01*
X308951Y8378D01*
X309042Y8450D01*
X309091Y8506D01*
X309121Y8534D01*
X309146Y8571D01*
X309201Y8636D01*
X311677Y12043D01*
X311735Y12145D01*
X311799Y12242D01*
X311828Y12311D01*
X311848Y12347D01*
X311861Y12389D01*
X311893Y12468D01*
X313195Y16473D01*
X313206Y16529D01*
X313226Y16583D01*
X313260Y16797D01*
X313264Y16815D01*
X313264Y16819D01*
X313265Y16825D01*
X313431Y18930D01*
X313429Y18973D01*
X313435Y19050D01*
X313435Y23467D01*
X313424Y23567D01*
X313422Y23667D01*
X313404Y23739D01*
X313395Y23813D01*
X313361Y23908D01*
X313337Y24005D01*
X313303Y24071D01*
X313278Y24141D01*
X313223Y24226D01*
X313177Y24315D01*
X313129Y24372D01*
X313089Y24434D01*
X313017Y24504D01*
X312952Y24580D01*
X312892Y24625D01*
X312838Y24676D01*
X312752Y24728D01*
X312671Y24788D01*
X312603Y24817D01*
X312539Y24855D01*
X312443Y24886D01*
X312351Y24926D01*
X312278Y24939D01*
X312207Y24961D01*
X312107Y24970D01*
X312008Y24987D01*
X311934Y24983D01*
X311860Y24989D01*
X311760Y24975D01*
X311660Y24969D01*
X311589Y24949D01*
X311515Y24938D01*
X311422Y24901D01*
X311325Y24873D01*
X311260Y24837D01*
X311191Y24809D01*
X311109Y24752D01*
X311021Y24703D01*
X310945Y24637D01*
X310905Y24610D01*
X310881Y24584D01*
X310835Y24544D01*
X310166Y23875D01*
X299434Y23875D01*
X291845Y31464D01*
X291845Y42196D01*
X299180Y49531D01*
X299196Y49551D01*
X299216Y49568D01*
X299304Y49688D01*
X299396Y49804D01*
X299408Y49827D01*
X299423Y49848D01*
X299482Y49985D01*
X299545Y50119D01*
X299551Y50144D01*
X299561Y50168D01*
X299588Y50315D01*
X299619Y50459D01*
X299618Y50485D01*
X299623Y50511D01*
X299615Y50660D01*
X299613Y50808D01*
X299606Y50833D01*
X299605Y50859D01*
X299564Y51002D01*
X299528Y51146D01*
X299516Y51169D01*
X299508Y51194D01*
X299436Y51324D01*
X299368Y51456D01*
X299351Y51476D01*
X299338Y51498D01*
X299180Y51685D01*
X293369Y57495D01*
X293369Y59691D01*
X303784Y59691D01*
X303810Y59694D01*
X303836Y59692D01*
X303983Y59714D01*
X304130Y59731D01*
X304155Y59739D01*
X304181Y59743D01*
X304318Y59798D01*
X304458Y59848D01*
X304480Y59862D01*
X304505Y59872D01*
X304626Y59957D01*
X304751Y60037D01*
X304769Y60056D01*
X304791Y60071D01*
X304890Y60181D01*
X304993Y60288D01*
X305007Y60310D01*
X305024Y60330D01*
X305096Y60460D01*
X305172Y60587D01*
X305180Y60612D01*
X305193Y60635D01*
X305233Y60778D01*
X305278Y60919D01*
X305280Y60945D01*
X305287Y60970D01*
X305307Y61214D01*
X305307Y63246D01*
X305304Y63272D01*
X305306Y63298D01*
X305284Y63445D01*
X305267Y63592D01*
X305258Y63617D01*
X305254Y63643D01*
X305200Y63781D01*
X305150Y63920D01*
X305135Y63942D01*
X305126Y63967D01*
X305041Y64088D01*
X304961Y64213D01*
X304942Y64231D01*
X304927Y64253D01*
X304817Y64352D01*
X304710Y64455D01*
X304687Y64469D01*
X304668Y64486D01*
X304538Y64558D01*
X304411Y64634D01*
X304386Y64642D01*
X304363Y64655D01*
X304220Y64695D01*
X304079Y64740D01*
X304053Y64742D01*
X304028Y64750D01*
X303784Y64769D01*
X293369Y64769D01*
X293369Y66965D01*
X299180Y72775D01*
X299196Y72796D01*
X299216Y72813D01*
X299304Y72932D01*
X299396Y73048D01*
X299408Y73072D01*
X299423Y73093D01*
X299482Y73229D01*
X299545Y73363D01*
X299551Y73389D01*
X299561Y73413D01*
X299588Y73559D01*
X299619Y73704D01*
X299618Y73730D01*
X299623Y73756D01*
X299615Y73905D01*
X299613Y74053D01*
X299606Y74078D01*
X299605Y74104D01*
X299564Y74247D01*
X299528Y74391D01*
X299516Y74414D01*
X299508Y74439D01*
X299436Y74568D01*
X299368Y74700D01*
X299351Y74720D01*
X299338Y74743D01*
X299180Y74929D01*
X291845Y82264D01*
X291845Y92996D01*
X298102Y99253D01*
X298118Y99273D01*
X298138Y99290D01*
X298227Y99410D01*
X298319Y99526D01*
X298330Y99550D01*
X298346Y99571D01*
X298404Y99707D01*
X298468Y99841D01*
X298473Y99867D01*
X298484Y99891D01*
X298510Y100037D01*
X298541Y100182D01*
X298541Y100208D01*
X298545Y100234D01*
X298538Y100382D01*
X298535Y100530D01*
X298529Y100556D01*
X298527Y100582D01*
X298486Y100724D01*
X298450Y100868D01*
X298438Y100891D01*
X298431Y100917D01*
X298358Y101046D01*
X298290Y101178D01*
X298273Y101198D01*
X298261Y101221D01*
X298102Y101407D01*
X291845Y107664D01*
X291845Y110084D01*
X291834Y110184D01*
X291832Y110284D01*
X291814Y110356D01*
X291805Y110430D01*
X291772Y110525D01*
X291747Y110622D01*
X291713Y110688D01*
X291688Y110758D01*
X291633Y110843D01*
X291587Y110932D01*
X291539Y110989D01*
X291499Y111051D01*
X291427Y111121D01*
X291362Y111198D01*
X291302Y111242D01*
X291248Y111293D01*
X291162Y111345D01*
X291081Y111405D01*
X291013Y111434D01*
X290949Y111472D01*
X290853Y111503D01*
X290761Y111543D01*
X290688Y111556D01*
X290617Y111579D01*
X290517Y111587D01*
X290418Y111604D01*
X290344Y111601D01*
X290270Y111607D01*
X290170Y111592D01*
X290070Y111586D01*
X289999Y111566D01*
X289925Y111555D01*
X289832Y111518D01*
X289735Y111490D01*
X289670Y111454D01*
X289601Y111426D01*
X289519Y111369D01*
X289431Y111320D01*
X289355Y111255D01*
X289315Y111227D01*
X289291Y111201D01*
X289245Y111161D01*
X265743Y87659D01*
X265726Y87638D01*
X265706Y87621D01*
X265618Y87502D01*
X265526Y87386D01*
X265515Y87362D01*
X265499Y87341D01*
X265441Y87205D01*
X265377Y87071D01*
X265372Y87045D01*
X265361Y87021D01*
X265335Y86875D01*
X265304Y86730D01*
X265304Y86704D01*
X265300Y86678D01*
X265307Y86530D01*
X265310Y86382D01*
X265316Y86356D01*
X265318Y86330D01*
X265359Y86188D01*
X265395Y86044D01*
X265407Y86020D01*
X265414Y85995D01*
X265487Y85866D01*
X265554Y85734D01*
X265571Y85714D01*
X265584Y85691D01*
X265743Y85505D01*
X267638Y83610D01*
X268947Y80450D01*
X268947Y77030D01*
X267638Y73870D01*
X265220Y71452D01*
X262060Y70143D01*
X258640Y70143D01*
X255480Y71452D01*
X254227Y72705D01*
X254128Y72784D01*
X254034Y72868D01*
X253992Y72892D01*
X253954Y72922D01*
X253840Y72976D01*
X253729Y73037D01*
X253683Y73050D01*
X253639Y73071D01*
X253516Y73097D01*
X253394Y73132D01*
X253333Y73137D01*
X253298Y73144D01*
X253250Y73143D01*
X253150Y73151D01*
X136048Y73151D01*
X133994Y74002D01*
X110832Y97164D01*
X109981Y99218D01*
X109981Y143104D01*
X109967Y143230D01*
X109960Y143356D01*
X109947Y143402D01*
X109941Y143450D01*
X109899Y143569D01*
X109864Y143691D01*
X109840Y143733D01*
X109824Y143778D01*
X109755Y143885D01*
X109694Y143995D01*
X109654Y144041D01*
X109635Y144071D01*
X109600Y144105D01*
X109535Y144181D01*
X85432Y168284D01*
X84581Y170338D01*
X84581Y191364D01*
X84567Y191490D01*
X84560Y191616D01*
X84547Y191662D01*
X84541Y191710D01*
X84499Y191829D01*
X84464Y191951D01*
X84440Y191993D01*
X84424Y192038D01*
X84355Y192145D01*
X84294Y192255D01*
X84254Y192301D01*
X84235Y192331D01*
X84200Y192365D01*
X84135Y192441D01*
X81951Y194625D01*
X81852Y194704D01*
X81758Y194788D01*
X81716Y194812D01*
X81678Y194842D01*
X81564Y194896D01*
X81453Y194957D01*
X81407Y194970D01*
X81363Y194991D01*
X81240Y195017D01*
X81118Y195052D01*
X81057Y195057D01*
X81022Y195064D01*
X80974Y195063D01*
X80874Y195071D01*
X76146Y195071D01*
X76096Y195066D01*
X76046Y195068D01*
X75923Y195046D01*
X75800Y195031D01*
X75752Y195014D01*
X75703Y195005D01*
X75589Y194956D01*
X75472Y194914D01*
X75429Y194887D01*
X75383Y194867D01*
X75283Y194792D01*
X75179Y194725D01*
X75144Y194689D01*
X75103Y194659D01*
X75023Y194564D01*
X74937Y194474D01*
X74911Y194431D01*
X74878Y194393D01*
X74822Y194282D01*
X74758Y194175D01*
X74742Y194127D01*
X74719Y194082D01*
X74689Y193962D01*
X74652Y193843D01*
X74648Y193793D01*
X74635Y193744D01*
X74634Y193620D01*
X74624Y193496D01*
X74631Y193446D01*
X74630Y193396D01*
X74657Y193274D01*
X74675Y193151D01*
X74694Y193104D01*
X74705Y193055D01*
X74758Y192943D01*
X74804Y192827D01*
X74833Y192786D01*
X74854Y192740D01*
X74932Y192643D01*
X75003Y192541D01*
X75040Y192507D01*
X75072Y192468D01*
X75169Y192391D01*
X75262Y192308D01*
X75306Y192283D01*
X75345Y192252D01*
X75563Y192141D01*
X77260Y191438D01*
X79678Y189020D01*
X80987Y185860D01*
X80987Y182440D01*
X79678Y179280D01*
X78425Y178027D01*
X78346Y177928D01*
X78262Y177834D01*
X78238Y177792D01*
X78208Y177754D01*
X78154Y177640D01*
X78093Y177529D01*
X78080Y177483D01*
X78059Y177439D01*
X78033Y177316D01*
X77998Y177194D01*
X77993Y177133D01*
X77986Y177098D01*
X77987Y177050D01*
X77979Y176950D01*
X77979Y108800D01*
X77993Y108674D01*
X78000Y108548D01*
X78013Y108502D01*
X78019Y108454D01*
X78061Y108335D01*
X78096Y108213D01*
X78120Y108171D01*
X78136Y108126D01*
X78205Y108019D01*
X78266Y107909D01*
X78306Y107863D01*
X78325Y107833D01*
X78360Y107799D01*
X78425Y107723D01*
X79678Y106470D01*
X80987Y103310D01*
X80987Y99890D01*
X79678Y96730D01*
X77260Y94312D01*
X74100Y93003D01*
X70680Y93003D01*
X67520Y94312D01*
X65102Y96730D01*
X63793Y99890D01*
X63793Y103310D01*
X65102Y106470D01*
X66355Y107723D01*
X66433Y107822D01*
X66518Y107916D01*
X66542Y107958D01*
X66572Y107996D01*
X66626Y108110D01*
X66687Y108221D01*
X66700Y108267D01*
X66721Y108311D01*
X66747Y108434D01*
X66782Y108556D01*
X66787Y108617D01*
X66794Y108652D01*
X66793Y108700D01*
X66801Y108800D01*
X66801Y176950D01*
X66787Y177076D01*
X66780Y177202D01*
X66767Y177248D01*
X66761Y177296D01*
X66719Y177415D01*
X66684Y177537D01*
X66660Y177579D01*
X66644Y177624D01*
X66575Y177731D01*
X66514Y177841D01*
X66474Y177887D01*
X66455Y177917D01*
X66420Y177951D01*
X66355Y178027D01*
X65102Y179280D01*
X63793Y182440D01*
X63793Y185860D01*
X65102Y189020D01*
X67520Y191438D01*
X69217Y192141D01*
X69261Y192165D01*
X69308Y192182D01*
X69413Y192250D01*
X69522Y192310D01*
X69559Y192344D01*
X69601Y192371D01*
X69688Y192461D01*
X69780Y192544D01*
X69808Y192586D01*
X69843Y192622D01*
X69907Y192729D01*
X69978Y192831D01*
X69996Y192878D01*
X70022Y192921D01*
X70060Y193039D01*
X70106Y193155D01*
X70113Y193205D01*
X70128Y193253D01*
X70138Y193377D01*
X70157Y193500D01*
X70152Y193550D01*
X70156Y193600D01*
X70138Y193723D01*
X70128Y193847D01*
X70112Y193895D01*
X70105Y193945D01*
X70059Y194060D01*
X70021Y194179D01*
X69995Y194222D01*
X69976Y194269D01*
X69905Y194371D01*
X69841Y194477D01*
X69806Y194514D01*
X69777Y194555D01*
X69685Y194638D01*
X69598Y194727D01*
X69556Y194755D01*
X69518Y194788D01*
X69409Y194848D01*
X69305Y194916D01*
X69257Y194933D01*
X69213Y194957D01*
X69093Y194991D01*
X68976Y195032D01*
X68926Y195038D01*
X68878Y195052D01*
X68634Y195071D01*
X52228Y195071D01*
X50174Y195922D01*
X43522Y202574D01*
X43054Y203704D01*
X43053Y203706D01*
X43052Y203708D01*
X42968Y203859D01*
X42885Y204009D01*
X42883Y204011D01*
X42882Y204012D01*
X42724Y204199D01*
X40972Y205950D01*
X39663Y209110D01*
X39663Y212530D01*
X40972Y215690D01*
X43390Y218108D01*
X46550Y219417D01*
X49970Y219417D01*
X51079Y218957D01*
X53130Y218108D01*
X55548Y215690D01*
X56857Y212530D01*
X56857Y209110D01*
X56544Y208355D01*
X56503Y208210D01*
X56457Y208067D01*
X56455Y208043D01*
X56448Y208020D01*
X56441Y207869D01*
X56429Y207720D01*
X56433Y207696D01*
X56431Y207672D01*
X56458Y207524D01*
X56481Y207375D01*
X56490Y207353D01*
X56494Y207329D01*
X56554Y207191D01*
X56609Y207051D01*
X56623Y207031D01*
X56633Y207009D01*
X56723Y206888D01*
X56808Y206765D01*
X56826Y206749D01*
X56841Y206729D01*
X56956Y206632D01*
X57067Y206532D01*
X57088Y206520D01*
X57107Y206504D01*
X57240Y206436D01*
X57372Y206363D01*
X57395Y206357D01*
X57417Y206346D01*
X57562Y206309D01*
X57707Y206268D01*
X57737Y206266D01*
X57755Y206261D01*
X57802Y206261D01*
X57951Y206249D01*
X84932Y206249D01*
X86986Y205398D01*
X94908Y197476D01*
X95759Y195422D01*
X95759Y174396D01*
X95773Y174270D01*
X95780Y174144D01*
X95793Y174098D01*
X95799Y174050D01*
X95841Y173931D01*
X95876Y173809D01*
X95900Y173767D01*
X95916Y173722D01*
X95985Y173615D01*
X96046Y173505D01*
X96086Y173459D01*
X96105Y173429D01*
X96140Y173395D01*
X96205Y173319D01*
X120308Y149216D01*
X121159Y147162D01*
X121159Y103276D01*
X121173Y103150D01*
X121180Y103024D01*
X121193Y102978D01*
X121199Y102930D01*
X121241Y102811D01*
X121276Y102689D01*
X121300Y102647D01*
X121316Y102602D01*
X121385Y102495D01*
X121446Y102385D01*
X121486Y102339D01*
X121505Y102309D01*
X121540Y102275D01*
X121605Y102199D01*
X139029Y84775D01*
X139128Y84696D01*
X139222Y84612D01*
X139264Y84588D01*
X139302Y84558D01*
X139416Y84504D01*
X139527Y84443D01*
X139573Y84430D01*
X139617Y84409D01*
X139740Y84383D01*
X139862Y84348D01*
X139923Y84343D01*
X139958Y84336D01*
X140006Y84337D01*
X140106Y84329D01*
X191110Y84329D01*
X191210Y84340D01*
X191310Y84342D01*
X191383Y84360D01*
X191456Y84369D01*
X191551Y84402D01*
X191648Y84427D01*
X191714Y84461D01*
X191784Y84486D01*
X191869Y84541D01*
X191958Y84587D01*
X192015Y84635D01*
X192077Y84675D01*
X192147Y84747D01*
X192224Y84812D01*
X192268Y84872D01*
X192319Y84926D01*
X192371Y85012D01*
X192431Y85093D01*
X192460Y85161D01*
X192498Y85225D01*
X192529Y85321D01*
X192569Y85413D01*
X192582Y85486D01*
X192605Y85557D01*
X192613Y85657D01*
X192630Y85756D01*
X192627Y85830D01*
X192633Y85904D01*
X192618Y86004D01*
X192612Y86104D01*
X192592Y86175D01*
X192581Y86249D01*
X192544Y86342D01*
X192516Y86439D01*
X192480Y86504D01*
X192452Y86573D01*
X192395Y86655D01*
X192346Y86743D01*
X192281Y86819D01*
X192253Y86859D01*
X192227Y86883D01*
X192187Y86929D01*
X190628Y88489D01*
X111629Y167487D01*
X111530Y167566D01*
X111436Y167650D01*
X111394Y167674D01*
X111356Y167704D01*
X111242Y167758D01*
X111131Y167819D01*
X111085Y167832D01*
X111041Y167853D01*
X110918Y167879D01*
X110796Y167914D01*
X110735Y167919D01*
X110700Y167926D01*
X110652Y167925D01*
X110552Y167933D01*
X108780Y167933D01*
X105620Y169242D01*
X103202Y171660D01*
X101893Y174820D01*
X101893Y178240D01*
X103202Y181400D01*
X105620Y183818D01*
X108780Y185127D01*
X112200Y185127D01*
X115360Y183818D01*
X117778Y181400D01*
X119087Y178240D01*
X119087Y176468D01*
X119101Y176342D01*
X119108Y176216D01*
X119121Y176170D01*
X119127Y176122D01*
X119169Y176003D01*
X119204Y175881D01*
X119228Y175839D01*
X119244Y175794D01*
X119313Y175687D01*
X119374Y175577D01*
X119414Y175531D01*
X119433Y175501D01*
X119468Y175467D01*
X119533Y175391D01*
X193746Y101178D01*
X193785Y101146D01*
X193819Y101109D01*
X193922Y101038D01*
X194019Y100961D01*
X194065Y100939D01*
X194106Y100911D01*
X194222Y100865D01*
X194334Y100812D01*
X194383Y100801D01*
X194430Y100783D01*
X194553Y100765D01*
X194675Y100739D01*
X194725Y100740D01*
X194775Y100732D01*
X194899Y100742D01*
X195023Y100745D01*
X195072Y100757D01*
X195122Y100761D01*
X195241Y100799D01*
X195361Y100830D01*
X195406Y100853D01*
X195454Y100868D01*
X195560Y100932D01*
X195671Y100989D01*
X195710Y101022D01*
X195753Y101048D01*
X195842Y101134D01*
X195937Y101215D01*
X195967Y101256D01*
X196003Y101291D01*
X196070Y101395D01*
X196144Y101495D01*
X196164Y101542D01*
X196191Y101584D01*
X196233Y101701D01*
X196282Y101815D01*
X196291Y101865D01*
X196308Y101912D01*
X196321Y102036D01*
X196343Y102158D01*
X196341Y102209D01*
X196346Y102259D01*
X196332Y102382D01*
X196325Y102506D01*
X196312Y102555D01*
X196306Y102605D01*
X196230Y102838D01*
X195873Y103700D01*
X195873Y107120D01*
X197182Y110280D01*
X198435Y111533D01*
X198513Y111632D01*
X198598Y111726D01*
X198622Y111768D01*
X198652Y111806D01*
X198706Y111920D01*
X198767Y112031D01*
X198780Y112077D01*
X198801Y112121D01*
X198827Y112244D01*
X198862Y112366D01*
X198867Y112427D01*
X198874Y112462D01*
X198873Y112510D01*
X198881Y112610D01*
X198881Y120492D01*
X199732Y122546D01*
X271154Y193968D01*
X273208Y194819D01*
X291437Y194819D01*
X291563Y194833D01*
X291689Y194840D01*
X291735Y194853D01*
X291783Y194859D01*
X291902Y194901D01*
X292024Y194936D01*
X292066Y194960D01*
X292111Y194976D01*
X292218Y195045D01*
X292328Y195106D01*
X292374Y195146D01*
X292404Y195165D01*
X292438Y195200D01*
X292514Y195265D01*
X298102Y200853D01*
X298118Y200873D01*
X298138Y200890D01*
X298227Y201010D01*
X298319Y201126D01*
X298330Y201150D01*
X298346Y201171D01*
X298404Y201307D01*
X298468Y201441D01*
X298473Y201467D01*
X298484Y201491D01*
X298510Y201637D01*
X298541Y201782D01*
X298541Y201808D01*
X298545Y201834D01*
X298538Y201982D01*
X298535Y202130D01*
X298529Y202156D01*
X298527Y202182D01*
X298486Y202324D01*
X298450Y202468D01*
X298438Y202491D01*
X298431Y202517D01*
X298358Y202646D01*
X298290Y202778D01*
X298273Y202798D01*
X298261Y202821D01*
X298102Y203007D01*
X291845Y209264D01*
X291845Y219996D01*
X299434Y227585D01*
X310166Y227585D01*
X310835Y226916D01*
X310914Y226853D01*
X310986Y226784D01*
X311050Y226745D01*
X311108Y226699D01*
X311199Y226656D01*
X311285Y226605D01*
X311356Y226582D01*
X311423Y226550D01*
X311521Y226529D01*
X311617Y226499D01*
X311691Y226493D01*
X311764Y226477D01*
X311864Y226479D01*
X311964Y226471D01*
X312038Y226482D01*
X312112Y226483D01*
X312209Y226507D01*
X312309Y226522D01*
X312378Y226550D01*
X312450Y226568D01*
X312539Y226614D01*
X312633Y226651D01*
X312694Y226693D01*
X312760Y226728D01*
X312836Y226793D01*
X312919Y226850D01*
X312969Y226905D01*
X313025Y226953D01*
X313085Y227034D01*
X313152Y227109D01*
X313188Y227174D01*
X313233Y227234D01*
X313272Y227326D01*
X313321Y227414D01*
X313341Y227485D01*
X313371Y227554D01*
X313388Y227652D01*
X313416Y227749D01*
X313424Y227849D01*
X313432Y227897D01*
X313430Y227932D01*
X313435Y227993D01*
X313435Y234950D01*
X313430Y234992D01*
X313431Y235070D01*
X313265Y237175D01*
X313254Y237232D01*
X313252Y237289D01*
X313202Y237499D01*
X313198Y237517D01*
X313196Y237521D01*
X313195Y237527D01*
X311893Y241532D01*
X311845Y241638D01*
X311804Y241748D01*
X311766Y241812D01*
X311749Y241849D01*
X311721Y241884D01*
X311677Y241957D01*
X309201Y245364D01*
X309122Y245451D01*
X309050Y245542D01*
X308994Y245591D01*
X308966Y245621D01*
X308929Y245646D01*
X308864Y245701D01*
X305457Y248177D01*
X305355Y248235D01*
X305258Y248299D01*
X305189Y248328D01*
X305153Y248348D01*
X305111Y248361D01*
X305032Y248393D01*
X301027Y249695D01*
X300971Y249706D01*
X300917Y249726D01*
X300703Y249760D01*
X300685Y249764D01*
X300681Y249764D01*
X300675Y249765D01*
X298570Y249931D01*
X298527Y249929D01*
X298450Y249935D01*
X19050Y249935D01*
X19008Y249930D01*
X18930Y249931D01*
X16825Y249765D01*
X16768Y249754D01*
X16711Y249752D01*
X16501Y249702D01*
X16483Y249698D01*
X16479Y249696D01*
X16473Y249695D01*
X12468Y248393D01*
X12362Y248345D01*
X12252Y248304D01*
X12188Y248266D01*
X12151Y248249D01*
X12116Y248221D01*
X12043Y248177D01*
X8636Y245701D01*
X8549Y245622D01*
X8458Y245550D01*
X8409Y245494D01*
X8379Y245466D01*
X8354Y245429D01*
X8299Y245364D01*
X5823Y241957D01*
X5765Y241855D01*
X5701Y241758D01*
X5672Y241689D01*
X5652Y241653D01*
X5639Y241611D01*
X5607Y241532D01*
X4305Y237527D01*
X4294Y237471D01*
X4274Y237417D01*
X4240Y237203D01*
X4236Y237185D01*
X4236Y237181D01*
X4235Y237175D01*
X4069Y235070D01*
X4071Y235027D01*
X4065Y234950D01*
X4065Y19050D01*
X4070Y19008D01*
X4069Y18930D01*
X4235Y16825D01*
X4246Y16768D01*
X4248Y16711D01*
X4298Y16501D01*
X4302Y16483D01*
X4304Y16479D01*
X4305Y16473D01*
X5607Y12468D01*
X5655Y12362D01*
X5696Y12252D01*
X5734Y12188D01*
X5751Y12151D01*
X5779Y12116D01*
X5823Y12043D01*
X8299Y8636D01*
X8378Y8549D01*
X8450Y8458D01*
X8506Y8409D01*
X8534Y8379D01*
X8571Y8354D01*
X8636Y8299D01*
X12043Y5823D01*
X12145Y5765D01*
X12242Y5701D01*
X12311Y5672D01*
X12347Y5652D01*
X12389Y5639D01*
X12468Y5607D01*
X16473Y4305D01*
X16529Y4294D01*
X16583Y4274D01*
X16797Y4240D01*
X16815Y4236D01*
X16819Y4236D01*
X16825Y4235D01*
X18930Y4069D01*
X18973Y4071D01*
X19050Y4065D01*
X298450Y4065D01*
X298492Y4070D01*
G37*
%LPC*%
G36*
X225603Y213535D02*
X225603Y213535D01*
X220066Y215829D01*
X215829Y220066D01*
X213535Y225603D01*
X213535Y231597D01*
X215829Y237134D01*
X220066Y241371D01*
X225603Y243665D01*
X231597Y243665D01*
X237134Y241371D01*
X241371Y237134D01*
X243665Y231597D01*
X243665Y225603D01*
X241371Y220066D01*
X237134Y215829D01*
X231597Y213535D01*
X225603Y213535D01*
G37*
%LPD*%
%LPC*%
G36*
X22403Y213535D02*
X22403Y213535D01*
X16866Y215829D01*
X12629Y220066D01*
X10335Y225603D01*
X10335Y231597D01*
X12629Y237134D01*
X16866Y241371D01*
X22403Y243665D01*
X28397Y243665D01*
X33934Y241371D01*
X38171Y237134D01*
X40465Y231597D01*
X40465Y225603D01*
X38171Y220066D01*
X33934Y215829D01*
X28397Y213535D01*
X22403Y213535D01*
G37*
%LPD*%
%LPC*%
G36*
X225603Y10335D02*
X225603Y10335D01*
X220066Y12629D01*
X215829Y16866D01*
X213535Y22403D01*
X213535Y28397D01*
X215829Y33934D01*
X220066Y38171D01*
X225603Y40465D01*
X231597Y40465D01*
X237134Y38171D01*
X241371Y33934D01*
X243665Y28397D01*
X243665Y22403D01*
X241371Y16866D01*
X237134Y12629D01*
X231597Y10335D01*
X225603Y10335D01*
G37*
%LPD*%
%LPC*%
G36*
X22403Y10335D02*
X22403Y10335D01*
X16866Y12629D01*
X12629Y16866D01*
X10335Y22403D01*
X10335Y28397D01*
X12629Y33934D01*
X16866Y38171D01*
X22403Y40465D01*
X28397Y40465D01*
X33934Y38171D01*
X38171Y33934D01*
X40465Y28397D01*
X40465Y22403D01*
X38171Y16866D01*
X33934Y12629D01*
X28397Y10335D01*
X22403Y10335D01*
G37*
%LPD*%
D10*
X304800Y36830D03*
X304800Y62230D03*
X304800Y87630D03*
X304800Y113030D03*
X304800Y138430D03*
X304800Y163830D03*
X304800Y189230D03*
X304800Y214630D03*
D11*
X204470Y181610D02*
X195580Y189230D01*
X91440Y137160D02*
X86360Y137160D01*
X90170Y21590D02*
X123190Y20320D01*
X90170Y21590D02*
X90170Y22860D01*
D12*
X204470Y181610D03*
X91440Y137160D03*
X123190Y20320D03*
D11*
X137160Y78740D02*
X260350Y78740D01*
X137160Y78740D02*
X115570Y100330D01*
X115570Y146050D01*
X90170Y171450D01*
X90170Y194310D01*
X83820Y200660D01*
X53340Y200660D01*
X48260Y205740D01*
X48260Y210820D01*
D12*
X260350Y78740D03*
X48260Y210820D03*
D11*
X72390Y184150D02*
X72390Y101600D01*
D12*
X72390Y184150D03*
X72390Y101600D03*
D11*
X110490Y176530D02*
X195580Y91440D01*
X261620Y91440D01*
X304800Y138430D02*
X307340Y138430D01*
X307340Y137160D02*
X261620Y91440D01*
X307340Y137160D02*
X307340Y138430D01*
D12*
X110490Y176530D03*
D11*
X215900Y115570D02*
X262890Y163830D01*
X304800Y163830D01*
D12*
X215900Y115570D03*
D11*
X204470Y119380D02*
X204470Y105410D01*
X204470Y119380D02*
X274320Y189230D01*
X288290Y189230D01*
X304800Y189230D02*
X307340Y189230D01*
X304800Y189230D02*
X288290Y189230D01*
D12*
X204470Y105410D03*
M02*
