G04 EAGLE Gerber X2 export*
%TF.Part,Single*%
%TF.FileFunction,Copper,L1,Top,Mixed*%
%TF.FilePolarity,Positive*%
%TF.GenerationSoftware,Autodesk,EAGLE,9.1.0*%
%TF.CreationDate,2018-08-21T06:48:51Z*%
G75*
%MOMM*%
%FSLAX34Y34*%
%LPD*%
%AMOC8*
5,1,8,0,0,1.08239X$1,22.5*%
G01*
%ADD10C,0.152400*%
%ADD11R,2.032000X0.660400*%
%ADD12R,1.900000X1.400000*%
%ADD13R,1.400000X1.800000*%
%ADD14R,1.500000X0.700000*%
%ADD15R,1.200000X0.550000*%
%ADD16R,1.950000X1.500000*%
%ADD17R,1.100000X1.400000*%
%ADD18P,1.924489X8X202.500000*%
%ADD19R,1.200000X1.200000*%
%ADD20C,1.000000*%
%ADD21C,0.304800*%
%ADD22C,0.906400*%

G36*
X298492Y4070D02*
X298492Y4070D01*
X298570Y4069D01*
X300675Y4235D01*
X300732Y4246D01*
X300789Y4248D01*
X300999Y4298D01*
X301017Y4302D01*
X301021Y4304D01*
X301027Y4305D01*
X305032Y5607D01*
X305138Y5655D01*
X305248Y5696D01*
X305312Y5734D01*
X305349Y5751D01*
X305384Y5779D01*
X305457Y5823D01*
X308864Y8299D01*
X308951Y8378D01*
X309042Y8450D01*
X309091Y8506D01*
X309121Y8534D01*
X309146Y8571D01*
X309201Y8636D01*
X311677Y12043D01*
X311735Y12145D01*
X311799Y12242D01*
X311828Y12311D01*
X311848Y12347D01*
X311861Y12389D01*
X311893Y12468D01*
X313195Y16473D01*
X313206Y16529D01*
X313226Y16583D01*
X313260Y16797D01*
X313264Y16815D01*
X313264Y16819D01*
X313265Y16825D01*
X313431Y18930D01*
X313429Y18973D01*
X313435Y19050D01*
X313435Y23467D01*
X313424Y23567D01*
X313422Y23667D01*
X313404Y23739D01*
X313395Y23813D01*
X313361Y23908D01*
X313337Y24005D01*
X313303Y24071D01*
X313278Y24141D01*
X313223Y24226D01*
X313177Y24315D01*
X313129Y24372D01*
X313089Y24434D01*
X313017Y24504D01*
X312952Y24580D01*
X312892Y24625D01*
X312838Y24676D01*
X312752Y24728D01*
X312671Y24788D01*
X312603Y24817D01*
X312539Y24855D01*
X312443Y24886D01*
X312351Y24926D01*
X312278Y24939D01*
X312207Y24961D01*
X312107Y24970D01*
X312008Y24987D01*
X311934Y24983D01*
X311860Y24989D01*
X311760Y24975D01*
X311660Y24969D01*
X311589Y24949D01*
X311515Y24938D01*
X311422Y24901D01*
X311325Y24873D01*
X311260Y24837D01*
X311191Y24809D01*
X311109Y24752D01*
X311021Y24703D01*
X310945Y24637D01*
X310905Y24610D01*
X310881Y24584D01*
X310835Y24544D01*
X310166Y23875D01*
X299434Y23875D01*
X292514Y30795D01*
X292415Y30874D01*
X292321Y30958D01*
X292279Y30982D01*
X292241Y31012D01*
X292127Y31066D01*
X292016Y31127D01*
X291970Y31140D01*
X291926Y31161D01*
X291803Y31187D01*
X291681Y31222D01*
X291620Y31227D01*
X291585Y31234D01*
X291537Y31233D01*
X291437Y31241D01*
X284638Y31241D01*
X282584Y32092D01*
X268641Y46035D01*
X268542Y46114D01*
X268448Y46198D01*
X268406Y46222D01*
X268368Y46252D01*
X268254Y46306D01*
X268143Y46367D01*
X268097Y46380D01*
X268053Y46401D01*
X267930Y46427D01*
X267808Y46462D01*
X267747Y46467D01*
X267712Y46474D01*
X267664Y46473D01*
X267564Y46481D01*
X186690Y46481D01*
X186590Y46470D01*
X186490Y46468D01*
X186418Y46450D01*
X186344Y46441D01*
X186249Y46407D01*
X186152Y46383D01*
X186086Y46349D01*
X186016Y46324D01*
X185931Y46269D01*
X185842Y46223D01*
X185785Y46175D01*
X185723Y46135D01*
X185653Y46063D01*
X185576Y45998D01*
X185532Y45938D01*
X185481Y45884D01*
X185429Y45798D01*
X185369Y45717D01*
X185340Y45649D01*
X185302Y45585D01*
X185271Y45490D01*
X185231Y45397D01*
X185218Y45324D01*
X185195Y45253D01*
X185187Y45153D01*
X185170Y45054D01*
X185173Y44980D01*
X185167Y44906D01*
X185182Y44806D01*
X185188Y44706D01*
X185208Y44635D01*
X185219Y44561D01*
X185256Y44468D01*
X185284Y44371D01*
X185320Y44306D01*
X185348Y44237D01*
X185405Y44155D01*
X185454Y44067D01*
X185519Y43991D01*
X185547Y43951D01*
X185573Y43927D01*
X185613Y43881D01*
X186348Y43146D01*
X187199Y41092D01*
X187199Y20478D01*
X186348Y18424D01*
X184776Y16852D01*
X182722Y16001D01*
X174281Y16001D01*
X174155Y15987D01*
X174029Y15980D01*
X173982Y15967D01*
X173934Y15961D01*
X173815Y15919D01*
X173694Y15884D01*
X173652Y15860D01*
X173606Y15844D01*
X173500Y15775D01*
X173390Y15714D01*
X173344Y15674D01*
X173314Y15655D01*
X173280Y15620D01*
X173204Y15555D01*
X171814Y14165D01*
X156446Y14165D01*
X154065Y16546D01*
X154065Y25414D01*
X155143Y26492D01*
X155222Y26591D01*
X155306Y26684D01*
X155330Y26727D01*
X155360Y26765D01*
X155414Y26879D01*
X155475Y26989D01*
X155488Y27036D01*
X155509Y27080D01*
X155535Y27203D01*
X155570Y27325D01*
X155575Y27386D01*
X155582Y27420D01*
X155581Y27468D01*
X155589Y27569D01*
X155589Y28957D01*
X164130Y28957D01*
X164156Y28960D01*
X164182Y28957D01*
X164329Y28979D01*
X164476Y28996D01*
X164501Y29005D01*
X164527Y29009D01*
X164664Y29064D01*
X164804Y29114D01*
X164826Y29128D01*
X164850Y29138D01*
X164972Y29222D01*
X165097Y29303D01*
X165115Y29322D01*
X165137Y29337D01*
X165236Y29447D01*
X165339Y29554D01*
X165352Y29576D01*
X165370Y29596D01*
X165442Y29726D01*
X165518Y29853D01*
X165526Y29878D01*
X165539Y29901D01*
X165579Y30044D01*
X165624Y30185D01*
X165626Y30211D01*
X165633Y30236D01*
X165653Y30480D01*
X165650Y30506D01*
X165652Y30532D01*
X165630Y30679D01*
X165613Y30826D01*
X165604Y30851D01*
X165600Y30877D01*
X165546Y31015D01*
X165496Y31154D01*
X165481Y31177D01*
X165472Y31201D01*
X165387Y31322D01*
X165307Y31447D01*
X165288Y31466D01*
X165273Y31487D01*
X165163Y31586D01*
X165056Y31689D01*
X165033Y31703D01*
X165014Y31720D01*
X164884Y31792D01*
X164757Y31868D01*
X164732Y31876D01*
X164709Y31889D01*
X164566Y31929D01*
X164425Y31975D01*
X164399Y31977D01*
X164373Y31984D01*
X164130Y32003D01*
X155589Y32003D01*
X155589Y33391D01*
X155575Y33517D01*
X155568Y33643D01*
X155555Y33690D01*
X155549Y33738D01*
X155507Y33857D01*
X155472Y33978D01*
X155448Y34020D01*
X155432Y34066D01*
X155363Y34172D01*
X155302Y34282D01*
X155262Y34328D01*
X155243Y34358D01*
X155208Y34392D01*
X155143Y34468D01*
X154065Y35546D01*
X154065Y44414D01*
X156446Y46795D01*
X161133Y46795D01*
X161200Y46802D01*
X161267Y46801D01*
X161373Y46822D01*
X161480Y46835D01*
X161543Y46857D01*
X161609Y46871D01*
X161706Y46916D01*
X161808Y46952D01*
X161864Y46989D01*
X161925Y47017D01*
X162010Y47083D01*
X162100Y47141D01*
X162147Y47189D01*
X162200Y47231D01*
X162315Y47364D01*
X162343Y47392D01*
X162349Y47402D01*
X162361Y47416D01*
X165565Y51774D01*
X165571Y51784D01*
X165578Y51792D01*
X165657Y51935D01*
X165738Y52076D01*
X165741Y52087D01*
X165747Y52097D01*
X165791Y52254D01*
X165838Y52410D01*
X165839Y52422D01*
X165842Y52432D01*
X165861Y52676D01*
X165861Y52909D01*
X165847Y53035D01*
X165840Y53161D01*
X165827Y53208D01*
X165821Y53256D01*
X165779Y53375D01*
X165744Y53496D01*
X165720Y53538D01*
X165704Y53584D01*
X165635Y53690D01*
X165574Y53800D01*
X165534Y53846D01*
X165515Y53876D01*
X165480Y53910D01*
X165415Y53986D01*
X163315Y56086D01*
X163315Y73454D01*
X165696Y75835D01*
X180064Y75835D01*
X182634Y73264D01*
X182670Y73209D01*
X182731Y73099D01*
X182764Y73063D01*
X182791Y73021D01*
X182881Y72934D01*
X182965Y72842D01*
X183006Y72813D01*
X183042Y72779D01*
X183149Y72714D01*
X183252Y72644D01*
X183298Y72625D01*
X183341Y72600D01*
X183460Y72562D01*
X183576Y72516D01*
X183626Y72509D01*
X183673Y72494D01*
X183797Y72484D01*
X183921Y72466D01*
X183971Y72470D01*
X184020Y72466D01*
X184144Y72484D01*
X184269Y72495D01*
X184316Y72510D01*
X184365Y72517D01*
X184481Y72564D01*
X184600Y72602D01*
X184643Y72628D01*
X184689Y72646D01*
X184791Y72718D01*
X184899Y72782D01*
X184934Y72817D01*
X184975Y72845D01*
X185059Y72938D01*
X185148Y73025D01*
X185184Y73077D01*
X185208Y73104D01*
X185231Y73146D01*
X185287Y73227D01*
X185347Y73330D01*
X185820Y73803D01*
X186399Y74138D01*
X187045Y74311D01*
X190131Y74311D01*
X190131Y65996D01*
X190134Y65970D01*
X190132Y65944D01*
X190154Y65797D01*
X190171Y65650D01*
X190179Y65625D01*
X190183Y65599D01*
X190238Y65462D01*
X190288Y65322D01*
X190302Y65300D01*
X190312Y65275D01*
X190397Y65154D01*
X190477Y65029D01*
X190496Y65011D01*
X190511Y64989D01*
X190621Y64890D01*
X190728Y64787D01*
X190750Y64773D01*
X190770Y64756D01*
X190900Y64684D01*
X191027Y64608D01*
X191052Y64600D01*
X191075Y64587D01*
X191218Y64547D01*
X191359Y64502D01*
X191385Y64500D01*
X191410Y64493D01*
X191654Y64473D01*
X192583Y64473D01*
X192583Y63544D01*
X192586Y63518D01*
X192584Y63492D01*
X192606Y63345D01*
X192623Y63198D01*
X192632Y63173D01*
X192636Y63147D01*
X192690Y63009D01*
X192740Y62870D01*
X192755Y62848D01*
X192764Y62823D01*
X192849Y62702D01*
X192929Y62577D01*
X192948Y62559D01*
X192963Y62537D01*
X193073Y62438D01*
X193180Y62335D01*
X193203Y62321D01*
X193222Y62304D01*
X193352Y62232D01*
X193479Y62156D01*
X193504Y62148D01*
X193527Y62135D01*
X193670Y62095D01*
X193811Y62050D01*
X193837Y62047D01*
X193862Y62040D01*
X194106Y62021D01*
X200921Y62021D01*
X200921Y59182D01*
X200924Y59156D01*
X200922Y59130D01*
X200944Y58982D01*
X200961Y58836D01*
X200969Y58811D01*
X200973Y58785D01*
X201028Y58647D01*
X201078Y58508D01*
X201092Y58486D01*
X201102Y58461D01*
X201187Y58340D01*
X201267Y58215D01*
X201286Y58197D01*
X201301Y58175D01*
X201411Y58076D01*
X201518Y57973D01*
X201540Y57959D01*
X201560Y57942D01*
X201690Y57870D01*
X201817Y57794D01*
X201842Y57786D01*
X201865Y57773D01*
X202008Y57733D01*
X202149Y57688D01*
X202175Y57686D01*
X202200Y57678D01*
X202444Y57659D01*
X271622Y57659D01*
X273676Y56808D01*
X275462Y55022D01*
X275462Y55021D01*
X287619Y42865D01*
X287718Y42786D01*
X287812Y42702D01*
X287854Y42678D01*
X287892Y42648D01*
X288006Y42594D01*
X288117Y42533D01*
X288163Y42520D01*
X288207Y42499D01*
X288330Y42473D01*
X288452Y42438D01*
X288513Y42433D01*
X288548Y42426D01*
X288596Y42427D01*
X288696Y42419D01*
X291437Y42419D01*
X291563Y42433D01*
X291689Y42440D01*
X291735Y42453D01*
X291783Y42459D01*
X291902Y42501D01*
X292024Y42536D01*
X292066Y42560D01*
X292111Y42576D01*
X292218Y42645D01*
X292328Y42706D01*
X292374Y42746D01*
X292404Y42765D01*
X292438Y42800D01*
X292514Y42865D01*
X298102Y48453D01*
X298118Y48473D01*
X298138Y48490D01*
X298227Y48610D01*
X298319Y48726D01*
X298330Y48750D01*
X298346Y48771D01*
X298404Y48907D01*
X298468Y49041D01*
X298473Y49067D01*
X298484Y49091D01*
X298510Y49237D01*
X298541Y49382D01*
X298541Y49408D01*
X298545Y49434D01*
X298538Y49582D01*
X298535Y49730D01*
X298529Y49756D01*
X298527Y49782D01*
X298486Y49924D01*
X298450Y50068D01*
X298438Y50091D01*
X298431Y50117D01*
X298358Y50246D01*
X298290Y50378D01*
X298273Y50398D01*
X298261Y50421D01*
X298102Y50607D01*
X291845Y56864D01*
X291845Y67596D01*
X299180Y74931D01*
X299196Y74951D01*
X299216Y74968D01*
X299304Y75088D01*
X299396Y75204D01*
X299408Y75227D01*
X299423Y75248D01*
X299482Y75385D01*
X299545Y75519D01*
X299551Y75544D01*
X299561Y75568D01*
X299588Y75715D01*
X299619Y75859D01*
X299618Y75885D01*
X299623Y75911D01*
X299615Y76060D01*
X299613Y76208D01*
X299606Y76233D01*
X299605Y76259D01*
X299564Y76402D01*
X299528Y76546D01*
X299516Y76569D01*
X299508Y76594D01*
X299436Y76724D01*
X299368Y76856D01*
X299351Y76876D01*
X299338Y76898D01*
X299180Y77085D01*
X293369Y82895D01*
X293369Y85091D01*
X303784Y85091D01*
X303810Y85094D01*
X303836Y85092D01*
X303983Y85114D01*
X304130Y85131D01*
X304155Y85139D01*
X304181Y85143D01*
X304318Y85198D01*
X304458Y85248D01*
X304480Y85262D01*
X304505Y85272D01*
X304626Y85357D01*
X304751Y85437D01*
X304769Y85456D01*
X304791Y85471D01*
X304890Y85581D01*
X304993Y85688D01*
X305007Y85710D01*
X305024Y85730D01*
X305096Y85860D01*
X305172Y85987D01*
X305180Y86012D01*
X305193Y86035D01*
X305233Y86178D01*
X305278Y86319D01*
X305280Y86345D01*
X305287Y86370D01*
X305307Y86614D01*
X305307Y88646D01*
X305304Y88672D01*
X305306Y88698D01*
X305284Y88845D01*
X305267Y88992D01*
X305258Y89017D01*
X305254Y89043D01*
X305200Y89181D01*
X305150Y89320D01*
X305135Y89342D01*
X305126Y89367D01*
X305041Y89488D01*
X304961Y89613D01*
X304942Y89631D01*
X304927Y89653D01*
X304817Y89752D01*
X304710Y89855D01*
X304687Y89869D01*
X304668Y89886D01*
X304538Y89958D01*
X304411Y90034D01*
X304386Y90042D01*
X304363Y90055D01*
X304220Y90095D01*
X304079Y90140D01*
X304053Y90142D01*
X304028Y90150D01*
X303784Y90169D01*
X293369Y90169D01*
X293369Y92365D01*
X299180Y98175D01*
X299196Y98196D01*
X299216Y98213D01*
X299304Y98332D01*
X299396Y98448D01*
X299408Y98472D01*
X299423Y98493D01*
X299482Y98629D01*
X299545Y98763D01*
X299551Y98789D01*
X299561Y98813D01*
X299588Y98959D01*
X299619Y99104D01*
X299618Y99130D01*
X299623Y99156D01*
X299615Y99305D01*
X299613Y99453D01*
X299606Y99478D01*
X299605Y99504D01*
X299564Y99647D01*
X299528Y99791D01*
X299516Y99814D01*
X299508Y99839D01*
X299436Y99969D01*
X299368Y100100D01*
X299351Y100120D01*
X299338Y100143D01*
X299180Y100329D01*
X292514Y106995D01*
X292415Y107074D01*
X292321Y107158D01*
X292279Y107182D01*
X292241Y107212D01*
X292127Y107266D01*
X292016Y107327D01*
X291970Y107340D01*
X291926Y107361D01*
X291803Y107387D01*
X291681Y107422D01*
X291620Y107427D01*
X291585Y107434D01*
X291537Y107433D01*
X291437Y107441D01*
X283921Y107441D01*
X283795Y107427D01*
X283669Y107420D01*
X283623Y107407D01*
X283575Y107401D01*
X283456Y107359D01*
X283334Y107324D01*
X283292Y107300D01*
X283247Y107284D01*
X283140Y107215D01*
X283030Y107154D01*
X282984Y107114D01*
X282954Y107095D01*
X282920Y107060D01*
X282844Y106995D01*
X279847Y103998D01*
X279768Y103899D01*
X279684Y103805D01*
X279660Y103763D01*
X279630Y103725D01*
X279576Y103611D01*
X279515Y103500D01*
X279502Y103454D01*
X279481Y103410D01*
X279455Y103287D01*
X279420Y103165D01*
X279415Y103104D01*
X279408Y103069D01*
X279409Y103021D01*
X279401Y102921D01*
X279401Y72040D01*
X278550Y69986D01*
X271288Y62724D01*
X269234Y61873D01*
X250043Y61873D01*
X247989Y62724D01*
X236816Y73897D01*
X235965Y75951D01*
X235965Y83820D01*
X235962Y83846D01*
X235964Y83872D01*
X235942Y84019D01*
X235925Y84166D01*
X235917Y84191D01*
X235913Y84217D01*
X235858Y84355D01*
X235808Y84494D01*
X235794Y84516D01*
X235784Y84541D01*
X235699Y84662D01*
X235619Y84787D01*
X235600Y84805D01*
X235585Y84827D01*
X235475Y84926D01*
X235368Y85029D01*
X235346Y85043D01*
X235326Y85060D01*
X235196Y85132D01*
X235069Y85208D01*
X235044Y85216D01*
X235021Y85229D01*
X234878Y85269D01*
X234737Y85314D01*
X234711Y85316D01*
X234686Y85324D01*
X234442Y85343D01*
X229710Y85343D01*
X227329Y87724D01*
X227329Y97696D01*
X227616Y97983D01*
X227633Y98003D01*
X227653Y98020D01*
X227741Y98140D01*
X227833Y98256D01*
X227844Y98280D01*
X227860Y98301D01*
X227919Y98437D01*
X227982Y98571D01*
X227988Y98597D01*
X227998Y98621D01*
X228024Y98767D01*
X228055Y98912D01*
X228055Y98938D01*
X228060Y98964D01*
X228052Y99112D01*
X228049Y99260D01*
X228043Y99286D01*
X228042Y99312D01*
X228001Y99454D01*
X227964Y99598D01*
X227952Y99621D01*
X227945Y99647D01*
X227873Y99776D01*
X227805Y99908D01*
X227788Y99928D01*
X227775Y99951D01*
X227616Y100137D01*
X227329Y100424D01*
X227329Y110396D01*
X228835Y111901D01*
X228836Y111902D01*
X228837Y111903D01*
X228941Y112035D01*
X229051Y112174D01*
X229052Y112175D01*
X229053Y112177D01*
X229125Y112330D01*
X229200Y112489D01*
X229201Y112491D01*
X229201Y112492D01*
X229238Y112663D01*
X229274Y112830D01*
X229274Y112831D01*
X229274Y112833D01*
X229271Y113008D01*
X229268Y113178D01*
X229267Y113180D01*
X229267Y113181D01*
X229227Y113342D01*
X229183Y113516D01*
X229182Y113518D01*
X229182Y113519D01*
X229077Y113740D01*
X229026Y113827D01*
X228853Y114473D01*
X228853Y116460D01*
X241427Y116460D01*
X241453Y116463D01*
X241479Y116461D01*
X241546Y116471D01*
X241681Y116460D01*
X254255Y116460D01*
X254255Y114473D01*
X254082Y113827D01*
X254031Y113740D01*
X254031Y113739D01*
X254030Y113738D01*
X253959Y113573D01*
X253893Y113420D01*
X253892Y113419D01*
X253892Y113418D01*
X253860Y113243D01*
X253830Y113077D01*
X253830Y113076D01*
X253830Y113074D01*
X253839Y112900D01*
X253848Y112729D01*
X253848Y112728D01*
X253848Y112726D01*
X253897Y112558D01*
X253943Y112394D01*
X253944Y112393D01*
X253945Y112392D01*
X254032Y112236D01*
X254113Y112090D01*
X254114Y112089D01*
X254115Y112087D01*
X254273Y111901D01*
X254730Y111445D01*
X254829Y111366D01*
X254922Y111282D01*
X254965Y111258D01*
X255003Y111228D01*
X255117Y111174D01*
X255227Y111113D01*
X255274Y111100D01*
X255318Y111079D01*
X255441Y111053D01*
X255563Y111018D01*
X255623Y111013D01*
X255658Y111006D01*
X255707Y111007D01*
X255807Y110999D01*
X261462Y110999D01*
X263516Y110148D01*
X265088Y108576D01*
X265579Y107390D01*
X265628Y107302D01*
X265668Y107210D01*
X265712Y107150D01*
X265748Y107085D01*
X265816Y107011D01*
X265876Y106930D01*
X265933Y106882D01*
X265983Y106827D01*
X266065Y106770D01*
X266142Y106705D01*
X266208Y106671D01*
X266269Y106629D01*
X266362Y106592D01*
X266452Y106546D01*
X266524Y106528D01*
X266593Y106501D01*
X266693Y106487D01*
X266790Y106462D01*
X266865Y106461D01*
X266938Y106450D01*
X267038Y106459D01*
X267139Y106457D01*
X267211Y106473D01*
X267286Y106479D01*
X267381Y106510D01*
X267479Y106532D01*
X267546Y106564D01*
X267617Y106586D01*
X267703Y106638D01*
X267794Y106681D01*
X267852Y106728D01*
X267916Y106766D01*
X267988Y106836D01*
X268066Y106899D01*
X268112Y106957D01*
X268166Y107009D01*
X268220Y107093D01*
X268282Y107172D01*
X268328Y107262D01*
X268354Y107302D01*
X268366Y107336D01*
X268394Y107390D01*
X269074Y109033D01*
X275905Y115864D01*
X275984Y115963D01*
X276068Y116057D01*
X276092Y116099D01*
X276122Y116137D01*
X276176Y116251D01*
X276237Y116362D01*
X276250Y116408D01*
X276271Y116452D01*
X276297Y116575D01*
X276332Y116697D01*
X276337Y116758D01*
X276344Y116793D01*
X276343Y116841D01*
X276351Y116941D01*
X276351Y185014D01*
X276337Y185140D01*
X276330Y185266D01*
X276317Y185312D01*
X276311Y185360D01*
X276269Y185479D01*
X276234Y185601D01*
X276210Y185643D01*
X276194Y185688D01*
X276125Y185795D01*
X276064Y185905D01*
X276024Y185951D01*
X276005Y185981D01*
X275970Y186015D01*
X275905Y186091D01*
X269911Y192085D01*
X269812Y192164D01*
X269718Y192248D01*
X269676Y192272D01*
X269638Y192302D01*
X269524Y192356D01*
X269413Y192417D01*
X269367Y192430D01*
X269323Y192451D01*
X269200Y192477D01*
X269078Y192512D01*
X269017Y192517D01*
X268982Y192524D01*
X268934Y192523D01*
X268834Y192531D01*
X224282Y192531D01*
X224256Y192528D01*
X224230Y192530D01*
X224083Y192508D01*
X223936Y192491D01*
X223911Y192483D01*
X223885Y192479D01*
X223747Y192424D01*
X223608Y192374D01*
X223586Y192360D01*
X223561Y192350D01*
X223440Y192265D01*
X223315Y192185D01*
X223297Y192166D01*
X223275Y192151D01*
X223176Y192041D01*
X223073Y191934D01*
X223059Y191912D01*
X223042Y191892D01*
X222970Y191762D01*
X222894Y191635D01*
X222886Y191610D01*
X222873Y191587D01*
X222833Y191444D01*
X222788Y191303D01*
X222786Y191277D01*
X222778Y191252D01*
X222759Y191008D01*
X222759Y177958D01*
X221908Y175904D01*
X197476Y151472D01*
X195239Y150546D01*
X195107Y150472D01*
X194973Y150403D01*
X194955Y150388D01*
X194935Y150376D01*
X194822Y150274D01*
X194707Y150176D01*
X194694Y150158D01*
X194676Y150142D01*
X194590Y150017D01*
X194501Y149896D01*
X194491Y149875D01*
X194478Y149856D01*
X194423Y149715D01*
X194363Y149576D01*
X194359Y149553D01*
X194350Y149531D01*
X194328Y149382D01*
X194302Y149233D01*
X194303Y149210D01*
X194300Y149187D01*
X194311Y149054D01*
X194311Y137922D01*
X194314Y137896D01*
X194312Y137870D01*
X194334Y137723D01*
X194351Y137576D01*
X194359Y137551D01*
X194363Y137525D01*
X194418Y137387D01*
X194468Y137248D01*
X194482Y137226D01*
X194492Y137201D01*
X194577Y137080D01*
X194657Y136955D01*
X194676Y136937D01*
X194691Y136915D01*
X194801Y136816D01*
X194908Y136713D01*
X194930Y136699D01*
X194950Y136682D01*
X195080Y136610D01*
X195207Y136534D01*
X195232Y136526D01*
X195255Y136513D01*
X195398Y136473D01*
X195539Y136428D01*
X195565Y136426D01*
X195590Y136418D01*
X195834Y136399D01*
X201772Y136399D01*
X203826Y135548D01*
X214761Y124613D01*
X214860Y124534D01*
X214954Y124450D01*
X214996Y124426D01*
X215034Y124396D01*
X215148Y124342D01*
X215259Y124281D01*
X215305Y124268D01*
X215349Y124247D01*
X215472Y124221D01*
X215594Y124186D01*
X215655Y124181D01*
X215690Y124174D01*
X215738Y124175D01*
X215838Y124167D01*
X217610Y124167D01*
X220445Y122993D01*
X220770Y122858D01*
X223188Y120440D01*
X224497Y117280D01*
X224497Y113860D01*
X223188Y110700D01*
X220770Y108282D01*
X217610Y106973D01*
X214590Y106973D01*
X214564Y106970D01*
X214538Y106972D01*
X214391Y106950D01*
X214244Y106933D01*
X214219Y106925D01*
X214193Y106921D01*
X214055Y106866D01*
X213916Y106816D01*
X213894Y106802D01*
X213869Y106792D01*
X213748Y106707D01*
X213623Y106627D01*
X213605Y106608D01*
X213583Y106593D01*
X213484Y106483D01*
X213381Y106376D01*
X213367Y106354D01*
X213350Y106334D01*
X213278Y106204D01*
X213202Y106077D01*
X213194Y106052D01*
X213181Y106029D01*
X213141Y105886D01*
X213096Y105745D01*
X213094Y105719D01*
X213086Y105694D01*
X213067Y105450D01*
X213067Y103700D01*
X211758Y100540D01*
X209340Y98122D01*
X206180Y96813D01*
X202760Y96813D01*
X199600Y98122D01*
X198347Y99375D01*
X198248Y99454D01*
X198154Y99538D01*
X198112Y99562D01*
X198074Y99592D01*
X197960Y99646D01*
X197849Y99707D01*
X197803Y99720D01*
X197759Y99741D01*
X197636Y99767D01*
X197514Y99802D01*
X197453Y99807D01*
X197418Y99814D01*
X197370Y99813D01*
X197270Y99821D01*
X194339Y99821D01*
X194213Y99807D01*
X194087Y99800D01*
X194040Y99787D01*
X193992Y99781D01*
X193873Y99739D01*
X193752Y99704D01*
X193710Y99680D01*
X193664Y99664D01*
X193558Y99595D01*
X193448Y99534D01*
X193402Y99494D01*
X193372Y99475D01*
X193338Y99440D01*
X193262Y99375D01*
X192805Y98919D01*
X192804Y98918D01*
X192803Y98917D01*
X192693Y98777D01*
X192589Y98646D01*
X192588Y98645D01*
X192587Y98643D01*
X192513Y98486D01*
X192440Y98331D01*
X192439Y98329D01*
X192439Y98328D01*
X192403Y98160D01*
X192366Y97990D01*
X192366Y97989D01*
X192366Y97987D01*
X192369Y97820D01*
X192372Y97642D01*
X192373Y97640D01*
X192373Y97639D01*
X192418Y97462D01*
X192457Y97304D01*
X192458Y97302D01*
X192458Y97301D01*
X192563Y97080D01*
X192614Y96993D01*
X192787Y96347D01*
X192787Y94360D01*
X180213Y94360D01*
X180187Y94357D01*
X180161Y94359D01*
X180094Y94349D01*
X179959Y94360D01*
X167385Y94360D01*
X167385Y96347D01*
X167558Y96993D01*
X167609Y97080D01*
X167609Y97081D01*
X167610Y97082D01*
X167678Y97239D01*
X167747Y97400D01*
X167748Y97401D01*
X167748Y97402D01*
X167778Y97567D01*
X167810Y97743D01*
X167810Y97744D01*
X167810Y97745D01*
X167801Y97919D01*
X167792Y98091D01*
X167792Y98092D01*
X167792Y98094D01*
X167745Y98256D01*
X167697Y98426D01*
X167696Y98427D01*
X167695Y98428D01*
X167608Y98584D01*
X167527Y98730D01*
X167526Y98731D01*
X167525Y98733D01*
X167367Y98919D01*
X165861Y100424D01*
X165861Y102935D01*
X165850Y103035D01*
X165848Y103136D01*
X165830Y103208D01*
X165821Y103282D01*
X165788Y103376D01*
X165763Y103474D01*
X165729Y103540D01*
X165704Y103610D01*
X165649Y103694D01*
X165603Y103783D01*
X165555Y103840D01*
X165515Y103903D01*
X165443Y103972D01*
X165378Y104049D01*
X165318Y104093D01*
X165264Y104145D01*
X165178Y104196D01*
X165097Y104256D01*
X165029Y104285D01*
X164965Y104324D01*
X164869Y104354D01*
X164777Y104394D01*
X164704Y104407D01*
X164633Y104430D01*
X164533Y104438D01*
X164434Y104456D01*
X164360Y104452D01*
X164286Y104458D01*
X164186Y104443D01*
X164086Y104438D01*
X164015Y104417D01*
X163941Y104406D01*
X163848Y104369D01*
X163751Y104341D01*
X163686Y104305D01*
X163617Y104277D01*
X163535Y104220D01*
X163447Y104171D01*
X163371Y104106D01*
X163331Y104078D01*
X163307Y104052D01*
X163261Y104013D01*
X161764Y102515D01*
X144396Y102515D01*
X142015Y104896D01*
X142015Y116464D01*
X142004Y116564D01*
X142002Y116664D01*
X141984Y116736D01*
X141975Y116810D01*
X141942Y116905D01*
X141917Y117002D01*
X141883Y117068D01*
X141858Y117138D01*
X141803Y117223D01*
X141757Y117312D01*
X141709Y117369D01*
X141669Y117431D01*
X141597Y117501D01*
X141532Y117578D01*
X141472Y117622D01*
X141418Y117673D01*
X141332Y117725D01*
X141251Y117785D01*
X141183Y117814D01*
X141119Y117852D01*
X141023Y117883D01*
X140931Y117923D01*
X140858Y117936D01*
X140787Y117959D01*
X140687Y117967D01*
X140588Y117984D01*
X140514Y117981D01*
X140440Y117987D01*
X140340Y117972D01*
X140240Y117966D01*
X140169Y117946D01*
X140095Y117935D01*
X140002Y117898D01*
X139905Y117870D01*
X139840Y117834D01*
X139771Y117806D01*
X139689Y117749D01*
X139601Y117700D01*
X139525Y117635D01*
X139485Y117607D01*
X139461Y117581D01*
X139415Y117541D01*
X133716Y111842D01*
X131662Y110991D01*
X79502Y110991D01*
X79476Y110988D01*
X79450Y110990D01*
X79303Y110968D01*
X79156Y110951D01*
X79131Y110943D01*
X79105Y110939D01*
X78967Y110884D01*
X78828Y110834D01*
X78806Y110820D01*
X78781Y110810D01*
X78660Y110725D01*
X78535Y110645D01*
X78517Y110626D01*
X78495Y110611D01*
X78396Y110501D01*
X78293Y110394D01*
X78279Y110372D01*
X78262Y110352D01*
X78190Y110222D01*
X78114Y110095D01*
X78106Y110070D01*
X78093Y110047D01*
X78053Y109904D01*
X78008Y109763D01*
X78006Y109737D01*
X77998Y109712D01*
X77979Y109468D01*
X77979Y108800D01*
X77993Y108674D01*
X78000Y108548D01*
X78013Y108502D01*
X78019Y108454D01*
X78061Y108335D01*
X78096Y108213D01*
X78120Y108171D01*
X78136Y108125D01*
X78205Y108019D01*
X78266Y107909D01*
X78306Y107863D01*
X78325Y107833D01*
X78360Y107799D01*
X78425Y107723D01*
X79678Y106470D01*
X80987Y103310D01*
X80987Y99890D01*
X79678Y96730D01*
X77260Y94312D01*
X74100Y93003D01*
X70680Y93003D01*
X67520Y94312D01*
X65102Y96730D01*
X64181Y98954D01*
X64108Y99085D01*
X64039Y99219D01*
X64023Y99237D01*
X64012Y99259D01*
X63910Y99370D01*
X63813Y99484D01*
X63794Y99499D01*
X63778Y99517D01*
X63654Y99602D01*
X63533Y99692D01*
X63511Y99701D01*
X63491Y99715D01*
X63351Y99770D01*
X63213Y99830D01*
X63189Y99834D01*
X63167Y99843D01*
X63018Y99865D01*
X62870Y99891D01*
X62846Y99890D01*
X62822Y99894D01*
X62672Y99881D01*
X62522Y99873D01*
X62499Y99867D01*
X62475Y99865D01*
X62331Y99818D01*
X62187Y99777D01*
X62166Y99765D01*
X62143Y99758D01*
X62014Y99680D01*
X61883Y99607D01*
X61861Y99588D01*
X61844Y99578D01*
X61811Y99545D01*
X61697Y99448D01*
X60264Y98015D01*
X41896Y98015D01*
X39515Y100396D01*
X39515Y110764D01*
X41896Y113145D01*
X41992Y113145D01*
X42018Y113148D01*
X42044Y113146D01*
X42191Y113168D01*
X42338Y113185D01*
X42363Y113193D01*
X42389Y113197D01*
X42527Y113252D01*
X42666Y113302D01*
X42688Y113316D01*
X42713Y113326D01*
X42834Y113411D01*
X42959Y113491D01*
X42977Y113510D01*
X42999Y113525D01*
X43098Y113635D01*
X43201Y113742D01*
X43215Y113764D01*
X43232Y113784D01*
X43304Y113914D01*
X43380Y114041D01*
X43388Y114066D01*
X43401Y114089D01*
X43441Y114232D01*
X43486Y114373D01*
X43488Y114399D01*
X43496Y114424D01*
X43515Y114668D01*
X43515Y118492D01*
X43512Y118518D01*
X43514Y118544D01*
X43492Y118691D01*
X43475Y118838D01*
X43467Y118863D01*
X43463Y118889D01*
X43408Y119027D01*
X43358Y119166D01*
X43344Y119188D01*
X43334Y119213D01*
X43249Y119334D01*
X43169Y119459D01*
X43150Y119477D01*
X43135Y119499D01*
X43025Y119598D01*
X42918Y119701D01*
X42896Y119715D01*
X42876Y119732D01*
X42746Y119804D01*
X42619Y119880D01*
X42594Y119888D01*
X42571Y119901D01*
X42428Y119941D01*
X42287Y119986D01*
X42261Y119988D01*
X42236Y119996D01*
X41992Y120015D01*
X41896Y120015D01*
X39515Y122396D01*
X39515Y129492D01*
X39512Y129518D01*
X39514Y129544D01*
X39492Y129691D01*
X39475Y129838D01*
X39467Y129863D01*
X39463Y129889D01*
X39408Y130027D01*
X39358Y130166D01*
X39344Y130188D01*
X39334Y130213D01*
X39249Y130334D01*
X39169Y130459D01*
X39150Y130477D01*
X39135Y130499D01*
X39025Y130598D01*
X38918Y130701D01*
X38896Y130715D01*
X38876Y130732D01*
X38746Y130804D01*
X38619Y130880D01*
X38594Y130888D01*
X38571Y130901D01*
X38428Y130941D01*
X38287Y130986D01*
X38261Y130988D01*
X38236Y130996D01*
X37992Y131015D01*
X37896Y131015D01*
X35515Y133396D01*
X35515Y143764D01*
X37896Y146145D01*
X37992Y146145D01*
X38018Y146148D01*
X38044Y146146D01*
X38191Y146168D01*
X38338Y146185D01*
X38363Y146193D01*
X38389Y146197D01*
X38527Y146252D01*
X38666Y146302D01*
X38688Y146316D01*
X38713Y146326D01*
X38834Y146411D01*
X38959Y146491D01*
X38977Y146510D01*
X38999Y146525D01*
X39098Y146635D01*
X39201Y146742D01*
X39215Y146764D01*
X39232Y146784D01*
X39304Y146914D01*
X39380Y147041D01*
X39388Y147066D01*
X39401Y147089D01*
X39441Y147232D01*
X39486Y147373D01*
X39488Y147399D01*
X39496Y147424D01*
X39515Y147668D01*
X39515Y153304D01*
X39498Y153454D01*
X39485Y153605D01*
X39478Y153627D01*
X39475Y153650D01*
X39424Y153793D01*
X39378Y153936D01*
X39366Y153956D01*
X39358Y153978D01*
X39276Y154106D01*
X39198Y154235D01*
X39182Y154251D01*
X39169Y154271D01*
X39060Y154376D01*
X38955Y154484D01*
X38932Y154501D01*
X38918Y154513D01*
X38878Y154537D01*
X38754Y154623D01*
X38020Y155047D01*
X37547Y155520D01*
X37212Y156099D01*
X37039Y156745D01*
X37039Y158831D01*
X46854Y158831D01*
X46880Y158834D01*
X46906Y158832D01*
X47051Y158853D01*
X47062Y158850D01*
X47306Y158831D01*
X57121Y158831D01*
X57121Y158668D01*
X57124Y158642D01*
X57122Y158616D01*
X57144Y158469D01*
X57161Y158322D01*
X57169Y158297D01*
X57173Y158271D01*
X57228Y158133D01*
X57278Y157994D01*
X57292Y157972D01*
X57302Y157947D01*
X57387Y157826D01*
X57467Y157701D01*
X57486Y157683D01*
X57501Y157661D01*
X57611Y157562D01*
X57718Y157459D01*
X57740Y157445D01*
X57760Y157428D01*
X57890Y157356D01*
X58017Y157280D01*
X58042Y157272D01*
X58065Y157259D01*
X58208Y157219D01*
X58349Y157174D01*
X58375Y157172D01*
X58400Y157164D01*
X58644Y157145D01*
X60264Y157145D01*
X61794Y155615D01*
X61893Y155536D01*
X61986Y155452D01*
X62029Y155428D01*
X62067Y155398D01*
X62181Y155344D01*
X62291Y155283D01*
X62338Y155270D01*
X62382Y155249D01*
X62505Y155223D01*
X62627Y155188D01*
X62688Y155183D01*
X62722Y155176D01*
X62770Y155177D01*
X62871Y155169D01*
X122504Y155169D01*
X122630Y155183D01*
X122756Y155190D01*
X122802Y155203D01*
X122850Y155209D01*
X122969Y155251D01*
X123091Y155286D01*
X123133Y155310D01*
X123178Y155326D01*
X123285Y155395D01*
X123395Y155456D01*
X123441Y155496D01*
X123471Y155515D01*
X123505Y155550D01*
X123581Y155615D01*
X130184Y162218D01*
X132238Y163069D01*
X140492Y163069D01*
X140518Y163072D01*
X140544Y163070D01*
X140691Y163092D01*
X140838Y163109D01*
X140863Y163117D01*
X140889Y163121D01*
X141027Y163176D01*
X141166Y163226D01*
X141188Y163240D01*
X141213Y163250D01*
X141334Y163335D01*
X141459Y163415D01*
X141477Y163434D01*
X141499Y163449D01*
X141598Y163559D01*
X141701Y163666D01*
X141715Y163688D01*
X141732Y163708D01*
X141804Y163838D01*
X141880Y163965D01*
X141888Y163990D01*
X141901Y164013D01*
X141941Y164156D01*
X141986Y164297D01*
X141988Y164323D01*
X141996Y164348D01*
X142015Y164592D01*
X142015Y186264D01*
X144396Y188645D01*
X157610Y188645D01*
X157736Y188659D01*
X157862Y188666D01*
X157908Y188679D01*
X157956Y188685D01*
X158075Y188727D01*
X158197Y188762D01*
X158239Y188786D01*
X158284Y188802D01*
X158391Y188871D01*
X158501Y188932D01*
X158547Y188972D01*
X158577Y188991D01*
X158611Y189026D01*
X158687Y189091D01*
X172125Y202529D01*
X172204Y202628D01*
X172216Y202641D01*
X172257Y202684D01*
X172263Y202693D01*
X172288Y202722D01*
X172312Y202764D01*
X172342Y202802D01*
X172395Y202914D01*
X172436Y202983D01*
X172441Y202997D01*
X172457Y203027D01*
X172470Y203073D01*
X172491Y203117D01*
X172515Y203229D01*
X172542Y203315D01*
X172544Y203335D01*
X172552Y203362D01*
X172557Y203423D01*
X172564Y203458D01*
X172563Y203506D01*
X172571Y203606D01*
X172571Y206852D01*
X173422Y208906D01*
X174994Y210478D01*
X177048Y211329D01*
X223273Y211329D01*
X223323Y211334D01*
X223373Y211332D01*
X223495Y211354D01*
X223619Y211369D01*
X223666Y211386D01*
X223716Y211395D01*
X223830Y211444D01*
X223947Y211486D01*
X223989Y211513D01*
X224035Y211533D01*
X224135Y211608D01*
X224240Y211675D01*
X224275Y211711D01*
X224315Y211741D01*
X224395Y211836D01*
X224482Y211926D01*
X224508Y211969D01*
X224540Y212007D01*
X224597Y212118D01*
X224661Y212225D01*
X224676Y212273D01*
X224699Y212318D01*
X224729Y212438D01*
X224767Y212557D01*
X224771Y212607D01*
X224783Y212656D01*
X224785Y212780D01*
X224795Y212904D01*
X224788Y212954D01*
X224788Y213004D01*
X224762Y213126D01*
X224743Y213249D01*
X224725Y213296D01*
X224714Y213345D01*
X224661Y213457D01*
X224615Y213573D01*
X224586Y213614D01*
X224564Y213660D01*
X224487Y213757D01*
X224416Y213859D01*
X224378Y213893D01*
X224347Y213932D01*
X224249Y214009D01*
X224157Y214092D01*
X224113Y214117D01*
X224073Y214148D01*
X223856Y214259D01*
X220066Y215829D01*
X215829Y220066D01*
X213535Y225603D01*
X213535Y231597D01*
X215829Y237134D01*
X220066Y241371D01*
X225603Y243665D01*
X231597Y243665D01*
X237134Y241371D01*
X241371Y237134D01*
X243665Y231597D01*
X243665Y225603D01*
X241371Y220066D01*
X237134Y215829D01*
X233344Y214259D01*
X233300Y214235D01*
X233253Y214218D01*
X233148Y214150D01*
X233040Y214090D01*
X233003Y214056D01*
X232960Y214029D01*
X232874Y213939D01*
X232782Y213856D01*
X232753Y213814D01*
X232718Y213778D01*
X232654Y213671D01*
X232583Y213569D01*
X232565Y213522D01*
X232539Y213479D01*
X232501Y213361D01*
X232456Y213245D01*
X232448Y213195D01*
X232433Y213147D01*
X232423Y213023D01*
X232405Y212900D01*
X232409Y212850D01*
X232405Y212800D01*
X232423Y212677D01*
X232434Y212553D01*
X232449Y212505D01*
X232457Y212455D01*
X232503Y212340D01*
X232541Y212221D01*
X232567Y212178D01*
X232585Y212131D01*
X232656Y212029D01*
X232721Y211923D01*
X232756Y211886D01*
X232784Y211845D01*
X232877Y211762D01*
X232963Y211673D01*
X233006Y211645D01*
X233043Y211612D01*
X233152Y211552D01*
X233257Y211484D01*
X233304Y211467D01*
X233348Y211443D01*
X233468Y211409D01*
X233585Y211368D01*
X233635Y211362D01*
X233684Y211348D01*
X233927Y211329D01*
X263000Y211329D01*
X263001Y211329D01*
X264357Y211329D01*
X264415Y211329D01*
X264452Y211333D01*
X264515Y211332D01*
X265907Y211423D01*
X265934Y211428D01*
X265961Y211428D01*
X266202Y211472D01*
X268892Y212193D01*
X268964Y212221D01*
X269038Y212240D01*
X269172Y212303D01*
X269216Y212321D01*
X269232Y212332D01*
X269259Y212345D01*
X271671Y213737D01*
X271693Y213754D01*
X271718Y213765D01*
X271914Y213911D01*
X272963Y214832D01*
X272988Y214859D01*
X273036Y214900D01*
X273088Y214952D01*
X274036Y215899D01*
X274036Y215900D01*
X275718Y217582D01*
X277504Y219368D01*
X279558Y220219D01*
X291437Y220219D01*
X291563Y220233D01*
X291689Y220240D01*
X291735Y220253D01*
X291783Y220259D01*
X291902Y220301D01*
X292024Y220336D01*
X292066Y220360D01*
X292111Y220376D01*
X292218Y220445D01*
X292328Y220506D01*
X292374Y220546D01*
X292404Y220565D01*
X292438Y220600D01*
X292514Y220665D01*
X299434Y227585D01*
X310166Y227585D01*
X310835Y226916D01*
X310914Y226853D01*
X310986Y226784D01*
X311050Y226745D01*
X311108Y226699D01*
X311199Y226656D01*
X311285Y226605D01*
X311356Y226582D01*
X311423Y226550D01*
X311521Y226529D01*
X311617Y226499D01*
X311691Y226493D01*
X311764Y226477D01*
X311864Y226479D01*
X311964Y226471D01*
X312038Y226482D01*
X312112Y226483D01*
X312209Y226507D01*
X312309Y226522D01*
X312378Y226550D01*
X312450Y226568D01*
X312539Y226614D01*
X312633Y226651D01*
X312694Y226693D01*
X312760Y226728D01*
X312836Y226793D01*
X312919Y226850D01*
X312969Y226905D01*
X313025Y226953D01*
X313085Y227034D01*
X313152Y227109D01*
X313188Y227174D01*
X313233Y227234D01*
X313272Y227326D01*
X313321Y227414D01*
X313341Y227485D01*
X313371Y227554D01*
X313388Y227652D01*
X313416Y227749D01*
X313424Y227849D01*
X313432Y227897D01*
X313430Y227932D01*
X313435Y227993D01*
X313435Y234950D01*
X313430Y234992D01*
X313431Y235070D01*
X313265Y237175D01*
X313254Y237232D01*
X313252Y237289D01*
X313202Y237498D01*
X313198Y237517D01*
X313196Y237521D01*
X313195Y237527D01*
X311893Y241532D01*
X311845Y241638D01*
X311804Y241748D01*
X311766Y241812D01*
X311749Y241849D01*
X311721Y241884D01*
X311677Y241957D01*
X309201Y245364D01*
X309122Y245451D01*
X309050Y245542D01*
X308994Y245591D01*
X308966Y245621D01*
X308929Y245646D01*
X308864Y245701D01*
X305457Y248177D01*
X305355Y248235D01*
X305258Y248299D01*
X305189Y248328D01*
X305153Y248348D01*
X305111Y248361D01*
X305032Y248393D01*
X301027Y249695D01*
X300971Y249706D01*
X300917Y249726D01*
X300703Y249760D01*
X300685Y249764D01*
X300681Y249764D01*
X300675Y249765D01*
X298570Y249931D01*
X298527Y249929D01*
X298450Y249935D01*
X274470Y249935D01*
X274404Y249928D01*
X274336Y249929D01*
X274231Y249908D01*
X274124Y249895D01*
X274061Y249873D01*
X273995Y249859D01*
X273897Y249814D01*
X273796Y249778D01*
X273740Y249741D01*
X273679Y249713D01*
X273594Y249647D01*
X273503Y249589D01*
X273457Y249540D01*
X273404Y249499D01*
X273336Y249416D01*
X273261Y249338D01*
X273227Y249280D01*
X273184Y249228D01*
X273138Y249132D01*
X273082Y249039D01*
X273062Y248975D01*
X273033Y248915D01*
X273009Y248810D01*
X272976Y248707D01*
X272971Y248640D01*
X272956Y248575D01*
X272957Y248467D01*
X272948Y248360D01*
X272958Y248293D01*
X272959Y248226D01*
X272984Y248122D01*
X273000Y248015D01*
X273025Y247953D01*
X273040Y247887D01*
X273089Y247791D01*
X273129Y247691D01*
X273167Y247636D01*
X273197Y247576D01*
X273305Y247437D01*
X273327Y247405D01*
X273336Y247397D01*
X273347Y247383D01*
X273435Y247288D01*
X273468Y247259D01*
X273496Y247225D01*
X273684Y247069D01*
X273995Y246851D01*
X274034Y246830D01*
X274068Y246803D01*
X274286Y246692D01*
X274520Y246595D01*
X274796Y246319D01*
X274804Y246312D01*
X274811Y246304D01*
X275000Y246148D01*
X275319Y245924D01*
X275455Y245710D01*
X275483Y245676D01*
X275504Y245638D01*
X275663Y245452D01*
X275932Y245183D01*
X275966Y245156D01*
X275995Y245123D01*
X276089Y245052D01*
X276123Y245021D01*
X276148Y245007D01*
X276190Y244975D01*
X276404Y244839D01*
X276628Y244520D01*
X276635Y244512D01*
X276640Y244502D01*
X276799Y244316D01*
X277075Y244040D01*
X277172Y243806D01*
X277193Y243768D01*
X277207Y243726D01*
X277331Y243515D01*
X277549Y243204D01*
X277578Y243171D01*
X277601Y243134D01*
X277768Y242955D01*
X277955Y242783D01*
X278120Y242430D01*
X278125Y242421D01*
X278129Y242411D01*
X278252Y242200D01*
X278476Y241880D01*
X278531Y241633D01*
X278545Y241591D01*
X278552Y241548D01*
X278638Y241319D01*
X278798Y240974D01*
X278821Y240937D01*
X278838Y240896D01*
X278970Y240690D01*
X279125Y240489D01*
X279226Y240112D01*
X279230Y240103D01*
X279231Y240092D01*
X279316Y239863D01*
X279481Y239509D01*
X279492Y239256D01*
X279499Y239213D01*
X279499Y239169D01*
X279543Y238928D01*
X279641Y238561D01*
X279657Y238520D01*
X279666Y238477D01*
X279762Y238252D01*
X279878Y238027D01*
X279912Y237638D01*
X279915Y237628D01*
X279914Y237618D01*
X279959Y237377D01*
X280060Y237000D01*
X280027Y236749D01*
X280026Y236705D01*
X280018Y236662D01*
X280019Y236417D01*
X280052Y236039D01*
X280061Y235996D01*
X280063Y235952D01*
X280117Y235713D01*
X280193Y235472D01*
X280159Y235083D01*
X280160Y235072D01*
X280158Y235062D01*
X280159Y234817D01*
X280193Y234428D01*
X280117Y234187D01*
X280109Y234144D01*
X280093Y234103D01*
X280052Y233861D01*
X280019Y233483D01*
X280021Y233439D01*
X280014Y233396D01*
X280027Y233151D01*
X280060Y232900D01*
X279959Y232523D01*
X279957Y232513D01*
X279953Y232503D01*
X279912Y232262D01*
X279878Y231873D01*
X279762Y231648D01*
X279746Y231607D01*
X279723Y231569D01*
X279641Y231339D01*
X279543Y230972D01*
X279536Y230928D01*
X279523Y230887D01*
X279492Y230644D01*
X279481Y230391D01*
X279316Y230037D01*
X279313Y230027D01*
X279308Y230018D01*
X279226Y229788D01*
X279125Y229411D01*
X278970Y229210D01*
X278948Y229172D01*
X278919Y229139D01*
X278798Y228926D01*
X278638Y228581D01*
X278624Y228540D01*
X278603Y228501D01*
X278531Y228267D01*
X278476Y228020D01*
X278252Y227700D01*
X278247Y227691D01*
X278240Y227683D01*
X278120Y227470D01*
X277955Y227117D01*
X277768Y226945D01*
X277739Y226912D01*
X277705Y226885D01*
X277549Y226696D01*
X277331Y226385D01*
X277310Y226346D01*
X277283Y226312D01*
X277172Y226094D01*
X277075Y225860D01*
X276799Y225584D01*
X276792Y225576D01*
X276784Y225569D01*
X276628Y225380D01*
X276404Y225061D01*
X276190Y224925D01*
X276156Y224897D01*
X276118Y224876D01*
X275932Y224717D01*
X275663Y224448D01*
X275636Y224414D01*
X275603Y224385D01*
X275455Y224190D01*
X275319Y223976D01*
X275000Y223752D01*
X274992Y223745D01*
X274982Y223740D01*
X274796Y223581D01*
X274520Y223305D01*
X274286Y223208D01*
X274248Y223187D01*
X274206Y223173D01*
X273995Y223049D01*
X273684Y222831D01*
X273651Y222802D01*
X273614Y222779D01*
X273435Y222612D01*
X273263Y222425D01*
X272910Y222260D01*
X272901Y222255D01*
X272891Y222251D01*
X272680Y222128D01*
X272360Y221904D01*
X272113Y221849D01*
X272071Y221835D01*
X272028Y221828D01*
X271799Y221742D01*
X271454Y221582D01*
X271417Y221559D01*
X271376Y221542D01*
X271170Y221410D01*
X270969Y221255D01*
X270592Y221154D01*
X270582Y221150D01*
X270572Y221149D01*
X270343Y221064D01*
X269989Y220899D01*
X269736Y220888D01*
X269693Y220881D01*
X269649Y220881D01*
X269408Y220837D01*
X269041Y220739D01*
X269000Y220723D01*
X268957Y220714D01*
X268732Y220618D01*
X268507Y220502D01*
X268118Y220468D01*
X268108Y220465D01*
X268098Y220466D01*
X267857Y220421D01*
X267480Y220320D01*
X267229Y220353D01*
X267185Y220354D01*
X267142Y220362D01*
X267084Y220362D01*
X267032Y220366D01*
X267027Y220366D01*
X266984Y220361D01*
X266897Y220361D01*
X266519Y220328D01*
X266476Y220319D01*
X266432Y220317D01*
X266193Y220263D01*
X265952Y220187D01*
X265563Y220221D01*
X265552Y220220D01*
X265542Y220222D01*
X265297Y220221D01*
X264908Y220187D01*
X264667Y220263D01*
X264624Y220271D01*
X264583Y220287D01*
X264341Y220328D01*
X263963Y220361D01*
X263919Y220359D01*
X263876Y220366D01*
X263853Y220365D01*
X263833Y220366D01*
X263828Y220366D01*
X263785Y220361D01*
X263631Y220353D01*
X263380Y220320D01*
X263003Y220421D01*
X262993Y220423D01*
X262983Y220427D01*
X262742Y220468D01*
X262353Y220502D01*
X262128Y220618D01*
X262087Y220634D01*
X262049Y220657D01*
X261819Y220739D01*
X261452Y220837D01*
X261408Y220844D01*
X261367Y220857D01*
X261124Y220888D01*
X260871Y220899D01*
X260517Y221064D01*
X260507Y221067D01*
X260498Y221072D01*
X260268Y221154D01*
X259891Y221255D01*
X259690Y221410D01*
X259652Y221432D01*
X259619Y221461D01*
X259406Y221582D01*
X259061Y221742D01*
X259020Y221756D01*
X258981Y221777D01*
X258747Y221849D01*
X258500Y221904D01*
X258180Y222128D01*
X258171Y222133D01*
X258163Y222140D01*
X257950Y222260D01*
X257597Y222425D01*
X257425Y222612D01*
X257392Y222641D01*
X257365Y222675D01*
X257176Y222831D01*
X256865Y223049D01*
X256826Y223070D01*
X256792Y223097D01*
X256574Y223208D01*
X256340Y223305D01*
X256064Y223581D01*
X256055Y223588D01*
X256049Y223596D01*
X255860Y223752D01*
X255541Y223976D01*
X255405Y224190D01*
X255377Y224224D01*
X255356Y224262D01*
X255197Y224448D01*
X254928Y224717D01*
X254894Y224744D01*
X254865Y224777D01*
X254670Y224925D01*
X254456Y225061D01*
X254232Y225380D01*
X254225Y225388D01*
X254220Y225398D01*
X254061Y225584D01*
X253785Y225860D01*
X253688Y226094D01*
X253667Y226132D01*
X253653Y226174D01*
X253529Y226385D01*
X253311Y226696D01*
X253282Y226729D01*
X253259Y226766D01*
X253092Y226945D01*
X252905Y227117D01*
X252740Y227470D01*
X252735Y227479D01*
X252731Y227489D01*
X252608Y227700D01*
X252384Y228020D01*
X252329Y228267D01*
X252315Y228309D01*
X252308Y228352D01*
X252222Y228582D01*
X252062Y228926D01*
X252039Y228963D01*
X252022Y229004D01*
X251890Y229209D01*
X251735Y229411D01*
X251634Y229788D01*
X251630Y229797D01*
X251629Y229808D01*
X251544Y230037D01*
X251379Y230391D01*
X251368Y230644D01*
X251361Y230687D01*
X251361Y230731D01*
X251317Y230972D01*
X251219Y231339D01*
X251203Y231380D01*
X251194Y231423D01*
X251098Y231648D01*
X250982Y231873D01*
X250948Y232262D01*
X250945Y232272D01*
X250946Y232282D01*
X250901Y232523D01*
X250800Y232900D01*
X250833Y233151D01*
X250834Y233195D01*
X250842Y233238D01*
X250841Y233483D01*
X250808Y233861D01*
X250799Y233904D01*
X250797Y233948D01*
X250743Y234187D01*
X250667Y234428D01*
X250701Y234817D01*
X250700Y234828D01*
X250702Y234838D01*
X250701Y235083D01*
X250667Y235472D01*
X250743Y235713D01*
X250751Y235756D01*
X250767Y235797D01*
X250808Y236039D01*
X250841Y236417D01*
X250839Y236461D01*
X250846Y236504D01*
X250833Y236749D01*
X250800Y237000D01*
X250901Y237377D01*
X250903Y237387D01*
X250907Y237397D01*
X250948Y237638D01*
X250982Y238027D01*
X251098Y238252D01*
X251114Y238293D01*
X251137Y238331D01*
X251219Y238561D01*
X251317Y238928D01*
X251324Y238972D01*
X251337Y239013D01*
X251368Y239256D01*
X251379Y239509D01*
X251544Y239863D01*
X251547Y239873D01*
X251552Y239882D01*
X251634Y240112D01*
X251735Y240489D01*
X251890Y240690D01*
X251912Y240728D01*
X251941Y240761D01*
X252062Y240974D01*
X252222Y241319D01*
X252236Y241360D01*
X252257Y241399D01*
X252329Y241633D01*
X252384Y241880D01*
X252608Y242200D01*
X252613Y242209D01*
X252620Y242217D01*
X252740Y242430D01*
X252905Y242783D01*
X253092Y242955D01*
X253121Y242988D01*
X253155Y243016D01*
X253311Y243204D01*
X253529Y243515D01*
X253550Y243554D01*
X253577Y243588D01*
X253688Y243806D01*
X253785Y244040D01*
X254061Y244316D01*
X254068Y244324D01*
X254076Y244331D01*
X254232Y244520D01*
X254456Y244839D01*
X254670Y244975D01*
X254704Y245003D01*
X254742Y245024D01*
X254791Y245066D01*
X254820Y245085D01*
X254852Y245118D01*
X254928Y245183D01*
X255197Y245452D01*
X255224Y245486D01*
X255257Y245515D01*
X255405Y245710D01*
X255541Y245924D01*
X255860Y246148D01*
X255868Y246155D01*
X255878Y246160D01*
X256064Y246319D01*
X256340Y246595D01*
X256574Y246692D01*
X256612Y246713D01*
X256654Y246727D01*
X256865Y246851D01*
X257176Y247069D01*
X257209Y247098D01*
X257246Y247121D01*
X257425Y247288D01*
X257513Y247383D01*
X257552Y247437D01*
X257599Y247486D01*
X257654Y247578D01*
X257717Y247665D01*
X257743Y247727D01*
X257778Y247785D01*
X257810Y247887D01*
X257852Y247986D01*
X257863Y248053D01*
X257884Y248117D01*
X257893Y248224D01*
X257911Y248330D01*
X257906Y248397D01*
X257912Y248464D01*
X257896Y248571D01*
X257889Y248678D01*
X257870Y248742D01*
X257860Y248809D01*
X257820Y248909D01*
X257790Y249012D01*
X257756Y249070D01*
X257731Y249133D01*
X257670Y249221D01*
X257617Y249314D01*
X257571Y249364D01*
X257533Y249419D01*
X257453Y249491D01*
X257379Y249570D01*
X257324Y249607D01*
X257274Y249652D01*
X257180Y249704D01*
X257090Y249764D01*
X257028Y249788D01*
X256969Y249821D01*
X256865Y249850D01*
X256765Y249888D01*
X256698Y249897D01*
X256633Y249916D01*
X256458Y249930D01*
X256419Y249935D01*
X256407Y249934D01*
X256390Y249935D01*
X19050Y249935D01*
X19008Y249930D01*
X18930Y249931D01*
X16825Y249765D01*
X16768Y249754D01*
X16711Y249752D01*
X16501Y249702D01*
X16483Y249698D01*
X16479Y249696D01*
X16473Y249695D01*
X12468Y248393D01*
X12362Y248345D01*
X12252Y248304D01*
X12188Y248266D01*
X12151Y248249D01*
X12116Y248221D01*
X12043Y248177D01*
X8636Y245701D01*
X8549Y245622D01*
X8458Y245550D01*
X8409Y245494D01*
X8379Y245466D01*
X8354Y245429D01*
X8299Y245364D01*
X5823Y241957D01*
X5765Y241855D01*
X5701Y241758D01*
X5672Y241689D01*
X5652Y241653D01*
X5639Y241611D01*
X5607Y241532D01*
X4305Y237527D01*
X4294Y237471D01*
X4274Y237417D01*
X4240Y237203D01*
X4236Y237185D01*
X4236Y237181D01*
X4235Y237175D01*
X4069Y235070D01*
X4071Y235027D01*
X4065Y234950D01*
X4065Y70644D01*
X4068Y70618D01*
X4066Y70592D01*
X4088Y70445D01*
X4105Y70298D01*
X4113Y70273D01*
X4117Y70247D01*
X4172Y70109D01*
X4222Y69970D01*
X4236Y69948D01*
X4246Y69923D01*
X4331Y69802D01*
X4411Y69677D01*
X4430Y69659D01*
X4445Y69637D01*
X4555Y69538D01*
X4662Y69435D01*
X4684Y69421D01*
X4704Y69404D01*
X4834Y69332D01*
X4961Y69256D01*
X4986Y69248D01*
X5009Y69235D01*
X5152Y69195D01*
X5293Y69150D01*
X5319Y69148D01*
X5344Y69140D01*
X5588Y69121D01*
X10033Y69121D01*
X10033Y61104D01*
X10036Y61078D01*
X10034Y61052D01*
X10056Y60905D01*
X10073Y60758D01*
X10081Y60733D01*
X10085Y60707D01*
X10140Y60569D01*
X10190Y60430D01*
X10204Y60408D01*
X10214Y60383D01*
X10299Y60262D01*
X10379Y60137D01*
X10398Y60119D01*
X10413Y60097D01*
X10523Y59998D01*
X10630Y59895D01*
X10652Y59881D01*
X10672Y59864D01*
X10802Y59792D01*
X10929Y59716D01*
X10954Y59708D01*
X10977Y59695D01*
X11120Y59655D01*
X11261Y59610D01*
X11287Y59608D01*
X11312Y59600D01*
X11556Y59581D01*
X13081Y59581D01*
X13081Y59579D01*
X11556Y59579D01*
X11530Y59576D01*
X11504Y59578D01*
X11357Y59556D01*
X11210Y59539D01*
X11185Y59530D01*
X11159Y59527D01*
X11021Y59472D01*
X10882Y59422D01*
X10860Y59408D01*
X10835Y59398D01*
X10714Y59313D01*
X10589Y59233D01*
X10571Y59214D01*
X10549Y59199D01*
X10450Y59089D01*
X10347Y58982D01*
X10333Y58960D01*
X10316Y58940D01*
X10244Y58810D01*
X10168Y58683D01*
X10160Y58658D01*
X10147Y58635D01*
X10107Y58492D01*
X10062Y58351D01*
X10060Y58325D01*
X10052Y58300D01*
X10033Y58056D01*
X10033Y50039D01*
X5588Y50039D01*
X5562Y50036D01*
X5536Y50038D01*
X5389Y50016D01*
X5242Y49999D01*
X5217Y49991D01*
X5191Y49987D01*
X5053Y49932D01*
X4914Y49882D01*
X4892Y49868D01*
X4867Y49858D01*
X4746Y49773D01*
X4621Y49693D01*
X4603Y49674D01*
X4581Y49659D01*
X4482Y49549D01*
X4379Y49442D01*
X4365Y49420D01*
X4348Y49400D01*
X4276Y49270D01*
X4200Y49143D01*
X4192Y49118D01*
X4179Y49095D01*
X4139Y48952D01*
X4094Y48811D01*
X4092Y48785D01*
X4084Y48760D01*
X4065Y48516D01*
X4065Y19050D01*
X4070Y19008D01*
X4069Y18930D01*
X4235Y16825D01*
X4246Y16768D01*
X4248Y16711D01*
X4298Y16501D01*
X4302Y16483D01*
X4304Y16479D01*
X4305Y16473D01*
X5607Y12468D01*
X5655Y12362D01*
X5696Y12252D01*
X5734Y12188D01*
X5751Y12151D01*
X5779Y12116D01*
X5823Y12043D01*
X8299Y8636D01*
X8378Y8549D01*
X8450Y8458D01*
X8506Y8409D01*
X8534Y8379D01*
X8571Y8354D01*
X8636Y8299D01*
X12043Y5823D01*
X12145Y5765D01*
X12242Y5701D01*
X12311Y5672D01*
X12347Y5652D01*
X12389Y5639D01*
X12468Y5607D01*
X16473Y4305D01*
X16529Y4294D01*
X16583Y4274D01*
X16797Y4240D01*
X16815Y4236D01*
X16819Y4236D01*
X16825Y4235D01*
X18930Y4069D01*
X18973Y4071D01*
X19050Y4065D01*
X298450Y4065D01*
X298492Y4070D01*
G37*
%LPC*%
G36*
X47098Y162310D02*
X47098Y162310D01*
X46854Y162329D01*
X37039Y162329D01*
X37039Y164415D01*
X37212Y165061D01*
X37547Y165640D01*
X38020Y166113D01*
X38754Y166537D01*
X38875Y166627D01*
X38999Y166713D01*
X39015Y166730D01*
X39034Y166744D01*
X39131Y166860D01*
X39232Y166972D01*
X39244Y166992D01*
X39259Y167010D01*
X39328Y167144D01*
X39401Y167277D01*
X39407Y167299D01*
X39418Y167320D01*
X39455Y167467D01*
X39496Y167612D01*
X39498Y167640D01*
X39502Y167658D01*
X39503Y167705D01*
X39515Y167856D01*
X39515Y187764D01*
X41896Y190145D01*
X60264Y190145D01*
X62402Y188006D01*
X62520Y187913D01*
X62635Y187815D01*
X62657Y187804D01*
X62675Y187789D01*
X62811Y187725D01*
X62945Y187657D01*
X62969Y187651D01*
X62991Y187640D01*
X63137Y187609D01*
X63283Y187572D01*
X63308Y187572D01*
X63331Y187567D01*
X63481Y187570D01*
X63632Y187567D01*
X63656Y187573D01*
X63680Y187573D01*
X63825Y187610D01*
X63972Y187642D01*
X63994Y187652D01*
X64018Y187658D01*
X64152Y187727D01*
X64287Y187791D01*
X64306Y187807D01*
X64328Y187818D01*
X64442Y187915D01*
X64560Y188009D01*
X64575Y188028D01*
X64593Y188043D01*
X64683Y188165D01*
X64775Y188282D01*
X64789Y188308D01*
X64800Y188324D01*
X64819Y188367D01*
X64887Y188500D01*
X65102Y189020D01*
X67520Y191438D01*
X70680Y192747D01*
X72452Y192747D01*
X72578Y192761D01*
X72704Y192768D01*
X72750Y192781D01*
X72798Y192787D01*
X72917Y192829D01*
X73039Y192864D01*
X73081Y192888D01*
X73126Y192904D01*
X73233Y192973D01*
X73343Y193034D01*
X73389Y193074D01*
X73419Y193093D01*
X73453Y193128D01*
X73529Y193193D01*
X76844Y196508D01*
X78898Y197359D01*
X99645Y197359D01*
X99745Y197370D01*
X99846Y197372D01*
X99918Y197390D01*
X99992Y197399D01*
X100086Y197432D01*
X100184Y197457D01*
X100250Y197491D01*
X100320Y197516D01*
X100404Y197571D01*
X100493Y197617D01*
X100550Y197665D01*
X100613Y197705D01*
X100682Y197777D01*
X100759Y197842D01*
X100803Y197902D01*
X100855Y197956D01*
X100906Y198042D01*
X100966Y198123D01*
X100995Y198191D01*
X101034Y198255D01*
X101064Y198351D01*
X101104Y198443D01*
X101117Y198516D01*
X101140Y198587D01*
X101148Y198687D01*
X101166Y198786D01*
X101162Y198860D01*
X101168Y198934D01*
X101153Y199034D01*
X101148Y199134D01*
X101127Y199205D01*
X101116Y199279D01*
X101079Y199372D01*
X101051Y199469D01*
X101015Y199534D01*
X100987Y199603D01*
X100930Y199685D01*
X100881Y199773D01*
X100816Y199849D01*
X100788Y199889D01*
X100762Y199913D01*
X100723Y199959D01*
X98232Y202449D01*
X98211Y202466D01*
X98195Y202486D01*
X98075Y202574D01*
X97959Y202666D01*
X97935Y202677D01*
X97914Y202693D01*
X97778Y202752D01*
X97644Y202815D01*
X97618Y202821D01*
X97594Y202831D01*
X97448Y202857D01*
X97303Y202888D01*
X97277Y202888D01*
X97251Y202893D01*
X97103Y202885D01*
X96955Y202882D01*
X96929Y202876D01*
X96903Y202875D01*
X96761Y202834D01*
X96617Y202797D01*
X96594Y202785D01*
X96568Y202778D01*
X96439Y202706D01*
X96307Y202638D01*
X96287Y202621D01*
X96264Y202608D01*
X96078Y202449D01*
X94384Y200755D01*
X79016Y200755D01*
X77277Y202494D01*
X77257Y202511D01*
X77240Y202531D01*
X77120Y202619D01*
X77004Y202711D01*
X76980Y202722D01*
X76959Y202738D01*
X76823Y202797D01*
X76689Y202860D01*
X76663Y202866D01*
X76639Y202876D01*
X76493Y202902D01*
X76348Y202933D01*
X76322Y202933D01*
X76296Y202938D01*
X76148Y202930D01*
X76000Y202927D01*
X75974Y202921D01*
X75948Y202920D01*
X75806Y202879D01*
X75662Y202842D01*
X75639Y202830D01*
X75613Y202823D01*
X75484Y202751D01*
X75352Y202683D01*
X75332Y202666D01*
X75309Y202653D01*
X75123Y202494D01*
X73384Y200755D01*
X58016Y200755D01*
X55262Y203510D01*
X55241Y203526D01*
X55224Y203546D01*
X55104Y203635D01*
X54989Y203727D01*
X54965Y203738D01*
X54944Y203753D01*
X54807Y203812D01*
X54674Y203875D01*
X54648Y203881D01*
X54624Y203891D01*
X54478Y203918D01*
X54333Y203949D01*
X54307Y203948D01*
X54281Y203953D01*
X54132Y203945D01*
X53984Y203943D01*
X53959Y203936D01*
X53933Y203935D01*
X53790Y203894D01*
X53646Y203858D01*
X53623Y203846D01*
X53598Y203838D01*
X53469Y203766D01*
X53337Y203698D01*
X53317Y203681D01*
X53294Y203668D01*
X53137Y203535D01*
X49970Y202223D01*
X46550Y202223D01*
X43390Y203532D01*
X40972Y205950D01*
X39663Y209110D01*
X39663Y212530D01*
X40972Y215690D01*
X43390Y218108D01*
X46550Y219417D01*
X49970Y219417D01*
X51079Y218957D01*
X53135Y218106D01*
X53145Y218094D01*
X53265Y218005D01*
X53380Y217914D01*
X53404Y217902D01*
X53425Y217887D01*
X53561Y217828D01*
X53695Y217765D01*
X53721Y217759D01*
X53745Y217749D01*
X53891Y217722D01*
X54036Y217691D01*
X54062Y217692D01*
X54088Y217687D01*
X54236Y217695D01*
X54385Y217697D01*
X54410Y217704D01*
X54436Y217705D01*
X54579Y217746D01*
X54723Y217782D01*
X54746Y217794D01*
X54771Y217801D01*
X54901Y217874D01*
X55032Y217942D01*
X55052Y217959D01*
X55075Y217972D01*
X55262Y218130D01*
X58016Y220885D01*
X73384Y220885D01*
X75123Y219146D01*
X75144Y219129D01*
X75160Y219109D01*
X75280Y219021D01*
X75396Y218929D01*
X75420Y218918D01*
X75441Y218902D01*
X75577Y218843D01*
X75711Y218780D01*
X75737Y218774D01*
X75761Y218764D01*
X75907Y218738D01*
X76052Y218707D01*
X76078Y218707D01*
X76104Y218702D01*
X76252Y218710D01*
X76400Y218713D01*
X76426Y218719D01*
X76452Y218720D01*
X76594Y218761D01*
X76738Y218798D01*
X76761Y218810D01*
X76787Y218817D01*
X76916Y218889D01*
X77048Y218957D01*
X77068Y218974D01*
X77091Y218987D01*
X77277Y219146D01*
X79016Y220885D01*
X94384Y220885D01*
X96078Y219191D01*
X96098Y219174D01*
X96115Y219154D01*
X96235Y219066D01*
X96351Y218974D01*
X96375Y218963D01*
X96396Y218947D01*
X96532Y218888D01*
X96666Y218825D01*
X96692Y218819D01*
X96716Y218809D01*
X96862Y218783D01*
X97007Y218752D01*
X97033Y218752D01*
X97059Y218747D01*
X97207Y218755D01*
X97355Y218758D01*
X97381Y218764D01*
X97407Y218765D01*
X97549Y218806D01*
X97693Y218843D01*
X97716Y218855D01*
X97742Y218862D01*
X97871Y218934D01*
X98003Y219002D01*
X98023Y219019D01*
X98046Y219032D01*
X98232Y219191D01*
X100926Y221885D01*
X115294Y221885D01*
X117033Y220146D01*
X117054Y220129D01*
X117070Y220109D01*
X117190Y220021D01*
X117306Y219929D01*
X117330Y219918D01*
X117351Y219902D01*
X117487Y219843D01*
X117621Y219780D01*
X117647Y219774D01*
X117671Y219764D01*
X117817Y219738D01*
X117962Y219707D01*
X117988Y219707D01*
X118014Y219702D01*
X118162Y219710D01*
X118310Y219713D01*
X118336Y219719D01*
X118362Y219720D01*
X118504Y219761D01*
X118648Y219798D01*
X118671Y219810D01*
X118697Y219817D01*
X118826Y219889D01*
X118958Y219957D01*
X118978Y219974D01*
X119001Y219987D01*
X119187Y220146D01*
X120926Y221885D01*
X135294Y221885D01*
X137675Y219504D01*
X137675Y202136D01*
X135294Y199755D01*
X135222Y199755D01*
X135196Y199752D01*
X135170Y199754D01*
X135023Y199732D01*
X134876Y199715D01*
X134851Y199707D01*
X134825Y199703D01*
X134687Y199648D01*
X134548Y199598D01*
X134526Y199584D01*
X134501Y199574D01*
X134380Y199489D01*
X134255Y199409D01*
X134237Y199390D01*
X134215Y199375D01*
X134116Y199265D01*
X134013Y199158D01*
X133999Y199136D01*
X133982Y199116D01*
X133910Y198986D01*
X133834Y198859D01*
X133826Y198834D01*
X133813Y198811D01*
X133773Y198668D01*
X133728Y198527D01*
X133726Y198501D01*
X133718Y198476D01*
X133699Y198232D01*
X133699Y195578D01*
X132848Y193524D01*
X126356Y187032D01*
X124302Y186181D01*
X116674Y186181D01*
X116574Y186170D01*
X116474Y186168D01*
X116401Y186150D01*
X116328Y186141D01*
X116233Y186108D01*
X116136Y186083D01*
X116069Y186049D01*
X115999Y186024D01*
X115915Y185969D01*
X115826Y185923D01*
X115769Y185875D01*
X115707Y185835D01*
X115637Y185763D01*
X115560Y185698D01*
X115516Y185638D01*
X115464Y185584D01*
X115413Y185498D01*
X115353Y185417D01*
X115324Y185349D01*
X115286Y185285D01*
X115255Y185189D01*
X115215Y185097D01*
X115202Y185024D01*
X115179Y184953D01*
X115171Y184853D01*
X115154Y184754D01*
X115157Y184680D01*
X115151Y184606D01*
X115166Y184506D01*
X115171Y184406D01*
X115192Y184335D01*
X115203Y184261D01*
X115240Y184168D01*
X115268Y184071D01*
X115304Y184006D01*
X115332Y183937D01*
X115389Y183855D01*
X115438Y183767D01*
X115503Y183691D01*
X115531Y183651D01*
X115557Y183627D01*
X115597Y183581D01*
X117778Y181400D01*
X119087Y178240D01*
X119087Y174820D01*
X117778Y171660D01*
X115360Y169242D01*
X112200Y167933D01*
X111829Y167933D01*
X111766Y167926D01*
X111702Y167928D01*
X111593Y167906D01*
X111482Y167893D01*
X111423Y167872D01*
X111361Y167860D01*
X111259Y167813D01*
X111154Y167776D01*
X111101Y167742D01*
X111043Y167715D01*
X110955Y167647D01*
X110861Y167587D01*
X110817Y167541D01*
X110767Y167503D01*
X110642Y167360D01*
X110641Y167359D01*
X110434Y167235D01*
X110382Y167195D01*
X110325Y167163D01*
X110186Y167046D01*
X110157Y167023D01*
X110151Y167015D01*
X110139Y167005D01*
X109976Y166842D01*
X109430Y166616D01*
X109401Y166600D01*
X109231Y166516D01*
X108723Y166213D01*
X108496Y166179D01*
X108432Y166162D01*
X108367Y166155D01*
X108194Y166099D01*
X108159Y166089D01*
X108150Y166084D01*
X108135Y166079D01*
X107922Y165991D01*
X107331Y165991D01*
X107298Y165987D01*
X107109Y165975D01*
X106524Y165889D01*
X106301Y165945D01*
X106236Y165954D01*
X106172Y165972D01*
X105991Y165986D01*
X105955Y165991D01*
X105944Y165990D01*
X105929Y165991D01*
X62871Y165991D01*
X62745Y165977D01*
X62619Y165970D01*
X62572Y165957D01*
X62524Y165951D01*
X62405Y165909D01*
X62284Y165874D01*
X62242Y165850D01*
X62196Y165834D01*
X62090Y165765D01*
X61980Y165704D01*
X61933Y165664D01*
X61903Y165645D01*
X61870Y165610D01*
X61794Y165545D01*
X60264Y164015D01*
X58644Y164015D01*
X58618Y164012D01*
X58592Y164014D01*
X58445Y163992D01*
X58298Y163975D01*
X58273Y163967D01*
X58247Y163963D01*
X58109Y163908D01*
X57970Y163858D01*
X57948Y163844D01*
X57923Y163834D01*
X57802Y163749D01*
X57677Y163669D01*
X57659Y163650D01*
X57637Y163635D01*
X57538Y163525D01*
X57435Y163418D01*
X57421Y163396D01*
X57404Y163376D01*
X57332Y163246D01*
X57256Y163119D01*
X57248Y163094D01*
X57235Y163071D01*
X57195Y162928D01*
X57150Y162787D01*
X57148Y162761D01*
X57140Y162736D01*
X57121Y162492D01*
X57121Y162329D01*
X47306Y162329D01*
X47280Y162326D01*
X47254Y162328D01*
X47109Y162307D01*
X47098Y162310D01*
G37*
%LPD*%
%LPC*%
G36*
X121480Y11723D02*
X121480Y11723D01*
X118320Y13032D01*
X117067Y14285D01*
X116968Y14364D01*
X116874Y14448D01*
X116832Y14472D01*
X116794Y14502D01*
X116680Y14556D01*
X116569Y14617D01*
X116523Y14630D01*
X116479Y14651D01*
X116356Y14677D01*
X116234Y14712D01*
X116173Y14717D01*
X116138Y14724D01*
X116090Y14723D01*
X115990Y14731D01*
X110648Y14731D01*
X108594Y15582D01*
X107022Y17154D01*
X106156Y19245D01*
X106119Y19312D01*
X106091Y19383D01*
X106035Y19464D01*
X105987Y19550D01*
X105935Y19606D01*
X105892Y19669D01*
X105819Y19735D01*
X105753Y19808D01*
X105690Y19851D01*
X105633Y19902D01*
X105547Y19950D01*
X105466Y20006D01*
X105395Y20034D01*
X105328Y20071D01*
X105233Y20098D01*
X105142Y20134D01*
X105066Y20145D01*
X104993Y20166D01*
X104844Y20178D01*
X104797Y20185D01*
X104778Y20183D01*
X104749Y20185D01*
X96296Y20185D01*
X93979Y22502D01*
X93959Y22518D01*
X93942Y22538D01*
X93823Y22627D01*
X93706Y22719D01*
X93683Y22730D01*
X93662Y22746D01*
X93525Y22804D01*
X93391Y22868D01*
X93366Y22873D01*
X93342Y22884D01*
X93195Y22910D01*
X93051Y22941D01*
X93025Y22941D01*
X92999Y22945D01*
X92850Y22938D01*
X92702Y22935D01*
X92677Y22929D01*
X92651Y22927D01*
X92508Y22886D01*
X92364Y22850D01*
X92341Y22838D01*
X92316Y22831D01*
X92186Y22758D01*
X92054Y22690D01*
X92034Y22673D01*
X92011Y22661D01*
X91825Y22502D01*
X91540Y22217D01*
X90961Y21882D01*
X90315Y21709D01*
X83277Y21709D01*
X83277Y30226D01*
X83274Y30252D01*
X83276Y30278D01*
X83254Y30425D01*
X83237Y30572D01*
X83228Y30597D01*
X83225Y30623D01*
X83170Y30761D01*
X83120Y30900D01*
X83106Y30922D01*
X83096Y30947D01*
X83011Y31068D01*
X82931Y31193D01*
X82912Y31211D01*
X82897Y31233D01*
X82787Y31332D01*
X82680Y31435D01*
X82658Y31449D01*
X82638Y31466D01*
X82508Y31538D01*
X82381Y31614D01*
X82356Y31622D01*
X82333Y31635D01*
X82190Y31675D01*
X82049Y31720D01*
X82023Y31722D01*
X81998Y31730D01*
X81754Y31749D01*
X80229Y31749D01*
X80229Y31751D01*
X81754Y31751D01*
X81780Y31754D01*
X81806Y31752D01*
X81953Y31774D01*
X82100Y31791D01*
X82125Y31800D01*
X82151Y31803D01*
X82289Y31858D01*
X82428Y31908D01*
X82450Y31922D01*
X82475Y31932D01*
X82596Y32017D01*
X82721Y32097D01*
X82739Y32116D01*
X82761Y32131D01*
X82860Y32241D01*
X82963Y32348D01*
X82977Y32370D01*
X82994Y32390D01*
X83066Y32520D01*
X83142Y32647D01*
X83150Y32672D01*
X83163Y32695D01*
X83203Y32838D01*
X83248Y32979D01*
X83250Y33005D01*
X83258Y33030D01*
X83277Y33274D01*
X83277Y41791D01*
X90315Y41791D01*
X90961Y41618D01*
X91540Y41283D01*
X91825Y40998D01*
X91846Y40982D01*
X91863Y40962D01*
X91982Y40873D01*
X92098Y40781D01*
X92122Y40770D01*
X92143Y40754D01*
X92279Y40696D01*
X92413Y40632D01*
X92439Y40627D01*
X92463Y40616D01*
X92609Y40590D01*
X92754Y40559D01*
X92780Y40559D01*
X92806Y40555D01*
X92954Y40562D01*
X93102Y40565D01*
X93128Y40571D01*
X93154Y40573D01*
X93297Y40614D01*
X93440Y40650D01*
X93464Y40662D01*
X93489Y40669D01*
X93619Y40742D01*
X93750Y40810D01*
X93770Y40827D01*
X93793Y40839D01*
X93979Y40998D01*
X96296Y43315D01*
X119164Y43315D01*
X121545Y40934D01*
X121545Y30440D01*
X121548Y30414D01*
X121546Y30388D01*
X121568Y30241D01*
X121585Y30094D01*
X121593Y30069D01*
X121597Y30043D01*
X121652Y29905D01*
X121702Y29766D01*
X121716Y29744D01*
X121726Y29719D01*
X121811Y29598D01*
X121891Y29473D01*
X121910Y29455D01*
X121925Y29433D01*
X122035Y29334D01*
X122142Y29231D01*
X122164Y29217D01*
X122184Y29200D01*
X122314Y29128D01*
X122441Y29052D01*
X122466Y29044D01*
X122489Y29031D01*
X122632Y28991D01*
X122773Y28946D01*
X122799Y28944D01*
X122824Y28936D01*
X123068Y28917D01*
X124900Y28917D01*
X128060Y27608D01*
X128083Y27585D01*
X128103Y27569D01*
X128120Y27549D01*
X128239Y27461D01*
X128356Y27368D01*
X128379Y27357D01*
X128400Y27342D01*
X128537Y27283D01*
X128671Y27220D01*
X128696Y27214D01*
X128720Y27204D01*
X128867Y27177D01*
X129011Y27146D01*
X129037Y27147D01*
X129063Y27142D01*
X129212Y27150D01*
X129360Y27152D01*
X129385Y27159D01*
X129411Y27160D01*
X129554Y27201D01*
X129698Y27237D01*
X129721Y27249D01*
X129746Y27256D01*
X129875Y27329D01*
X130008Y27397D01*
X130028Y27414D01*
X130050Y27427D01*
X130237Y27585D01*
X130446Y27795D01*
X145814Y27795D01*
X148195Y25414D01*
X148195Y16546D01*
X145814Y14165D01*
X129824Y14165D01*
X129698Y14151D01*
X129572Y14144D01*
X129526Y14131D01*
X129478Y14125D01*
X129359Y14083D01*
X129237Y14048D01*
X129195Y14024D01*
X129150Y14008D01*
X129043Y13939D01*
X128933Y13878D01*
X128887Y13838D01*
X128857Y13819D01*
X128823Y13784D01*
X128747Y13719D01*
X128060Y13032D01*
X124900Y11723D01*
X121480Y11723D01*
G37*
%LPD*%
%LPC*%
G36*
X241427Y119760D02*
X241427Y119760D01*
X228853Y119760D01*
X228853Y121747D01*
X229026Y122393D01*
X229077Y122480D01*
X229077Y122481D01*
X229078Y122482D01*
X229146Y122639D01*
X229215Y122800D01*
X229216Y122801D01*
X229216Y122802D01*
X229247Y122973D01*
X229278Y123143D01*
X229278Y123144D01*
X229278Y123145D01*
X229270Y123305D01*
X229260Y123491D01*
X229260Y123492D01*
X229260Y123494D01*
X229210Y123665D01*
X229165Y123826D01*
X229164Y123827D01*
X229163Y123828D01*
X229076Y123984D01*
X228995Y124130D01*
X228994Y124131D01*
X228993Y124133D01*
X228835Y124319D01*
X227329Y125824D01*
X227329Y135796D01*
X227616Y136083D01*
X227633Y136103D01*
X227653Y136120D01*
X227741Y136240D01*
X227833Y136356D01*
X227844Y136380D01*
X227860Y136401D01*
X227919Y136537D01*
X227982Y136671D01*
X227988Y136697D01*
X227998Y136721D01*
X228024Y136867D01*
X228055Y137012D01*
X228055Y137038D01*
X228060Y137064D01*
X228052Y137212D01*
X228049Y137360D01*
X228043Y137386D01*
X228042Y137412D01*
X228001Y137554D01*
X227964Y137698D01*
X227952Y137722D01*
X227945Y137747D01*
X227873Y137876D01*
X227805Y138008D01*
X227788Y138028D01*
X227775Y138051D01*
X227616Y138237D01*
X227329Y138524D01*
X227329Y148496D01*
X228835Y150001D01*
X228836Y150002D01*
X228837Y150003D01*
X228944Y150139D01*
X229051Y150274D01*
X229052Y150275D01*
X229053Y150277D01*
X229127Y150434D01*
X229200Y150589D01*
X229201Y150591D01*
X229201Y150592D01*
X229238Y150763D01*
X229274Y150930D01*
X229274Y150931D01*
X229274Y150933D01*
X229271Y151108D01*
X229268Y151278D01*
X229267Y151280D01*
X229267Y151281D01*
X229225Y151450D01*
X229183Y151616D01*
X229182Y151618D01*
X229182Y151619D01*
X229077Y151840D01*
X229026Y151927D01*
X228853Y152573D01*
X228853Y154560D01*
X241427Y154560D01*
X241453Y154563D01*
X241479Y154561D01*
X241546Y154571D01*
X241681Y154560D01*
X254255Y154560D01*
X254255Y152573D01*
X254082Y151927D01*
X254031Y151840D01*
X254031Y151839D01*
X254030Y151838D01*
X253962Y151681D01*
X253893Y151520D01*
X253892Y151519D01*
X253892Y151518D01*
X253861Y151347D01*
X253830Y151177D01*
X253830Y151176D01*
X253830Y151175D01*
X253839Y151001D01*
X253848Y150829D01*
X253848Y150828D01*
X253848Y150826D01*
X253899Y150649D01*
X253943Y150494D01*
X253944Y150493D01*
X253945Y150492D01*
X254033Y150333D01*
X254113Y150190D01*
X254114Y150189D01*
X254115Y150187D01*
X254273Y150001D01*
X255779Y148496D01*
X255779Y138524D01*
X255492Y138237D01*
X255475Y138217D01*
X255455Y138200D01*
X255367Y138080D01*
X255275Y137964D01*
X255264Y137940D01*
X255248Y137919D01*
X255189Y137783D01*
X255126Y137649D01*
X255120Y137623D01*
X255110Y137599D01*
X255084Y137453D01*
X255053Y137308D01*
X255053Y137282D01*
X255048Y137256D01*
X255056Y137108D01*
X255059Y136960D01*
X255065Y136934D01*
X255066Y136908D01*
X255107Y136766D01*
X255144Y136622D01*
X255156Y136599D01*
X255163Y136573D01*
X255235Y136444D01*
X255303Y136312D01*
X255320Y136292D01*
X255333Y136269D01*
X255492Y136083D01*
X255779Y135796D01*
X255779Y125824D01*
X254273Y124319D01*
X254272Y124318D01*
X254271Y124317D01*
X254158Y124174D01*
X254057Y124046D01*
X254056Y124045D01*
X254055Y124043D01*
X253981Y123885D01*
X253908Y123731D01*
X253907Y123729D01*
X253907Y123728D01*
X253870Y123557D01*
X253834Y123390D01*
X253834Y123389D01*
X253834Y123387D01*
X253837Y123208D01*
X253840Y123042D01*
X253841Y123040D01*
X253841Y123039D01*
X253886Y122859D01*
X253925Y122704D01*
X253926Y122702D01*
X253926Y122701D01*
X254031Y122480D01*
X254082Y122393D01*
X254255Y121747D01*
X254255Y119760D01*
X241681Y119760D01*
X241655Y119757D01*
X241629Y119759D01*
X241562Y119749D01*
X241427Y119760D01*
G37*
%LPD*%
%LPC*%
G36*
X241427Y157860D02*
X241427Y157860D01*
X228853Y157860D01*
X228853Y159847D01*
X229026Y160493D01*
X229077Y160580D01*
X229077Y160581D01*
X229078Y160582D01*
X229146Y160739D01*
X229215Y160900D01*
X229216Y160901D01*
X229216Y160902D01*
X229247Y161073D01*
X229278Y161243D01*
X229278Y161244D01*
X229278Y161245D01*
X229269Y161419D01*
X229260Y161591D01*
X229260Y161592D01*
X229260Y161594D01*
X229211Y161762D01*
X229165Y161926D01*
X229164Y161927D01*
X229163Y161928D01*
X229076Y162084D01*
X228995Y162230D01*
X228994Y162231D01*
X228993Y162233D01*
X228835Y162419D01*
X227329Y163924D01*
X227329Y173896D01*
X227616Y174183D01*
X227633Y174203D01*
X227653Y174220D01*
X227741Y174340D01*
X227833Y174456D01*
X227844Y174480D01*
X227860Y174501D01*
X227919Y174637D01*
X227982Y174771D01*
X227988Y174797D01*
X227998Y174821D01*
X228024Y174967D01*
X228055Y175112D01*
X228055Y175138D01*
X228060Y175164D01*
X228052Y175312D01*
X228049Y175460D01*
X228043Y175486D01*
X228042Y175512D01*
X228001Y175654D01*
X227964Y175798D01*
X227952Y175822D01*
X227945Y175847D01*
X227873Y175976D01*
X227805Y176108D01*
X227788Y176128D01*
X227775Y176151D01*
X227616Y176337D01*
X227329Y176624D01*
X227329Y186596D01*
X229710Y188977D01*
X253398Y188977D01*
X255779Y186596D01*
X255779Y176624D01*
X255492Y176337D01*
X255475Y176317D01*
X255455Y176300D01*
X255367Y176180D01*
X255275Y176064D01*
X255264Y176040D01*
X255248Y176019D01*
X255189Y175883D01*
X255126Y175749D01*
X255120Y175723D01*
X255110Y175699D01*
X255084Y175553D01*
X255053Y175408D01*
X255053Y175382D01*
X255048Y175356D01*
X255056Y175208D01*
X255059Y175060D01*
X255065Y175034D01*
X255066Y175008D01*
X255107Y174866D01*
X255144Y174722D01*
X255156Y174699D01*
X255163Y174673D01*
X255235Y174544D01*
X255303Y174412D01*
X255320Y174392D01*
X255333Y174369D01*
X255492Y174183D01*
X255779Y173896D01*
X255779Y163924D01*
X254273Y162419D01*
X254272Y162418D01*
X254271Y162417D01*
X254160Y162277D01*
X254057Y162146D01*
X254056Y162145D01*
X254055Y162143D01*
X253980Y161983D01*
X253908Y161831D01*
X253907Y161829D01*
X253907Y161828D01*
X253867Y161644D01*
X253834Y161490D01*
X253834Y161489D01*
X253834Y161487D01*
X253837Y161306D01*
X253840Y161142D01*
X253841Y161140D01*
X253841Y161139D01*
X253886Y160959D01*
X253925Y160804D01*
X253926Y160802D01*
X253926Y160801D01*
X254031Y160580D01*
X254082Y160493D01*
X254255Y159847D01*
X254255Y157860D01*
X241681Y157860D01*
X241655Y157857D01*
X241629Y157859D01*
X241562Y157849D01*
X241427Y157860D01*
G37*
%LPD*%
%LPC*%
G36*
X22403Y213535D02*
X22403Y213535D01*
X16866Y215829D01*
X12629Y220066D01*
X10335Y225603D01*
X10335Y231597D01*
X12629Y237134D01*
X16866Y241371D01*
X22403Y243665D01*
X28397Y243665D01*
X33934Y241371D01*
X38171Y237134D01*
X40465Y231597D01*
X40465Y225603D01*
X38171Y220066D01*
X33934Y215829D01*
X28397Y213535D01*
X22403Y213535D01*
G37*
%LPD*%
%LPC*%
G36*
X225603Y10335D02*
X225603Y10335D01*
X220066Y12629D01*
X215829Y16866D01*
X213535Y22403D01*
X213535Y28397D01*
X215829Y33934D01*
X220066Y38171D01*
X225603Y40465D01*
X231597Y40465D01*
X237134Y38171D01*
X241371Y33934D01*
X243665Y28397D01*
X243665Y22403D01*
X241371Y16866D01*
X237134Y12629D01*
X231597Y10335D01*
X225603Y10335D01*
G37*
%LPD*%
%LPC*%
G36*
X22403Y10335D02*
X22403Y10335D01*
X16866Y12629D01*
X12629Y16866D01*
X10335Y22403D01*
X10335Y28397D01*
X12629Y33934D01*
X16866Y38171D01*
X22403Y40465D01*
X28397Y40465D01*
X33934Y38171D01*
X38171Y33934D01*
X40465Y28397D01*
X40465Y22403D01*
X38171Y16866D01*
X33934Y12629D01*
X28397Y10335D01*
X22403Y10335D01*
G37*
%LPD*%
%LPC*%
G36*
X50933Y62741D02*
X50933Y62741D01*
X50922Y62740D01*
X50912Y62742D01*
X50667Y62741D01*
X50278Y62707D01*
X50037Y62783D01*
X49994Y62791D01*
X49953Y62807D01*
X49711Y62848D01*
X49333Y62881D01*
X49289Y62879D01*
X49246Y62886D01*
X49001Y62873D01*
X48750Y62840D01*
X48373Y62941D01*
X48363Y62943D01*
X48353Y62947D01*
X48112Y62988D01*
X47723Y63022D01*
X47498Y63138D01*
X47457Y63154D01*
X47419Y63177D01*
X47189Y63259D01*
X46822Y63357D01*
X46778Y63364D01*
X46737Y63377D01*
X46494Y63408D01*
X46241Y63419D01*
X45887Y63584D01*
X45877Y63587D01*
X45868Y63592D01*
X45638Y63674D01*
X45261Y63775D01*
X45060Y63930D01*
X45022Y63952D01*
X44989Y63981D01*
X44776Y64102D01*
X44431Y64262D01*
X44390Y64276D01*
X44351Y64297D01*
X44117Y64369D01*
X43870Y64424D01*
X43550Y64648D01*
X43541Y64653D01*
X43533Y64660D01*
X43320Y64780D01*
X42967Y64945D01*
X42795Y65132D01*
X42762Y65161D01*
X42735Y65195D01*
X42546Y65351D01*
X42235Y65569D01*
X42196Y65590D01*
X42162Y65617D01*
X41944Y65728D01*
X41710Y65825D01*
X41434Y66101D01*
X41426Y66108D01*
X41419Y66116D01*
X41230Y66272D01*
X40911Y66496D01*
X40775Y66709D01*
X40747Y66744D01*
X40726Y66782D01*
X40567Y66968D01*
X40298Y67237D01*
X40264Y67264D01*
X40235Y67297D01*
X40040Y67445D01*
X39826Y67581D01*
X39602Y67900D01*
X39595Y67908D01*
X39590Y67918D01*
X39431Y68104D01*
X39155Y68380D01*
X39058Y68614D01*
X39037Y68652D01*
X39023Y68694D01*
X38993Y68745D01*
X38986Y68762D01*
X38965Y68792D01*
X38899Y68905D01*
X38681Y69216D01*
X38652Y69249D01*
X38629Y69286D01*
X38462Y69465D01*
X38275Y69637D01*
X38110Y69990D01*
X38105Y69999D01*
X38101Y70009D01*
X37978Y70220D01*
X37754Y70540D01*
X37699Y70787D01*
X37685Y70829D01*
X37678Y70872D01*
X37592Y71102D01*
X37432Y71446D01*
X37409Y71483D01*
X37392Y71524D01*
X37260Y71729D01*
X37105Y71931D01*
X37004Y72308D01*
X37000Y72317D01*
X36999Y72328D01*
X36914Y72557D01*
X36749Y72911D01*
X36738Y73164D01*
X36731Y73207D01*
X36731Y73251D01*
X36687Y73492D01*
X36589Y73859D01*
X36573Y73900D01*
X36564Y73943D01*
X36468Y74168D01*
X36352Y74393D01*
X36318Y74782D01*
X36315Y74792D01*
X36316Y74802D01*
X36271Y75043D01*
X36170Y75420D01*
X36203Y75671D01*
X36204Y75715D01*
X36212Y75758D01*
X36211Y76003D01*
X36178Y76381D01*
X36169Y76424D01*
X36167Y76468D01*
X36113Y76707D01*
X36037Y76948D01*
X36071Y77337D01*
X36070Y77348D01*
X36072Y77358D01*
X36071Y77603D01*
X36037Y77992D01*
X36113Y78233D01*
X36121Y78276D01*
X36137Y78317D01*
X36148Y78386D01*
X36156Y78409D01*
X36159Y78447D01*
X36178Y78559D01*
X36211Y78937D01*
X36209Y78981D01*
X36216Y79024D01*
X36203Y79269D01*
X36170Y79520D01*
X36271Y79897D01*
X36273Y79907D01*
X36277Y79917D01*
X36318Y80158D01*
X36352Y80547D01*
X36468Y80772D01*
X36484Y80813D01*
X36507Y80851D01*
X36589Y81081D01*
X36687Y81448D01*
X36694Y81492D01*
X36707Y81533D01*
X36738Y81776D01*
X36749Y82029D01*
X36914Y82383D01*
X36917Y82393D01*
X36922Y82402D01*
X37004Y82632D01*
X37105Y83009D01*
X37260Y83210D01*
X37282Y83248D01*
X37311Y83281D01*
X37432Y83494D01*
X37592Y83839D01*
X37606Y83880D01*
X37627Y83919D01*
X37699Y84153D01*
X37754Y84400D01*
X37978Y84720D01*
X37983Y84729D01*
X37990Y84737D01*
X38110Y84950D01*
X38275Y85303D01*
X38462Y85475D01*
X38491Y85508D01*
X38525Y85536D01*
X38681Y85724D01*
X38899Y86035D01*
X38920Y86074D01*
X38947Y86108D01*
X39058Y86326D01*
X39155Y86560D01*
X39431Y86836D01*
X39438Y86844D01*
X39446Y86851D01*
X39602Y87040D01*
X39826Y87359D01*
X40040Y87495D01*
X40074Y87523D01*
X40112Y87544D01*
X40298Y87703D01*
X40567Y87972D01*
X40594Y88006D01*
X40627Y88035D01*
X40775Y88230D01*
X40911Y88444D01*
X41230Y88668D01*
X41238Y88675D01*
X41248Y88680D01*
X41434Y88839D01*
X41710Y89115D01*
X41944Y89212D01*
X41982Y89233D01*
X42024Y89247D01*
X42235Y89371D01*
X42546Y89589D01*
X42579Y89618D01*
X42616Y89641D01*
X42795Y89808D01*
X42967Y89995D01*
X43320Y90160D01*
X43329Y90165D01*
X43339Y90169D01*
X43550Y90292D01*
X43870Y90516D01*
X44117Y90571D01*
X44159Y90585D01*
X44202Y90592D01*
X44431Y90678D01*
X44776Y90838D01*
X44813Y90861D01*
X44854Y90878D01*
X45060Y91010D01*
X45261Y91165D01*
X45638Y91266D01*
X45647Y91270D01*
X45658Y91271D01*
X45887Y91356D01*
X46241Y91521D01*
X46494Y91532D01*
X46537Y91539D01*
X46581Y91539D01*
X46822Y91583D01*
X47189Y91681D01*
X47230Y91697D01*
X47273Y91706D01*
X47498Y91802D01*
X47723Y91918D01*
X48112Y91952D01*
X48122Y91955D01*
X48132Y91954D01*
X48373Y91999D01*
X48750Y92100D01*
X49001Y92067D01*
X49045Y92066D01*
X49088Y92058D01*
X49333Y92059D01*
X49711Y92092D01*
X49754Y92101D01*
X49798Y92103D01*
X50037Y92157D01*
X50278Y92233D01*
X50667Y92199D01*
X50678Y92200D01*
X50688Y92198D01*
X50933Y92199D01*
X51322Y92233D01*
X51563Y92157D01*
X51606Y92149D01*
X51647Y92133D01*
X51889Y92092D01*
X52267Y92059D01*
X52311Y92061D01*
X52354Y92054D01*
X52599Y92067D01*
X52850Y92100D01*
X53227Y91999D01*
X53237Y91997D01*
X53247Y91993D01*
X53488Y91952D01*
X53877Y91918D01*
X54102Y91802D01*
X54143Y91786D01*
X54181Y91763D01*
X54411Y91681D01*
X54778Y91583D01*
X54822Y91576D01*
X54863Y91563D01*
X55106Y91532D01*
X55359Y91521D01*
X55713Y91356D01*
X55723Y91353D01*
X55732Y91348D01*
X55962Y91266D01*
X56339Y91165D01*
X56540Y91010D01*
X56578Y90988D01*
X56611Y90959D01*
X56824Y90838D01*
X57169Y90678D01*
X57210Y90664D01*
X57249Y90643D01*
X57483Y90571D01*
X57730Y90516D01*
X58050Y90292D01*
X58059Y90287D01*
X58067Y90280D01*
X58280Y90160D01*
X58633Y89995D01*
X58805Y89808D01*
X58838Y89779D01*
X58866Y89745D01*
X59054Y89589D01*
X59365Y89371D01*
X59404Y89350D01*
X59438Y89323D01*
X59656Y89212D01*
X59890Y89115D01*
X60166Y88839D01*
X60174Y88832D01*
X60181Y88824D01*
X60370Y88668D01*
X60689Y88444D01*
X60825Y88230D01*
X60853Y88196D01*
X60874Y88158D01*
X61033Y87972D01*
X61302Y87703D01*
X61336Y87676D01*
X61365Y87643D01*
X61560Y87495D01*
X61774Y87359D01*
X61998Y87040D01*
X62005Y87032D01*
X62010Y87022D01*
X62169Y86836D01*
X62445Y86560D01*
X62542Y86326D01*
X62563Y86288D01*
X62577Y86246D01*
X62701Y86035D01*
X62919Y85724D01*
X62948Y85691D01*
X62971Y85654D01*
X63138Y85475D01*
X63325Y85303D01*
X63490Y84950D01*
X63495Y84941D01*
X63499Y84931D01*
X63622Y84720D01*
X63846Y84400D01*
X63901Y84153D01*
X63915Y84111D01*
X63922Y84068D01*
X64008Y83839D01*
X64168Y83494D01*
X64191Y83457D01*
X64208Y83416D01*
X64340Y83210D01*
X64495Y83009D01*
X64530Y82877D01*
X64596Y82632D01*
X64600Y82623D01*
X64601Y82612D01*
X64686Y82383D01*
X64851Y82029D01*
X64862Y81776D01*
X64869Y81733D01*
X64869Y81689D01*
X64913Y81448D01*
X65011Y81081D01*
X65027Y81040D01*
X65036Y80997D01*
X65132Y80772D01*
X65248Y80547D01*
X65282Y80158D01*
X65285Y80148D01*
X65284Y80138D01*
X65329Y79897D01*
X65430Y79520D01*
X65397Y79269D01*
X65396Y79225D01*
X65388Y79182D01*
X65389Y78937D01*
X65422Y78559D01*
X65431Y78516D01*
X65433Y78472D01*
X65464Y78334D01*
X65468Y78307D01*
X65473Y78295D01*
X65487Y78233D01*
X65563Y77992D01*
X65529Y77603D01*
X65530Y77592D01*
X65528Y77582D01*
X65529Y77337D01*
X65563Y76948D01*
X65487Y76707D01*
X65479Y76664D01*
X65463Y76623D01*
X65422Y76381D01*
X65389Y76003D01*
X65391Y75959D01*
X65384Y75916D01*
X65397Y75671D01*
X65430Y75420D01*
X65329Y75043D01*
X65327Y75033D01*
X65323Y75023D01*
X65282Y74782D01*
X65248Y74393D01*
X65132Y74168D01*
X65116Y74127D01*
X65093Y74089D01*
X65011Y73859D01*
X64913Y73492D01*
X64906Y73448D01*
X64893Y73407D01*
X64862Y73164D01*
X64851Y72911D01*
X64686Y72557D01*
X64683Y72547D01*
X64678Y72538D01*
X64596Y72308D01*
X64495Y71931D01*
X64340Y71730D01*
X64318Y71692D01*
X64289Y71659D01*
X64168Y71446D01*
X64008Y71101D01*
X63994Y71060D01*
X63973Y71021D01*
X63901Y70787D01*
X63846Y70540D01*
X63622Y70220D01*
X63617Y70211D01*
X63610Y70203D01*
X63490Y69990D01*
X63325Y69637D01*
X63138Y69465D01*
X63109Y69432D01*
X63075Y69405D01*
X62919Y69216D01*
X62701Y68905D01*
X62680Y68866D01*
X62653Y68832D01*
X62579Y68687D01*
X62568Y68668D01*
X62565Y68660D01*
X62542Y68614D01*
X62445Y68380D01*
X62169Y68104D01*
X62162Y68095D01*
X62154Y68089D01*
X61998Y67900D01*
X61774Y67581D01*
X61560Y67445D01*
X61526Y67417D01*
X61488Y67396D01*
X61302Y67237D01*
X61033Y66968D01*
X61006Y66934D01*
X60973Y66905D01*
X60825Y66710D01*
X60689Y66496D01*
X60370Y66272D01*
X60362Y66265D01*
X60352Y66260D01*
X60255Y66177D01*
X60247Y66172D01*
X60237Y66162D01*
X60166Y66101D01*
X59890Y65825D01*
X59656Y65728D01*
X59618Y65707D01*
X59576Y65693D01*
X59365Y65569D01*
X59054Y65351D01*
X59021Y65322D01*
X58984Y65299D01*
X58805Y65132D01*
X58633Y64945D01*
X58280Y64780D01*
X58271Y64775D01*
X58261Y64771D01*
X58050Y64648D01*
X57730Y64424D01*
X57483Y64369D01*
X57441Y64355D01*
X57398Y64348D01*
X57169Y64262D01*
X56824Y64102D01*
X56787Y64079D01*
X56746Y64062D01*
X56540Y63930D01*
X56339Y63775D01*
X55962Y63674D01*
X55952Y63670D01*
X55942Y63669D01*
X55713Y63584D01*
X55359Y63419D01*
X55106Y63408D01*
X55063Y63401D01*
X55019Y63401D01*
X54778Y63357D01*
X54411Y63259D01*
X54370Y63243D01*
X54327Y63234D01*
X54102Y63138D01*
X53877Y63022D01*
X53488Y62988D01*
X53478Y62985D01*
X53468Y62986D01*
X53227Y62941D01*
X52850Y62840D01*
X52599Y62873D01*
X52555Y62874D01*
X52512Y62882D01*
X52267Y62881D01*
X51889Y62848D01*
X51846Y62839D01*
X51802Y62837D01*
X51563Y62783D01*
X51322Y62707D01*
X50933Y62741D01*
G37*
%LPD*%
%LPC*%
G36*
X130446Y33165D02*
X130446Y33165D01*
X128065Y35546D01*
X128065Y44414D01*
X130446Y46795D01*
X145814Y46795D01*
X148195Y44414D01*
X148195Y35546D01*
X145814Y33165D01*
X130446Y33165D01*
G37*
%LPD*%
%LPC*%
G36*
X67939Y34797D02*
X67939Y34797D01*
X67939Y39585D01*
X68112Y40231D01*
X68447Y40810D01*
X68920Y41283D01*
X69499Y41618D01*
X70145Y41791D01*
X77183Y41791D01*
X77183Y34797D01*
X67939Y34797D01*
G37*
%LPD*%
%LPC*%
G36*
X70145Y21709D02*
X70145Y21709D01*
X69499Y21882D01*
X68920Y22217D01*
X68447Y22690D01*
X68112Y23269D01*
X67939Y23915D01*
X67939Y28703D01*
X77183Y28703D01*
X77183Y21709D01*
X70145Y21709D01*
G37*
%LPD*%
%LPC*%
G36*
X25127Y194627D02*
X25127Y194627D01*
X25127Y201121D01*
X31915Y201121D01*
X32561Y200948D01*
X33140Y200613D01*
X33613Y200140D01*
X33948Y199561D01*
X34121Y198915D01*
X34121Y194627D01*
X25127Y194627D01*
G37*
%LPD*%
%LPC*%
G36*
X16127Y62627D02*
X16127Y62627D01*
X16127Y69121D01*
X22915Y69121D01*
X23561Y68948D01*
X24140Y68613D01*
X24613Y68140D01*
X24948Y67561D01*
X25121Y66915D01*
X25121Y62627D01*
X16127Y62627D01*
G37*
%LPD*%
%LPC*%
G36*
X10039Y194627D02*
X10039Y194627D01*
X10039Y198915D01*
X10212Y199561D01*
X10547Y200140D01*
X11020Y200613D01*
X11599Y200948D01*
X12245Y201121D01*
X19033Y201121D01*
X19033Y194627D01*
X10039Y194627D01*
G37*
%LPD*%
%LPC*%
G36*
X25127Y188533D02*
X25127Y188533D01*
X34121Y188533D01*
X34121Y184245D01*
X33948Y183599D01*
X33613Y183020D01*
X33140Y182547D01*
X32561Y182212D01*
X31915Y182039D01*
X25127Y182039D01*
X25127Y188533D01*
G37*
%LPD*%
%LPC*%
G36*
X16127Y56533D02*
X16127Y56533D01*
X25121Y56533D01*
X25121Y52245D01*
X24948Y51599D01*
X24613Y51020D01*
X24140Y50547D01*
X23561Y50212D01*
X22915Y50039D01*
X16127Y50039D01*
X16127Y56533D01*
G37*
%LPD*%
%LPC*%
G36*
X12245Y182039D02*
X12245Y182039D01*
X11599Y182212D01*
X11020Y182547D01*
X10547Y183020D01*
X10212Y183599D01*
X10039Y184245D01*
X10039Y188533D01*
X19033Y188533D01*
X19033Y182039D01*
X12245Y182039D01*
G37*
%LPD*%
%LPC*%
G36*
X181736Y86867D02*
X181736Y86867D01*
X181736Y91060D01*
X192787Y91060D01*
X192787Y89073D01*
X192614Y88427D01*
X192279Y87848D01*
X191806Y87375D01*
X191227Y87040D01*
X190581Y86867D01*
X181736Y86867D01*
G37*
%LPD*%
%LPC*%
G36*
X169591Y86867D02*
X169591Y86867D01*
X168945Y87040D01*
X168366Y87375D01*
X167893Y87848D01*
X167558Y88427D01*
X167385Y89073D01*
X167385Y91060D01*
X178436Y91060D01*
X178436Y86867D01*
X169591Y86867D01*
G37*
%LPD*%
%LPC*%
G36*
X195629Y67519D02*
X195629Y67519D01*
X195629Y74311D01*
X198715Y74311D01*
X199361Y74138D01*
X199940Y73803D01*
X200413Y73330D01*
X200748Y72751D01*
X200921Y72105D01*
X200921Y67519D01*
X195629Y67519D01*
G37*
%LPD*%
%LPC*%
G36*
X22079Y191579D02*
X22079Y191579D01*
X22079Y191581D01*
X22081Y191581D01*
X22081Y191579D01*
X22079Y191579D01*
G37*
%LPD*%
D10*
X-30830Y81296D02*
X-33542Y78584D01*
X-33542Y73161D01*
X-30830Y70449D01*
X-19984Y70449D01*
X-17272Y73161D01*
X-17272Y78584D01*
X-19984Y81296D01*
X-33542Y94956D02*
X-30830Y97667D01*
X-33542Y94956D02*
X-33542Y89532D01*
X-30830Y86821D01*
X-19984Y86821D01*
X-17272Y89532D01*
X-17272Y94956D01*
X-19984Y97667D01*
X-17272Y119564D02*
X-33542Y119564D01*
X-33542Y127699D01*
X-30830Y130411D01*
X-28119Y130411D01*
X-25407Y127699D01*
X-22695Y130411D01*
X-19984Y130411D01*
X-17272Y127699D01*
X-17272Y119564D01*
X-25407Y119564D02*
X-25407Y127699D01*
X-30830Y135936D02*
X-33542Y135936D01*
X-30830Y135936D02*
X-25407Y141359D01*
X-30830Y146782D01*
X-33542Y146782D01*
X-25407Y141359D02*
X-17272Y141359D01*
X-25407Y152307D02*
X-25407Y163154D01*
X-33542Y176814D02*
X-30830Y179525D01*
X-33542Y176814D02*
X-33542Y171390D01*
X-30830Y168679D01*
X-28119Y168679D01*
X-25407Y171390D01*
X-25407Y176814D01*
X-22695Y179525D01*
X-19984Y179525D01*
X-17272Y176814D01*
X-17272Y171390D01*
X-19984Y168679D01*
X-17272Y185050D02*
X-28119Y185050D01*
X-33542Y190474D01*
X-28119Y195897D01*
X-17272Y195897D01*
X-25407Y195897D02*
X-25407Y185050D01*
D11*
X180086Y181610D03*
X241554Y181610D03*
X180086Y168910D03*
X180086Y156210D03*
X241554Y168910D03*
X241554Y156210D03*
X180086Y143510D03*
X241554Y143510D03*
X180086Y130810D03*
X241554Y130810D03*
X180086Y118110D03*
X180086Y105410D03*
X241554Y118110D03*
X241554Y105410D03*
X180086Y92710D03*
X241554Y92710D03*
D12*
X22080Y191580D03*
X13080Y59580D03*
D13*
X153080Y175580D03*
X153080Y115580D03*
D14*
X51080Y182580D03*
X51080Y171580D03*
X47080Y160580D03*
X51080Y149580D03*
X47080Y138580D03*
X51080Y127580D03*
X55080Y116580D03*
X51080Y105580D03*
D15*
X164130Y20980D03*
X164130Y30480D03*
X164130Y39980D03*
X138130Y39980D03*
X138130Y20980D03*
D16*
X107730Y31750D03*
X80230Y31750D03*
D17*
X172880Y64770D03*
X192880Y64770D03*
D18*
X304800Y36830D03*
X304800Y62230D03*
X304800Y87630D03*
X304800Y113030D03*
X304800Y138430D03*
X304800Y163830D03*
X304800Y189230D03*
X304800Y214630D03*
D19*
X86700Y210820D03*
X65700Y210820D03*
D17*
X128110Y210820D03*
X108110Y210820D03*
D20*
X50800Y77470D03*
X265430Y234950D03*
D21*
X204470Y181610D02*
X180086Y181610D01*
X47080Y138580D02*
X47230Y137160D01*
X91440Y137160D01*
X123190Y20320D02*
X123500Y20320D01*
X137470Y20320D02*
X138130Y20980D01*
X137470Y20320D02*
X123190Y20320D01*
X111760Y31750D02*
X107730Y31750D01*
X111760Y20320D02*
X123190Y20320D01*
X111760Y20320D02*
X111760Y31750D01*
D22*
X204470Y181610D03*
X91440Y137160D03*
X123190Y20320D03*
D21*
X65700Y210820D02*
X48260Y210820D01*
X241554Y105410D02*
X260350Y105410D01*
X260350Y78740D01*
D22*
X260350Y78740D03*
X48260Y210820D03*
D21*
X51080Y149580D02*
X125450Y149580D01*
X133350Y157480D01*
X180086Y168910D02*
X181610Y168910D01*
X179832Y169164D02*
X173112Y169164D01*
X161428Y157480D01*
X133350Y157480D01*
X179832Y169164D02*
X180086Y168910D01*
X71120Y116580D02*
X55080Y116580D01*
X71120Y116580D02*
X130550Y116580D01*
X147320Y133350D01*
X180086Y118110D02*
X181610Y118110D01*
X172720Y118110D01*
X181610Y118110D02*
X182880Y119380D01*
X172720Y118110D02*
X165100Y125730D01*
X165100Y129540D01*
X161290Y133350D01*
X147320Y133350D01*
X128110Y196690D02*
X128110Y210820D01*
X128110Y196690D02*
X123190Y191770D01*
X80010Y191770D01*
X72390Y184150D01*
X71120Y116580D02*
X71120Y115570D01*
X72390Y114300D02*
X72390Y101600D01*
X72390Y114300D02*
X71120Y115570D01*
D22*
X72390Y184150D03*
X72390Y101600D03*
D21*
X285750Y36830D02*
X304800Y36830D01*
X285750Y36830D02*
X270510Y52070D01*
X172720Y64770D02*
X171450Y63500D01*
X172720Y64770D02*
X172880Y64770D01*
X172720Y52070D02*
X171450Y52070D01*
X172720Y52070D02*
X270510Y52070D01*
X171450Y52070D02*
X171450Y63500D01*
X164130Y39980D02*
X181610Y39980D01*
X181610Y21590D01*
X165100Y21590D02*
X165100Y20980D01*
X164130Y20980D01*
X165100Y21590D02*
X181610Y21590D01*
X172720Y52070D02*
X172880Y64770D01*
X164130Y39980D02*
X163830Y39980D01*
X172720Y52070D01*
X304800Y214630D02*
X308610Y214630D01*
X264415Y205740D02*
X178160Y205740D01*
X264415Y205740D02*
X264838Y205745D01*
X265261Y205760D01*
X265683Y205785D01*
X266105Y205820D01*
X266526Y205866D01*
X266945Y205921D01*
X267363Y205986D01*
X267780Y206061D01*
X268194Y206146D01*
X268607Y206241D01*
X269017Y206346D01*
X269424Y206460D01*
X269829Y206584D01*
X270230Y206718D01*
X270629Y206861D01*
X271023Y207014D01*
X271414Y207176D01*
X271801Y207347D01*
X272184Y207527D01*
X272562Y207717D01*
X272936Y207915D01*
X273305Y208122D01*
X273669Y208338D01*
X274028Y208563D01*
X274381Y208796D01*
X274729Y209037D01*
X275070Y209287D01*
X275406Y209544D01*
X275736Y209810D01*
X276059Y210083D01*
X276375Y210364D01*
X276685Y210652D01*
X276988Y210948D01*
X280670Y214630D01*
X304800Y214630D01*
X178160Y200660D02*
X153080Y175580D01*
X178160Y200660D02*
X178160Y205740D01*
X106810Y171580D02*
X51080Y171580D01*
X106810Y171580D02*
X110490Y176530D01*
D22*
X110490Y176530D03*
D21*
X200660Y130810D02*
X215900Y115570D01*
X180086Y131623D02*
X180035Y131674D01*
X180086Y131623D02*
X180086Y130810D01*
X180899Y130810D02*
X200660Y130810D01*
X180899Y130810D02*
X180086Y131623D01*
D22*
X215900Y115570D03*
D21*
X194310Y156210D02*
X180086Y156210D01*
X194310Y156210D02*
X217170Y179070D01*
X217170Y198120D01*
X271780Y198120D01*
X281940Y187960D01*
X281940Y113030D01*
X304800Y113030D02*
X307340Y113030D01*
X304800Y113030D02*
X281940Y113030D01*
X241554Y92710D02*
X241554Y77063D01*
X251155Y67462D01*
X268122Y67462D01*
X273812Y73152D01*
X281279Y113030D02*
X281127Y113182D01*
X281279Y113030D02*
X281940Y113030D01*
X273812Y105867D02*
X273812Y73152D01*
X273812Y105867D02*
X281127Y113182D01*
X204470Y105410D02*
X180086Y105410D01*
D22*
X204470Y105410D03*
D21*
X108110Y211930D02*
X107950Y212090D01*
X108110Y211930D02*
X108110Y210820D01*
X106680Y210820D02*
X86700Y210820D01*
X106680Y210820D02*
X107950Y212090D01*
X128850Y127580D02*
X51080Y127580D01*
X128850Y127580D02*
X144780Y143510D01*
X180086Y143510D01*
M02*
