M48
;GenerationSoftware,Autodesk,EAGLE,9.1.3*%
;CreationDate,2018-09-14T10:43:07Z*%
FMAT,2
ICI,OFF
METRIC,TZ,000.000
T3C0.483
T2C1.016
T1C2.200
%
G90
M71
T1
X2540Y22860
X2540Y2540
X22860Y22860
X22860Y2540
T2
X30480Y21463
X30480Y3683
X30480Y6223
X30480Y8763
X30480Y11303
X30480Y13843
X30480Y16383
X30480Y18923
T3
X12750Y19500
X3500Y17000
X27250Y17500
X27250Y13500
X19000Y12750
X3500Y13250
X19250Y11250
X28250Y14250
X4250Y12250
X15250Y13250
X12500Y2000
X7000Y5500
X17250Y19000
X6500Y16750
X25750Y16250
X5500Y15750
X15250Y15750
X17500Y4500
X3500Y11250
X15250Y11250
X11000Y11250
X25000Y9500
M30