M48
;GenerationSoftware,Autodesk,EAGLE,9.1.0*%
;CreationDate,2018-08-21T06:48:51Z*%
FMAT,2
ICI,OFF
METRIC,TZ,000.000
T3C0.500
T2C1.016
T1C2.200
%
G90
M71
T1
X2540Y22860
X2540Y2540
X22860Y22860
X22860Y2540
T2
X30480Y3683
X30480Y6223
X30480Y8763
X30480Y11303
X30480Y13843
X30480Y16383
X30480Y18923
X30480Y21463
T3
X20447Y18161
X9144Y13716
X12319Y2032
X26035Y7874
X4826Y21082
X7239Y18415
X7239Y10160
X11049Y17653
X21590Y11557
X20447Y10541
M30