M48
;GenerationSoftware,Autodesk,EAGLE,9.2.1*%
;CreationDate,2018-10-30T11:30:35Z*%
FMAT,2
ICI,OFF
METRIC,TZ,000.000
T3C0.483
T2C1.016
T1C2.200
%
G90
M71
T1
X2540Y22860
X2540Y2540
X22860Y22860
X22860Y2540
T2
X30226Y21336
X30226Y3556
X30226Y6096
X30226Y8636
X30226Y11176
X30226Y13716
X30226Y16256
X30226Y18796
T3
X13000Y19500
X3500Y16750
X26750Y16750
X27750Y13000
X20750Y15500
X23500Y7750
X3500Y13250
X21500Y13250
X28000Y14250
X1000Y8750
X9500Y9500
X9500Y13000
X15250Y13000
X12500Y2000
X7250Y2250
X17250Y19000
X6500Y14500
X21500Y10250
X3500Y14500
X15250Y15750
X17500Y5500
X3500Y11000
X15250Y10750
X10750Y11000
X19000Y14250
M30