G04 EAGLE Gerber RS-274X export*
G75*
%MOMM*%
%FSLAX34Y34*%
%LPD*%
%IN*%
%IPPOS*%
%AMOC8*
5,1,8,0,0,1.08239X$1,22.5*%
G01*
%ADD10C,0.254000*%


D10*
X0Y19050D02*
X73Y17390D01*
X289Y15742D01*
X649Y14120D01*
X1149Y12535D01*
X1785Y10999D01*
X2552Y9525D01*
X3445Y8123D01*
X4457Y6805D01*
X5580Y5580D01*
X6805Y4457D01*
X8123Y3445D01*
X9525Y2552D01*
X10999Y1785D01*
X12535Y1149D01*
X14120Y649D01*
X15742Y289D01*
X17390Y73D01*
X19050Y0D01*
X298450Y0D01*
X300110Y73D01*
X301758Y289D01*
X303381Y649D01*
X304965Y1149D01*
X306501Y1785D01*
X307975Y2552D01*
X309377Y3445D01*
X310695Y4457D01*
X311920Y5580D01*
X313043Y6805D01*
X314055Y8123D01*
X314948Y9525D01*
X315715Y10999D01*
X316351Y12535D01*
X316851Y14120D01*
X317211Y15742D01*
X317428Y17390D01*
X317500Y19050D01*
X317500Y234950D01*
X317428Y236610D01*
X317211Y238258D01*
X316851Y239881D01*
X316351Y241465D01*
X315715Y243001D01*
X314948Y244475D01*
X314055Y245877D01*
X313043Y247195D01*
X311920Y248420D01*
X310695Y249543D01*
X309377Y250555D01*
X307975Y251448D01*
X306501Y252215D01*
X304965Y252851D01*
X303381Y253351D01*
X301758Y253711D01*
X300110Y253928D01*
X298450Y254000D01*
X19050Y254000D01*
X17390Y253928D01*
X15742Y253711D01*
X14120Y253351D01*
X12535Y252851D01*
X10999Y252215D01*
X9525Y251448D01*
X8123Y250555D01*
X6805Y249543D01*
X5580Y248420D01*
X4457Y247195D01*
X3445Y245877D01*
X2552Y244475D01*
X1785Y243001D01*
X1149Y241465D01*
X649Y239881D01*
X289Y238258D01*
X73Y236610D01*
X0Y234950D01*
X0Y19050D01*
X36400Y228168D02*
X36332Y227306D01*
X36197Y226452D01*
X35995Y225612D01*
X35728Y224790D01*
X35397Y223991D01*
X35005Y223221D01*
X34553Y222484D01*
X34045Y221785D01*
X33484Y221127D01*
X32873Y220516D01*
X32215Y219955D01*
X31516Y219447D01*
X30779Y218995D01*
X30009Y218603D01*
X29210Y218272D01*
X28388Y218005D01*
X27548Y217803D01*
X26694Y217668D01*
X25832Y217600D01*
X24968Y217600D01*
X24106Y217668D01*
X23252Y217803D01*
X22412Y218005D01*
X21590Y218272D01*
X20791Y218603D01*
X20021Y218995D01*
X19284Y219447D01*
X18585Y219955D01*
X17927Y220516D01*
X17316Y221127D01*
X16755Y221785D01*
X16247Y222484D01*
X15795Y223221D01*
X15403Y223991D01*
X15072Y224790D01*
X14805Y225612D01*
X14603Y226452D01*
X14468Y227306D01*
X14400Y228168D01*
X14400Y229032D01*
X14468Y229894D01*
X14603Y230748D01*
X14805Y231588D01*
X15072Y232410D01*
X15403Y233209D01*
X15795Y233979D01*
X16247Y234716D01*
X16755Y235415D01*
X17316Y236073D01*
X17927Y236684D01*
X18585Y237245D01*
X19284Y237753D01*
X20021Y238205D01*
X20791Y238597D01*
X21590Y238928D01*
X22412Y239195D01*
X23252Y239397D01*
X24106Y239532D01*
X24968Y239600D01*
X25832Y239600D01*
X26694Y239532D01*
X27548Y239397D01*
X28388Y239195D01*
X29210Y238928D01*
X30009Y238597D01*
X30779Y238205D01*
X31516Y237753D01*
X32215Y237245D01*
X32873Y236684D01*
X33484Y236073D01*
X34045Y235415D01*
X34553Y234716D01*
X35005Y233979D01*
X35397Y233209D01*
X35728Y232410D01*
X35995Y231588D01*
X36197Y230748D01*
X36332Y229894D01*
X36400Y229032D01*
X36400Y228168D01*
X36400Y24968D02*
X36332Y24106D01*
X36197Y23252D01*
X35995Y22412D01*
X35728Y21590D01*
X35397Y20791D01*
X35005Y20021D01*
X34553Y19284D01*
X34045Y18585D01*
X33484Y17927D01*
X32873Y17316D01*
X32215Y16755D01*
X31516Y16247D01*
X30779Y15795D01*
X30009Y15403D01*
X29210Y15072D01*
X28388Y14805D01*
X27548Y14603D01*
X26694Y14468D01*
X25832Y14400D01*
X24968Y14400D01*
X24106Y14468D01*
X23252Y14603D01*
X22412Y14805D01*
X21590Y15072D01*
X20791Y15403D01*
X20021Y15795D01*
X19284Y16247D01*
X18585Y16755D01*
X17927Y17316D01*
X17316Y17927D01*
X16755Y18585D01*
X16247Y19284D01*
X15795Y20021D01*
X15403Y20791D01*
X15072Y21590D01*
X14805Y22412D01*
X14603Y23252D01*
X14468Y24106D01*
X14400Y24968D01*
X14400Y25832D01*
X14468Y26694D01*
X14603Y27548D01*
X14805Y28388D01*
X15072Y29210D01*
X15403Y30009D01*
X15795Y30779D01*
X16247Y31516D01*
X16755Y32215D01*
X17316Y32873D01*
X17927Y33484D01*
X18585Y34045D01*
X19284Y34553D01*
X20021Y35005D01*
X20791Y35397D01*
X21590Y35728D01*
X22412Y35995D01*
X23252Y36197D01*
X24106Y36332D01*
X24968Y36400D01*
X25832Y36400D01*
X26694Y36332D01*
X27548Y36197D01*
X28388Y35995D01*
X29210Y35728D01*
X30009Y35397D01*
X30779Y35005D01*
X31516Y34553D01*
X32215Y34045D01*
X32873Y33484D01*
X33484Y32873D01*
X34045Y32215D01*
X34553Y31516D01*
X35005Y30779D01*
X35397Y30009D01*
X35728Y29210D01*
X35995Y28388D01*
X36197Y27548D01*
X36332Y26694D01*
X36400Y25832D01*
X36400Y24968D01*
X239600Y228168D02*
X239532Y227306D01*
X239397Y226452D01*
X239195Y225612D01*
X238928Y224790D01*
X238597Y223991D01*
X238205Y223221D01*
X237753Y222484D01*
X237245Y221785D01*
X236684Y221127D01*
X236073Y220516D01*
X235415Y219955D01*
X234716Y219447D01*
X233979Y218995D01*
X233209Y218603D01*
X232410Y218272D01*
X231588Y218005D01*
X230748Y217803D01*
X229894Y217668D01*
X229032Y217600D01*
X228168Y217600D01*
X227306Y217668D01*
X226452Y217803D01*
X225612Y218005D01*
X224790Y218272D01*
X223991Y218603D01*
X223221Y218995D01*
X222484Y219447D01*
X221785Y219955D01*
X221127Y220516D01*
X220516Y221127D01*
X219955Y221785D01*
X219447Y222484D01*
X218995Y223221D01*
X218603Y223991D01*
X218272Y224790D01*
X218005Y225612D01*
X217803Y226452D01*
X217668Y227306D01*
X217600Y228168D01*
X217600Y229032D01*
X217668Y229894D01*
X217803Y230748D01*
X218005Y231588D01*
X218272Y232410D01*
X218603Y233209D01*
X218995Y233979D01*
X219447Y234716D01*
X219955Y235415D01*
X220516Y236073D01*
X221127Y236684D01*
X221785Y237245D01*
X222484Y237753D01*
X223221Y238205D01*
X223991Y238597D01*
X224790Y238928D01*
X225612Y239195D01*
X226452Y239397D01*
X227306Y239532D01*
X228168Y239600D01*
X229032Y239600D01*
X229894Y239532D01*
X230748Y239397D01*
X231588Y239195D01*
X232410Y238928D01*
X233209Y238597D01*
X233979Y238205D01*
X234716Y237753D01*
X235415Y237245D01*
X236073Y236684D01*
X236684Y236073D01*
X237245Y235415D01*
X237753Y234716D01*
X238205Y233979D01*
X238597Y233209D01*
X238928Y232410D01*
X239195Y231588D01*
X239397Y230748D01*
X239532Y229894D01*
X239600Y229032D01*
X239600Y228168D01*
X239600Y24968D02*
X239532Y24106D01*
X239397Y23252D01*
X239195Y22412D01*
X238928Y21590D01*
X238597Y20791D01*
X238205Y20021D01*
X237753Y19284D01*
X237245Y18585D01*
X236684Y17927D01*
X236073Y17316D01*
X235415Y16755D01*
X234716Y16247D01*
X233979Y15795D01*
X233209Y15403D01*
X232410Y15072D01*
X231588Y14805D01*
X230748Y14603D01*
X229894Y14468D01*
X229032Y14400D01*
X228168Y14400D01*
X227306Y14468D01*
X226452Y14603D01*
X225612Y14805D01*
X224790Y15072D01*
X223991Y15403D01*
X223221Y15795D01*
X222484Y16247D01*
X221785Y16755D01*
X221127Y17316D01*
X220516Y17927D01*
X219955Y18585D01*
X219447Y19284D01*
X218995Y20021D01*
X218603Y20791D01*
X218272Y21590D01*
X218005Y22412D01*
X217803Y23252D01*
X217668Y24106D01*
X217600Y24968D01*
X217600Y25832D01*
X217668Y26694D01*
X217803Y27548D01*
X218005Y28388D01*
X218272Y29210D01*
X218603Y30009D01*
X218995Y30779D01*
X219447Y31516D01*
X219955Y32215D01*
X220516Y32873D01*
X221127Y33484D01*
X221785Y34045D01*
X222484Y34553D01*
X223221Y35005D01*
X223991Y35397D01*
X224790Y35728D01*
X225612Y35995D01*
X226452Y36197D01*
X227306Y36332D01*
X228168Y36400D01*
X229032Y36400D01*
X229894Y36332D01*
X230748Y36197D01*
X231588Y35995D01*
X232410Y35728D01*
X233209Y35397D01*
X233979Y35005D01*
X234716Y34553D01*
X235415Y34045D01*
X236073Y33484D01*
X236684Y32873D01*
X237245Y32215D01*
X237753Y31516D01*
X238205Y30779D01*
X238597Y30009D01*
X238928Y29210D01*
X239195Y28388D01*
X239397Y27548D01*
X239532Y26694D01*
X239600Y25832D01*
X239600Y24968D01*
M02*
