G04 EAGLE Gerber RS-274X export*
G75*
%MOMM*%
%FSLAX34Y34*%
%LPD*%
%INSilkscreen Top*%
%IPPOS*%
%AMOC8*
5,1,8,0,0,1.08239X$1,22.5*%
G01*
%ADD10C,0.254000*%
%ADD11C,0.076200*%
%ADD12C,0.152400*%
%ADD13C,0.050800*%
%ADD14C,0.101600*%
%ADD15C,0.127000*%
%ADD16R,0.300000X0.150000*%
%ADD17R,0.300000X0.300000*%
%ADD18R,0.650000X1.400000*%
%ADD19C,0.200000*%


D10*
X267970Y170180D02*
X267970Y160020D01*
X262890Y165100D01*
X267970Y170180D01*
X262890Y144780D02*
X262890Y134620D01*
X267970Y139700D02*
X262890Y144780D01*
X267970Y139700D02*
X262890Y134620D01*
X266700Y43180D02*
X266700Y33020D01*
X261620Y38100D01*
X266700Y43180D01*
X265430Y184150D02*
X265430Y194310D01*
X260350Y189230D02*
X265430Y184150D01*
X260350Y189230D02*
X265430Y194310D01*
X260350Y118110D02*
X260350Y107950D01*
X255270Y113030D01*
X260350Y118110D01*
D11*
X277501Y192369D02*
X275934Y193937D01*
X272798Y193937D01*
X271231Y192369D01*
X271231Y186099D01*
X272798Y184531D01*
X275934Y184531D01*
X277501Y186099D01*
X285289Y193937D02*
X286857Y192369D01*
X285289Y193937D02*
X282153Y193937D01*
X280586Y192369D01*
X280586Y190802D01*
X282153Y189234D01*
X285289Y189234D01*
X286857Y187666D01*
X286857Y186099D01*
X285289Y184531D01*
X282153Y184531D01*
X280586Y186099D01*
X275619Y169807D02*
X275619Y160401D01*
X280322Y160401D01*
X281890Y161969D01*
X281890Y168239D01*
X280322Y169807D01*
X275619Y169807D01*
X284974Y160401D02*
X288110Y160401D01*
X286542Y160401D02*
X286542Y169807D01*
X284974Y169807D02*
X288110Y169807D01*
X272501Y144407D02*
X272501Y135001D01*
X277204Y135001D01*
X278771Y136569D01*
X278771Y142839D01*
X277204Y144407D01*
X272501Y144407D01*
X283423Y144407D02*
X286559Y144407D01*
X283423Y144407D02*
X281856Y142839D01*
X281856Y136569D01*
X283423Y135001D01*
X286559Y135001D01*
X288127Y136569D01*
X288127Y142839D01*
X286559Y144407D01*
X271528Y64397D02*
X269961Y62829D01*
X271528Y64397D02*
X274664Y64397D01*
X276231Y62829D01*
X276231Y61262D01*
X274664Y59694D01*
X273096Y59694D01*
X274664Y59694D02*
X276231Y58126D01*
X276231Y56559D01*
X274664Y54991D01*
X271528Y54991D01*
X269961Y56559D01*
X279316Y61262D02*
X282451Y54991D01*
X285587Y61262D01*
X276231Y41537D02*
X269961Y41537D01*
X269961Y36834D01*
X273096Y38402D01*
X274664Y38402D01*
X276231Y36834D01*
X276231Y33699D01*
X274664Y32131D01*
X271528Y32131D01*
X269961Y33699D01*
X279316Y38402D02*
X282451Y32131D01*
X285587Y38402D01*
X270686Y116169D02*
X269118Y117737D01*
X265983Y117737D01*
X264415Y116169D01*
X264415Y109899D01*
X265983Y108331D01*
X269118Y108331D01*
X270686Y109899D01*
X273771Y108331D02*
X273771Y117737D01*
X273771Y108331D02*
X280041Y108331D01*
X283126Y108331D02*
X283126Y117737D01*
X283126Y111466D02*
X289397Y117737D01*
X284693Y113034D02*
X289397Y108331D01*
X277501Y216499D02*
X275934Y218067D01*
X272798Y218067D01*
X271231Y216499D01*
X271231Y210229D01*
X272798Y208661D01*
X275934Y208661D01*
X277501Y210229D01*
X280586Y208661D02*
X280586Y218067D01*
X280586Y208661D02*
X285289Y208661D01*
X286857Y210229D01*
X286857Y216499D01*
X285289Y218067D01*
X280586Y218067D01*
X265308Y89797D02*
X266876Y88229D01*
X265308Y89797D02*
X262173Y89797D01*
X260605Y88229D01*
X260605Y81959D01*
X262173Y80391D01*
X265308Y80391D01*
X266876Y81959D01*
X266876Y85094D01*
X263741Y85094D01*
X269961Y80391D02*
X269961Y89797D01*
X276231Y80391D01*
X276231Y89797D01*
X279316Y89797D02*
X279316Y80391D01*
X284019Y80391D01*
X285587Y81959D01*
X285587Y88229D01*
X284019Y89797D01*
X279316Y89797D01*
D12*
X221488Y86360D02*
X221488Y180340D01*
X182372Y86360D02*
X182374Y86238D01*
X182380Y86116D01*
X182390Y85994D01*
X182403Y85873D01*
X182421Y85752D01*
X182442Y85632D01*
X182468Y85512D01*
X182497Y85394D01*
X182529Y85276D01*
X182566Y85159D01*
X182606Y85044D01*
X182650Y84930D01*
X182698Y84818D01*
X182749Y84707D01*
X182804Y84598D01*
X182862Y84490D01*
X182924Y84385D01*
X182989Y84282D01*
X183057Y84180D01*
X183129Y84081D01*
X183203Y83985D01*
X183281Y83890D01*
X183362Y83799D01*
X183445Y83709D01*
X183531Y83623D01*
X183621Y83540D01*
X183712Y83459D01*
X183807Y83381D01*
X183903Y83307D01*
X184002Y83235D01*
X184104Y83167D01*
X184207Y83102D01*
X184312Y83040D01*
X184420Y82982D01*
X184529Y82927D01*
X184640Y82876D01*
X184752Y82828D01*
X184866Y82784D01*
X184981Y82744D01*
X185098Y82707D01*
X185216Y82675D01*
X185334Y82646D01*
X185454Y82620D01*
X185574Y82599D01*
X185695Y82581D01*
X185816Y82568D01*
X185938Y82558D01*
X186060Y82552D01*
X186182Y82550D01*
X221488Y180340D02*
X221486Y180462D01*
X221480Y180584D01*
X221470Y180706D01*
X221457Y180827D01*
X221439Y180948D01*
X221418Y181068D01*
X221392Y181188D01*
X221363Y181306D01*
X221331Y181424D01*
X221294Y181541D01*
X221254Y181656D01*
X221210Y181770D01*
X221162Y181882D01*
X221111Y181993D01*
X221056Y182102D01*
X220998Y182210D01*
X220936Y182315D01*
X220871Y182418D01*
X220803Y182520D01*
X220731Y182619D01*
X220657Y182715D01*
X220579Y182810D01*
X220498Y182901D01*
X220415Y182991D01*
X220329Y183077D01*
X220239Y183160D01*
X220148Y183241D01*
X220053Y183319D01*
X219957Y183393D01*
X219858Y183465D01*
X219756Y183533D01*
X219653Y183598D01*
X219548Y183660D01*
X219440Y183718D01*
X219331Y183773D01*
X219220Y183824D01*
X219108Y183872D01*
X218994Y183916D01*
X218879Y183956D01*
X218762Y183993D01*
X218644Y184025D01*
X218526Y184054D01*
X218406Y184080D01*
X218286Y184101D01*
X218165Y184119D01*
X218044Y184132D01*
X217922Y184142D01*
X217800Y184148D01*
X217678Y184150D01*
X221488Y86360D02*
X221486Y86238D01*
X221480Y86116D01*
X221470Y85994D01*
X221457Y85873D01*
X221439Y85752D01*
X221418Y85632D01*
X221392Y85512D01*
X221363Y85394D01*
X221331Y85276D01*
X221294Y85159D01*
X221254Y85044D01*
X221210Y84930D01*
X221162Y84818D01*
X221111Y84707D01*
X221056Y84598D01*
X220998Y84490D01*
X220936Y84385D01*
X220871Y84282D01*
X220803Y84180D01*
X220731Y84081D01*
X220657Y83985D01*
X220579Y83890D01*
X220498Y83799D01*
X220415Y83709D01*
X220329Y83623D01*
X220239Y83540D01*
X220148Y83459D01*
X220053Y83381D01*
X219957Y83307D01*
X219858Y83235D01*
X219756Y83167D01*
X219653Y83102D01*
X219548Y83040D01*
X219440Y82982D01*
X219331Y82927D01*
X219220Y82876D01*
X219108Y82828D01*
X218994Y82784D01*
X218879Y82744D01*
X218762Y82707D01*
X218644Y82675D01*
X218526Y82646D01*
X218406Y82620D01*
X218286Y82599D01*
X218165Y82581D01*
X218044Y82568D01*
X217922Y82558D01*
X217800Y82552D01*
X217678Y82550D01*
X182372Y180340D02*
X182374Y180462D01*
X182380Y180584D01*
X182390Y180706D01*
X182403Y180827D01*
X182421Y180948D01*
X182442Y181068D01*
X182468Y181188D01*
X182497Y181306D01*
X182529Y181424D01*
X182566Y181541D01*
X182606Y181656D01*
X182650Y181770D01*
X182698Y181882D01*
X182749Y181993D01*
X182804Y182102D01*
X182862Y182210D01*
X182924Y182315D01*
X182989Y182418D01*
X183057Y182520D01*
X183129Y182619D01*
X183203Y182715D01*
X183281Y182810D01*
X183362Y182901D01*
X183445Y182991D01*
X183531Y183077D01*
X183621Y183160D01*
X183712Y183241D01*
X183807Y183319D01*
X183903Y183393D01*
X184002Y183465D01*
X184104Y183533D01*
X184207Y183598D01*
X184312Y183660D01*
X184420Y183718D01*
X184529Y183773D01*
X184640Y183824D01*
X184752Y183872D01*
X184866Y183916D01*
X184981Y183956D01*
X185098Y183993D01*
X185216Y184025D01*
X185334Y184054D01*
X185454Y184080D01*
X185574Y184101D01*
X185695Y184119D01*
X185816Y184132D01*
X185938Y184142D01*
X186060Y184148D01*
X186182Y184150D01*
X182372Y180340D02*
X182372Y86360D01*
X186182Y82550D02*
X217678Y82550D01*
X217678Y184150D02*
X207010Y184150D01*
X196850Y184150D01*
X186182Y184150D01*
X196850Y184150D02*
X196852Y184009D01*
X196858Y183868D01*
X196868Y183727D01*
X196881Y183586D01*
X196899Y183446D01*
X196921Y183307D01*
X196946Y183168D01*
X196975Y183029D01*
X197008Y182892D01*
X197045Y182756D01*
X197086Y182621D01*
X197130Y182486D01*
X197178Y182354D01*
X197230Y182222D01*
X197285Y182092D01*
X197344Y181964D01*
X197407Y181837D01*
X197473Y181713D01*
X197542Y181590D01*
X197615Y181469D01*
X197691Y181350D01*
X197771Y181233D01*
X197854Y181119D01*
X197939Y181006D01*
X198028Y180897D01*
X198120Y180789D01*
X198215Y180685D01*
X198313Y180583D01*
X198414Y180484D01*
X198517Y180387D01*
X198623Y180294D01*
X198731Y180204D01*
X198842Y180116D01*
X198955Y180032D01*
X199071Y179951D01*
X199189Y179873D01*
X199309Y179798D01*
X199431Y179727D01*
X199555Y179659D01*
X199681Y179595D01*
X199808Y179534D01*
X199937Y179477D01*
X200068Y179424D01*
X200200Y179374D01*
X200333Y179327D01*
X200468Y179285D01*
X200604Y179246D01*
X200741Y179211D01*
X200878Y179180D01*
X201017Y179153D01*
X201156Y179129D01*
X201296Y179110D01*
X201436Y179094D01*
X201577Y179082D01*
X201718Y179074D01*
X201859Y179070D01*
X202001Y179070D01*
X202142Y179074D01*
X202283Y179082D01*
X202424Y179094D01*
X202564Y179110D01*
X202704Y179129D01*
X202843Y179153D01*
X202982Y179180D01*
X203119Y179211D01*
X203256Y179246D01*
X203392Y179285D01*
X203527Y179327D01*
X203660Y179374D01*
X203792Y179424D01*
X203923Y179477D01*
X204052Y179534D01*
X204179Y179595D01*
X204305Y179659D01*
X204429Y179727D01*
X204551Y179798D01*
X204671Y179873D01*
X204789Y179951D01*
X204905Y180032D01*
X205018Y180116D01*
X205129Y180204D01*
X205237Y180294D01*
X205343Y180387D01*
X205446Y180484D01*
X205547Y180583D01*
X205645Y180685D01*
X205740Y180789D01*
X205832Y180897D01*
X205921Y181006D01*
X206006Y181119D01*
X206089Y181233D01*
X206169Y181350D01*
X206245Y181469D01*
X206318Y181590D01*
X206387Y181713D01*
X206453Y181837D01*
X206516Y181964D01*
X206575Y182092D01*
X206630Y182222D01*
X206682Y182354D01*
X206730Y182486D01*
X206774Y182621D01*
X206815Y182756D01*
X206852Y182892D01*
X206885Y183029D01*
X206914Y183168D01*
X206939Y183307D01*
X206961Y183446D01*
X206979Y183586D01*
X206992Y183727D01*
X207002Y183868D01*
X207008Y184009D01*
X207010Y184150D01*
D13*
X185928Y184150D02*
X185928Y82550D01*
D14*
X196541Y69088D02*
X199591Y69088D01*
X198066Y69088D02*
X198066Y78240D01*
X196541Y78240D02*
X199591Y78240D01*
X207354Y78240D02*
X208879Y76715D01*
X207354Y78240D02*
X204303Y78240D01*
X202778Y76715D01*
X202778Y70613D01*
X204303Y69088D01*
X207354Y69088D01*
X208879Y70613D01*
X212133Y75189D02*
X215183Y78240D01*
X215183Y69088D01*
X212133Y69088D02*
X218234Y69088D01*
D12*
X145260Y56130D02*
X129060Y56130D01*
X129060Y27690D02*
X145260Y27690D01*
X129060Y36690D02*
X129060Y47130D01*
X145260Y37630D02*
X145260Y36690D01*
X145260Y46190D02*
X145260Y47130D01*
X145260Y28630D02*
X145260Y27690D01*
X145260Y55190D02*
X145260Y56130D01*
X129060Y56130D02*
X129060Y55190D01*
X129060Y28630D02*
X129060Y27690D01*
D11*
X133731Y8001D02*
X136866Y8001D01*
X135299Y8001D02*
X135299Y17407D01*
X136866Y17407D02*
X133731Y17407D01*
X144671Y17407D02*
X146238Y15839D01*
X144671Y17407D02*
X141535Y17407D01*
X139968Y15839D01*
X139968Y9569D01*
X141535Y8001D01*
X144671Y8001D01*
X146238Y9569D01*
X149323Y8001D02*
X155594Y8001D01*
X149323Y8001D02*
X155594Y14272D01*
X155594Y15839D01*
X154026Y17407D01*
X150891Y17407D01*
X149323Y15839D01*
X56987Y34294D02*
X50716Y34294D01*
X53851Y37429D02*
X53851Y31159D01*
X87154Y26457D02*
X88721Y24889D01*
X87154Y26457D02*
X84018Y26457D01*
X82451Y24889D01*
X82451Y18619D01*
X84018Y17051D01*
X87154Y17051D01*
X88721Y18619D01*
X91806Y23322D02*
X94941Y26457D01*
X94941Y17051D01*
X91806Y17051D02*
X98077Y17051D01*
X197014Y38857D02*
X198582Y37289D01*
X197014Y38857D02*
X193879Y38857D01*
X192311Y37289D01*
X192311Y31019D01*
X193879Y29451D01*
X197014Y29451D01*
X198582Y31019D01*
X201666Y29451D02*
X207937Y29451D01*
X201666Y29451D02*
X207937Y35722D01*
X207937Y37289D01*
X206369Y38857D01*
X203234Y38857D01*
X201666Y37289D01*
D15*
X289560Y22860D02*
X289560Y226060D01*
X314960Y226060D01*
X314960Y22860D01*
X289560Y22860D01*
D11*
X55876Y214546D02*
X55876Y220817D01*
X52741Y217681D02*
X59011Y217681D01*
D16*
X77700Y216820D03*
X77700Y204820D03*
D17*
X77700Y210820D03*
D11*
X62611Y198422D02*
X62611Y192151D01*
X62611Y198422D02*
X65746Y201557D01*
X68882Y198422D01*
X68882Y192151D01*
X68882Y196854D02*
X62611Y196854D01*
X76669Y201557D02*
X78237Y199989D01*
X76669Y201557D02*
X73534Y201557D01*
X71966Y199989D01*
X71966Y193719D01*
X73534Y192151D01*
X76669Y192151D01*
X78237Y193719D01*
X84457Y192151D02*
X84457Y201557D01*
X87592Y201557D02*
X81321Y201557D01*
D18*
X110796Y210805D03*
X125528Y210805D03*
D11*
X138811Y207391D02*
X138811Y216797D01*
X143514Y216797D01*
X145082Y215229D01*
X145082Y212094D01*
X143514Y210526D01*
X138811Y210526D01*
X141946Y210526D02*
X145082Y207391D01*
X148166Y213662D02*
X151302Y216797D01*
X151302Y207391D01*
X154437Y207391D02*
X148166Y207391D01*
D15*
X132390Y189290D02*
X132390Y179070D01*
X132390Y189290D02*
X36830Y189290D01*
X132390Y93980D02*
X132390Y69790D01*
X127000Y69790D01*
X132390Y120650D02*
X132390Y153670D01*
D19*
X29880Y99860D02*
X29882Y99923D01*
X29888Y99985D01*
X29898Y100047D01*
X29911Y100109D01*
X29929Y100169D01*
X29950Y100228D01*
X29975Y100286D01*
X30004Y100342D01*
X30036Y100396D01*
X30071Y100448D01*
X30109Y100497D01*
X30151Y100545D01*
X30195Y100589D01*
X30243Y100631D01*
X30292Y100669D01*
X30344Y100704D01*
X30398Y100736D01*
X30454Y100765D01*
X30512Y100790D01*
X30571Y100811D01*
X30631Y100829D01*
X30693Y100842D01*
X30755Y100852D01*
X30817Y100858D01*
X30880Y100860D01*
X30943Y100858D01*
X31005Y100852D01*
X31067Y100842D01*
X31129Y100829D01*
X31189Y100811D01*
X31248Y100790D01*
X31306Y100765D01*
X31362Y100736D01*
X31416Y100704D01*
X31468Y100669D01*
X31517Y100631D01*
X31565Y100589D01*
X31609Y100545D01*
X31651Y100497D01*
X31689Y100448D01*
X31724Y100396D01*
X31756Y100342D01*
X31785Y100286D01*
X31810Y100228D01*
X31831Y100169D01*
X31849Y100109D01*
X31862Y100047D01*
X31872Y99985D01*
X31878Y99923D01*
X31880Y99860D01*
X31878Y99797D01*
X31872Y99735D01*
X31862Y99673D01*
X31849Y99611D01*
X31831Y99551D01*
X31810Y99492D01*
X31785Y99434D01*
X31756Y99378D01*
X31724Y99324D01*
X31689Y99272D01*
X31651Y99223D01*
X31609Y99175D01*
X31565Y99131D01*
X31517Y99089D01*
X31468Y99051D01*
X31416Y99016D01*
X31362Y98984D01*
X31306Y98955D01*
X31248Y98930D01*
X31189Y98909D01*
X31129Y98891D01*
X31067Y98878D01*
X31005Y98868D01*
X30943Y98862D01*
X30880Y98860D01*
X30817Y98862D01*
X30755Y98868D01*
X30693Y98878D01*
X30631Y98891D01*
X30571Y98909D01*
X30512Y98930D01*
X30454Y98955D01*
X30398Y98984D01*
X30344Y99016D01*
X30292Y99051D01*
X30243Y99089D01*
X30195Y99131D01*
X30151Y99175D01*
X30109Y99223D01*
X30071Y99272D01*
X30036Y99324D01*
X30004Y99378D01*
X29975Y99434D01*
X29950Y99492D01*
X29929Y99551D01*
X29911Y99611D01*
X29898Y99673D01*
X29888Y99735D01*
X29882Y99797D01*
X29880Y99860D01*
D14*
X152766Y163929D02*
X154723Y165885D01*
X154723Y167842D01*
X152766Y169798D01*
X142984Y169798D01*
X142984Y167842D02*
X142984Y171755D01*
X146897Y175664D02*
X142984Y179577D01*
X154723Y179577D01*
X154723Y175664D02*
X154723Y183490D01*
M02*
