G04 EAGLE Gerber X2 export*
%TF.Part,Single*%
%TF.FileFunction,Legend,Top,1*%
%TF.FilePolarity,Positive*%
%TF.GenerationSoftware,Autodesk,EAGLE,9.1.0*%
%TF.CreationDate,2018-08-21T06:48:51Z*%
G75*
%MOMM*%
%FSLAX34Y34*%
%LPD*%
%AMOC8*
5,1,8,0,0,1.08239X$1,22.5*%
G01*
%ADD10C,0.254000*%
%ADD11C,0.076200*%
%ADD12C,0.152400*%
%ADD13C,0.050800*%
%ADD14C,0.101600*%
%ADD15C,0.127000*%
%ADD16R,0.300000X0.150000*%
%ADD17R,0.300000X0.300000*%
%ADD18R,0.650000X1.400000*%


D10*
X267970Y170180D02*
X267970Y160020D01*
X262890Y165100D01*
X267970Y170180D01*
X262890Y144780D02*
X262890Y134620D01*
X267970Y139700D02*
X262890Y144780D01*
X267970Y139700D02*
X262890Y134620D01*
X266700Y43180D02*
X266700Y33020D01*
X261620Y38100D01*
X266700Y43180D01*
X265430Y184150D02*
X265430Y194310D01*
X260350Y189230D02*
X265430Y184150D01*
X260350Y189230D02*
X265430Y194310D01*
X260350Y118110D02*
X260350Y107950D01*
X255270Y113030D01*
X260350Y118110D01*
D11*
X277501Y192369D02*
X275934Y193937D01*
X272798Y193937D01*
X271231Y192369D01*
X271231Y186099D01*
X272798Y184531D01*
X275934Y184531D01*
X277501Y186099D01*
X285289Y193937D02*
X286857Y192369D01*
X285289Y193937D02*
X282153Y193937D01*
X280586Y192369D01*
X280586Y190802D01*
X282153Y189234D01*
X285289Y189234D01*
X286857Y187666D01*
X286857Y186099D01*
X285289Y184531D01*
X282153Y184531D01*
X280586Y186099D01*
X275619Y169807D02*
X275619Y160401D01*
X280322Y160401D01*
X281890Y161969D01*
X281890Y168239D01*
X280322Y169807D01*
X275619Y169807D01*
X284974Y160401D02*
X288110Y160401D01*
X286542Y160401D02*
X286542Y169807D01*
X284974Y169807D02*
X288110Y169807D01*
X272501Y144407D02*
X272501Y135001D01*
X277204Y135001D01*
X278771Y136569D01*
X278771Y142839D01*
X277204Y144407D01*
X272501Y144407D01*
X283423Y144407D02*
X286559Y144407D01*
X283423Y144407D02*
X281856Y142839D01*
X281856Y136569D01*
X283423Y135001D01*
X286559Y135001D01*
X288127Y136569D01*
X288127Y142839D01*
X286559Y144407D01*
X274068Y68207D02*
X272501Y66639D01*
X274068Y68207D02*
X277204Y68207D01*
X278771Y66639D01*
X278771Y65072D01*
X277204Y63504D01*
X275636Y63504D01*
X277204Y63504D02*
X278771Y61936D01*
X278771Y60369D01*
X277204Y58801D01*
X274068Y58801D01*
X272501Y60369D01*
X281856Y65072D02*
X284991Y58801D01*
X288127Y65072D01*
X278771Y42807D02*
X272501Y42807D01*
X272501Y38104D01*
X275636Y39672D01*
X277204Y39672D01*
X278771Y38104D01*
X278771Y34969D01*
X277204Y33401D01*
X274068Y33401D01*
X272501Y34969D01*
X281856Y39672D02*
X284991Y33401D01*
X288127Y39672D01*
X270686Y116169D02*
X269118Y117737D01*
X265983Y117737D01*
X264415Y116169D01*
X264415Y109899D01*
X265983Y108331D01*
X269118Y108331D01*
X270686Y109899D01*
X273771Y108331D02*
X273771Y117737D01*
X273771Y108331D02*
X280041Y108331D01*
X283126Y108331D02*
X283126Y117737D01*
X283126Y111466D02*
X289397Y117737D01*
X284693Y113034D02*
X289397Y108331D01*
X277501Y216499D02*
X275934Y218067D01*
X272798Y218067D01*
X271231Y216499D01*
X271231Y210229D01*
X272798Y208661D01*
X275934Y208661D01*
X277501Y210229D01*
X280586Y208661D02*
X280586Y218067D01*
X280586Y208661D02*
X285289Y208661D01*
X286857Y210229D01*
X286857Y216499D01*
X285289Y218067D01*
X280586Y218067D01*
X267848Y92337D02*
X269416Y90769D01*
X267848Y92337D02*
X264713Y92337D01*
X263145Y90769D01*
X263145Y84499D01*
X264713Y82931D01*
X267848Y82931D01*
X269416Y84499D01*
X269416Y87634D01*
X266281Y87634D01*
X272501Y82931D02*
X272501Y92337D01*
X278771Y82931D01*
X278771Y92337D01*
X281856Y92337D02*
X281856Y82931D01*
X286559Y82931D01*
X288127Y84499D01*
X288127Y90769D01*
X286559Y92337D01*
X281856Y92337D01*
X62532Y246007D02*
X56261Y246007D01*
X56261Y241304D01*
X59396Y242872D01*
X60964Y242872D01*
X62532Y241304D01*
X62532Y238169D01*
X60964Y236601D01*
X57829Y236601D01*
X56261Y238169D01*
X65616Y239736D02*
X65616Y246007D01*
X65616Y239736D02*
X68752Y236601D01*
X71887Y239736D01*
X71887Y246007D01*
X84327Y242872D02*
X84327Y236601D01*
X84327Y239736D02*
X87462Y242872D01*
X89030Y242872D01*
X93690Y236601D02*
X96826Y236601D01*
X93690Y236601D02*
X92123Y238169D01*
X92123Y241304D01*
X93690Y242872D01*
X96826Y242872D01*
X98393Y241304D01*
X98393Y239736D01*
X92123Y239736D01*
X103045Y242872D02*
X106181Y242872D01*
X107748Y241304D01*
X107748Y236601D01*
X103045Y236601D01*
X101478Y238169D01*
X103045Y239736D01*
X107748Y239736D01*
X117104Y236601D02*
X117104Y246007D01*
X117104Y236601D02*
X112401Y236601D01*
X110833Y238169D01*
X110833Y241304D01*
X112401Y242872D01*
X117104Y242872D01*
X120188Y242872D02*
X120188Y238169D01*
X121756Y236601D01*
X126459Y236601D01*
X126459Y235033D02*
X126459Y242872D01*
X126459Y235033D02*
X124891Y233466D01*
X123323Y233466D01*
X138898Y236601D02*
X138898Y246007D01*
X142034Y242872D01*
X145169Y246007D01*
X145169Y236601D01*
X148254Y242872D02*
X149821Y242872D01*
X149821Y236601D01*
X148254Y236601D02*
X151389Y236601D01*
X149821Y246007D02*
X149821Y247575D01*
X156058Y242872D02*
X160761Y242872D01*
X156058Y242872D02*
X154490Y241304D01*
X154490Y238169D01*
X156058Y236601D01*
X160761Y236601D01*
X163846Y236601D02*
X163846Y242872D01*
X166981Y242872D02*
X163846Y239736D01*
X166981Y242872D02*
X168549Y242872D01*
X173209Y236601D02*
X176345Y236601D01*
X177912Y238169D01*
X177912Y241304D01*
X176345Y242872D01*
X173209Y242872D01*
X171642Y241304D01*
X171642Y238169D01*
X173209Y236601D01*
X180997Y241304D02*
X187267Y241304D01*
X195055Y246007D02*
X196623Y244439D01*
X195055Y246007D02*
X191920Y246007D01*
X190352Y244439D01*
X190352Y242872D01*
X191920Y241304D01*
X195055Y241304D01*
X196623Y239736D01*
X196623Y238169D01*
X195055Y236601D01*
X191920Y236601D01*
X190352Y238169D01*
X199707Y236601D02*
X199707Y246007D01*
X199707Y236601D02*
X204410Y236601D01*
X205978Y238169D01*
X205978Y244439D01*
X204410Y246007D01*
X199707Y246007D01*
X70231Y234577D02*
X70231Y225171D01*
X70231Y234577D02*
X74934Y234577D01*
X76502Y233009D01*
X76502Y231442D01*
X74934Y229874D01*
X76502Y228306D01*
X76502Y226739D01*
X74934Y225171D01*
X70231Y225171D01*
X70231Y229874D02*
X74934Y229874D01*
X79586Y231442D02*
X79586Y225171D01*
X79586Y228306D02*
X82722Y231442D01*
X84289Y231442D01*
X88950Y225171D02*
X92085Y225171D01*
X88950Y225171D02*
X87382Y226739D01*
X87382Y229874D01*
X88950Y231442D01*
X92085Y231442D01*
X93653Y229874D01*
X93653Y228306D01*
X87382Y228306D01*
X98305Y231442D02*
X101440Y231442D01*
X103008Y229874D01*
X103008Y225171D01*
X98305Y225171D01*
X96737Y226739D01*
X98305Y228306D01*
X103008Y228306D01*
X106093Y225171D02*
X106093Y234577D01*
X106093Y228306D02*
X110796Y225171D01*
X106093Y228306D02*
X110796Y231442D01*
X115456Y225171D02*
X118592Y225171D01*
X120159Y226739D01*
X120159Y229874D01*
X118592Y231442D01*
X115456Y231442D01*
X113889Y229874D01*
X113889Y226739D01*
X115456Y225171D01*
X123244Y226739D02*
X123244Y231442D01*
X123244Y226739D02*
X124811Y225171D01*
X129514Y225171D01*
X129514Y231442D01*
X134167Y233009D02*
X134167Y226739D01*
X135734Y225171D01*
X135734Y231442D02*
X132599Y231442D01*
X148191Y234577D02*
X148191Y225171D01*
X152894Y225171D01*
X154462Y226739D01*
X154462Y229874D01*
X152894Y231442D01*
X148191Y231442D01*
X159114Y225171D02*
X162249Y225171D01*
X163817Y226739D01*
X163817Y229874D01*
X162249Y231442D01*
X159114Y231442D01*
X157546Y229874D01*
X157546Y226739D01*
X159114Y225171D01*
X168469Y231442D02*
X171604Y231442D01*
X173172Y229874D01*
X173172Y225171D01*
X168469Y225171D01*
X166901Y226739D01*
X168469Y228306D01*
X173172Y228306D01*
X176256Y225171D02*
X176256Y231442D01*
X176256Y228306D02*
X179392Y231442D01*
X180959Y231442D01*
X190323Y234577D02*
X190323Y225171D01*
X185620Y225171D01*
X184052Y226739D01*
X184052Y229874D01*
X185620Y231442D01*
X190323Y231442D01*
X193408Y229874D02*
X199678Y229874D01*
X196543Y233009D02*
X196543Y226739D01*
D12*
X230378Y184150D02*
X230378Y90170D01*
X195072Y86360D02*
X194950Y86362D01*
X194828Y86368D01*
X194706Y86378D01*
X194585Y86391D01*
X194464Y86409D01*
X194344Y86430D01*
X194224Y86456D01*
X194106Y86485D01*
X193988Y86517D01*
X193871Y86554D01*
X193756Y86594D01*
X193642Y86638D01*
X193530Y86686D01*
X193419Y86737D01*
X193310Y86792D01*
X193202Y86850D01*
X193097Y86912D01*
X192994Y86977D01*
X192892Y87045D01*
X192793Y87117D01*
X192697Y87191D01*
X192602Y87269D01*
X192511Y87350D01*
X192421Y87433D01*
X192335Y87519D01*
X192252Y87609D01*
X192171Y87700D01*
X192093Y87795D01*
X192019Y87891D01*
X191947Y87990D01*
X191879Y88092D01*
X191814Y88195D01*
X191752Y88300D01*
X191694Y88408D01*
X191639Y88517D01*
X191588Y88628D01*
X191540Y88740D01*
X191496Y88854D01*
X191456Y88969D01*
X191419Y89086D01*
X191387Y89204D01*
X191358Y89322D01*
X191332Y89442D01*
X191311Y89562D01*
X191293Y89683D01*
X191280Y89804D01*
X191270Y89926D01*
X191264Y90048D01*
X191262Y90170D01*
X230378Y184150D02*
X230376Y184272D01*
X230370Y184394D01*
X230360Y184516D01*
X230347Y184637D01*
X230329Y184758D01*
X230308Y184878D01*
X230282Y184998D01*
X230253Y185116D01*
X230221Y185234D01*
X230184Y185351D01*
X230144Y185466D01*
X230100Y185580D01*
X230052Y185692D01*
X230001Y185803D01*
X229946Y185912D01*
X229888Y186020D01*
X229826Y186125D01*
X229761Y186228D01*
X229693Y186330D01*
X229621Y186429D01*
X229547Y186525D01*
X229469Y186620D01*
X229388Y186711D01*
X229305Y186801D01*
X229219Y186887D01*
X229129Y186970D01*
X229038Y187051D01*
X228943Y187129D01*
X228847Y187203D01*
X228748Y187275D01*
X228646Y187343D01*
X228543Y187408D01*
X228438Y187470D01*
X228330Y187528D01*
X228221Y187583D01*
X228110Y187634D01*
X227998Y187682D01*
X227884Y187726D01*
X227769Y187766D01*
X227652Y187803D01*
X227534Y187835D01*
X227416Y187864D01*
X227296Y187890D01*
X227176Y187911D01*
X227055Y187929D01*
X226934Y187942D01*
X226812Y187952D01*
X226690Y187958D01*
X226568Y187960D01*
X230378Y90170D02*
X230376Y90048D01*
X230370Y89926D01*
X230360Y89804D01*
X230347Y89683D01*
X230329Y89562D01*
X230308Y89442D01*
X230282Y89322D01*
X230253Y89204D01*
X230221Y89086D01*
X230184Y88969D01*
X230144Y88854D01*
X230100Y88740D01*
X230052Y88628D01*
X230001Y88517D01*
X229946Y88408D01*
X229888Y88300D01*
X229826Y88195D01*
X229761Y88092D01*
X229693Y87990D01*
X229621Y87891D01*
X229547Y87795D01*
X229469Y87700D01*
X229388Y87609D01*
X229305Y87519D01*
X229219Y87433D01*
X229129Y87350D01*
X229038Y87269D01*
X228943Y87191D01*
X228847Y87117D01*
X228748Y87045D01*
X228646Y86977D01*
X228543Y86912D01*
X228438Y86850D01*
X228330Y86792D01*
X228221Y86737D01*
X228110Y86686D01*
X227998Y86638D01*
X227884Y86594D01*
X227769Y86554D01*
X227652Y86517D01*
X227534Y86485D01*
X227416Y86456D01*
X227296Y86430D01*
X227176Y86409D01*
X227055Y86391D01*
X226934Y86378D01*
X226812Y86368D01*
X226690Y86362D01*
X226568Y86360D01*
X191262Y184150D02*
X191264Y184272D01*
X191270Y184394D01*
X191280Y184516D01*
X191293Y184637D01*
X191311Y184758D01*
X191332Y184878D01*
X191358Y184998D01*
X191387Y185116D01*
X191419Y185234D01*
X191456Y185351D01*
X191496Y185466D01*
X191540Y185580D01*
X191588Y185692D01*
X191639Y185803D01*
X191694Y185912D01*
X191752Y186020D01*
X191814Y186125D01*
X191879Y186228D01*
X191947Y186330D01*
X192019Y186429D01*
X192093Y186525D01*
X192171Y186620D01*
X192252Y186711D01*
X192335Y186801D01*
X192421Y186887D01*
X192511Y186970D01*
X192602Y187051D01*
X192697Y187129D01*
X192793Y187203D01*
X192892Y187275D01*
X192994Y187343D01*
X193097Y187408D01*
X193202Y187470D01*
X193310Y187528D01*
X193419Y187583D01*
X193530Y187634D01*
X193642Y187682D01*
X193756Y187726D01*
X193871Y187766D01*
X193988Y187803D01*
X194106Y187835D01*
X194224Y187864D01*
X194344Y187890D01*
X194464Y187911D01*
X194585Y187929D01*
X194706Y187942D01*
X194828Y187952D01*
X194950Y187958D01*
X195072Y187960D01*
X191262Y184150D02*
X191262Y90170D01*
X195072Y86360D02*
X226568Y86360D01*
X226568Y187960D02*
X215900Y187960D01*
X205740Y187960D01*
X195072Y187960D01*
X205740Y187960D02*
X205742Y187819D01*
X205748Y187678D01*
X205758Y187537D01*
X205771Y187396D01*
X205789Y187256D01*
X205811Y187117D01*
X205836Y186978D01*
X205865Y186839D01*
X205898Y186702D01*
X205935Y186566D01*
X205976Y186431D01*
X206020Y186296D01*
X206068Y186164D01*
X206120Y186032D01*
X206175Y185902D01*
X206234Y185774D01*
X206297Y185647D01*
X206363Y185523D01*
X206432Y185400D01*
X206505Y185279D01*
X206581Y185160D01*
X206661Y185043D01*
X206744Y184929D01*
X206829Y184816D01*
X206918Y184707D01*
X207010Y184599D01*
X207105Y184495D01*
X207203Y184393D01*
X207304Y184294D01*
X207407Y184197D01*
X207513Y184104D01*
X207621Y184014D01*
X207732Y183926D01*
X207845Y183842D01*
X207961Y183761D01*
X208079Y183683D01*
X208199Y183608D01*
X208321Y183537D01*
X208445Y183469D01*
X208571Y183405D01*
X208698Y183344D01*
X208827Y183287D01*
X208958Y183234D01*
X209090Y183184D01*
X209223Y183137D01*
X209358Y183095D01*
X209494Y183056D01*
X209631Y183021D01*
X209768Y182990D01*
X209907Y182963D01*
X210046Y182939D01*
X210186Y182920D01*
X210326Y182904D01*
X210467Y182892D01*
X210608Y182884D01*
X210749Y182880D01*
X210891Y182880D01*
X211032Y182884D01*
X211173Y182892D01*
X211314Y182904D01*
X211454Y182920D01*
X211594Y182939D01*
X211733Y182963D01*
X211872Y182990D01*
X212009Y183021D01*
X212146Y183056D01*
X212282Y183095D01*
X212417Y183137D01*
X212550Y183184D01*
X212682Y183234D01*
X212813Y183287D01*
X212942Y183344D01*
X213069Y183405D01*
X213195Y183469D01*
X213319Y183537D01*
X213441Y183608D01*
X213561Y183683D01*
X213679Y183761D01*
X213795Y183842D01*
X213908Y183926D01*
X214019Y184014D01*
X214127Y184104D01*
X214233Y184197D01*
X214336Y184294D01*
X214437Y184393D01*
X214535Y184495D01*
X214630Y184599D01*
X214722Y184707D01*
X214811Y184816D01*
X214896Y184929D01*
X214979Y185043D01*
X215059Y185160D01*
X215135Y185279D01*
X215208Y185400D01*
X215277Y185523D01*
X215343Y185647D01*
X215406Y185774D01*
X215465Y185902D01*
X215520Y186032D01*
X215572Y186164D01*
X215620Y186296D01*
X215664Y186431D01*
X215705Y186566D01*
X215742Y186702D01*
X215775Y186839D01*
X215804Y186978D01*
X215829Y187117D01*
X215851Y187256D01*
X215869Y187396D01*
X215882Y187537D01*
X215892Y187678D01*
X215898Y187819D01*
X215900Y187960D01*
D13*
X194818Y187960D02*
X194818Y86360D01*
D14*
X205431Y72898D02*
X208481Y72898D01*
X206956Y72898D02*
X206956Y82050D01*
X205431Y82050D02*
X208481Y82050D01*
X216244Y82050D02*
X217769Y80525D01*
X216244Y82050D02*
X213193Y82050D01*
X211668Y80525D01*
X211668Y74423D01*
X213193Y72898D01*
X216244Y72898D01*
X217769Y74423D01*
X221023Y78999D02*
X224073Y82050D01*
X224073Y72898D01*
X221023Y72898D02*
X227124Y72898D01*
D15*
X6080Y65580D02*
X6080Y55580D01*
X157080Y55580D01*
X157080Y195580D01*
X13080Y195580D01*
X13080Y185580D01*
X13274Y185602D01*
X13468Y185619D01*
X13662Y185631D01*
X13857Y185639D01*
X14052Y185642D01*
X14246Y185640D01*
X14441Y185634D01*
X14636Y185623D01*
X14830Y185607D01*
X15024Y185587D01*
X15217Y185561D01*
X15409Y185532D01*
X15601Y185497D01*
X15792Y185458D01*
X15982Y185414D01*
X16171Y185366D01*
X16358Y185313D01*
X16544Y185256D01*
X16729Y185194D01*
X16912Y185128D01*
X17094Y185057D01*
X17274Y184982D01*
X17452Y184903D01*
X17628Y184820D01*
X17801Y184732D01*
X17973Y184640D01*
X18143Y184544D01*
X18310Y184443D01*
X18474Y184339D01*
X18636Y184231D01*
X18796Y184119D01*
X18952Y184003D01*
X19106Y183883D01*
X19257Y183760D01*
X19405Y183633D01*
X19550Y183503D01*
X19691Y183369D01*
X19829Y183232D01*
X19964Y183091D01*
X20096Y182947D01*
X20224Y182800D01*
X20348Y182650D01*
X20469Y182497D01*
X20586Y182342D01*
X20699Y182183D01*
X20808Y182022D01*
X20913Y181858D01*
X21015Y181692D01*
X21112Y181523D01*
X21205Y181352D01*
X21294Y181178D01*
X21379Y181003D01*
X21460Y180826D01*
X21536Y180646D01*
X21608Y180465D01*
X21676Y180283D01*
X21739Y180098D01*
X21797Y179913D01*
X21851Y179725D01*
X21901Y179537D01*
X21946Y179347D01*
X21986Y179157D01*
X22022Y178965D01*
X22053Y178773D01*
X22080Y178580D01*
X22080Y81580D01*
X22075Y81193D01*
X22061Y80807D01*
X22038Y80421D01*
X22005Y80036D01*
X21963Y79651D01*
X21912Y79268D01*
X21852Y78886D01*
X21782Y78506D01*
X21703Y78127D01*
X21615Y77751D01*
X21518Y77377D01*
X21412Y77005D01*
X21297Y76636D01*
X21173Y76269D01*
X21040Y75906D01*
X20899Y75546D01*
X20749Y75190D01*
X20590Y74838D01*
X20423Y74489D01*
X20247Y74144D01*
X20063Y73804D01*
X19872Y73469D01*
X19671Y73138D01*
X19464Y72812D01*
X19248Y72491D01*
X19024Y72175D01*
X18793Y71865D01*
X18555Y71561D01*
X18309Y71263D01*
X18056Y70970D01*
X17796Y70684D01*
X17530Y70404D01*
X17256Y70130D01*
X16976Y69864D01*
X16690Y69604D01*
X16397Y69351D01*
X16099Y69105D01*
X15795Y68867D01*
X15485Y68636D01*
X15169Y68412D01*
X14848Y68196D01*
X14522Y67989D01*
X14191Y67788D01*
X13856Y67597D01*
X13516Y67413D01*
X13171Y67237D01*
X12822Y67070D01*
X12470Y66911D01*
X12114Y66761D01*
X11754Y66620D01*
X11391Y66487D01*
X11024Y66363D01*
X10655Y66248D01*
X10283Y66142D01*
X9909Y66045D01*
X9533Y65957D01*
X9154Y65878D01*
X8774Y65808D01*
X8392Y65748D01*
X8009Y65697D01*
X7624Y65655D01*
X7239Y65622D01*
X6853Y65599D01*
X6467Y65585D01*
X6080Y65580D01*
X-1520Y179580D02*
X-1516Y179870D01*
X-1506Y180160D01*
X-1488Y180449D01*
X-1464Y180738D01*
X-1433Y181026D01*
X-1394Y181314D01*
X-1349Y181600D01*
X-1296Y181886D01*
X-1237Y182169D01*
X-1171Y182452D01*
X-1099Y182732D01*
X-1019Y183011D01*
X-933Y183288D01*
X-840Y183563D01*
X-740Y183835D01*
X-634Y184105D01*
X-522Y184372D01*
X-402Y184637D01*
X-277Y184898D01*
X-145Y185157D01*
X-8Y185412D01*
X136Y185664D01*
X286Y185912D01*
X442Y186156D01*
X604Y186397D01*
X772Y186633D01*
X945Y186866D01*
X1124Y187094D01*
X1308Y187318D01*
X1498Y187537D01*
X1693Y187752D01*
X1893Y187962D01*
X2098Y188167D01*
X2308Y188367D01*
X2523Y188562D01*
X2742Y188752D01*
X2966Y188936D01*
X3194Y189115D01*
X3427Y189288D01*
X3663Y189456D01*
X3904Y189618D01*
X4148Y189774D01*
X4396Y189924D01*
X4648Y190068D01*
X4903Y190205D01*
X5162Y190337D01*
X5423Y190462D01*
X5688Y190582D01*
X5955Y190694D01*
X6225Y190800D01*
X6497Y190900D01*
X6772Y190993D01*
X7049Y191079D01*
X7328Y191159D01*
X7608Y191231D01*
X7891Y191297D01*
X8174Y191356D01*
X8460Y191409D01*
X8746Y191454D01*
X9034Y191493D01*
X9322Y191524D01*
X9611Y191548D01*
X9900Y191566D01*
X10190Y191576D01*
X10480Y191580D01*
X-1520Y179580D02*
X-1520Y87580D01*
X-1541Y87290D01*
X-1555Y86999D01*
X-1561Y86708D01*
X-1561Y86417D01*
X-1553Y86126D01*
X-1539Y85836D01*
X-1517Y85545D01*
X-1489Y85256D01*
X-1453Y84967D01*
X-1411Y84679D01*
X-1362Y84392D01*
X-1305Y84107D01*
X-1242Y83823D01*
X-1172Y83540D01*
X-1095Y83260D01*
X-1012Y82981D01*
X-921Y82704D01*
X-824Y82430D01*
X-721Y82158D01*
X-611Y81889D01*
X-494Y81622D01*
X-371Y81358D01*
X-242Y81098D01*
X-106Y80840D01*
X36Y80586D01*
X184Y80335D01*
X338Y80088D01*
X497Y79845D01*
X663Y79606D01*
X834Y79371D01*
X1011Y79140D01*
X1194Y78913D01*
X1382Y78691D01*
X1575Y78474D01*
X1774Y78261D01*
X1977Y78053D01*
X2186Y77850D01*
X2399Y77652D01*
X2617Y77459D01*
X2840Y77272D01*
X3067Y77090D01*
X3299Y76914D01*
X3534Y76743D01*
X3774Y76578D01*
X4018Y76419D01*
X4265Y76266D01*
X4516Y76119D01*
X4771Y75978D01*
X5029Y75843D01*
X5290Y75714D01*
X5554Y75592D01*
X5821Y75476D01*
X6090Y75367D01*
X6362Y75264D01*
X6637Y75168D01*
X6914Y75078D01*
X7193Y74995D01*
X7474Y74919D01*
X7757Y74850D01*
X8041Y74788D01*
X8326Y74732D01*
X8613Y74684D01*
X8901Y74642D01*
X9190Y74607D01*
X9480Y74580D01*
X-10520Y179580D02*
X-10516Y179870D01*
X-10506Y180160D01*
X-10488Y180449D01*
X-10464Y180738D01*
X-10433Y181026D01*
X-10394Y181314D01*
X-10349Y181600D01*
X-10296Y181886D01*
X-10237Y182169D01*
X-10171Y182452D01*
X-10099Y182732D01*
X-10019Y183011D01*
X-9933Y183288D01*
X-9840Y183563D01*
X-9740Y183835D01*
X-9634Y184105D01*
X-9522Y184372D01*
X-9402Y184637D01*
X-9277Y184898D01*
X-9145Y185157D01*
X-9008Y185412D01*
X-8864Y185664D01*
X-8714Y185912D01*
X-8558Y186156D01*
X-8396Y186397D01*
X-8228Y186633D01*
X-8055Y186866D01*
X-7876Y187094D01*
X-7692Y187318D01*
X-7502Y187537D01*
X-7307Y187752D01*
X-7107Y187962D01*
X-6902Y188167D01*
X-6692Y188367D01*
X-6477Y188562D01*
X-6258Y188752D01*
X-6034Y188936D01*
X-5806Y189115D01*
X-5573Y189288D01*
X-5337Y189456D01*
X-5096Y189618D01*
X-4852Y189774D01*
X-4604Y189924D01*
X-4352Y190068D01*
X-4097Y190205D01*
X-3838Y190337D01*
X-3577Y190462D01*
X-3312Y190582D01*
X-3045Y190694D01*
X-2775Y190800D01*
X-2503Y190900D01*
X-2228Y190993D01*
X-1951Y191079D01*
X-1672Y191159D01*
X-1392Y191231D01*
X-1109Y191297D01*
X-826Y191356D01*
X-540Y191409D01*
X-254Y191454D01*
X34Y191493D01*
X322Y191524D01*
X611Y191548D01*
X900Y191566D01*
X1190Y191576D01*
X1480Y191580D01*
X-10520Y179580D02*
X-10520Y87580D01*
X-10541Y87290D01*
X-10555Y86999D01*
X-10561Y86708D01*
X-10561Y86417D01*
X-10553Y86126D01*
X-10539Y85836D01*
X-10517Y85545D01*
X-10489Y85256D01*
X-10453Y84967D01*
X-10411Y84679D01*
X-10362Y84392D01*
X-10305Y84107D01*
X-10242Y83823D01*
X-10172Y83540D01*
X-10095Y83260D01*
X-10012Y82981D01*
X-9921Y82704D01*
X-9824Y82430D01*
X-9721Y82158D01*
X-9611Y81889D01*
X-9494Y81622D01*
X-9371Y81358D01*
X-9242Y81098D01*
X-9106Y80840D01*
X-8964Y80586D01*
X-8816Y80335D01*
X-8662Y80088D01*
X-8503Y79845D01*
X-8337Y79606D01*
X-8166Y79371D01*
X-7989Y79140D01*
X-7806Y78913D01*
X-7618Y78691D01*
X-7425Y78474D01*
X-7226Y78261D01*
X-7023Y78053D01*
X-6814Y77850D01*
X-6601Y77652D01*
X-6383Y77459D01*
X-6160Y77272D01*
X-5933Y77090D01*
X-5701Y76914D01*
X-5466Y76743D01*
X-5226Y76578D01*
X-4982Y76419D01*
X-4735Y76266D01*
X-4484Y76119D01*
X-4229Y75978D01*
X-3971Y75843D01*
X-3710Y75714D01*
X-3446Y75592D01*
X-3179Y75476D01*
X-2910Y75367D01*
X-2638Y75264D01*
X-2363Y75168D01*
X-2086Y75078D01*
X-1807Y74995D01*
X-1526Y74919D01*
X-1243Y74850D01*
X-959Y74788D01*
X-674Y74732D01*
X-387Y74684D01*
X-99Y74642D01*
X190Y74607D01*
X480Y74580D01*
X-48520Y179580D02*
X-48516Y179870D01*
X-48506Y180160D01*
X-48488Y180449D01*
X-48464Y180738D01*
X-48433Y181026D01*
X-48394Y181314D01*
X-48349Y181600D01*
X-48296Y181886D01*
X-48237Y182169D01*
X-48171Y182452D01*
X-48099Y182732D01*
X-48019Y183011D01*
X-47933Y183288D01*
X-47840Y183563D01*
X-47740Y183835D01*
X-47634Y184105D01*
X-47522Y184372D01*
X-47402Y184637D01*
X-47277Y184898D01*
X-47145Y185157D01*
X-47008Y185412D01*
X-46864Y185664D01*
X-46714Y185912D01*
X-46558Y186156D01*
X-46396Y186397D01*
X-46228Y186633D01*
X-46055Y186866D01*
X-45876Y187094D01*
X-45692Y187318D01*
X-45502Y187537D01*
X-45307Y187752D01*
X-45107Y187962D01*
X-44902Y188167D01*
X-44692Y188367D01*
X-44477Y188562D01*
X-44258Y188752D01*
X-44034Y188936D01*
X-43806Y189115D01*
X-43573Y189288D01*
X-43337Y189456D01*
X-43096Y189618D01*
X-42852Y189774D01*
X-42604Y189924D01*
X-42352Y190068D01*
X-42097Y190205D01*
X-41838Y190337D01*
X-41577Y190462D01*
X-41312Y190582D01*
X-41045Y190694D01*
X-40775Y190800D01*
X-40503Y190900D01*
X-40228Y190993D01*
X-39951Y191079D01*
X-39672Y191159D01*
X-39392Y191231D01*
X-39109Y191297D01*
X-38826Y191356D01*
X-38540Y191409D01*
X-38254Y191454D01*
X-37966Y191493D01*
X-37678Y191524D01*
X-37389Y191548D01*
X-37100Y191566D01*
X-36810Y191576D01*
X-36520Y191580D01*
X-48520Y179580D02*
X-48520Y87580D01*
X-48541Y87290D01*
X-48555Y86999D01*
X-48561Y86708D01*
X-48561Y86417D01*
X-48553Y86126D01*
X-48539Y85836D01*
X-48517Y85545D01*
X-48489Y85256D01*
X-48453Y84967D01*
X-48411Y84679D01*
X-48362Y84392D01*
X-48305Y84107D01*
X-48242Y83823D01*
X-48172Y83540D01*
X-48095Y83260D01*
X-48012Y82981D01*
X-47921Y82704D01*
X-47824Y82430D01*
X-47721Y82158D01*
X-47611Y81889D01*
X-47494Y81622D01*
X-47371Y81358D01*
X-47242Y81098D01*
X-47106Y80840D01*
X-46964Y80586D01*
X-46816Y80335D01*
X-46662Y80088D01*
X-46503Y79845D01*
X-46337Y79606D01*
X-46166Y79371D01*
X-45989Y79140D01*
X-45806Y78913D01*
X-45618Y78691D01*
X-45425Y78474D01*
X-45226Y78261D01*
X-45023Y78053D01*
X-44814Y77850D01*
X-44601Y77652D01*
X-44383Y77459D01*
X-44160Y77272D01*
X-43933Y77090D01*
X-43701Y76914D01*
X-43466Y76743D01*
X-43226Y76578D01*
X-42982Y76419D01*
X-42735Y76266D01*
X-42484Y76119D01*
X-42229Y75978D01*
X-41971Y75843D01*
X-41710Y75714D01*
X-41446Y75592D01*
X-41179Y75476D01*
X-40910Y75367D01*
X-40638Y75264D01*
X-40363Y75168D01*
X-40086Y75078D01*
X-39807Y74995D01*
X-39526Y74919D01*
X-39243Y74850D01*
X-38959Y74788D01*
X-38674Y74732D01*
X-38387Y74684D01*
X-38099Y74642D01*
X-37810Y74607D01*
X-37520Y74580D01*
D11*
X95801Y143377D02*
X102072Y133971D01*
X95801Y133971D02*
X102072Y143377D01*
X105156Y140242D02*
X108292Y143377D01*
X108292Y133971D01*
X111427Y133971D02*
X105156Y133971D01*
D12*
X143030Y44700D02*
X159230Y44700D01*
X159230Y16260D02*
X143030Y16260D01*
X143030Y25260D02*
X143030Y35700D01*
X159230Y26200D02*
X159230Y25260D01*
X159230Y34760D02*
X159230Y35700D01*
X159230Y17200D02*
X159230Y16260D01*
X159230Y43760D02*
X159230Y44700D01*
X143030Y44700D02*
X143030Y43760D01*
X143030Y17200D02*
X143030Y16260D01*
D11*
X186309Y18614D02*
X186309Y21749D01*
X186309Y20181D02*
X176903Y20181D01*
X176903Y18614D02*
X176903Y21749D01*
X176903Y29554D02*
X178471Y31121D01*
X176903Y29554D02*
X176903Y26418D01*
X178471Y24851D01*
X184741Y24851D01*
X186309Y26418D01*
X186309Y29554D01*
X184741Y31121D01*
X186309Y34206D02*
X186309Y40476D01*
X186309Y34206D02*
X180038Y40476D01*
X178471Y40476D01*
X176903Y38909D01*
X176903Y35773D01*
X178471Y34206D01*
X126032Y36834D02*
X119761Y36834D01*
X122896Y39969D02*
X122896Y33699D01*
X93832Y52509D02*
X92264Y54077D01*
X89129Y54077D01*
X87561Y52509D01*
X87561Y46239D01*
X89129Y44671D01*
X92264Y44671D01*
X93832Y46239D01*
X96916Y50942D02*
X100052Y54077D01*
X100052Y44671D01*
X103187Y44671D02*
X96916Y44671D01*
X181774Y55367D02*
X183342Y53799D01*
X181774Y55367D02*
X178639Y55367D01*
X177071Y53799D01*
X177071Y47529D01*
X178639Y45961D01*
X181774Y45961D01*
X183342Y47529D01*
X186426Y45961D02*
X192697Y45961D01*
X186426Y45961D02*
X192697Y52232D01*
X192697Y53799D01*
X191129Y55367D01*
X187994Y55367D01*
X186426Y53799D01*
D15*
X292100Y24130D02*
X292100Y227330D01*
X317500Y227330D01*
X317500Y24130D01*
X292100Y24130D01*
D11*
X55876Y214546D02*
X55876Y220817D01*
X52741Y217681D02*
X59011Y217681D01*
D16*
X77700Y216820D03*
X77700Y204820D03*
D17*
X77700Y210820D03*
D11*
X15621Y211122D02*
X15621Y204851D01*
X15621Y211122D02*
X18756Y214257D01*
X21892Y211122D01*
X21892Y204851D01*
X21892Y209554D02*
X15621Y209554D01*
X29679Y214257D02*
X31247Y212689D01*
X29679Y214257D02*
X26544Y214257D01*
X24976Y212689D01*
X24976Y206419D01*
X26544Y204851D01*
X29679Y204851D01*
X31247Y206419D01*
X37467Y204851D02*
X37467Y214257D01*
X40602Y214257D02*
X34331Y214257D01*
D18*
X110796Y210805D03*
X125528Y210805D03*
D11*
X140081Y207391D02*
X140081Y216797D01*
X144784Y216797D01*
X146352Y215229D01*
X146352Y212094D01*
X144784Y210526D01*
X140081Y210526D01*
X143216Y210526D02*
X146352Y207391D01*
X149436Y213662D02*
X152572Y216797D01*
X152572Y207391D01*
X155707Y207391D02*
X149436Y207391D01*
M02*
