G04 EAGLE Gerber RS-274X export*
G75*
%MOMM*%
%FSLAX34Y34*%
%LPD*%
%INSilkscreen Bottom*%
%IPPOS*%
%AMOC8*
5,1,8,0,0,1.08239X$1,22.5*%
G01*
%ADD10C,0.076200*%
%ADD11C,0.152400*%


D10*
X204228Y246007D02*
X210499Y246007D01*
X210499Y241304D01*
X207364Y242872D01*
X205796Y242872D01*
X204228Y241304D01*
X204228Y238169D01*
X205796Y236601D01*
X208931Y236601D01*
X210499Y238169D01*
X201144Y239736D02*
X201144Y246007D01*
X201144Y239736D02*
X198008Y236601D01*
X194873Y239736D01*
X194873Y246007D01*
X182433Y242872D02*
X182433Y236601D01*
X182433Y239736D02*
X179298Y242872D01*
X177730Y242872D01*
X173070Y236601D02*
X169934Y236601D01*
X173070Y236601D02*
X174637Y238169D01*
X174637Y241304D01*
X173070Y242872D01*
X169934Y242872D01*
X168367Y241304D01*
X168367Y239736D01*
X174637Y239736D01*
X163715Y242872D02*
X160579Y242872D01*
X159012Y241304D01*
X159012Y236601D01*
X163715Y236601D01*
X165282Y238169D01*
X163715Y239736D01*
X159012Y239736D01*
X149656Y236601D02*
X149656Y246007D01*
X149656Y236601D02*
X154359Y236601D01*
X155927Y238169D01*
X155927Y241304D01*
X154359Y242872D01*
X149656Y242872D01*
X146572Y242872D02*
X146572Y238169D01*
X145004Y236601D01*
X140301Y236601D01*
X140301Y235033D02*
X140301Y242872D01*
X140301Y235033D02*
X141869Y233466D01*
X143437Y233466D01*
X127862Y236601D02*
X127862Y246007D01*
X124726Y242872D01*
X121591Y246007D01*
X121591Y236601D01*
X118506Y242872D02*
X116939Y242872D01*
X116939Y236601D01*
X118506Y236601D02*
X115371Y236601D01*
X116939Y246007D02*
X116939Y247575D01*
X110702Y242872D02*
X105999Y242872D01*
X110702Y242872D02*
X112270Y241304D01*
X112270Y238169D01*
X110702Y236601D01*
X105999Y236601D01*
X102914Y236601D02*
X102914Y242872D01*
X99779Y242872D02*
X102914Y239736D01*
X99779Y242872D02*
X98211Y242872D01*
X93551Y236601D02*
X90415Y236601D01*
X88848Y238169D01*
X88848Y241304D01*
X90415Y242872D01*
X93551Y242872D01*
X95118Y241304D01*
X95118Y238169D01*
X93551Y236601D01*
X85763Y241304D02*
X79493Y241304D01*
X71705Y246007D02*
X70137Y244439D01*
X71705Y246007D02*
X74840Y246007D01*
X76408Y244439D01*
X76408Y242872D01*
X74840Y241304D01*
X71705Y241304D01*
X70137Y239736D01*
X70137Y238169D01*
X71705Y236601D01*
X74840Y236601D01*
X76408Y238169D01*
X67053Y236601D02*
X67053Y246007D01*
X67053Y236601D02*
X62350Y236601D01*
X60782Y238169D01*
X60782Y244439D01*
X62350Y246007D01*
X67053Y246007D01*
X199469Y234577D02*
X199469Y225171D01*
X199469Y234577D02*
X194766Y234577D01*
X193198Y233009D01*
X193198Y231442D01*
X194766Y229874D01*
X193198Y228306D01*
X193198Y226739D01*
X194766Y225171D01*
X199469Y225171D01*
X199469Y229874D02*
X194766Y229874D01*
X190114Y231442D02*
X190114Y225171D01*
X190114Y228306D02*
X186978Y231442D01*
X185411Y231442D01*
X180750Y225171D02*
X177615Y225171D01*
X180750Y225171D02*
X182318Y226739D01*
X182318Y229874D01*
X180750Y231442D01*
X177615Y231442D01*
X176047Y229874D01*
X176047Y228306D01*
X182318Y228306D01*
X171395Y231442D02*
X168260Y231442D01*
X166692Y229874D01*
X166692Y225171D01*
X171395Y225171D01*
X172963Y226739D01*
X171395Y228306D01*
X166692Y228306D01*
X163607Y225171D02*
X163607Y234577D01*
X163607Y228306D02*
X158904Y225171D01*
X163607Y228306D02*
X158904Y231442D01*
X154244Y225171D02*
X151109Y225171D01*
X149541Y226739D01*
X149541Y229874D01*
X151109Y231442D01*
X154244Y231442D01*
X155812Y229874D01*
X155812Y226739D01*
X154244Y225171D01*
X146456Y226739D02*
X146456Y231442D01*
X146456Y226739D02*
X144889Y225171D01*
X140186Y225171D01*
X140186Y231442D01*
X135533Y233009D02*
X135533Y226739D01*
X133966Y225171D01*
X133966Y231442D02*
X137101Y231442D01*
X121509Y234577D02*
X121509Y225171D01*
X116806Y225171D01*
X115238Y226739D01*
X115238Y229874D01*
X116806Y231442D01*
X121509Y231442D01*
X110586Y225171D02*
X107451Y225171D01*
X105883Y226739D01*
X105883Y229874D01*
X107451Y231442D01*
X110586Y231442D01*
X112154Y229874D01*
X112154Y226739D01*
X110586Y225171D01*
X101231Y231442D02*
X98096Y231442D01*
X96528Y229874D01*
X96528Y225171D01*
X101231Y225171D01*
X102799Y226739D01*
X101231Y228306D01*
X96528Y228306D01*
X93444Y225171D02*
X93444Y231442D01*
X93444Y228306D02*
X90308Y231442D01*
X88741Y231442D01*
X79377Y234577D02*
X79377Y225171D01*
X84080Y225171D01*
X85648Y226739D01*
X85648Y229874D01*
X84080Y231442D01*
X79377Y231442D01*
X76292Y229874D02*
X70022Y229874D01*
X73157Y233009D02*
X73157Y226739D01*
D11*
X159238Y62032D02*
X159238Y45762D01*
X153815Y51185D01*
X148391Y45762D01*
X148391Y62032D01*
X142866Y45762D02*
X137443Y45762D01*
X140155Y45762D02*
X140155Y62032D01*
X142866Y62032D02*
X137443Y62032D01*
X131952Y62032D02*
X131952Y45762D01*
X121105Y45762D01*
X115581Y45762D02*
X115581Y62032D01*
X115581Y45762D02*
X107446Y45762D01*
X104734Y48474D01*
X104734Y59320D01*
X107446Y62032D01*
X115581Y62032D01*
X99209Y62032D02*
X99209Y45762D01*
X88362Y45762D01*
X82837Y59320D02*
X82837Y62032D01*
X82837Y59320D02*
X77414Y53897D01*
X71991Y59320D01*
X71991Y62032D01*
X77414Y53897D02*
X77414Y45762D01*
M02*
