G04 EAGLE Gerber X2 export*
%TF.Part,Single*%
%TF.FileFunction,Paste,Top*%
%TF.FilePolarity,Positive*%
%TF.GenerationSoftware,Autodesk,EAGLE,9.1.0*%
%TF.CreationDate,2018-08-21T06:48:51Z*%
G75*
%MOMM*%
%FSLAX34Y34*%
%LPD*%
%AMOC8*
5,1,8,0,0,1.08239X$1,22.5*%
G01*
%ADD10R,2.032000X0.660400*%
%ADD11R,1.900000X1.400000*%
%ADD12R,1.400000X1.800000*%
%ADD13R,1.500000X0.700000*%
%ADD14R,1.200000X0.550000*%
%ADD15R,1.950000X1.500000*%
%ADD16R,1.100000X1.400000*%
%ADD17R,1.200000X1.200000*%


D10*
X180086Y181610D03*
X241554Y181610D03*
X180086Y168910D03*
X180086Y156210D03*
X241554Y168910D03*
X241554Y156210D03*
X180086Y143510D03*
X241554Y143510D03*
X180086Y130810D03*
X241554Y130810D03*
X180086Y118110D03*
X180086Y105410D03*
X241554Y118110D03*
X241554Y105410D03*
X180086Y92710D03*
X241554Y92710D03*
D11*
X22080Y191580D03*
X13080Y59580D03*
D12*
X153080Y175580D03*
X153080Y115580D03*
D13*
X51080Y182580D03*
X51080Y171580D03*
X47080Y160580D03*
X51080Y149580D03*
X47080Y138580D03*
X51080Y127580D03*
X55080Y116580D03*
X51080Y105580D03*
D14*
X164130Y20980D03*
X164130Y30480D03*
X164130Y39980D03*
X138130Y39980D03*
X138130Y20980D03*
D15*
X107730Y31750D03*
X80230Y31750D03*
D16*
X172880Y64770D03*
X192880Y64770D03*
D17*
X86700Y210820D03*
X65700Y210820D03*
D16*
X128110Y210820D03*
X108110Y210820D03*
M02*
