G04 EAGLE Gerber X2 export*
%TF.Part,Single*%
%TF.FileFunction,Paste,Top*%
%TF.FilePolarity,Positive*%
%TF.GenerationSoftware,Autodesk,EAGLE,9.1.3*%
%TF.CreationDate,2018-09-14T10:43:08Z*%
G75*
%MOMM*%
%FSLAX34Y34*%
%LPD*%
%AMOC8*
5,1,8,0,0,1.08239X$1,22.5*%
G01*
%ADD10R,2.032000X0.660400*%
%ADD11R,1.200000X0.550000*%
%ADD12R,1.950000X1.500000*%
%ADD13R,1.100000X1.400000*%
%ADD14R,1.200000X1.200000*%
%ADD15R,1.100000X0.750000*%
%ADD16R,1.100000X0.850000*%
%ADD17R,1.100000X0.875000*%
%ADD18R,1.000000X1.200000*%
%ADD19R,1.350000X1.900000*%
%ADD20R,1.800000X1.170000*%
%ADD21R,1.350000X1.550000*%


D10*
X171196Y177800D03*
X232664Y177800D03*
X171196Y165100D03*
X171196Y152400D03*
X232664Y165100D03*
X232664Y152400D03*
X171196Y139700D03*
X232664Y139700D03*
X171196Y127000D03*
X232664Y127000D03*
X171196Y114300D03*
X171196Y101600D03*
X232664Y114300D03*
X232664Y101600D03*
X171196Y88900D03*
X232664Y88900D03*
D11*
X150160Y32410D03*
X150160Y41910D03*
X150160Y51410D03*
X124160Y51410D03*
X124160Y32410D03*
D12*
X71340Y39370D03*
X98840Y39370D03*
D13*
X188120Y52070D03*
X208120Y52070D03*
D14*
X86700Y210820D03*
X65700Y210820D03*
D13*
X128110Y210820D03*
X108110Y210820D03*
D15*
X20390Y174990D03*
D16*
X20390Y164490D03*
X20390Y153490D03*
X20390Y142490D03*
X20390Y131490D03*
X20390Y120490D03*
D17*
X20390Y109490D03*
D16*
X20390Y98490D03*
D18*
X81890Y72140D03*
X118890Y72140D03*
D19*
X128640Y166840D03*
X128640Y107140D03*
D20*
X23890Y187090D03*
D21*
X21640Y73890D03*
M02*
