G04 EAGLE Gerber X2 export*
%TF.Part,Single*%
%TF.FileFunction,Soldermask,Top,1*%
%TF.FilePolarity,Negative*%
%TF.GenerationSoftware,Autodesk,EAGLE,9.1.3*%
%TF.CreationDate,2018-09-14T10:43:08Z*%
G75*
%MOMM*%
%FSLAX34Y34*%
%LPD*%
%AMOC8*
5,1,8,0,0,1.08239X$1,22.5*%
G01*
%ADD10C,2.403200*%
%ADD11R,2.235200X0.863600*%
%ADD12R,1.403200X0.753200*%
%ADD13R,2.153200X1.703200*%
%ADD14R,1.303200X1.603200*%
%ADD15P,2.144431X8X202.500000*%
%ADD16R,1.403200X1.403200*%
%ADD17R,1.303200X0.953200*%
%ADD18R,1.303200X1.053200*%
%ADD19R,1.303200X1.078200*%
%ADD20R,1.203200X1.403200*%
%ADD21R,1.553200X2.103200*%
%ADD22R,2.003200X1.373200*%
%ADD23R,1.553200X1.753200*%

G36*
X267222Y224470D02*
X267222Y224470D01*
X267265Y224482D01*
X267331Y224489D01*
X269014Y224940D01*
X269055Y224959D01*
X269118Y224978D01*
X270698Y225715D01*
X270735Y225741D01*
X270794Y225770D01*
X272222Y226770D01*
X272253Y226802D01*
X272306Y226841D01*
X273539Y228074D01*
X273564Y228110D01*
X273610Y228158D01*
X274610Y229586D01*
X274628Y229627D01*
X274665Y229682D01*
X275402Y231262D01*
X275413Y231305D01*
X275440Y231366D01*
X275891Y233049D01*
X275893Y233081D01*
X275900Y233102D01*
X275900Y233117D01*
X275910Y233158D01*
X276062Y234895D01*
X276058Y234939D01*
X276062Y235005D01*
X275910Y236742D01*
X275898Y236785D01*
X275891Y236851D01*
X275440Y238534D01*
X275421Y238575D01*
X275402Y238638D01*
X274665Y240218D01*
X274639Y240255D01*
X274610Y240314D01*
X273610Y241742D01*
X273578Y241773D01*
X273539Y241826D01*
X272306Y243059D01*
X272270Y243084D01*
X272222Y243130D01*
X270794Y244130D01*
X270753Y244148D01*
X270698Y244185D01*
X269118Y244922D01*
X269075Y244933D01*
X269014Y244960D01*
X267331Y245411D01*
X267286Y245414D01*
X267222Y245430D01*
X265485Y245582D01*
X265441Y245578D01*
X265375Y245582D01*
X263638Y245430D01*
X263595Y245418D01*
X263529Y245411D01*
X261846Y244960D01*
X261805Y244941D01*
X261742Y244922D01*
X260162Y244185D01*
X260125Y244159D01*
X260066Y244130D01*
X258638Y243130D01*
X258607Y243098D01*
X258554Y243059D01*
X257321Y241826D01*
X257296Y241790D01*
X257250Y241742D01*
X256250Y240314D01*
X256232Y240273D01*
X256195Y240218D01*
X255458Y238638D01*
X255447Y238595D01*
X255420Y238534D01*
X254969Y236851D01*
X254966Y236806D01*
X254950Y236742D01*
X254798Y235005D01*
X254802Y234961D01*
X254798Y234895D01*
X254950Y233158D01*
X254962Y233115D01*
X254966Y233081D01*
X254966Y233065D01*
X254968Y233060D01*
X254969Y233049D01*
X255420Y231366D01*
X255439Y231325D01*
X255458Y231262D01*
X256195Y229682D01*
X256221Y229645D01*
X256250Y229586D01*
X257250Y228158D01*
X257282Y228127D01*
X257321Y228074D01*
X258554Y226841D01*
X258590Y226816D01*
X258638Y226770D01*
X260066Y225770D01*
X260107Y225752D01*
X260162Y225715D01*
X261742Y224978D01*
X261785Y224967D01*
X261846Y224940D01*
X263529Y224489D01*
X263574Y224486D01*
X263638Y224470D01*
X265375Y224318D01*
X265419Y224322D01*
X265485Y224318D01*
X267222Y224470D01*
G37*
G36*
X52592Y66990D02*
X52592Y66990D01*
X52635Y67002D01*
X52701Y67009D01*
X54384Y67460D01*
X54425Y67479D01*
X54488Y67498D01*
X56068Y68235D01*
X56105Y68261D01*
X56164Y68290D01*
X57592Y69290D01*
X57623Y69322D01*
X57676Y69361D01*
X58909Y70594D01*
X58934Y70630D01*
X58980Y70678D01*
X59980Y72106D01*
X59998Y72147D01*
X60035Y72202D01*
X60772Y73782D01*
X60783Y73825D01*
X60810Y73886D01*
X61261Y75569D01*
X61263Y75601D01*
X61270Y75622D01*
X61270Y75637D01*
X61280Y75678D01*
X61432Y77415D01*
X61428Y77459D01*
X61432Y77525D01*
X61280Y79262D01*
X61268Y79305D01*
X61261Y79371D01*
X60810Y81054D01*
X60791Y81095D01*
X60772Y81158D01*
X60035Y82738D01*
X60009Y82775D01*
X59980Y82834D01*
X58980Y84262D01*
X58948Y84293D01*
X58909Y84346D01*
X57676Y85579D01*
X57640Y85604D01*
X57592Y85650D01*
X56164Y86650D01*
X56123Y86668D01*
X56068Y86705D01*
X54488Y87442D01*
X54445Y87453D01*
X54384Y87480D01*
X52701Y87931D01*
X52656Y87934D01*
X52592Y87950D01*
X50855Y88102D01*
X50811Y88098D01*
X50745Y88102D01*
X49008Y87950D01*
X48965Y87938D01*
X48899Y87931D01*
X47216Y87480D01*
X47175Y87461D01*
X47112Y87442D01*
X45532Y86705D01*
X45495Y86679D01*
X45436Y86650D01*
X44008Y85650D01*
X43977Y85618D01*
X43924Y85579D01*
X42691Y84346D01*
X42666Y84310D01*
X42620Y84262D01*
X41620Y82834D01*
X41602Y82793D01*
X41565Y82738D01*
X40828Y81158D01*
X40817Y81115D01*
X40790Y81054D01*
X40339Y79371D01*
X40336Y79326D01*
X40320Y79262D01*
X40168Y77525D01*
X40172Y77481D01*
X40168Y77415D01*
X40320Y75678D01*
X40332Y75635D01*
X40336Y75601D01*
X40336Y75585D01*
X40338Y75580D01*
X40339Y75569D01*
X40790Y73886D01*
X40809Y73845D01*
X40828Y73782D01*
X41565Y72202D01*
X41591Y72165D01*
X41620Y72106D01*
X42620Y70678D01*
X42652Y70647D01*
X42691Y70594D01*
X43924Y69361D01*
X43960Y69336D01*
X44008Y69290D01*
X45436Y68290D01*
X45477Y68272D01*
X45532Y68235D01*
X47112Y67498D01*
X47155Y67487D01*
X47216Y67460D01*
X48899Y67009D01*
X48944Y67006D01*
X49008Y66990D01*
X50745Y66838D01*
X50789Y66842D01*
X50855Y66838D01*
X52592Y66990D01*
G37*
D10*
X25400Y228600D03*
X25400Y25400D03*
X228600Y228600D03*
X228600Y25400D03*
D11*
X171196Y177800D03*
X232664Y177800D03*
X171196Y165100D03*
X171196Y152400D03*
X232664Y165100D03*
X232664Y152400D03*
X171196Y139700D03*
X232664Y139700D03*
X171196Y127000D03*
X232664Y127000D03*
X171196Y114300D03*
X171196Y101600D03*
X232664Y114300D03*
X232664Y101600D03*
X171196Y88900D03*
X232664Y88900D03*
D12*
X150160Y32410D03*
X150160Y41910D03*
X150160Y51410D03*
X124160Y51410D03*
X124160Y32410D03*
D13*
X71340Y39370D03*
X98840Y39370D03*
D14*
X188120Y52070D03*
X208120Y52070D03*
D15*
X304800Y36830D03*
X304800Y62230D03*
X304800Y87630D03*
X304800Y113030D03*
X304800Y138430D03*
X304800Y163830D03*
X304800Y189230D03*
X304800Y214630D03*
D16*
X86700Y210820D03*
X65700Y210820D03*
D14*
X128110Y210820D03*
X108110Y210820D03*
D17*
X20390Y174990D03*
D18*
X20390Y164490D03*
X20390Y153490D03*
X20390Y142490D03*
X20390Y131490D03*
X20390Y120490D03*
D19*
X20390Y109490D03*
D18*
X20390Y98490D03*
D20*
X81890Y72140D03*
X118890Y72140D03*
D21*
X128640Y166840D03*
X128640Y107140D03*
D22*
X23890Y187090D03*
D23*
X21640Y73890D03*
M02*
