G04 EAGLE Gerber X2 export*
%TF.Part,Single*%
%TF.FileFunction,Profile,NP*%
%TF.FilePolarity,Positive*%
%TF.GenerationSoftware,Autodesk,EAGLE,9.1.3*%
%TF.CreationDate,2018-09-14T10:43:52Z*%
G75*
%MOMM*%
%FSLAX34Y34*%
%LPD*%
%AMOC8*
5,1,8,0,0,1.08239X$1,22.5*%
G01*
%ADD10C,0.254000*%


D10*
X0Y0D02*
X292100Y0D01*
X292100Y172720D01*
X0Y172720D01*
X0Y0D01*
X265952Y34700D02*
X266853Y34629D01*
X267745Y34488D01*
X268624Y34277D01*
X269483Y33998D01*
X270318Y33652D01*
X271123Y33241D01*
X271894Y32769D01*
X272625Y32238D01*
X273312Y31651D01*
X273951Y31012D01*
X274538Y30325D01*
X275069Y29594D01*
X275541Y28823D01*
X275952Y28018D01*
X276298Y27183D01*
X276577Y26324D01*
X276788Y25445D01*
X276929Y24553D01*
X277000Y23652D01*
X277000Y22748D01*
X276929Y21847D01*
X276788Y20955D01*
X276577Y20076D01*
X276298Y19217D01*
X275952Y18382D01*
X275541Y17577D01*
X275069Y16806D01*
X274538Y16075D01*
X273951Y15388D01*
X273312Y14749D01*
X272625Y14162D01*
X271894Y13631D01*
X271123Y13159D01*
X270318Y12748D01*
X269483Y12402D01*
X268624Y12123D01*
X267745Y11912D01*
X266853Y11771D01*
X265952Y11700D01*
X265048Y11700D01*
X264147Y11771D01*
X263255Y11912D01*
X262376Y12123D01*
X261517Y12402D01*
X260682Y12748D01*
X259877Y13159D01*
X259106Y13631D01*
X258375Y14162D01*
X257688Y14749D01*
X257049Y15388D01*
X256462Y16075D01*
X255931Y16806D01*
X255459Y17577D01*
X255048Y18382D01*
X254702Y19217D01*
X254423Y20076D01*
X254212Y20955D01*
X254071Y21847D01*
X254000Y22748D01*
X254000Y23652D01*
X254071Y24553D01*
X254212Y25445D01*
X254423Y26324D01*
X254702Y27183D01*
X255048Y28018D01*
X255459Y28823D01*
X255931Y29594D01*
X256462Y30325D01*
X257049Y31012D01*
X257688Y31651D01*
X258375Y32238D01*
X259106Y32769D01*
X259877Y33241D01*
X260682Y33652D01*
X261517Y33998D01*
X262376Y34277D01*
X263255Y34488D01*
X264147Y34629D01*
X265048Y34700D01*
X265952Y34700D01*
X265952Y166100D02*
X266853Y166029D01*
X267745Y165888D01*
X268624Y165677D01*
X269483Y165398D01*
X270318Y165052D01*
X271123Y164641D01*
X271894Y164169D01*
X272625Y163638D01*
X273312Y163051D01*
X273951Y162412D01*
X274538Y161725D01*
X275069Y160994D01*
X275541Y160223D01*
X275952Y159418D01*
X276298Y158583D01*
X276577Y157724D01*
X276788Y156845D01*
X276929Y155953D01*
X277000Y155052D01*
X277000Y154148D01*
X276929Y153247D01*
X276788Y152355D01*
X276577Y151476D01*
X276298Y150617D01*
X275952Y149782D01*
X275541Y148977D01*
X275069Y148206D01*
X274538Y147475D01*
X273951Y146788D01*
X273312Y146149D01*
X272625Y145562D01*
X271894Y145031D01*
X271123Y144559D01*
X270318Y144148D01*
X269483Y143802D01*
X268624Y143523D01*
X267745Y143312D01*
X266853Y143171D01*
X265952Y143100D01*
X265048Y143100D01*
X264147Y143171D01*
X263255Y143312D01*
X262376Y143523D01*
X261517Y143802D01*
X260682Y144148D01*
X259877Y144559D01*
X259106Y145031D01*
X258375Y145562D01*
X257688Y146149D01*
X257049Y146788D01*
X256462Y147475D01*
X255931Y148206D01*
X255459Y148977D01*
X255048Y149782D01*
X254702Y150617D01*
X254423Y151476D01*
X254212Y152355D01*
X254071Y153247D01*
X254000Y154148D01*
X254000Y155052D01*
X254071Y155953D01*
X254212Y156845D01*
X254423Y157724D01*
X254702Y158583D01*
X255048Y159418D01*
X255459Y160223D01*
X255931Y160994D01*
X256462Y161725D01*
X257049Y162412D01*
X257688Y163051D01*
X258375Y163638D01*
X259106Y164169D01*
X259877Y164641D01*
X260682Y165052D01*
X261517Y165398D01*
X262376Y165677D01*
X263255Y165888D01*
X264147Y166029D01*
X265048Y166100D01*
X265952Y166100D01*
M02*
