G04 EAGLE Gerber X2 export*
%TF.Part,Single*%
%TF.FileFunction,Legend,Bot,1*%
%TF.FilePolarity,Positive*%
%TF.GenerationSoftware,Autodesk,EAGLE,9.1.3*%
%TF.CreationDate,2018-09-14T10:43:52Z*%
G75*
%MOMM*%
%FSLAX34Y34*%
%LPD*%
%AMOC8*
5,1,8,0,0,1.08239X$1,22.5*%
G01*
%ADD10C,0.127000*%
%ADD11C,0.152400*%
%ADD12C,0.025400*%
%ADD13C,0.076200*%


D10*
X137468Y102699D02*
X142044Y102699D01*
X142044Y99267D01*
X139756Y100411D01*
X138612Y100411D01*
X137468Y99267D01*
X137468Y96979D01*
X138612Y95835D01*
X140900Y95835D01*
X142044Y96979D01*
X134560Y98123D02*
X134560Y102699D01*
X134560Y98123D02*
X132272Y95835D01*
X129984Y98123D01*
X129984Y102699D01*
X131335Y65590D02*
X138199Y65590D01*
X138199Y63302D02*
X138199Y67878D01*
X138199Y70786D02*
X131335Y75362D01*
X131335Y70786D02*
X138199Y75362D01*
X138199Y79414D02*
X138199Y81702D01*
X138199Y79414D02*
X137055Y78270D01*
X132479Y78270D01*
X131335Y79414D01*
X131335Y81702D01*
X132479Y82846D01*
X137055Y82846D01*
X138199Y81702D01*
X138699Y39172D02*
X131835Y39172D01*
X138699Y39172D02*
X138699Y42604D01*
X137555Y43748D01*
X135267Y43748D01*
X134123Y42604D01*
X134123Y39172D01*
X134123Y41460D02*
X131835Y43748D01*
X138699Y46656D02*
X131835Y51232D01*
X131835Y46656D02*
X138699Y51232D01*
X131835Y54140D02*
X131835Y56428D01*
X131835Y55284D02*
X138699Y55284D01*
X138699Y54140D02*
X138699Y56428D01*
X151089Y152555D02*
X152233Y153699D01*
X154521Y153699D01*
X155665Y152555D01*
X155665Y147979D01*
X154521Y146835D01*
X152233Y146835D01*
X151089Y147979D01*
X151089Y150267D01*
X153377Y150267D01*
X148181Y146835D02*
X148181Y153699D01*
X143605Y146835D01*
X143605Y153699D01*
X140697Y153699D02*
X140697Y146835D01*
X137265Y146835D01*
X136121Y147979D01*
X136121Y152555D01*
X137265Y153699D01*
X140697Y153699D01*
X152665Y25699D02*
X152665Y18835D01*
X149233Y18835D01*
X148089Y19979D01*
X148089Y24555D01*
X149233Y25699D01*
X152665Y25699D01*
X142893Y25699D02*
X142893Y18835D01*
X145181Y25699D02*
X140605Y25699D01*
X137697Y25699D02*
X137697Y18835D01*
X137697Y25699D02*
X134265Y25699D01*
X133121Y24555D01*
X133121Y22267D01*
X134265Y21123D01*
X137697Y21123D01*
X135409Y21123D02*
X133121Y18835D01*
X150664Y127801D02*
X151808Y128945D01*
X154096Y128945D01*
X155240Y127801D01*
X155240Y123225D01*
X154096Y122081D01*
X151808Y122081D01*
X150664Y123225D01*
X145468Y122081D02*
X145468Y128945D01*
X147756Y128945D02*
X143180Y128945D01*
X136840Y128945D02*
X135696Y127801D01*
X136840Y128945D02*
X139128Y128945D01*
X140272Y127801D01*
X140272Y126657D01*
X139128Y125513D01*
X136840Y125513D01*
X135696Y124369D01*
X135696Y123225D01*
X136840Y122081D01*
X139128Y122081D01*
X140272Y123225D01*
D11*
X176566Y100955D02*
X182328Y100955D01*
X182328Y96634D01*
X179447Y98074D01*
X178006Y98074D01*
X176566Y96634D01*
X176566Y93753D01*
X178006Y92312D01*
X180887Y92312D01*
X182328Y93753D01*
X172973Y95193D02*
X172973Y100955D01*
X172973Y95193D02*
X170092Y92312D01*
X167211Y95193D01*
X167211Y100955D01*
X193967Y80725D02*
X195408Y79285D01*
X193967Y80725D02*
X191086Y80725D01*
X189646Y79285D01*
X189646Y77844D01*
X191086Y76404D01*
X192527Y76404D01*
X191086Y76404D02*
X189646Y74963D01*
X189646Y73523D01*
X191086Y72082D01*
X193967Y72082D01*
X195408Y73523D01*
X186053Y73523D02*
X186053Y72082D01*
X186053Y73523D02*
X184612Y73523D01*
X184612Y72082D01*
X186053Y72082D01*
X181375Y79285D02*
X179935Y80725D01*
X177054Y80725D01*
X175613Y79285D01*
X175613Y77844D01*
X177054Y76404D01*
X178494Y76404D01*
X177054Y76404D02*
X175613Y74963D01*
X175613Y73523D01*
X177054Y72082D01*
X179935Y72082D01*
X181375Y73523D01*
X172020Y74963D02*
X172020Y80725D01*
X172020Y74963D02*
X169139Y72082D01*
X166258Y74963D01*
X166258Y80725D01*
X162560Y73660D02*
X162560Y99060D01*
X142240Y73660D02*
X142242Y73560D01*
X142248Y73461D01*
X142258Y73361D01*
X142271Y73263D01*
X142289Y73164D01*
X142310Y73067D01*
X142335Y72971D01*
X142364Y72875D01*
X142397Y72781D01*
X142433Y72688D01*
X142473Y72597D01*
X142517Y72507D01*
X142564Y72419D01*
X142614Y72333D01*
X142668Y72249D01*
X142725Y72167D01*
X142785Y72088D01*
X142849Y72010D01*
X142915Y71936D01*
X142984Y71864D01*
X143056Y71795D01*
X143130Y71729D01*
X143208Y71665D01*
X143287Y71605D01*
X143369Y71548D01*
X143453Y71494D01*
X143539Y71444D01*
X143627Y71397D01*
X143717Y71353D01*
X143808Y71313D01*
X143901Y71277D01*
X143995Y71244D01*
X144091Y71215D01*
X144187Y71190D01*
X144284Y71169D01*
X144383Y71151D01*
X144481Y71138D01*
X144581Y71128D01*
X144680Y71122D01*
X144780Y71120D01*
X142240Y99060D02*
X142242Y99160D01*
X142248Y99259D01*
X142258Y99359D01*
X142271Y99457D01*
X142289Y99556D01*
X142310Y99653D01*
X142335Y99749D01*
X142364Y99845D01*
X142397Y99939D01*
X142433Y100032D01*
X142473Y100123D01*
X142517Y100213D01*
X142564Y100301D01*
X142614Y100387D01*
X142668Y100471D01*
X142725Y100553D01*
X142785Y100632D01*
X142849Y100710D01*
X142915Y100784D01*
X142984Y100856D01*
X143056Y100925D01*
X143130Y100991D01*
X143208Y101055D01*
X143287Y101115D01*
X143369Y101172D01*
X143453Y101226D01*
X143539Y101276D01*
X143627Y101323D01*
X143717Y101367D01*
X143808Y101407D01*
X143901Y101443D01*
X143995Y101476D01*
X144091Y101505D01*
X144187Y101530D01*
X144284Y101551D01*
X144383Y101569D01*
X144481Y101582D01*
X144581Y101592D01*
X144680Y101598D01*
X144780Y101600D01*
X160020Y101600D02*
X160120Y101598D01*
X160219Y101592D01*
X160319Y101582D01*
X160417Y101569D01*
X160516Y101551D01*
X160613Y101530D01*
X160709Y101505D01*
X160805Y101476D01*
X160899Y101443D01*
X160992Y101407D01*
X161083Y101367D01*
X161173Y101323D01*
X161261Y101276D01*
X161347Y101226D01*
X161431Y101172D01*
X161513Y101115D01*
X161592Y101055D01*
X161670Y100991D01*
X161744Y100925D01*
X161816Y100856D01*
X161885Y100784D01*
X161951Y100710D01*
X162015Y100632D01*
X162075Y100553D01*
X162132Y100471D01*
X162186Y100387D01*
X162236Y100301D01*
X162283Y100213D01*
X162327Y100123D01*
X162367Y100032D01*
X162403Y99939D01*
X162436Y99845D01*
X162465Y99749D01*
X162490Y99653D01*
X162511Y99556D01*
X162529Y99457D01*
X162542Y99359D01*
X162552Y99259D01*
X162558Y99160D01*
X162560Y99060D01*
X162560Y73660D02*
X162558Y73560D01*
X162552Y73461D01*
X162542Y73361D01*
X162529Y73263D01*
X162511Y73164D01*
X162490Y73067D01*
X162465Y72971D01*
X162436Y72875D01*
X162403Y72781D01*
X162367Y72688D01*
X162327Y72597D01*
X162283Y72507D01*
X162236Y72419D01*
X162186Y72333D01*
X162132Y72249D01*
X162075Y72167D01*
X162015Y72088D01*
X161951Y72010D01*
X161885Y71936D01*
X161816Y71864D01*
X161744Y71795D01*
X161670Y71729D01*
X161592Y71665D01*
X161513Y71605D01*
X161431Y71548D01*
X161347Y71494D01*
X161261Y71444D01*
X161173Y71397D01*
X161083Y71353D01*
X160992Y71313D01*
X160899Y71277D01*
X160805Y71244D01*
X160709Y71215D01*
X160613Y71190D01*
X160516Y71169D01*
X160417Y71151D01*
X160319Y71138D01*
X160219Y71128D01*
X160120Y71122D01*
X160020Y71120D01*
X144780Y71120D01*
X144780Y101600D02*
X160020Y101600D01*
X142240Y99060D02*
X142240Y73660D01*
D12*
X139576Y89867D02*
X138941Y90503D01*
X139576Y89867D02*
X139576Y88596D01*
X138941Y87961D01*
X138305Y87961D01*
X137670Y88596D01*
X137670Y89867D01*
X137034Y90503D01*
X136399Y90503D01*
X135763Y89867D01*
X135763Y88596D01*
X136399Y87961D01*
X136399Y91703D02*
X135763Y92338D01*
X135763Y92974D01*
X136399Y93609D01*
X139576Y93609D01*
X139576Y92974D02*
X139576Y94245D01*
X135763Y95445D02*
X135763Y97987D01*
X135763Y95445D02*
X138305Y97987D01*
X138941Y97987D01*
X139576Y97352D01*
X139576Y96080D01*
X138941Y95445D01*
D10*
X84510Y11360D02*
X-490Y11360D01*
X84510Y11360D02*
X84510Y161360D01*
X-490Y161360D01*
X-490Y11360D01*
D13*
X-11068Y12741D02*
X-12609Y14282D01*
X-12609Y15823D01*
X-11068Y17364D01*
X-3363Y17364D01*
X-3363Y15823D02*
X-3363Y18905D01*
X-3363Y21949D02*
X-12609Y21949D01*
X-3363Y21949D02*
X-3363Y26572D01*
X-4904Y28113D01*
X-7986Y28113D01*
X-9527Y26572D01*
X-9527Y21949D01*
X-6445Y31157D02*
X-3363Y34239D01*
X-12609Y34239D01*
X-12609Y31157D02*
X-12609Y37321D01*
M02*
