G04 EAGLE Gerber X2 export*
%TF.Part,Single*%
%TF.FileFunction,Soldermask,Top,1*%
%TF.FilePolarity,Negative*%
%TF.GenerationSoftware,Autodesk,EAGLE,9.1.3*%
%TF.CreationDate,2018-09-14T10:43:52Z*%
G75*
%MOMM*%
%FSLAX34Y34*%
%LPD*%
%AMOC8*
5,1,8,0,0,1.08239X$1,22.5*%
G01*
%ADD10R,1.303200X1.203200*%
%ADD11R,1.603200X1.803200*%
%ADD12R,0.551200X1.600200*%
%ADD13R,1.003200X1.003200*%
%ADD14C,1.203200*%
%ADD15R,4.203200X1.323200*%
%ADD16C,2.503200*%


D10*
X117230Y139700D03*
X134230Y139700D03*
D11*
X87600Y27940D03*
X115600Y27940D03*
D10*
X42300Y27940D03*
X59300Y27940D03*
D12*
X33950Y122920D03*
X40450Y122920D03*
X46950Y122920D03*
X53450Y122920D03*
X59950Y122920D03*
X66450Y122920D03*
X72950Y122920D03*
X85950Y122920D03*
X79450Y122920D03*
X92450Y122920D03*
X98950Y122920D03*
X105450Y122920D03*
X111950Y122920D03*
X118450Y122920D03*
X33950Y49800D03*
X40450Y49800D03*
X46950Y49800D03*
X53450Y49800D03*
X59950Y49800D03*
X66450Y49800D03*
X72950Y49800D03*
X79450Y49800D03*
X85950Y49800D03*
X92450Y49800D03*
X98950Y49800D03*
X105450Y49800D03*
X111950Y49800D03*
X118450Y49800D03*
D10*
X49140Y154940D03*
X32140Y154940D03*
X117230Y154940D03*
X134230Y154940D03*
D13*
X77350Y154940D03*
X62350Y154940D03*
X89020Y154940D03*
X104020Y154940D03*
D14*
X40640Y12446D03*
X217932Y163576D03*
D15*
X228300Y78900D03*
X228300Y98900D03*
X228300Y53900D03*
X228300Y123900D03*
D16*
X265500Y23200D03*
X265500Y154600D03*
M02*
