G04 EAGLE Gerber X2 export*
%TF.Part,Single*%
%TF.FileFunction,Copper,L2,Bot,Mixed*%
%TF.FilePolarity,Positive*%
%TF.GenerationSoftware,Autodesk,EAGLE,9.1.0*%
%TF.CreationDate,2018-08-24T06:26:27Z*%
G75*
%MOMM*%
%FSLAX34Y34*%
%LPD*%
%AMOC8*
5,1,8,0,0,1.08239X$1,22.5*%
G01*
%ADD10R,2.500000X2.500000*%
%ADD11C,1.208000*%
%ADD12C,3.516000*%
%ADD13R,1.300000X1.700000*%
%ADD14C,1.100000*%
%ADD15R,1.524000X4.064000*%
%ADD16C,1.000000*%
%ADD17C,1.778000*%
%ADD18C,0.906400*%
%ADD19C,0.800100*%
%ADD20C,0.203200*%
%ADD21C,0.254000*%
%ADD22C,0.304800*%
%ADD23C,0.609600*%
%ADD24C,0.406400*%

G36*
X489068Y2559D02*
X489068Y2559D01*
X489187Y2566D01*
X489225Y2579D01*
X489265Y2583D01*
X489376Y2627D01*
X489489Y2664D01*
X489523Y2686D01*
X489560Y2700D01*
X489657Y2770D01*
X489758Y2834D01*
X489785Y2863D01*
X489818Y2887D01*
X489894Y2979D01*
X489976Y3066D01*
X489995Y3101D01*
X490021Y3132D01*
X490072Y3240D01*
X490130Y3345D01*
X490140Y3383D01*
X490157Y3419D01*
X490179Y3537D01*
X490209Y3652D01*
X490213Y3712D01*
X490217Y3732D01*
X490215Y3752D01*
X490219Y3813D01*
X490219Y312112D01*
X490207Y312210D01*
X490204Y312309D01*
X490187Y312367D01*
X490179Y312427D01*
X490143Y312519D01*
X490115Y312615D01*
X490085Y312667D01*
X490062Y312723D01*
X490004Y312803D01*
X489999Y312813D01*
X489999Y492100D01*
X489984Y492218D01*
X489977Y492336D01*
X489964Y492375D01*
X489959Y492416D01*
X489915Y492526D01*
X489879Y492639D01*
X489857Y492674D01*
X489842Y492712D01*
X489772Y492807D01*
X489709Y492908D01*
X489679Y492936D01*
X489655Y492969D01*
X489564Y493045D01*
X489477Y493126D01*
X489442Y493146D01*
X489410Y493172D01*
X489303Y493222D01*
X489199Y493280D01*
X489159Y493290D01*
X489122Y493307D01*
X489006Y493329D01*
X488891Y493359D01*
X488830Y493363D01*
X488810Y493367D01*
X488790Y493366D01*
X488731Y493370D01*
X261549Y493564D01*
X261411Y493546D01*
X261271Y493533D01*
X261253Y493527D01*
X261233Y493524D01*
X261103Y493473D01*
X260972Y493426D01*
X260956Y493415D01*
X260937Y493407D01*
X260824Y493325D01*
X260709Y493247D01*
X260696Y493232D01*
X260680Y493221D01*
X260591Y493113D01*
X260498Y493009D01*
X260489Y492991D01*
X260477Y492976D01*
X260417Y492850D01*
X260354Y492725D01*
X260349Y492706D01*
X260341Y492688D01*
X260315Y492551D01*
X260284Y492415D01*
X260285Y492395D01*
X260281Y492376D01*
X260290Y492237D01*
X260294Y492097D01*
X260299Y492078D01*
X260300Y492059D01*
X260343Y491926D01*
X260382Y491792D01*
X260392Y491775D01*
X260398Y491756D01*
X260473Y491638D01*
X260544Y491518D01*
X260562Y491497D01*
X260568Y491487D01*
X260583Y491473D01*
X260650Y491397D01*
X263260Y488787D01*
X264923Y484773D01*
X264923Y483224D01*
X264935Y483126D01*
X264938Y483027D01*
X264955Y482968D01*
X264963Y482908D01*
X264999Y482816D01*
X265027Y482721D01*
X265057Y482669D01*
X265080Y482613D01*
X265138Y482532D01*
X265188Y482447D01*
X265254Y482372D01*
X265266Y482355D01*
X265276Y482347D01*
X265294Y482326D01*
X268966Y478654D01*
X271273Y476348D01*
X271273Y447007D01*
X271290Y446869D01*
X271303Y446731D01*
X271310Y446711D01*
X271313Y446691D01*
X271364Y446562D01*
X271411Y446431D01*
X271422Y446414D01*
X271430Y446396D01*
X271511Y446284D01*
X271589Y446168D01*
X271605Y446155D01*
X271616Y446138D01*
X271724Y446050D01*
X271828Y445958D01*
X271846Y445948D01*
X271861Y445936D01*
X271987Y445876D01*
X272111Y445813D01*
X272131Y445809D01*
X272149Y445800D01*
X272285Y445774D01*
X272421Y445743D01*
X272442Y445744D01*
X272461Y445740D01*
X272600Y445749D01*
X272739Y445753D01*
X272759Y445759D01*
X272779Y445760D01*
X272911Y445803D01*
X273045Y445841D01*
X273062Y445852D01*
X273081Y445858D01*
X273199Y445933D01*
X273319Y446003D01*
X273340Y446022D01*
X273350Y446028D01*
X273364Y446043D01*
X273439Y446109D01*
X283007Y455677D01*
X285974Y455677D01*
X285986Y455666D01*
X286039Y455637D01*
X286087Y455600D01*
X286178Y455560D01*
X286264Y455512D01*
X286323Y455497D01*
X286379Y455473D01*
X286477Y455458D01*
X286572Y455433D01*
X286672Y455427D01*
X286693Y455423D01*
X286705Y455425D01*
X286733Y455423D01*
X293213Y455423D01*
X293311Y455435D01*
X293410Y455438D01*
X293468Y455455D01*
X293529Y455463D01*
X293621Y455499D01*
X293716Y455527D01*
X293768Y455557D01*
X293824Y455580D01*
X293904Y455638D01*
X293990Y455688D01*
X294065Y455754D01*
X294082Y455766D01*
X294089Y455776D01*
X294111Y455794D01*
X296001Y457685D01*
X298414Y458685D01*
X301026Y458685D01*
X303439Y457685D01*
X305285Y455839D01*
X306285Y453426D01*
X306285Y450814D01*
X305285Y448401D01*
X303439Y446555D01*
X301026Y445555D01*
X298414Y445555D01*
X296001Y446555D01*
X294111Y448446D01*
X294032Y448506D01*
X293960Y448574D01*
X293907Y448603D01*
X293859Y448640D01*
X293768Y448680D01*
X293682Y448728D01*
X293623Y448743D01*
X293567Y448767D01*
X293469Y448782D01*
X293374Y448807D01*
X293274Y448813D01*
X293253Y448817D01*
X293241Y448815D01*
X293213Y448817D01*
X286733Y448817D01*
X286635Y448805D01*
X286536Y448802D01*
X286478Y448785D01*
X286417Y448777D01*
X286325Y448741D01*
X286230Y448713D01*
X286178Y448683D01*
X286122Y448660D01*
X286042Y448602D01*
X285956Y448552D01*
X285881Y448486D01*
X285864Y448474D01*
X285857Y448464D01*
X285835Y448446D01*
X266023Y428633D01*
X265938Y428524D01*
X265850Y428417D01*
X265841Y428398D01*
X265828Y428382D01*
X265773Y428254D01*
X265714Y428129D01*
X265710Y428109D01*
X265702Y428090D01*
X265680Y427952D01*
X265654Y427816D01*
X265655Y427796D01*
X265652Y427776D01*
X265665Y427637D01*
X265674Y427499D01*
X265680Y427480D01*
X265682Y427460D01*
X265729Y427328D01*
X265772Y427197D01*
X265783Y427179D01*
X265790Y427160D01*
X265868Y427045D01*
X265942Y426928D01*
X265957Y426914D01*
X265968Y426897D01*
X266072Y426805D01*
X266174Y426710D01*
X266192Y426700D01*
X266207Y426687D01*
X266331Y426623D01*
X266452Y426556D01*
X266472Y426551D01*
X266490Y426542D01*
X266626Y426512D01*
X266760Y426477D01*
X266788Y426475D01*
X266800Y426472D01*
X266821Y426473D01*
X266921Y426467D01*
X315501Y426467D01*
X315599Y426479D01*
X315698Y426482D01*
X315756Y426499D01*
X315817Y426507D01*
X315909Y426543D01*
X316004Y426571D01*
X316056Y426601D01*
X316112Y426624D01*
X316192Y426682D01*
X316278Y426732D01*
X316353Y426798D01*
X316370Y426810D01*
X316373Y426815D01*
X316376Y426817D01*
X316382Y426824D01*
X316399Y426838D01*
X326272Y436711D01*
X326332Y436790D01*
X326400Y436862D01*
X326429Y436915D01*
X326466Y436963D01*
X326506Y437054D01*
X326554Y437140D01*
X326569Y437199D01*
X326593Y437255D01*
X326608Y437353D01*
X326633Y437448D01*
X326639Y437548D01*
X326643Y437569D01*
X326641Y437581D01*
X326643Y437609D01*
X326643Y445867D01*
X326631Y445965D01*
X326628Y446064D01*
X326611Y446122D01*
X326603Y446183D01*
X326567Y446275D01*
X326539Y446370D01*
X326509Y446422D01*
X326486Y446478D01*
X326428Y446558D01*
X326378Y446644D01*
X326312Y446719D01*
X326300Y446736D01*
X326290Y446743D01*
X326272Y446765D01*
X324635Y448401D01*
X323635Y450814D01*
X323635Y453426D01*
X324635Y455839D01*
X326481Y457685D01*
X328894Y458685D01*
X331506Y458685D01*
X333919Y457685D01*
X335765Y455839D01*
X336765Y453426D01*
X336765Y450814D01*
X335765Y448401D01*
X334128Y446765D01*
X334068Y446686D01*
X334000Y446614D01*
X333971Y446561D01*
X333934Y446513D01*
X333894Y446422D01*
X333846Y446336D01*
X333831Y446277D01*
X333807Y446221D01*
X333792Y446123D01*
X333767Y446028D01*
X333761Y445928D01*
X333757Y445907D01*
X333759Y445895D01*
X333757Y445867D01*
X333757Y434137D01*
X318973Y419353D01*
X269969Y419353D01*
X269871Y419341D01*
X269772Y419338D01*
X269714Y419321D01*
X269653Y419313D01*
X269561Y419277D01*
X269466Y419249D01*
X269414Y419219D01*
X269358Y419196D01*
X269278Y419138D01*
X269192Y419088D01*
X269117Y419022D01*
X269100Y419010D01*
X269093Y419000D01*
X269071Y418982D01*
X251044Y400954D01*
X251001Y400899D01*
X250951Y400851D01*
X250905Y400774D01*
X250849Y400703D01*
X250822Y400639D01*
X250785Y400580D01*
X250759Y400494D01*
X250723Y400411D01*
X250712Y400342D01*
X250692Y400276D01*
X250687Y400186D01*
X250673Y400097D01*
X250680Y400028D01*
X250676Y399958D01*
X250695Y399870D01*
X250703Y399781D01*
X250727Y399715D01*
X250741Y399647D01*
X250780Y399566D01*
X250811Y399481D01*
X250850Y399424D01*
X250881Y399361D01*
X250939Y399293D01*
X250989Y399218D01*
X251042Y399172D01*
X251087Y399119D01*
X251160Y399067D01*
X251228Y399008D01*
X251290Y398976D01*
X251347Y398936D01*
X251431Y398904D01*
X251511Y398863D01*
X251579Y398848D01*
X251644Y398823D01*
X251734Y398813D01*
X251821Y398793D01*
X251891Y398796D01*
X251960Y398788D01*
X252049Y398800D01*
X252139Y398803D01*
X252206Y398822D01*
X252275Y398832D01*
X252428Y398884D01*
X252694Y398995D01*
X255306Y398995D01*
X257719Y397995D01*
X259565Y396149D01*
X260649Y393532D01*
X260674Y393489D01*
X260691Y393442D01*
X260752Y393351D01*
X260807Y393256D01*
X260841Y393220D01*
X260869Y393179D01*
X260952Y393106D01*
X261028Y393027D01*
X261070Y393001D01*
X261108Y392968D01*
X261205Y392918D01*
X261299Y392861D01*
X261347Y392846D01*
X261391Y392824D01*
X261498Y392800D01*
X261603Y392767D01*
X261653Y392765D01*
X261701Y392754D01*
X261811Y392757D01*
X261921Y392752D01*
X261969Y392762D01*
X262019Y392764D01*
X262125Y392794D01*
X262232Y392816D01*
X262277Y392838D01*
X262325Y392852D01*
X262419Y392908D01*
X262518Y392956D01*
X262556Y392988D01*
X262599Y393014D01*
X262719Y393120D01*
X263574Y393974D01*
X263634Y394052D01*
X263702Y394125D01*
X263731Y394178D01*
X263768Y394226D01*
X263808Y394316D01*
X263856Y394403D01*
X263871Y394462D01*
X263895Y394517D01*
X263910Y394615D01*
X263935Y394711D01*
X263941Y394811D01*
X263945Y394832D01*
X263943Y394844D01*
X263945Y394872D01*
X263945Y397546D01*
X264945Y399959D01*
X266791Y401805D01*
X269204Y402805D01*
X271816Y402805D01*
X274229Y401805D01*
X276075Y399959D01*
X277075Y397546D01*
X277075Y394934D01*
X276075Y392521D01*
X274229Y390675D01*
X271816Y389675D01*
X269142Y389675D01*
X269044Y389663D01*
X268945Y389660D01*
X268886Y389643D01*
X268826Y389635D01*
X268734Y389599D01*
X268639Y389571D01*
X268587Y389541D01*
X268531Y389518D01*
X268450Y389460D01*
X268365Y389410D01*
X268290Y389344D01*
X268273Y389332D01*
X268268Y389325D01*
X268263Y389321D01*
X268259Y389316D01*
X268244Y389304D01*
X267790Y388850D01*
X267705Y388740D01*
X267616Y388633D01*
X267608Y388614D01*
X267595Y388598D01*
X267540Y388471D01*
X267481Y388345D01*
X267477Y388325D01*
X267469Y388306D01*
X267447Y388169D01*
X267421Y388032D01*
X267422Y388012D01*
X267419Y387992D01*
X267432Y387853D01*
X267441Y387715D01*
X267447Y387696D01*
X267449Y387676D01*
X267496Y387544D01*
X267539Y387413D01*
X267550Y387396D01*
X267556Y387376D01*
X267635Y387261D01*
X267709Y387144D01*
X267724Y387130D01*
X267735Y387113D01*
X267839Y387021D01*
X267941Y386926D01*
X267958Y386916D01*
X267973Y386903D01*
X268098Y386839D01*
X268219Y386772D01*
X268239Y386767D01*
X268257Y386758D01*
X268393Y386728D01*
X268527Y386693D01*
X268555Y386691D01*
X268567Y386688D01*
X268588Y386689D01*
X268688Y386683D01*
X280172Y386683D01*
X281363Y385492D01*
X281363Y366808D01*
X280172Y365617D01*
X277402Y365617D01*
X277284Y365602D01*
X277165Y365595D01*
X277127Y365582D01*
X277086Y365577D01*
X276976Y365534D01*
X276863Y365497D01*
X276828Y365475D01*
X276791Y365460D01*
X276695Y365391D01*
X276594Y365327D01*
X276566Y365297D01*
X276533Y365274D01*
X276457Y365182D01*
X276376Y365095D01*
X276356Y365060D01*
X276331Y365029D01*
X276280Y364921D01*
X276222Y364817D01*
X276212Y364777D01*
X276195Y364741D01*
X276173Y364624D01*
X276143Y364509D01*
X276139Y364449D01*
X276135Y364429D01*
X276137Y364408D01*
X276133Y364348D01*
X276133Y334854D01*
X276145Y334756D01*
X276148Y334657D01*
X276165Y334598D01*
X276173Y334538D01*
X276209Y334446D01*
X276237Y334351D01*
X276267Y334299D01*
X276290Y334243D01*
X276348Y334163D01*
X276398Y334077D01*
X276464Y334002D01*
X276476Y333985D01*
X276486Y333977D01*
X276504Y333956D01*
X292761Y317700D01*
X292870Y317615D01*
X292977Y317526D01*
X292996Y317518D01*
X293012Y317505D01*
X293140Y317450D01*
X293265Y317391D01*
X293285Y317387D01*
X293304Y317379D01*
X293442Y317357D01*
X293578Y317331D01*
X293598Y317332D01*
X293618Y317329D01*
X293757Y317342D01*
X293895Y317351D01*
X293914Y317357D01*
X293934Y317359D01*
X294066Y317406D01*
X294197Y317449D01*
X294215Y317460D01*
X294234Y317467D01*
X294349Y317545D01*
X294466Y317619D01*
X294480Y317634D01*
X294497Y317645D01*
X294589Y317749D01*
X294684Y317851D01*
X294694Y317868D01*
X294707Y317884D01*
X294771Y318007D01*
X294838Y318129D01*
X294843Y318149D01*
X294852Y318167D01*
X294882Y318303D01*
X294917Y318437D01*
X294919Y318465D01*
X294922Y318477D01*
X294921Y318497D01*
X294927Y318598D01*
X294927Y364348D01*
X294912Y364466D01*
X294905Y364585D01*
X294892Y364623D01*
X294887Y364664D01*
X294844Y364774D01*
X294807Y364887D01*
X294785Y364922D01*
X294770Y364959D01*
X294701Y365055D01*
X294637Y365156D01*
X294607Y365184D01*
X294584Y365217D01*
X294492Y365293D01*
X294405Y365374D01*
X294370Y365394D01*
X294339Y365419D01*
X294231Y365470D01*
X294127Y365528D01*
X294087Y365538D01*
X294051Y365555D01*
X293934Y365577D01*
X293819Y365607D01*
X293759Y365611D01*
X293739Y365615D01*
X293718Y365613D01*
X293658Y365617D01*
X290888Y365617D01*
X289697Y366808D01*
X289697Y385492D01*
X290888Y386683D01*
X305572Y386683D01*
X306763Y385492D01*
X306763Y366808D01*
X305572Y365617D01*
X302802Y365617D01*
X302684Y365602D01*
X302565Y365595D01*
X302527Y365582D01*
X302486Y365577D01*
X302376Y365534D01*
X302263Y365497D01*
X302228Y365475D01*
X302191Y365460D01*
X302095Y365391D01*
X301994Y365327D01*
X301966Y365297D01*
X301933Y365274D01*
X301857Y365182D01*
X301776Y365095D01*
X301756Y365060D01*
X301731Y365029D01*
X301680Y364921D01*
X301622Y364817D01*
X301612Y364777D01*
X301595Y364741D01*
X301573Y364624D01*
X301543Y364509D01*
X301539Y364449D01*
X301535Y364429D01*
X301537Y364408D01*
X301533Y364348D01*
X301533Y320884D01*
X301545Y320786D01*
X301548Y320687D01*
X301565Y320628D01*
X301573Y320568D01*
X301609Y320476D01*
X301637Y320381D01*
X301667Y320329D01*
X301690Y320273D01*
X301748Y320193D01*
X301798Y320107D01*
X301864Y320032D01*
X301876Y320015D01*
X301886Y320007D01*
X301904Y319986D01*
X318161Y303730D01*
X318270Y303645D01*
X318377Y303556D01*
X318396Y303548D01*
X318412Y303535D01*
X318540Y303480D01*
X318665Y303421D01*
X318685Y303417D01*
X318704Y303409D01*
X318842Y303387D01*
X318978Y303361D01*
X318998Y303362D01*
X319018Y303359D01*
X319157Y303372D01*
X319295Y303381D01*
X319314Y303387D01*
X319334Y303389D01*
X319466Y303436D01*
X319597Y303479D01*
X319615Y303490D01*
X319634Y303497D01*
X319749Y303575D01*
X319866Y303649D01*
X319880Y303664D01*
X319897Y303675D01*
X319989Y303779D01*
X320084Y303881D01*
X320094Y303898D01*
X320107Y303914D01*
X320171Y304037D01*
X320238Y304159D01*
X320243Y304179D01*
X320252Y304197D01*
X320282Y304333D01*
X320317Y304467D01*
X320319Y304495D01*
X320322Y304507D01*
X320321Y304528D01*
X320327Y304628D01*
X320327Y364348D01*
X320312Y364466D01*
X320305Y364585D01*
X320292Y364623D01*
X320287Y364664D01*
X320244Y364774D01*
X320207Y364887D01*
X320185Y364922D01*
X320170Y364959D01*
X320101Y365055D01*
X320037Y365156D01*
X320007Y365184D01*
X319984Y365217D01*
X319892Y365293D01*
X319805Y365374D01*
X319770Y365394D01*
X319739Y365419D01*
X319631Y365470D01*
X319527Y365528D01*
X319487Y365538D01*
X319451Y365555D01*
X319334Y365577D01*
X319219Y365607D01*
X319159Y365611D01*
X319139Y365615D01*
X319118Y365613D01*
X319058Y365617D01*
X316288Y365617D01*
X315097Y366808D01*
X315097Y385492D01*
X316288Y386683D01*
X330972Y386683D01*
X332163Y385492D01*
X332163Y366808D01*
X330972Y365617D01*
X328202Y365617D01*
X328084Y365602D01*
X327965Y365595D01*
X327927Y365582D01*
X327886Y365577D01*
X327776Y365534D01*
X327663Y365497D01*
X327628Y365475D01*
X327591Y365460D01*
X327495Y365391D01*
X327394Y365327D01*
X327366Y365297D01*
X327333Y365274D01*
X327257Y365182D01*
X327176Y365095D01*
X327156Y365060D01*
X327131Y365029D01*
X327080Y364921D01*
X327022Y364817D01*
X327012Y364777D01*
X326995Y364741D01*
X326973Y364624D01*
X326943Y364509D01*
X326939Y364449D01*
X326935Y364429D01*
X326937Y364408D01*
X326933Y364348D01*
X326933Y316304D01*
X326950Y316166D01*
X326963Y316028D01*
X326970Y316009D01*
X326973Y315989D01*
X327024Y315860D01*
X327071Y315729D01*
X327082Y315712D01*
X327090Y315693D01*
X327171Y315581D01*
X327249Y315465D01*
X327265Y315452D01*
X327276Y315436D01*
X327384Y315347D01*
X327488Y315255D01*
X327506Y315246D01*
X327521Y315233D01*
X327647Y315174D01*
X327771Y315110D01*
X327791Y315106D01*
X327809Y315097D01*
X327946Y315071D01*
X328081Y315041D01*
X328102Y315041D01*
X328121Y315038D01*
X328260Y315046D01*
X328399Y315050D01*
X328419Y315056D01*
X328439Y315057D01*
X328571Y315100D01*
X328705Y315139D01*
X328722Y315149D01*
X328741Y315155D01*
X328859Y315230D01*
X328979Y315300D01*
X329000Y315319D01*
X329010Y315325D01*
X329024Y315340D01*
X329099Y315407D01*
X329957Y316265D01*
X332175Y317183D01*
X334575Y317183D01*
X336793Y316265D01*
X338490Y314568D01*
X339408Y312350D01*
X339408Y309954D01*
X339421Y309856D01*
X339424Y309757D01*
X339440Y309699D01*
X339448Y309639D01*
X339485Y309546D01*
X339512Y309451D01*
X339543Y309399D01*
X339565Y309343D01*
X339623Y309263D01*
X339674Y309177D01*
X339740Y309102D01*
X339752Y309086D01*
X339761Y309078D01*
X339780Y309057D01*
X409449Y239388D01*
X409449Y30487D01*
X403550Y24589D01*
X403532Y24566D01*
X403510Y24546D01*
X403435Y24440D01*
X403355Y24338D01*
X403344Y24311D01*
X403327Y24286D01*
X403281Y24165D01*
X403229Y24046D01*
X403225Y24017D01*
X403214Y23989D01*
X403200Y23860D01*
X403179Y23732D01*
X403182Y23702D01*
X403179Y23673D01*
X403197Y23544D01*
X403209Y23415D01*
X403219Y23387D01*
X403223Y23358D01*
X403275Y23206D01*
X404623Y19953D01*
X404623Y15607D01*
X402960Y11593D01*
X399887Y8520D01*
X395873Y6857D01*
X391527Y6857D01*
X387513Y8520D01*
X384440Y11593D01*
X382777Y15607D01*
X382777Y19953D01*
X384440Y23967D01*
X387513Y27040D01*
X391527Y28703D01*
X395873Y28703D01*
X397330Y28099D01*
X397358Y28091D01*
X397384Y28078D01*
X397511Y28050D01*
X397636Y28015D01*
X397666Y28015D01*
X397695Y28008D01*
X397824Y28012D01*
X397954Y28010D01*
X397983Y28017D01*
X398013Y28018D01*
X398137Y28054D01*
X398264Y28084D01*
X398290Y28098D01*
X398318Y28106D01*
X398430Y28172D01*
X398545Y28233D01*
X398567Y28253D01*
X398592Y28268D01*
X398713Y28374D01*
X402980Y32641D01*
X403040Y32719D01*
X403108Y32791D01*
X403137Y32844D01*
X403174Y32892D01*
X403214Y32983D01*
X403262Y33070D01*
X403277Y33129D01*
X403301Y33184D01*
X403316Y33282D01*
X403341Y33378D01*
X403347Y33478D01*
X403351Y33498D01*
X403349Y33511D01*
X403351Y33539D01*
X403351Y236336D01*
X403339Y236435D01*
X403336Y236534D01*
X403319Y236592D01*
X403311Y236652D01*
X403275Y236744D01*
X403247Y236839D01*
X403217Y236891D01*
X403194Y236948D01*
X403136Y237028D01*
X403086Y237113D01*
X403020Y237188D01*
X403008Y237205D01*
X402998Y237213D01*
X402980Y237234D01*
X387297Y252916D01*
X387242Y252959D01*
X387194Y253009D01*
X387117Y253056D01*
X387046Y253111D01*
X386982Y253139D01*
X386923Y253175D01*
X386837Y253202D01*
X386754Y253237D01*
X386685Y253248D01*
X386619Y253269D01*
X386529Y253273D01*
X386440Y253287D01*
X386371Y253281D01*
X386301Y253284D01*
X386213Y253266D01*
X386124Y253257D01*
X386058Y253234D01*
X385990Y253220D01*
X385909Y253180D01*
X385824Y253150D01*
X385767Y253111D01*
X385704Y253080D01*
X385635Y253022D01*
X385561Y252971D01*
X385515Y252919D01*
X385462Y252874D01*
X385410Y252800D01*
X385351Y252733D01*
X385319Y252671D01*
X385279Y252614D01*
X385247Y252530D01*
X385206Y252450D01*
X385191Y252381D01*
X385166Y252316D01*
X385156Y252227D01*
X385136Y252139D01*
X385139Y252069D01*
X385131Y252000D01*
X385143Y251911D01*
X385146Y251821D01*
X385165Y251754D01*
X385175Y251685D01*
X385227Y251533D01*
X386295Y248956D01*
X386295Y246344D01*
X385295Y243931D01*
X383449Y242085D01*
X381036Y241085D01*
X378424Y241085D01*
X376011Y242085D01*
X374165Y243931D01*
X373165Y246344D01*
X373165Y248956D01*
X373757Y250384D01*
X373765Y250413D01*
X373778Y250439D01*
X373807Y250566D01*
X373841Y250691D01*
X373841Y250720D01*
X373848Y250749D01*
X373844Y250879D01*
X373846Y251009D01*
X373839Y251038D01*
X373838Y251067D01*
X373802Y251192D01*
X373772Y251318D01*
X373758Y251344D01*
X373750Y251373D01*
X373684Y251484D01*
X373623Y251599D01*
X373603Y251621D01*
X373588Y251647D01*
X373482Y251767D01*
X366859Y258390D01*
X366820Y258420D01*
X366787Y258457D01*
X366695Y258517D01*
X366608Y258585D01*
X366562Y258605D01*
X366521Y258632D01*
X366417Y258668D01*
X366316Y258711D01*
X366267Y258719D01*
X366220Y258735D01*
X366111Y258744D01*
X366002Y258761D01*
X365953Y258756D01*
X365903Y258760D01*
X365795Y258742D01*
X365685Y258731D01*
X365639Y258714D01*
X365590Y258706D01*
X365490Y258661D01*
X365386Y258624D01*
X365345Y258596D01*
X365300Y258575D01*
X365214Y258507D01*
X365123Y258445D01*
X365090Y258408D01*
X365051Y258377D01*
X364985Y258289D01*
X364913Y258207D01*
X364890Y258162D01*
X364860Y258123D01*
X364789Y257978D01*
X363705Y255361D01*
X361859Y253515D01*
X360140Y252803D01*
X360097Y252778D01*
X360050Y252761D01*
X359959Y252700D01*
X359864Y252645D01*
X359828Y252611D01*
X359787Y252583D01*
X359714Y252500D01*
X359635Y252424D01*
X359609Y252382D01*
X359576Y252344D01*
X359526Y252246D01*
X359469Y252153D01*
X359454Y252105D01*
X359432Y252061D01*
X359408Y251954D01*
X359375Y251849D01*
X359373Y251799D01*
X359362Y251751D01*
X359365Y251641D01*
X359360Y251531D01*
X359370Y251483D01*
X359372Y251433D01*
X359402Y251327D01*
X359425Y251220D01*
X359446Y251175D01*
X359460Y251127D01*
X359516Y251033D01*
X359564Y250934D01*
X359597Y250896D01*
X359622Y250853D01*
X359728Y250733D01*
X375646Y234814D01*
X377953Y232508D01*
X377953Y162717D01*
X377965Y162619D01*
X377968Y162520D01*
X377985Y162462D01*
X377993Y162401D01*
X378029Y162309D01*
X378057Y162214D01*
X378087Y162162D01*
X378110Y162106D01*
X378168Y162026D01*
X378218Y161940D01*
X378284Y161865D01*
X378296Y161848D01*
X378306Y161841D01*
X378324Y161819D01*
X380215Y159929D01*
X381215Y157516D01*
X381215Y154904D01*
X380215Y152491D01*
X378324Y150601D01*
X378264Y150522D01*
X378196Y150450D01*
X378167Y150397D01*
X378130Y150349D01*
X378090Y150258D01*
X378042Y150172D01*
X378027Y150113D01*
X378003Y150057D01*
X377988Y149959D01*
X377963Y149864D01*
X377957Y149764D01*
X377953Y149743D01*
X377955Y149731D01*
X377953Y149703D01*
X377953Y115472D01*
X361266Y98786D01*
X361206Y98707D01*
X361138Y98635D01*
X361109Y98582D01*
X361072Y98534D01*
X361032Y98443D01*
X360984Y98357D01*
X360969Y98298D01*
X360945Y98243D01*
X360930Y98145D01*
X360905Y98049D01*
X360899Y97949D01*
X360895Y97928D01*
X360897Y97916D01*
X360895Y97888D01*
X360895Y95214D01*
X359895Y92801D01*
X358049Y90955D01*
X355636Y89955D01*
X353024Y89955D01*
X350879Y90844D01*
X350831Y90857D01*
X350786Y90878D01*
X350678Y90899D01*
X350572Y90928D01*
X350522Y90929D01*
X350473Y90938D01*
X350364Y90931D01*
X350254Y90933D01*
X350206Y90921D01*
X350156Y90918D01*
X350052Y90884D01*
X349945Y90859D01*
X349901Y90836D01*
X349854Y90820D01*
X349761Y90761D01*
X349664Y90710D01*
X349627Y90677D01*
X349585Y90650D01*
X349510Y90570D01*
X349428Y90496D01*
X349401Y90455D01*
X349367Y90418D01*
X349314Y90322D01*
X349254Y90230D01*
X349237Y90183D01*
X349213Y90140D01*
X349186Y90034D01*
X349150Y89930D01*
X349146Y89880D01*
X349134Y89832D01*
X349124Y89671D01*
X349124Y71639D01*
X349136Y71540D01*
X349139Y71441D01*
X349156Y71383D01*
X349164Y71323D01*
X349200Y71231D01*
X349228Y71136D01*
X349258Y71084D01*
X349281Y71027D01*
X349339Y70947D01*
X349389Y70862D01*
X349455Y70787D01*
X349467Y70770D01*
X349477Y70762D01*
X349495Y70741D01*
X371349Y48888D01*
X371349Y29188D01*
X371352Y29159D01*
X371350Y29129D01*
X371366Y29035D01*
X371371Y28961D01*
X371381Y28929D01*
X371389Y28872D01*
X371399Y28845D01*
X371404Y28816D01*
X371453Y28708D01*
X371469Y28659D01*
X371480Y28642D01*
X371506Y28577D01*
X371523Y28553D01*
X371535Y28526D01*
X371616Y28424D01*
X371626Y28411D01*
X371639Y28390D01*
X371645Y28384D01*
X371692Y28319D01*
X371715Y28301D01*
X371734Y28277D01*
X371837Y28199D01*
X371937Y28117D01*
X371964Y28104D01*
X371988Y28086D01*
X372132Y28015D01*
X374487Y27040D01*
X377560Y23967D01*
X379223Y19953D01*
X379223Y15607D01*
X377560Y11593D01*
X374487Y8520D01*
X370473Y6857D01*
X366127Y6857D01*
X362113Y8520D01*
X359040Y11593D01*
X357377Y15607D01*
X357377Y19953D01*
X359040Y23967D01*
X362113Y27040D01*
X364468Y28015D01*
X364493Y28030D01*
X364521Y28039D01*
X364631Y28108D01*
X364744Y28173D01*
X364765Y28193D01*
X364790Y28209D01*
X364848Y28271D01*
X364851Y28273D01*
X364856Y28279D01*
X364879Y28304D01*
X364972Y28394D01*
X364988Y28419D01*
X365008Y28441D01*
X365044Y28507D01*
X365053Y28518D01*
X365071Y28555D01*
X365139Y28665D01*
X365147Y28693D01*
X365162Y28719D01*
X365178Y28781D01*
X365189Y28805D01*
X365201Y28866D01*
X365232Y28969D01*
X365234Y28999D01*
X365241Y29027D01*
X365246Y29103D01*
X365249Y29118D01*
X365248Y29133D01*
X365251Y29188D01*
X365251Y45836D01*
X365239Y45935D01*
X365236Y46034D01*
X365219Y46092D01*
X365211Y46152D01*
X365175Y46244D01*
X365147Y46339D01*
X365117Y46391D01*
X365094Y46448D01*
X365036Y46528D01*
X364986Y46613D01*
X364920Y46688D01*
X364908Y46705D01*
X364898Y46713D01*
X364880Y46734D01*
X343026Y68587D01*
X343026Y102863D01*
X355355Y115191D01*
X355415Y115269D01*
X355483Y115341D01*
X355512Y115394D01*
X355549Y115442D01*
X355589Y115533D01*
X355637Y115620D01*
X355652Y115679D01*
X355676Y115734D01*
X355691Y115832D01*
X355716Y115928D01*
X355722Y116028D01*
X355726Y116048D01*
X355724Y116061D01*
X355726Y116089D01*
X355726Y160136D01*
X355714Y160235D01*
X355711Y160334D01*
X355694Y160392D01*
X355686Y160452D01*
X355650Y160544D01*
X355622Y160639D01*
X355592Y160691D01*
X355569Y160748D01*
X355511Y160828D01*
X355461Y160913D01*
X355395Y160988D01*
X355383Y161005D01*
X355373Y161013D01*
X355355Y161034D01*
X351343Y165045D01*
X351265Y165106D01*
X351193Y165174D01*
X351140Y165203D01*
X351092Y165240D01*
X351001Y165279D01*
X350915Y165327D01*
X350856Y165342D01*
X350800Y165366D01*
X350702Y165382D01*
X350607Y165407D01*
X350507Y165413D01*
X350486Y165416D01*
X350474Y165415D01*
X350446Y165417D01*
X348050Y165417D01*
X345832Y166335D01*
X344135Y168032D01*
X343217Y170250D01*
X343217Y172650D01*
X344135Y174868D01*
X345832Y176565D01*
X348050Y177483D01*
X350450Y177483D01*
X352668Y176565D01*
X354365Y174868D01*
X355283Y172650D01*
X355283Y170254D01*
X355296Y170156D01*
X355299Y170057D01*
X355315Y169999D01*
X355323Y169939D01*
X355360Y169846D01*
X355387Y169751D01*
X355418Y169699D01*
X355440Y169643D01*
X355498Y169563D01*
X355549Y169477D01*
X355615Y169402D01*
X355627Y169385D01*
X355636Y169378D01*
X355655Y169357D01*
X359666Y165345D01*
X361824Y163188D01*
X361824Y113037D01*
X354038Y105251D01*
X353953Y105142D01*
X353864Y105035D01*
X353856Y105016D01*
X353843Y105000D01*
X353788Y104872D01*
X353729Y104747D01*
X353725Y104727D01*
X353717Y104708D01*
X353695Y104570D01*
X353669Y104434D01*
X353670Y104414D01*
X353667Y104394D01*
X353680Y104255D01*
X353689Y104117D01*
X353695Y104098D01*
X353697Y104078D01*
X353744Y103946D01*
X353787Y103815D01*
X353797Y103797D01*
X353804Y103778D01*
X353882Y103663D01*
X353957Y103546D01*
X353972Y103532D01*
X353983Y103515D01*
X354087Y103423D01*
X354188Y103328D01*
X354206Y103318D01*
X354221Y103305D01*
X354345Y103241D01*
X354467Y103174D01*
X354486Y103169D01*
X354505Y103160D01*
X354640Y103130D01*
X354775Y103095D01*
X354803Y103093D01*
X354815Y103090D01*
X354835Y103091D01*
X354936Y103085D01*
X355698Y103085D01*
X355796Y103097D01*
X355895Y103100D01*
X355954Y103117D01*
X356014Y103125D01*
X356106Y103161D01*
X356201Y103189D01*
X356253Y103219D01*
X356309Y103242D01*
X356389Y103300D01*
X356475Y103350D01*
X356550Y103416D01*
X356567Y103428D01*
X356575Y103438D01*
X356596Y103456D01*
X370976Y117836D01*
X371036Y117915D01*
X371104Y117987D01*
X371133Y118040D01*
X371170Y118088D01*
X371210Y118179D01*
X371258Y118265D01*
X371273Y118324D01*
X371297Y118379D01*
X371312Y118477D01*
X371337Y118573D01*
X371343Y118673D01*
X371347Y118694D01*
X371345Y118706D01*
X371347Y118734D01*
X371347Y149703D01*
X371335Y149801D01*
X371332Y149900D01*
X371315Y149958D01*
X371307Y150019D01*
X371271Y150111D01*
X371243Y150206D01*
X371213Y150258D01*
X371190Y150314D01*
X371132Y150394D01*
X371082Y150480D01*
X371016Y150555D01*
X371004Y150572D01*
X370994Y150579D01*
X370976Y150601D01*
X369085Y152491D01*
X368085Y154904D01*
X368085Y157516D01*
X369085Y159929D01*
X370976Y161819D01*
X371036Y161898D01*
X371104Y161970D01*
X371133Y162023D01*
X371170Y162071D01*
X371210Y162162D01*
X371258Y162248D01*
X371273Y162307D01*
X371297Y162363D01*
X371312Y162461D01*
X371337Y162556D01*
X371343Y162656D01*
X371347Y162677D01*
X371345Y162689D01*
X371347Y162717D01*
X371347Y229246D01*
X371335Y229344D01*
X371332Y229443D01*
X371315Y229502D01*
X371307Y229562D01*
X371271Y229654D01*
X371243Y229749D01*
X371213Y229801D01*
X371190Y229857D01*
X371132Y229937D01*
X371082Y230023D01*
X371016Y230098D01*
X371004Y230115D01*
X370994Y230123D01*
X370976Y230144D01*
X322452Y278668D01*
X322412Y278698D01*
X322379Y278735D01*
X322287Y278795D01*
X322200Y278863D01*
X322155Y278882D01*
X322113Y278910D01*
X322009Y278945D01*
X321908Y278989D01*
X321859Y278997D01*
X321812Y279013D01*
X321703Y279022D01*
X321594Y279039D01*
X321545Y279034D01*
X321495Y279038D01*
X321387Y279019D01*
X321278Y279009D01*
X321231Y278992D01*
X321182Y278984D01*
X321082Y278939D01*
X320978Y278901D01*
X320937Y278873D01*
X320892Y278853D01*
X320806Y278785D01*
X320715Y278723D01*
X320682Y278686D01*
X320644Y278655D01*
X320577Y278567D01*
X320505Y278484D01*
X320482Y278440D01*
X320452Y278400D01*
X320381Y278256D01*
X319440Y275982D01*
X317745Y274288D01*
X317685Y274210D01*
X317617Y274138D01*
X317588Y274085D01*
X317551Y274037D01*
X317511Y273946D01*
X317463Y273859D01*
X317448Y273801D01*
X317424Y273745D01*
X317409Y273647D01*
X317384Y273551D01*
X317378Y273451D01*
X317374Y273431D01*
X317376Y273419D01*
X317374Y273391D01*
X317374Y271664D01*
X317386Y271565D01*
X317389Y271466D01*
X317406Y271408D01*
X317414Y271348D01*
X317450Y271256D01*
X317478Y271161D01*
X317508Y271109D01*
X317531Y271052D01*
X317589Y270972D01*
X317639Y270887D01*
X317705Y270812D01*
X317717Y270795D01*
X317727Y270787D01*
X317745Y270766D01*
X328107Y260405D01*
X328185Y260344D01*
X328257Y260276D01*
X328310Y260247D01*
X328358Y260210D01*
X328449Y260171D01*
X328535Y260123D01*
X328594Y260108D01*
X328650Y260084D01*
X328748Y260068D01*
X328843Y260043D01*
X328943Y260037D01*
X328964Y260034D01*
X328976Y260035D01*
X329004Y260033D01*
X331400Y260033D01*
X333618Y259115D01*
X335315Y257418D01*
X336233Y255200D01*
X336233Y252800D01*
X335315Y250582D01*
X333618Y248885D01*
X331167Y247870D01*
X331052Y247829D01*
X331035Y247817D01*
X331016Y247810D01*
X330904Y247728D01*
X330789Y247650D01*
X330775Y247635D01*
X330759Y247623D01*
X330670Y247516D01*
X330578Y247412D01*
X330569Y247394D01*
X330556Y247378D01*
X330497Y247252D01*
X330434Y247128D01*
X330429Y247109D01*
X330421Y247090D01*
X330394Y246954D01*
X330364Y246818D01*
X330365Y246798D01*
X330361Y246778D01*
X330369Y246640D01*
X330374Y246500D01*
X330379Y246481D01*
X330380Y246461D01*
X330423Y246329D01*
X330462Y246195D01*
X330472Y246177D01*
X330479Y246158D01*
X330553Y246041D01*
X330624Y245921D01*
X330642Y245900D01*
X330649Y245889D01*
X330664Y245875D01*
X330730Y245800D01*
X331232Y245298D01*
X331232Y245283D01*
X331249Y245224D01*
X331257Y245164D01*
X331293Y245072D01*
X331321Y244977D01*
X331351Y244925D01*
X331374Y244869D01*
X331432Y244789D01*
X331482Y244703D01*
X331548Y244628D01*
X331560Y244611D01*
X331570Y244603D01*
X331588Y244582D01*
X339853Y236318D01*
X339853Y107852D01*
X332056Y100056D01*
X331996Y99977D01*
X331928Y99905D01*
X331899Y99852D01*
X331862Y99804D01*
X331822Y99713D01*
X331774Y99627D01*
X331759Y99568D01*
X331735Y99513D01*
X331720Y99415D01*
X331695Y99319D01*
X331689Y99219D01*
X331685Y99198D01*
X331687Y99186D01*
X331685Y99158D01*
X331685Y96484D01*
X330685Y94071D01*
X328839Y92225D01*
X326426Y91225D01*
X323814Y91225D01*
X321401Y92225D01*
X321152Y92475D01*
X321042Y92560D01*
X320935Y92648D01*
X320916Y92657D01*
X320900Y92670D01*
X320773Y92725D01*
X320647Y92784D01*
X320627Y92788D01*
X320608Y92796D01*
X320471Y92818D01*
X320334Y92844D01*
X320314Y92843D01*
X320294Y92846D01*
X320155Y92833D01*
X320017Y92824D01*
X319998Y92818D01*
X319978Y92816D01*
X319846Y92769D01*
X319715Y92726D01*
X319698Y92715D01*
X319678Y92708D01*
X319563Y92630D01*
X319446Y92556D01*
X319432Y92541D01*
X319415Y92530D01*
X319323Y92426D01*
X319228Y92324D01*
X319218Y92307D01*
X319205Y92291D01*
X319141Y92167D01*
X319074Y92046D01*
X319069Y92026D01*
X319060Y92008D01*
X319030Y91872D01*
X318995Y91738D01*
X318993Y91710D01*
X318990Y91698D01*
X318991Y91677D01*
X318985Y91577D01*
X318985Y91404D01*
X317985Y88991D01*
X316139Y87145D01*
X313726Y86145D01*
X311114Y86145D01*
X310580Y86367D01*
X310532Y86380D01*
X310487Y86401D01*
X310379Y86422D01*
X310273Y86451D01*
X310223Y86451D01*
X310174Y86461D01*
X310065Y86454D01*
X309955Y86456D01*
X309907Y86444D01*
X309857Y86441D01*
X309753Y86407D01*
X309646Y86382D01*
X309602Y86358D01*
X309555Y86343D01*
X309462Y86284D01*
X309365Y86233D01*
X309328Y86199D01*
X309286Y86173D01*
X309211Y86093D01*
X309129Y86019D01*
X309102Y85977D01*
X309068Y85941D01*
X309015Y85845D01*
X308955Y85753D01*
X308938Y85706D01*
X308914Y85663D01*
X308887Y85556D01*
X308851Y85452D01*
X308847Y85403D01*
X308835Y85355D01*
X308825Y85194D01*
X308825Y83784D01*
X308409Y82782D01*
X308396Y82734D01*
X308375Y82689D01*
X308355Y82581D01*
X308326Y82475D01*
X308325Y82425D01*
X308315Y82376D01*
X308322Y82267D01*
X308320Y82157D01*
X308332Y82109D01*
X308335Y82059D01*
X308369Y81955D01*
X308395Y81848D01*
X308418Y81804D01*
X308433Y81757D01*
X308492Y81664D01*
X308543Y81567D01*
X308577Y81530D01*
X308603Y81488D01*
X308683Y81413D01*
X308757Y81331D01*
X308799Y81304D01*
X308835Y81270D01*
X308931Y81217D01*
X309023Y81157D01*
X309070Y81140D01*
X309113Y81116D01*
X309220Y81089D01*
X309324Y81053D01*
X309373Y81049D01*
X309421Y81037D01*
X309582Y81027D01*
X320243Y81027D01*
X322698Y78572D01*
X322698Y78571D01*
X323681Y77588D01*
X323682Y77588D01*
X326137Y75133D01*
X326137Y34087D01*
X321780Y29730D01*
X321749Y29690D01*
X321712Y29657D01*
X321652Y29565D01*
X321585Y29478D01*
X321565Y29433D01*
X321538Y29391D01*
X321502Y29287D01*
X321458Y29186D01*
X321450Y29137D01*
X321434Y29090D01*
X321426Y28981D01*
X321408Y28872D01*
X321413Y28823D01*
X321409Y28773D01*
X321428Y28665D01*
X321438Y28556D01*
X321455Y28509D01*
X321464Y28460D01*
X321509Y28360D01*
X321546Y28256D01*
X321574Y28215D01*
X321594Y28170D01*
X321663Y28084D01*
X321724Y27993D01*
X321762Y27960D01*
X321793Y27922D01*
X321881Y27855D01*
X321963Y27783D01*
X322007Y27760D01*
X322047Y27730D01*
X322191Y27659D01*
X323687Y27040D01*
X326760Y23967D01*
X328423Y19953D01*
X328423Y15607D01*
X326760Y11593D01*
X323687Y8520D01*
X319673Y6857D01*
X315327Y6857D01*
X311313Y8520D01*
X308240Y11593D01*
X306577Y15607D01*
X306577Y19953D01*
X308240Y23967D01*
X311313Y27040D01*
X313160Y27805D01*
X313185Y27820D01*
X313213Y27829D01*
X313323Y27898D01*
X313436Y27962D01*
X313457Y27983D01*
X313482Y27999D01*
X313571Y28093D01*
X313664Y28184D01*
X313680Y28209D01*
X313700Y28230D01*
X313763Y28344D01*
X313831Y28455D01*
X313839Y28483D01*
X313854Y28509D01*
X313886Y28635D01*
X313924Y28759D01*
X313926Y28788D01*
X313933Y28817D01*
X313943Y28978D01*
X313943Y31536D01*
X313928Y31654D01*
X313921Y31773D01*
X313908Y31811D01*
X313903Y31852D01*
X313860Y31962D01*
X313823Y32075D01*
X313801Y32110D01*
X313786Y32147D01*
X313717Y32243D01*
X313653Y32344D01*
X313623Y32372D01*
X313600Y32405D01*
X313508Y32481D01*
X313421Y32562D01*
X313386Y32582D01*
X313355Y32607D01*
X313247Y32658D01*
X313143Y32716D01*
X313103Y32726D01*
X313067Y32743D01*
X312950Y32765D01*
X312835Y32795D01*
X312775Y32799D01*
X312755Y32803D01*
X312734Y32801D01*
X312674Y32805D01*
X312322Y32805D01*
X312224Y32793D01*
X312125Y32790D01*
X312066Y32773D01*
X312006Y32765D01*
X311914Y32729D01*
X311819Y32701D01*
X311767Y32671D01*
X311711Y32648D01*
X311631Y32590D01*
X311545Y32540D01*
X311470Y32474D01*
X311453Y32462D01*
X311445Y32452D01*
X311424Y32434D01*
X307438Y28447D01*
X299944Y28447D01*
X299807Y28430D01*
X299668Y28417D01*
X299649Y28410D01*
X299628Y28407D01*
X299500Y28356D01*
X299368Y28309D01*
X299352Y28298D01*
X299333Y28290D01*
X299220Y28209D01*
X299105Y28131D01*
X299092Y28115D01*
X299075Y28104D01*
X298987Y27996D01*
X298895Y27892D01*
X298886Y27874D01*
X298873Y27859D01*
X298813Y27733D01*
X298750Y27609D01*
X298746Y27589D01*
X298737Y27571D01*
X298711Y27435D01*
X298681Y27299D01*
X298681Y27278D01*
X298677Y27259D01*
X298686Y27120D01*
X298690Y26981D01*
X298696Y26961D01*
X298697Y26941D01*
X298740Y26809D01*
X298779Y26675D01*
X298789Y26658D01*
X298795Y26639D01*
X298870Y26521D01*
X298940Y26401D01*
X298959Y26380D01*
X298965Y26370D01*
X298980Y26356D01*
X299047Y26281D01*
X301360Y23967D01*
X303023Y19953D01*
X303023Y15607D01*
X301360Y11593D01*
X298287Y8520D01*
X294273Y6857D01*
X289927Y6857D01*
X285913Y8520D01*
X282840Y11593D01*
X281177Y15607D01*
X281177Y19953D01*
X282840Y23967D01*
X285153Y26281D01*
X285239Y26390D01*
X285327Y26497D01*
X285336Y26516D01*
X285348Y26532D01*
X285404Y26660D01*
X285463Y26785D01*
X285467Y26805D01*
X285475Y26824D01*
X285497Y26962D01*
X285523Y27098D01*
X285521Y27118D01*
X285525Y27138D01*
X285512Y27277D01*
X285503Y27415D01*
X285497Y27434D01*
X285495Y27454D01*
X285448Y27585D01*
X285405Y27717D01*
X285394Y27735D01*
X285387Y27754D01*
X285309Y27869D01*
X285235Y27986D01*
X285220Y28000D01*
X285209Y28017D01*
X285104Y28109D01*
X285003Y28204D01*
X284985Y28214D01*
X284970Y28227D01*
X284846Y28291D01*
X284725Y28358D01*
X284705Y28363D01*
X284687Y28372D01*
X284551Y28402D01*
X284417Y28437D01*
X284389Y28439D01*
X284377Y28442D01*
X284356Y28441D01*
X284256Y28447D01*
X276762Y28447D01*
X268477Y36732D01*
X268477Y41499D01*
X268460Y41637D01*
X268447Y41775D01*
X268440Y41794D01*
X268437Y41815D01*
X268386Y41944D01*
X268339Y42075D01*
X268328Y42092D01*
X268320Y42110D01*
X268239Y42223D01*
X268161Y42338D01*
X268145Y42351D01*
X268134Y42368D01*
X268026Y42456D01*
X267922Y42548D01*
X267904Y42558D01*
X267889Y42570D01*
X267763Y42630D01*
X267639Y42693D01*
X267619Y42697D01*
X267601Y42706D01*
X267464Y42732D01*
X267329Y42763D01*
X267308Y42762D01*
X267289Y42766D01*
X267150Y42757D01*
X267011Y42753D01*
X266991Y42747D01*
X266971Y42746D01*
X266839Y42703D01*
X266705Y42665D01*
X266688Y42654D01*
X266669Y42648D01*
X266551Y42574D01*
X266431Y42503D01*
X266410Y42484D01*
X266400Y42478D01*
X266386Y42463D01*
X266311Y42397D01*
X265339Y41425D01*
X262926Y40425D01*
X260314Y40425D01*
X257901Y41425D01*
X256055Y43271D01*
X255055Y45684D01*
X255055Y47999D01*
X255043Y48097D01*
X255040Y48196D01*
X255023Y48254D01*
X255015Y48315D01*
X254979Y48407D01*
X254951Y48502D01*
X254921Y48554D01*
X254898Y48610D01*
X254840Y48690D01*
X254790Y48776D01*
X254724Y48851D01*
X254712Y48868D01*
X254702Y48875D01*
X254684Y48897D01*
X251629Y51952D01*
X251550Y52012D01*
X251478Y52080D01*
X251425Y52109D01*
X251377Y52146D01*
X251286Y52186D01*
X251200Y52234D01*
X251141Y52249D01*
X251085Y52273D01*
X250987Y52288D01*
X250892Y52313D01*
X250792Y52319D01*
X250771Y52323D01*
X250759Y52321D01*
X250731Y52323D01*
X173449Y52323D01*
X173351Y52311D01*
X173252Y52308D01*
X173194Y52291D01*
X173133Y52283D01*
X173041Y52247D01*
X172946Y52219D01*
X172894Y52189D01*
X172838Y52166D01*
X172758Y52108D01*
X172672Y52058D01*
X172597Y51992D01*
X172580Y51980D01*
X172573Y51970D01*
X172552Y51952D01*
X172304Y51704D01*
X172262Y51649D01*
X172211Y51601D01*
X172165Y51524D01*
X172109Y51453D01*
X172082Y51389D01*
X172045Y51330D01*
X172019Y51244D01*
X171983Y51161D01*
X171972Y51092D01*
X171952Y51026D01*
X171947Y50936D01*
X171933Y50847D01*
X171940Y50778D01*
X171936Y50708D01*
X171955Y50620D01*
X171963Y50531D01*
X171987Y50465D01*
X172001Y50397D01*
X172040Y50316D01*
X172071Y50231D01*
X172110Y50174D01*
X172141Y50111D01*
X172199Y50043D01*
X172249Y49968D01*
X172302Y49922D01*
X172347Y49869D01*
X172420Y49817D01*
X172488Y49758D01*
X172550Y49726D01*
X172607Y49686D01*
X172691Y49654D01*
X172771Y49613D01*
X172839Y49598D01*
X172904Y49573D01*
X172994Y49563D01*
X173081Y49543D01*
X173151Y49546D01*
X173220Y49538D01*
X173309Y49550D01*
X173399Y49553D01*
X173466Y49572D01*
X173535Y49582D01*
X173688Y49634D01*
X173954Y49745D01*
X176566Y49745D01*
X178979Y48745D01*
X180825Y46899D01*
X181825Y44486D01*
X181825Y42171D01*
X181837Y42073D01*
X181840Y41974D01*
X181857Y41916D01*
X181865Y41855D01*
X181901Y41763D01*
X181929Y41668D01*
X181959Y41616D01*
X181982Y41560D01*
X182040Y41480D01*
X182090Y41394D01*
X182156Y41319D01*
X182168Y41302D01*
X182178Y41295D01*
X182196Y41273D01*
X182711Y40758D01*
X182790Y40698D01*
X182862Y40630D01*
X182915Y40601D01*
X182963Y40564D01*
X183054Y40524D01*
X183140Y40476D01*
X183199Y40461D01*
X183255Y40437D01*
X183353Y40422D01*
X183448Y40397D01*
X183548Y40391D01*
X183569Y40387D01*
X183581Y40389D01*
X183609Y40387D01*
X249123Y40387D01*
X261297Y28213D01*
X261321Y28195D01*
X261340Y28172D01*
X261446Y28098D01*
X261548Y28018D01*
X261576Y28006D01*
X261600Y27989D01*
X261721Y27943D01*
X261840Y27892D01*
X261869Y27887D01*
X261897Y27876D01*
X262026Y27862D01*
X262154Y27842D01*
X262184Y27844D01*
X262213Y27841D01*
X262342Y27859D01*
X262471Y27871D01*
X262499Y27881D01*
X262528Y27886D01*
X262680Y27938D01*
X264527Y28703D01*
X268873Y28703D01*
X272887Y27040D01*
X275960Y23967D01*
X277623Y19953D01*
X277623Y15607D01*
X275960Y11593D01*
X272887Y8520D01*
X268873Y6857D01*
X264527Y6857D01*
X260513Y8520D01*
X257440Y11593D01*
X255777Y15607D01*
X255777Y19953D01*
X256542Y21800D01*
X256550Y21828D01*
X256564Y21854D01*
X256592Y21981D01*
X256626Y22106D01*
X256627Y22136D01*
X256633Y22165D01*
X256629Y22294D01*
X256631Y22424D01*
X256624Y22453D01*
X256624Y22483D01*
X256587Y22607D01*
X256557Y22734D01*
X256543Y22760D01*
X256535Y22788D01*
X256469Y22900D01*
X256408Y23015D01*
X256389Y23037D01*
X256374Y23062D01*
X256267Y23183D01*
X246549Y32902D01*
X246470Y32962D01*
X246398Y33030D01*
X246345Y33059D01*
X246297Y33096D01*
X246206Y33136D01*
X246120Y33184D01*
X246061Y33199D01*
X246005Y33223D01*
X245907Y33238D01*
X245812Y33263D01*
X245712Y33269D01*
X245691Y33273D01*
X245679Y33271D01*
X245651Y33273D01*
X180137Y33273D01*
X177167Y36244D01*
X177088Y36304D01*
X177016Y36372D01*
X176963Y36401D01*
X176915Y36438D01*
X176824Y36478D01*
X176738Y36526D01*
X176679Y36541D01*
X176623Y36565D01*
X176525Y36580D01*
X176430Y36605D01*
X176330Y36611D01*
X176309Y36615D01*
X176297Y36613D01*
X176269Y36615D01*
X173954Y36615D01*
X171541Y37615D01*
X170823Y38333D01*
X170714Y38418D01*
X170607Y38506D01*
X170588Y38515D01*
X170572Y38528D01*
X170444Y38583D01*
X170319Y38642D01*
X170299Y38646D01*
X170280Y38654D01*
X170142Y38676D01*
X170006Y38702D01*
X169986Y38701D01*
X169966Y38704D01*
X169827Y38691D01*
X169689Y38682D01*
X169670Y38676D01*
X169650Y38674D01*
X169519Y38627D01*
X169387Y38584D01*
X169369Y38573D01*
X169350Y38566D01*
X169236Y38488D01*
X169118Y38414D01*
X169104Y38399D01*
X169087Y38388D01*
X168995Y38284D01*
X168900Y38182D01*
X168890Y38164D01*
X168877Y38149D01*
X168814Y38026D01*
X168746Y37904D01*
X168741Y37884D01*
X168732Y37866D01*
X168702Y37730D01*
X168667Y37596D01*
X168665Y37568D01*
X168662Y37556D01*
X168663Y37535D01*
X168657Y37435D01*
X168657Y28978D01*
X168660Y28948D01*
X168658Y28919D01*
X168680Y28791D01*
X168697Y28662D01*
X168707Y28635D01*
X168712Y28605D01*
X168766Y28487D01*
X168814Y28366D01*
X168831Y28342D01*
X168843Y28315D01*
X168924Y28214D01*
X169000Y28109D01*
X169023Y28090D01*
X169042Y28067D01*
X169145Y27989D01*
X169245Y27906D01*
X169272Y27894D01*
X169296Y27876D01*
X169440Y27805D01*
X171287Y27040D01*
X174360Y23967D01*
X176023Y19953D01*
X176023Y15607D01*
X174360Y11593D01*
X171287Y8520D01*
X167273Y6857D01*
X162927Y6857D01*
X158913Y8520D01*
X155840Y11593D01*
X154177Y15607D01*
X154177Y19953D01*
X155840Y23967D01*
X158913Y27040D01*
X160760Y27805D01*
X160785Y27820D01*
X160813Y27829D01*
X160923Y27898D01*
X161036Y27962D01*
X161057Y27983D01*
X161082Y27999D01*
X161171Y28093D01*
X161264Y28184D01*
X161280Y28209D01*
X161300Y28230D01*
X161363Y28344D01*
X161431Y28455D01*
X161439Y28483D01*
X161454Y28509D01*
X161486Y28635D01*
X161524Y28759D01*
X161526Y28788D01*
X161533Y28817D01*
X161543Y28978D01*
X161543Y51003D01*
X169977Y59437D01*
X254138Y59437D01*
X254276Y59454D01*
X254415Y59467D01*
X254434Y59474D01*
X254454Y59477D01*
X254583Y59528D01*
X254714Y59575D01*
X254731Y59586D01*
X254749Y59594D01*
X254862Y59675D01*
X254977Y59753D01*
X254990Y59769D01*
X255007Y59780D01*
X255095Y59888D01*
X255188Y59992D01*
X255197Y60010D01*
X255210Y60025D01*
X255269Y60151D01*
X255332Y60275D01*
X255337Y60295D01*
X255345Y60313D01*
X255371Y60449D01*
X255402Y60585D01*
X255401Y60606D01*
X255405Y60625D01*
X255396Y60764D01*
X255392Y60903D01*
X255386Y60923D01*
X255385Y60943D01*
X255342Y61075D01*
X255304Y61209D01*
X255293Y61226D01*
X255287Y61245D01*
X255213Y61363D01*
X255142Y61483D01*
X255124Y61504D01*
X255117Y61514D01*
X255102Y61528D01*
X255036Y61603D01*
X235224Y81416D01*
X235145Y81476D01*
X235073Y81544D01*
X235020Y81573D01*
X234972Y81610D01*
X234881Y81650D01*
X234795Y81698D01*
X234736Y81713D01*
X234681Y81737D01*
X234583Y81752D01*
X234487Y81777D01*
X234387Y81783D01*
X234366Y81787D01*
X234354Y81785D01*
X234326Y81787D01*
X230027Y81787D01*
X229929Y81775D01*
X229830Y81772D01*
X229772Y81755D01*
X229711Y81747D01*
X229619Y81711D01*
X229524Y81683D01*
X229472Y81653D01*
X229416Y81630D01*
X229336Y81572D01*
X229250Y81522D01*
X229175Y81456D01*
X229158Y81444D01*
X229151Y81434D01*
X229129Y81416D01*
X227239Y79525D01*
X224826Y78525D01*
X222214Y78525D01*
X219801Y79525D01*
X217911Y81416D01*
X217832Y81476D01*
X217760Y81544D01*
X217707Y81573D01*
X217659Y81610D01*
X217568Y81650D01*
X217482Y81698D01*
X217423Y81713D01*
X217367Y81737D01*
X217269Y81752D01*
X217174Y81777D01*
X217074Y81783D01*
X217053Y81787D01*
X217041Y81785D01*
X217013Y81787D01*
X213262Y81787D01*
X209824Y85226D01*
X209745Y85286D01*
X209673Y85354D01*
X209620Y85383D01*
X209572Y85420D01*
X209481Y85460D01*
X209395Y85508D01*
X209336Y85523D01*
X209281Y85547D01*
X209183Y85562D01*
X209087Y85587D01*
X208987Y85593D01*
X208966Y85597D01*
X208954Y85595D01*
X208926Y85597D01*
X140324Y85597D01*
X140226Y85585D01*
X140127Y85582D01*
X140068Y85565D01*
X140008Y85557D01*
X139916Y85521D01*
X139821Y85493D01*
X139769Y85463D01*
X139713Y85440D01*
X139633Y85382D01*
X139547Y85332D01*
X139472Y85266D01*
X139455Y85254D01*
X139447Y85244D01*
X139426Y85226D01*
X92574Y38374D01*
X92514Y38295D01*
X92446Y38223D01*
X92417Y38170D01*
X92380Y38122D01*
X92340Y38031D01*
X92292Y37945D01*
X92277Y37886D01*
X92253Y37831D01*
X92238Y37733D01*
X92213Y37637D01*
X92207Y37537D01*
X92203Y37516D01*
X92205Y37504D01*
X92203Y37476D01*
X92203Y29083D01*
X92206Y29054D01*
X92204Y29024D01*
X92226Y28896D01*
X92243Y28767D01*
X92253Y28740D01*
X92258Y28711D01*
X92312Y28592D01*
X92360Y28472D01*
X92377Y28448D01*
X92389Y28421D01*
X92470Y28319D01*
X92546Y28214D01*
X92569Y28195D01*
X92588Y28172D01*
X92691Y28094D01*
X92791Y28011D01*
X92818Y27999D01*
X92842Y27981D01*
X92986Y27910D01*
X95087Y27040D01*
X98160Y23967D01*
X99823Y19953D01*
X99823Y15607D01*
X98160Y11593D01*
X95087Y8520D01*
X91073Y6857D01*
X86727Y6857D01*
X82713Y8520D01*
X79640Y11593D01*
X77977Y15607D01*
X77977Y19953D01*
X79640Y23967D01*
X82713Y27040D01*
X84814Y27910D01*
X84839Y27925D01*
X84867Y27934D01*
X84977Y28003D01*
X85090Y28068D01*
X85111Y28088D01*
X85136Y28104D01*
X85225Y28199D01*
X85318Y28289D01*
X85334Y28314D01*
X85354Y28336D01*
X85417Y28449D01*
X85485Y28560D01*
X85493Y28588D01*
X85508Y28614D01*
X85540Y28740D01*
X85578Y28864D01*
X85580Y28893D01*
X85587Y28922D01*
X85597Y29083D01*
X85597Y40738D01*
X137062Y92203D01*
X212188Y92203D01*
X215626Y88764D01*
X215705Y88704D01*
X215777Y88636D01*
X215830Y88607D01*
X215878Y88570D01*
X215969Y88530D01*
X216055Y88482D01*
X216114Y88467D01*
X216169Y88443D01*
X216267Y88428D01*
X216363Y88403D01*
X216463Y88397D01*
X216484Y88393D01*
X216496Y88395D01*
X216524Y88393D01*
X217013Y88393D01*
X217111Y88405D01*
X217210Y88408D01*
X217268Y88425D01*
X217329Y88433D01*
X217421Y88469D01*
X217516Y88497D01*
X217568Y88527D01*
X217624Y88550D01*
X217704Y88608D01*
X217790Y88658D01*
X217865Y88724D01*
X217882Y88736D01*
X217889Y88746D01*
X217910Y88764D01*
X218185Y89039D01*
X218258Y89133D01*
X218337Y89222D01*
X218355Y89258D01*
X218380Y89290D01*
X218427Y89400D01*
X218482Y89506D01*
X218490Y89545D01*
X218506Y89582D01*
X218525Y89700D01*
X218551Y89816D01*
X218550Y89856D01*
X218556Y89896D01*
X218545Y90015D01*
X218542Y90134D01*
X218530Y90173D01*
X218526Y90213D01*
X218486Y90325D01*
X218453Y90439D01*
X218433Y90474D01*
X218419Y90512D01*
X218352Y90611D01*
X218292Y90713D01*
X218252Y90758D01*
X218240Y90775D01*
X218225Y90789D01*
X218185Y90834D01*
X212364Y96656D01*
X210057Y98962D01*
X210057Y115911D01*
X210040Y116048D01*
X210027Y116187D01*
X210020Y116206D01*
X210017Y116226D01*
X209966Y116355D01*
X209919Y116486D01*
X209908Y116503D01*
X209900Y116522D01*
X209819Y116634D01*
X209741Y116750D01*
X209725Y116763D01*
X209714Y116779D01*
X209606Y116868D01*
X209502Y116960D01*
X209484Y116969D01*
X209469Y116982D01*
X209343Y117041D01*
X209219Y117105D01*
X209199Y117109D01*
X209181Y117118D01*
X209044Y117144D01*
X208909Y117174D01*
X208888Y117174D01*
X208869Y117177D01*
X208730Y117169D01*
X208591Y117165D01*
X208571Y117159D01*
X208551Y117158D01*
X208419Y117115D01*
X208285Y117076D01*
X208268Y117066D01*
X208249Y117060D01*
X208131Y116985D01*
X208011Y116915D01*
X207990Y116896D01*
X207980Y116890D01*
X207966Y116875D01*
X207891Y116808D01*
X206618Y115535D01*
X204400Y114617D01*
X202004Y114617D01*
X201906Y114604D01*
X201807Y114601D01*
X201749Y114585D01*
X201689Y114577D01*
X201596Y114540D01*
X201501Y114513D01*
X201449Y114482D01*
X201393Y114460D01*
X201313Y114402D01*
X201227Y114351D01*
X201152Y114285D01*
X201136Y114273D01*
X201128Y114264D01*
X201107Y114245D01*
X194938Y108076D01*
X141612Y108076D01*
X139826Y109862D01*
X139826Y220338D01*
X149170Y229682D01*
X149231Y229760D01*
X149299Y229832D01*
X149328Y229885D01*
X149365Y229933D01*
X149404Y230024D01*
X149452Y230110D01*
X149467Y230169D01*
X149491Y230225D01*
X149507Y230323D01*
X149532Y230418D01*
X149538Y230518D01*
X149541Y230539D01*
X149540Y230551D01*
X149542Y230579D01*
X149542Y232975D01*
X150460Y235193D01*
X152157Y236890D01*
X154375Y237808D01*
X155996Y237808D01*
X156114Y237823D01*
X156233Y237831D01*
X156271Y237843D01*
X156312Y237848D01*
X156422Y237892D01*
X156535Y237929D01*
X156570Y237950D01*
X156607Y237965D01*
X156703Y238035D01*
X156804Y238099D01*
X156832Y238128D01*
X156865Y238152D01*
X156941Y238244D01*
X157022Y238330D01*
X157042Y238366D01*
X157067Y238397D01*
X157118Y238505D01*
X157176Y238609D01*
X157186Y238648D01*
X157203Y238685D01*
X157225Y238801D01*
X157255Y238917D01*
X157259Y238977D01*
X157263Y238997D01*
X157261Y239017D01*
X157265Y239077D01*
X157265Y239268D01*
X157250Y239386D01*
X157243Y239505D01*
X157230Y239543D01*
X157225Y239584D01*
X157182Y239694D01*
X157145Y239807D01*
X157123Y239842D01*
X157108Y239879D01*
X157039Y239975D01*
X156975Y240076D01*
X156945Y240104D01*
X156922Y240137D01*
X156830Y240213D01*
X156743Y240294D01*
X156708Y240314D01*
X156677Y240339D01*
X156569Y240390D01*
X156465Y240448D01*
X156425Y240458D01*
X156389Y240475D01*
X156272Y240497D01*
X156157Y240527D01*
X156097Y240531D01*
X156077Y240535D01*
X156056Y240533D01*
X155996Y240537D01*
X116997Y240537D01*
X116899Y240525D01*
X116800Y240522D01*
X116741Y240505D01*
X116681Y240497D01*
X116589Y240461D01*
X116494Y240433D01*
X116442Y240403D01*
X116386Y240380D01*
X116306Y240322D01*
X116220Y240272D01*
X116145Y240206D01*
X116128Y240194D01*
X116121Y240184D01*
X116099Y240166D01*
X114209Y238275D01*
X111796Y237275D01*
X109184Y237275D01*
X106771Y238275D01*
X104925Y240121D01*
X103925Y242534D01*
X103925Y245146D01*
X104925Y247559D01*
X106771Y249405D01*
X107061Y249525D01*
X107122Y249560D01*
X107187Y249586D01*
X107259Y249638D01*
X107338Y249683D01*
X107388Y249732D01*
X107444Y249772D01*
X107501Y249842D01*
X107566Y249904D01*
X107602Y249964D01*
X107647Y250017D01*
X107685Y250099D01*
X107732Y250175D01*
X107753Y250242D01*
X107782Y250305D01*
X107799Y250393D01*
X107826Y250479D01*
X107829Y250549D01*
X107842Y250618D01*
X107837Y250707D01*
X107841Y250797D01*
X107827Y250865D01*
X107823Y250935D01*
X107795Y251020D01*
X107777Y251108D01*
X107746Y251171D01*
X107724Y251237D01*
X107676Y251313D01*
X107637Y251394D01*
X107592Y251447D01*
X107554Y251506D01*
X107489Y251568D01*
X107431Y251636D01*
X107374Y251676D01*
X107323Y251724D01*
X107244Y251767D01*
X107171Y251819D01*
X107105Y251844D01*
X107044Y251878D01*
X106957Y251900D01*
X106873Y251932D01*
X106804Y251940D01*
X106736Y251957D01*
X106576Y251967D01*
X105567Y251967D01*
X105469Y251955D01*
X105370Y251952D01*
X105312Y251935D01*
X105251Y251927D01*
X105159Y251891D01*
X105064Y251863D01*
X105012Y251833D01*
X104956Y251810D01*
X104876Y251752D01*
X104790Y251702D01*
X104715Y251636D01*
X104698Y251624D01*
X104691Y251614D01*
X104669Y251596D01*
X102779Y249705D01*
X100366Y248705D01*
X97754Y248705D01*
X95341Y249705D01*
X93495Y251551D01*
X92495Y253964D01*
X92495Y256576D01*
X93495Y258989D01*
X95341Y260835D01*
X97754Y261835D01*
X100366Y261835D01*
X102779Y260835D01*
X104669Y258944D01*
X104748Y258884D01*
X104820Y258816D01*
X104873Y258787D01*
X104921Y258750D01*
X105012Y258710D01*
X105098Y258662D01*
X105157Y258647D01*
X105213Y258623D01*
X105311Y258608D01*
X105406Y258583D01*
X105506Y258577D01*
X105527Y258573D01*
X105539Y258575D01*
X105567Y258573D01*
X169008Y258573D01*
X170454Y257126D01*
X170533Y257066D01*
X170605Y256998D01*
X170658Y256969D01*
X170706Y256932D01*
X170797Y256892D01*
X170883Y256844D01*
X170942Y256829D01*
X170997Y256805D01*
X171095Y256790D01*
X171191Y256765D01*
X171291Y256759D01*
X171312Y256755D01*
X171324Y256757D01*
X171352Y256755D01*
X174026Y256755D01*
X176439Y255755D01*
X178285Y253909D01*
X179285Y251496D01*
X179285Y248884D01*
X178276Y246450D01*
X178258Y246382D01*
X178230Y246318D01*
X178216Y246229D01*
X178192Y246143D01*
X178191Y246073D01*
X178180Y246004D01*
X178189Y245915D01*
X178187Y245825D01*
X178204Y245757D01*
X178210Y245688D01*
X178240Y245603D01*
X178261Y245516D01*
X178294Y245454D01*
X178318Y245388D01*
X178368Y245314D01*
X178410Y245234D01*
X178457Y245183D01*
X178496Y245125D01*
X178564Y245066D01*
X178624Y244999D01*
X178682Y244961D01*
X178735Y244915D01*
X178815Y244874D01*
X178890Y244824D01*
X178956Y244802D01*
X179018Y244770D01*
X179106Y244750D01*
X179191Y244721D01*
X179260Y244716D01*
X179328Y244700D01*
X179418Y244703D01*
X179508Y244696D01*
X179576Y244708D01*
X179646Y244710D01*
X179732Y244735D01*
X179821Y244750D01*
X179885Y244779D01*
X179952Y244798D01*
X180029Y244844D01*
X180111Y244881D01*
X180165Y244924D01*
X180226Y244960D01*
X180346Y245066D01*
X182762Y247481D01*
X182822Y247560D01*
X182890Y247632D01*
X182919Y247685D01*
X182956Y247733D01*
X182996Y247824D01*
X183044Y247910D01*
X183059Y247969D01*
X183083Y248025D01*
X183098Y248123D01*
X183123Y248218D01*
X183129Y248318D01*
X183133Y248339D01*
X183131Y248351D01*
X183133Y248379D01*
X183133Y277401D01*
X183121Y277499D01*
X183118Y277598D01*
X183101Y277656D01*
X183093Y277717D01*
X183057Y277809D01*
X183029Y277904D01*
X182999Y277956D01*
X182976Y278012D01*
X182918Y278092D01*
X182868Y278178D01*
X182802Y278253D01*
X182790Y278270D01*
X182780Y278277D01*
X182762Y278299D01*
X123359Y337702D01*
X123280Y337762D01*
X123208Y337830D01*
X123155Y337859D01*
X123107Y337896D01*
X123016Y337936D01*
X122930Y337984D01*
X122871Y337999D01*
X122815Y338023D01*
X122717Y338038D01*
X122622Y338063D01*
X122522Y338069D01*
X122501Y338073D01*
X122489Y338071D01*
X122461Y338073D01*
X93375Y338073D01*
X93237Y338056D01*
X93099Y338043D01*
X93079Y338036D01*
X93059Y338033D01*
X92930Y337982D01*
X92799Y337935D01*
X92782Y337924D01*
X92764Y337916D01*
X92651Y337835D01*
X92536Y337757D01*
X92523Y337741D01*
X92506Y337730D01*
X92418Y337622D01*
X92326Y337518D01*
X92316Y337500D01*
X92304Y337485D01*
X92244Y337359D01*
X92181Y337235D01*
X92177Y337215D01*
X92168Y337197D01*
X92142Y337061D01*
X92111Y336925D01*
X92112Y336904D01*
X92108Y336885D01*
X92117Y336746D01*
X92121Y336607D01*
X92127Y336587D01*
X92128Y336567D01*
X92171Y336435D01*
X92209Y336301D01*
X92220Y336284D01*
X92226Y336265D01*
X92301Y336147D01*
X92371Y336027D01*
X92390Y336006D01*
X92396Y335996D01*
X92411Y335982D01*
X92477Y335907D01*
X94465Y333919D01*
X95465Y331506D01*
X95465Y328894D01*
X94465Y326481D01*
X94352Y326369D01*
X94292Y326290D01*
X94224Y326218D01*
X94195Y326165D01*
X94158Y326117D01*
X94118Y326026D01*
X94070Y325940D01*
X94055Y325881D01*
X94031Y325825D01*
X94016Y325727D01*
X93991Y325632D01*
X93985Y325532D01*
X93981Y325511D01*
X93983Y325499D01*
X93981Y325471D01*
X93981Y266959D01*
X93207Y265092D01*
X84192Y256077D01*
X84132Y255999D01*
X84064Y255927D01*
X84035Y255874D01*
X83998Y255826D01*
X83958Y255735D01*
X83910Y255648D01*
X83895Y255590D01*
X83871Y255534D01*
X83856Y255436D01*
X83831Y255340D01*
X83825Y255240D01*
X83821Y255220D01*
X83823Y255208D01*
X83821Y255180D01*
X83821Y236027D01*
X83827Y235978D01*
X83825Y235928D01*
X83847Y235821D01*
X83861Y235712D01*
X83879Y235666D01*
X83889Y235617D01*
X83937Y235518D01*
X83978Y235416D01*
X84007Y235376D01*
X84029Y235331D01*
X84100Y235248D01*
X84164Y235159D01*
X84203Y235127D01*
X84235Y235089D01*
X84325Y235026D01*
X84409Y234956D01*
X84454Y234935D01*
X84495Y234906D01*
X84598Y234867D01*
X84697Y234820D01*
X84746Y234811D01*
X84792Y234793D01*
X84902Y234781D01*
X85009Y234761D01*
X85059Y234764D01*
X85108Y234758D01*
X85217Y234774D01*
X85327Y234780D01*
X85374Y234796D01*
X85423Y234803D01*
X85576Y234855D01*
X86324Y235165D01*
X88936Y235165D01*
X91349Y234165D01*
X93195Y232319D01*
X94195Y229906D01*
X94195Y227294D01*
X93195Y224881D01*
X91349Y223035D01*
X88936Y222035D01*
X86324Y222035D01*
X85576Y222345D01*
X85528Y222358D01*
X85483Y222380D01*
X85375Y222400D01*
X85269Y222429D01*
X85219Y222430D01*
X85170Y222439D01*
X85061Y222433D01*
X84951Y222434D01*
X84903Y222423D01*
X84853Y222420D01*
X84749Y222386D01*
X84642Y222360D01*
X84598Y222337D01*
X84551Y222322D01*
X84458Y222263D01*
X84361Y222211D01*
X84324Y222178D01*
X84282Y222151D01*
X84207Y222071D01*
X84125Y221998D01*
X84098Y221956D01*
X84064Y221920D01*
X84011Y221824D01*
X83951Y221732D01*
X83934Y221685D01*
X83910Y221641D01*
X83883Y221535D01*
X83847Y221431D01*
X83843Y221381D01*
X83831Y221333D01*
X83821Y221173D01*
X83821Y184409D01*
X83047Y182542D01*
X61332Y160827D01*
X61272Y160749D01*
X61204Y160677D01*
X61184Y160641D01*
X61160Y160611D01*
X61152Y160594D01*
X61138Y160576D01*
X61098Y160485D01*
X61050Y160398D01*
X61040Y160356D01*
X61024Y160324D01*
X61021Y160307D01*
X61011Y160284D01*
X60996Y160186D01*
X60971Y160090D01*
X60967Y160023D01*
X60964Y160011D01*
X60965Y160000D01*
X60965Y159990D01*
X60961Y159970D01*
X60963Y159958D01*
X60961Y159930D01*
X60961Y56139D01*
X60187Y54272D01*
X43552Y37637D01*
X43492Y37559D01*
X43424Y37487D01*
X43395Y37434D01*
X43358Y37386D01*
X43318Y37295D01*
X43270Y37208D01*
X43255Y37150D01*
X43231Y37094D01*
X43216Y36996D01*
X43191Y36900D01*
X43185Y36800D01*
X43181Y36780D01*
X43183Y36768D01*
X43181Y36740D01*
X43181Y28346D01*
X43184Y28317D01*
X43182Y28287D01*
X43204Y28160D01*
X43221Y28031D01*
X43231Y28003D01*
X43236Y27974D01*
X43290Y27855D01*
X43338Y27735D01*
X43355Y27711D01*
X43367Y27684D01*
X43448Y27583D01*
X43524Y27478D01*
X43547Y27459D01*
X43566Y27436D01*
X43669Y27358D01*
X43769Y27275D01*
X43796Y27262D01*
X43820Y27245D01*
X43964Y27174D01*
X44287Y27040D01*
X47360Y23967D01*
X49023Y19953D01*
X49023Y15607D01*
X47360Y11593D01*
X44287Y8520D01*
X40273Y6857D01*
X35927Y6857D01*
X31913Y8520D01*
X28840Y11593D01*
X27177Y15607D01*
X27177Y19953D01*
X28840Y23967D01*
X31913Y27040D01*
X32236Y27174D01*
X32261Y27188D01*
X32289Y27197D01*
X32399Y27267D01*
X32512Y27331D01*
X32533Y27352D01*
X32558Y27367D01*
X32647Y27462D01*
X32740Y27552D01*
X32756Y27578D01*
X32776Y27599D01*
X32839Y27713D01*
X32907Y27824D01*
X32915Y27852D01*
X32930Y27878D01*
X32962Y28003D01*
X33000Y28127D01*
X33002Y28157D01*
X33009Y28186D01*
X33019Y28346D01*
X33019Y40381D01*
X33793Y42248D01*
X50428Y58883D01*
X50488Y58961D01*
X50556Y59033D01*
X50585Y59086D01*
X50622Y59134D01*
X50662Y59225D01*
X50710Y59312D01*
X50725Y59370D01*
X50749Y59426D01*
X50764Y59524D01*
X50789Y59620D01*
X50795Y59720D01*
X50799Y59740D01*
X50797Y59752D01*
X50799Y59780D01*
X50799Y163571D01*
X51573Y165438D01*
X73288Y187153D01*
X73348Y187231D01*
X73416Y187303D01*
X73445Y187356D01*
X73482Y187404D01*
X73522Y187495D01*
X73570Y187582D01*
X73585Y187640D01*
X73609Y187696D01*
X73624Y187794D01*
X73649Y187890D01*
X73655Y187990D01*
X73659Y188010D01*
X73657Y188022D01*
X73659Y188050D01*
X73659Y258821D01*
X74433Y260688D01*
X83448Y269703D01*
X83508Y269781D01*
X83576Y269853D01*
X83605Y269906D01*
X83642Y269954D01*
X83682Y270045D01*
X83730Y270132D01*
X83745Y270190D01*
X83769Y270246D01*
X83784Y270344D01*
X83809Y270440D01*
X83815Y270540D01*
X83819Y270560D01*
X83817Y270572D01*
X83819Y270600D01*
X83819Y302725D01*
X83811Y302794D01*
X83812Y302864D01*
X83791Y302952D01*
X83779Y303041D01*
X83754Y303106D01*
X83737Y303173D01*
X83695Y303253D01*
X83662Y303336D01*
X83621Y303393D01*
X83589Y303455D01*
X83528Y303521D01*
X83476Y303594D01*
X83422Y303638D01*
X83375Y303690D01*
X83300Y303739D01*
X83231Y303797D01*
X83167Y303826D01*
X83109Y303865D01*
X83024Y303894D01*
X82943Y303932D01*
X82874Y303945D01*
X82808Y303968D01*
X82719Y303975D01*
X82631Y303992D01*
X82561Y303988D01*
X82491Y303993D01*
X82403Y303978D01*
X82313Y303972D01*
X82247Y303951D01*
X82178Y303939D01*
X82096Y303902D01*
X82011Y303874D01*
X81952Y303837D01*
X81888Y303808D01*
X81818Y303752D01*
X81742Y303704D01*
X81694Y303653D01*
X81640Y303610D01*
X81585Y303538D01*
X81524Y303472D01*
X81490Y303411D01*
X81448Y303355D01*
X81377Y303211D01*
X80495Y301081D01*
X80383Y300969D01*
X80322Y300890D01*
X80254Y300818D01*
X80225Y300765D01*
X80188Y300717D01*
X80148Y300626D01*
X80100Y300540D01*
X80085Y300481D01*
X80061Y300426D01*
X80046Y300328D01*
X80021Y300232D01*
X80015Y300132D01*
X80011Y300111D01*
X80013Y300099D01*
X80011Y300071D01*
X80011Y278389D01*
X79237Y276522D01*
X65142Y262427D01*
X65082Y262349D01*
X65014Y262277D01*
X64985Y262224D01*
X64948Y262176D01*
X64908Y262085D01*
X64860Y261998D01*
X64845Y261940D01*
X64821Y261884D01*
X64806Y261786D01*
X64781Y261690D01*
X64775Y261590D01*
X64771Y261570D01*
X64773Y261558D01*
X64771Y261530D01*
X64771Y246470D01*
X64783Y246372D01*
X64786Y246273D01*
X64803Y246215D01*
X64811Y246155D01*
X64847Y246063D01*
X64875Y245968D01*
X64905Y245915D01*
X64928Y245859D01*
X64986Y245779D01*
X65036Y245694D01*
X65102Y245618D01*
X65114Y245602D01*
X65124Y245594D01*
X65142Y245573D01*
X70347Y240368D01*
X71121Y238501D01*
X71121Y193299D01*
X70347Y191432D01*
X44822Y165907D01*
X44762Y165829D01*
X44694Y165757D01*
X44671Y165716D01*
X44649Y165688D01*
X44642Y165675D01*
X44628Y165656D01*
X44588Y165565D01*
X44540Y165478D01*
X44529Y165435D01*
X44513Y165401D01*
X44510Y165384D01*
X44501Y165364D01*
X44486Y165266D01*
X44461Y165170D01*
X44457Y165107D01*
X44453Y165088D01*
X44454Y165070D01*
X44451Y165050D01*
X44453Y165038D01*
X44451Y165010D01*
X44451Y67569D01*
X43677Y65702D01*
X18152Y40177D01*
X18092Y40099D01*
X18024Y40027D01*
X17995Y39974D01*
X17958Y39926D01*
X17918Y39835D01*
X17870Y39748D01*
X17855Y39690D01*
X17831Y39634D01*
X17816Y39536D01*
X17791Y39440D01*
X17785Y39340D01*
X17781Y39320D01*
X17783Y39308D01*
X17781Y39280D01*
X17781Y28346D01*
X17784Y28317D01*
X17782Y28287D01*
X17804Y28160D01*
X17821Y28031D01*
X17831Y28003D01*
X17836Y27974D01*
X17890Y27855D01*
X17938Y27735D01*
X17955Y27711D01*
X17967Y27684D01*
X18048Y27583D01*
X18124Y27478D01*
X18147Y27459D01*
X18166Y27436D01*
X18269Y27358D01*
X18369Y27275D01*
X18396Y27262D01*
X18420Y27245D01*
X18564Y27174D01*
X18887Y27040D01*
X21960Y23967D01*
X23623Y19953D01*
X23623Y15607D01*
X21960Y11593D01*
X18887Y8520D01*
X14873Y6857D01*
X10527Y6857D01*
X6513Y8520D01*
X4731Y10302D01*
X4622Y10387D01*
X4516Y10475D01*
X4497Y10484D01*
X4479Y10497D01*
X4353Y10552D01*
X4229Y10611D01*
X4208Y10615D01*
X4187Y10624D01*
X4052Y10645D01*
X3917Y10671D01*
X3895Y10670D01*
X3873Y10674D01*
X3736Y10661D01*
X3599Y10652D01*
X3579Y10646D01*
X3557Y10644D01*
X3427Y10597D01*
X3297Y10555D01*
X3278Y10544D01*
X3257Y10536D01*
X3144Y10459D01*
X3027Y10386D01*
X3012Y10370D01*
X2994Y10358D01*
X2903Y10254D01*
X2809Y10155D01*
X2798Y10136D01*
X2784Y10119D01*
X2721Y9996D01*
X2655Y9877D01*
X2649Y9855D01*
X2639Y9836D01*
X2609Y9702D01*
X2574Y9569D01*
X2572Y9538D01*
X2570Y9526D01*
X2570Y9505D01*
X2564Y9408D01*
X2550Y4219D01*
X2565Y4099D01*
X2573Y3980D01*
X2585Y3942D01*
X2590Y3903D01*
X2634Y3791D01*
X2670Y3677D01*
X2691Y3644D01*
X2706Y3607D01*
X2776Y3510D01*
X2840Y3408D01*
X2869Y3381D01*
X2892Y3349D01*
X2984Y3273D01*
X3072Y3190D01*
X3106Y3171D01*
X3136Y3146D01*
X3245Y3095D01*
X3350Y3036D01*
X3388Y3027D01*
X3424Y3010D01*
X3542Y2987D01*
X3658Y2957D01*
X3716Y2953D01*
X3736Y2949D01*
X3757Y2950D01*
X3819Y2946D01*
X488949Y2544D01*
X489068Y2559D01*
G37*
G36*
X3932Y24940D02*
X3932Y24940D01*
X4073Y24944D01*
X4091Y24949D01*
X4110Y24951D01*
X4243Y24993D01*
X4379Y25033D01*
X4395Y25042D01*
X4413Y25048D01*
X4532Y25123D01*
X4653Y25194D01*
X4672Y25211D01*
X4682Y25217D01*
X4695Y25232D01*
X4774Y25301D01*
X6513Y27040D01*
X6836Y27174D01*
X6861Y27188D01*
X6889Y27197D01*
X6999Y27267D01*
X7112Y27331D01*
X7133Y27352D01*
X7158Y27367D01*
X7247Y27462D01*
X7340Y27552D01*
X7356Y27578D01*
X7376Y27599D01*
X7439Y27713D01*
X7507Y27824D01*
X7515Y27852D01*
X7530Y27878D01*
X7562Y28003D01*
X7600Y28127D01*
X7602Y28157D01*
X7609Y28186D01*
X7619Y28346D01*
X7619Y42921D01*
X8393Y44788D01*
X33918Y70313D01*
X33978Y70391D01*
X34046Y70463D01*
X34075Y70516D01*
X34112Y70564D01*
X34152Y70655D01*
X34200Y70742D01*
X34215Y70800D01*
X34239Y70856D01*
X34254Y70954D01*
X34279Y71050D01*
X34285Y71150D01*
X34289Y71170D01*
X34287Y71182D01*
X34289Y71210D01*
X34289Y168651D01*
X35063Y170518D01*
X60588Y196043D01*
X60648Y196121D01*
X60716Y196193D01*
X60745Y196246D01*
X60782Y196294D01*
X60822Y196385D01*
X60870Y196472D01*
X60885Y196530D01*
X60909Y196586D01*
X60924Y196684D01*
X60949Y196780D01*
X60955Y196880D01*
X60959Y196900D01*
X60957Y196912D01*
X60959Y196940D01*
X60959Y204378D01*
X60951Y204447D01*
X60952Y204517D01*
X60938Y204573D01*
X60937Y204592D01*
X60929Y204615D01*
X60919Y204693D01*
X60894Y204758D01*
X60877Y204826D01*
X60835Y204905D01*
X60802Y204989D01*
X60761Y205045D01*
X60729Y205107D01*
X60668Y205173D01*
X60616Y205246D01*
X60562Y205291D01*
X60515Y205342D01*
X60440Y205392D01*
X60371Y205449D01*
X60307Y205479D01*
X60249Y205517D01*
X60164Y205546D01*
X60083Y205584D01*
X60014Y205598D01*
X59948Y205620D01*
X59859Y205627D01*
X59771Y205644D01*
X59701Y205640D01*
X59631Y205645D01*
X59543Y205630D01*
X59453Y205625D01*
X59387Y205603D01*
X59318Y205591D01*
X59236Y205554D01*
X59151Y205526D01*
X59092Y205489D01*
X59028Y205460D01*
X58958Y205404D01*
X58882Y205356D01*
X58834Y205305D01*
X58779Y205262D01*
X58726Y205190D01*
X58664Y205125D01*
X58630Y205064D01*
X58588Y205008D01*
X58517Y204863D01*
X58514Y204855D01*
X57575Y203450D01*
X56380Y202255D01*
X54974Y201316D01*
X53413Y200669D01*
X52659Y200519D01*
X52659Y220520D01*
X52644Y220638D01*
X52637Y220757D01*
X52624Y220795D01*
X52619Y220835D01*
X52576Y220946D01*
X52560Y220994D01*
X52570Y221012D01*
X52580Y221051D01*
X52597Y221087D01*
X52619Y221204D01*
X52649Y221320D01*
X52653Y221380D01*
X52657Y221400D01*
X52655Y221420D01*
X52659Y221480D01*
X52659Y229401D01*
X53413Y229251D01*
X54974Y228604D01*
X56380Y227665D01*
X57575Y226470D01*
X58514Y225065D01*
X58517Y225057D01*
X58552Y224996D01*
X58578Y224931D01*
X58630Y224859D01*
X58675Y224781D01*
X58723Y224730D01*
X58764Y224674D01*
X58834Y224617D01*
X58896Y224552D01*
X58956Y224516D01*
X59009Y224471D01*
X59091Y224433D01*
X59167Y224386D01*
X59234Y224365D01*
X59297Y224336D01*
X59385Y224319D01*
X59471Y224292D01*
X59541Y224289D01*
X59610Y224276D01*
X59699Y224281D01*
X59789Y224277D01*
X59857Y224291D01*
X59927Y224295D01*
X60012Y224323D01*
X60100Y224341D01*
X60163Y224372D01*
X60229Y224394D01*
X60305Y224442D01*
X60386Y224481D01*
X60439Y224526D01*
X60498Y224564D01*
X60560Y224629D01*
X60628Y224687D01*
X60668Y224744D01*
X60716Y224795D01*
X60759Y224874D01*
X60811Y224947D01*
X60836Y225013D01*
X60870Y225074D01*
X60892Y225161D01*
X60924Y225245D01*
X60932Y225314D01*
X60949Y225382D01*
X60959Y225542D01*
X60959Y234860D01*
X60947Y234958D01*
X60944Y235057D01*
X60927Y235115D01*
X60919Y235175D01*
X60883Y235267D01*
X60855Y235362D01*
X60825Y235415D01*
X60802Y235471D01*
X60744Y235551D01*
X60694Y235636D01*
X60628Y235712D01*
X60616Y235728D01*
X60606Y235736D01*
X60588Y235757D01*
X55383Y240962D01*
X54609Y242829D01*
X54609Y265171D01*
X55383Y267038D01*
X69478Y281133D01*
X69538Y281211D01*
X69606Y281283D01*
X69635Y281336D01*
X69672Y281384D01*
X69712Y281475D01*
X69760Y281562D01*
X69775Y281620D01*
X69799Y281676D01*
X69814Y281774D01*
X69839Y281870D01*
X69845Y281970D01*
X69849Y281990D01*
X69847Y282002D01*
X69849Y282030D01*
X69849Y300071D01*
X69837Y300169D01*
X69834Y300268D01*
X69817Y300326D01*
X69809Y300387D01*
X69773Y300479D01*
X69745Y300574D01*
X69715Y300626D01*
X69692Y300682D01*
X69634Y300762D01*
X69584Y300848D01*
X69518Y300923D01*
X69506Y300940D01*
X69496Y300948D01*
X69477Y300969D01*
X69365Y301081D01*
X68365Y303494D01*
X68365Y306106D01*
X69365Y308519D01*
X71002Y310155D01*
X71062Y310234D01*
X71130Y310306D01*
X71159Y310359D01*
X71196Y310407D01*
X71236Y310498D01*
X71284Y310584D01*
X71299Y310643D01*
X71323Y310699D01*
X71338Y310797D01*
X71363Y310892D01*
X71369Y310992D01*
X71373Y311013D01*
X71371Y311025D01*
X71373Y311053D01*
X71373Y340563D01*
X75997Y345187D01*
X125933Y345187D01*
X128388Y342731D01*
X163824Y307296D01*
X163879Y307254D01*
X163927Y307203D01*
X164004Y307156D01*
X164075Y307101D01*
X164139Y307074D01*
X164198Y307037D01*
X164284Y307011D01*
X164367Y306975D01*
X164436Y306964D01*
X164502Y306944D01*
X164592Y306939D01*
X164681Y306925D01*
X164750Y306932D01*
X164820Y306928D01*
X164908Y306947D01*
X164997Y306955D01*
X165063Y306979D01*
X165131Y306993D01*
X165212Y307032D01*
X165297Y307063D01*
X165354Y307102D01*
X165417Y307132D01*
X165486Y307191D01*
X165560Y307241D01*
X165606Y307294D01*
X165659Y307339D01*
X165711Y307412D01*
X165770Y307480D01*
X165802Y307542D01*
X165842Y307599D01*
X165874Y307683D01*
X165915Y307763D01*
X165930Y307831D01*
X165955Y307896D01*
X165965Y307986D01*
X165985Y308073D01*
X165982Y308143D01*
X165990Y308212D01*
X165978Y308301D01*
X165975Y308391D01*
X165956Y308458D01*
X165946Y308527D01*
X165894Y308680D01*
X164885Y311114D01*
X164885Y313726D01*
X165885Y316139D01*
X167731Y317985D01*
X170144Y318985D01*
X172756Y318985D01*
X173290Y318763D01*
X173338Y318750D01*
X173383Y318729D01*
X173491Y318708D01*
X173597Y318679D01*
X173647Y318679D01*
X173696Y318669D01*
X173805Y318676D01*
X173915Y318674D01*
X173963Y318686D01*
X174013Y318689D01*
X174117Y318723D01*
X174224Y318748D01*
X174268Y318772D01*
X174315Y318787D01*
X174408Y318846D01*
X174505Y318897D01*
X174542Y318931D01*
X174584Y318957D01*
X174659Y319037D01*
X174741Y319111D01*
X174768Y319153D01*
X174802Y319189D01*
X174855Y319285D01*
X174915Y319377D01*
X174932Y319424D01*
X174956Y319467D01*
X174983Y319573D01*
X175019Y319678D01*
X175023Y319727D01*
X175035Y319775D01*
X175045Y319936D01*
X175045Y322616D01*
X176045Y325029D01*
X177891Y326875D01*
X180304Y327875D01*
X182916Y327875D01*
X185329Y326875D01*
X187175Y325029D01*
X188175Y322616D01*
X188175Y320004D01*
X187175Y317591D01*
X185284Y315701D01*
X185224Y315622D01*
X185156Y315550D01*
X185127Y315497D01*
X185090Y315449D01*
X185050Y315358D01*
X185002Y315272D01*
X184987Y315213D01*
X184963Y315157D01*
X184948Y315059D01*
X184923Y314964D01*
X184917Y314868D01*
X184915Y314860D01*
X184915Y314857D01*
X184913Y314843D01*
X184915Y314831D01*
X184913Y314803D01*
X184913Y304154D01*
X184925Y304056D01*
X184928Y303957D01*
X184945Y303898D01*
X184953Y303838D01*
X184989Y303746D01*
X185017Y303651D01*
X185047Y303599D01*
X185070Y303543D01*
X185128Y303463D01*
X185178Y303377D01*
X185244Y303302D01*
X185256Y303285D01*
X185266Y303277D01*
X185284Y303256D01*
X192390Y296151D01*
X192445Y296108D01*
X192493Y296058D01*
X192570Y296011D01*
X192641Y295956D01*
X192705Y295929D01*
X192764Y295892D01*
X192850Y295866D01*
X192933Y295830D01*
X193002Y295819D01*
X193068Y295798D01*
X193158Y295794D01*
X193247Y295780D01*
X193316Y295787D01*
X193386Y295783D01*
X193474Y295801D01*
X193563Y295810D01*
X193629Y295834D01*
X193697Y295848D01*
X193778Y295887D01*
X193863Y295918D01*
X193920Y295957D01*
X193983Y295987D01*
X194051Y296046D01*
X194126Y296096D01*
X194172Y296148D01*
X194225Y296194D01*
X194277Y296267D01*
X194336Y296335D01*
X194368Y296397D01*
X194408Y296454D01*
X194440Y296538D01*
X194481Y296618D01*
X194496Y296686D01*
X194521Y296751D01*
X194531Y296840D01*
X194551Y296928D01*
X194548Y296998D01*
X194556Y297067D01*
X194544Y297156D01*
X194541Y297246D01*
X194521Y297313D01*
X194512Y297382D01*
X194460Y297534D01*
X194095Y298414D01*
X194095Y301026D01*
X195095Y303439D01*
X196941Y305285D01*
X199354Y306285D01*
X201966Y306285D01*
X204492Y305238D01*
X204540Y305225D01*
X204585Y305204D01*
X204693Y305183D01*
X204799Y305154D01*
X204849Y305154D01*
X204898Y305144D01*
X205007Y305151D01*
X205117Y305149D01*
X205165Y305161D01*
X205215Y305164D01*
X205319Y305198D01*
X205426Y305223D01*
X205470Y305247D01*
X205517Y305262D01*
X205610Y305321D01*
X205707Y305372D01*
X205744Y305405D01*
X205786Y305432D01*
X205861Y305512D01*
X205943Y305586D01*
X205970Y305628D01*
X206004Y305664D01*
X206057Y305760D01*
X206117Y305852D01*
X206134Y305899D01*
X206158Y305942D01*
X206185Y306049D01*
X206221Y306153D01*
X206225Y306202D01*
X206237Y306250D01*
X206247Y306411D01*
X206247Y395616D01*
X206235Y395714D01*
X206232Y395813D01*
X206215Y395872D01*
X206207Y395932D01*
X206171Y396024D01*
X206143Y396119D01*
X206113Y396171D01*
X206090Y396227D01*
X206032Y396307D01*
X205982Y396393D01*
X205916Y396468D01*
X205904Y396485D01*
X205894Y396493D01*
X205876Y396514D01*
X155936Y446454D01*
X155857Y446514D01*
X155785Y446582D01*
X155732Y446611D01*
X155684Y446648D01*
X155593Y446688D01*
X155507Y446736D01*
X155448Y446751D01*
X155393Y446775D01*
X155295Y446790D01*
X155199Y446815D01*
X155099Y446821D01*
X155079Y446825D01*
X155066Y446823D01*
X155038Y446825D01*
X152364Y446825D01*
X149951Y447825D01*
X148105Y449671D01*
X147105Y452084D01*
X147105Y454696D01*
X148105Y457109D01*
X149951Y458955D01*
X152364Y459955D01*
X154976Y459955D01*
X157389Y458955D01*
X159235Y457109D01*
X160235Y454696D01*
X160235Y452022D01*
X160247Y451924D01*
X160250Y451825D01*
X160267Y451766D01*
X160275Y451706D01*
X160311Y451614D01*
X160339Y451519D01*
X160369Y451467D01*
X160392Y451411D01*
X160450Y451331D01*
X160500Y451245D01*
X160566Y451170D01*
X160578Y451153D01*
X160588Y451145D01*
X160606Y451124D01*
X212853Y398878D01*
X212853Y381878D01*
X212870Y381740D01*
X212883Y381601D01*
X212890Y381582D01*
X212893Y381562D01*
X212944Y381433D01*
X212991Y381302D01*
X213002Y381285D01*
X213010Y381267D01*
X213091Y381154D01*
X213169Y381039D01*
X213185Y381026D01*
X213196Y381009D01*
X213304Y380920D01*
X213408Y380828D01*
X213426Y380819D01*
X213441Y380806D01*
X213567Y380747D01*
X213691Y380684D01*
X213711Y380679D01*
X213729Y380671D01*
X213865Y380645D01*
X214001Y380614D01*
X214022Y380615D01*
X214041Y380611D01*
X214180Y380620D01*
X214319Y380624D01*
X214339Y380630D01*
X214359Y380631D01*
X214491Y380674D01*
X214625Y380712D01*
X214642Y380723D01*
X214661Y380729D01*
X214779Y380803D01*
X214899Y380874D01*
X214920Y380892D01*
X214930Y380899D01*
X214944Y380914D01*
X215020Y380980D01*
X215314Y381274D01*
X215374Y381352D01*
X215442Y381425D01*
X215471Y381478D01*
X215508Y381526D01*
X215548Y381617D01*
X215596Y381703D01*
X215611Y381762D01*
X215635Y381817D01*
X215650Y381915D01*
X215675Y382011D01*
X215681Y382111D01*
X215685Y382132D01*
X215683Y382144D01*
X215685Y382172D01*
X215685Y384846D01*
X216685Y387259D01*
X218531Y389105D01*
X220944Y390105D01*
X223556Y390105D01*
X225969Y389105D01*
X227815Y387259D01*
X228815Y384846D01*
X228815Y382234D01*
X227815Y379821D01*
X225969Y377975D01*
X223556Y376975D01*
X220882Y376975D01*
X220784Y376963D01*
X220685Y376960D01*
X220626Y376943D01*
X220566Y376935D01*
X220474Y376899D01*
X220379Y376871D01*
X220327Y376841D01*
X220271Y376818D01*
X220191Y376760D01*
X220105Y376710D01*
X220030Y376644D01*
X220013Y376632D01*
X220012Y376630D01*
X220011Y376629D01*
X220004Y376621D01*
X219984Y376604D01*
X219574Y376194D01*
X219514Y376115D01*
X219446Y376043D01*
X219417Y375990D01*
X219380Y375942D01*
X219340Y375851D01*
X219292Y375765D01*
X219277Y375706D01*
X219253Y375651D01*
X219238Y375553D01*
X219213Y375457D01*
X219207Y375357D01*
X219203Y375336D01*
X219205Y375324D01*
X219203Y375296D01*
X219203Y335621D01*
X219209Y335571D01*
X219207Y335522D01*
X219229Y335414D01*
X219243Y335305D01*
X219261Y335259D01*
X219271Y335210D01*
X219319Y335112D01*
X219360Y335010D01*
X219389Y334969D01*
X219411Y334925D01*
X219482Y334841D01*
X219546Y334752D01*
X219585Y334721D01*
X219617Y334683D01*
X219707Y334620D01*
X219791Y334549D01*
X219836Y334528D01*
X219877Y334500D01*
X219980Y334461D01*
X220079Y334414D01*
X220128Y334405D01*
X220174Y334387D01*
X220284Y334375D01*
X220391Y334354D01*
X220441Y334357D01*
X220490Y334352D01*
X220599Y334367D01*
X220709Y334374D01*
X220756Y334389D01*
X220805Y334396D01*
X220958Y334448D01*
X223484Y335495D01*
X226096Y335495D01*
X228509Y334495D01*
X230355Y332649D01*
X231355Y330236D01*
X231355Y327921D01*
X231367Y327823D01*
X231370Y327724D01*
X231387Y327666D01*
X231395Y327605D01*
X231431Y327513D01*
X231459Y327418D01*
X231489Y327366D01*
X231512Y327310D01*
X231570Y327230D01*
X231620Y327144D01*
X231686Y327069D01*
X231698Y327052D01*
X231708Y327045D01*
X231726Y327023D01*
X233037Y325713D01*
X233146Y325628D01*
X233253Y325540D01*
X233272Y325531D01*
X233288Y325519D01*
X233415Y325463D01*
X233541Y325404D01*
X233561Y325400D01*
X233580Y325392D01*
X233718Y325370D01*
X233854Y325344D01*
X233874Y325345D01*
X233894Y325342D01*
X234033Y325355D01*
X234171Y325364D01*
X234190Y325370D01*
X234210Y325372D01*
X234342Y325419D01*
X234473Y325462D01*
X234491Y325473D01*
X234510Y325480D01*
X234625Y325558D01*
X234742Y325632D01*
X234756Y325647D01*
X234773Y325658D01*
X234865Y325763D01*
X234960Y325864D01*
X234970Y325881D01*
X234983Y325897D01*
X235047Y326021D01*
X235114Y326142D01*
X235119Y326162D01*
X235128Y326180D01*
X235158Y326316D01*
X235193Y326450D01*
X235195Y326478D01*
X235198Y326490D01*
X235197Y326511D01*
X235203Y326611D01*
X235203Y407873D01*
X236429Y409099D01*
X236514Y409208D01*
X236602Y409315D01*
X236611Y409334D01*
X236624Y409350D01*
X236679Y409478D01*
X236738Y409603D01*
X236742Y409623D01*
X236750Y409642D01*
X236772Y409780D01*
X236798Y409916D01*
X236797Y409936D01*
X236800Y409956D01*
X236787Y410095D01*
X236778Y410233D01*
X236772Y410252D01*
X236770Y410272D01*
X236723Y410404D01*
X236680Y410535D01*
X236669Y410553D01*
X236662Y410572D01*
X236584Y410687D01*
X236510Y410804D01*
X236495Y410818D01*
X236484Y410835D01*
X236379Y410927D01*
X236278Y411022D01*
X236261Y411032D01*
X236245Y411045D01*
X236121Y411109D01*
X236000Y411176D01*
X235980Y411181D01*
X235962Y411190D01*
X235826Y411220D01*
X235692Y411255D01*
X235664Y411257D01*
X235652Y411260D01*
X235631Y411259D01*
X235531Y411265D01*
X233644Y411265D01*
X231231Y412265D01*
X229385Y414111D01*
X228385Y416524D01*
X228385Y419136D01*
X229385Y421549D01*
X231231Y423395D01*
X233644Y424395D01*
X236256Y424395D01*
X237684Y423803D01*
X237713Y423795D01*
X237739Y423782D01*
X237866Y423753D01*
X237991Y423719D01*
X238020Y423719D01*
X238049Y423712D01*
X238179Y423716D01*
X238309Y423714D01*
X238338Y423721D01*
X238367Y423722D01*
X238492Y423758D01*
X238618Y423788D01*
X238644Y423802D01*
X238673Y423810D01*
X238784Y423876D01*
X238899Y423937D01*
X238921Y423957D01*
X238947Y423972D01*
X239067Y424078D01*
X260356Y445367D01*
X260399Y445422D01*
X260449Y445471D01*
X260496Y445547D01*
X260551Y445618D01*
X260579Y445683D01*
X260616Y445742D01*
X260642Y445828D01*
X260678Y445910D01*
X260689Y445979D01*
X260709Y446046D01*
X260713Y446135D01*
X260728Y446224D01*
X260721Y446294D01*
X260724Y446364D01*
X260706Y446451D01*
X260698Y446541D01*
X260674Y446607D01*
X260660Y446675D01*
X260620Y446756D01*
X260590Y446840D01*
X260551Y446898D01*
X260520Y446961D01*
X260462Y447029D01*
X260412Y447103D01*
X260359Y447150D01*
X260314Y447203D01*
X260240Y447254D01*
X260173Y447314D01*
X260111Y447346D01*
X260054Y447386D01*
X259970Y447418D01*
X259890Y447458D01*
X259822Y447474D01*
X259756Y447499D01*
X259667Y447508D01*
X259580Y447528D01*
X259510Y447526D01*
X259440Y447534D01*
X259351Y447521D01*
X259262Y447518D01*
X259195Y447499D01*
X259126Y447489D01*
X258973Y447437D01*
X256173Y446277D01*
X251827Y446277D01*
X247813Y447940D01*
X244740Y451013D01*
X243077Y455027D01*
X243077Y459373D01*
X244740Y463387D01*
X247813Y466460D01*
X251827Y468123D01*
X256173Y468123D01*
X260187Y466460D01*
X262501Y464147D01*
X262610Y464061D01*
X262717Y463973D01*
X262736Y463964D01*
X262752Y463952D01*
X262880Y463896D01*
X263005Y463837D01*
X263025Y463833D01*
X263044Y463825D01*
X263182Y463803D01*
X263318Y463777D01*
X263338Y463779D01*
X263358Y463775D01*
X263497Y463788D01*
X263635Y463797D01*
X263654Y463803D01*
X263674Y463805D01*
X263806Y463852D01*
X263937Y463895D01*
X263955Y463906D01*
X263974Y463913D01*
X264089Y463991D01*
X264206Y464065D01*
X264220Y464080D01*
X264237Y464091D01*
X264329Y464196D01*
X264424Y464297D01*
X264434Y464315D01*
X264447Y464330D01*
X264511Y464454D01*
X264578Y464575D01*
X264583Y464595D01*
X264592Y464613D01*
X264622Y464749D01*
X264657Y464883D01*
X264659Y464911D01*
X264662Y464923D01*
X264661Y464944D01*
X264667Y465044D01*
X264667Y473086D01*
X264655Y473184D01*
X264652Y473283D01*
X264635Y473342D01*
X264627Y473402D01*
X264591Y473494D01*
X264563Y473589D01*
X264533Y473641D01*
X264510Y473697D01*
X264452Y473778D01*
X264402Y473863D01*
X264336Y473938D01*
X264324Y473955D01*
X264314Y473963D01*
X264296Y473984D01*
X263461Y474819D01*
X263367Y474891D01*
X263277Y474970D01*
X263241Y474989D01*
X263209Y475014D01*
X263100Y475061D01*
X262994Y475115D01*
X262955Y475124D01*
X262918Y475140D01*
X262800Y475159D01*
X262684Y475185D01*
X262643Y475183D01*
X262603Y475190D01*
X262485Y475179D01*
X262366Y475175D01*
X262327Y475164D01*
X262287Y475160D01*
X262175Y475120D01*
X262060Y475087D01*
X262026Y475066D01*
X261988Y475052D01*
X261889Y474985D01*
X261786Y474925D01*
X261741Y474885D01*
X261724Y474874D01*
X261711Y474858D01*
X261666Y474819D01*
X260187Y473340D01*
X256173Y471677D01*
X251827Y471677D01*
X247813Y473340D01*
X244740Y476413D01*
X243077Y480427D01*
X243077Y484773D01*
X244740Y488787D01*
X247363Y491410D01*
X247448Y491520D01*
X247536Y491626D01*
X247545Y491645D01*
X247558Y491661D01*
X247613Y491788D01*
X247672Y491913D01*
X247676Y491934D01*
X247684Y491953D01*
X247706Y492090D01*
X247732Y492226D01*
X247731Y492246D01*
X247734Y492267D01*
X247721Y492405D01*
X247712Y492543D01*
X247706Y492563D01*
X247704Y492584D01*
X247657Y492714D01*
X247615Y492846D01*
X247604Y492863D01*
X247596Y492883D01*
X247519Y492997D01*
X247445Y493115D01*
X247430Y493129D01*
X247418Y493146D01*
X247314Y493238D01*
X247213Y493333D01*
X247195Y493343D01*
X247179Y493357D01*
X247056Y493420D01*
X246935Y493486D01*
X246915Y493492D01*
X246896Y493501D01*
X246761Y493531D01*
X246627Y493566D01*
X246598Y493568D01*
X246586Y493571D01*
X246565Y493570D01*
X246466Y493577D01*
X241301Y493581D01*
X241182Y493566D01*
X241063Y493559D01*
X241025Y493546D01*
X240986Y493541D01*
X240874Y493497D01*
X240761Y493461D01*
X240727Y493439D01*
X240690Y493425D01*
X240593Y493354D01*
X240492Y493290D01*
X240464Y493261D01*
X240432Y493238D01*
X240356Y493146D01*
X240274Y493059D01*
X240255Y493024D01*
X240229Y492993D01*
X240178Y492885D01*
X240120Y492780D01*
X240110Y492742D01*
X240093Y492706D01*
X240071Y492588D01*
X240041Y492472D01*
X240037Y492413D01*
X240033Y492393D01*
X240035Y492373D01*
X240031Y492312D01*
X240031Y474979D01*
X232409Y474979D01*
X232409Y492320D01*
X232394Y492438D01*
X232387Y492556D01*
X232374Y492595D01*
X232369Y492636D01*
X232326Y492746D01*
X232289Y492859D01*
X232267Y492894D01*
X232252Y492932D01*
X232183Y493027D01*
X232119Y493128D01*
X232090Y493156D01*
X232065Y493189D01*
X231974Y493265D01*
X231888Y493346D01*
X231852Y493366D01*
X231820Y493392D01*
X231713Y493442D01*
X231610Y493500D01*
X231570Y493510D01*
X231533Y493527D01*
X231417Y493550D01*
X231302Y493579D01*
X231240Y493583D01*
X231220Y493587D01*
X231200Y493586D01*
X231141Y493590D01*
X228601Y493592D01*
X228482Y493577D01*
X228363Y493570D01*
X228325Y493557D01*
X228286Y493552D01*
X228174Y493508D01*
X228061Y493471D01*
X228027Y493450D01*
X227990Y493435D01*
X227893Y493365D01*
X227792Y493301D01*
X227765Y493272D01*
X227732Y493249D01*
X227656Y493157D01*
X227574Y493070D01*
X227555Y493035D01*
X227529Y493004D01*
X227478Y492896D01*
X227420Y492791D01*
X227411Y492753D01*
X227393Y492716D01*
X227371Y492599D01*
X227341Y492483D01*
X227337Y492424D01*
X227333Y492404D01*
X227335Y492384D01*
X227331Y492323D01*
X227331Y474979D01*
X219709Y474979D01*
X219709Y492331D01*
X219694Y492449D01*
X219687Y492567D01*
X219675Y492606D01*
X219669Y492647D01*
X219626Y492757D01*
X219589Y492870D01*
X219567Y492904D01*
X219552Y492942D01*
X219483Y493038D01*
X219419Y493139D01*
X219390Y493167D01*
X219366Y493200D01*
X219274Y493275D01*
X219188Y493357D01*
X219152Y493376D01*
X219121Y493403D01*
X219013Y493453D01*
X218910Y493510D01*
X218870Y493521D01*
X218833Y493538D01*
X218717Y493560D01*
X218602Y493590D01*
X218541Y493594D01*
X218521Y493598D01*
X218500Y493597D01*
X218441Y493600D01*
X190501Y493624D01*
X190382Y493609D01*
X190263Y493602D01*
X190225Y493590D01*
X190186Y493585D01*
X190074Y493541D01*
X189961Y493504D01*
X189927Y493483D01*
X189890Y493468D01*
X189793Y493398D01*
X189692Y493334D01*
X189664Y493305D01*
X189632Y493281D01*
X189556Y493189D01*
X189474Y493102D01*
X189455Y493067D01*
X189429Y493037D01*
X189378Y492928D01*
X189320Y492824D01*
X189310Y492785D01*
X189293Y492749D01*
X189271Y492631D01*
X189241Y492516D01*
X189237Y492457D01*
X189233Y492437D01*
X189235Y492416D01*
X189231Y492355D01*
X189231Y474979D01*
X181609Y474979D01*
X181609Y492364D01*
X181594Y492481D01*
X181587Y492600D01*
X181574Y492639D01*
X181569Y492679D01*
X181526Y492789D01*
X181489Y492902D01*
X181467Y492937D01*
X181452Y492975D01*
X181383Y493071D01*
X181319Y493171D01*
X181290Y493199D01*
X181265Y493232D01*
X181174Y493308D01*
X181088Y493389D01*
X181052Y493409D01*
X181020Y493435D01*
X180913Y493486D01*
X180810Y493543D01*
X180770Y493553D01*
X180733Y493571D01*
X180617Y493593D01*
X180502Y493623D01*
X180441Y493627D01*
X180420Y493630D01*
X180400Y493629D01*
X180341Y493633D01*
X177801Y493635D01*
X177682Y493620D01*
X177563Y493613D01*
X177525Y493601D01*
X177486Y493596D01*
X177374Y493552D01*
X177261Y493515D01*
X177227Y493494D01*
X177190Y493479D01*
X177093Y493409D01*
X176992Y493345D01*
X176965Y493316D01*
X176932Y493292D01*
X176856Y493200D01*
X176774Y493113D01*
X176755Y493078D01*
X176729Y493047D01*
X176678Y492939D01*
X176620Y492835D01*
X176611Y492796D01*
X176593Y492760D01*
X176571Y492642D01*
X176541Y492527D01*
X176537Y492467D01*
X176533Y492448D01*
X176535Y492427D01*
X176531Y492366D01*
X176531Y474979D01*
X168909Y474979D01*
X168909Y492375D01*
X168894Y492492D01*
X168887Y492610D01*
X168875Y492650D01*
X168869Y492690D01*
X168826Y492800D01*
X168789Y492913D01*
X168767Y492948D01*
X168752Y492986D01*
X168683Y493082D01*
X168619Y493182D01*
X168590Y493210D01*
X168566Y493243D01*
X168474Y493319D01*
X168388Y493400D01*
X168352Y493420D01*
X168321Y493446D01*
X168213Y493496D01*
X168110Y493554D01*
X168070Y493564D01*
X168033Y493582D01*
X167917Y493604D01*
X167802Y493634D01*
X167741Y493637D01*
X167721Y493641D01*
X167700Y493640D01*
X167641Y493644D01*
X5071Y493783D01*
X4954Y493768D01*
X4836Y493761D01*
X4797Y493748D01*
X4756Y493743D01*
X4646Y493700D01*
X4534Y493664D01*
X4499Y493642D01*
X4460Y493626D01*
X4364Y493557D01*
X4265Y493494D01*
X4236Y493464D01*
X4202Y493440D01*
X4127Y493349D01*
X4046Y493263D01*
X4026Y493227D01*
X3999Y493195D01*
X3949Y493088D01*
X3892Y492985D01*
X3881Y492945D01*
X3864Y492907D01*
X3841Y492791D01*
X3812Y492677D01*
X3807Y492615D01*
X3804Y492595D01*
X3805Y492575D01*
X3804Y492556D01*
X3803Y492555D01*
X3803Y492554D01*
X3801Y492517D01*
X3757Y475283D01*
X3766Y475213D01*
X3764Y475141D01*
X3785Y475055D01*
X3796Y474968D01*
X3822Y474901D01*
X3839Y474832D01*
X3880Y474754D01*
X3912Y474672D01*
X3954Y474614D01*
X3987Y474551D01*
X4047Y474486D01*
X4098Y474414D01*
X4153Y474368D01*
X4201Y474316D01*
X4275Y474267D01*
X4343Y474211D01*
X4407Y474180D01*
X4467Y474141D01*
X4551Y474112D01*
X4630Y474074D01*
X4700Y474061D01*
X4768Y474038D01*
X4856Y474031D01*
X4942Y474014D01*
X5013Y474018D01*
X5085Y474012D01*
X5172Y474027D01*
X5260Y474033D01*
X5328Y474055D01*
X5398Y474067D01*
X5479Y474103D01*
X5563Y474130D01*
X5623Y474168D01*
X5688Y474197D01*
X5757Y474252D01*
X5832Y474299D01*
X5881Y474351D01*
X5937Y474396D01*
X5990Y474466D01*
X6050Y474530D01*
X6085Y474593D01*
X6128Y474650D01*
X6199Y474794D01*
X6379Y475229D01*
X6388Y475263D01*
X6404Y475295D01*
X6447Y475451D01*
X7008Y478089D01*
X8211Y479744D01*
X8244Y479805D01*
X8286Y479860D01*
X8357Y480004D01*
X8773Y481010D01*
X10009Y482246D01*
X10021Y482261D01*
X10036Y482273D01*
X10139Y482397D01*
X11929Y484861D01*
X13431Y485728D01*
X13499Y485780D01*
X13573Y485824D01*
X13675Y485914D01*
X13684Y485921D01*
X13687Y485924D01*
X13693Y485930D01*
X14290Y486527D01*
X16066Y487262D01*
X16068Y487264D01*
X16071Y487264D01*
X16215Y487336D01*
X19179Y489047D01*
X20598Y489196D01*
X20698Y489220D01*
X20799Y489234D01*
X20887Y489264D01*
X20908Y489269D01*
X20920Y489275D01*
X20951Y489286D01*
X21499Y489513D01*
X23543Y489513D01*
X23560Y489515D01*
X23676Y489520D01*
X27504Y489922D01*
X28573Y489575D01*
X28690Y489553D01*
X28805Y489523D01*
X28865Y489519D01*
X28885Y489515D01*
X28906Y489517D01*
X28965Y489513D01*
X29301Y489513D01*
X31209Y488723D01*
X31230Y488717D01*
X31303Y488688D01*
X35466Y487335D01*
X36078Y486785D01*
X36189Y486707D01*
X36297Y486626D01*
X36327Y486611D01*
X36339Y486603D01*
X36359Y486596D01*
X36441Y486555D01*
X36510Y486527D01*
X37805Y485232D01*
X37819Y485221D01*
X37853Y485186D01*
X41687Y481734D01*
X41900Y481256D01*
X41979Y481126D01*
X42250Y480471D01*
X42255Y480463D01*
X42263Y480441D01*
X45092Y474086D01*
X45092Y465714D01*
X42263Y459359D01*
X42260Y459349D01*
X42250Y459329D01*
X41994Y458711D01*
X41975Y458687D01*
X41970Y458679D01*
X41968Y458675D01*
X41963Y458664D01*
X41900Y458544D01*
X41687Y458066D01*
X37853Y454614D01*
X37841Y454600D01*
X37805Y454568D01*
X36510Y453273D01*
X36441Y453245D01*
X36324Y453178D01*
X36204Y453115D01*
X36177Y453094D01*
X36165Y453087D01*
X36150Y453072D01*
X36078Y453015D01*
X35466Y452465D01*
X31302Y451112D01*
X31283Y451103D01*
X31209Y451077D01*
X29301Y450287D01*
X28965Y450287D01*
X28847Y450272D01*
X28729Y450265D01*
X28670Y450250D01*
X28650Y450247D01*
X28631Y450240D01*
X28573Y450225D01*
X27504Y449878D01*
X23676Y450280D01*
X23658Y450280D01*
X23543Y450287D01*
X21499Y450287D01*
X20951Y450514D01*
X20852Y450541D01*
X20757Y450577D01*
X20665Y450592D01*
X20644Y450598D01*
X20631Y450598D01*
X20598Y450604D01*
X19179Y450753D01*
X16215Y452464D01*
X16213Y452465D01*
X16210Y452467D01*
X16066Y452538D01*
X14290Y453273D01*
X13693Y453870D01*
X13626Y453922D01*
X13565Y453983D01*
X13451Y454058D01*
X13442Y454065D01*
X13438Y454067D01*
X13431Y454072D01*
X11929Y454939D01*
X10139Y457403D01*
X10126Y457417D01*
X10116Y457433D01*
X10009Y457554D01*
X8773Y458790D01*
X8357Y459796D01*
X8322Y459856D01*
X8297Y459920D01*
X8211Y460056D01*
X7008Y461711D01*
X6447Y464349D01*
X6436Y464383D01*
X6431Y464419D01*
X6379Y464571D01*
X6171Y465072D01*
X6164Y465085D01*
X6162Y465090D01*
X6148Y465113D01*
X6138Y465131D01*
X6113Y465194D01*
X6059Y465268D01*
X6014Y465348D01*
X5966Y465397D01*
X5926Y465452D01*
X5856Y465511D01*
X5792Y465576D01*
X5734Y465612D01*
X5682Y465655D01*
X5599Y465695D01*
X5521Y465742D01*
X5456Y465763D01*
X5395Y465792D01*
X5305Y465809D01*
X5217Y465836D01*
X5149Y465839D01*
X5082Y465852D01*
X4991Y465847D01*
X4900Y465851D01*
X4833Y465837D01*
X4765Y465833D01*
X4678Y465805D01*
X4588Y465787D01*
X4527Y465757D01*
X4462Y465736D01*
X4385Y465687D01*
X4303Y465647D01*
X4251Y465603D01*
X4193Y465567D01*
X4130Y465500D01*
X4061Y465441D01*
X4021Y465385D01*
X3975Y465336D01*
X3930Y465256D01*
X3878Y465181D01*
X3853Y465117D01*
X3820Y465057D01*
X3797Y464969D01*
X3765Y464883D01*
X3757Y464816D01*
X3740Y464750D01*
X3732Y464634D01*
X3732Y464631D01*
X3732Y464629D01*
X3729Y464589D01*
X2607Y26201D01*
X2624Y26062D01*
X2637Y25922D01*
X2644Y25904D01*
X2646Y25886D01*
X2697Y25755D01*
X2745Y25622D01*
X2755Y25607D01*
X2762Y25590D01*
X2844Y25476D01*
X2923Y25359D01*
X2937Y25347D01*
X2948Y25332D01*
X3056Y25242D01*
X3162Y25149D01*
X3178Y25140D01*
X3193Y25128D01*
X3320Y25068D01*
X3445Y25004D01*
X3463Y25000D01*
X3480Y24992D01*
X3618Y24965D01*
X3755Y24935D01*
X3774Y24935D01*
X3792Y24932D01*
X3932Y24940D01*
G37*
G36*
X325018Y119166D02*
X325018Y119166D01*
X325137Y119173D01*
X325175Y119186D01*
X325215Y119191D01*
X325326Y119235D01*
X325439Y119271D01*
X325474Y119293D01*
X325511Y119308D01*
X325607Y119378D01*
X325708Y119441D01*
X325736Y119471D01*
X325768Y119495D01*
X325844Y119586D01*
X325926Y119673D01*
X325945Y119708D01*
X325971Y119740D01*
X326022Y119847D01*
X326079Y119951D01*
X326090Y119991D01*
X326107Y120027D01*
X326129Y120144D01*
X326159Y120259D01*
X326163Y120320D01*
X326167Y120340D01*
X326165Y120360D01*
X326169Y120420D01*
X326169Y130191D01*
X330464Y130191D01*
X331111Y130018D01*
X331343Y129883D01*
X331465Y129832D01*
X331585Y129776D01*
X331612Y129770D01*
X331637Y129760D01*
X331768Y129741D01*
X331898Y129716D01*
X331924Y129717D01*
X331951Y129713D01*
X332083Y129727D01*
X332215Y129735D01*
X332241Y129744D01*
X332267Y129747D01*
X332391Y129793D01*
X332517Y129834D01*
X332540Y129848D01*
X332566Y129857D01*
X332674Y129933D01*
X332786Y130004D01*
X332805Y130023D01*
X332827Y130039D01*
X332913Y130139D01*
X333004Y130235D01*
X333017Y130259D01*
X333035Y130279D01*
X333094Y130398D01*
X333158Y130514D01*
X333164Y130540D01*
X333176Y130564D01*
X333204Y130694D01*
X333237Y130822D01*
X333239Y130860D01*
X333243Y130875D01*
X333242Y130897D01*
X333247Y130982D01*
X333247Y233056D01*
X333235Y233154D01*
X333232Y233253D01*
X333215Y233312D01*
X333207Y233372D01*
X333171Y233464D01*
X333143Y233559D01*
X333113Y233611D01*
X333090Y233667D01*
X333032Y233747D01*
X332982Y233833D01*
X332916Y233908D01*
X332904Y233925D01*
X332894Y233933D01*
X332876Y233954D01*
X326918Y239912D01*
X326839Y239972D01*
X326767Y240040D01*
X326714Y240069D01*
X326666Y240106D01*
X326575Y240146D01*
X326489Y240194D01*
X326430Y240209D01*
X326375Y240233D01*
X326277Y240248D01*
X326203Y240267D01*
X274957Y291514D01*
X274878Y291574D01*
X274806Y291642D01*
X274753Y291671D01*
X274705Y291708D01*
X274614Y291748D01*
X274528Y291796D01*
X274469Y291811D01*
X274413Y291835D01*
X274315Y291850D01*
X274220Y291875D01*
X274120Y291881D01*
X274099Y291885D01*
X274087Y291883D01*
X274059Y291885D01*
X271744Y291885D01*
X269331Y292885D01*
X267485Y294731D01*
X267365Y295021D01*
X267330Y295082D01*
X267304Y295147D01*
X267252Y295219D01*
X267207Y295298D01*
X267159Y295348D01*
X267118Y295404D01*
X267048Y295462D01*
X266986Y295526D01*
X266926Y295562D01*
X266873Y295607D01*
X266791Y295645D01*
X266715Y295692D01*
X266648Y295713D01*
X266585Y295743D01*
X266497Y295759D01*
X266411Y295786D01*
X266341Y295789D01*
X266272Y295802D01*
X266183Y295797D01*
X266093Y295801D01*
X266025Y295787D01*
X265955Y295783D01*
X265870Y295755D01*
X265782Y295737D01*
X265719Y295706D01*
X265653Y295685D01*
X265577Y295636D01*
X265496Y295597D01*
X265443Y295552D01*
X265384Y295514D01*
X265322Y295449D01*
X265254Y295391D01*
X265214Y295334D01*
X265166Y295283D01*
X265123Y295204D01*
X265071Y295131D01*
X265046Y295065D01*
X265012Y295004D01*
X264990Y294917D01*
X264958Y294833D01*
X264950Y294764D01*
X264933Y294696D01*
X264923Y294536D01*
X264923Y293994D01*
X264935Y293896D01*
X264938Y293797D01*
X264955Y293738D01*
X264963Y293678D01*
X264999Y293586D01*
X265027Y293491D01*
X265057Y293439D01*
X265080Y293383D01*
X265138Y293303D01*
X265188Y293217D01*
X265254Y293142D01*
X265266Y293125D01*
X265276Y293117D01*
X265294Y293096D01*
X315723Y242668D01*
X315723Y131460D01*
X315738Y131342D01*
X315745Y131223D01*
X315758Y131185D01*
X315763Y131144D01*
X315806Y131034D01*
X315843Y130921D01*
X315865Y130886D01*
X315880Y130849D01*
X315949Y130753D01*
X316013Y130652D01*
X316043Y130624D01*
X316066Y130591D01*
X316158Y130515D01*
X316245Y130434D01*
X316280Y130414D01*
X316311Y130389D01*
X316419Y130338D01*
X316523Y130280D01*
X316563Y130270D01*
X316599Y130253D01*
X316716Y130231D01*
X316831Y130201D01*
X316891Y130197D01*
X316911Y130193D01*
X316932Y130195D01*
X316992Y130191D01*
X321091Y130191D01*
X321091Y120420D01*
X321106Y120302D01*
X321113Y120183D01*
X321126Y120145D01*
X321131Y120105D01*
X321174Y119994D01*
X321211Y119881D01*
X321233Y119846D01*
X321248Y119809D01*
X321318Y119713D01*
X321381Y119612D01*
X321411Y119584D01*
X321435Y119552D01*
X321526Y119476D01*
X321613Y119394D01*
X321648Y119375D01*
X321679Y119349D01*
X321787Y119298D01*
X321891Y119241D01*
X321931Y119230D01*
X321967Y119213D01*
X322084Y119191D01*
X322199Y119161D01*
X322260Y119157D01*
X322280Y119153D01*
X322300Y119155D01*
X322360Y119151D01*
X324900Y119151D01*
X325018Y119166D01*
G37*
%LPC*%
G36*
X430076Y450280D02*
X430076Y450280D01*
X430058Y450280D01*
X429943Y450287D01*
X427899Y450287D01*
X427351Y450514D01*
X427252Y450541D01*
X427157Y450577D01*
X427065Y450592D01*
X427044Y450598D01*
X427031Y450598D01*
X426998Y450604D01*
X425579Y450753D01*
X422615Y452464D01*
X422613Y452465D01*
X422610Y452467D01*
X422466Y452538D01*
X420690Y453273D01*
X420093Y453870D01*
X420026Y453922D01*
X419965Y453983D01*
X419851Y454058D01*
X419842Y454065D01*
X419838Y454067D01*
X419831Y454072D01*
X418329Y454939D01*
X416539Y457403D01*
X416526Y457417D01*
X416516Y457433D01*
X416409Y457554D01*
X415173Y458790D01*
X414757Y459796D01*
X414722Y459856D01*
X414697Y459920D01*
X414611Y460056D01*
X413408Y461711D01*
X412847Y464349D01*
X412836Y464383D01*
X412831Y464419D01*
X412779Y464571D01*
X412187Y465999D01*
X412187Y467322D01*
X412181Y467374D01*
X412183Y467426D01*
X412160Y467586D01*
X411668Y469900D01*
X412160Y472214D01*
X412164Y472267D01*
X412177Y472317D01*
X412187Y472478D01*
X412187Y473801D01*
X412779Y475229D01*
X412788Y475263D01*
X412804Y475295D01*
X412847Y475451D01*
X413408Y478089D01*
X414611Y479744D01*
X414644Y479805D01*
X414686Y479860D01*
X414757Y480004D01*
X415173Y481010D01*
X416409Y482246D01*
X416421Y482261D01*
X416436Y482273D01*
X416539Y482397D01*
X418329Y484861D01*
X419831Y485728D01*
X419899Y485780D01*
X419973Y485824D01*
X420075Y485914D01*
X420084Y485921D01*
X420087Y485924D01*
X420093Y485930D01*
X420690Y486527D01*
X422466Y487262D01*
X422468Y487264D01*
X422471Y487264D01*
X422615Y487336D01*
X425579Y489047D01*
X426998Y489196D01*
X427098Y489220D01*
X427199Y489234D01*
X427287Y489264D01*
X427308Y489269D01*
X427320Y489275D01*
X427351Y489286D01*
X427899Y489513D01*
X429943Y489513D01*
X429960Y489515D01*
X430076Y489520D01*
X433904Y489922D01*
X434973Y489575D01*
X435090Y489553D01*
X435205Y489523D01*
X435265Y489519D01*
X435285Y489515D01*
X435306Y489517D01*
X435365Y489513D01*
X435701Y489513D01*
X437609Y488722D01*
X437630Y488717D01*
X437703Y488688D01*
X441866Y487335D01*
X442478Y486785D01*
X442589Y486707D01*
X442697Y486626D01*
X442727Y486611D01*
X442739Y486603D01*
X442759Y486596D01*
X442841Y486555D01*
X442910Y486527D01*
X444205Y485232D01*
X444219Y485221D01*
X444253Y485186D01*
X448087Y481734D01*
X448300Y481256D01*
X448379Y481126D01*
X448650Y480471D01*
X448655Y480462D01*
X448663Y480441D01*
X451492Y474086D01*
X451492Y465714D01*
X448663Y459359D01*
X448660Y459349D01*
X448650Y459329D01*
X448394Y458711D01*
X448375Y458687D01*
X448370Y458679D01*
X448368Y458675D01*
X448363Y458664D01*
X448300Y458544D01*
X448087Y458066D01*
X444253Y454614D01*
X444241Y454600D01*
X444205Y454568D01*
X442910Y453273D01*
X442841Y453245D01*
X442724Y453178D01*
X442604Y453115D01*
X442577Y453094D01*
X442565Y453087D01*
X442550Y453072D01*
X442478Y453015D01*
X441866Y452465D01*
X437702Y451112D01*
X437683Y451103D01*
X437609Y451077D01*
X435701Y450287D01*
X435365Y450287D01*
X435247Y450272D01*
X435129Y450265D01*
X435070Y450250D01*
X435050Y450247D01*
X435031Y450240D01*
X434973Y450225D01*
X433904Y449878D01*
X430076Y450280D01*
G37*
%LPD*%
G36*
X196318Y121664D02*
X196318Y121664D01*
X196338Y121663D01*
X196475Y121691D01*
X196612Y121715D01*
X196630Y121723D01*
X196650Y121727D01*
X196775Y121788D01*
X196902Y121846D01*
X196917Y121858D01*
X196936Y121867D01*
X197041Y121957D01*
X197150Y122044D01*
X197162Y122060D01*
X197178Y122073D01*
X197258Y122187D01*
X197341Y122298D01*
X197354Y122323D01*
X197361Y122333D01*
X197368Y122352D01*
X197412Y122443D01*
X198085Y124068D01*
X199782Y125765D01*
X202000Y126683D01*
X204400Y126683D01*
X206618Y125765D01*
X207891Y124492D01*
X208000Y124407D01*
X208107Y124318D01*
X208126Y124309D01*
X208142Y124297D01*
X208269Y124242D01*
X208395Y124182D01*
X208415Y124179D01*
X208434Y124170D01*
X208572Y124149D01*
X208708Y124123D01*
X208728Y124124D01*
X208748Y124121D01*
X208887Y124134D01*
X209025Y124142D01*
X209044Y124149D01*
X209064Y124150D01*
X209196Y124198D01*
X209327Y124240D01*
X209345Y124251D01*
X209364Y124258D01*
X209479Y124336D01*
X209596Y124410D01*
X209610Y124425D01*
X209627Y124437D01*
X209719Y124541D01*
X209814Y124642D01*
X209824Y124660D01*
X209837Y124675D01*
X209901Y124799D01*
X209968Y124921D01*
X209973Y124940D01*
X209982Y124958D01*
X210012Y125094D01*
X210047Y125229D01*
X210049Y125257D01*
X210052Y125269D01*
X210051Y125289D01*
X210057Y125389D01*
X210057Y148688D01*
X214766Y153396D01*
X214826Y153475D01*
X214894Y153547D01*
X214923Y153600D01*
X214960Y153648D01*
X215000Y153739D01*
X215048Y153825D01*
X215063Y153884D01*
X215087Y153939D01*
X215102Y154037D01*
X215127Y154133D01*
X215133Y154233D01*
X215137Y154254D01*
X215135Y154266D01*
X215137Y154294D01*
X215137Y155869D01*
X215131Y155919D01*
X215133Y155968D01*
X215111Y156076D01*
X215097Y156185D01*
X215079Y156231D01*
X215069Y156280D01*
X215021Y156378D01*
X214980Y156480D01*
X214951Y156521D01*
X214929Y156565D01*
X214858Y156649D01*
X214794Y156738D01*
X214755Y156769D01*
X214723Y156807D01*
X214633Y156870D01*
X214549Y156941D01*
X214504Y156962D01*
X214463Y156990D01*
X214360Y157029D01*
X214261Y157076D01*
X214212Y157085D01*
X214166Y157103D01*
X214056Y157115D01*
X213949Y157136D01*
X213899Y157133D01*
X213850Y157138D01*
X213741Y157123D01*
X213631Y157116D01*
X213584Y157101D01*
X213535Y157094D01*
X213382Y157042D01*
X210856Y155995D01*
X208244Y155995D01*
X205831Y156995D01*
X203985Y158841D01*
X202985Y161254D01*
X202985Y163866D01*
X203985Y166279D01*
X205876Y168169D01*
X205936Y168248D01*
X206004Y168320D01*
X206033Y168373D01*
X206070Y168421D01*
X206110Y168512D01*
X206158Y168598D01*
X206173Y168657D01*
X206197Y168713D01*
X206212Y168811D01*
X206237Y168906D01*
X206243Y169006D01*
X206247Y169027D01*
X206245Y169039D01*
X206247Y169067D01*
X206247Y206132D01*
X206230Y206270D01*
X206217Y206409D01*
X206210Y206428D01*
X206207Y206448D01*
X206156Y206577D01*
X206109Y206708D01*
X206098Y206725D01*
X206090Y206743D01*
X206009Y206856D01*
X205931Y206971D01*
X205915Y206984D01*
X205904Y207001D01*
X205796Y207089D01*
X205692Y207182D01*
X205674Y207191D01*
X205659Y207204D01*
X205533Y207263D01*
X205409Y207326D01*
X205389Y207331D01*
X205371Y207339D01*
X205235Y207365D01*
X205099Y207396D01*
X205078Y207395D01*
X205059Y207399D01*
X204920Y207390D01*
X204781Y207386D01*
X204761Y207380D01*
X204741Y207379D01*
X204609Y207336D01*
X204475Y207298D01*
X204458Y207287D01*
X204439Y207281D01*
X204321Y207207D01*
X204201Y207136D01*
X204180Y207118D01*
X204170Y207111D01*
X204156Y207096D01*
X204081Y207030D01*
X192904Y195854D01*
X192844Y195775D01*
X192776Y195703D01*
X192747Y195650D01*
X192710Y195602D01*
X192670Y195511D01*
X192622Y195425D01*
X192607Y195366D01*
X192583Y195311D01*
X192568Y195213D01*
X192543Y195117D01*
X192537Y195017D01*
X192533Y194996D01*
X192535Y194984D01*
X192533Y194956D01*
X192533Y125887D01*
X192545Y125789D01*
X192548Y125690D01*
X192565Y125632D01*
X192573Y125571D01*
X192609Y125479D01*
X192637Y125384D01*
X192667Y125332D01*
X192690Y125276D01*
X192748Y125196D01*
X192798Y125110D01*
X192864Y125035D01*
X192876Y125018D01*
X192886Y125011D01*
X192904Y124989D01*
X194795Y123099D01*
X195067Y122443D01*
X195136Y122322D01*
X195201Y122199D01*
X195215Y122184D01*
X195225Y122166D01*
X195321Y122067D01*
X195415Y121964D01*
X195432Y121953D01*
X195446Y121938D01*
X195564Y121865D01*
X195680Y121789D01*
X195700Y121782D01*
X195717Y121772D01*
X195850Y121731D01*
X195981Y121686D01*
X196001Y121684D01*
X196021Y121678D01*
X196160Y121672D01*
X196298Y121661D01*
X196318Y121664D01*
G37*
%LPC*%
G36*
X10076Y202959D02*
X10076Y202959D01*
X9429Y203132D01*
X8850Y203467D01*
X8377Y203940D01*
X8042Y204519D01*
X7869Y205166D01*
X7869Y216501D01*
X13563Y216501D01*
X13625Y216508D01*
X13686Y216507D01*
X13782Y216528D01*
X13879Y216541D01*
X13936Y216563D01*
X13996Y216577D01*
X14084Y216622D01*
X14175Y216658D01*
X14225Y216694D01*
X14279Y216722D01*
X14353Y216787D01*
X14432Y216844D01*
X14471Y216892D01*
X14517Y216933D01*
X14572Y217014D01*
X14635Y217089D01*
X14661Y217145D01*
X14696Y217196D01*
X14729Y217289D01*
X14770Y217377D01*
X14782Y217438D01*
X14803Y217496D01*
X14827Y217655D01*
X14848Y217885D01*
X14847Y217920D01*
X14853Y217954D01*
X14848Y218115D01*
X14827Y218345D01*
X14814Y218405D01*
X14810Y218467D01*
X14780Y218560D01*
X14759Y218656D01*
X14731Y218711D01*
X14712Y218769D01*
X14660Y218852D01*
X14616Y218940D01*
X14575Y218986D01*
X14542Y219038D01*
X14471Y219105D01*
X14406Y219179D01*
X14356Y219214D01*
X14311Y219256D01*
X14225Y219303D01*
X14144Y219359D01*
X14086Y219380D01*
X14032Y219410D01*
X13937Y219434D01*
X13845Y219468D01*
X13784Y219474D01*
X13724Y219489D01*
X13563Y219499D01*
X7869Y219499D01*
X7869Y230834D01*
X8042Y231481D01*
X8377Y232060D01*
X8850Y232533D01*
X9429Y232868D01*
X10076Y233041D01*
X21411Y233041D01*
X21411Y224810D01*
X21426Y224692D01*
X21433Y224573D01*
X21445Y224535D01*
X21451Y224494D01*
X21494Y224384D01*
X21531Y224271D01*
X21553Y224236D01*
X21568Y224199D01*
X21637Y224103D01*
X21701Y224002D01*
X21731Y223974D01*
X21754Y223941D01*
X21846Y223865D01*
X21933Y223784D01*
X21968Y223764D01*
X21999Y223739D01*
X22107Y223688D01*
X22211Y223630D01*
X22251Y223620D01*
X22287Y223603D01*
X22404Y223581D01*
X22519Y223551D01*
X22579Y223547D01*
X22599Y223543D01*
X22620Y223545D01*
X22680Y223541D01*
X23140Y223541D01*
X23258Y223556D01*
X23377Y223563D01*
X23415Y223576D01*
X23456Y223581D01*
X23566Y223624D01*
X23679Y223661D01*
X23714Y223683D01*
X23751Y223698D01*
X23847Y223767D01*
X23948Y223831D01*
X23976Y223861D01*
X24009Y223884D01*
X24085Y223976D01*
X24166Y224063D01*
X24186Y224098D01*
X24211Y224129D01*
X24262Y224237D01*
X24320Y224341D01*
X24330Y224381D01*
X24347Y224417D01*
X24369Y224534D01*
X24399Y224649D01*
X24403Y224709D01*
X24407Y224729D01*
X24405Y224750D01*
X24409Y224810D01*
X24409Y233041D01*
X34600Y233041D01*
X34718Y233056D01*
X34837Y233063D01*
X34875Y233076D01*
X34916Y233081D01*
X35026Y233124D01*
X35139Y233161D01*
X35174Y233183D01*
X35211Y233198D01*
X35307Y233267D01*
X35408Y233331D01*
X35436Y233361D01*
X35469Y233384D01*
X35545Y233476D01*
X35626Y233563D01*
X35646Y233598D01*
X35671Y233629D01*
X35722Y233737D01*
X35780Y233841D01*
X35790Y233881D01*
X35807Y233917D01*
X35829Y234034D01*
X35859Y234149D01*
X35863Y234209D01*
X35867Y234229D01*
X35865Y234250D01*
X35869Y234310D01*
X35869Y235702D01*
X36789Y237922D01*
X38488Y239621D01*
X40708Y240541D01*
X43112Y240541D01*
X45332Y239621D01*
X47031Y237922D01*
X47951Y235702D01*
X47951Y233298D01*
X46991Y230982D01*
X46988Y230968D01*
X46980Y230955D01*
X46946Y230815D01*
X46907Y230676D01*
X46907Y230661D01*
X46904Y230647D01*
X46905Y230502D01*
X46902Y230358D01*
X46906Y230343D01*
X46906Y230329D01*
X46943Y230189D01*
X46977Y230048D01*
X46984Y230035D01*
X46987Y230021D01*
X47058Y229895D01*
X47125Y229767D01*
X47135Y229756D01*
X47142Y229744D01*
X47242Y229639D01*
X47339Y229532D01*
X47352Y229524D01*
X47362Y229513D01*
X47484Y229437D01*
X47605Y229357D01*
X47619Y229352D01*
X47631Y229345D01*
X47769Y229301D01*
X47906Y229254D01*
X47920Y229253D01*
X47935Y229248D01*
X48079Y229240D01*
X48223Y229229D01*
X48237Y229231D01*
X48252Y229231D01*
X48412Y229252D01*
X49161Y229401D01*
X49161Y222749D01*
X42509Y222749D01*
X42659Y223503D01*
X43306Y225064D01*
X44255Y226485D01*
X44262Y226498D01*
X44271Y226509D01*
X44332Y226640D01*
X44397Y226769D01*
X44400Y226784D01*
X44406Y226797D01*
X44434Y226938D01*
X44464Y227080D01*
X44463Y227095D01*
X44466Y227110D01*
X44457Y227253D01*
X44452Y227398D01*
X44447Y227412D01*
X44447Y227427D01*
X44402Y227564D01*
X44361Y227703D01*
X44353Y227715D01*
X44348Y227729D01*
X44271Y227852D01*
X44197Y227975D01*
X44186Y227986D01*
X44178Y227998D01*
X44073Y228097D01*
X43970Y228198D01*
X43958Y228206D01*
X43947Y228216D01*
X43820Y228286D01*
X43695Y228358D01*
X43681Y228362D01*
X43668Y228370D01*
X43528Y228406D01*
X43389Y228445D01*
X43375Y228445D01*
X43360Y228449D01*
X43200Y228459D01*
X40708Y228459D01*
X39706Y228875D01*
X39658Y228888D01*
X39613Y228909D01*
X39505Y228930D01*
X39399Y228959D01*
X39349Y228959D01*
X39300Y228969D01*
X39191Y228962D01*
X39081Y228964D01*
X39033Y228952D01*
X38983Y228949D01*
X38879Y228915D01*
X38772Y228889D01*
X38728Y228866D01*
X38681Y228851D01*
X38588Y228792D01*
X38491Y228741D01*
X38454Y228707D01*
X38412Y228681D01*
X38337Y228601D01*
X38255Y228527D01*
X38228Y228485D01*
X38194Y228449D01*
X38141Y228353D01*
X38081Y228261D01*
X38064Y228214D01*
X38040Y228171D01*
X38013Y228064D01*
X37977Y227960D01*
X37973Y227911D01*
X37961Y227863D01*
X37951Y227702D01*
X37951Y219499D01*
X32257Y219499D01*
X32195Y219492D01*
X32134Y219493D01*
X32038Y219472D01*
X31941Y219459D01*
X31884Y219437D01*
X31823Y219423D01*
X31736Y219378D01*
X31645Y219342D01*
X31595Y219306D01*
X31540Y219278D01*
X31467Y219213D01*
X31388Y219156D01*
X31349Y219108D01*
X31302Y219067D01*
X31248Y218986D01*
X31185Y218911D01*
X31159Y218855D01*
X31124Y218804D01*
X31091Y218711D01*
X31050Y218623D01*
X31038Y218562D01*
X31017Y218504D01*
X30993Y218345D01*
X30972Y218115D01*
X30973Y218080D01*
X30967Y218046D01*
X30972Y217885D01*
X30993Y217655D01*
X31006Y217595D01*
X31010Y217533D01*
X31040Y217440D01*
X31061Y217344D01*
X31089Y217289D01*
X31108Y217231D01*
X31160Y217148D01*
X31204Y217060D01*
X31245Y217014D01*
X31278Y216962D01*
X31349Y216895D01*
X31414Y216821D01*
X31465Y216786D01*
X31509Y216744D01*
X31595Y216697D01*
X31676Y216641D01*
X31734Y216620D01*
X31788Y216590D01*
X31883Y216566D01*
X31975Y216532D01*
X32036Y216526D01*
X32096Y216511D01*
X32257Y216501D01*
X37951Y216501D01*
X37951Y205166D01*
X37778Y204519D01*
X37443Y203940D01*
X36970Y203467D01*
X36391Y203132D01*
X35744Y202959D01*
X24409Y202959D01*
X24409Y211190D01*
X24394Y211308D01*
X24387Y211427D01*
X24374Y211465D01*
X24369Y211506D01*
X24326Y211616D01*
X24289Y211729D01*
X24267Y211764D01*
X24252Y211801D01*
X24183Y211897D01*
X24119Y211998D01*
X24089Y212026D01*
X24066Y212059D01*
X23974Y212135D01*
X23887Y212216D01*
X23852Y212236D01*
X23821Y212261D01*
X23713Y212312D01*
X23609Y212370D01*
X23569Y212380D01*
X23533Y212397D01*
X23416Y212419D01*
X23301Y212449D01*
X23241Y212453D01*
X23221Y212457D01*
X23200Y212455D01*
X23140Y212459D01*
X22680Y212459D01*
X22562Y212444D01*
X22443Y212437D01*
X22405Y212424D01*
X22364Y212419D01*
X22254Y212376D01*
X22141Y212339D01*
X22106Y212317D01*
X22069Y212302D01*
X21972Y212233D01*
X21872Y212169D01*
X21844Y212139D01*
X21811Y212116D01*
X21735Y212024D01*
X21654Y211937D01*
X21634Y211902D01*
X21609Y211871D01*
X21558Y211763D01*
X21500Y211659D01*
X21490Y211619D01*
X21473Y211583D01*
X21451Y211466D01*
X21421Y211351D01*
X21417Y211291D01*
X21413Y211271D01*
X21415Y211250D01*
X21411Y211190D01*
X21411Y202959D01*
X10076Y202959D01*
G37*
%LPD*%
%LPC*%
G36*
X40708Y267459D02*
X40708Y267459D01*
X38488Y268379D01*
X36789Y270078D01*
X35869Y272298D01*
X35869Y273690D01*
X35854Y273808D01*
X35847Y273927D01*
X35834Y273965D01*
X35829Y274006D01*
X35786Y274116D01*
X35749Y274229D01*
X35727Y274264D01*
X35712Y274301D01*
X35643Y274397D01*
X35579Y274498D01*
X35549Y274526D01*
X35526Y274559D01*
X35434Y274635D01*
X35347Y274716D01*
X35312Y274736D01*
X35281Y274761D01*
X35173Y274812D01*
X35069Y274870D01*
X35029Y274880D01*
X34993Y274897D01*
X34876Y274919D01*
X34761Y274949D01*
X34701Y274953D01*
X34681Y274957D01*
X34660Y274955D01*
X34600Y274959D01*
X24409Y274959D01*
X24409Y283190D01*
X24394Y283308D01*
X24387Y283427D01*
X24374Y283465D01*
X24369Y283506D01*
X24326Y283616D01*
X24289Y283729D01*
X24267Y283764D01*
X24252Y283801D01*
X24183Y283897D01*
X24119Y283998D01*
X24089Y284026D01*
X24066Y284059D01*
X23974Y284135D01*
X23887Y284216D01*
X23852Y284236D01*
X23821Y284261D01*
X23713Y284312D01*
X23609Y284370D01*
X23569Y284380D01*
X23533Y284397D01*
X23416Y284419D01*
X23301Y284449D01*
X23241Y284453D01*
X23221Y284457D01*
X23200Y284455D01*
X23140Y284459D01*
X22680Y284459D01*
X22562Y284444D01*
X22443Y284437D01*
X22405Y284424D01*
X22364Y284419D01*
X22254Y284376D01*
X22141Y284339D01*
X22106Y284317D01*
X22069Y284302D01*
X21972Y284233D01*
X21872Y284169D01*
X21844Y284139D01*
X21811Y284116D01*
X21735Y284024D01*
X21654Y283937D01*
X21634Y283902D01*
X21609Y283871D01*
X21558Y283763D01*
X21500Y283659D01*
X21490Y283619D01*
X21473Y283583D01*
X21451Y283466D01*
X21421Y283351D01*
X21417Y283291D01*
X21413Y283271D01*
X21415Y283250D01*
X21411Y283190D01*
X21411Y274959D01*
X10076Y274959D01*
X9429Y275132D01*
X8850Y275467D01*
X8377Y275940D01*
X8042Y276519D01*
X7869Y277166D01*
X7869Y288501D01*
X13563Y288501D01*
X13625Y288508D01*
X13686Y288507D01*
X13782Y288528D01*
X13879Y288541D01*
X13936Y288563D01*
X13996Y288577D01*
X14084Y288622D01*
X14175Y288658D01*
X14225Y288694D01*
X14279Y288722D01*
X14353Y288787D01*
X14432Y288844D01*
X14471Y288892D01*
X14517Y288933D01*
X14572Y289014D01*
X14635Y289089D01*
X14661Y289145D01*
X14696Y289196D01*
X14729Y289289D01*
X14770Y289377D01*
X14782Y289438D01*
X14803Y289496D01*
X14827Y289655D01*
X14848Y289885D01*
X14847Y289920D01*
X14853Y289954D01*
X14848Y290115D01*
X14827Y290345D01*
X14814Y290405D01*
X14810Y290467D01*
X14780Y290560D01*
X14759Y290656D01*
X14731Y290711D01*
X14712Y290769D01*
X14660Y290852D01*
X14616Y290940D01*
X14575Y290986D01*
X14542Y291038D01*
X14471Y291105D01*
X14406Y291179D01*
X14356Y291214D01*
X14311Y291256D01*
X14225Y291303D01*
X14144Y291359D01*
X14086Y291380D01*
X14032Y291410D01*
X13937Y291434D01*
X13845Y291468D01*
X13784Y291474D01*
X13724Y291489D01*
X13563Y291499D01*
X7869Y291499D01*
X7869Y302834D01*
X8042Y303481D01*
X8377Y304060D01*
X8850Y304533D01*
X9429Y304868D01*
X10076Y305041D01*
X21411Y305041D01*
X21411Y296810D01*
X21426Y296692D01*
X21433Y296573D01*
X21445Y296535D01*
X21451Y296494D01*
X21494Y296384D01*
X21531Y296271D01*
X21553Y296236D01*
X21568Y296199D01*
X21637Y296103D01*
X21701Y296002D01*
X21731Y295974D01*
X21754Y295941D01*
X21846Y295865D01*
X21933Y295784D01*
X21968Y295764D01*
X21999Y295739D01*
X22107Y295688D01*
X22211Y295630D01*
X22251Y295620D01*
X22287Y295603D01*
X22404Y295581D01*
X22519Y295551D01*
X22579Y295547D01*
X22599Y295543D01*
X22620Y295545D01*
X22680Y295541D01*
X23140Y295541D01*
X23258Y295556D01*
X23377Y295563D01*
X23415Y295576D01*
X23456Y295581D01*
X23566Y295624D01*
X23679Y295661D01*
X23714Y295683D01*
X23751Y295698D01*
X23847Y295767D01*
X23948Y295831D01*
X23976Y295861D01*
X24009Y295884D01*
X24085Y295976D01*
X24166Y296063D01*
X24186Y296098D01*
X24211Y296129D01*
X24262Y296237D01*
X24320Y296341D01*
X24330Y296381D01*
X24347Y296417D01*
X24369Y296534D01*
X24399Y296649D01*
X24403Y296709D01*
X24407Y296729D01*
X24405Y296750D01*
X24409Y296810D01*
X24409Y305041D01*
X35744Y305041D01*
X36391Y304868D01*
X36970Y304533D01*
X37443Y304060D01*
X37778Y303481D01*
X37951Y302834D01*
X37951Y291499D01*
X32257Y291499D01*
X32195Y291492D01*
X32134Y291493D01*
X32038Y291472D01*
X31941Y291459D01*
X31884Y291437D01*
X31824Y291423D01*
X31736Y291378D01*
X31645Y291342D01*
X31596Y291306D01*
X31541Y291278D01*
X31467Y291213D01*
X31388Y291156D01*
X31349Y291108D01*
X31302Y291067D01*
X31248Y290986D01*
X31185Y290911D01*
X31159Y290855D01*
X31124Y290804D01*
X31091Y290711D01*
X31050Y290623D01*
X31038Y290562D01*
X31017Y290504D01*
X30993Y290345D01*
X30972Y290115D01*
X30973Y290080D01*
X30967Y290046D01*
X30972Y289885D01*
X30993Y289655D01*
X31006Y289595D01*
X31010Y289533D01*
X31040Y289440D01*
X31061Y289344D01*
X31089Y289289D01*
X31108Y289231D01*
X31160Y289148D01*
X31204Y289060D01*
X31245Y289014D01*
X31278Y288962D01*
X31349Y288895D01*
X31414Y288821D01*
X31465Y288786D01*
X31509Y288744D01*
X31595Y288697D01*
X31676Y288641D01*
X31734Y288620D01*
X31788Y288590D01*
X31883Y288566D01*
X31975Y288532D01*
X32036Y288526D01*
X32096Y288511D01*
X32257Y288501D01*
X37951Y288501D01*
X37951Y280298D01*
X37957Y280249D01*
X37955Y280199D01*
X37977Y280092D01*
X37991Y279982D01*
X38009Y279936D01*
X38019Y279888D01*
X38067Y279789D01*
X38108Y279687D01*
X38137Y279647D01*
X38159Y279602D01*
X38230Y279518D01*
X38294Y279429D01*
X38333Y279398D01*
X38365Y279360D01*
X38455Y279297D01*
X38539Y279227D01*
X38584Y279205D01*
X38625Y279177D01*
X38728Y279138D01*
X38827Y279091D01*
X38876Y279082D01*
X38922Y279064D01*
X39032Y279052D01*
X39139Y279031D01*
X39189Y279034D01*
X39238Y279029D01*
X39347Y279044D01*
X39457Y279051D01*
X39504Y279066D01*
X39553Y279073D01*
X39706Y279125D01*
X40708Y279541D01*
X43200Y279541D01*
X43214Y279543D01*
X43229Y279541D01*
X43372Y279562D01*
X43515Y279581D01*
X43529Y279586D01*
X43543Y279588D01*
X43677Y279645D01*
X43811Y279698D01*
X43823Y279706D01*
X43836Y279712D01*
X43951Y279800D01*
X44068Y279884D01*
X44078Y279896D01*
X44089Y279905D01*
X44178Y280018D01*
X44271Y280129D01*
X44277Y280143D01*
X44286Y280154D01*
X44345Y280287D01*
X44406Y280417D01*
X44409Y280432D01*
X44415Y280445D01*
X44439Y280588D01*
X44466Y280729D01*
X44465Y280744D01*
X44468Y280759D01*
X44456Y280902D01*
X44447Y281047D01*
X44442Y281061D01*
X44441Y281076D01*
X44393Y281213D01*
X44348Y281349D01*
X44341Y281362D01*
X44336Y281376D01*
X44255Y281515D01*
X43306Y282936D01*
X42659Y284497D01*
X42509Y285251D01*
X49161Y285251D01*
X49161Y278599D01*
X48412Y278748D01*
X48397Y278749D01*
X48383Y278754D01*
X48239Y278760D01*
X48094Y278771D01*
X48080Y278768D01*
X48065Y278769D01*
X47924Y278740D01*
X47782Y278714D01*
X47768Y278707D01*
X47754Y278704D01*
X47624Y278641D01*
X47493Y278580D01*
X47481Y278571D01*
X47468Y278565D01*
X47358Y278471D01*
X47246Y278380D01*
X47237Y278368D01*
X47226Y278358D01*
X47143Y278240D01*
X47057Y278124D01*
X47051Y278110D01*
X47043Y278098D01*
X46992Y277964D01*
X46937Y277829D01*
X46935Y277815D01*
X46930Y277801D01*
X46914Y277657D01*
X46895Y277514D01*
X46897Y277500D01*
X46895Y277485D01*
X46915Y277341D01*
X46932Y277198D01*
X46937Y277185D01*
X46939Y277170D01*
X46991Y277018D01*
X47951Y274702D01*
X47951Y272298D01*
X47031Y270078D01*
X45332Y268379D01*
X43112Y267459D01*
X40708Y267459D01*
G37*
%LPD*%
%LPC*%
G36*
X416927Y6857D02*
X416927Y6857D01*
X412913Y8520D01*
X409840Y11593D01*
X408177Y15607D01*
X408177Y19953D01*
X409840Y23967D01*
X412913Y27040D01*
X416927Y28703D01*
X421273Y28703D01*
X425287Y27040D01*
X428360Y23967D01*
X430023Y19953D01*
X430023Y15607D01*
X428360Y11593D01*
X425287Y8520D01*
X421273Y6857D01*
X416927Y6857D01*
G37*
%LPD*%
%LPC*%
G36*
X442327Y6857D02*
X442327Y6857D01*
X438313Y8520D01*
X435240Y11593D01*
X433577Y15607D01*
X433577Y19953D01*
X435240Y23967D01*
X438313Y27040D01*
X442327Y28703D01*
X446673Y28703D01*
X450687Y27040D01*
X453760Y23967D01*
X455423Y19953D01*
X455423Y15607D01*
X453760Y11593D01*
X450687Y8520D01*
X446673Y6857D01*
X442327Y6857D01*
G37*
%LPD*%
%LPC*%
G36*
X340727Y6857D02*
X340727Y6857D01*
X336713Y8520D01*
X333640Y11593D01*
X331977Y15607D01*
X331977Y19953D01*
X333640Y23967D01*
X336713Y27040D01*
X340727Y28703D01*
X345073Y28703D01*
X349087Y27040D01*
X352160Y23967D01*
X353823Y19953D01*
X353823Y15607D01*
X352160Y11593D01*
X349087Y8520D01*
X345073Y6857D01*
X340727Y6857D01*
G37*
%LPD*%
%LPC*%
G36*
X239127Y6857D02*
X239127Y6857D01*
X235113Y8520D01*
X232040Y11593D01*
X230377Y15607D01*
X230377Y19953D01*
X232040Y23967D01*
X235113Y27040D01*
X239127Y28703D01*
X243473Y28703D01*
X247487Y27040D01*
X250560Y23967D01*
X252223Y19953D01*
X252223Y15607D01*
X250560Y11593D01*
X247487Y8520D01*
X243473Y6857D01*
X239127Y6857D01*
G37*
%LPD*%
%LPC*%
G36*
X213727Y6857D02*
X213727Y6857D01*
X209713Y8520D01*
X206640Y11593D01*
X204977Y15607D01*
X204977Y19953D01*
X206640Y23967D01*
X209713Y27040D01*
X213727Y28703D01*
X218073Y28703D01*
X222087Y27040D01*
X225160Y23967D01*
X226823Y19953D01*
X226823Y15607D01*
X225160Y11593D01*
X222087Y8520D01*
X218073Y6857D01*
X213727Y6857D01*
G37*
%LPD*%
%LPC*%
G36*
X188327Y6857D02*
X188327Y6857D01*
X184313Y8520D01*
X181240Y11593D01*
X179577Y15607D01*
X179577Y19953D01*
X181240Y23967D01*
X184313Y27040D01*
X188327Y28703D01*
X192673Y28703D01*
X196687Y27040D01*
X199760Y23967D01*
X201423Y19953D01*
X201423Y15607D01*
X199760Y11593D01*
X196687Y8520D01*
X192673Y6857D01*
X188327Y6857D01*
G37*
%LPD*%
%LPC*%
G36*
X137527Y6857D02*
X137527Y6857D01*
X133513Y8520D01*
X130440Y11593D01*
X128777Y15607D01*
X128777Y19953D01*
X130440Y23967D01*
X133513Y27040D01*
X137527Y28703D01*
X141873Y28703D01*
X145887Y27040D01*
X148960Y23967D01*
X150623Y19953D01*
X150623Y15607D01*
X148960Y11593D01*
X145887Y8520D01*
X141873Y6857D01*
X137527Y6857D01*
G37*
%LPD*%
%LPC*%
G36*
X112127Y6857D02*
X112127Y6857D01*
X108113Y8520D01*
X105040Y11593D01*
X103377Y15607D01*
X103377Y19953D01*
X105040Y23967D01*
X108113Y27040D01*
X112127Y28703D01*
X116473Y28703D01*
X120487Y27040D01*
X123560Y23967D01*
X125223Y19953D01*
X125223Y15607D01*
X123560Y11593D01*
X120487Y8520D01*
X116473Y6857D01*
X112127Y6857D01*
G37*
%LPD*%
%LPC*%
G36*
X354102Y396327D02*
X354102Y396327D01*
X351333Y397474D01*
X349214Y399593D01*
X348067Y402362D01*
X348067Y405358D01*
X349214Y408127D01*
X351333Y410246D01*
X351514Y410321D01*
X351539Y410335D01*
X351567Y410344D01*
X351677Y410414D01*
X351790Y410478D01*
X351811Y410499D01*
X351836Y410515D01*
X351925Y410609D01*
X352018Y410700D01*
X352034Y410725D01*
X352054Y410746D01*
X352117Y410860D01*
X352185Y410971D01*
X352193Y410999D01*
X352208Y411025D01*
X352240Y411150D01*
X352278Y411275D01*
X352280Y411304D01*
X352287Y411333D01*
X352297Y411493D01*
X352297Y412593D01*
X352285Y412691D01*
X352282Y412790D01*
X352265Y412848D01*
X352257Y412909D01*
X352221Y413001D01*
X352193Y413096D01*
X352163Y413148D01*
X352140Y413204D01*
X352082Y413284D01*
X352032Y413370D01*
X351966Y413445D01*
X351954Y413462D01*
X351944Y413469D01*
X351926Y413491D01*
X350035Y415381D01*
X349035Y417794D01*
X349035Y420406D01*
X350035Y422819D01*
X351881Y424665D01*
X354294Y425665D01*
X356906Y425665D01*
X359319Y424665D01*
X361165Y422819D01*
X362165Y420406D01*
X362165Y417794D01*
X361165Y415381D01*
X359274Y413491D01*
X359214Y413412D01*
X359146Y413340D01*
X359117Y413287D01*
X359080Y413239D01*
X359040Y413148D01*
X358992Y413062D01*
X358977Y413003D01*
X358953Y412947D01*
X358938Y412849D01*
X358913Y412754D01*
X358907Y412654D01*
X358903Y412633D01*
X358905Y412621D01*
X358903Y412593D01*
X358903Y411493D01*
X358906Y411464D01*
X358904Y411435D01*
X358926Y411307D01*
X358943Y411178D01*
X358953Y411150D01*
X358959Y411121D01*
X359012Y411003D01*
X359060Y410882D01*
X359077Y410858D01*
X359089Y410831D01*
X359170Y410730D01*
X359246Y410625D01*
X359269Y410606D01*
X359288Y410583D01*
X359392Y410505D01*
X359491Y410422D01*
X359518Y410409D01*
X359542Y410392D01*
X359686Y410321D01*
X359867Y410246D01*
X361986Y408127D01*
X363133Y405358D01*
X363133Y402362D01*
X361986Y399593D01*
X359867Y397474D01*
X357098Y396327D01*
X354102Y396327D01*
G37*
%LPD*%
%LPC*%
G36*
X58280Y466249D02*
X58280Y466249D01*
X53639Y468929D01*
X50959Y473570D01*
X50959Y478930D01*
X53639Y483571D01*
X58280Y486251D01*
X63640Y486251D01*
X68281Y483571D01*
X70961Y478930D01*
X70961Y473570D01*
X68281Y468929D01*
X63640Y466249D01*
X58280Y466249D01*
G37*
%LPD*%
%LPC*%
G36*
X232409Y449579D02*
X232409Y449579D01*
X232409Y469901D01*
X240031Y469901D01*
X240031Y451786D01*
X239858Y451139D01*
X239523Y450560D01*
X239050Y450087D01*
X238471Y449752D01*
X237824Y449579D01*
X232409Y449579D01*
G37*
%LPD*%
%LPC*%
G36*
X181609Y449579D02*
X181609Y449579D01*
X181609Y469901D01*
X189231Y469901D01*
X189231Y451786D01*
X189058Y451139D01*
X188723Y450560D01*
X188250Y450087D01*
X187671Y449752D01*
X187024Y449579D01*
X181609Y449579D01*
G37*
%LPD*%
%LPC*%
G36*
X171116Y449579D02*
X171116Y449579D01*
X170469Y449752D01*
X169890Y450087D01*
X169417Y450560D01*
X169082Y451139D01*
X168909Y451786D01*
X168909Y469901D01*
X176531Y469901D01*
X176531Y449579D01*
X171116Y449579D01*
G37*
%LPD*%
%LPC*%
G36*
X221916Y449579D02*
X221916Y449579D01*
X221269Y449752D01*
X220690Y450087D01*
X220217Y450560D01*
X219882Y451139D01*
X219709Y451786D01*
X219709Y469901D01*
X227331Y469901D01*
X227331Y449579D01*
X221916Y449579D01*
G37*
%LPD*%
G36*
X317384Y97667D02*
X317384Y97667D01*
X317523Y97676D01*
X317542Y97682D01*
X317562Y97684D01*
X317693Y97731D01*
X317825Y97774D01*
X317843Y97785D01*
X317862Y97792D01*
X317977Y97870D01*
X318094Y97944D01*
X318108Y97959D01*
X318125Y97970D01*
X318217Y98074D01*
X318312Y98176D01*
X318322Y98193D01*
X318335Y98209D01*
X318399Y98333D01*
X318466Y98454D01*
X318471Y98474D01*
X318480Y98492D01*
X318510Y98628D01*
X318545Y98762D01*
X318547Y98790D01*
X318550Y98802D01*
X318549Y98823D01*
X318555Y98923D01*
X318555Y99096D01*
X319555Y101509D01*
X321401Y103355D01*
X323814Y104355D01*
X326488Y104355D01*
X326586Y104367D01*
X326685Y104370D01*
X326744Y104387D01*
X326804Y104395D01*
X326896Y104431D01*
X326991Y104459D01*
X327043Y104489D01*
X327099Y104512D01*
X327179Y104570D01*
X327265Y104620D01*
X327340Y104686D01*
X327357Y104698D01*
X327365Y104708D01*
X327386Y104726D01*
X328602Y105943D01*
X328687Y106052D01*
X328776Y106159D01*
X328784Y106178D01*
X328797Y106194D01*
X328852Y106321D01*
X328911Y106447D01*
X328915Y106467D01*
X328923Y106486D01*
X328945Y106624D01*
X328971Y106760D01*
X328970Y106780D01*
X328973Y106800D01*
X328960Y106939D01*
X328951Y107077D01*
X328945Y107096D01*
X328943Y107116D01*
X328896Y107248D01*
X328853Y107379D01*
X328842Y107397D01*
X328835Y107416D01*
X328757Y107531D01*
X328683Y107648D01*
X328668Y107662D01*
X328657Y107679D01*
X328553Y107771D01*
X328451Y107866D01*
X328434Y107876D01*
X328418Y107889D01*
X328295Y107952D01*
X328173Y108020D01*
X328153Y108025D01*
X328135Y108034D01*
X327999Y108064D01*
X327865Y108099D01*
X327837Y108101D01*
X327825Y108104D01*
X327804Y108103D01*
X327704Y108109D01*
X326169Y108109D01*
X326169Y117880D01*
X326154Y117998D01*
X326147Y118117D01*
X326134Y118155D01*
X326129Y118195D01*
X326085Y118306D01*
X326049Y118419D01*
X326027Y118454D01*
X326012Y118491D01*
X325942Y118587D01*
X325879Y118688D01*
X325849Y118716D01*
X325825Y118748D01*
X325734Y118824D01*
X325647Y118906D01*
X325612Y118925D01*
X325580Y118951D01*
X325473Y119002D01*
X325369Y119059D01*
X325329Y119070D01*
X325293Y119087D01*
X325176Y119109D01*
X325061Y119139D01*
X325000Y119143D01*
X324980Y119147D01*
X324960Y119145D01*
X324900Y119149D01*
X322360Y119149D01*
X322242Y119134D01*
X322123Y119127D01*
X322085Y119114D01*
X322045Y119109D01*
X321934Y119065D01*
X321821Y119029D01*
X321786Y119007D01*
X321749Y118992D01*
X321653Y118922D01*
X321552Y118859D01*
X321524Y118829D01*
X321491Y118805D01*
X321416Y118714D01*
X321334Y118627D01*
X321314Y118592D01*
X321289Y118560D01*
X321238Y118453D01*
X321180Y118349D01*
X321170Y118309D01*
X321153Y118273D01*
X321131Y118156D01*
X321101Y118041D01*
X321097Y117980D01*
X321093Y117960D01*
X321095Y117940D01*
X321091Y117880D01*
X321091Y108109D01*
X316992Y108109D01*
X316874Y108094D01*
X316755Y108087D01*
X316717Y108074D01*
X316676Y108069D01*
X316566Y108026D01*
X316453Y107989D01*
X316418Y107967D01*
X316381Y107952D01*
X316285Y107883D01*
X316184Y107819D01*
X316156Y107789D01*
X316123Y107766D01*
X316047Y107674D01*
X315966Y107587D01*
X315946Y107552D01*
X315921Y107521D01*
X315870Y107413D01*
X315812Y107309D01*
X315802Y107269D01*
X315785Y107233D01*
X315763Y107116D01*
X315733Y107001D01*
X315729Y106941D01*
X315725Y106921D01*
X315727Y106900D01*
X315723Y106840D01*
X315723Y99217D01*
X315735Y99119D01*
X315738Y99020D01*
X315755Y98962D01*
X315763Y98901D01*
X315799Y98809D01*
X315827Y98714D01*
X315857Y98662D01*
X315880Y98606D01*
X315938Y98526D01*
X315988Y98440D01*
X316054Y98365D01*
X316066Y98348D01*
X316076Y98341D01*
X316094Y98320D01*
X316388Y98025D01*
X316498Y97940D01*
X316605Y97852D01*
X316624Y97843D01*
X316640Y97830D01*
X316768Y97775D01*
X316893Y97716D01*
X316913Y97712D01*
X316932Y97704D01*
X317069Y97682D01*
X317206Y97656D01*
X317226Y97657D01*
X317246Y97654D01*
X317384Y97667D01*
G37*
%LPC*%
G36*
X52659Y288749D02*
X52659Y288749D01*
X52659Y307481D01*
X53413Y307331D01*
X54974Y306684D01*
X56380Y305745D01*
X57575Y304550D01*
X58514Y303144D01*
X59161Y301583D01*
X59491Y299925D01*
X59491Y288749D01*
X52659Y288749D01*
G37*
%LPD*%
%LPC*%
G36*
X42329Y288749D02*
X42329Y288749D01*
X42329Y299925D01*
X42659Y301583D01*
X43306Y303144D01*
X44245Y304550D01*
X45440Y305745D01*
X46846Y306684D01*
X48407Y307331D01*
X49161Y307481D01*
X49161Y288749D01*
X42329Y288749D01*
G37*
%LPD*%
%LPC*%
G36*
X48407Y200669D02*
X48407Y200669D01*
X46846Y201316D01*
X45440Y202255D01*
X44245Y203450D01*
X43306Y204856D01*
X42659Y206417D01*
X42329Y208075D01*
X42329Y219251D01*
X49161Y219251D01*
X49161Y200519D01*
X48407Y200669D01*
G37*
%LPD*%
%LPC*%
G36*
X65999Y20279D02*
X65999Y20279D01*
X65999Y28957D01*
X66177Y28929D01*
X67888Y28373D01*
X69491Y27557D01*
X70947Y26499D01*
X72219Y25227D01*
X73277Y23771D01*
X74093Y22168D01*
X74649Y20457D01*
X74677Y20279D01*
X65999Y20279D01*
G37*
%LPD*%
%LPC*%
G36*
X52323Y20279D02*
X52323Y20279D01*
X52351Y20457D01*
X52907Y22168D01*
X53723Y23771D01*
X54781Y25227D01*
X56053Y26499D01*
X57509Y27557D01*
X59112Y28373D01*
X60823Y28929D01*
X61001Y28957D01*
X61001Y20279D01*
X52323Y20279D01*
G37*
%LPD*%
%LPC*%
G36*
X65999Y15281D02*
X65999Y15281D01*
X74677Y15281D01*
X74649Y15103D01*
X74093Y13392D01*
X73277Y11789D01*
X72219Y10333D01*
X70947Y9061D01*
X69491Y8003D01*
X67888Y7187D01*
X66177Y6631D01*
X65999Y6603D01*
X65999Y15281D01*
G37*
%LPD*%
%LPC*%
G36*
X60823Y6631D02*
X60823Y6631D01*
X59112Y7187D01*
X57509Y8003D01*
X56053Y9061D01*
X54781Y10333D01*
X53723Y11789D01*
X52907Y13392D01*
X52351Y15103D01*
X52323Y15281D01*
X61001Y15281D01*
X61001Y6603D01*
X60823Y6631D01*
G37*
%LPD*%
%LPC*%
G36*
X52659Y285251D02*
X52659Y285251D01*
X59311Y285251D01*
X59161Y284497D01*
X58514Y282936D01*
X57575Y281530D01*
X56380Y280335D01*
X54974Y279396D01*
X53413Y278749D01*
X52659Y278599D01*
X52659Y285251D01*
G37*
%LPD*%
%LPC*%
G36*
X229869Y472439D02*
X229869Y472439D01*
X229869Y472441D01*
X229871Y472441D01*
X229871Y472439D01*
X229869Y472439D01*
G37*
%LPD*%
%LPC*%
G36*
X179069Y472439D02*
X179069Y472439D01*
X179069Y472441D01*
X179071Y472441D01*
X179071Y472439D01*
X179069Y472439D01*
G37*
%LPD*%
D10*
X22910Y218000D03*
X22910Y290000D03*
D11*
X50910Y287000D02*
X50910Y299080D01*
X50910Y221000D02*
X50910Y208920D01*
D12*
X431800Y469900D03*
X25400Y469900D03*
D13*
X323630Y376150D03*
X298230Y376150D03*
X272830Y376150D03*
X272830Y119150D03*
X298230Y119150D03*
X323630Y119150D03*
D14*
X355600Y403860D03*
D15*
X229870Y472440D03*
X179070Y472440D03*
D16*
X60960Y476250D03*
X285750Y250190D03*
D17*
X12700Y17780D03*
X38100Y17780D03*
X63500Y17780D03*
X88900Y17780D03*
X114300Y17780D03*
X139700Y17780D03*
X165100Y17780D03*
X190500Y17780D03*
X215900Y17780D03*
X241300Y17780D03*
X266700Y17780D03*
X292100Y17780D03*
X317500Y17780D03*
X342900Y17780D03*
X368300Y17780D03*
X393700Y17780D03*
X419100Y17780D03*
X444500Y17780D03*
X254000Y482600D03*
X254000Y457200D03*
D18*
X386080Y107950D03*
X397510Y68580D03*
X420370Y93980D03*
X340360Y45720D03*
X229870Y46990D03*
X151130Y45720D03*
X127000Y48260D03*
X73660Y60960D03*
X359410Y43180D03*
X335280Y91440D03*
X325120Y160020D03*
X349250Y160020D03*
X421640Y137160D03*
X445770Y137160D03*
X26670Y91440D03*
X109220Y135890D03*
X71120Y160020D03*
X12700Y133350D03*
X179070Y472440D03*
X229870Y472440D03*
X7620Y199390D03*
X27940Y147320D03*
X38100Y198120D03*
X10160Y146050D03*
X179070Y444500D03*
X162560Y487680D03*
X245110Y469900D03*
X220980Y416560D03*
X203200Y417830D03*
X173990Y416560D03*
X142240Y422910D03*
X142240Y400050D03*
X142240Y448310D03*
X109220Y447040D03*
X72390Y374650D03*
X39370Y389890D03*
X49530Y373380D03*
X384810Y486410D03*
X370840Y487680D03*
X384810Y419100D03*
X421640Y382270D03*
X420370Y350520D03*
X364490Y359410D03*
X363220Y383540D03*
X157480Y382270D03*
X157480Y360680D03*
D19*
X199390Y154940D03*
X199390Y185420D03*
D20*
X199390Y154940D01*
D19*
X229616Y341376D03*
D18*
X153670Y453390D03*
D21*
X209550Y397510D02*
X209550Y162560D01*
D18*
X209550Y162560D03*
D21*
X209550Y397510D02*
X153670Y453390D01*
D18*
X254000Y392430D03*
D21*
X254000Y203200D01*
X287020Y170180D01*
X287020Y91440D01*
D18*
X287020Y91440D03*
X270510Y396240D03*
D21*
X261620Y387350D01*
X261620Y292100D01*
X312420Y241300D01*
X312420Y92710D01*
D18*
X312420Y92710D03*
D21*
X298230Y318990D02*
X298230Y376150D01*
X298230Y318990D02*
X358140Y259080D01*
D18*
X358140Y259080D03*
X374650Y156210D03*
D21*
X374650Y116840D01*
X354330Y96520D01*
D18*
X354330Y96520D03*
D21*
X272830Y332960D02*
X272830Y376150D01*
X272830Y332960D02*
X374650Y231140D01*
X374650Y156210D01*
D18*
X266700Y102870D03*
D21*
X266700Y113020D01*
X272830Y119150D01*
D18*
X355600Y419100D03*
D21*
X355600Y403860D01*
D18*
X222250Y115570D03*
D21*
X222250Y146050D01*
X224790Y148590D01*
X224790Y165100D01*
X227330Y167640D01*
X227330Y316230D01*
X226060Y317500D01*
X218440Y317500D01*
X215900Y320040D01*
X215900Y377190D01*
X222250Y383540D01*
D18*
X222250Y383540D03*
X273050Y298450D03*
D22*
X327660Y243840D01*
D18*
X325120Y97790D03*
D21*
X336550Y109220D01*
X336550Y234950D01*
X327660Y243840D01*
D18*
X151130Y130810D03*
D21*
X171450Y151130D01*
X171450Y204470D01*
X193040Y226060D01*
X193040Y281940D01*
X171450Y303530D01*
X171450Y312420D01*
D18*
X171450Y312420D03*
X281940Y40640D03*
D21*
X281940Y57150D01*
X276860Y62230D01*
X270510Y62230D01*
X238760Y93980D01*
X219710Y93980D01*
X213360Y100330D01*
X213360Y147320D01*
X218440Y152400D01*
X218440Y307340D01*
X219710Y308610D01*
D18*
X218440Y307340D03*
X223520Y85090D03*
D21*
X214630Y85090D01*
X210820Y88900D01*
X138430Y88900D01*
X88900Y39370D01*
X88900Y17780D01*
D18*
X313690Y39370D03*
D21*
X306070Y31750D01*
X278130Y31750D01*
X271780Y38100D01*
X271780Y49530D01*
X236220Y85090D01*
X223520Y85090D01*
X323630Y306290D02*
X323630Y376150D01*
X323630Y306290D02*
X379730Y250190D01*
X379730Y247650D01*
D18*
X379730Y247650D03*
X299720Y452120D03*
D21*
X284480Y452120D01*
D18*
X273050Y73660D03*
D21*
X278130Y68580D02*
X312420Y68580D01*
D18*
X312420Y68580D03*
D21*
X278130Y68580D02*
X273050Y73660D01*
D22*
X238760Y406400D02*
X284480Y452120D01*
X238760Y406400D02*
X238760Y189230D01*
X250190Y177800D01*
X250190Y96520D01*
X273050Y73660D01*
D18*
X330200Y452120D03*
D21*
X330200Y448310D01*
X245110Y400050D02*
X245110Y193040D01*
X256540Y181610D01*
X256540Y101600D01*
X281940Y76200D01*
X300990Y76200D01*
X302260Y77470D01*
D18*
X302260Y85090D03*
D21*
X302260Y77470D01*
D22*
X317500Y30480D02*
X317500Y17780D01*
X317500Y30480D02*
X322580Y35560D01*
X322580Y73660D01*
X318770Y77470D01*
X302260Y77470D01*
X330200Y435610D02*
X330200Y448310D01*
X330200Y435610D02*
X317500Y422910D01*
X267970Y422910D01*
X245110Y400050D01*
D23*
X38100Y39370D02*
X38100Y17780D01*
X38100Y39370D02*
X55880Y57150D01*
X55880Y162560D01*
X78740Y185420D01*
X78740Y232410D01*
D18*
X88900Y330200D03*
D23*
X78740Y257810D02*
X78740Y232410D01*
X88900Y267970D02*
X88900Y330200D01*
X88900Y267970D02*
X78740Y257810D01*
D18*
X87630Y228600D03*
D24*
X78740Y228600D01*
X78740Y232410D01*
D18*
X176530Y236220D03*
D22*
X186690Y246380D01*
D18*
X74930Y304800D03*
D22*
X74930Y297180D01*
D23*
X12700Y41910D02*
X12700Y17780D01*
X12700Y41910D02*
X39370Y68580D01*
X39370Y167640D01*
X66040Y194310D01*
X66040Y237490D01*
X59690Y243840D01*
X59690Y264160D01*
X74930Y279400D01*
X74930Y304800D01*
D22*
X186690Y279400D02*
X186690Y246380D01*
X186690Y279400D02*
X124460Y341630D01*
X77470Y341630D01*
X74930Y339090D01*
X74930Y304800D01*
D18*
X261620Y46990D03*
D22*
X252730Y55880D01*
X171450Y55880D01*
X165100Y49530D01*
X165100Y17780D01*
D18*
X175260Y43180D03*
D22*
X181610Y36830D01*
X247650Y36830D01*
X266700Y17780D01*
D18*
X223520Y102870D03*
D21*
X229870Y323850D02*
X224790Y328930D01*
D18*
X224790Y328930D03*
D22*
X229870Y323850D02*
X232410Y321310D01*
X232410Y184150D01*
X243840Y172720D01*
X243840Y109220D01*
X237490Y102870D01*
X223520Y102870D01*
D18*
X189230Y119380D03*
D21*
X189230Y196850D01*
X204470Y212090D01*
X204470Y295910D01*
X200660Y299720D01*
D18*
X200660Y299720D03*
X177800Y134620D03*
D21*
X180340Y137160D01*
X180340Y198120D01*
X198120Y215900D01*
D18*
X181610Y321310D03*
D21*
X198120Y285750D02*
X198120Y215900D01*
X198120Y285750D02*
X181610Y302260D01*
X181610Y321310D01*
D18*
X99060Y255270D03*
D21*
X167640Y255270D01*
X172720Y250190D01*
D18*
X172720Y250190D03*
X110490Y243840D03*
D21*
X160020Y243840D01*
X163830Y240030D01*
D18*
X163830Y240030D03*
D21*
X254000Y482600D02*
X260350Y482600D01*
X267970Y474980D01*
X267970Y448310D01*
X237490Y417830D01*
X234950Y417830D01*
D18*
X234950Y417830D03*
D20*
X301625Y241300D02*
X269875Y209550D01*
X349250Y171450D02*
X358775Y161925D01*
X358775Y114300D01*
X346075Y101600D01*
X346075Y69850D01*
X368300Y47625D01*
X368300Y17780D01*
D19*
X269875Y209550D03*
X301625Y241300D03*
X349250Y171450D03*
D20*
X273050Y196850D02*
X266700Y196850D01*
X266700Y200025D01*
X260350Y206375D01*
X260350Y276225D01*
X263525Y279400D01*
X333375Y311150D02*
X406400Y238125D01*
X406400Y31750D01*
X393700Y19050D01*
X393700Y17780D01*
D19*
X273050Y196850D03*
X263525Y279400D03*
X333375Y311150D03*
D20*
X203200Y120650D02*
X193675Y111125D01*
X142875Y111125D01*
X142875Y219075D01*
X155575Y231775D01*
D19*
X203200Y120650D03*
X155575Y231775D03*
D20*
X285750Y187325D02*
X304800Y206375D01*
X304800Y228600D01*
X330200Y254000D02*
X314325Y269875D01*
X314325Y279400D01*
D19*
X285750Y187325D03*
X304800Y228600D03*
X330200Y254000D03*
X314325Y279400D03*
M02*
