M48
;GenerationSoftware,Autodesk,EAGLE,9.1.3*%
;CreationDate,2018-09-14T10:42:20Z*%
FMAT,2
ICI,OFF
METRIC,TZ,000.000
T5C0.394
T4C0.600
T3C0.700
T2C1.000
T1C2.500
%
G90
M71
T1
X2794Y2921
X59563Y58420
X2794Y58420
X59309Y2921
T2
X33401Y2159
X10541Y2159
X13081Y2159
X15621Y2159
X18161Y2159
X20701Y2159
X23241Y2159
X25781Y2159
X28321Y2159
X30861Y2159
X35941Y2159
X38481Y2159
X41021Y2159
X43561Y2159
X46101Y2159
X48641Y2159
X51181Y2159
X53721Y2159
X29464Y51308
X32004Y51308
T3
X4191Y27350
X4191Y23450
X5091Y28700
X5091Y22100
T4
X2291Y21800
X2291Y29000
T5
X34750Y14000
X38250Y5250
X37250Y22000
X22250Y33000
X24500Y17000
X31750Y7500
X22000Y17250
X21750Y3500
X23250Y5000
X44250Y19250
X37500Y9000
X61250Y22250
X11750Y17500
X29750Y5500
X29250Y9000
X21250Y11250
X31000Y12000
X32000Y28250
X27686Y14351
X17750Y21250
X13250Y28250
X22500Y28250
X36500Y21250
X36500Y19250
X12250Y25500
X22500Y25500
X38000Y20750
X38000Y19250
X27500Y8750
X47500Y4250
X37500Y15500
X40000Y10750
X32750Y18750
X34000Y20250
X34000Y18750
X38500Y4000
X51562Y19812
X56642Y19812
X40767Y18796
X40767Y22225
X49022Y17526
X45085Y13716
X19685Y21336
X33401Y7239
X35115Y10859
X33020Y15240
X29718Y15240
X11303Y27432
X13208Y23876
X50927Y47752
X37211Y10541
X15113Y27432
X28448Y57277
X15750Y17000
X28750Y40500
X27250Y15750
X36000Y14000
X35750Y40500
X43500Y8750
X50000Y15500
X42000Y18750
X44000Y10250
X44000Y12500
X39500Y19250
X39500Y14750
X42250Y45750
M30