M48
;GenerationSoftware,Autodesk,EAGLE,9.1.0*%
;CreationDate,2018-08-24T06:26:25Z*%
FMAT,2
ICI,OFF
METRIC,TZ,000.000
T6C0.394
T5C0.500
T4C0.600
T3C0.700
T2C1.000
T1C2.500
%
G90
M71
T1
X43180Y46990
X2540Y46990
T2
X25400Y45720
X8890Y1778
X1270Y1778
X3810Y1778
X6350Y1778
X11430Y1778
X13970Y1778
X16510Y1778
X19050Y1778
X21590Y1778
X24130Y1778
X26670Y1778
X29210Y1778
X31750Y1778
X34290Y1778
X36830Y1778
X39370Y1778
X41910Y1778
X44450Y1778
X25400Y48260
T3
X4191Y27350
X4191Y23450
X5091Y28700
X5091Y22100
T4
X2291Y21800
X2291Y29000
T5
X16256Y48768
X24511Y46990
X22098Y41656
X20320Y41783
X17399Y41656
X14224Y42291
X14224Y40005
X14224Y44831
X10922Y44704
X7239Y37465
X3937Y38989
X4953Y37338
X38481Y48641
X37084Y48768
X38481Y41910
X42164Y38227
X42037Y35052
X36449Y35941
X36322Y38354
X15748Y38227
X15748Y36068
X15367Y45339
X20955Y16256
X25400Y39243
X28702Y9144
X27051Y39624
X31242Y9271
X35814Y25908
X37465Y15621
X35433Y9652
X26670Y10287
X35560Y41910
X22225Y11557
X22225Y38354
X27305Y29845
X32512Y9779
X15113Y13081
X17145Y31242
X7112Y16002
X21844Y30734
X22352Y8509
X31369Y3937
X37973Y24765
X29972Y45212
X27305Y7366
X31242Y6858
X33020Y45212
X30226Y8509
X8890Y33020
X8763Y22860
X17653Y23622
X7493Y30480
X26162Y4699
X17526Y4318
X22352Y10287
X22479Y32893
X18923Y11938
X20066Y29972
X17780Y13462
X18161Y32131
X9906Y25527
X17272Y25019
X11049Y24384
X16383Y24003
X23495Y41783
X38608Y10795
X39751Y6858
X42037Y9398
X34036Y4572
X22987Y4699
X15113Y4572
X12700Y4826
X7366Y6096
X35941Y4318
X28194Y4064
X33528Y9144
X32512Y16002
X34925Y16002
X42164Y13716
X44577Y13716
X2667Y9144
X10922Y13589
X1270Y13335
X17907Y47244
X22987Y47244
X762Y19939
X2794Y14732
X3810Y19812
X1016Y14605
X17907Y44450
T6
X31432Y27940
X19939Y18542
X19939Y15494
X26987Y20955
X30162Y24130
X34925Y17145
X27305Y19685
X26352Y27940
X33338Y31115
X20320Y12065
X22962Y34138
X28575Y18733
X30480Y22860
X33020Y25400
X15557Y23177
M30