G04 EAGLE Gerber X2 export*
%TF.Part,Single*%
%TF.FileFunction,Legend,Top,1*%
%TF.FilePolarity,Positive*%
%TF.GenerationSoftware,Autodesk,EAGLE,9.1.0*%
%TF.CreationDate,2018-08-24T06:26:27Z*%
G75*
%MOMM*%
%FSLAX34Y34*%
%LPD*%
%AMOC8*
5,1,8,0,0,1.08239X$1,22.5*%
G01*
%ADD10C,0.127000*%
%ADD11C,0.101600*%
%ADD12C,0.076200*%
%ADD13C,0.203200*%
%ADD14C,0.152400*%
%ADD15R,0.190500X0.889000*%
%ADD16C,0.304800*%
%ADD17R,0.200000X1.000000*%
%ADD18R,0.889000X0.190500*%
%ADD19R,1.000000X0.200000*%
%ADD20C,0.919200*%
%ADD21C,0.177800*%
%ADD22R,0.003800X0.034300*%
%ADD23R,0.003800X0.057200*%
%ADD24R,0.003800X0.076200*%
%ADD25R,0.003800X0.091400*%
%ADD26R,0.003800X0.102900*%
%ADD27R,0.003900X0.114300*%
%ADD28R,0.003800X0.129500*%
%ADD29R,0.003800X0.137200*%
%ADD30R,0.003800X0.144800*%
%ADD31R,0.003800X0.152400*%
%ADD32R,0.003800X0.160000*%
%ADD33R,0.003800X0.171500*%
%ADD34R,0.003800X0.175300*%
%ADD35R,0.003800X0.182900*%
%ADD36R,0.003800X0.190500*%
%ADD37R,0.003900X0.194300*%
%ADD38R,0.003800X0.201900*%
%ADD39R,0.003800X0.209500*%
%ADD40R,0.003800X0.213400*%
%ADD41R,0.003800X0.221000*%
%ADD42R,0.003800X0.224800*%
%ADD43R,0.003800X0.232400*%
%ADD44R,0.003800X0.240000*%
%ADD45R,0.003800X0.243800*%
%ADD46R,0.003800X0.247600*%
%ADD47R,0.003900X0.255300*%
%ADD48R,0.003800X0.259100*%
%ADD49R,0.003800X0.262900*%
%ADD50R,0.003800X0.270500*%
%ADD51R,0.003800X0.274300*%
%ADD52R,0.003800X0.281900*%
%ADD53R,0.003800X0.285700*%
%ADD54R,0.003800X0.289500*%
%ADD55R,0.003800X0.297200*%
%ADD56R,0.003800X0.301000*%
%ADD57R,0.003900X0.304800*%
%ADD58R,0.003800X0.312400*%
%ADD59R,0.003800X0.316200*%
%ADD60R,0.003800X0.320000*%
%ADD61R,0.003800X0.327600*%
%ADD62R,0.003800X0.331500*%
%ADD63R,0.003800X0.339100*%
%ADD64R,0.003800X0.342900*%
%ADD65R,0.003800X0.346700*%
%ADD66R,0.003800X0.354300*%
%ADD67R,0.003900X0.358100*%
%ADD68R,0.003800X0.361900*%
%ADD69R,0.003800X0.369600*%
%ADD70R,0.003800X0.373400*%
%ADD71R,0.003800X0.377200*%
%ADD72R,0.003800X0.384800*%
%ADD73R,0.003800X0.388600*%
%ADD74R,0.003800X0.396200*%
%ADD75R,0.003800X0.400000*%
%ADD76R,0.003800X0.403800*%
%ADD77R,0.003900X0.411500*%
%ADD78R,0.003800X0.415300*%
%ADD79R,0.003800X0.419100*%
%ADD80R,0.003800X0.045700*%
%ADD81R,0.003800X0.426700*%
%ADD82R,0.003800X0.072400*%
%ADD83R,0.003800X0.430500*%
%ADD84R,0.003800X0.095300*%
%ADD85R,0.003800X0.438100*%
%ADD86R,0.003800X0.110500*%
%ADD87R,0.003800X0.441900*%
%ADD88R,0.003800X0.445800*%
%ADD89R,0.003800X0.144700*%
%ADD90R,0.003800X0.453400*%
%ADD91R,0.003800X0.457200*%
%ADD92R,0.003900X0.175300*%
%ADD93R,0.003900X0.461000*%
%ADD94R,0.003800X0.468600*%
%ADD95R,0.003800X0.205800*%
%ADD96R,0.003800X0.472400*%
%ADD97R,0.003800X0.217200*%
%ADD98R,0.003800X0.476200*%
%ADD99R,0.003800X0.483900*%
%ADD100R,0.003800X0.247700*%
%ADD101R,0.003800X0.487700*%
%ADD102R,0.003800X0.495300*%
%ADD103R,0.003800X0.499100*%
%ADD104R,0.003800X0.502900*%
%ADD105R,0.003800X0.510500*%
%ADD106R,0.003900X0.308600*%
%ADD107R,0.003900X0.514300*%
%ADD108R,0.003800X0.323800*%
%ADD109R,0.003800X0.518100*%
%ADD110R,0.003800X0.335300*%
%ADD111R,0.003800X0.525800*%
%ADD112R,0.003800X0.529600*%
%ADD113R,0.003800X0.358100*%
%ADD114R,0.003800X0.533400*%
%ADD115R,0.003800X0.537200*%
%ADD116R,0.003800X0.381000*%
%ADD117R,0.003800X0.544800*%
%ADD118R,0.003800X0.392400*%
%ADD119R,0.003800X0.548600*%
%ADD120R,0.003800X0.552400*%
%ADD121R,0.003800X0.556200*%
%ADD122R,0.003900X0.422900*%
%ADD123R,0.003900X0.560100*%
%ADD124R,0.003800X0.434300*%
%ADD125R,0.003800X0.563900*%
%ADD126R,0.003800X0.567700*%
%ADD127R,0.003800X0.461000*%
%ADD128R,0.003800X0.571500*%
%ADD129R,0.003800X0.575300*%
%ADD130R,0.003800X0.480100*%
%ADD131R,0.003800X0.579100*%
%ADD132R,0.003800X0.491500*%
%ADD133R,0.003800X0.582900*%
%ADD134R,0.003800X0.586700*%
%ADD135R,0.003800X0.510600*%
%ADD136R,0.003800X0.590500*%
%ADD137R,0.003800X0.522000*%
%ADD138R,0.003800X0.594300*%
%ADD139R,0.003900X0.533400*%
%ADD140R,0.003900X0.598200*%
%ADD141R,0.003800X0.541000*%
%ADD142R,0.003800X0.602000*%
%ADD143R,0.003800X0.552500*%
%ADD144R,0.003800X0.605800*%
%ADD145R,0.003800X0.560100*%
%ADD146R,0.003800X0.609600*%
%ADD147R,0.003800X0.613400*%
%ADD148R,0.003800X0.583000*%
%ADD149R,0.003800X0.617200*%
%ADD150R,0.003800X0.594400*%
%ADD151R,0.003800X0.621000*%
%ADD152R,0.003800X0.598200*%
%ADD153R,0.003800X0.624800*%
%ADD154R,0.003900X0.613500*%
%ADD155R,0.003900X0.628600*%
%ADD156R,0.003800X0.632400*%
%ADD157R,0.003800X0.628600*%
%ADD158R,0.003800X0.636300*%
%ADD159R,0.003800X0.640100*%
%ADD160R,0.003800X0.636200*%
%ADD161R,0.003800X0.643900*%
%ADD162R,0.003800X0.647700*%
%ADD163R,0.003800X0.651500*%
%ADD164R,0.003800X0.659100*%
%ADD165R,0.003900X0.659100*%
%ADD166R,0.003900X0.655300*%
%ADD167R,0.003800X0.662900*%
%ADD168R,0.003800X0.655300*%
%ADD169R,0.003800X0.670500*%
%ADD170R,0.003800X0.670600*%
%ADD171R,0.003800X0.674400*%
%ADD172R,0.003800X0.682000*%
%ADD173R,0.003800X0.666700*%
%ADD174R,0.003800X0.685800*%
%ADD175R,0.003800X0.689600*%
%ADD176R,0.003900X0.693400*%
%ADD177R,0.003900X0.674400*%
%ADD178R,0.003800X0.697200*%
%ADD179R,0.003800X0.678200*%
%ADD180R,0.003800X0.697300*%
%ADD181R,0.003800X0.701100*%
%ADD182R,0.003800X0.704900*%
%ADD183R,0.003800X0.708700*%
%ADD184R,0.003800X0.712500*%
%ADD185R,0.003800X0.716300*%
%ADD186R,0.003900X0.720100*%
%ADD187R,0.003900X0.689600*%
%ADD188R,0.003800X0.720000*%
%ADD189R,0.003800X0.693400*%
%ADD190R,0.003800X0.723900*%
%ADD191R,0.003800X0.727700*%
%ADD192R,0.003800X0.731500*%
%ADD193R,0.003800X0.701000*%
%ADD194R,0.003800X0.735300*%
%ADD195R,0.003900X0.731500*%
%ADD196R,0.003900X0.701000*%
%ADD197R,0.003800X0.704800*%
%ADD198R,0.003800X0.739100*%
%ADD199R,0.003800X0.743000*%
%ADD200R,0.003800X0.739200*%
%ADD201R,0.003900X0.743000*%
%ADD202R,0.003900X0.704800*%
%ADD203R,0.003800X0.746800*%
%ADD204R,0.003900X0.746800*%
%ADD205R,0.003800X0.742900*%
%ADD206R,0.003800X0.746700*%
%ADD207R,0.003900X0.746700*%
%ADD208R,0.003800X1.428800*%
%ADD209R,0.003800X1.424900*%
%ADD210R,0.003900X1.421100*%
%ADD211R,0.003800X1.421100*%
%ADD212R,0.003800X1.417300*%
%ADD213R,0.003800X1.413500*%
%ADD214R,0.003800X1.409700*%
%ADD215R,0.003800X1.405900*%
%ADD216R,0.003800X1.402100*%
%ADD217R,0.003800X1.398300*%
%ADD218R,0.003900X0.983000*%
%ADD219R,0.003900X0.384800*%
%ADD220R,0.003800X0.971600*%
%ADD221R,0.003800X0.963900*%
%ADD222R,0.003800X0.956300*%
%ADD223R,0.003800X0.365800*%
%ADD224R,0.003800X0.952500*%
%ADD225R,0.003800X0.941000*%
%ADD226R,0.003800X0.358200*%
%ADD227R,0.003800X0.937200*%
%ADD228R,0.003800X0.933400*%
%ADD229R,0.003800X0.354400*%
%ADD230R,0.003800X0.925800*%
%ADD231R,0.003800X0.350500*%
%ADD232R,0.003800X0.922000*%
%ADD233R,0.003900X0.918200*%
%ADD234R,0.003900X0.346700*%
%ADD235R,0.003800X0.910600*%
%ADD236R,0.003800X0.906800*%
%ADD237R,0.003800X0.903000*%
%ADD238R,0.003800X0.339000*%
%ADD239R,0.003800X0.895300*%
%ADD240R,0.003800X0.335200*%
%ADD241R,0.003800X0.887700*%
%ADD242R,0.003800X0.883900*%
%ADD243R,0.003800X0.331400*%
%ADD244R,0.003800X0.880100*%
%ADD245R,0.003800X0.876300*%
%ADD246R,0.003900X0.468600*%
%ADD247R,0.003900X0.396200*%
%ADD248R,0.003900X0.323800*%
%ADD249R,0.003800X0.449600*%
%ADD250R,0.003800X0.323900*%
%ADD251R,0.003800X0.442000*%
%ADD252R,0.003800X0.434400*%
%ADD253R,0.003800X0.320100*%
%ADD254R,0.003800X0.316300*%
%ADD255R,0.003800X0.426800*%
%ADD256R,0.003800X0.327700*%
%ADD257R,0.003800X0.312500*%
%ADD258R,0.003800X0.422900*%
%ADD259R,0.003800X0.308600*%
%ADD260R,0.003800X0.293400*%
%ADD261R,0.003800X0.304800*%
%ADD262R,0.003900X0.419100*%
%ADD263R,0.003900X0.285700*%
%ADD264R,0.003900X0.301000*%
%ADD265R,0.003800X0.411500*%
%ADD266R,0.003800X0.407700*%
%ADD267R,0.003800X0.289600*%
%ADD268R,0.003800X0.285800*%
%ADD269R,0.003800X0.403900*%
%ADD270R,0.003800X0.228600*%
%ADD271R,0.003900X0.403900*%
%ADD272R,0.003900X0.221000*%
%ADD273R,0.003900X0.278100*%
%ADD274R,0.003800X0.400100*%
%ADD275R,0.003800X0.209600*%
%ADD276R,0.003800X0.266700*%
%ADD277R,0.003800X0.038100*%
%ADD278R,0.003800X0.194300*%
%ADD279R,0.003800X0.148600*%
%ADD280R,0.003800X0.259000*%
%ADD281R,0.003800X0.182800*%
%ADD282R,0.003800X0.186700*%
%ADD283R,0.003800X0.251400*%
%ADD284R,0.003800X0.179100*%
%ADD285R,0.003800X0.236200*%
%ADD286R,0.003900X0.243900*%
%ADD287R,0.003900X0.282000*%
%ADD288R,0.003800X0.167700*%
%ADD289R,0.003800X0.236300*%
%ADD290R,0.003800X0.396300*%
%ADD291R,0.003800X0.163900*%
%ADD292R,0.003800X0.392500*%
%ADD293R,0.003800X0.160100*%
%ADD294R,0.003800X0.586800*%
%ADD295R,0.003800X0.148500*%
%ADD296R,0.003800X0.140900*%
%ADD297R,0.003900X0.392400*%
%ADD298R,0.003900X0.140900*%
%ADD299R,0.003900X0.647700*%
%ADD300R,0.003800X0.133300*%
%ADD301R,0.003800X0.674300*%
%ADD302R,0.003800X0.388700*%
%ADD303R,0.003800X0.125700*%
%ADD304R,0.003800X0.121900*%
%ADD305R,0.003800X0.720100*%
%ADD306R,0.003800X0.118100*%
%ADD307R,0.003900X0.118100*%
%ADD308R,0.003900X0.739100*%
%ADD309R,0.003800X0.114300*%
%ADD310R,0.003800X0.754400*%
%ADD311R,0.003800X0.765800*%
%ADD312R,0.003800X0.773400*%
%ADD313R,0.003800X0.784800*%
%ADD314R,0.003800X0.118200*%
%ADD315R,0.003800X0.792500*%
%ADD316R,0.003800X0.803900*%
%ADD317R,0.003800X0.122000*%
%ADD318R,0.003800X0.815400*%
%ADD319R,0.003800X0.125800*%
%ADD320R,0.003800X0.826800*%
%ADD321R,0.003900X0.369500*%
%ADD322R,0.003900X0.133400*%
%ADD323R,0.003900X0.842000*%
%ADD324R,0.003800X0.365700*%
%ADD325R,0.003800X1.009700*%
%ADD326R,0.003800X1.013500*%
%ADD327R,0.003800X0.362000*%
%ADD328R,0.003800X1.024900*%
%ADD329R,0.003800X1.028700*%
%ADD330R,0.003800X1.036300*%
%ADD331R,0.003800X1.047800*%
%ADD332R,0.003800X1.055400*%
%ADD333R,0.003800X1.070600*%
%ADD334R,0.003800X0.030500*%
%ADD335R,0.003800X1.436400*%
%ADD336R,0.003900X1.562100*%
%ADD337R,0.003800X1.588700*%
%ADD338R,0.003800X1.607800*%
%ADD339R,0.003800X1.626900*%
%ADD340R,0.003800X1.642100*%
%ADD341R,0.003800X1.657400*%
%ADD342R,0.003800X1.676400*%
%ADD343R,0.003800X1.687800*%
%ADD344R,0.003800X1.703000*%
%ADD345R,0.003800X1.714500*%
%ADD346R,0.003900X1.726000*%
%ADD347R,0.003800X1.741200*%
%ADD348R,0.003800X0.914400*%
%ADD349R,0.003800X0.769600*%
%ADD350R,0.003800X0.884000*%
%ADD351R,0.003800X0.712400*%
%ADD352R,0.003900X0.880100*%
%ADD353R,0.003800X0.887800*%
%ADD354R,0.003800X0.891600*%
%ADD355R,0.003800X0.895400*%
%ADD356R,0.003800X0.251500*%
%ADD357R,0.003900X0.579200*%
%ADD358R,0.003800X0.243900*%
%ADD359R,0.003800X0.556300*%
%ADD360R,0.003800X0.255200*%
%ADD361R,0.003800X0.529500*%
%ADD362R,0.003800X0.731600*%
%ADD363R,0.003900X0.525800*%
%ADD364R,0.003900X0.281900*%
%ADD365R,0.003900X0.735400*%
%ADD366R,0.003800X0.300900*%
%ADD367R,0.003800X0.762000*%
%ADD368R,0.003800X0.518200*%
%ADD369R,0.003800X0.350600*%
%ADD370R,0.003800X0.796300*%
%ADD371R,0.003800X0.807800*%
%ADD372R,0.003800X0.506700*%
%ADD373R,0.003800X0.849600*%
%ADD374R,0.003900X0.506700*%
%ADD375R,0.003900X1.371600*%
%ADD376R,0.003800X1.207800*%
%ADD377R,0.003800X0.503000*%
%ADD378R,0.003800X0.141000*%
%ADD379R,0.003800X1.203900*%
%ADD380R,0.003800X1.204000*%
%ADD381R,0.003800X1.200200*%
%ADD382R,0.003900X0.499100*%
%ADD383R,0.003900X0.156200*%
%ADD384R,0.003900X1.196400*%
%ADD385R,0.003800X1.196400*%
%ADD386R,0.003800X0.163800*%
%ADD387R,0.003800X0.167600*%
%ADD388R,0.003800X1.192500*%
%ADD389R,0.003800X0.499200*%
%ADD390R,0.003800X1.188700*%
%ADD391R,0.003800X0.506800*%
%ADD392R,0.003800X1.184900*%
%ADD393R,0.003900X0.510600*%
%ADD394R,0.003900X0.209600*%
%ADD395R,0.003900X1.181100*%
%ADD396R,0.003800X0.514400*%
%ADD397R,0.003800X1.181100*%
%ADD398R,0.003800X1.177300*%
%ADD399R,0.003800X0.240100*%
%ADD400R,0.003800X1.173500*%
%ADD401R,0.003800X1.169700*%
%ADD402R,0.003800X1.165900*%
%ADD403R,0.003800X1.162100*%
%ADD404R,0.003900X0.929700*%
%ADD405R,0.003900X1.162100*%
%ADD406R,0.003800X0.929700*%
%ADD407R,0.003800X1.154500*%
%ADD408R,0.003800X0.933500*%
%ADD409R,0.003800X1.150600*%
%ADD410R,0.003800X0.937300*%
%ADD411R,0.003800X1.146800*%
%ADD412R,0.003800X0.941100*%
%ADD413R,0.003800X1.139200*%
%ADD414R,0.003800X0.944900*%
%ADD415R,0.003800X1.135400*%
%ADD416R,0.003800X0.948700*%
%ADD417R,0.003800X1.127800*%
%ADD418R,0.003800X1.124000*%
%ADD419R,0.003800X1.116400*%
%ADD420R,0.003900X0.956300*%
%ADD421R,0.003900X1.104900*%
%ADD422R,0.003800X0.960100*%
%ADD423R,0.003800X1.093500*%
%ADD424R,0.003800X1.085900*%
%ADD425R,0.003800X0.967800*%
%ADD426R,0.003800X1.074500*%
%ADD427R,0.003800X1.063000*%
%ADD428R,0.003800X0.975400*%
%ADD429R,0.003800X1.036400*%
%ADD430R,0.003800X0.979200*%
%ADD431R,0.003800X1.021000*%
%ADD432R,0.003800X0.983000*%
%ADD433R,0.003800X1.009600*%
%ADD434R,0.003800X0.986800*%
%ADD435R,0.003800X0.998200*%
%ADD436R,0.003900X0.990600*%
%ADD437R,0.003900X0.986700*%
%ADD438R,0.003800X0.994400*%
%ADD439R,0.003800X0.975300*%
%ADD440R,0.003800X0.948600*%
%ADD441R,0.003800X1.002000*%
%ADD442R,0.003800X0.213300*%
%ADD443R,0.003800X0.217100*%
%ADD444R,0.003800X1.017300*%
%ADD445R,0.003800X0.666800*%
%ADD446R,0.003800X0.220900*%
%ADD447R,0.003900X1.028700*%
%ADD448R,0.003900X0.224700*%
%ADD449R,0.003800X1.032500*%
%ADD450R,0.003800X1.040100*%
%ADD451R,0.003800X1.043900*%
%ADD452R,0.003800X0.548700*%
%ADD453R,0.003800X1.051500*%
%ADD454R,0.003800X1.055300*%
%ADD455R,0.003800X1.059100*%
%ADD456R,0.003800X1.062900*%
%ADD457R,0.003800X0.255300*%
%ADD458R,0.003900X1.066800*%
%ADD459R,0.003900X0.259100*%
%ADD460R,0.003900X0.457200*%
%ADD461R,0.003800X0.423000*%
%ADD462R,0.003800X1.082100*%
%ADD463R,0.003800X0.274400*%
%ADD464R,0.003800X0.278200*%
%ADD465R,0.003800X1.101100*%
%ADD466R,0.003800X0.278100*%
%ADD467R,0.003900X0.876300*%
%ADD468R,0.003900X0.236200*%
%ADD469R,0.003900X0.289600*%
%ADD470R,0.003900X0.247700*%
%ADD471R,0.003800X0.049500*%
%ADD472R,0.003900X0.640100*%
%ADD473R,0.003800X0.659200*%
%ADD474R,0.003800X0.663000*%
%ADD475R,0.003900X0.872500*%
%ADD476R,0.003900X0.666800*%
%ADD477R,0.003800X0.872500*%
%ADD478R,0.003800X0.868700*%
%ADD479R,0.003800X0.864900*%
%ADD480R,0.003800X0.861100*%
%ADD481R,0.003800X0.857300*%
%ADD482R,0.003800X0.853400*%
%ADD483R,0.003800X0.845800*%
%ADD484R,0.003900X0.682000*%
%ADD485R,0.003800X0.842000*%
%ADD486R,0.003800X0.834400*%
%ADD487R,0.003800X0.823000*%
%ADD488R,0.003800X0.815300*%
%ADD489R,0.003800X0.811500*%
%ADD490R,0.003800X0.788700*%
%ADD491R,0.003900X0.777300*%
%ADD492R,0.003800X0.750600*%
%ADD493R,0.003800X0.735400*%
%ADD494R,0.003800X0.727800*%
%ADD495R,0.003800X0.628700*%
%ADD496R,0.003800X0.575400*%
%ADD497R,0.003900X0.670600*%
%ADD498R,0.003800X0.655400*%
%ADD499R,0.003900X0.651500*%
%ADD500R,0.003900X0.624800*%
%ADD501R,0.003900X0.594400*%
%ADD502R,0.003900X0.563900*%
%ADD503R,0.003800X0.541100*%
%ADD504R,0.003800X0.537300*%
%ADD505R,0.003800X0.525700*%
%ADD506R,0.003900X0.525700*%
%ADD507R,0.003800X0.514300*%
%ADD508R,0.003900X0.480100*%
%ADD509R,0.003800X0.464800*%
%ADD510R,0.003900X0.442000*%
%ADD511R,0.003800X0.438200*%
%ADD512R,0.003800X0.430600*%
%ADD513R,0.003800X0.407600*%
%ADD514R,0.003900X0.403800*%
%ADD515R,0.003900X0.365700*%
%ADD516R,0.003900X0.327700*%
%ADD517R,0.003900X0.243800*%
%ADD518R,0.003900X0.205800*%
%ADD519R,0.003800X0.198100*%
%ADD520R,0.003900X0.163800*%
%ADD521R,0.003800X0.137100*%
%ADD522R,0.003900X0.091500*%
%ADD523R,0.003800X0.060900*%
%ADD524C,0.406400*%

G36*
X19117Y319394D02*
X19117Y319394D01*
X19135Y319392D01*
X19237Y319420D01*
X19340Y319442D01*
X19355Y319451D01*
X19372Y319456D01*
X19517Y319541D01*
X24597Y323351D01*
X24600Y323354D01*
X24604Y323356D01*
X24685Y323443D01*
X24767Y323528D01*
X24769Y323532D01*
X24772Y323535D01*
X24822Y323644D01*
X24872Y323751D01*
X24872Y323755D01*
X24874Y323759D01*
X24887Y323877D01*
X24900Y323995D01*
X24900Y323999D01*
X24900Y324004D01*
X24874Y324120D01*
X24850Y324236D01*
X24847Y324240D01*
X24846Y324244D01*
X24785Y324346D01*
X24725Y324448D01*
X24721Y324451D01*
X24719Y324454D01*
X24597Y324569D01*
X19517Y328379D01*
X19501Y328387D01*
X19488Y328400D01*
X19473Y328407D01*
X19465Y328413D01*
X19415Y328433D01*
X19392Y328444D01*
X19299Y328493D01*
X19281Y328496D01*
X19265Y328503D01*
X19160Y328515D01*
X19056Y328531D01*
X19038Y328528D01*
X19021Y328530D01*
X18918Y328508D01*
X18813Y328490D01*
X18798Y328482D01*
X18780Y328478D01*
X18690Y328424D01*
X18597Y328374D01*
X18584Y328361D01*
X18569Y328352D01*
X18500Y328272D01*
X18428Y328195D01*
X18421Y328178D01*
X18409Y328165D01*
X18370Y328067D01*
X18326Y327971D01*
X18324Y327953D01*
X18317Y327937D01*
X18299Y327770D01*
X18299Y320150D01*
X18302Y320132D01*
X18300Y320115D01*
X18321Y320011D01*
X18339Y319907D01*
X18347Y319892D01*
X18351Y319874D01*
X18404Y319783D01*
X18454Y319690D01*
X18466Y319678D01*
X18476Y319662D01*
X18555Y319593D01*
X18632Y319521D01*
X18648Y319513D01*
X18662Y319501D01*
X18759Y319461D01*
X18855Y319417D01*
X18873Y319415D01*
X18889Y319408D01*
X18995Y319401D01*
X19099Y319390D01*
X19117Y319394D01*
G37*
G36*
X24212Y337872D02*
X24212Y337872D01*
X24229Y337870D01*
X24332Y337892D01*
X24437Y337910D01*
X24452Y337918D01*
X24470Y337922D01*
X24560Y337976D01*
X24654Y338026D01*
X24666Y338039D01*
X24681Y338048D01*
X24750Y338128D01*
X24822Y338205D01*
X24829Y338222D01*
X24841Y338235D01*
X24880Y338333D01*
X24924Y338429D01*
X24926Y338447D01*
X24933Y338463D01*
X24951Y338630D01*
X24951Y346250D01*
X24949Y346267D01*
X24950Y346282D01*
X24950Y346285D01*
X24929Y346389D01*
X24912Y346493D01*
X24903Y346508D01*
X24900Y346526D01*
X24846Y346617D01*
X24796Y346710D01*
X24784Y346722D01*
X24775Y346738D01*
X24695Y346807D01*
X24618Y346880D01*
X24602Y346887D01*
X24588Y346899D01*
X24491Y346939D01*
X24395Y346983D01*
X24377Y346985D01*
X24361Y346992D01*
X24255Y346999D01*
X24151Y347010D01*
X24133Y347006D01*
X24115Y347008D01*
X24013Y346980D01*
X23940Y346964D01*
X23937Y346964D01*
X23910Y346958D01*
X23895Y346949D01*
X23878Y346944D01*
X23733Y346859D01*
X18653Y343049D01*
X18650Y343046D01*
X18647Y343044D01*
X18565Y342957D01*
X18483Y342872D01*
X18481Y342868D01*
X18478Y342865D01*
X18428Y342756D01*
X18378Y342649D01*
X18378Y342645D01*
X18376Y342641D01*
X18363Y342523D01*
X18350Y342405D01*
X18350Y342401D01*
X18350Y342396D01*
X18376Y342280D01*
X18401Y342164D01*
X18403Y342160D01*
X18404Y342156D01*
X18465Y342054D01*
X18526Y341952D01*
X18529Y341949D01*
X18531Y341946D01*
X18653Y341831D01*
X23733Y338021D01*
X23749Y338013D01*
X23762Y338001D01*
X23858Y337956D01*
X23951Y337907D01*
X23969Y337904D01*
X23985Y337897D01*
X24090Y337885D01*
X24194Y337869D01*
X24212Y337872D01*
G37*
G36*
X298468Y472952D02*
X298468Y472952D01*
X298485Y472950D01*
X298589Y472971D01*
X298693Y472989D01*
X298708Y472997D01*
X298726Y473001D01*
X298817Y473054D01*
X298910Y473104D01*
X298922Y473116D01*
X298938Y473126D01*
X299007Y473205D01*
X299080Y473282D01*
X299087Y473298D01*
X299099Y473312D01*
X299139Y473409D01*
X299183Y473505D01*
X299185Y473523D01*
X299192Y473539D01*
X299199Y473645D01*
X299210Y473749D01*
X299206Y473767D01*
X299208Y473785D01*
X299180Y473887D01*
X299158Y473990D01*
X299149Y474005D01*
X299144Y474022D01*
X299059Y474167D01*
X295249Y479247D01*
X295246Y479250D01*
X295244Y479254D01*
X295157Y479335D01*
X295072Y479417D01*
X295068Y479419D01*
X295065Y479422D01*
X294956Y479472D01*
X294849Y479522D01*
X294845Y479522D01*
X294841Y479524D01*
X294723Y479537D01*
X294605Y479550D01*
X294601Y479550D01*
X294596Y479550D01*
X294480Y479524D01*
X294364Y479500D01*
X294360Y479497D01*
X294356Y479496D01*
X294254Y479435D01*
X294152Y479375D01*
X294149Y479371D01*
X294146Y479369D01*
X294031Y479247D01*
X290221Y474167D01*
X290213Y474151D01*
X290201Y474138D01*
X290156Y474042D01*
X290107Y473949D01*
X290104Y473931D01*
X290097Y473915D01*
X290085Y473810D01*
X290069Y473706D01*
X290072Y473688D01*
X290070Y473671D01*
X290092Y473568D01*
X290110Y473463D01*
X290118Y473448D01*
X290122Y473430D01*
X290176Y473340D01*
X290226Y473247D01*
X290239Y473234D01*
X290248Y473219D01*
X290328Y473150D01*
X290405Y473078D01*
X290422Y473071D01*
X290435Y473059D01*
X290533Y473020D01*
X290629Y472976D01*
X290647Y472974D01*
X290663Y472967D01*
X290830Y472949D01*
X298450Y472949D01*
X298468Y472952D01*
G37*
G36*
X339108Y472952D02*
X339108Y472952D01*
X339125Y472950D01*
X339229Y472971D01*
X339333Y472989D01*
X339348Y472997D01*
X339366Y473001D01*
X339457Y473054D01*
X339550Y473104D01*
X339562Y473116D01*
X339578Y473126D01*
X339647Y473205D01*
X339720Y473282D01*
X339727Y473298D01*
X339739Y473312D01*
X339779Y473409D01*
X339823Y473505D01*
X339825Y473523D01*
X339832Y473539D01*
X339839Y473645D01*
X339850Y473749D01*
X339846Y473767D01*
X339848Y473785D01*
X339820Y473887D01*
X339798Y473990D01*
X339789Y474005D01*
X339784Y474022D01*
X339699Y474167D01*
X335889Y479247D01*
X335886Y479250D01*
X335884Y479254D01*
X335797Y479335D01*
X335712Y479417D01*
X335708Y479419D01*
X335705Y479422D01*
X335596Y479472D01*
X335489Y479522D01*
X335485Y479522D01*
X335481Y479524D01*
X335363Y479537D01*
X335245Y479550D01*
X335241Y479550D01*
X335236Y479550D01*
X335120Y479524D01*
X335004Y479500D01*
X335000Y479497D01*
X334996Y479496D01*
X334894Y479435D01*
X334792Y479375D01*
X334789Y479371D01*
X334786Y479369D01*
X334671Y479247D01*
X330861Y474167D01*
X330853Y474151D01*
X330841Y474138D01*
X330796Y474042D01*
X330747Y473949D01*
X330744Y473931D01*
X330737Y473915D01*
X330725Y473810D01*
X330709Y473706D01*
X330712Y473688D01*
X330710Y473671D01*
X330732Y473568D01*
X330750Y473463D01*
X330758Y473448D01*
X330762Y473430D01*
X330816Y473340D01*
X330866Y473247D01*
X330879Y473234D01*
X330888Y473219D01*
X330968Y473150D01*
X331045Y473078D01*
X331062Y473071D01*
X331075Y473059D01*
X331173Y473020D01*
X331269Y472976D01*
X331287Y472974D01*
X331303Y472967D01*
X331470Y472949D01*
X339090Y472949D01*
X339108Y472952D01*
G37*
G36*
X109995Y444033D02*
X109995Y444033D01*
X110066Y444031D01*
X110135Y444049D01*
X110206Y444058D01*
X110272Y444085D01*
X110341Y444103D01*
X110402Y444140D01*
X110468Y444167D01*
X110524Y444212D01*
X110586Y444249D01*
X110635Y444300D01*
X110690Y444345D01*
X110731Y444404D01*
X110780Y444456D01*
X110813Y444519D01*
X110854Y444577D01*
X110877Y444645D01*
X110910Y444709D01*
X110920Y444768D01*
X110947Y444846D01*
X110953Y444965D01*
X110965Y445040D01*
X110965Y449040D01*
X110955Y449111D01*
X110955Y449183D01*
X110935Y449251D01*
X110925Y449322D01*
X110896Y449387D01*
X110876Y449456D01*
X110838Y449516D01*
X110809Y449581D01*
X110763Y449636D01*
X110725Y449696D01*
X110672Y449744D01*
X110626Y449798D01*
X110566Y449838D01*
X110512Y449885D01*
X110448Y449916D01*
X110389Y449956D01*
X110321Y449977D01*
X110256Y450008D01*
X110186Y450020D01*
X110118Y450041D01*
X110046Y450043D01*
X109976Y450055D01*
X109905Y450047D01*
X109834Y450049D01*
X109764Y450030D01*
X109693Y450022D01*
X109638Y449997D01*
X109559Y449977D01*
X109456Y449916D01*
X109387Y449885D01*
X106387Y447885D01*
X106300Y447808D01*
X106210Y447735D01*
X106195Y447713D01*
X106175Y447695D01*
X106113Y447598D01*
X106046Y447503D01*
X106038Y447477D01*
X106023Y447455D01*
X105991Y447344D01*
X105953Y447234D01*
X105952Y447207D01*
X105945Y447182D01*
X105945Y447066D01*
X105939Y446950D01*
X105945Y446924D01*
X105945Y446897D01*
X105977Y446786D01*
X106003Y446673D01*
X106016Y446650D01*
X106024Y446624D01*
X106086Y446526D01*
X106142Y446425D01*
X106160Y446409D01*
X106175Y446384D01*
X106383Y446199D01*
X106387Y446195D01*
X109387Y444195D01*
X109451Y444164D01*
X109511Y444125D01*
X109579Y444103D01*
X109643Y444072D01*
X109714Y444060D01*
X109782Y444039D01*
X109853Y444037D01*
X109924Y444025D01*
X109995Y444033D01*
G37*
G36*
X195696Y75465D02*
X195696Y75465D01*
X195723Y75465D01*
X195834Y75497D01*
X195947Y75523D01*
X195970Y75536D01*
X195996Y75544D01*
X196094Y75606D01*
X196195Y75662D01*
X196211Y75680D01*
X196236Y75695D01*
X196421Y75903D01*
X196425Y75907D01*
X198425Y78907D01*
X198456Y78971D01*
X198496Y79031D01*
X198517Y79099D01*
X198548Y79163D01*
X198560Y79234D01*
X198581Y79302D01*
X198583Y79373D01*
X198595Y79444D01*
X198587Y79515D01*
X198589Y79586D01*
X198571Y79655D01*
X198562Y79726D01*
X198535Y79792D01*
X198517Y79861D01*
X198480Y79922D01*
X198453Y79988D01*
X198408Y80044D01*
X198372Y80106D01*
X198320Y80155D01*
X198275Y80210D01*
X198217Y80251D01*
X198164Y80300D01*
X198101Y80333D01*
X198043Y80374D01*
X197975Y80397D01*
X197911Y80430D01*
X197852Y80440D01*
X197774Y80467D01*
X197655Y80473D01*
X197580Y80485D01*
X193580Y80485D01*
X193509Y80475D01*
X193437Y80475D01*
X193369Y80455D01*
X193299Y80445D01*
X193233Y80416D01*
X193164Y80396D01*
X193104Y80358D01*
X193039Y80329D01*
X192984Y80283D01*
X192924Y80245D01*
X192876Y80192D01*
X192822Y80146D01*
X192782Y80086D01*
X192735Y80032D01*
X192704Y79968D01*
X192665Y79909D01*
X192643Y79841D01*
X192612Y79776D01*
X192600Y79706D01*
X192579Y79638D01*
X192577Y79566D01*
X192565Y79496D01*
X192573Y79425D01*
X192571Y79354D01*
X192590Y79284D01*
X192598Y79213D01*
X192623Y79158D01*
X192643Y79079D01*
X192704Y78976D01*
X192735Y78907D01*
X194735Y75907D01*
X194812Y75820D01*
X194885Y75730D01*
X194907Y75715D01*
X194925Y75695D01*
X195022Y75633D01*
X195117Y75566D01*
X195143Y75558D01*
X195165Y75543D01*
X195276Y75511D01*
X195386Y75473D01*
X195413Y75472D01*
X195438Y75465D01*
X195554Y75465D01*
X195670Y75459D01*
X195696Y75465D01*
G37*
G36*
X177916Y75465D02*
X177916Y75465D01*
X177943Y75465D01*
X178054Y75497D01*
X178167Y75523D01*
X178190Y75536D01*
X178216Y75544D01*
X178314Y75606D01*
X178415Y75662D01*
X178431Y75680D01*
X178456Y75695D01*
X178641Y75903D01*
X178645Y75907D01*
X180645Y78907D01*
X180676Y78971D01*
X180716Y79031D01*
X180737Y79099D01*
X180768Y79163D01*
X180780Y79234D01*
X180801Y79302D01*
X180803Y79373D01*
X180815Y79444D01*
X180807Y79515D01*
X180809Y79586D01*
X180791Y79655D01*
X180782Y79726D01*
X180755Y79792D01*
X180737Y79861D01*
X180700Y79922D01*
X180673Y79988D01*
X180628Y80044D01*
X180592Y80106D01*
X180540Y80155D01*
X180495Y80210D01*
X180437Y80251D01*
X180384Y80300D01*
X180321Y80333D01*
X180263Y80374D01*
X180195Y80397D01*
X180131Y80430D01*
X180072Y80440D01*
X179994Y80467D01*
X179875Y80473D01*
X179800Y80485D01*
X175800Y80485D01*
X175729Y80475D01*
X175657Y80475D01*
X175589Y80455D01*
X175519Y80445D01*
X175453Y80416D01*
X175384Y80396D01*
X175324Y80358D01*
X175259Y80329D01*
X175204Y80283D01*
X175144Y80245D01*
X175096Y80192D01*
X175042Y80146D01*
X175002Y80086D01*
X174955Y80032D01*
X174924Y79968D01*
X174885Y79909D01*
X174863Y79841D01*
X174832Y79776D01*
X174820Y79706D01*
X174799Y79638D01*
X174797Y79566D01*
X174785Y79496D01*
X174793Y79425D01*
X174791Y79354D01*
X174810Y79284D01*
X174818Y79213D01*
X174843Y79158D01*
X174863Y79079D01*
X174924Y78976D01*
X174955Y78907D01*
X176955Y75907D01*
X177032Y75820D01*
X177105Y75730D01*
X177127Y75715D01*
X177145Y75695D01*
X177242Y75633D01*
X177337Y75566D01*
X177363Y75558D01*
X177385Y75543D01*
X177496Y75511D01*
X177606Y75473D01*
X177633Y75472D01*
X177658Y75465D01*
X177774Y75465D01*
X177890Y75459D01*
X177916Y75465D01*
G37*
G36*
X160136Y75465D02*
X160136Y75465D01*
X160163Y75465D01*
X160274Y75497D01*
X160387Y75523D01*
X160410Y75536D01*
X160436Y75544D01*
X160534Y75606D01*
X160635Y75662D01*
X160651Y75680D01*
X160676Y75695D01*
X160861Y75903D01*
X160865Y75907D01*
X162865Y78907D01*
X162896Y78971D01*
X162936Y79031D01*
X162957Y79099D01*
X162988Y79163D01*
X163000Y79234D01*
X163021Y79302D01*
X163023Y79373D01*
X163035Y79444D01*
X163027Y79515D01*
X163029Y79586D01*
X163011Y79655D01*
X163002Y79726D01*
X162975Y79792D01*
X162957Y79861D01*
X162920Y79922D01*
X162893Y79988D01*
X162848Y80044D01*
X162812Y80106D01*
X162760Y80155D01*
X162715Y80210D01*
X162657Y80251D01*
X162604Y80300D01*
X162541Y80333D01*
X162483Y80374D01*
X162415Y80397D01*
X162351Y80430D01*
X162292Y80440D01*
X162214Y80467D01*
X162095Y80473D01*
X162020Y80485D01*
X158020Y80485D01*
X157949Y80475D01*
X157877Y80475D01*
X157809Y80455D01*
X157739Y80445D01*
X157673Y80416D01*
X157604Y80396D01*
X157544Y80358D01*
X157479Y80329D01*
X157424Y80283D01*
X157364Y80245D01*
X157316Y80192D01*
X157262Y80146D01*
X157222Y80086D01*
X157175Y80032D01*
X157144Y79968D01*
X157105Y79909D01*
X157083Y79841D01*
X157052Y79776D01*
X157040Y79706D01*
X157019Y79638D01*
X157017Y79566D01*
X157005Y79496D01*
X157013Y79425D01*
X157011Y79354D01*
X157030Y79284D01*
X157038Y79213D01*
X157063Y79158D01*
X157083Y79079D01*
X157144Y78976D01*
X157175Y78907D01*
X159175Y75907D01*
X159252Y75820D01*
X159325Y75730D01*
X159347Y75715D01*
X159365Y75695D01*
X159462Y75633D01*
X159557Y75566D01*
X159583Y75558D01*
X159605Y75543D01*
X159716Y75511D01*
X159826Y75473D01*
X159853Y75472D01*
X159878Y75465D01*
X159994Y75465D01*
X160110Y75459D01*
X160136Y75465D01*
G37*
G36*
X139816Y67845D02*
X139816Y67845D01*
X139843Y67845D01*
X139954Y67877D01*
X140067Y67903D01*
X140090Y67916D01*
X140116Y67924D01*
X140214Y67986D01*
X140315Y68042D01*
X140331Y68060D01*
X140356Y68075D01*
X140541Y68283D01*
X140545Y68287D01*
X142545Y71287D01*
X142576Y71351D01*
X142616Y71411D01*
X142637Y71479D01*
X142668Y71543D01*
X142680Y71614D01*
X142701Y71682D01*
X142703Y71753D01*
X142715Y71824D01*
X142707Y71895D01*
X142709Y71966D01*
X142691Y72035D01*
X142682Y72106D01*
X142655Y72172D01*
X142637Y72241D01*
X142600Y72302D01*
X142573Y72368D01*
X142528Y72424D01*
X142492Y72486D01*
X142440Y72535D01*
X142395Y72590D01*
X142337Y72631D01*
X142284Y72680D01*
X142221Y72713D01*
X142163Y72754D01*
X142095Y72777D01*
X142031Y72810D01*
X141972Y72820D01*
X141894Y72847D01*
X141775Y72853D01*
X141700Y72865D01*
X137700Y72865D01*
X137629Y72855D01*
X137557Y72855D01*
X137489Y72835D01*
X137419Y72825D01*
X137353Y72796D01*
X137284Y72776D01*
X137224Y72738D01*
X137159Y72709D01*
X137104Y72663D01*
X137044Y72625D01*
X136996Y72572D01*
X136942Y72526D01*
X136902Y72466D01*
X136855Y72412D01*
X136824Y72348D01*
X136785Y72289D01*
X136763Y72221D01*
X136732Y72156D01*
X136720Y72086D01*
X136699Y72018D01*
X136697Y71946D01*
X136685Y71876D01*
X136693Y71805D01*
X136691Y71734D01*
X136710Y71664D01*
X136718Y71593D01*
X136743Y71538D01*
X136763Y71459D01*
X136824Y71356D01*
X136855Y71287D01*
X138855Y68287D01*
X138932Y68200D01*
X139005Y68110D01*
X139027Y68095D01*
X139045Y68075D01*
X139142Y68013D01*
X139237Y67946D01*
X139263Y67938D01*
X139285Y67923D01*
X139396Y67891D01*
X139506Y67853D01*
X139533Y67852D01*
X139558Y67845D01*
X139674Y67845D01*
X139790Y67839D01*
X139816Y67845D01*
G37*
D10*
X26261Y29845D02*
X26261Y38743D01*
X30710Y38743D01*
X32193Y37260D01*
X32193Y35777D01*
X30710Y34294D01*
X32193Y32811D01*
X32193Y31328D01*
X30710Y29845D01*
X26261Y29845D01*
X26261Y34294D02*
X30710Y34294D01*
X37100Y35777D02*
X40065Y35777D01*
X41548Y34294D01*
X41548Y29845D01*
X37100Y29845D01*
X35617Y31328D01*
X37100Y32811D01*
X41548Y32811D01*
X46455Y31328D02*
X46455Y37260D01*
X46455Y31328D02*
X47938Y29845D01*
X47938Y35777D02*
X44972Y35777D01*
X57091Y38743D02*
X58574Y37260D01*
X57091Y38743D02*
X54125Y38743D01*
X52642Y37260D01*
X52642Y31328D01*
X54125Y29845D01*
X57091Y29845D01*
X58574Y31328D01*
X58574Y34294D01*
X55608Y34294D01*
X61997Y35777D02*
X61997Y29845D01*
X61997Y35777D02*
X66446Y35777D01*
X67929Y34294D01*
X67929Y29845D01*
X77284Y29845D02*
X77284Y38743D01*
X77284Y29845D02*
X72836Y29845D01*
X71353Y31328D01*
X71353Y34294D01*
X72836Y35777D01*
X77284Y35777D01*
X84447Y29845D02*
X90379Y29845D01*
X93345Y32811D01*
X90379Y35777D01*
X84447Y35777D01*
X87413Y39200D02*
X87413Y40683D01*
X93345Y40683D01*
X93345Y39200D02*
X93345Y42166D01*
X84447Y40683D02*
X82964Y40683D01*
X93345Y46920D02*
X93345Y49886D01*
X91862Y51369D01*
X88896Y51369D01*
X87413Y49886D01*
X87413Y46920D01*
X88896Y45437D01*
X91862Y45437D01*
X93345Y46920D01*
X336720Y38743D02*
X336720Y29845D01*
X342652Y29845D02*
X336720Y38743D01*
X342652Y38743D02*
X342652Y29845D01*
X350524Y38743D02*
X352007Y37260D01*
X350524Y38743D02*
X347558Y38743D01*
X346075Y37260D01*
X346075Y35777D01*
X347558Y34294D01*
X350524Y34294D01*
X352007Y32811D01*
X352007Y31328D01*
X350524Y29845D01*
X347558Y29845D01*
X346075Y31328D01*
X118745Y29845D02*
X109847Y29845D01*
X109847Y34294D01*
X111330Y35777D01*
X114296Y35777D01*
X115779Y34294D01*
X115779Y29845D01*
X115779Y32811D02*
X118745Y35777D01*
X118745Y39200D02*
X118745Y43649D01*
X117262Y45132D01*
X115779Y43649D01*
X115779Y40683D01*
X114296Y39200D01*
X112813Y40683D01*
X112813Y45132D01*
X111330Y50038D02*
X117262Y50038D01*
X118745Y51521D01*
X112813Y51521D02*
X112813Y48555D01*
X310050Y38743D02*
X310050Y29845D01*
X310050Y38743D02*
X314499Y38743D01*
X315982Y37260D01*
X315982Y34294D01*
X314499Y32811D01*
X310050Y32811D01*
X323854Y38743D02*
X325337Y37260D01*
X323854Y38743D02*
X320888Y38743D01*
X319405Y37260D01*
X319405Y35777D01*
X320888Y34294D01*
X323854Y34294D01*
X325337Y32811D01*
X325337Y31328D01*
X323854Y29845D01*
X320888Y29845D01*
X319405Y31328D01*
X254572Y29845D02*
X254572Y38743D01*
X254572Y32811D02*
X260504Y38743D01*
X256055Y34294D02*
X260504Y29845D01*
X265410Y29845D02*
X268376Y29845D01*
X265410Y29845D02*
X263927Y31328D01*
X263927Y34294D01*
X265410Y35777D01*
X268376Y35777D01*
X269859Y34294D01*
X269859Y32811D01*
X263927Y32811D01*
X273283Y31328D02*
X273283Y35777D01*
X273283Y31328D02*
X274766Y29845D01*
X279214Y29845D01*
X279214Y28362D02*
X279214Y35777D01*
X279214Y28362D02*
X277731Y26879D01*
X276248Y26879D01*
X287479Y29845D02*
X287479Y38743D01*
X291928Y38743D01*
X293411Y37260D01*
X293411Y34294D01*
X291928Y32811D01*
X287479Y32811D01*
X290445Y32811D02*
X293411Y29845D01*
X296834Y29845D02*
X299800Y29845D01*
X298317Y29845D02*
X298317Y38743D01*
X296834Y38743D02*
X299800Y38743D01*
X169545Y32811D02*
X160647Y32811D01*
X160647Y29845D02*
X160647Y35777D01*
X160647Y39200D02*
X169545Y45132D01*
X169545Y39200D02*
X160647Y45132D01*
X144145Y29845D02*
X135247Y29845D01*
X135247Y34294D01*
X136730Y35777D01*
X139696Y35777D01*
X141179Y34294D01*
X141179Y29845D01*
X141179Y32811D02*
X144145Y35777D01*
X144145Y45132D02*
X135247Y39200D01*
X135247Y45132D02*
X144145Y39200D01*
X59055Y462852D02*
X50157Y462852D01*
X50157Y467301D01*
X51640Y468784D01*
X54606Y468784D01*
X56089Y467301D01*
X56089Y462852D01*
X59055Y472207D02*
X50157Y472207D01*
X56089Y475173D02*
X59055Y472207D01*
X56089Y475173D02*
X59055Y478139D01*
X50157Y478139D01*
X50157Y481563D02*
X59055Y481563D01*
X50157Y481563D02*
X50157Y486011D01*
X51640Y487494D01*
X54606Y487494D01*
X56089Y486011D01*
X56089Y481563D01*
X56089Y484528D02*
X59055Y487494D01*
X65397Y462852D02*
X74295Y462852D01*
X71329Y462852D02*
X65397Y468784D01*
X69846Y464335D02*
X74295Y468784D01*
X74295Y473690D02*
X74295Y476656D01*
X74295Y473690D02*
X72812Y472207D01*
X69846Y472207D01*
X68363Y473690D01*
X68363Y476656D01*
X69846Y478139D01*
X71329Y478139D01*
X71329Y472207D01*
X72812Y481563D02*
X68363Y481563D01*
X72812Y481563D02*
X74295Y483046D01*
X74295Y487494D01*
X75778Y487494D02*
X68363Y487494D01*
X75778Y487494D02*
X77261Y486011D01*
X77261Y484528D01*
X265021Y484505D02*
X265021Y493403D01*
X270953Y484505D01*
X270953Y493403D01*
X275860Y484505D02*
X278825Y484505D01*
X275860Y484505D02*
X274377Y485988D01*
X274377Y488954D01*
X275860Y490437D01*
X278825Y490437D01*
X280308Y488954D01*
X280308Y487471D01*
X274377Y487471D01*
X285215Y485988D02*
X285215Y491920D01*
X285215Y485988D02*
X286698Y484505D01*
X286698Y490437D02*
X283732Y490437D01*
X302832Y493403D02*
X302832Y484505D01*
X302832Y493403D02*
X307281Y493403D01*
X308764Y491920D01*
X308764Y488954D01*
X307281Y487471D01*
X302832Y487471D01*
X312187Y484505D02*
X312187Y493403D01*
X315153Y487471D02*
X312187Y484505D01*
X315153Y487471D02*
X318119Y484505D01*
X318119Y493403D01*
X321543Y493403D02*
X321543Y484505D01*
X321543Y493403D02*
X325991Y493403D01*
X327474Y491920D01*
X327474Y488954D01*
X325991Y487471D01*
X321543Y487471D01*
X324508Y487471D02*
X327474Y484505D01*
X8247Y35777D02*
X8247Y29845D01*
X12696Y29845D01*
X11213Y32811D01*
X11213Y34294D01*
X12696Y35777D01*
X15662Y35777D01*
X17145Y34294D01*
X17145Y31328D01*
X15662Y29845D01*
X14179Y39200D02*
X8247Y39200D01*
X14179Y39200D02*
X17145Y42166D01*
X14179Y45132D01*
X8247Y45132D01*
X186047Y29845D02*
X194945Y29845D01*
X186047Y29845D02*
X186047Y34294D01*
X187530Y35777D01*
X190496Y35777D01*
X191979Y34294D01*
X191979Y29845D01*
X191979Y32811D02*
X194945Y35777D01*
X194945Y42166D02*
X186047Y42166D01*
X186047Y39200D02*
X186047Y45132D01*
X186047Y53004D02*
X187530Y54487D01*
X186047Y53004D02*
X186047Y50038D01*
X187530Y48555D01*
X189013Y48555D01*
X190496Y50038D01*
X190496Y53004D01*
X191979Y54487D01*
X193462Y54487D01*
X194945Y53004D01*
X194945Y50038D01*
X193462Y48555D01*
D11*
X46265Y155194D02*
X44951Y153881D01*
X44951Y151254D01*
X46265Y149941D01*
X51519Y149941D01*
X52832Y151254D01*
X52832Y153881D01*
X51519Y155194D01*
X48892Y155194D01*
X48892Y152568D01*
X52832Y158126D02*
X44951Y158126D01*
X44951Y162067D01*
X46265Y163380D01*
X48892Y163380D01*
X50205Y162067D01*
X50205Y158126D01*
X44951Y170253D02*
X46265Y171566D01*
X44951Y170253D02*
X44951Y167626D01*
X46265Y166312D01*
X47578Y166312D01*
X48892Y167626D01*
X48892Y170253D01*
X50205Y171566D01*
X51519Y171566D01*
X52832Y170253D01*
X52832Y167626D01*
X51519Y166312D01*
X52832Y174498D02*
X47578Y174498D01*
X44951Y177125D01*
X47578Y179752D01*
X52832Y179752D01*
X48892Y179752D02*
X48892Y174498D01*
X52832Y182684D02*
X44951Y182684D01*
X52832Y187938D01*
X44951Y187938D01*
X44951Y193496D02*
X52832Y193496D01*
X44951Y190870D02*
X44951Y196123D01*
D10*
X141597Y463202D02*
X143080Y464685D01*
X141597Y463202D02*
X141597Y460236D01*
X143080Y458753D01*
X149012Y458753D01*
X150495Y460236D01*
X150495Y463202D01*
X149012Y464685D01*
X150495Y469591D02*
X150495Y472557D01*
X150495Y469591D02*
X149012Y468108D01*
X146046Y468108D01*
X144563Y469591D01*
X144563Y472557D01*
X146046Y474040D01*
X147529Y474040D01*
X147529Y468108D01*
X141597Y477463D02*
X141597Y478946D01*
X150495Y478946D01*
X150495Y477463D02*
X150495Y480429D01*
X141597Y483700D02*
X141597Y485183D01*
X150495Y485183D01*
X150495Y483700D02*
X150495Y486666D01*
X159803Y460312D02*
X165735Y460312D01*
X159803Y460312D02*
X156837Y463278D01*
X159803Y466244D01*
X165735Y466244D01*
X161286Y466244D02*
X161286Y460312D01*
X165735Y469667D02*
X156837Y469667D01*
X165735Y475599D01*
X156837Y475599D01*
X156837Y481988D02*
X165735Y481988D01*
X156837Y479023D02*
X156837Y484954D01*
X211447Y29845D02*
X220345Y29845D01*
X220345Y34294D01*
X218862Y35777D01*
X212930Y35777D01*
X211447Y34294D01*
X211447Y29845D01*
X211447Y42166D02*
X220345Y42166D01*
X211447Y39200D02*
X211447Y45132D01*
X211447Y48555D02*
X220345Y48555D01*
X211447Y48555D02*
X211447Y53004D01*
X212930Y54487D01*
X215896Y54487D01*
X217379Y53004D01*
X217379Y48555D01*
X217379Y51521D02*
X220345Y54487D01*
X235790Y35777D02*
X234307Y34294D01*
X234307Y31328D01*
X235790Y29845D01*
X241722Y29845D01*
X243205Y31328D01*
X243205Y34294D01*
X241722Y35777D01*
X243205Y42166D02*
X234307Y42166D01*
X234307Y39200D02*
X234307Y45132D01*
X234307Y53004D02*
X235790Y54487D01*
X234307Y53004D02*
X234307Y50038D01*
X235790Y48555D01*
X237273Y48555D01*
X238756Y50038D01*
X238756Y53004D01*
X240239Y54487D01*
X241722Y54487D01*
X243205Y53004D01*
X243205Y50038D01*
X241722Y48555D01*
D11*
X199217Y47414D02*
X199217Y46228D01*
X199217Y47414D02*
X203962Y47414D01*
X203962Y46228D02*
X203962Y48601D01*
X196844Y47414D02*
X195658Y47414D01*
X199217Y51217D02*
X203962Y51217D01*
X199217Y51217D02*
X199217Y54776D01*
X200403Y55963D01*
X203962Y55963D01*
X250952Y44707D02*
X250952Y42334D01*
X250952Y44707D02*
X249766Y45893D01*
X247393Y45893D01*
X246207Y44707D01*
X246207Y42334D01*
X247393Y41148D01*
X249766Y41148D01*
X250952Y42334D01*
X249766Y48632D02*
X246207Y48632D01*
X249766Y48632D02*
X250952Y49819D01*
X250952Y53378D01*
X246207Y53378D01*
X245020Y57303D02*
X249766Y57303D01*
X250952Y58489D01*
X246207Y58489D02*
X246207Y56116D01*
X84561Y178308D02*
X84561Y186189D01*
X84561Y178308D02*
X88501Y178308D01*
X89815Y179621D01*
X89815Y182248D01*
X88501Y183562D01*
X84561Y183562D01*
X92747Y183562D02*
X94060Y183562D01*
X94060Y178308D01*
X92747Y178308D02*
X95373Y178308D01*
X94060Y186189D02*
X94060Y187502D01*
X99517Y183562D02*
X102144Y183562D01*
X103458Y182248D01*
X103458Y178308D01*
X99517Y178308D01*
X98204Y179621D01*
X99517Y180935D01*
X103458Y180935D01*
X106389Y178308D02*
X110330Y178308D01*
X111643Y179621D01*
X110330Y180935D01*
X107703Y180935D01*
X106389Y182248D01*
X107703Y183562D01*
X111643Y183562D01*
D12*
X363098Y37727D02*
X364666Y36159D01*
X363098Y37727D02*
X359963Y37727D01*
X358395Y36159D01*
X358395Y29889D01*
X359963Y28321D01*
X363098Y28321D01*
X364666Y29889D01*
X367751Y28321D02*
X367751Y37727D01*
X367751Y28321D02*
X374021Y28321D01*
X377106Y28321D02*
X377106Y37727D01*
X377106Y31456D02*
X383377Y37727D01*
X378673Y33024D02*
X383377Y28321D01*
X394073Y29579D02*
X403479Y29579D01*
X397208Y32714D02*
X394073Y29579D01*
X397208Y32714D02*
X394073Y35849D01*
X403479Y35849D01*
X403479Y38934D02*
X403479Y42069D01*
X403479Y40501D02*
X394073Y40501D01*
X394073Y38934D02*
X394073Y42069D01*
X394073Y49874D02*
X395641Y51441D01*
X394073Y49874D02*
X394073Y46738D01*
X395641Y45171D01*
X397208Y45171D01*
X398776Y46738D01*
X398776Y49874D01*
X400344Y51441D01*
X401911Y51441D01*
X403479Y49874D01*
X403479Y46738D01*
X401911Y45171D01*
X394073Y56093D02*
X394073Y59229D01*
X394073Y56093D02*
X395641Y54526D01*
X401911Y54526D01*
X403479Y56093D01*
X403479Y59229D01*
X401911Y60796D01*
X395641Y60796D01*
X394073Y59229D01*
X415663Y30849D02*
X425069Y30849D01*
X418798Y33984D02*
X415663Y30849D01*
X418798Y33984D02*
X415663Y37119D01*
X425069Y37119D01*
X415663Y41771D02*
X415663Y44907D01*
X415663Y41771D02*
X417231Y40204D01*
X423501Y40204D01*
X425069Y41771D01*
X425069Y44907D01*
X423501Y46475D01*
X417231Y46475D01*
X415663Y44907D01*
X415663Y54262D02*
X417231Y55830D01*
X415663Y54262D02*
X415663Y51127D01*
X417231Y49559D01*
X418798Y49559D01*
X420366Y51127D01*
X420366Y54262D01*
X421934Y55830D01*
X423501Y55830D01*
X425069Y54262D01*
X425069Y51127D01*
X423501Y49559D01*
X425069Y58914D02*
X425069Y62050D01*
X425069Y60482D02*
X415663Y60482D01*
X415663Y58914D02*
X415663Y62050D01*
X441063Y35904D02*
X442631Y37471D01*
X441063Y35904D02*
X441063Y32768D01*
X442631Y31201D01*
X448901Y31201D01*
X450469Y32768D01*
X450469Y35904D01*
X448901Y37471D01*
X441063Y45259D02*
X442631Y46827D01*
X441063Y45259D02*
X441063Y42123D01*
X442631Y40556D01*
X444198Y40556D01*
X445766Y42123D01*
X445766Y45259D01*
X447334Y46827D01*
X448901Y46827D01*
X450469Y45259D01*
X450469Y42123D01*
X448901Y40556D01*
D13*
X124450Y299340D02*
X124450Y315340D01*
X91450Y315340D02*
X91450Y299340D01*
X103950Y296840D02*
X111950Y296840D01*
D14*
X73964Y301076D02*
X73964Y306584D01*
X73964Y301076D02*
X75065Y299974D01*
X77269Y299974D01*
X78370Y301076D01*
X78370Y306584D01*
X81448Y299974D02*
X85854Y299974D01*
X81448Y299974D02*
X85854Y304380D01*
X85854Y305482D01*
X84753Y306584D01*
X82549Y306584D01*
X81448Y305482D01*
D15*
X23958Y323960D03*
D14*
X8988Y340390D02*
X7887Y341492D01*
X5684Y341492D01*
X4582Y340390D01*
X4582Y335984D01*
X5684Y334882D01*
X7887Y334882D01*
X8988Y335984D01*
X12066Y334882D02*
X12066Y341492D01*
X12066Y338187D02*
X16473Y338187D01*
X16473Y341492D02*
X16473Y334882D01*
X19550Y334882D02*
X19550Y341492D01*
X22855Y341492D01*
X23957Y340390D01*
X23957Y338187D01*
X22855Y337085D01*
X19550Y337085D01*
X21754Y337085D02*
X23957Y334882D01*
X30339Y341492D02*
X31441Y340390D01*
X30339Y341492D02*
X28136Y341492D01*
X27034Y340390D01*
X27034Y335984D01*
X28136Y334882D01*
X30339Y334882D01*
X31441Y335984D01*
X31441Y338187D01*
X29238Y338187D01*
D15*
X19293Y342440D03*
D14*
X10255Y331524D02*
X10255Y324914D01*
X13560Y324914D01*
X14662Y326016D01*
X14662Y330422D01*
X13560Y331524D01*
X10255Y331524D01*
X18841Y331524D02*
X21044Y331524D01*
X18841Y331524D02*
X17740Y330422D01*
X17740Y326016D01*
X18841Y324914D01*
X21044Y324914D01*
X22146Y326016D01*
X22146Y330422D01*
X21044Y331524D01*
X25224Y331524D02*
X25224Y324914D01*
X29630Y324914D02*
X25224Y331524D01*
X29630Y331524D02*
X29630Y324914D01*
X32708Y331524D02*
X37114Y331524D01*
X32708Y331524D02*
X32708Y324914D01*
X37114Y324914D01*
X34911Y328219D02*
X32708Y328219D01*
D16*
X58420Y327660D02*
X58420Y317500D01*
D14*
X79502Y322072D02*
X79502Y328682D01*
X82807Y328682D01*
X83908Y327580D01*
X83908Y325377D01*
X82807Y324275D01*
X79502Y324275D01*
X81705Y324275D02*
X83908Y322072D01*
X86986Y326478D02*
X89189Y328682D01*
X89189Y322072D01*
X86986Y322072D02*
X91393Y322072D01*
D16*
X58580Y336550D02*
X58580Y346710D01*
D14*
X79662Y347732D02*
X79662Y341122D01*
X79662Y347732D02*
X82967Y347732D01*
X84068Y346630D01*
X84068Y344427D01*
X82967Y343325D01*
X79662Y343325D01*
X81865Y343325D02*
X84068Y341122D01*
X87146Y341122D02*
X91553Y341122D01*
X91553Y345528D02*
X87146Y341122D01*
X91553Y345528D02*
X91553Y346630D01*
X90451Y347732D01*
X88248Y347732D01*
X87146Y346630D01*
D13*
X5560Y376280D02*
X5560Y421280D01*
X40560Y438780D02*
X80560Y438780D01*
X80560Y430280D01*
X55560Y430280D01*
X55560Y416280D01*
X55560Y381280D02*
X55560Y367280D01*
X80560Y367280D01*
X80560Y358780D01*
X40560Y358780D01*
D14*
X9605Y381723D02*
X8503Y380622D01*
X8503Y378419D01*
X9605Y377317D01*
X14011Y377317D01*
X15113Y378419D01*
X15113Y380622D01*
X14011Y381723D01*
X15113Y384801D02*
X8503Y384801D01*
X15113Y389208D01*
X8503Y389208D01*
X15113Y392285D02*
X15113Y396692D01*
X10707Y396692D02*
X15113Y392285D01*
X10707Y396692D02*
X9605Y396692D01*
X8503Y395590D01*
X8503Y393387D01*
X9605Y392285D01*
D16*
X68580Y280670D02*
X78740Y280670D01*
D14*
X74248Y250550D02*
X73146Y249449D01*
X73146Y247245D01*
X74248Y246144D01*
X78654Y246144D01*
X79756Y247245D01*
X79756Y249449D01*
X78654Y250550D01*
X75350Y253628D02*
X73146Y255831D01*
X79756Y255831D01*
X79756Y253628D02*
X79756Y258034D01*
D16*
X102870Y270510D02*
X102870Y280670D01*
D14*
X68344Y276104D02*
X68344Y269494D01*
X68344Y276104D02*
X71649Y276104D01*
X72750Y275002D01*
X72750Y272799D01*
X71649Y271697D01*
X68344Y271697D01*
X70547Y271697D02*
X72750Y269494D01*
X75828Y275002D02*
X76929Y276104D01*
X79133Y276104D01*
X80234Y275002D01*
X80234Y273900D01*
X79133Y272799D01*
X78031Y272799D01*
X79133Y272799D02*
X80234Y271697D01*
X80234Y270596D01*
X79133Y269494D01*
X76929Y269494D01*
X75828Y270596D01*
D10*
X52910Y271000D02*
X52910Y279000D01*
X52910Y237000D02*
X52910Y229000D01*
X7910Y292000D02*
X-1090Y292000D01*
X-1090Y216000D01*
X7910Y216000D01*
D14*
X-15854Y267574D02*
X-9244Y271980D01*
X-9244Y267574D02*
X-15854Y271980D01*
X-9244Y275058D02*
X-9244Y279464D01*
X-9244Y275058D02*
X-13650Y279464D01*
X-14752Y279464D01*
X-15854Y278363D01*
X-15854Y276159D01*
X-14752Y275058D01*
D13*
X86950Y491504D02*
X128950Y491504D01*
X128950Y460996D02*
X86950Y460996D01*
D14*
X92798Y500300D02*
X91697Y501402D01*
X89494Y501402D01*
X88392Y500300D01*
X88392Y499198D01*
X89494Y498097D01*
X91697Y498097D01*
X92798Y496995D01*
X92798Y495894D01*
X91697Y494792D01*
X89494Y494792D01*
X88392Y495894D01*
X95876Y494792D02*
X95876Y501402D01*
X98079Y496995D02*
X95876Y494792D01*
X98079Y496995D02*
X100283Y494792D01*
X100283Y501402D01*
X103360Y499198D02*
X105564Y501402D01*
X105564Y494792D01*
X107767Y494792D02*
X103360Y494792D01*
D13*
X99220Y454040D02*
X116680Y454040D01*
X116680Y440040D02*
X99220Y440040D01*
X104950Y447040D02*
X110950Y451040D01*
X110950Y443040D01*
X104950Y447040D01*
D17*
X103950Y447040D03*
D14*
X96012Y457962D02*
X96012Y464572D01*
X96012Y457962D02*
X99317Y457962D01*
X100418Y459064D01*
X100418Y463470D01*
X99317Y464572D01*
X96012Y464572D01*
X103496Y462368D02*
X105699Y464572D01*
X105699Y457962D01*
X103496Y457962D02*
X107903Y457962D01*
D16*
X116680Y426870D02*
X116680Y416710D01*
D14*
X141067Y427892D02*
X142168Y426790D01*
X141067Y427892D02*
X138864Y427892D01*
X137762Y426790D01*
X137762Y422384D01*
X138864Y421282D01*
X141067Y421282D01*
X142168Y422384D01*
X145246Y427892D02*
X149653Y427892D01*
X145246Y427892D02*
X145246Y424587D01*
X147449Y425688D01*
X148551Y425688D01*
X149653Y424587D01*
X149653Y422384D01*
X148551Y421282D01*
X146348Y421282D01*
X145246Y422384D01*
D16*
X117640Y405920D02*
X117640Y395760D01*
D14*
X142027Y406942D02*
X143128Y405840D01*
X142027Y406942D02*
X139824Y406942D01*
X138722Y405840D01*
X138722Y401434D01*
X139824Y400332D01*
X142027Y400332D01*
X143128Y401434D01*
X148409Y405840D02*
X150613Y406942D01*
X148409Y405840D02*
X146206Y403637D01*
X146206Y401434D01*
X147308Y400332D01*
X149511Y400332D01*
X150613Y401434D01*
X150613Y402535D01*
X149511Y403637D01*
X146206Y403637D01*
X111078Y326750D02*
X109976Y325649D01*
X109976Y323445D01*
X111078Y322344D01*
X115484Y322344D01*
X116586Y323445D01*
X116586Y325649D01*
X115484Y326750D01*
X109976Y329828D02*
X109976Y334234D01*
X111078Y334234D01*
X115484Y329828D01*
X116586Y329828D01*
D13*
X383110Y112450D02*
X383110Y103450D01*
X361110Y103450D02*
X361110Y112450D01*
X386110Y111450D02*
X386112Y111513D01*
X386118Y111575D01*
X386128Y111637D01*
X386141Y111699D01*
X386159Y111759D01*
X386180Y111818D01*
X386205Y111876D01*
X386234Y111932D01*
X386266Y111986D01*
X386301Y112038D01*
X386339Y112087D01*
X386381Y112135D01*
X386425Y112179D01*
X386473Y112221D01*
X386522Y112259D01*
X386574Y112294D01*
X386628Y112326D01*
X386684Y112355D01*
X386742Y112380D01*
X386801Y112401D01*
X386861Y112419D01*
X386923Y112432D01*
X386985Y112442D01*
X387047Y112448D01*
X387110Y112450D01*
X387173Y112448D01*
X387235Y112442D01*
X387297Y112432D01*
X387359Y112419D01*
X387419Y112401D01*
X387478Y112380D01*
X387536Y112355D01*
X387592Y112326D01*
X387646Y112294D01*
X387698Y112259D01*
X387747Y112221D01*
X387795Y112179D01*
X387839Y112135D01*
X387881Y112087D01*
X387919Y112038D01*
X387954Y111986D01*
X387986Y111932D01*
X388015Y111876D01*
X388040Y111818D01*
X388061Y111759D01*
X388079Y111699D01*
X388092Y111637D01*
X388102Y111575D01*
X388108Y111513D01*
X388110Y111450D01*
X388108Y111387D01*
X388102Y111325D01*
X388092Y111263D01*
X388079Y111201D01*
X388061Y111141D01*
X388040Y111082D01*
X388015Y111024D01*
X387986Y110968D01*
X387954Y110914D01*
X387919Y110862D01*
X387881Y110813D01*
X387839Y110765D01*
X387795Y110721D01*
X387747Y110679D01*
X387698Y110641D01*
X387646Y110606D01*
X387592Y110574D01*
X387536Y110545D01*
X387478Y110520D01*
X387419Y110499D01*
X387359Y110481D01*
X387297Y110468D01*
X387235Y110458D01*
X387173Y110452D01*
X387110Y110450D01*
X387047Y110452D01*
X386985Y110458D01*
X386923Y110468D01*
X386861Y110481D01*
X386801Y110499D01*
X386742Y110520D01*
X386684Y110545D01*
X386628Y110574D01*
X386574Y110606D01*
X386522Y110641D01*
X386473Y110679D01*
X386425Y110721D01*
X386381Y110765D01*
X386339Y110813D01*
X386301Y110862D01*
X386266Y110914D01*
X386234Y110968D01*
X386205Y111024D01*
X386180Y111082D01*
X386159Y111141D01*
X386141Y111201D01*
X386128Y111263D01*
X386118Y111325D01*
X386112Y111387D01*
X386110Y111450D01*
D14*
X341394Y105924D02*
X341394Y99314D01*
X344699Y99314D01*
X345800Y100416D01*
X345800Y104822D01*
X344699Y105924D01*
X341394Y105924D01*
X348878Y99314D02*
X353284Y99314D01*
X348878Y99314D02*
X353284Y103720D01*
X353284Y104822D01*
X352183Y105924D01*
X349979Y105924D01*
X348878Y104822D01*
D16*
X346710Y467360D02*
X356870Y467360D01*
D14*
X345688Y491747D02*
X346790Y492848D01*
X345688Y491747D02*
X345688Y489544D01*
X346790Y488442D01*
X351196Y488442D01*
X352298Y489544D01*
X352298Y491747D01*
X351196Y492848D01*
X351196Y495926D02*
X352298Y497028D01*
X352298Y499231D01*
X351196Y500333D01*
X346790Y500333D01*
X345688Y499231D01*
X345688Y497028D01*
X346790Y495926D01*
X347892Y495926D01*
X348993Y497028D01*
X348993Y500333D01*
D18*
X335280Y478608D03*
D14*
X324358Y459232D02*
X317748Y459232D01*
X317748Y462537D01*
X318850Y463638D01*
X321053Y463638D01*
X322155Y462537D01*
X322155Y459232D01*
X324358Y466716D02*
X317748Y466716D01*
X322155Y468919D02*
X324358Y466716D01*
X322155Y468919D02*
X324358Y471123D01*
X317748Y471123D01*
X317748Y474200D02*
X324358Y474200D01*
X317748Y474200D02*
X317748Y477505D01*
X318850Y478607D01*
X321053Y478607D01*
X322155Y477505D01*
X322155Y474200D01*
X322155Y476404D02*
X324358Y478607D01*
X317748Y484989D02*
X318850Y486091D01*
X317748Y484989D02*
X317748Y482786D01*
X318850Y481684D01*
X319952Y481684D01*
X321053Y482786D01*
X321053Y484989D01*
X322155Y486091D01*
X323256Y486091D01*
X324358Y484989D01*
X324358Y482786D01*
X323256Y481684D01*
X324358Y491372D02*
X317748Y491372D01*
X317748Y489169D02*
X317748Y493575D01*
X319952Y496653D02*
X324358Y496653D01*
X319952Y496653D02*
X317748Y498856D01*
X319952Y501059D01*
X324358Y501059D01*
X321053Y501059D02*
X321053Y496653D01*
X324358Y506340D02*
X317748Y506340D01*
X317748Y504137D02*
X317748Y508543D01*
D18*
X294640Y478608D03*
D14*
X283718Y459232D02*
X277108Y459232D01*
X283718Y463638D01*
X277108Y463638D01*
X277108Y466716D02*
X277108Y471123D01*
X277108Y466716D02*
X283718Y466716D01*
X283718Y471123D01*
X280413Y468919D02*
X280413Y466716D01*
X283718Y476404D02*
X277108Y476404D01*
X277108Y478607D02*
X277108Y474200D01*
X277108Y484989D02*
X278210Y486091D01*
X277108Y484989D02*
X277108Y482786D01*
X278210Y481684D01*
X279312Y481684D01*
X280413Y482786D01*
X280413Y484989D01*
X281515Y486091D01*
X282616Y486091D01*
X283718Y484989D01*
X283718Y482786D01*
X282616Y481684D01*
X283718Y491372D02*
X277108Y491372D01*
X277108Y489169D02*
X277108Y493575D01*
X279312Y496653D02*
X283718Y496653D01*
X279312Y496653D02*
X277108Y498856D01*
X279312Y501059D01*
X283718Y501059D01*
X280413Y501059D02*
X280413Y496653D01*
X283718Y506340D02*
X277108Y506340D01*
X277108Y504137D02*
X277108Y508543D01*
D16*
X309880Y466090D02*
X320040Y466090D01*
D14*
X321056Y431564D02*
X314446Y431564D01*
X314446Y434869D01*
X315548Y435970D01*
X317751Y435970D01*
X318853Y434869D01*
X318853Y431564D01*
X318853Y433767D02*
X321056Y435970D01*
X321056Y442353D02*
X314446Y442353D01*
X317751Y439048D01*
X317751Y443454D01*
D16*
X283210Y466090D02*
X273050Y466090D01*
D14*
X277616Y431564D02*
X284226Y431564D01*
X277616Y431564D02*
X277616Y434869D01*
X278718Y435970D01*
X280921Y435970D01*
X282023Y434869D01*
X282023Y431564D01*
X282023Y433767D02*
X284226Y435970D01*
X277616Y439048D02*
X277616Y443454D01*
X277616Y439048D02*
X280921Y439048D01*
X279820Y441251D01*
X279820Y442353D01*
X280921Y443454D01*
X283124Y443454D01*
X284226Y442353D01*
X284226Y440149D01*
X283124Y439048D01*
D13*
X411800Y469900D02*
X411806Y470391D01*
X411824Y470881D01*
X411854Y471371D01*
X411896Y471860D01*
X411950Y472348D01*
X412016Y472835D01*
X412094Y473319D01*
X412184Y473802D01*
X412286Y474282D01*
X412399Y474760D01*
X412524Y475234D01*
X412661Y475706D01*
X412809Y476174D01*
X412969Y476638D01*
X413140Y477098D01*
X413322Y477554D01*
X413516Y478005D01*
X413720Y478451D01*
X413936Y478892D01*
X414162Y479328D01*
X414398Y479758D01*
X414645Y480182D01*
X414903Y480600D01*
X415171Y481011D01*
X415448Y481416D01*
X415736Y481814D01*
X416033Y482205D01*
X416340Y482588D01*
X416656Y482963D01*
X416981Y483331D01*
X417315Y483691D01*
X417658Y484042D01*
X418009Y484385D01*
X418369Y484719D01*
X418737Y485044D01*
X419112Y485360D01*
X419495Y485667D01*
X419886Y485964D01*
X420284Y486252D01*
X420689Y486529D01*
X421100Y486797D01*
X421518Y487055D01*
X421942Y487302D01*
X422372Y487538D01*
X422808Y487764D01*
X423249Y487980D01*
X423695Y488184D01*
X424146Y488378D01*
X424602Y488560D01*
X425062Y488731D01*
X425526Y488891D01*
X425994Y489039D01*
X426466Y489176D01*
X426940Y489301D01*
X427418Y489414D01*
X427898Y489516D01*
X428381Y489606D01*
X428865Y489684D01*
X429352Y489750D01*
X429840Y489804D01*
X430329Y489846D01*
X430819Y489876D01*
X431309Y489894D01*
X431800Y489900D01*
X432291Y489894D01*
X432781Y489876D01*
X433271Y489846D01*
X433760Y489804D01*
X434248Y489750D01*
X434735Y489684D01*
X435219Y489606D01*
X435702Y489516D01*
X436182Y489414D01*
X436660Y489301D01*
X437134Y489176D01*
X437606Y489039D01*
X438074Y488891D01*
X438538Y488731D01*
X438998Y488560D01*
X439454Y488378D01*
X439905Y488184D01*
X440351Y487980D01*
X440792Y487764D01*
X441228Y487538D01*
X441658Y487302D01*
X442082Y487055D01*
X442500Y486797D01*
X442911Y486529D01*
X443316Y486252D01*
X443714Y485964D01*
X444105Y485667D01*
X444488Y485360D01*
X444863Y485044D01*
X445231Y484719D01*
X445591Y484385D01*
X445942Y484042D01*
X446285Y483691D01*
X446619Y483331D01*
X446944Y482963D01*
X447260Y482588D01*
X447567Y482205D01*
X447864Y481814D01*
X448152Y481416D01*
X448429Y481011D01*
X448697Y480600D01*
X448955Y480182D01*
X449202Y479758D01*
X449438Y479328D01*
X449664Y478892D01*
X449880Y478451D01*
X450084Y478005D01*
X450278Y477554D01*
X450460Y477098D01*
X450631Y476638D01*
X450791Y476174D01*
X450939Y475706D01*
X451076Y475234D01*
X451201Y474760D01*
X451314Y474282D01*
X451416Y473802D01*
X451506Y473319D01*
X451584Y472835D01*
X451650Y472348D01*
X451704Y471860D01*
X451746Y471371D01*
X451776Y470881D01*
X451794Y470391D01*
X451800Y469900D01*
X451794Y469409D01*
X451776Y468919D01*
X451746Y468429D01*
X451704Y467940D01*
X451650Y467452D01*
X451584Y466965D01*
X451506Y466481D01*
X451416Y465998D01*
X451314Y465518D01*
X451201Y465040D01*
X451076Y464566D01*
X450939Y464094D01*
X450791Y463626D01*
X450631Y463162D01*
X450460Y462702D01*
X450278Y462246D01*
X450084Y461795D01*
X449880Y461349D01*
X449664Y460908D01*
X449438Y460472D01*
X449202Y460042D01*
X448955Y459618D01*
X448697Y459200D01*
X448429Y458789D01*
X448152Y458384D01*
X447864Y457986D01*
X447567Y457595D01*
X447260Y457212D01*
X446944Y456837D01*
X446619Y456469D01*
X446285Y456109D01*
X445942Y455758D01*
X445591Y455415D01*
X445231Y455081D01*
X444863Y454756D01*
X444488Y454440D01*
X444105Y454133D01*
X443714Y453836D01*
X443316Y453548D01*
X442911Y453271D01*
X442500Y453003D01*
X442082Y452745D01*
X441658Y452498D01*
X441228Y452262D01*
X440792Y452036D01*
X440351Y451820D01*
X439905Y451616D01*
X439454Y451422D01*
X438998Y451240D01*
X438538Y451069D01*
X438074Y450909D01*
X437606Y450761D01*
X437134Y450624D01*
X436660Y450499D01*
X436182Y450386D01*
X435702Y450284D01*
X435219Y450194D01*
X434735Y450116D01*
X434248Y450050D01*
X433760Y449996D01*
X433271Y449954D01*
X432781Y449924D01*
X432291Y449906D01*
X431800Y449900D01*
X431309Y449906D01*
X430819Y449924D01*
X430329Y449954D01*
X429840Y449996D01*
X429352Y450050D01*
X428865Y450116D01*
X428381Y450194D01*
X427898Y450284D01*
X427418Y450386D01*
X426940Y450499D01*
X426466Y450624D01*
X425994Y450761D01*
X425526Y450909D01*
X425062Y451069D01*
X424602Y451240D01*
X424146Y451422D01*
X423695Y451616D01*
X423249Y451820D01*
X422808Y452036D01*
X422372Y452262D01*
X421942Y452498D01*
X421518Y452745D01*
X421100Y453003D01*
X420689Y453271D01*
X420284Y453548D01*
X419886Y453836D01*
X419495Y454133D01*
X419112Y454440D01*
X418737Y454756D01*
X418369Y455081D01*
X418009Y455415D01*
X417658Y455758D01*
X417315Y456109D01*
X416981Y456469D01*
X416656Y456837D01*
X416340Y457212D01*
X416033Y457595D01*
X415736Y457986D01*
X415448Y458384D01*
X415171Y458789D01*
X414903Y459200D01*
X414645Y459618D01*
X414398Y460042D01*
X414162Y460472D01*
X413936Y460908D01*
X413720Y461349D01*
X413516Y461795D01*
X413322Y462246D01*
X413140Y462702D01*
X412969Y463162D01*
X412809Y463626D01*
X412661Y464094D01*
X412524Y464566D01*
X412399Y465040D01*
X412286Y465518D01*
X412184Y465998D01*
X412094Y466481D01*
X412016Y466965D01*
X411950Y467452D01*
X411896Y467940D01*
X411854Y468429D01*
X411824Y468919D01*
X411806Y469409D01*
X411800Y469900D01*
X5400Y469900D02*
X5406Y470391D01*
X5424Y470881D01*
X5454Y471371D01*
X5496Y471860D01*
X5550Y472348D01*
X5616Y472835D01*
X5694Y473319D01*
X5784Y473802D01*
X5886Y474282D01*
X5999Y474760D01*
X6124Y475234D01*
X6261Y475706D01*
X6409Y476174D01*
X6569Y476638D01*
X6740Y477098D01*
X6922Y477554D01*
X7116Y478005D01*
X7320Y478451D01*
X7536Y478892D01*
X7762Y479328D01*
X7998Y479758D01*
X8245Y480182D01*
X8503Y480600D01*
X8771Y481011D01*
X9048Y481416D01*
X9336Y481814D01*
X9633Y482205D01*
X9940Y482588D01*
X10256Y482963D01*
X10581Y483331D01*
X10915Y483691D01*
X11258Y484042D01*
X11609Y484385D01*
X11969Y484719D01*
X12337Y485044D01*
X12712Y485360D01*
X13095Y485667D01*
X13486Y485964D01*
X13884Y486252D01*
X14289Y486529D01*
X14700Y486797D01*
X15118Y487055D01*
X15542Y487302D01*
X15972Y487538D01*
X16408Y487764D01*
X16849Y487980D01*
X17295Y488184D01*
X17746Y488378D01*
X18202Y488560D01*
X18662Y488731D01*
X19126Y488891D01*
X19594Y489039D01*
X20066Y489176D01*
X20540Y489301D01*
X21018Y489414D01*
X21498Y489516D01*
X21981Y489606D01*
X22465Y489684D01*
X22952Y489750D01*
X23440Y489804D01*
X23929Y489846D01*
X24419Y489876D01*
X24909Y489894D01*
X25400Y489900D01*
X25891Y489894D01*
X26381Y489876D01*
X26871Y489846D01*
X27360Y489804D01*
X27848Y489750D01*
X28335Y489684D01*
X28819Y489606D01*
X29302Y489516D01*
X29782Y489414D01*
X30260Y489301D01*
X30734Y489176D01*
X31206Y489039D01*
X31674Y488891D01*
X32138Y488731D01*
X32598Y488560D01*
X33054Y488378D01*
X33505Y488184D01*
X33951Y487980D01*
X34392Y487764D01*
X34828Y487538D01*
X35258Y487302D01*
X35682Y487055D01*
X36100Y486797D01*
X36511Y486529D01*
X36916Y486252D01*
X37314Y485964D01*
X37705Y485667D01*
X38088Y485360D01*
X38463Y485044D01*
X38831Y484719D01*
X39191Y484385D01*
X39542Y484042D01*
X39885Y483691D01*
X40219Y483331D01*
X40544Y482963D01*
X40860Y482588D01*
X41167Y482205D01*
X41464Y481814D01*
X41752Y481416D01*
X42029Y481011D01*
X42297Y480600D01*
X42555Y480182D01*
X42802Y479758D01*
X43038Y479328D01*
X43264Y478892D01*
X43480Y478451D01*
X43684Y478005D01*
X43878Y477554D01*
X44060Y477098D01*
X44231Y476638D01*
X44391Y476174D01*
X44539Y475706D01*
X44676Y475234D01*
X44801Y474760D01*
X44914Y474282D01*
X45016Y473802D01*
X45106Y473319D01*
X45184Y472835D01*
X45250Y472348D01*
X45304Y471860D01*
X45346Y471371D01*
X45376Y470881D01*
X45394Y470391D01*
X45400Y469900D01*
X45394Y469409D01*
X45376Y468919D01*
X45346Y468429D01*
X45304Y467940D01*
X45250Y467452D01*
X45184Y466965D01*
X45106Y466481D01*
X45016Y465998D01*
X44914Y465518D01*
X44801Y465040D01*
X44676Y464566D01*
X44539Y464094D01*
X44391Y463626D01*
X44231Y463162D01*
X44060Y462702D01*
X43878Y462246D01*
X43684Y461795D01*
X43480Y461349D01*
X43264Y460908D01*
X43038Y460472D01*
X42802Y460042D01*
X42555Y459618D01*
X42297Y459200D01*
X42029Y458789D01*
X41752Y458384D01*
X41464Y457986D01*
X41167Y457595D01*
X40860Y457212D01*
X40544Y456837D01*
X40219Y456469D01*
X39885Y456109D01*
X39542Y455758D01*
X39191Y455415D01*
X38831Y455081D01*
X38463Y454756D01*
X38088Y454440D01*
X37705Y454133D01*
X37314Y453836D01*
X36916Y453548D01*
X36511Y453271D01*
X36100Y453003D01*
X35682Y452745D01*
X35258Y452498D01*
X34828Y452262D01*
X34392Y452036D01*
X33951Y451820D01*
X33505Y451616D01*
X33054Y451422D01*
X32598Y451240D01*
X32138Y451069D01*
X31674Y450909D01*
X31206Y450761D01*
X30734Y450624D01*
X30260Y450499D01*
X29782Y450386D01*
X29302Y450284D01*
X28819Y450194D01*
X28335Y450116D01*
X27848Y450050D01*
X27360Y449996D01*
X26871Y449954D01*
X26381Y449924D01*
X25891Y449906D01*
X25400Y449900D01*
X24909Y449906D01*
X24419Y449924D01*
X23929Y449954D01*
X23440Y449996D01*
X22952Y450050D01*
X22465Y450116D01*
X21981Y450194D01*
X21498Y450284D01*
X21018Y450386D01*
X20540Y450499D01*
X20066Y450624D01*
X19594Y450761D01*
X19126Y450909D01*
X18662Y451069D01*
X18202Y451240D01*
X17746Y451422D01*
X17295Y451616D01*
X16849Y451820D01*
X16408Y452036D01*
X15972Y452262D01*
X15542Y452498D01*
X15118Y452745D01*
X14700Y453003D01*
X14289Y453271D01*
X13884Y453548D01*
X13486Y453836D01*
X13095Y454133D01*
X12712Y454440D01*
X12337Y454756D01*
X11969Y455081D01*
X11609Y455415D01*
X11258Y455758D01*
X10915Y456109D01*
X10581Y456469D01*
X10256Y456837D01*
X9940Y457212D01*
X9633Y457595D01*
X9336Y457986D01*
X9048Y458384D01*
X8771Y458789D01*
X8503Y459200D01*
X8245Y459618D01*
X7998Y460042D01*
X7762Y460472D01*
X7536Y460908D01*
X7320Y461349D01*
X7116Y461795D01*
X6922Y462246D01*
X6740Y462702D01*
X6569Y463162D01*
X6409Y463626D01*
X6261Y464094D01*
X6124Y464566D01*
X5999Y465040D01*
X5886Y465518D01*
X5784Y465998D01*
X5694Y466481D01*
X5616Y466965D01*
X5550Y467452D01*
X5496Y467940D01*
X5454Y468429D01*
X5424Y468919D01*
X5406Y469409D01*
X5400Y469900D01*
X132700Y79850D02*
X132700Y59850D01*
X146700Y59850D02*
X146700Y79850D01*
X135700Y73350D02*
X139700Y67350D01*
X135700Y73350D02*
X143700Y73350D01*
X139700Y67350D01*
D19*
X139700Y66350D03*
D14*
X128938Y59612D02*
X122328Y59612D01*
X128938Y59612D02*
X128938Y62917D01*
X127836Y64018D01*
X123430Y64018D01*
X122328Y62917D01*
X122328Y59612D01*
X122328Y70401D02*
X128938Y70401D01*
X125633Y67096D02*
X122328Y70401D01*
X125633Y71503D02*
X125633Y67096D01*
D13*
X153020Y67470D02*
X153020Y87470D01*
X167020Y87470D02*
X167020Y67470D01*
X160020Y74970D02*
X156020Y80970D01*
X164020Y80970D01*
X160020Y74970D01*
D19*
X160020Y73970D03*
D14*
X149258Y67232D02*
X142648Y67232D01*
X149258Y67232D02*
X149258Y70537D01*
X148156Y71638D01*
X143750Y71638D01*
X142648Y70537D01*
X142648Y67232D01*
X142648Y74716D02*
X142648Y79123D01*
X142648Y74716D02*
X145953Y74716D01*
X144852Y76919D01*
X144852Y78021D01*
X145953Y79123D01*
X148156Y79123D01*
X149258Y78021D01*
X149258Y75818D01*
X148156Y74716D01*
D13*
X270140Y59780D02*
X319140Y59780D01*
X270140Y59780D02*
X270140Y102780D01*
X319140Y102780D01*
X319140Y59780D01*
D20*
X310890Y94280D03*
D11*
X336082Y83752D02*
X336082Y79854D01*
X336082Y81803D02*
X324388Y81803D01*
X324388Y79854D02*
X324388Y83752D01*
X324388Y93497D02*
X326337Y95446D01*
X324388Y93497D02*
X324388Y89599D01*
X326337Y87650D01*
X334133Y87650D01*
X336082Y89599D01*
X336082Y93497D01*
X334133Y95446D01*
X328286Y99344D02*
X324388Y103242D01*
X336082Y103242D01*
X336082Y99344D02*
X336082Y107140D01*
D21*
X131692Y442849D02*
X135886Y448442D01*
X140081Y442849D01*
X140081Y452204D02*
X131692Y452204D01*
X140081Y452204D02*
X140081Y457797D01*
X140081Y461559D02*
X134488Y461559D01*
X131692Y464356D01*
X134488Y467152D01*
X140081Y467152D01*
X135886Y467152D02*
X135886Y461559D01*
X140081Y470915D02*
X131692Y470915D01*
X131692Y475109D01*
X133090Y476507D01*
X134488Y476507D01*
X135886Y475109D01*
X137285Y476507D01*
X138683Y476507D01*
X140081Y475109D01*
X140081Y470915D01*
X135886Y470915D02*
X135886Y475109D01*
X131692Y480270D02*
X131692Y485863D01*
X131692Y480270D02*
X140081Y480270D01*
X140081Y485863D01*
X135886Y483066D02*
X135886Y480270D01*
X131692Y489625D02*
X140081Y489625D01*
X140081Y495218D01*
X265042Y442849D02*
X273431Y448442D01*
X273431Y442849D02*
X265042Y448442D01*
X267838Y452204D02*
X265042Y455001D01*
X273431Y455001D01*
X273431Y457797D02*
X273431Y452204D01*
D13*
X34590Y194990D02*
X34590Y180990D01*
X34590Y194990D02*
X8590Y194990D01*
X8590Y152990D02*
X34590Y152990D01*
X34590Y166990D01*
X8590Y180990D02*
X8590Y194990D01*
X8590Y166990D02*
X8590Y152990D01*
X35590Y180990D02*
X35590Y193990D01*
X35590Y166990D02*
X35590Y153990D01*
X36590Y180990D02*
X36590Y194990D01*
X36590Y166990D02*
X36590Y152990D01*
X36590Y194990D02*
X34590Y194990D01*
X34590Y180990D02*
X36590Y180990D01*
X36590Y166990D02*
X34590Y166990D01*
X34590Y152990D02*
X36590Y152990D01*
D21*
X15372Y200279D02*
X9779Y208668D01*
X15372Y208668D02*
X9779Y200279D01*
X19134Y207270D02*
X20532Y208668D01*
X23329Y208668D01*
X24727Y207270D01*
X24727Y205872D01*
X23329Y204474D01*
X21931Y204474D01*
X23329Y204474D02*
X24727Y203075D01*
X24727Y201677D01*
X23329Y200279D01*
X20532Y200279D01*
X19134Y201677D01*
D22*
X90170Y253289D03*
D23*
X90132Y253289D03*
D24*
X90094Y253270D03*
D25*
X90056Y253270D03*
D26*
X90018Y253289D03*
D27*
X89980Y253270D03*
D28*
X89941Y253270D03*
D29*
X89903Y253270D03*
D30*
X89865Y253270D03*
D31*
X89827Y253232D03*
D32*
X89789Y253232D03*
D33*
X89751Y253213D03*
D34*
X89713Y253194D03*
D35*
X89675Y253194D03*
D36*
X89637Y253156D03*
D37*
X89599Y253137D03*
D38*
X89560Y253137D03*
D39*
X89522Y253099D03*
D40*
X89484Y253079D03*
D41*
X89446Y253041D03*
D42*
X89408Y253022D03*
D43*
X89370Y253022D03*
D44*
X89332Y252984D03*
D45*
X89294Y252965D03*
D46*
X89256Y252946D03*
D47*
X89218Y252908D03*
D48*
X89179Y252889D03*
D49*
X89141Y252870D03*
D50*
X89103Y252832D03*
D51*
X89065Y252813D03*
D52*
X89027Y252775D03*
D53*
X88989Y252756D03*
D54*
X88951Y252737D03*
D55*
X88913Y252698D03*
D56*
X88875Y252679D03*
D57*
X88837Y252660D03*
D58*
X88798Y252622D03*
D59*
X88760Y252603D03*
D60*
X88722Y252584D03*
D61*
X88684Y252546D03*
D62*
X88646Y252527D03*
D63*
X88608Y252489D03*
D64*
X88570Y252470D03*
D65*
X88532Y252451D03*
D66*
X88494Y252413D03*
D67*
X88456Y252394D03*
D68*
X88417Y252375D03*
D69*
X88379Y252336D03*
D70*
X88341Y252317D03*
D71*
X88303Y252298D03*
D72*
X88265Y252260D03*
D73*
X88227Y252241D03*
D74*
X88189Y252203D03*
D75*
X88151Y252184D03*
D76*
X88113Y252165D03*
D77*
X88075Y252127D03*
D78*
X88036Y252108D03*
D79*
X87998Y252089D03*
D80*
X87960Y239326D03*
D81*
X87960Y252051D03*
D82*
X87922Y239344D03*
D83*
X87922Y252032D03*
D84*
X87884Y239383D03*
D85*
X87884Y251994D03*
D86*
X87846Y239421D03*
D87*
X87846Y251975D03*
D28*
X87808Y239440D03*
D88*
X87808Y251955D03*
D89*
X87770Y239478D03*
D90*
X87770Y251917D03*
D32*
X87732Y239516D03*
D91*
X87732Y251898D03*
D92*
X87694Y239554D03*
D93*
X87694Y251879D03*
D36*
X87655Y239592D03*
D94*
X87655Y251841D03*
D95*
X87617Y239630D03*
D96*
X87617Y251822D03*
D97*
X87579Y239687D03*
D98*
X87579Y251803D03*
D43*
X87541Y239725D03*
D99*
X87541Y251765D03*
D100*
X87503Y239764D03*
D101*
X87503Y251746D03*
D48*
X87465Y239821D03*
D102*
X87465Y251708D03*
D51*
X87427Y239859D03*
D103*
X87427Y251689D03*
D53*
X87389Y239916D03*
D104*
X87389Y251670D03*
D55*
X87351Y239973D03*
D105*
X87351Y251632D03*
D106*
X87313Y240030D03*
D107*
X87313Y251613D03*
D108*
X87274Y240068D03*
D109*
X87274Y251594D03*
D110*
X87236Y240126D03*
D111*
X87236Y251555D03*
D65*
X87198Y240183D03*
D112*
X87198Y251536D03*
D113*
X87160Y240240D03*
D114*
X87160Y251517D03*
D69*
X87122Y240297D03*
D115*
X87122Y251498D03*
D116*
X87084Y240354D03*
D117*
X87084Y251460D03*
D118*
X87046Y240411D03*
D119*
X87046Y251441D03*
D76*
X87008Y240468D03*
D120*
X87008Y251422D03*
D78*
X86970Y240526D03*
D121*
X86970Y251403D03*
D122*
X86932Y240602D03*
D123*
X86932Y251384D03*
D124*
X86893Y240659D03*
D125*
X86893Y251365D03*
D88*
X86855Y240716D03*
D126*
X86855Y251346D03*
D127*
X86817Y240792D03*
D128*
X86817Y251327D03*
D96*
X86779Y240849D03*
D129*
X86779Y251308D03*
D130*
X86741Y240926D03*
D131*
X86741Y251289D03*
D132*
X86703Y240983D03*
D133*
X86703Y251270D03*
D104*
X86665Y241040D03*
D134*
X86665Y251251D03*
D135*
X86627Y241116D03*
D136*
X86627Y251232D03*
D137*
X86589Y241173D03*
D138*
X86589Y251213D03*
D139*
X86551Y241230D03*
D140*
X86551Y251193D03*
D141*
X86512Y241306D03*
D142*
X86512Y251174D03*
D143*
X86474Y241364D03*
D144*
X86474Y251155D03*
D145*
X86436Y241402D03*
D144*
X86436Y251155D03*
D128*
X86398Y241459D03*
D146*
X86398Y251136D03*
D129*
X86360Y241516D03*
D147*
X86360Y251117D03*
D148*
X86322Y241554D03*
D149*
X86322Y251098D03*
D150*
X86284Y241611D03*
D151*
X86284Y251079D03*
D152*
X86246Y241668D03*
D151*
X86246Y251079D03*
D144*
X86208Y241706D03*
D153*
X86208Y251060D03*
D154*
X86170Y241745D03*
D155*
X86170Y251041D03*
D147*
X86131Y241783D03*
D156*
X86131Y251022D03*
D151*
X86093Y241821D03*
D156*
X86093Y251022D03*
D157*
X86055Y241859D03*
D158*
X86055Y251003D03*
D156*
X86017Y241916D03*
D159*
X86017Y250984D03*
D160*
X85979Y241935D03*
D161*
X85979Y250965D03*
X85941Y241974D03*
X85941Y250965D03*
D162*
X85903Y242031D03*
X85903Y250946D03*
D163*
X85865Y242050D03*
X85865Y250927D03*
D164*
X85827Y242088D03*
D163*
X85827Y250927D03*
D165*
X85789Y242126D03*
D166*
X85789Y250908D03*
D167*
X85750Y242145D03*
D168*
X85750Y250908D03*
D169*
X85712Y242183D03*
D164*
X85712Y250889D03*
D170*
X85674Y242221D03*
D167*
X85674Y250870D03*
D171*
X85636Y242240D03*
D167*
X85636Y250870D03*
D172*
X85598Y242278D03*
D173*
X85598Y250851D03*
D172*
X85560Y242316D03*
D173*
X85560Y250851D03*
D174*
X85522Y242335D03*
D169*
X85522Y250832D03*
D175*
X85484Y242354D03*
D169*
X85484Y250832D03*
D175*
X85446Y242392D03*
D171*
X85446Y250812D03*
D176*
X85408Y242411D03*
D177*
X85408Y250812D03*
D178*
X85369Y242430D03*
D179*
X85369Y250793D03*
D180*
X85331Y242469D03*
D179*
X85331Y250793D03*
D181*
X85293Y242488D03*
D179*
X85293Y250793D03*
D182*
X85255Y242507D03*
D172*
X85255Y250774D03*
D182*
X85217Y242545D03*
D172*
X85217Y250774D03*
D183*
X85179Y242564D03*
D174*
X85179Y250755D03*
D184*
X85141Y242583D03*
D174*
X85141Y250755D03*
D184*
X85103Y242621D03*
D174*
X85103Y250755D03*
D185*
X85065Y242640D03*
D175*
X85065Y250736D03*
D186*
X85027Y242659D03*
D187*
X85027Y250736D03*
D188*
X84988Y242697D03*
D189*
X84988Y250717D03*
D190*
X84950Y242717D03*
D189*
X84950Y250717D03*
D190*
X84912Y242717D03*
D189*
X84912Y250717D03*
D190*
X84874Y242755D03*
D189*
X84874Y250717D03*
D191*
X84836Y242774D03*
D178*
X84836Y250698D03*
D192*
X84798Y242793D03*
D178*
X84798Y250698D03*
D191*
X84760Y242812D03*
D178*
X84760Y250698D03*
D192*
X84722Y242831D03*
D193*
X84722Y250679D03*
D194*
X84684Y242850D03*
D193*
X84684Y250679D03*
D195*
X84646Y242869D03*
D196*
X84646Y250679D03*
D194*
X84607Y242888D03*
D193*
X84607Y250679D03*
D194*
X84569Y242888D03*
D197*
X84569Y250660D03*
D194*
X84531Y242926D03*
D193*
X84531Y250641D03*
D198*
X84493Y242945D03*
D193*
X84493Y250641D03*
D198*
X84455Y242945D03*
D193*
X84455Y250641D03*
D198*
X84417Y242983D03*
D193*
X84417Y250641D03*
D198*
X84379Y242983D03*
D193*
X84379Y250641D03*
D199*
X84341Y243002D03*
D197*
X84341Y250622D03*
D200*
X84303Y243021D03*
D197*
X84303Y250622D03*
D201*
X84265Y243040D03*
D202*
X84265Y250622D03*
D199*
X84226Y243040D03*
D197*
X84226Y250622D03*
D199*
X84188Y243078D03*
D197*
X84188Y250622D03*
D199*
X84150Y243078D03*
D197*
X84150Y250622D03*
D199*
X84112Y243078D03*
D197*
X84112Y250622D03*
D199*
X84074Y243116D03*
D193*
X84074Y250603D03*
D199*
X84036Y243116D03*
D193*
X84036Y250603D03*
D203*
X83998Y243135D03*
D193*
X83998Y250603D03*
D199*
X83960Y243154D03*
D193*
X83960Y250603D03*
D199*
X83922Y243154D03*
D193*
X83922Y250603D03*
D204*
X83884Y243173D03*
D196*
X83884Y250603D03*
D205*
X83845Y243193D03*
D193*
X83845Y250603D03*
D205*
X83807Y243193D03*
D178*
X83807Y250584D03*
D206*
X83769Y243212D03*
D178*
X83769Y250584D03*
D205*
X83731Y243231D03*
D178*
X83731Y250584D03*
D205*
X83693Y243231D03*
D178*
X83693Y250584D03*
D205*
X83655Y243231D03*
D178*
X83655Y250584D03*
D206*
X83617Y243250D03*
D189*
X83617Y250565D03*
D205*
X83579Y243269D03*
D189*
X83579Y250565D03*
D205*
X83541Y243269D03*
D189*
X83541Y250565D03*
D207*
X83503Y243288D03*
D176*
X83503Y250565D03*
D205*
X83464Y243307D03*
D175*
X83464Y250546D03*
D205*
X83426Y243307D03*
D175*
X83426Y250546D03*
D206*
X83388Y243326D03*
D175*
X83388Y250546D03*
D205*
X83350Y243345D03*
D175*
X83350Y250546D03*
D205*
X83312Y243345D03*
D174*
X83312Y250527D03*
D205*
X83274Y243345D03*
D174*
X83274Y250527D03*
D208*
X83236Y246812D03*
X83198Y246812D03*
D209*
X83160Y246793D03*
D210*
X83122Y246812D03*
D211*
X83083Y246812D03*
D212*
X83045Y246793D03*
D213*
X83007Y246812D03*
X82969Y246812D03*
D214*
X82931Y246793D03*
D215*
X82893Y246812D03*
X82855Y246812D03*
D216*
X82817Y246793D03*
D217*
X82779Y246812D03*
D218*
X82741Y244735D03*
D219*
X82741Y251841D03*
D220*
X82702Y244678D03*
D71*
X82702Y251879D03*
D221*
X82664Y244679D03*
D70*
X82664Y251898D03*
D222*
X82626Y244641D03*
D223*
X82626Y251898D03*
D224*
X82588Y244622D03*
D223*
X82588Y251898D03*
D225*
X82550Y244602D03*
D226*
X82550Y251898D03*
D227*
X82512Y244583D03*
D226*
X82512Y251898D03*
D228*
X82474Y244564D03*
D229*
X82474Y251879D03*
D230*
X82436Y244564D03*
D231*
X82436Y251899D03*
D232*
X82398Y244545D03*
D65*
X82398Y251880D03*
D233*
X82360Y244526D03*
D234*
X82360Y251880D03*
D235*
X82321Y244526D03*
D64*
X82321Y251861D03*
D236*
X82283Y244507D03*
D64*
X82283Y251861D03*
D237*
X82245Y244488D03*
D238*
X82245Y251841D03*
D239*
X82207Y244488D03*
D238*
X82207Y251841D03*
D239*
X82169Y244488D03*
D240*
X82169Y251822D03*
D241*
X82131Y244488D03*
D240*
X82131Y251822D03*
D242*
X82093Y244469D03*
D243*
X82093Y251803D03*
D244*
X82055Y244450D03*
D61*
X82055Y251784D03*
D245*
X82017Y244469D03*
D61*
X82017Y251784D03*
D246*
X81979Y242430D03*
D247*
X81979Y246831D03*
D248*
X81979Y251765D03*
D249*
X81940Y242373D03*
D69*
X81940Y246926D03*
D250*
X81940Y251727D03*
D251*
X81902Y242335D03*
D113*
X81902Y246984D03*
D250*
X81902Y251727D03*
D252*
X81864Y242335D03*
D65*
X81864Y247003D03*
D253*
X81864Y251708D03*
D252*
X81826Y242335D03*
D110*
X81826Y247022D03*
D254*
X81826Y251689D03*
D255*
X81788Y242335D03*
D256*
X81788Y247060D03*
D257*
X81788Y251670D03*
D255*
X81750Y242335D03*
D254*
X81750Y247079D03*
D257*
X81750Y251670D03*
D258*
X81712Y242355D03*
D259*
X81712Y247117D03*
D257*
X81712Y251632D03*
D258*
X81674Y242355D03*
D56*
X81674Y247117D03*
D259*
X81674Y251612D03*
D79*
X81636Y242374D03*
D260*
X81636Y247155D03*
D261*
X81636Y251593D03*
D262*
X81598Y242374D03*
D263*
X81598Y247155D03*
D264*
X81598Y251574D03*
D78*
X81559Y242393D03*
D51*
X81559Y247174D03*
D56*
X81559Y251536D03*
D78*
X81521Y242393D03*
D50*
X81521Y247193D03*
D55*
X81521Y251517D03*
D265*
X81483Y242412D03*
D49*
X81483Y247193D03*
D260*
X81483Y251498D03*
D265*
X81445Y242412D03*
D48*
X81445Y247212D03*
D260*
X81445Y251460D03*
D266*
X81407Y242431D03*
D46*
X81407Y247231D03*
D267*
X81407Y251441D03*
D266*
X81369Y242469D03*
D45*
X81369Y247250D03*
D268*
X81369Y251422D03*
D266*
X81331Y242469D03*
D44*
X81331Y247269D03*
D268*
X81331Y251384D03*
D269*
X81293Y242488D03*
D43*
X81293Y247269D03*
D52*
X81293Y251365D03*
D266*
X81255Y242507D03*
D270*
X81255Y247288D03*
D52*
X81255Y251327D03*
D271*
X81217Y242526D03*
D272*
X81217Y247288D03*
D273*
X81217Y251308D03*
D274*
X81178Y242545D03*
D97*
X81178Y247307D03*
D50*
X81178Y251270D03*
D269*
X81140Y242564D03*
D275*
X81140Y247307D03*
D50*
X81140Y251232D03*
D274*
X81102Y242583D03*
D95*
X81102Y247326D03*
D276*
X81102Y251213D03*
D277*
X81102Y253689D03*
D75*
X81064Y242621D03*
D38*
X81064Y247346D03*
D49*
X81064Y251156D03*
D86*
X81064Y253708D03*
D75*
X81026Y242621D03*
D278*
X81026Y247346D03*
D48*
X81026Y251137D03*
D279*
X81026Y253708D03*
D75*
X80988Y242659D03*
D36*
X80988Y247365D03*
D280*
X80988Y251098D03*
D281*
X80988Y253727D03*
D74*
X80950Y242678D03*
D282*
X80950Y247384D03*
D283*
X80950Y251060D03*
D40*
X80950Y253727D03*
D74*
X80912Y242716D03*
D284*
X80912Y247384D03*
D283*
X80912Y251022D03*
D285*
X80912Y253727D03*
D75*
X80874Y242735D03*
D284*
X80874Y247384D03*
D45*
X80874Y250984D03*
D280*
X80874Y253727D03*
D247*
X80836Y242754D03*
D92*
X80836Y247403D03*
D286*
X80836Y250946D03*
D287*
X80836Y253727D03*
D74*
X80797Y242792D03*
D288*
X80797Y247403D03*
D289*
X80797Y250908D03*
D56*
X80797Y253746D03*
D290*
X80759Y242831D03*
D291*
X80759Y247422D03*
D289*
X80759Y250870D03*
D60*
X80759Y253727D03*
D292*
X80721Y242850D03*
D293*
X80721Y247441D03*
D270*
X80721Y250831D03*
D64*
X80721Y253727D03*
D290*
X80683Y242869D03*
D293*
X80683Y247441D03*
D294*
X80683Y252584D03*
D290*
X80645Y242907D03*
D31*
X80645Y247440D03*
D152*
X80645Y252603D03*
D292*
X80607Y242926D03*
D295*
X80607Y247460D03*
D144*
X80607Y252641D03*
D118*
X80569Y242964D03*
D295*
X80569Y247460D03*
D151*
X80569Y252679D03*
D118*
X80531Y243002D03*
D89*
X80531Y247479D03*
D153*
X80531Y252698D03*
D118*
X80493Y243040D03*
D296*
X80493Y247498D03*
D158*
X80493Y252718D03*
D297*
X80455Y243078D03*
D298*
X80455Y247498D03*
D299*
X80455Y252737D03*
D73*
X80416Y243097D03*
D300*
X80416Y247498D03*
D168*
X80416Y252775D03*
D73*
X80378Y243135D03*
D300*
X80378Y247498D03*
D173*
X80378Y252794D03*
D73*
X80340Y243173D03*
D28*
X80340Y247517D03*
D301*
X80340Y252794D03*
D73*
X80302Y243211D03*
D28*
X80302Y247517D03*
D174*
X80302Y252813D03*
D302*
X80264Y243250D03*
D303*
X80264Y247536D03*
D189*
X80264Y252851D03*
D302*
X80226Y243288D03*
D303*
X80226Y247536D03*
D181*
X80226Y252851D03*
D73*
X80188Y243326D03*
D304*
X80188Y247555D03*
D184*
X80188Y252870D03*
D72*
X80150Y243383D03*
D304*
X80150Y247555D03*
D305*
X80150Y252870D03*
D72*
X80112Y243421D03*
D306*
X80112Y247574D03*
D191*
X80112Y252870D03*
D219*
X80074Y243459D03*
D307*
X80074Y247574D03*
D308*
X80074Y252889D03*
D72*
X80035Y243497D03*
D309*
X80035Y247593D03*
D203*
X80035Y252889D03*
D116*
X79997Y243554D03*
D306*
X79997Y247612D03*
D310*
X79997Y252889D03*
D116*
X79959Y243592D03*
D306*
X79959Y247612D03*
D311*
X79959Y252908D03*
D116*
X79921Y243669D03*
D306*
X79921Y247612D03*
D312*
X79921Y252908D03*
D116*
X79883Y243707D03*
D309*
X79883Y247631D03*
D313*
X79883Y252927D03*
D71*
X79845Y243764D03*
D314*
X79845Y247650D03*
D315*
X79845Y252927D03*
D70*
X79807Y243821D03*
D314*
X79807Y247650D03*
D316*
X79807Y252908D03*
D70*
X79769Y243897D03*
D317*
X79769Y247669D03*
D318*
X79769Y252927D03*
D70*
X79731Y243935D03*
D319*
X79731Y247688D03*
D320*
X79731Y252908D03*
D321*
X79693Y244031D03*
D322*
X79693Y247726D03*
D323*
X79693Y252908D03*
D324*
X79654Y244088D03*
D325*
X79654Y252108D03*
D223*
X79616Y244164D03*
D326*
X79616Y252127D03*
D327*
X79578Y244259D03*
D328*
X79578Y252146D03*
D113*
X79540Y244355D03*
D329*
X79540Y252165D03*
D66*
X79502Y244450D03*
D330*
X79502Y252165D03*
D231*
X79464Y244545D03*
D331*
X79464Y252184D03*
D65*
X79426Y244679D03*
D332*
X79426Y252184D03*
D65*
X79388Y244793D03*
D333*
X79388Y252184D03*
D334*
X79350Y242564D03*
D335*
X79350Y250393D03*
D336*
X79312Y249803D03*
D337*
X79273Y249746D03*
D338*
X79235Y249688D03*
D339*
X79197Y249670D03*
D340*
X79159Y249632D03*
D341*
X79121Y249593D03*
D342*
X79083Y249574D03*
D343*
X79045Y249555D03*
D344*
X79007Y249555D03*
D345*
X78969Y249536D03*
D346*
X78931Y249517D03*
D347*
X78892Y249517D03*
D348*
X78854Y245307D03*
D349*
X78854Y254413D03*
D239*
X78816Y245136D03*
D199*
X78816Y254584D03*
D242*
X78778Y245041D03*
D192*
X78778Y254718D03*
D350*
X78740Y244964D03*
D305*
X78740Y254813D03*
D242*
X78702Y244888D03*
D351*
X78702Y254927D03*
D244*
X78664Y244831D03*
D182*
X78664Y255004D03*
D244*
X78626Y244755D03*
D180*
X78626Y255080D03*
D244*
X78588Y244717D03*
D178*
X78588Y255156D03*
D352*
X78550Y244679D03*
D176*
X78550Y255213D03*
D353*
X78511Y244640D03*
D175*
X78511Y255308D03*
D353*
X78473Y244602D03*
D175*
X78473Y255346D03*
D354*
X78435Y244583D03*
D174*
X78435Y255403D03*
D355*
X78397Y244564D03*
D174*
X78397Y255480D03*
D237*
X78359Y244526D03*
D174*
X78359Y255518D03*
D236*
X78321Y244507D03*
D172*
X78321Y255575D03*
D235*
X78283Y244488D03*
D174*
X78283Y255632D03*
D146*
X78245Y242945D03*
D49*
X78245Y247727D03*
D174*
X78245Y255670D03*
D136*
X78207Y242812D03*
D356*
X78207Y247822D03*
D175*
X78207Y255727D03*
D357*
X78169Y242716D03*
D286*
X78169Y247860D03*
D187*
X78169Y255765D03*
D126*
X78130Y242621D03*
D358*
X78130Y247898D03*
D189*
X78130Y255784D03*
D125*
X78092Y242564D03*
D45*
X78092Y247936D03*
D180*
X78092Y255842D03*
D145*
X78054Y242469D03*
D46*
X78054Y247955D03*
D180*
X78054Y255880D03*
D359*
X78016Y242412D03*
D46*
X78016Y247993D03*
D182*
X78016Y255918D03*
D119*
X77978Y242335D03*
D283*
X77978Y248012D03*
D183*
X77978Y255937D03*
D141*
X77940Y242297D03*
D360*
X77940Y248031D03*
D184*
X77940Y255956D03*
D115*
X77902Y242240D03*
D49*
X77902Y248070D03*
D305*
X77902Y255994D03*
D114*
X77864Y242183D03*
D276*
X77864Y248089D03*
D190*
X77864Y256013D03*
D361*
X77826Y242126D03*
D51*
X77826Y248127D03*
D362*
X77826Y256051D03*
D363*
X77788Y242068D03*
D364*
X77788Y248165D03*
D365*
X77788Y256070D03*
D111*
X77749Y242030D03*
D54*
X77749Y248203D03*
D199*
X77749Y256070D03*
D137*
X77711Y241973D03*
D366*
X77711Y248222D03*
D310*
X77711Y256089D03*
D137*
X77673Y241935D03*
D259*
X77673Y248260D03*
D367*
X77673Y256089D03*
D368*
X77635Y241878D03*
D250*
X77635Y248298D03*
D349*
X77635Y256089D03*
D368*
X77597Y241840D03*
D110*
X77597Y248355D03*
D313*
X77597Y256089D03*
D105*
X77559Y241802D03*
D369*
X77559Y248393D03*
D370*
X77559Y256071D03*
D105*
X77521Y241764D03*
D69*
X77521Y248450D03*
D371*
X77521Y256051D03*
D372*
X77483Y241707D03*
D73*
X77483Y248545D03*
D320*
X77483Y256032D03*
D372*
X77445Y241669D03*
D78*
X77445Y248641D03*
D373*
X77445Y255956D03*
D374*
X77407Y241631D03*
D375*
X77407Y253384D03*
D104*
X77368Y241612D03*
D30*
X77368Y247212D03*
D376*
X77368Y254241D03*
D377*
X77330Y241573D03*
D378*
X77330Y247155D03*
D379*
X77330Y254299D03*
D377*
X77292Y241535D03*
D296*
X77292Y247117D03*
D379*
X77292Y254337D03*
D103*
X77254Y241516D03*
D296*
X77254Y247079D03*
D379*
X77254Y254375D03*
D103*
X77216Y241478D03*
D89*
X77216Y247060D03*
D380*
X77216Y254413D03*
D103*
X77178Y241440D03*
D30*
X77178Y247021D03*
D381*
X77178Y254432D03*
D103*
X77140Y241402D03*
D30*
X77140Y246983D03*
D381*
X77140Y254470D03*
D102*
X77102Y241383D03*
D279*
X77102Y246964D03*
D381*
X77102Y254508D03*
D102*
X77064Y241345D03*
D31*
X77064Y246907D03*
D381*
X77064Y254508D03*
D382*
X77026Y241326D03*
D383*
X77026Y246888D03*
D384*
X77026Y254527D03*
D103*
X76987Y241288D03*
D32*
X76987Y246869D03*
D385*
X76987Y254565D03*
D102*
X76949Y241269D03*
D386*
X76949Y246812D03*
D385*
X76949Y254565D03*
D103*
X76911Y241250D03*
D387*
X76911Y246793D03*
D388*
X76911Y254585D03*
D103*
X76873Y241212D03*
D34*
X76873Y246755D03*
D388*
X76873Y254585D03*
D377*
X76835Y241192D03*
D284*
X76835Y246736D03*
D388*
X76835Y254623D03*
D389*
X76797Y241173D03*
D35*
X76797Y246679D03*
D388*
X76797Y254623D03*
D377*
X76759Y241154D03*
D36*
X76759Y246641D03*
D390*
X76759Y254642D03*
D391*
X76721Y241135D03*
D278*
X76721Y246622D03*
D390*
X76721Y254642D03*
D391*
X76683Y241135D03*
D38*
X76683Y246584D03*
D392*
X76683Y254661D03*
D393*
X76645Y241116D03*
D394*
X76645Y246545D03*
D395*
X76645Y254642D03*
D396*
X76606Y241097D03*
D40*
X76606Y246488D03*
D397*
X76606Y254642D03*
D368*
X76568Y241078D03*
D41*
X76568Y246450D03*
D398*
X76568Y254661D03*
D368*
X76530Y241078D03*
D43*
X76530Y246393D03*
D398*
X76530Y254661D03*
D111*
X76492Y241078D03*
D399*
X76492Y246355D03*
D400*
X76492Y254680D03*
D112*
X76454Y241059D03*
D356*
X76454Y246298D03*
D400*
X76454Y254680D03*
D115*
X76416Y241059D03*
D49*
X76416Y246241D03*
D401*
X76416Y254661D03*
D141*
X76378Y241078D03*
D51*
X76378Y246184D03*
D402*
X76378Y254680D03*
D120*
X76340Y241097D03*
D267*
X76340Y246107D03*
D402*
X76340Y254680D03*
D128*
X76302Y241154D03*
D58*
X76302Y245993D03*
D403*
X76302Y254661D03*
D404*
X76264Y242907D03*
D405*
X76264Y254661D03*
D406*
X76225Y242907D03*
D407*
X76225Y254661D03*
D408*
X76187Y242888D03*
D409*
X76187Y254641D03*
D410*
X76149Y242869D03*
D409*
X76149Y254641D03*
D410*
X76111Y242869D03*
D411*
X76111Y254622D03*
D412*
X76073Y242850D03*
D413*
X76073Y254622D03*
D414*
X76035Y242831D03*
D415*
X76035Y254603D03*
D416*
X75997Y242812D03*
D417*
X75997Y254565D03*
D416*
X75959Y242812D03*
D418*
X75959Y254546D03*
D224*
X75921Y242793D03*
D419*
X75921Y254508D03*
D420*
X75883Y242774D03*
D421*
X75883Y254489D03*
D422*
X75844Y242755D03*
D423*
X75844Y254432D03*
D422*
X75806Y242755D03*
D424*
X75806Y254394D03*
D425*
X75768Y242754D03*
D426*
X75768Y254337D03*
D220*
X75730Y242735D03*
D427*
X75730Y254279D03*
D428*
X75692Y242716D03*
D331*
X75692Y254203D03*
D428*
X75654Y242716D03*
D429*
X75654Y254146D03*
D430*
X75616Y242697D03*
D431*
X75616Y254108D03*
D432*
X75578Y242678D03*
D433*
X75578Y254051D03*
D434*
X75540Y242659D03*
D435*
X75540Y253994D03*
D436*
X75502Y242678D03*
D437*
X75502Y253937D03*
D438*
X75463Y242659D03*
D439*
X75463Y253880D03*
D435*
X75425Y242640D03*
D221*
X75425Y253823D03*
D435*
X75387Y242640D03*
D440*
X75387Y253746D03*
D441*
X75349Y242621D03*
D227*
X75349Y253689D03*
D433*
X75311Y242621D03*
D39*
X75311Y250051D03*
D184*
X75311Y254699D03*
D326*
X75273Y242602D03*
D442*
X75273Y250070D03*
D180*
X75273Y254661D03*
D326*
X75235Y242602D03*
D443*
X75235Y250089D03*
D172*
X75235Y254622D03*
D444*
X75197Y242583D03*
D443*
X75197Y250089D03*
D445*
X75197Y254584D03*
D328*
X75159Y242583D03*
D446*
X75159Y250108D03*
D162*
X75159Y254566D03*
D447*
X75121Y242564D03*
D448*
X75121Y250127D03*
D155*
X75121Y254508D03*
D329*
X75082Y242564D03*
D270*
X75082Y250146D03*
D147*
X75082Y254470D03*
D449*
X75044Y242545D03*
D43*
X75044Y250165D03*
D152*
X75044Y254432D03*
D450*
X75006Y242545D03*
D43*
X75006Y250165D03*
D131*
X75006Y254413D03*
D451*
X74968Y242526D03*
D285*
X74968Y250184D03*
D125*
X74968Y254375D03*
D451*
X74930Y242526D03*
D44*
X74930Y250203D03*
D452*
X74930Y254337D03*
D453*
X74892Y242526D03*
D45*
X74892Y250222D03*
D361*
X74892Y254318D03*
D454*
X74854Y242507D03*
D45*
X74854Y250222D03*
D105*
X74854Y254261D03*
D455*
X74816Y242526D03*
D46*
X74816Y250241D03*
D132*
X74816Y254242D03*
D456*
X74778Y242507D03*
D457*
X74778Y250241D03*
D98*
X74778Y254203D03*
D458*
X74740Y242487D03*
D459*
X74740Y250260D03*
D460*
X74740Y254184D03*
D426*
X74701Y242488D03*
D48*
X74701Y250260D03*
D251*
X74701Y254146D03*
D426*
X74663Y242488D03*
D49*
X74663Y250279D03*
D461*
X74663Y254127D03*
D462*
X74625Y242488D03*
D276*
X74625Y250298D03*
D76*
X74625Y254108D03*
D424*
X74587Y242469D03*
D276*
X74587Y250298D03*
D72*
X74587Y254089D03*
D423*
X74549Y242469D03*
D463*
X74549Y250298D03*
D327*
X74549Y254051D03*
D423*
X74511Y242469D03*
D464*
X74511Y250317D03*
D64*
X74511Y254032D03*
D465*
X74473Y242469D03*
D464*
X74473Y250317D03*
D60*
X74473Y254032D03*
D245*
X74435Y241307D03*
D42*
X74435Y246850D03*
D268*
X74435Y250317D03*
D56*
X74435Y254013D03*
D245*
X74397Y241269D03*
D43*
X74397Y246850D03*
D268*
X74397Y250317D03*
D466*
X74397Y254013D03*
D467*
X74359Y241269D03*
D468*
X74359Y246869D03*
D469*
X74359Y250336D03*
D470*
X74359Y254013D03*
D245*
X74320Y241231D03*
D44*
X74320Y246850D03*
D260*
X74320Y250317D03*
D443*
X74320Y253975D03*
D245*
X74282Y241193D03*
D45*
X74282Y246869D03*
D55*
X74282Y250336D03*
D284*
X74282Y253975D03*
D245*
X74244Y241193D03*
D46*
X74244Y246888D03*
D56*
X74244Y250317D03*
D28*
X74244Y253956D03*
D245*
X74206Y241154D03*
D360*
X74206Y246888D03*
D261*
X74206Y250336D03*
D471*
X74206Y253937D03*
D245*
X74168Y241116D03*
D280*
X74168Y246907D03*
D259*
X74168Y250317D03*
D244*
X74130Y241097D03*
D49*
X74130Y246927D03*
D59*
X74130Y250317D03*
D245*
X74092Y241078D03*
D50*
X74092Y246927D03*
D60*
X74092Y250298D03*
D245*
X74054Y241040D03*
D466*
X74054Y246965D03*
D61*
X74054Y250298D03*
D244*
X74016Y241021D03*
D159*
X74016Y248736D03*
D352*
X73978Y240983D03*
D472*
X73978Y248736D03*
D245*
X73939Y240964D03*
D161*
X73939Y248755D03*
D245*
X73901Y240926D03*
D162*
X73901Y248736D03*
D244*
X73863Y240907D03*
D163*
X73863Y248755D03*
D245*
X73825Y240888D03*
D163*
X73825Y248755D03*
D245*
X73787Y240850D03*
D168*
X73787Y248736D03*
D245*
X73749Y240812D03*
D473*
X73749Y248755D03*
D245*
X73711Y240812D03*
D473*
X73711Y248755D03*
D245*
X73673Y240773D03*
D473*
X73673Y248755D03*
D245*
X73635Y240735D03*
D474*
X73635Y248736D03*
D475*
X73597Y240716D03*
D476*
X73597Y248755D03*
D477*
X73558Y240678D03*
D445*
X73558Y248755D03*
D478*
X73520Y240659D03*
D170*
X73520Y248736D03*
D478*
X73482Y240621D03*
D170*
X73482Y248736D03*
D479*
X73444Y240602D03*
D171*
X73444Y248755D03*
D480*
X73406Y240583D03*
D171*
X73406Y248755D03*
D480*
X73368Y240545D03*
D171*
X73368Y248755D03*
D481*
X73330Y240526D03*
D179*
X73330Y248736D03*
D482*
X73292Y240506D03*
D179*
X73292Y248736D03*
D483*
X73254Y240468D03*
D172*
X73254Y248755D03*
D323*
X73216Y240449D03*
D484*
X73216Y248755D03*
D485*
X73177Y240411D03*
D172*
X73177Y248755D03*
D486*
X73139Y240411D03*
D172*
X73139Y248755D03*
D320*
X73101Y240373D03*
D172*
X73101Y248755D03*
D487*
X73063Y240354D03*
D174*
X73063Y248736D03*
D488*
X73025Y240316D03*
D175*
X73025Y248755D03*
D489*
X72987Y240297D03*
D175*
X72987Y248755D03*
D316*
X72949Y240259D03*
D175*
X72949Y248755D03*
D315*
X72911Y240240D03*
D175*
X72911Y248755D03*
D490*
X72873Y240221D03*
D175*
X72873Y248755D03*
D491*
X72835Y240202D03*
D187*
X72835Y248755D03*
D349*
X72796Y240163D03*
D175*
X72796Y248755D03*
D367*
X72758Y240125D03*
D175*
X72758Y248755D03*
D492*
X72720Y240106D03*
D175*
X72720Y248755D03*
D493*
X72682Y240068D03*
D175*
X72682Y248755D03*
D494*
X72644Y240030D03*
D175*
X72644Y248755D03*
D351*
X72606Y239992D03*
D175*
X72606Y248755D03*
D178*
X72568Y239954D03*
D175*
X72568Y248755D03*
D174*
X72530Y239897D03*
D175*
X72530Y248755D03*
D169*
X72492Y239859D03*
D175*
X72492Y248755D03*
D299*
X72454Y239821D03*
D187*
X72454Y248755D03*
D495*
X72415Y239764D03*
D175*
X72415Y248755D03*
D144*
X72377Y239725D03*
D175*
X72377Y248755D03*
D496*
X72339Y239649D03*
D174*
X72339Y248774D03*
D115*
X72301Y239573D03*
D174*
X72301Y248774D03*
D366*
X72263Y238697D03*
D174*
X72263Y248774D03*
X72225Y248774D03*
X72187Y248774D03*
X72149Y248774D03*
X72111Y248774D03*
D484*
X72073Y248793D03*
D172*
X72034Y248793D03*
X71996Y248793D03*
X71958Y248793D03*
D179*
X71920Y248774D03*
D171*
X71882Y248793D03*
X71844Y248793D03*
X71806Y248793D03*
X71768Y248793D03*
D170*
X71730Y248812D03*
D497*
X71692Y248812D03*
D170*
X71653Y248812D03*
D445*
X71615Y248793D03*
D474*
X71577Y248812D03*
X71539Y248812D03*
X71501Y248812D03*
D473*
X71463Y248831D03*
D498*
X71425Y248812D03*
X71387Y248812D03*
D163*
X71349Y248832D03*
D499*
X71311Y248832D03*
D163*
X71272Y248832D03*
D161*
X71234Y248832D03*
X71196Y248832D03*
X71158Y248832D03*
D159*
X71120Y248851D03*
D160*
X71082Y248831D03*
D156*
X71044Y248850D03*
X71006Y248850D03*
X70968Y248850D03*
D500*
X70930Y248850D03*
D153*
X70891Y248850D03*
D151*
X70853Y248869D03*
D149*
X70815Y248850D03*
D147*
X70777Y248869D03*
X70739Y248869D03*
D144*
X70701Y248869D03*
X70663Y248869D03*
D142*
X70625Y248888D03*
D152*
X70587Y248869D03*
D501*
X70549Y248888D03*
D150*
X70510Y248888D03*
D134*
X70472Y248889D03*
X70434Y248889D03*
D133*
X70396Y248908D03*
X70358Y248908D03*
D129*
X70320Y248908D03*
D128*
X70282Y248927D03*
X70244Y248927D03*
D125*
X70206Y248927D03*
D502*
X70168Y248927D03*
D145*
X70129Y248946D03*
D143*
X70091Y248946D03*
X70053Y248946D03*
D452*
X70015Y248965D03*
D503*
X69977Y248965D03*
X69939Y248965D03*
D504*
X69901Y248984D03*
D361*
X69863Y248984D03*
D505*
X69825Y249003D03*
D506*
X69787Y249003D03*
D109*
X69748Y249003D03*
D507*
X69710Y249022D03*
D105*
X69672Y249041D03*
D372*
X69634Y249022D03*
D104*
X69596Y249041D03*
D103*
X69558Y249060D03*
D102*
X69520Y249041D03*
D132*
X69482Y249060D03*
D101*
X69444Y249079D03*
D508*
X69406Y249079D03*
D130*
X69367Y249079D03*
D98*
X69329Y249098D03*
D96*
X69291Y249117D03*
D94*
X69253Y249098D03*
D509*
X69215Y249117D03*
D127*
X69177Y249136D03*
D90*
X69139Y249136D03*
X69101Y249136D03*
D249*
X69063Y249155D03*
D510*
X69025Y249155D03*
D251*
X68986Y249155D03*
D511*
X68948Y249174D03*
D512*
X68910Y249174D03*
D255*
X68872Y249193D03*
X68834Y249193D03*
D79*
X68796Y249194D03*
D78*
X68758Y249213D03*
X68720Y249213D03*
D513*
X68682Y249212D03*
D514*
X68644Y249231D03*
D75*
X68605Y249250D03*
D74*
X68567Y249231D03*
D118*
X68529Y249250D03*
D73*
X68491Y249269D03*
D116*
X68453Y249269D03*
X68415Y249269D03*
D71*
X68377Y249288D03*
D70*
X68339Y249307D03*
D69*
X68301Y249288D03*
D515*
X68263Y249308D03*
D68*
X68224Y249327D03*
D66*
X68186Y249327D03*
X68148Y249327D03*
D231*
X68110Y249346D03*
D64*
X68072Y249346D03*
X68034Y249346D03*
D63*
X67996Y249365D03*
D62*
X67958Y249365D03*
D256*
X67920Y249384D03*
D516*
X67882Y249384D03*
D253*
X67843Y249384D03*
D254*
X67805Y249403D03*
X67767Y249403D03*
D259*
X67729Y249403D03*
D261*
X67691Y249422D03*
D56*
X67653Y249441D03*
D55*
X67615Y249422D03*
D260*
X67577Y249441D03*
D267*
X67539Y249460D03*
D263*
X67501Y249441D03*
D52*
X67462Y249460D03*
D466*
X67424Y249479D03*
D50*
X67386Y249479D03*
X67348Y249479D03*
D276*
X67310Y249498D03*
D49*
X67272Y249517D03*
D48*
X67234Y249498D03*
D360*
X67196Y249517D03*
D283*
X67158Y249536D03*
D517*
X67120Y249536D03*
D45*
X67081Y249536D03*
D44*
X67043Y249555D03*
D43*
X67005Y249555D03*
D270*
X66967Y249574D03*
X66929Y249574D03*
D41*
X66891Y249574D03*
D97*
X66853Y249593D03*
X66815Y249593D03*
D275*
X66777Y249593D03*
D518*
X66739Y249612D03*
D38*
X66700Y249632D03*
D519*
X66662Y249613D03*
D278*
X66624Y249632D03*
D36*
X66586Y249651D03*
D282*
X66548Y249632D03*
D35*
X66510Y249651D03*
D34*
X66472Y249651D03*
D33*
X66434Y249670D03*
X66396Y249670D03*
D520*
X66358Y249669D03*
D32*
X66319Y249688D03*
D31*
X66281Y249688D03*
D30*
X66243Y249688D03*
X66205Y249688D03*
D521*
X66167Y249689D03*
D28*
X66129Y249689D03*
D304*
X66091Y249689D03*
D309*
X66053Y249689D03*
D26*
X66015Y249708D03*
D522*
X65977Y249689D03*
D24*
X65938Y249688D03*
D523*
X65900Y249689D03*
D334*
X65862Y249651D03*
D524*
X194560Y117020D02*
X204560Y107020D01*
X199560Y107020D01*
X189560Y107020D02*
X184560Y107020D01*
X194560Y117020D01*
X194560Y112020D01*
X199560Y107020D01*
X189560Y107020D01*
X194560Y112020D01*
D10*
X138560Y136020D02*
X138560Y186020D01*
X138560Y136020D02*
X187560Y136020D01*
X138560Y389020D02*
X138560Y438020D01*
X188560Y438020D01*
X440560Y187020D02*
X440560Y136020D01*
X391560Y136020D01*
X440560Y388020D02*
X440560Y438020D01*
X390560Y438020D01*
D11*
X388776Y445863D02*
X386827Y447812D01*
X382929Y447812D01*
X380980Y445863D01*
X380980Y438067D01*
X382929Y436118D01*
X386827Y436118D01*
X388776Y438067D01*
X392674Y436118D02*
X400470Y436118D01*
X392674Y436118D02*
X400470Y443914D01*
X400470Y445863D01*
X398521Y447812D01*
X394623Y447812D01*
X392674Y445863D01*
D14*
X0Y37932D02*
X1102Y36830D01*
X2203Y36830D01*
X3305Y37932D01*
X3305Y43440D01*
X4406Y43440D02*
X2203Y43440D01*
X7484Y43440D02*
X7484Y36830D01*
X7484Y43440D02*
X10789Y43440D01*
X11891Y42338D01*
X11891Y40135D01*
X10789Y39033D01*
X7484Y39033D01*
X14968Y41236D02*
X17172Y43440D01*
X17172Y36830D01*
X19375Y36830D02*
X14968Y36830D01*
D13*
X170800Y67470D02*
X170800Y87470D01*
X184800Y87470D02*
X184800Y67470D01*
X177800Y74970D02*
X173800Y80970D01*
X181800Y80970D01*
X177800Y74970D01*
D19*
X177800Y73970D03*
D14*
X167038Y67232D02*
X160428Y67232D01*
X167038Y67232D02*
X167038Y70537D01*
X165936Y71638D01*
X161530Y71638D01*
X160428Y70537D01*
X160428Y67232D01*
X161530Y74716D02*
X160428Y75818D01*
X160428Y78021D01*
X161530Y79123D01*
X162632Y79123D01*
X163733Y78021D01*
X163733Y76919D01*
X163733Y78021D02*
X164835Y79123D01*
X165936Y79123D01*
X167038Y78021D01*
X167038Y75818D01*
X165936Y74716D01*
D16*
X232410Y73660D02*
X232410Y63500D01*
D14*
X197884Y62484D02*
X197884Y69094D01*
X201189Y69094D01*
X202290Y67992D01*
X202290Y65789D01*
X201189Y64687D01*
X197884Y64687D01*
X200087Y64687D02*
X202290Y62484D01*
X205368Y67992D02*
X206469Y69094D01*
X208673Y69094D01*
X209774Y67992D01*
X209774Y66890D01*
X208673Y65789D01*
X209774Y64687D01*
X209774Y63586D01*
X208673Y62484D01*
X206469Y62484D01*
X205368Y63586D01*
X205368Y64687D01*
X206469Y65789D01*
X205368Y66890D01*
X205368Y67992D01*
X206469Y65789D02*
X208673Y65789D01*
D13*
X261834Y89916D02*
X261834Y103044D01*
X261834Y89916D02*
X252246Y89916D01*
X228386Y89916D02*
X228386Y103044D01*
X228386Y89916D02*
X237974Y89916D01*
X242886Y103124D02*
X247474Y103124D01*
D14*
X211854Y94662D02*
X211854Y90256D01*
X211854Y94662D02*
X212955Y95764D01*
X215159Y95764D01*
X216260Y94662D01*
X216260Y90256D01*
X215159Y89154D01*
X212955Y89154D01*
X211854Y90256D01*
X214057Y91357D02*
X216260Y89154D01*
X219338Y89154D02*
X223744Y89154D01*
X219338Y89154D02*
X223744Y93560D01*
X223744Y94662D01*
X222643Y95764D01*
X220439Y95764D01*
X219338Y94662D01*
D16*
X111760Y209550D02*
X111760Y219710D01*
D14*
X136147Y220732D02*
X137248Y219630D01*
X136147Y220732D02*
X133944Y220732D01*
X132842Y219630D01*
X132842Y215224D01*
X133944Y214122D01*
X136147Y214122D01*
X137248Y215224D01*
X140326Y219630D02*
X141428Y220732D01*
X143631Y220732D01*
X144733Y219630D01*
X144733Y218528D01*
X143631Y217427D01*
X142529Y217427D01*
X143631Y217427D02*
X144733Y216325D01*
X144733Y215224D01*
X143631Y214122D01*
X141428Y214122D01*
X140326Y215224D01*
D13*
X76200Y219710D02*
X76200Y209550D01*
D14*
X61087Y224917D02*
X61087Y231527D01*
X61087Y224917D02*
X65493Y224917D01*
X68571Y224917D02*
X72978Y224917D01*
X72978Y229323D02*
X68571Y224917D01*
X72978Y229323D02*
X72978Y230425D01*
X71876Y231527D01*
X69673Y231527D01*
X68571Y230425D01*
D13*
X81280Y198120D02*
X81280Y170180D01*
X60960Y198120D02*
X60962Y198220D01*
X60968Y198319D01*
X60978Y198419D01*
X60991Y198517D01*
X61009Y198616D01*
X61030Y198713D01*
X61055Y198809D01*
X61084Y198905D01*
X61117Y198999D01*
X61153Y199092D01*
X61193Y199183D01*
X61237Y199273D01*
X61284Y199361D01*
X61334Y199447D01*
X61388Y199531D01*
X61445Y199613D01*
X61505Y199692D01*
X61569Y199770D01*
X61635Y199844D01*
X61704Y199916D01*
X61776Y199985D01*
X61850Y200051D01*
X61928Y200115D01*
X62007Y200175D01*
X62089Y200232D01*
X62173Y200286D01*
X62259Y200336D01*
X62347Y200383D01*
X62437Y200427D01*
X62528Y200467D01*
X62621Y200503D01*
X62715Y200536D01*
X62811Y200565D01*
X62907Y200590D01*
X63004Y200611D01*
X63103Y200629D01*
X63201Y200642D01*
X63301Y200652D01*
X63400Y200658D01*
X63500Y200660D01*
X60960Y170180D02*
X60962Y170080D01*
X60968Y169981D01*
X60978Y169881D01*
X60991Y169783D01*
X61009Y169684D01*
X61030Y169587D01*
X61055Y169491D01*
X61084Y169395D01*
X61117Y169301D01*
X61153Y169208D01*
X61193Y169117D01*
X61237Y169027D01*
X61284Y168939D01*
X61334Y168853D01*
X61388Y168769D01*
X61445Y168687D01*
X61505Y168608D01*
X61569Y168530D01*
X61635Y168456D01*
X61704Y168384D01*
X61776Y168315D01*
X61850Y168249D01*
X61928Y168185D01*
X62007Y168125D01*
X62089Y168068D01*
X62173Y168014D01*
X62259Y167964D01*
X62347Y167917D01*
X62437Y167873D01*
X62528Y167833D01*
X62621Y167797D01*
X62715Y167764D01*
X62811Y167735D01*
X62907Y167710D01*
X63004Y167689D01*
X63103Y167671D01*
X63201Y167658D01*
X63301Y167648D01*
X63400Y167642D01*
X63500Y167640D01*
X78740Y167640D02*
X78840Y167642D01*
X78939Y167648D01*
X79039Y167658D01*
X79137Y167671D01*
X79236Y167689D01*
X79333Y167710D01*
X79429Y167735D01*
X79525Y167764D01*
X79619Y167797D01*
X79712Y167833D01*
X79803Y167873D01*
X79893Y167917D01*
X79981Y167964D01*
X80067Y168014D01*
X80151Y168068D01*
X80233Y168125D01*
X80312Y168185D01*
X80390Y168249D01*
X80464Y168315D01*
X80536Y168384D01*
X80605Y168456D01*
X80671Y168530D01*
X80735Y168608D01*
X80795Y168687D01*
X80852Y168769D01*
X80906Y168853D01*
X80956Y168939D01*
X81003Y169027D01*
X81047Y169117D01*
X81087Y169208D01*
X81123Y169301D01*
X81156Y169395D01*
X81185Y169491D01*
X81210Y169587D01*
X81231Y169684D01*
X81249Y169783D01*
X81262Y169881D01*
X81272Y169981D01*
X81278Y170080D01*
X81280Y170180D01*
X81280Y198120D02*
X81278Y198220D01*
X81272Y198319D01*
X81262Y198419D01*
X81249Y198517D01*
X81231Y198616D01*
X81210Y198713D01*
X81185Y198809D01*
X81156Y198905D01*
X81123Y198999D01*
X81087Y199092D01*
X81047Y199183D01*
X81003Y199273D01*
X80956Y199361D01*
X80906Y199447D01*
X80852Y199531D01*
X80795Y199613D01*
X80735Y199692D01*
X80671Y199770D01*
X80605Y199844D01*
X80536Y199916D01*
X80464Y199985D01*
X80390Y200051D01*
X80312Y200115D01*
X80233Y200175D01*
X80151Y200232D01*
X80067Y200286D01*
X79981Y200336D01*
X79893Y200383D01*
X79803Y200427D01*
X79712Y200467D01*
X79619Y200503D01*
X79525Y200536D01*
X79429Y200565D01*
X79333Y200590D01*
X79236Y200611D01*
X79137Y200629D01*
X79039Y200642D01*
X78939Y200652D01*
X78840Y200658D01*
X78740Y200660D01*
X63500Y200660D01*
X63500Y167640D02*
X78740Y167640D01*
X60960Y170180D02*
X60960Y198120D01*
D14*
X52150Y172808D02*
X51048Y171707D01*
X51048Y169504D01*
X52150Y168402D01*
X56556Y168402D01*
X57658Y169504D01*
X57658Y171707D01*
X56556Y172808D01*
X54353Y172808D01*
X54353Y170605D01*
X57658Y175886D02*
X51048Y175886D01*
X51048Y179191D01*
X52150Y180293D01*
X54353Y180293D01*
X55455Y179191D01*
X55455Y175886D01*
X51048Y186675D02*
X52150Y187777D01*
X51048Y186675D02*
X51048Y184472D01*
X52150Y183370D01*
X53252Y183370D01*
X54353Y184472D01*
X54353Y186675D01*
X55455Y187777D01*
X56556Y187777D01*
X57658Y186675D01*
X57658Y184472D01*
X56556Y183370D01*
X57658Y190854D02*
X51048Y190854D01*
X51048Y194159D01*
X52150Y195261D01*
X53252Y195261D01*
X54353Y194159D01*
X55455Y195261D01*
X56556Y195261D01*
X57658Y194159D01*
X57658Y190854D01*
X54353Y190854D02*
X54353Y194159D01*
X57658Y198339D02*
X57658Y200542D01*
X57658Y199440D02*
X51048Y199440D01*
X51048Y198339D02*
X51048Y200542D01*
X53252Y203328D02*
X57658Y203328D01*
X53252Y203328D02*
X51048Y205531D01*
X53252Y207734D01*
X57658Y207734D01*
X54353Y207734D02*
X54353Y203328D01*
X51048Y214117D02*
X52150Y215219D01*
X51048Y214117D02*
X51048Y211914D01*
X52150Y210812D01*
X53252Y210812D01*
X54353Y211914D01*
X54353Y214117D01*
X55455Y215219D01*
X56556Y215219D01*
X57658Y214117D01*
X57658Y211914D01*
X56556Y210812D01*
X65434Y197364D02*
X66536Y196262D01*
X65434Y197364D02*
X63231Y197364D01*
X62130Y196262D01*
X62130Y191856D01*
X63231Y190754D01*
X65434Y190754D01*
X66536Y191856D01*
X69614Y195160D02*
X71817Y197364D01*
X71817Y190754D01*
X69614Y190754D02*
X74020Y190754D01*
X77098Y191856D02*
X77098Y196262D01*
X78199Y197364D01*
X80403Y197364D01*
X81504Y196262D01*
X81504Y191856D01*
X80403Y190754D01*
X78199Y190754D01*
X77098Y191856D01*
X81504Y196262D01*
D16*
X104140Y191770D02*
X104140Y201930D01*
D14*
X133598Y129032D02*
X140208Y129032D01*
X133598Y129032D02*
X133598Y132337D01*
X134700Y133438D01*
X136903Y133438D01*
X138005Y132337D01*
X138005Y129032D01*
X138005Y131235D02*
X140208Y133438D01*
X134700Y138719D02*
X133598Y140923D01*
X134700Y138719D02*
X136903Y136516D01*
X139106Y136516D01*
X140208Y137618D01*
X140208Y139821D01*
X139106Y140923D01*
X138005Y140923D01*
X136903Y139821D01*
X136903Y136516D01*
D16*
X134620Y107950D02*
X144780Y107950D01*
D14*
X178208Y67232D02*
X184818Y67232D01*
X184818Y70537D01*
X183716Y71638D01*
X179310Y71638D01*
X178208Y70537D01*
X178208Y67232D01*
X179310Y76919D02*
X178208Y79123D01*
X179310Y76919D02*
X181513Y74716D01*
X183716Y74716D01*
X184818Y75818D01*
X184818Y78021D01*
X183716Y79123D01*
X182615Y79123D01*
X181513Y78021D01*
X181513Y74716D01*
D13*
X188580Y67470D02*
X188580Y87470D01*
X202580Y87470D02*
X202580Y67470D01*
X195580Y74970D02*
X191580Y80970D01*
X199580Y80970D01*
X195580Y74970D01*
D19*
X195580Y73970D03*
D14*
X278552Y474372D02*
X279654Y475473D01*
X279654Y476575D01*
X278552Y477676D01*
X273044Y477676D01*
X273044Y476575D02*
X273044Y478778D01*
X273044Y481856D02*
X279654Y481856D01*
X273044Y481856D02*
X273044Y485161D01*
X274146Y486262D01*
X276349Y486262D01*
X277451Y485161D01*
X277451Y481856D01*
X279654Y489340D02*
X279654Y493746D01*
X279654Y489340D02*
X275248Y493746D01*
X274146Y493746D01*
X273044Y492645D01*
X273044Y490441D01*
X274146Y489340D01*
D11*
X492667Y162716D02*
X490718Y160767D01*
X490718Y156869D01*
X492667Y154920D01*
X500463Y154920D01*
X502412Y156869D01*
X502412Y160767D01*
X500463Y162716D01*
X502412Y172461D02*
X490718Y172461D01*
X496565Y166614D01*
X496565Y174410D01*
X494528Y221727D02*
X496477Y223676D01*
X494528Y221727D02*
X494528Y217829D01*
X496477Y215880D01*
X504273Y215880D01*
X506222Y217829D01*
X506222Y221727D01*
X504273Y223676D01*
X496477Y227574D02*
X494528Y229523D01*
X494528Y233421D01*
X496477Y235370D01*
X498426Y235370D01*
X500375Y233421D01*
X502324Y235370D01*
X504273Y235370D01*
X506222Y233421D01*
X506222Y229523D01*
X504273Y227574D01*
X502324Y227574D01*
X500375Y229523D01*
X498426Y227574D01*
X496477Y227574D01*
X500375Y229523D02*
X500375Y233421D01*
M02*
