G04 EAGLE Gerber X2 export*
%TF.Part,Single*%
%TF.FileFunction,Soldermask,Top,1*%
%TF.FilePolarity,Negative*%
%TF.GenerationSoftware,Autodesk,EAGLE,9.1.3*%
%TF.CreationDate,2018-09-14T10:42:21Z*%
G75*
%MOMM*%
%FSLAX34Y34*%
%LPD*%
%AMOC8*
5,1,8,0,0,1.08239X$1,22.5*%
G01*
%ADD10R,0.651600X1.301600*%
%ADD11R,1.301600X1.301600*%
%ADD12R,1.401600X1.601600*%
%ADD13R,4.701600X1.101600*%
%ADD14R,3.501600X1.701600*%
%ADD15R,1.601600X1.401600*%
%ADD16C,0.801600*%
%ADD17R,2.601600X2.601600*%
%ADD18C,1.309600*%
%ADD19R,2.101600X1.101600*%
%ADD20R,1.450000X0.500000*%
%ADD21R,1.001600X1.101600*%
%ADD22R,1.501600X1.501600*%
%ADD23R,2.801600X1.701600*%
%ADD24R,0.601600X0.601600*%
%ADD25R,0.501600X0.601600*%
%ADD26C,3.617600*%
%ADD27C,1.101600*%
%ADD28C,0.500000*%
%ADD29R,0.901600X1.451600*%
%ADD30R,0.450000X1.000000*%
%ADD31R,1.625600X4.165600*%
%ADD32R,1.117600X2.133600*%
%ADD33R,0.914400X2.336800*%
%ADD34R,2.301600X1.151600*%
%ADD35R,0.901600X1.101600*%
%ADD36C,0.701600*%
%ADD37R,1.701600X2.801600*%
%ADD38C,1.879600*%
%ADD39R,1.101600X1.301600*%
%ADD40R,1.301600X1.401600*%
%ADD41R,1.651000X2.921000*%


D10*
X158090Y321611D03*
X148590Y321611D03*
X139090Y321611D03*
X139090Y295609D03*
X158090Y295609D03*
D11*
X39720Y325230D03*
X18720Y325230D03*
X14960Y362760D03*
X35960Y362760D03*
D12*
X60350Y326390D03*
X79350Y326390D03*
X59240Y361950D03*
X78240Y361950D03*
D13*
X72560Y419260D03*
X72560Y439260D03*
D14*
X20560Y395260D03*
X20560Y463260D03*
D15*
X97790Y295250D03*
X97790Y276250D03*
D12*
X160630Y259080D03*
X141630Y259080D03*
D16*
X41910Y273500D03*
X41910Y234500D03*
D17*
X22910Y218000D03*
X22910Y290000D03*
D18*
X50910Y287000D02*
X50910Y299080D01*
X50910Y221000D02*
X50910Y208920D01*
D19*
X21910Y261500D03*
X21910Y246500D03*
D20*
X49660Y267000D03*
X49660Y260500D03*
X49660Y254000D03*
X49660Y247500D03*
X49660Y241000D03*
D21*
X132260Y576960D03*
X132260Y560960D03*
X91260Y560960D03*
X91260Y576960D03*
D22*
X123740Y477520D03*
X160740Y477520D03*
D12*
X141470Y443380D03*
X160470Y443380D03*
X141160Y408460D03*
X160160Y408460D03*
D23*
X140970Y379760D03*
X140970Y351760D03*
D24*
X464700Y116950D03*
D25*
X457200Y116950D03*
D24*
X449700Y116950D03*
X449700Y98950D03*
D25*
X457200Y98950D03*
D24*
X464700Y98950D03*
D12*
X568350Y462280D03*
X587350Y462280D03*
D11*
X587080Y491490D03*
X566080Y491490D03*
X587080Y523240D03*
X566080Y523240D03*
D15*
X533400Y490830D03*
X533400Y471830D03*
X481330Y521310D03*
X481330Y502310D03*
D26*
X595630Y584200D03*
X27940Y584200D03*
D27*
X405130Y290830D03*
D28*
X405130Y298330D02*
X404949Y298328D01*
X404768Y298321D01*
X404587Y298310D01*
X404406Y298295D01*
X404226Y298275D01*
X404046Y298251D01*
X403867Y298223D01*
X403689Y298190D01*
X403512Y298153D01*
X403335Y298112D01*
X403160Y298067D01*
X402985Y298017D01*
X402812Y297963D01*
X402641Y297905D01*
X402470Y297843D01*
X402302Y297776D01*
X402135Y297706D01*
X401969Y297632D01*
X401806Y297553D01*
X401645Y297471D01*
X401485Y297385D01*
X401328Y297295D01*
X401173Y297201D01*
X401020Y297104D01*
X400870Y297002D01*
X400722Y296898D01*
X400576Y296789D01*
X400434Y296678D01*
X400294Y296562D01*
X400157Y296444D01*
X400022Y296322D01*
X399891Y296197D01*
X399763Y296069D01*
X399638Y295938D01*
X399516Y295803D01*
X399398Y295666D01*
X399282Y295526D01*
X399171Y295384D01*
X399062Y295238D01*
X398958Y295090D01*
X398856Y294940D01*
X398759Y294787D01*
X398665Y294632D01*
X398575Y294475D01*
X398489Y294315D01*
X398407Y294154D01*
X398328Y293991D01*
X398254Y293825D01*
X398184Y293658D01*
X398117Y293490D01*
X398055Y293319D01*
X397997Y293148D01*
X397943Y292975D01*
X397893Y292800D01*
X397848Y292625D01*
X397807Y292448D01*
X397770Y292271D01*
X397737Y292093D01*
X397709Y291914D01*
X397685Y291734D01*
X397665Y291554D01*
X397650Y291373D01*
X397639Y291192D01*
X397632Y291011D01*
X397630Y290830D01*
X405130Y298330D02*
X405311Y298328D01*
X405492Y298321D01*
X405673Y298310D01*
X405854Y298295D01*
X406034Y298275D01*
X406214Y298251D01*
X406393Y298223D01*
X406571Y298190D01*
X406748Y298153D01*
X406925Y298112D01*
X407100Y298067D01*
X407275Y298017D01*
X407448Y297963D01*
X407619Y297905D01*
X407790Y297843D01*
X407958Y297776D01*
X408125Y297706D01*
X408291Y297632D01*
X408454Y297553D01*
X408615Y297471D01*
X408775Y297385D01*
X408932Y297295D01*
X409087Y297201D01*
X409240Y297104D01*
X409390Y297002D01*
X409538Y296898D01*
X409684Y296789D01*
X409826Y296678D01*
X409966Y296562D01*
X410103Y296444D01*
X410238Y296322D01*
X410369Y296197D01*
X410497Y296069D01*
X410622Y295938D01*
X410744Y295803D01*
X410862Y295666D01*
X410978Y295526D01*
X411089Y295384D01*
X411198Y295238D01*
X411302Y295090D01*
X411404Y294940D01*
X411501Y294787D01*
X411595Y294632D01*
X411685Y294475D01*
X411771Y294315D01*
X411853Y294154D01*
X411932Y293991D01*
X412006Y293825D01*
X412076Y293658D01*
X412143Y293490D01*
X412205Y293319D01*
X412263Y293148D01*
X412317Y292975D01*
X412367Y292800D01*
X412412Y292625D01*
X412453Y292448D01*
X412490Y292271D01*
X412523Y292093D01*
X412551Y291914D01*
X412575Y291734D01*
X412595Y291554D01*
X412610Y291373D01*
X412621Y291192D01*
X412628Y291011D01*
X412630Y290830D01*
X412628Y290649D01*
X412621Y290468D01*
X412610Y290287D01*
X412595Y290106D01*
X412575Y289926D01*
X412551Y289746D01*
X412523Y289567D01*
X412490Y289389D01*
X412453Y289212D01*
X412412Y289035D01*
X412367Y288860D01*
X412317Y288685D01*
X412263Y288512D01*
X412205Y288341D01*
X412143Y288170D01*
X412076Y288002D01*
X412006Y287835D01*
X411932Y287669D01*
X411853Y287506D01*
X411771Y287345D01*
X411685Y287185D01*
X411595Y287028D01*
X411501Y286873D01*
X411404Y286720D01*
X411302Y286570D01*
X411198Y286422D01*
X411089Y286276D01*
X410978Y286134D01*
X410862Y285994D01*
X410744Y285857D01*
X410622Y285722D01*
X410497Y285591D01*
X410369Y285463D01*
X410238Y285338D01*
X410103Y285216D01*
X409966Y285098D01*
X409826Y284982D01*
X409684Y284871D01*
X409538Y284762D01*
X409390Y284658D01*
X409240Y284556D01*
X409087Y284459D01*
X408932Y284365D01*
X408775Y284275D01*
X408615Y284189D01*
X408454Y284107D01*
X408291Y284028D01*
X408125Y283954D01*
X407958Y283884D01*
X407790Y283817D01*
X407619Y283755D01*
X407448Y283697D01*
X407275Y283643D01*
X407100Y283593D01*
X406925Y283548D01*
X406748Y283507D01*
X406571Y283470D01*
X406393Y283437D01*
X406214Y283409D01*
X406034Y283385D01*
X405854Y283365D01*
X405673Y283350D01*
X405492Y283339D01*
X405311Y283332D01*
X405130Y283330D01*
X404949Y283332D01*
X404768Y283339D01*
X404587Y283350D01*
X404406Y283365D01*
X404226Y283385D01*
X404046Y283409D01*
X403867Y283437D01*
X403689Y283470D01*
X403512Y283507D01*
X403335Y283548D01*
X403160Y283593D01*
X402985Y283643D01*
X402812Y283697D01*
X402641Y283755D01*
X402470Y283817D01*
X402302Y283884D01*
X402135Y283954D01*
X401969Y284028D01*
X401806Y284107D01*
X401645Y284189D01*
X401485Y284275D01*
X401328Y284365D01*
X401173Y284459D01*
X401020Y284556D01*
X400870Y284658D01*
X400722Y284762D01*
X400576Y284871D01*
X400434Y284982D01*
X400294Y285098D01*
X400157Y285216D01*
X400022Y285338D01*
X399891Y285463D01*
X399763Y285591D01*
X399638Y285722D01*
X399516Y285857D01*
X399398Y285994D01*
X399282Y286134D01*
X399171Y286276D01*
X399062Y286422D01*
X398958Y286570D01*
X398856Y286720D01*
X398759Y286873D01*
X398665Y287028D01*
X398575Y287185D01*
X398489Y287345D01*
X398407Y287506D01*
X398328Y287669D01*
X398254Y287835D01*
X398184Y288002D01*
X398117Y288170D01*
X398055Y288341D01*
X397997Y288512D01*
X397943Y288685D01*
X397893Y288860D01*
X397848Y289035D01*
X397807Y289212D01*
X397770Y289389D01*
X397737Y289567D01*
X397709Y289746D01*
X397685Y289926D01*
X397665Y290106D01*
X397650Y290287D01*
X397639Y290468D01*
X397632Y290649D01*
X397630Y290830D01*
D27*
X21590Y394970D03*
D28*
X21590Y402470D02*
X21409Y402468D01*
X21228Y402461D01*
X21047Y402450D01*
X20866Y402435D01*
X20686Y402415D01*
X20506Y402391D01*
X20327Y402363D01*
X20149Y402330D01*
X19972Y402293D01*
X19795Y402252D01*
X19620Y402207D01*
X19445Y402157D01*
X19272Y402103D01*
X19101Y402045D01*
X18930Y401983D01*
X18762Y401916D01*
X18595Y401846D01*
X18429Y401772D01*
X18266Y401693D01*
X18105Y401611D01*
X17945Y401525D01*
X17788Y401435D01*
X17633Y401341D01*
X17480Y401244D01*
X17330Y401142D01*
X17182Y401038D01*
X17036Y400929D01*
X16894Y400818D01*
X16754Y400702D01*
X16617Y400584D01*
X16482Y400462D01*
X16351Y400337D01*
X16223Y400209D01*
X16098Y400078D01*
X15976Y399943D01*
X15858Y399806D01*
X15742Y399666D01*
X15631Y399524D01*
X15522Y399378D01*
X15418Y399230D01*
X15316Y399080D01*
X15219Y398927D01*
X15125Y398772D01*
X15035Y398615D01*
X14949Y398455D01*
X14867Y398294D01*
X14788Y398131D01*
X14714Y397965D01*
X14644Y397798D01*
X14577Y397630D01*
X14515Y397459D01*
X14457Y397288D01*
X14403Y397115D01*
X14353Y396940D01*
X14308Y396765D01*
X14267Y396588D01*
X14230Y396411D01*
X14197Y396233D01*
X14169Y396054D01*
X14145Y395874D01*
X14125Y395694D01*
X14110Y395513D01*
X14099Y395332D01*
X14092Y395151D01*
X14090Y394970D01*
X21590Y402470D02*
X21771Y402468D01*
X21952Y402461D01*
X22133Y402450D01*
X22314Y402435D01*
X22494Y402415D01*
X22674Y402391D01*
X22853Y402363D01*
X23031Y402330D01*
X23208Y402293D01*
X23385Y402252D01*
X23560Y402207D01*
X23735Y402157D01*
X23908Y402103D01*
X24079Y402045D01*
X24250Y401983D01*
X24418Y401916D01*
X24585Y401846D01*
X24751Y401772D01*
X24914Y401693D01*
X25075Y401611D01*
X25235Y401525D01*
X25392Y401435D01*
X25547Y401341D01*
X25700Y401244D01*
X25850Y401142D01*
X25998Y401038D01*
X26144Y400929D01*
X26286Y400818D01*
X26426Y400702D01*
X26563Y400584D01*
X26698Y400462D01*
X26829Y400337D01*
X26957Y400209D01*
X27082Y400078D01*
X27204Y399943D01*
X27322Y399806D01*
X27438Y399666D01*
X27549Y399524D01*
X27658Y399378D01*
X27762Y399230D01*
X27864Y399080D01*
X27961Y398927D01*
X28055Y398772D01*
X28145Y398615D01*
X28231Y398455D01*
X28313Y398294D01*
X28392Y398131D01*
X28466Y397965D01*
X28536Y397798D01*
X28603Y397630D01*
X28665Y397459D01*
X28723Y397288D01*
X28777Y397115D01*
X28827Y396940D01*
X28872Y396765D01*
X28913Y396588D01*
X28950Y396411D01*
X28983Y396233D01*
X29011Y396054D01*
X29035Y395874D01*
X29055Y395694D01*
X29070Y395513D01*
X29081Y395332D01*
X29088Y395151D01*
X29090Y394970D01*
X29088Y394789D01*
X29081Y394608D01*
X29070Y394427D01*
X29055Y394246D01*
X29035Y394066D01*
X29011Y393886D01*
X28983Y393707D01*
X28950Y393529D01*
X28913Y393352D01*
X28872Y393175D01*
X28827Y393000D01*
X28777Y392825D01*
X28723Y392652D01*
X28665Y392481D01*
X28603Y392310D01*
X28536Y392142D01*
X28466Y391975D01*
X28392Y391809D01*
X28313Y391646D01*
X28231Y391485D01*
X28145Y391325D01*
X28055Y391168D01*
X27961Y391013D01*
X27864Y390860D01*
X27762Y390710D01*
X27658Y390562D01*
X27549Y390416D01*
X27438Y390274D01*
X27322Y390134D01*
X27204Y389997D01*
X27082Y389862D01*
X26957Y389731D01*
X26829Y389603D01*
X26698Y389478D01*
X26563Y389356D01*
X26426Y389238D01*
X26286Y389122D01*
X26144Y389011D01*
X25998Y388902D01*
X25850Y388798D01*
X25700Y388696D01*
X25547Y388599D01*
X25392Y388505D01*
X25235Y388415D01*
X25075Y388329D01*
X24914Y388247D01*
X24751Y388168D01*
X24585Y388094D01*
X24418Y388024D01*
X24250Y387957D01*
X24079Y387895D01*
X23908Y387837D01*
X23735Y387783D01*
X23560Y387733D01*
X23385Y387688D01*
X23208Y387647D01*
X23031Y387610D01*
X22853Y387577D01*
X22674Y387549D01*
X22494Y387525D01*
X22314Y387505D01*
X22133Y387490D01*
X21952Y387479D01*
X21771Y387472D01*
X21590Y387470D01*
X21409Y387472D01*
X21228Y387479D01*
X21047Y387490D01*
X20866Y387505D01*
X20686Y387525D01*
X20506Y387549D01*
X20327Y387577D01*
X20149Y387610D01*
X19972Y387647D01*
X19795Y387688D01*
X19620Y387733D01*
X19445Y387783D01*
X19272Y387837D01*
X19101Y387895D01*
X18930Y387957D01*
X18762Y388024D01*
X18595Y388094D01*
X18429Y388168D01*
X18266Y388247D01*
X18105Y388329D01*
X17945Y388415D01*
X17788Y388505D01*
X17633Y388599D01*
X17480Y388696D01*
X17330Y388798D01*
X17182Y388902D01*
X17036Y389011D01*
X16894Y389122D01*
X16754Y389238D01*
X16617Y389356D01*
X16482Y389478D01*
X16351Y389603D01*
X16223Y389731D01*
X16098Y389862D01*
X15976Y389997D01*
X15858Y390134D01*
X15742Y390274D01*
X15631Y390416D01*
X15522Y390562D01*
X15418Y390710D01*
X15316Y390860D01*
X15219Y391013D01*
X15125Y391168D01*
X15035Y391325D01*
X14949Y391485D01*
X14867Y391646D01*
X14788Y391809D01*
X14714Y391975D01*
X14644Y392142D01*
X14577Y392310D01*
X14515Y392481D01*
X14457Y392652D01*
X14403Y392825D01*
X14353Y393000D01*
X14308Y393175D01*
X14267Y393352D01*
X14230Y393529D01*
X14197Y393707D01*
X14169Y393886D01*
X14145Y394066D01*
X14125Y394246D01*
X14110Y394427D01*
X14099Y394608D01*
X14092Y394789D01*
X14090Y394970D01*
D27*
X55880Y95250D03*
D28*
X55880Y102750D02*
X55699Y102748D01*
X55518Y102741D01*
X55337Y102730D01*
X55156Y102715D01*
X54976Y102695D01*
X54796Y102671D01*
X54617Y102643D01*
X54439Y102610D01*
X54262Y102573D01*
X54085Y102532D01*
X53910Y102487D01*
X53735Y102437D01*
X53562Y102383D01*
X53391Y102325D01*
X53220Y102263D01*
X53052Y102196D01*
X52885Y102126D01*
X52719Y102052D01*
X52556Y101973D01*
X52395Y101891D01*
X52235Y101805D01*
X52078Y101715D01*
X51923Y101621D01*
X51770Y101524D01*
X51620Y101422D01*
X51472Y101318D01*
X51326Y101209D01*
X51184Y101098D01*
X51044Y100982D01*
X50907Y100864D01*
X50772Y100742D01*
X50641Y100617D01*
X50513Y100489D01*
X50388Y100358D01*
X50266Y100223D01*
X50148Y100086D01*
X50032Y99946D01*
X49921Y99804D01*
X49812Y99658D01*
X49708Y99510D01*
X49606Y99360D01*
X49509Y99207D01*
X49415Y99052D01*
X49325Y98895D01*
X49239Y98735D01*
X49157Y98574D01*
X49078Y98411D01*
X49004Y98245D01*
X48934Y98078D01*
X48867Y97910D01*
X48805Y97739D01*
X48747Y97568D01*
X48693Y97395D01*
X48643Y97220D01*
X48598Y97045D01*
X48557Y96868D01*
X48520Y96691D01*
X48487Y96513D01*
X48459Y96334D01*
X48435Y96154D01*
X48415Y95974D01*
X48400Y95793D01*
X48389Y95612D01*
X48382Y95431D01*
X48380Y95250D01*
X55880Y102750D02*
X56061Y102748D01*
X56242Y102741D01*
X56423Y102730D01*
X56604Y102715D01*
X56784Y102695D01*
X56964Y102671D01*
X57143Y102643D01*
X57321Y102610D01*
X57498Y102573D01*
X57675Y102532D01*
X57850Y102487D01*
X58025Y102437D01*
X58198Y102383D01*
X58369Y102325D01*
X58540Y102263D01*
X58708Y102196D01*
X58875Y102126D01*
X59041Y102052D01*
X59204Y101973D01*
X59365Y101891D01*
X59525Y101805D01*
X59682Y101715D01*
X59837Y101621D01*
X59990Y101524D01*
X60140Y101422D01*
X60288Y101318D01*
X60434Y101209D01*
X60576Y101098D01*
X60716Y100982D01*
X60853Y100864D01*
X60988Y100742D01*
X61119Y100617D01*
X61247Y100489D01*
X61372Y100358D01*
X61494Y100223D01*
X61612Y100086D01*
X61728Y99946D01*
X61839Y99804D01*
X61948Y99658D01*
X62052Y99510D01*
X62154Y99360D01*
X62251Y99207D01*
X62345Y99052D01*
X62435Y98895D01*
X62521Y98735D01*
X62603Y98574D01*
X62682Y98411D01*
X62756Y98245D01*
X62826Y98078D01*
X62893Y97910D01*
X62955Y97739D01*
X63013Y97568D01*
X63067Y97395D01*
X63117Y97220D01*
X63162Y97045D01*
X63203Y96868D01*
X63240Y96691D01*
X63273Y96513D01*
X63301Y96334D01*
X63325Y96154D01*
X63345Y95974D01*
X63360Y95793D01*
X63371Y95612D01*
X63378Y95431D01*
X63380Y95250D01*
X63378Y95069D01*
X63371Y94888D01*
X63360Y94707D01*
X63345Y94526D01*
X63325Y94346D01*
X63301Y94166D01*
X63273Y93987D01*
X63240Y93809D01*
X63203Y93632D01*
X63162Y93455D01*
X63117Y93280D01*
X63067Y93105D01*
X63013Y92932D01*
X62955Y92761D01*
X62893Y92590D01*
X62826Y92422D01*
X62756Y92255D01*
X62682Y92089D01*
X62603Y91926D01*
X62521Y91765D01*
X62435Y91605D01*
X62345Y91448D01*
X62251Y91293D01*
X62154Y91140D01*
X62052Y90990D01*
X61948Y90842D01*
X61839Y90696D01*
X61728Y90554D01*
X61612Y90414D01*
X61494Y90277D01*
X61372Y90142D01*
X61247Y90011D01*
X61119Y89883D01*
X60988Y89758D01*
X60853Y89636D01*
X60716Y89518D01*
X60576Y89402D01*
X60434Y89291D01*
X60288Y89182D01*
X60140Y89078D01*
X59990Y88976D01*
X59837Y88879D01*
X59682Y88785D01*
X59525Y88695D01*
X59365Y88609D01*
X59204Y88527D01*
X59041Y88448D01*
X58875Y88374D01*
X58708Y88304D01*
X58540Y88237D01*
X58369Y88175D01*
X58198Y88117D01*
X58025Y88063D01*
X57850Y88013D01*
X57675Y87968D01*
X57498Y87927D01*
X57321Y87890D01*
X57143Y87857D01*
X56964Y87829D01*
X56784Y87805D01*
X56604Y87785D01*
X56423Y87770D01*
X56242Y87759D01*
X56061Y87752D01*
X55880Y87750D01*
X55699Y87752D01*
X55518Y87759D01*
X55337Y87770D01*
X55156Y87785D01*
X54976Y87805D01*
X54796Y87829D01*
X54617Y87857D01*
X54439Y87890D01*
X54262Y87927D01*
X54085Y87968D01*
X53910Y88013D01*
X53735Y88063D01*
X53562Y88117D01*
X53391Y88175D01*
X53220Y88237D01*
X53052Y88304D01*
X52885Y88374D01*
X52719Y88448D01*
X52556Y88527D01*
X52395Y88609D01*
X52235Y88695D01*
X52078Y88785D01*
X51923Y88879D01*
X51770Y88976D01*
X51620Y89078D01*
X51472Y89182D01*
X51326Y89291D01*
X51184Y89402D01*
X51044Y89518D01*
X50907Y89636D01*
X50772Y89758D01*
X50641Y89883D01*
X50513Y90011D01*
X50388Y90142D01*
X50266Y90277D01*
X50148Y90414D01*
X50032Y90554D01*
X49921Y90696D01*
X49812Y90842D01*
X49708Y90990D01*
X49606Y91140D01*
X49509Y91293D01*
X49415Y91448D01*
X49325Y91605D01*
X49239Y91765D01*
X49157Y91926D01*
X49078Y92089D01*
X49004Y92255D01*
X48934Y92422D01*
X48867Y92590D01*
X48805Y92761D01*
X48747Y92932D01*
X48693Y93105D01*
X48643Y93280D01*
X48598Y93455D01*
X48557Y93632D01*
X48520Y93809D01*
X48487Y93987D01*
X48459Y94166D01*
X48435Y94346D01*
X48415Y94526D01*
X48400Y94707D01*
X48389Y94888D01*
X48382Y95069D01*
X48380Y95250D01*
D29*
X224790Y92710D03*
X224790Y118110D03*
X292100Y102870D03*
X292100Y128270D03*
D30*
X395420Y123230D03*
X388920Y123230D03*
X382420Y123230D03*
X375920Y123230D03*
X369420Y123230D03*
X362920Y123230D03*
X356420Y123230D03*
X356420Y64730D03*
X362920Y64730D03*
X369420Y64730D03*
X375920Y64730D03*
X382420Y64730D03*
X388920Y64730D03*
X395420Y64730D03*
D31*
X257810Y572770D03*
X207010Y572770D03*
D32*
X232410Y562610D03*
D33*
X246364Y572516D03*
X218456Y572516D03*
D34*
X22860Y178850D03*
X22860Y151350D03*
D35*
X38110Y165100D03*
D36*
X254250Y166580D02*
X254250Y178580D01*
X264250Y178580D02*
X264250Y166580D01*
X274250Y166580D02*
X274250Y178580D01*
X284250Y178580D02*
X284250Y166580D01*
X294250Y166580D02*
X294250Y178580D01*
X304250Y178580D02*
X304250Y166580D01*
X314250Y166580D02*
X314250Y178580D01*
X324250Y178580D02*
X324250Y166580D01*
X334250Y166580D02*
X334250Y178580D01*
X344250Y178580D02*
X344250Y166580D01*
X354250Y166580D02*
X354250Y178580D01*
X364250Y178580D02*
X364250Y166580D01*
X374250Y166580D02*
X374250Y178580D01*
X384250Y178580D02*
X384250Y166580D01*
X394250Y166580D02*
X394250Y178580D01*
X404250Y178580D02*
X404250Y166580D01*
X414250Y166580D02*
X414250Y178580D01*
X424250Y178580D02*
X424250Y166580D01*
X434250Y166580D02*
X434250Y178580D01*
X444250Y178580D02*
X444250Y166580D01*
X493250Y227580D02*
X505250Y227580D01*
X505250Y237580D02*
X493250Y237580D01*
X493250Y247580D02*
X505250Y247580D01*
X505250Y257580D02*
X493250Y257580D01*
X493250Y267580D02*
X505250Y267580D01*
X505250Y277580D02*
X493250Y277580D01*
X493250Y287580D02*
X505250Y287580D01*
X505250Y297580D02*
X493250Y297580D01*
X493250Y307580D02*
X505250Y307580D01*
X505250Y317580D02*
X493250Y317580D01*
X493250Y327580D02*
X505250Y327580D01*
X505250Y337580D02*
X493250Y337580D01*
X493250Y347580D02*
X505250Y347580D01*
X505250Y357580D02*
X493250Y357580D01*
X493250Y367580D02*
X505250Y367580D01*
X505250Y377580D02*
X493250Y377580D01*
X493250Y387580D02*
X505250Y387580D01*
X505250Y397580D02*
X493250Y397580D01*
X493250Y407580D02*
X505250Y407580D01*
X505250Y417580D02*
X493250Y417580D01*
X444250Y466580D02*
X444250Y478580D01*
X434250Y478580D02*
X434250Y466580D01*
X424250Y466580D02*
X424250Y478580D01*
X414250Y478580D02*
X414250Y466580D01*
X404250Y466580D02*
X404250Y478580D01*
X394250Y478580D02*
X394250Y466580D01*
X384250Y466580D02*
X384250Y478580D01*
X374250Y478580D02*
X374250Y466580D01*
X364250Y466580D02*
X364250Y478580D01*
X354250Y478580D02*
X354250Y466580D01*
X344250Y466580D02*
X344250Y478580D01*
X334250Y478580D02*
X334250Y466580D01*
X324250Y466580D02*
X324250Y478580D01*
X314250Y478580D02*
X314250Y466580D01*
X304250Y466580D02*
X304250Y478580D01*
X294250Y478580D02*
X294250Y466580D01*
X284250Y466580D02*
X284250Y478580D01*
X274250Y478580D02*
X274250Y466580D01*
X264250Y466580D02*
X264250Y478580D01*
X254250Y478580D02*
X254250Y466580D01*
X205250Y417580D02*
X193250Y417580D01*
X193250Y407580D02*
X205250Y407580D01*
X205250Y397580D02*
X193250Y397580D01*
X193250Y387580D02*
X205250Y387580D01*
X205250Y377580D02*
X193250Y377580D01*
X193250Y367580D02*
X205250Y367580D01*
X205250Y357580D02*
X193250Y357580D01*
X193250Y347580D02*
X205250Y347580D01*
X205250Y337580D02*
X193250Y337580D01*
X193250Y327580D02*
X205250Y327580D01*
X205250Y317580D02*
X193250Y317580D01*
X193250Y307580D02*
X205250Y307580D01*
X205250Y297580D02*
X193250Y297580D01*
X193250Y287580D02*
X205250Y287580D01*
X205250Y277580D02*
X193250Y277580D01*
X193250Y267580D02*
X205250Y267580D01*
X205250Y257580D02*
X193250Y257580D01*
X193250Y247580D02*
X205250Y247580D01*
X205250Y237580D02*
X193250Y237580D01*
X193250Y227580D02*
X205250Y227580D01*
D37*
X560040Y407670D03*
X588040Y407670D03*
D38*
X105410Y21590D03*
X130810Y21590D03*
X156210Y21590D03*
X181610Y21590D03*
X207010Y21590D03*
X232410Y21590D03*
X257810Y21590D03*
X283210Y21590D03*
X308610Y21590D03*
X334010Y21590D03*
X359410Y21590D03*
X384810Y21590D03*
X410210Y21590D03*
X435610Y21590D03*
X461010Y21590D03*
X486410Y21590D03*
X511810Y21590D03*
X537210Y21590D03*
D29*
X157480Y93980D03*
X157480Y119380D03*
D12*
X288900Y71120D03*
X269900Y71120D03*
D39*
X331470Y97950D03*
X321970Y117950D03*
X340970Y117950D03*
D12*
X145440Y217170D03*
X164440Y217170D03*
D40*
X96520Y217170D03*
X116840Y217170D03*
D41*
X96520Y177800D03*
D12*
X165710Y185420D03*
X146710Y185420D03*
D15*
X250190Y117500D03*
X250190Y136500D03*
D29*
X191770Y120650D03*
X191770Y146050D03*
D38*
X294640Y513080D03*
X320040Y513080D03*
D23*
X532130Y247680D03*
X532130Y219680D03*
X579120Y257840D03*
X579120Y229840D03*
D26*
X593090Y29210D03*
X27940Y29210D03*
M02*
