G04 EAGLE Gerber X2 export*
%TF.Part,Single*%
%TF.FileFunction,Paste,Top*%
%TF.FilePolarity,Positive*%
%TF.GenerationSoftware,Autodesk,EAGLE,9.1.3*%
%TF.CreationDate,2018-09-14T10:42:21Z*%
G75*
%MOMM*%
%FSLAX34Y34*%
%LPD*%
%AMOC8*
5,1,8,0,0,1.08239X$1,22.5*%
G01*
%ADD10R,0.550000X1.200000*%
%ADD11R,1.200000X1.200000*%
%ADD12R,1.300000X1.500000*%
%ADD13R,4.600000X1.000000*%
%ADD14R,3.400000X1.600000*%
%ADD15R,1.500000X1.300000*%
%ADD16R,1.350000X0.400000*%
%ADD17R,2.000000X1.000000*%
%ADD18R,2.500000X2.500000*%
%ADD19R,0.900000X1.000000*%
%ADD20R,1.400000X1.400000*%
%ADD21R,2.700000X1.600000*%
%ADD22R,0.500000X0.500000*%
%ADD23R,0.400000X0.500000*%
%ADD24R,0.800000X1.350000*%
%ADD25R,0.350000X0.900000*%
%ADD26R,0.965200X0.762000*%
%ADD27R,0.812800X2.133600*%
%ADD28R,2.200000X1.050000*%
%ADD29R,0.800000X1.000000*%
%ADD30C,0.600000*%
%ADD31R,1.600000X2.700000*%
%ADD32R,1.000000X1.200000*%
%ADD33R,1.200000X1.300000*%

G36*
X51008Y280873D02*
X51008Y280873D01*
X52282Y281073D01*
X52329Y281090D01*
X52419Y281111D01*
X53615Y281589D01*
X53658Y281616D01*
X53741Y281656D01*
X54801Y282388D01*
X54837Y282424D01*
X54908Y282482D01*
X55779Y283432D01*
X55806Y283474D01*
X55863Y283547D01*
X56500Y284667D01*
X56517Y284714D01*
X56556Y284797D01*
X56929Y286031D01*
X56934Y286081D01*
X56954Y286171D01*
X57043Y287456D01*
X57041Y287476D01*
X57044Y287500D01*
X57044Y298500D01*
X57042Y298515D01*
X57043Y298535D01*
X56982Y299661D01*
X56971Y299708D01*
X56963Y299784D01*
X56682Y300877D01*
X56662Y300921D01*
X56640Y300994D01*
X56152Y302011D01*
X56124Y302050D01*
X56087Y302117D01*
X55410Y303020D01*
X55375Y303053D01*
X55326Y303111D01*
X54486Y303864D01*
X54445Y303890D01*
X54385Y303938D01*
X53414Y304512D01*
X53369Y304529D01*
X53302Y304565D01*
X52237Y304939D01*
X52190Y304947D01*
X52117Y304969D01*
X51000Y305128D01*
X50972Y305127D01*
X50820Y305128D01*
X49704Y304969D01*
X49658Y304954D01*
X49583Y304939D01*
X48518Y304565D01*
X48476Y304541D01*
X48406Y304512D01*
X47435Y303938D01*
X47398Y303906D01*
X47334Y303864D01*
X46494Y303111D01*
X46465Y303074D01*
X46410Y303020D01*
X45733Y302117D01*
X45711Y302074D01*
X45668Y302011D01*
X45180Y300994D01*
X45167Y300947D01*
X45138Y300877D01*
X44857Y299784D01*
X44854Y299736D01*
X44838Y299661D01*
X44777Y298535D01*
X44779Y298519D01*
X44776Y298500D01*
X44776Y287500D01*
X44779Y287485D01*
X44777Y287465D01*
X44838Y286339D01*
X44850Y286292D01*
X44857Y286216D01*
X45138Y285123D01*
X45158Y285079D01*
X45180Y285006D01*
X45668Y283989D01*
X45697Y283950D01*
X45733Y283883D01*
X46410Y282980D01*
X46445Y282947D01*
X46494Y282889D01*
X47334Y282136D01*
X47375Y282110D01*
X47435Y282062D01*
X48406Y281488D01*
X48451Y281471D01*
X48518Y281435D01*
X49583Y281061D01*
X49630Y281053D01*
X49704Y281031D01*
X50820Y280872D01*
X50821Y280872D01*
X51008Y280873D01*
G37*
G36*
X51008Y202873D02*
X51008Y202873D01*
X52282Y203073D01*
X52329Y203090D01*
X52419Y203111D01*
X53615Y203589D01*
X53658Y203616D01*
X53741Y203656D01*
X54801Y204388D01*
X54837Y204424D01*
X54908Y204482D01*
X55779Y205432D01*
X55806Y205474D01*
X55863Y205547D01*
X56500Y206667D01*
X56517Y206714D01*
X56556Y206797D01*
X56929Y208031D01*
X56934Y208081D01*
X56954Y208171D01*
X57043Y209456D01*
X57041Y209476D01*
X57044Y209500D01*
X57044Y220500D01*
X57042Y220515D01*
X57043Y220535D01*
X56982Y221661D01*
X56971Y221708D01*
X56963Y221784D01*
X56682Y222877D01*
X56662Y222921D01*
X56640Y222994D01*
X56152Y224011D01*
X56124Y224050D01*
X56087Y224117D01*
X55410Y225020D01*
X55375Y225053D01*
X55326Y225111D01*
X54486Y225864D01*
X54445Y225890D01*
X54385Y225938D01*
X53414Y226512D01*
X53369Y226529D01*
X53302Y226565D01*
X52237Y226939D01*
X52190Y226947D01*
X52117Y226969D01*
X51000Y227128D01*
X50972Y227127D01*
X50820Y227128D01*
X49704Y226969D01*
X49658Y226954D01*
X49583Y226939D01*
X48518Y226565D01*
X48476Y226541D01*
X48406Y226512D01*
X47435Y225938D01*
X47398Y225906D01*
X47334Y225864D01*
X46494Y225111D01*
X46465Y225074D01*
X46410Y225020D01*
X45733Y224117D01*
X45711Y224074D01*
X45668Y224011D01*
X45180Y222994D01*
X45167Y222947D01*
X45138Y222877D01*
X44857Y221784D01*
X44854Y221736D01*
X44838Y221661D01*
X44777Y220535D01*
X44779Y220519D01*
X44776Y220500D01*
X44776Y209500D01*
X44779Y209485D01*
X44777Y209465D01*
X44838Y208339D01*
X44850Y208292D01*
X44857Y208216D01*
X45138Y207123D01*
X45158Y207079D01*
X45180Y207006D01*
X45668Y205989D01*
X45697Y205950D01*
X45733Y205883D01*
X46410Y204980D01*
X46445Y204947D01*
X46494Y204889D01*
X47334Y204136D01*
X47375Y204110D01*
X47435Y204062D01*
X48406Y203488D01*
X48451Y203471D01*
X48518Y203435D01*
X49583Y203061D01*
X49630Y203053D01*
X49704Y203031D01*
X50820Y202872D01*
X50821Y202872D01*
X51008Y202873D01*
G37*
D10*
X158090Y321611D03*
X148590Y321611D03*
X139090Y321611D03*
X139090Y295609D03*
X158090Y295609D03*
D11*
X39720Y325230D03*
X18720Y325230D03*
X14960Y362760D03*
X35960Y362760D03*
D12*
X60350Y326390D03*
X79350Y326390D03*
X59240Y361950D03*
X78240Y361950D03*
D13*
X72560Y419260D03*
X72560Y439260D03*
D14*
X20560Y395260D03*
X20560Y463260D03*
D15*
X97790Y295250D03*
X97790Y276250D03*
D12*
X160630Y259080D03*
X141630Y259080D03*
D16*
X49660Y267000D03*
X49660Y260500D03*
X49660Y254000D03*
X49660Y247500D03*
X49660Y241000D03*
D17*
X21910Y261500D03*
X21910Y246500D03*
D18*
X22910Y290000D03*
X22910Y218000D03*
D19*
X132260Y576960D03*
X132260Y560960D03*
X91260Y560960D03*
X91260Y576960D03*
D20*
X123740Y477520D03*
X160740Y477520D03*
D12*
X141470Y443380D03*
X160470Y443380D03*
X141160Y408460D03*
X160160Y408460D03*
D21*
X140970Y379760D03*
X140970Y351760D03*
D22*
X464700Y116950D03*
D23*
X457200Y116950D03*
D22*
X449700Y116950D03*
X449700Y98950D03*
D23*
X457200Y98950D03*
D22*
X464700Y98950D03*
D12*
X568350Y462280D03*
X587350Y462280D03*
D11*
X587080Y491490D03*
X566080Y491490D03*
X587080Y523240D03*
X566080Y523240D03*
D15*
X533400Y490830D03*
X533400Y471830D03*
X481330Y521310D03*
X481330Y502310D03*
D24*
X224790Y92710D03*
X224790Y118110D03*
X292100Y102870D03*
X292100Y128270D03*
D25*
X395420Y123230D03*
X388920Y123230D03*
X382420Y123230D03*
X375920Y123230D03*
X369420Y123230D03*
X362920Y123230D03*
X356420Y123230D03*
X356420Y64730D03*
X362920Y64730D03*
X369420Y64730D03*
X375920Y64730D03*
X382420Y64730D03*
X388920Y64730D03*
X395420Y64730D03*
D26*
X232410Y557276D03*
D27*
X246364Y572516D03*
X218456Y572516D03*
D28*
X22860Y178850D03*
X22860Y151350D03*
D29*
X38110Y165100D03*
D30*
X254250Y166580D02*
X254250Y178580D01*
X264250Y178580D02*
X264250Y166580D01*
X274250Y166580D02*
X274250Y178580D01*
X284250Y178580D02*
X284250Y166580D01*
X294250Y166580D02*
X294250Y178580D01*
X304250Y178580D02*
X304250Y166580D01*
X314250Y166580D02*
X314250Y178580D01*
X324250Y178580D02*
X324250Y166580D01*
X334250Y166580D02*
X334250Y178580D01*
X344250Y178580D02*
X344250Y166580D01*
X354250Y166580D02*
X354250Y178580D01*
X364250Y178580D02*
X364250Y166580D01*
X374250Y166580D02*
X374250Y178580D01*
X384250Y178580D02*
X384250Y166580D01*
X394250Y166580D02*
X394250Y178580D01*
X404250Y178580D02*
X404250Y166580D01*
X414250Y166580D02*
X414250Y178580D01*
X424250Y178580D02*
X424250Y166580D01*
X434250Y166580D02*
X434250Y178580D01*
X444250Y178580D02*
X444250Y166580D01*
X493250Y227580D02*
X505250Y227580D01*
X505250Y237580D02*
X493250Y237580D01*
X493250Y247580D02*
X505250Y247580D01*
X505250Y257580D02*
X493250Y257580D01*
X493250Y267580D02*
X505250Y267580D01*
X505250Y277580D02*
X493250Y277580D01*
X493250Y287580D02*
X505250Y287580D01*
X505250Y297580D02*
X493250Y297580D01*
X493250Y307580D02*
X505250Y307580D01*
X505250Y317580D02*
X493250Y317580D01*
X493250Y327580D02*
X505250Y327580D01*
X505250Y337580D02*
X493250Y337580D01*
X493250Y347580D02*
X505250Y347580D01*
X505250Y357580D02*
X493250Y357580D01*
X493250Y367580D02*
X505250Y367580D01*
X505250Y377580D02*
X493250Y377580D01*
X493250Y387580D02*
X505250Y387580D01*
X505250Y397580D02*
X493250Y397580D01*
X493250Y407580D02*
X505250Y407580D01*
X505250Y417580D02*
X493250Y417580D01*
X444250Y466580D02*
X444250Y478580D01*
X434250Y478580D02*
X434250Y466580D01*
X424250Y466580D02*
X424250Y478580D01*
X414250Y478580D02*
X414250Y466580D01*
X404250Y466580D02*
X404250Y478580D01*
X394250Y478580D02*
X394250Y466580D01*
X384250Y466580D02*
X384250Y478580D01*
X374250Y478580D02*
X374250Y466580D01*
X364250Y466580D02*
X364250Y478580D01*
X354250Y478580D02*
X354250Y466580D01*
X344250Y466580D02*
X344250Y478580D01*
X334250Y478580D02*
X334250Y466580D01*
X324250Y466580D02*
X324250Y478580D01*
X314250Y478580D02*
X314250Y466580D01*
X304250Y466580D02*
X304250Y478580D01*
X294250Y478580D02*
X294250Y466580D01*
X284250Y466580D02*
X284250Y478580D01*
X274250Y478580D02*
X274250Y466580D01*
X264250Y466580D02*
X264250Y478580D01*
X254250Y478580D02*
X254250Y466580D01*
X205250Y417580D02*
X193250Y417580D01*
X193250Y407580D02*
X205250Y407580D01*
X205250Y397580D02*
X193250Y397580D01*
X193250Y387580D02*
X205250Y387580D01*
X205250Y377580D02*
X193250Y377580D01*
X193250Y367580D02*
X205250Y367580D01*
X205250Y357580D02*
X193250Y357580D01*
X193250Y347580D02*
X205250Y347580D01*
X205250Y337580D02*
X193250Y337580D01*
X193250Y327580D02*
X205250Y327580D01*
X205250Y317580D02*
X193250Y317580D01*
X193250Y307580D02*
X205250Y307580D01*
X205250Y297580D02*
X193250Y297580D01*
X193250Y287580D02*
X205250Y287580D01*
X205250Y277580D02*
X193250Y277580D01*
X193250Y267580D02*
X205250Y267580D01*
X205250Y257580D02*
X193250Y257580D01*
X193250Y247580D02*
X205250Y247580D01*
X205250Y237580D02*
X193250Y237580D01*
X193250Y227580D02*
X205250Y227580D01*
D31*
X560040Y407670D03*
X588040Y407670D03*
D24*
X157480Y93980D03*
X157480Y119380D03*
D12*
X288900Y71120D03*
X269900Y71120D03*
D32*
X331470Y97950D03*
X321970Y117950D03*
X340970Y117950D03*
D12*
X145440Y217170D03*
X164440Y217170D03*
D33*
X96520Y217170D03*
X116840Y217170D03*
D12*
X165710Y185420D03*
X146710Y185420D03*
D15*
X250190Y117500D03*
X250190Y136500D03*
D24*
X191770Y120650D03*
X191770Y146050D03*
D21*
X532130Y247680D03*
X532130Y219680D03*
X579120Y257840D03*
X579120Y229840D03*
M02*
