G04 EAGLE Gerber X2 export*
%TF.Part,Single*%
%TF.FileFunction,Paste,Top*%
%TF.FilePolarity,Positive*%
%TF.GenerationSoftware,Autodesk,EAGLE,9.1.0*%
%TF.CreationDate,2018-08-24T06:26:27Z*%
G75*
%MOMM*%
%FSLAX34Y34*%
%LPD*%
%AMOC8*
5,1,8,0,0,1.08239X$1,22.5*%
G01*
%ADD10R,0.550000X1.200000*%
%ADD11R,1.200000X1.200000*%
%ADD12R,1.300000X1.500000*%
%ADD13R,4.600000X1.000000*%
%ADD14R,3.400000X1.600000*%
%ADD15R,1.500000X1.300000*%
%ADD16R,1.350000X0.400000*%
%ADD17R,2.000000X1.000000*%
%ADD18R,2.500000X2.500000*%
%ADD19R,0.900000X1.000000*%
%ADD20R,1.400000X1.400000*%
%ADD21R,2.700000X1.600000*%
%ADD22R,0.500000X0.500000*%
%ADD23R,0.400000X0.500000*%
%ADD24R,0.800000X1.350000*%
%ADD25R,0.350000X0.900000*%
%ADD26R,0.965200X0.762000*%
%ADD27R,0.812800X2.133600*%
%ADD28R,2.200000X1.050000*%
%ADD29R,0.800000X1.000000*%
%ADD30C,0.600000*%
%ADD31R,1.600000X2.700000*%
%ADD32R,1.000000X1.200000*%
%ADD33R,1.200000X1.300000*%

G36*
X51008Y280873D02*
X51008Y280873D01*
X52282Y281073D01*
X52329Y281090D01*
X52419Y281111D01*
X53615Y281589D01*
X53658Y281616D01*
X53741Y281656D01*
X54801Y282388D01*
X54837Y282424D01*
X54908Y282482D01*
X55779Y283432D01*
X55806Y283474D01*
X55863Y283547D01*
X56500Y284667D01*
X56517Y284714D01*
X56556Y284797D01*
X56929Y286031D01*
X56934Y286081D01*
X56954Y286171D01*
X57043Y287456D01*
X57041Y287476D01*
X57044Y287500D01*
X57044Y298500D01*
X57042Y298515D01*
X57043Y298535D01*
X56982Y299661D01*
X56971Y299708D01*
X56963Y299784D01*
X56682Y300877D01*
X56662Y300921D01*
X56640Y300994D01*
X56152Y302011D01*
X56124Y302050D01*
X56087Y302117D01*
X55410Y303020D01*
X55375Y303053D01*
X55326Y303111D01*
X54486Y303864D01*
X54445Y303890D01*
X54385Y303938D01*
X53414Y304512D01*
X53369Y304529D01*
X53302Y304565D01*
X52237Y304939D01*
X52190Y304947D01*
X52117Y304969D01*
X51000Y305128D01*
X50972Y305127D01*
X50820Y305128D01*
X49704Y304969D01*
X49658Y304954D01*
X49583Y304939D01*
X48518Y304565D01*
X48476Y304541D01*
X48406Y304512D01*
X47435Y303938D01*
X47398Y303906D01*
X47334Y303864D01*
X46494Y303111D01*
X46465Y303074D01*
X46410Y303020D01*
X45733Y302117D01*
X45711Y302074D01*
X45668Y302011D01*
X45180Y300994D01*
X45167Y300947D01*
X45138Y300877D01*
X44857Y299784D01*
X44854Y299736D01*
X44838Y299661D01*
X44777Y298535D01*
X44779Y298519D01*
X44776Y298500D01*
X44776Y287500D01*
X44779Y287485D01*
X44777Y287465D01*
X44838Y286339D01*
X44850Y286292D01*
X44857Y286216D01*
X45138Y285123D01*
X45158Y285079D01*
X45180Y285006D01*
X45668Y283989D01*
X45697Y283950D01*
X45733Y283883D01*
X46410Y282980D01*
X46445Y282947D01*
X46494Y282889D01*
X47334Y282136D01*
X47375Y282110D01*
X47435Y282062D01*
X48406Y281488D01*
X48451Y281471D01*
X48518Y281435D01*
X49583Y281061D01*
X49630Y281053D01*
X49704Y281031D01*
X50820Y280872D01*
X50821Y280872D01*
X51008Y280873D01*
G37*
G36*
X51008Y202873D02*
X51008Y202873D01*
X52282Y203073D01*
X52329Y203090D01*
X52419Y203111D01*
X53615Y203589D01*
X53658Y203616D01*
X53741Y203656D01*
X54801Y204388D01*
X54837Y204424D01*
X54908Y204482D01*
X55779Y205432D01*
X55806Y205474D01*
X55863Y205547D01*
X56500Y206667D01*
X56517Y206714D01*
X56556Y206797D01*
X56929Y208031D01*
X56934Y208081D01*
X56954Y208171D01*
X57043Y209456D01*
X57041Y209476D01*
X57044Y209500D01*
X57044Y220500D01*
X57042Y220515D01*
X57043Y220535D01*
X56982Y221661D01*
X56971Y221708D01*
X56963Y221784D01*
X56682Y222877D01*
X56662Y222921D01*
X56640Y222994D01*
X56152Y224011D01*
X56124Y224050D01*
X56087Y224117D01*
X55410Y225020D01*
X55375Y225053D01*
X55326Y225111D01*
X54486Y225864D01*
X54445Y225890D01*
X54385Y225938D01*
X53414Y226512D01*
X53369Y226529D01*
X53302Y226565D01*
X52237Y226939D01*
X52190Y226947D01*
X52117Y226969D01*
X51000Y227128D01*
X50972Y227127D01*
X50820Y227128D01*
X49704Y226969D01*
X49658Y226954D01*
X49583Y226939D01*
X48518Y226565D01*
X48476Y226541D01*
X48406Y226512D01*
X47435Y225938D01*
X47398Y225906D01*
X47334Y225864D01*
X46494Y225111D01*
X46465Y225074D01*
X46410Y225020D01*
X45733Y224117D01*
X45711Y224074D01*
X45668Y224011D01*
X45180Y222994D01*
X45167Y222947D01*
X45138Y222877D01*
X44857Y221784D01*
X44854Y221736D01*
X44838Y221661D01*
X44777Y220535D01*
X44779Y220519D01*
X44776Y220500D01*
X44776Y209500D01*
X44779Y209485D01*
X44777Y209465D01*
X44838Y208339D01*
X44850Y208292D01*
X44857Y208216D01*
X45138Y207123D01*
X45158Y207079D01*
X45180Y207006D01*
X45668Y205989D01*
X45697Y205950D01*
X45733Y205883D01*
X46410Y204980D01*
X46445Y204947D01*
X46494Y204889D01*
X47334Y204136D01*
X47375Y204110D01*
X47435Y204062D01*
X48406Y203488D01*
X48451Y203471D01*
X48518Y203435D01*
X49583Y203061D01*
X49630Y203053D01*
X49704Y203031D01*
X50820Y202872D01*
X50821Y202872D01*
X51008Y202873D01*
G37*
D10*
X117450Y320341D03*
X107950Y320341D03*
X98450Y320341D03*
X98450Y294339D03*
X117450Y294339D03*
D11*
X32100Y323960D03*
X11100Y323960D03*
X11150Y342440D03*
X32150Y342440D03*
D12*
X48920Y322580D03*
X67920Y322580D03*
X49080Y341630D03*
X68080Y341630D03*
D13*
X72560Y388780D03*
X72560Y408780D03*
D14*
X20560Y364780D03*
X20560Y432780D03*
D15*
X73660Y290170D03*
X73660Y271170D03*
D12*
X112370Y275590D03*
X93370Y275590D03*
D16*
X49660Y267000D03*
X49660Y260500D03*
X49660Y254000D03*
X49660Y247500D03*
X49660Y241000D03*
D17*
X21910Y261500D03*
X21910Y246500D03*
D18*
X22910Y290000D03*
X22910Y218000D03*
D19*
X128450Y484250D03*
X128450Y468250D03*
X87450Y468250D03*
X87450Y484250D03*
D20*
X89450Y447040D03*
X126450Y447040D03*
D12*
X107180Y421790D03*
X126180Y421790D03*
X108140Y400840D03*
X127140Y400840D03*
D21*
X110490Y370870D03*
X110490Y342870D03*
D22*
X379610Y116950D03*
D23*
X372110Y116950D03*
D22*
X364610Y116950D03*
X364610Y98950D03*
D23*
X372110Y98950D03*
D22*
X379610Y98950D03*
D15*
X351790Y457860D03*
X351790Y476860D03*
D11*
X335280Y486750D03*
X335280Y465750D03*
X294640Y486750D03*
X294640Y465750D03*
D15*
X314960Y475590D03*
X314960Y456590D03*
X278130Y475590D03*
X278130Y456590D03*
D24*
X139700Y57150D03*
X139700Y82550D03*
X160020Y64770D03*
X160020Y90170D03*
D25*
X314140Y110530D03*
X307640Y110530D03*
X301140Y110530D03*
X294640Y110530D03*
X288140Y110530D03*
X281640Y110530D03*
X275140Y110530D03*
X275140Y52030D03*
X281640Y52030D03*
X288140Y52030D03*
X294640Y52030D03*
X301140Y52030D03*
X307640Y52030D03*
X314140Y52030D03*
D26*
X204470Y456946D03*
D27*
X218424Y472186D03*
X190516Y472186D03*
D28*
X21590Y187740D03*
X21590Y160240D03*
D29*
X36840Y173990D03*
D30*
X194560Y143020D02*
X194560Y131020D01*
X204560Y131020D02*
X204560Y143020D01*
X214560Y143020D02*
X214560Y131020D01*
X224560Y131020D02*
X224560Y143020D01*
X234560Y143020D02*
X234560Y131020D01*
X244560Y131020D02*
X244560Y143020D01*
X254560Y143020D02*
X254560Y131020D01*
X264560Y131020D02*
X264560Y143020D01*
X274560Y143020D02*
X274560Y131020D01*
X284560Y131020D02*
X284560Y143020D01*
X294560Y143020D02*
X294560Y131020D01*
X304560Y131020D02*
X304560Y143020D01*
X314560Y143020D02*
X314560Y131020D01*
X324560Y131020D02*
X324560Y143020D01*
X334560Y143020D02*
X334560Y131020D01*
X344560Y131020D02*
X344560Y143020D01*
X354560Y143020D02*
X354560Y131020D01*
X364560Y131020D02*
X364560Y143020D01*
X374560Y143020D02*
X374560Y131020D01*
X384560Y131020D02*
X384560Y143020D01*
X433560Y192020D02*
X445560Y192020D01*
X445560Y202020D02*
X433560Y202020D01*
X433560Y212020D02*
X445560Y212020D01*
X445560Y222020D02*
X433560Y222020D01*
X433560Y232020D02*
X445560Y232020D01*
X445560Y242020D02*
X433560Y242020D01*
X433560Y252020D02*
X445560Y252020D01*
X445560Y262020D02*
X433560Y262020D01*
X433560Y272020D02*
X445560Y272020D01*
X445560Y282020D02*
X433560Y282020D01*
X433560Y292020D02*
X445560Y292020D01*
X445560Y302020D02*
X433560Y302020D01*
X433560Y312020D02*
X445560Y312020D01*
X445560Y322020D02*
X433560Y322020D01*
X433560Y332020D02*
X445560Y332020D01*
X445560Y342020D02*
X433560Y342020D01*
X433560Y352020D02*
X445560Y352020D01*
X445560Y362020D02*
X433560Y362020D01*
X433560Y372020D02*
X445560Y372020D01*
X445560Y382020D02*
X433560Y382020D01*
X384560Y431020D02*
X384560Y443020D01*
X374560Y443020D02*
X374560Y431020D01*
X364560Y431020D02*
X364560Y443020D01*
X354560Y443020D02*
X354560Y431020D01*
X344560Y431020D02*
X344560Y443020D01*
X334560Y443020D02*
X334560Y431020D01*
X324560Y431020D02*
X324560Y443020D01*
X314560Y443020D02*
X314560Y431020D01*
X304560Y431020D02*
X304560Y443020D01*
X294560Y443020D02*
X294560Y431020D01*
X284560Y431020D02*
X284560Y443020D01*
X274560Y443020D02*
X274560Y431020D01*
X264560Y431020D02*
X264560Y443020D01*
X254560Y443020D02*
X254560Y431020D01*
X244560Y431020D02*
X244560Y443020D01*
X234560Y443020D02*
X234560Y431020D01*
X224560Y431020D02*
X224560Y443020D01*
X214560Y443020D02*
X214560Y431020D01*
X204560Y431020D02*
X204560Y443020D01*
X194560Y443020D02*
X194560Y431020D01*
X145560Y382020D02*
X133560Y382020D01*
X133560Y372020D02*
X145560Y372020D01*
X145560Y362020D02*
X133560Y362020D01*
X133560Y352020D02*
X145560Y352020D01*
X145560Y342020D02*
X133560Y342020D01*
X133560Y332020D02*
X145560Y332020D01*
X145560Y322020D02*
X133560Y322020D01*
X133560Y312020D02*
X145560Y312020D01*
X145560Y302020D02*
X133560Y302020D01*
X133560Y292020D02*
X145560Y292020D01*
X145560Y282020D02*
X133560Y282020D01*
X133560Y272020D02*
X145560Y272020D01*
X145560Y262020D02*
X133560Y262020D01*
X133560Y252020D02*
X145560Y252020D01*
X145560Y242020D02*
X133560Y242020D01*
X133560Y232020D02*
X145560Y232020D01*
X145560Y222020D02*
X133560Y222020D01*
X133560Y212020D02*
X145560Y212020D01*
X145560Y202020D02*
X133560Y202020D01*
X133560Y192020D02*
X145560Y192020D01*
D31*
X398810Y467360D03*
X370810Y467360D03*
D24*
X177800Y64770D03*
X177800Y90170D03*
D12*
X241910Y68580D03*
X222910Y68580D03*
D32*
X245110Y86520D03*
X235610Y106520D03*
X254610Y106520D03*
D12*
X102260Y214630D03*
X121260Y214630D03*
D33*
X66040Y214630D03*
X86360Y214630D03*
D12*
X113640Y196850D03*
X94640Y196850D03*
D15*
X139700Y98450D03*
X139700Y117450D03*
D24*
X195580Y64770D03*
X195580Y90170D03*
D21*
X471170Y172750D03*
X471170Y144750D03*
X474980Y233710D03*
X474980Y205710D03*
M02*
