G04 EAGLE Gerber X2 export*
%TF.Part,Single*%
%TF.FileFunction,Soldermask,Bot,1*%
%TF.FilePolarity,Negative*%
%TF.GenerationSoftware,Autodesk,EAGLE,9.1.3*%
%TF.CreationDate,2018-09-14T10:42:21Z*%
G75*
%MOMM*%
%FSLAX34Y34*%
%LPD*%
%AMOC8*
5,1,8,0,0,1.08239X$1,22.5*%
G01*
%ADD10C,0.801600*%
%ADD11R,2.601600X2.601600*%
%ADD12C,1.309600*%
%ADD13C,3.617600*%
%ADD14R,1.401600X1.801600*%
%ADD15C,1.201600*%
%ADD16R,1.625600X4.165600*%
%ADD17C,1.101600*%
%ADD18C,0.500000*%
%ADD19C,1.879600*%


D10*
X41910Y273500D03*
X41910Y234500D03*
D11*
X22910Y218000D03*
X22910Y290000D03*
D12*
X50910Y287000D02*
X50910Y299080D01*
X50910Y221000D02*
X50910Y208920D01*
D13*
X595630Y584200D03*
X27940Y584200D03*
D14*
X444280Y419330D03*
X418880Y419330D03*
X393480Y419330D03*
X393480Y162330D03*
X418880Y162330D03*
X444280Y162330D03*
D15*
X412750Y448310D03*
D16*
X257810Y572770D03*
X207010Y572770D03*
D17*
X59690Y509270D03*
D18*
X67190Y509270D02*
X67188Y509451D01*
X67181Y509632D01*
X67170Y509813D01*
X67155Y509994D01*
X67135Y510174D01*
X67111Y510354D01*
X67083Y510533D01*
X67050Y510711D01*
X67013Y510888D01*
X66972Y511065D01*
X66927Y511240D01*
X66877Y511415D01*
X66823Y511588D01*
X66765Y511759D01*
X66703Y511930D01*
X66636Y512098D01*
X66566Y512265D01*
X66492Y512431D01*
X66413Y512594D01*
X66331Y512755D01*
X66245Y512915D01*
X66155Y513072D01*
X66061Y513227D01*
X65964Y513380D01*
X65862Y513530D01*
X65758Y513678D01*
X65649Y513824D01*
X65538Y513966D01*
X65422Y514106D01*
X65304Y514243D01*
X65182Y514378D01*
X65057Y514509D01*
X64929Y514637D01*
X64798Y514762D01*
X64663Y514884D01*
X64526Y515002D01*
X64386Y515118D01*
X64244Y515229D01*
X64098Y515338D01*
X63950Y515442D01*
X63800Y515544D01*
X63647Y515641D01*
X63492Y515735D01*
X63335Y515825D01*
X63175Y515911D01*
X63014Y515993D01*
X62851Y516072D01*
X62685Y516146D01*
X62518Y516216D01*
X62350Y516283D01*
X62179Y516345D01*
X62008Y516403D01*
X61835Y516457D01*
X61660Y516507D01*
X61485Y516552D01*
X61308Y516593D01*
X61131Y516630D01*
X60953Y516663D01*
X60774Y516691D01*
X60594Y516715D01*
X60414Y516735D01*
X60233Y516750D01*
X60052Y516761D01*
X59871Y516768D01*
X59690Y516770D01*
X59509Y516768D01*
X59328Y516761D01*
X59147Y516750D01*
X58966Y516735D01*
X58786Y516715D01*
X58606Y516691D01*
X58427Y516663D01*
X58249Y516630D01*
X58072Y516593D01*
X57895Y516552D01*
X57720Y516507D01*
X57545Y516457D01*
X57372Y516403D01*
X57201Y516345D01*
X57030Y516283D01*
X56862Y516216D01*
X56695Y516146D01*
X56529Y516072D01*
X56366Y515993D01*
X56205Y515911D01*
X56045Y515825D01*
X55888Y515735D01*
X55733Y515641D01*
X55580Y515544D01*
X55430Y515442D01*
X55282Y515338D01*
X55136Y515229D01*
X54994Y515118D01*
X54854Y515002D01*
X54717Y514884D01*
X54582Y514762D01*
X54451Y514637D01*
X54323Y514509D01*
X54198Y514378D01*
X54076Y514243D01*
X53958Y514106D01*
X53842Y513966D01*
X53731Y513824D01*
X53622Y513678D01*
X53518Y513530D01*
X53416Y513380D01*
X53319Y513227D01*
X53225Y513072D01*
X53135Y512915D01*
X53049Y512755D01*
X52967Y512594D01*
X52888Y512431D01*
X52814Y512265D01*
X52744Y512098D01*
X52677Y511930D01*
X52615Y511759D01*
X52557Y511588D01*
X52503Y511415D01*
X52453Y511240D01*
X52408Y511065D01*
X52367Y510888D01*
X52330Y510711D01*
X52297Y510533D01*
X52269Y510354D01*
X52245Y510174D01*
X52225Y509994D01*
X52210Y509813D01*
X52199Y509632D01*
X52192Y509451D01*
X52190Y509270D01*
X52192Y509089D01*
X52199Y508908D01*
X52210Y508727D01*
X52225Y508546D01*
X52245Y508366D01*
X52269Y508186D01*
X52297Y508007D01*
X52330Y507829D01*
X52367Y507652D01*
X52408Y507475D01*
X52453Y507300D01*
X52503Y507125D01*
X52557Y506952D01*
X52615Y506781D01*
X52677Y506610D01*
X52744Y506442D01*
X52814Y506275D01*
X52888Y506109D01*
X52967Y505946D01*
X53049Y505785D01*
X53135Y505625D01*
X53225Y505468D01*
X53319Y505313D01*
X53416Y505160D01*
X53518Y505010D01*
X53622Y504862D01*
X53731Y504716D01*
X53842Y504574D01*
X53958Y504434D01*
X54076Y504297D01*
X54198Y504162D01*
X54323Y504031D01*
X54451Y503903D01*
X54582Y503778D01*
X54717Y503656D01*
X54854Y503538D01*
X54994Y503422D01*
X55136Y503311D01*
X55282Y503202D01*
X55430Y503098D01*
X55580Y502996D01*
X55733Y502899D01*
X55888Y502805D01*
X56045Y502715D01*
X56205Y502629D01*
X56366Y502547D01*
X56529Y502468D01*
X56695Y502394D01*
X56862Y502324D01*
X57030Y502257D01*
X57201Y502195D01*
X57372Y502137D01*
X57545Y502083D01*
X57720Y502033D01*
X57895Y501988D01*
X58072Y501947D01*
X58249Y501910D01*
X58427Y501877D01*
X58606Y501849D01*
X58786Y501825D01*
X58966Y501805D01*
X59147Y501790D01*
X59328Y501779D01*
X59509Y501772D01*
X59690Y501770D01*
X59871Y501772D01*
X60052Y501779D01*
X60233Y501790D01*
X60414Y501805D01*
X60594Y501825D01*
X60774Y501849D01*
X60953Y501877D01*
X61131Y501910D01*
X61308Y501947D01*
X61485Y501988D01*
X61660Y502033D01*
X61835Y502083D01*
X62008Y502137D01*
X62179Y502195D01*
X62350Y502257D01*
X62518Y502324D01*
X62685Y502394D01*
X62851Y502468D01*
X63014Y502547D01*
X63175Y502629D01*
X63335Y502715D01*
X63492Y502805D01*
X63647Y502899D01*
X63800Y502996D01*
X63950Y503098D01*
X64098Y503202D01*
X64244Y503311D01*
X64386Y503422D01*
X64526Y503538D01*
X64663Y503656D01*
X64798Y503778D01*
X64929Y503903D01*
X65057Y504031D01*
X65182Y504162D01*
X65304Y504297D01*
X65422Y504434D01*
X65538Y504574D01*
X65649Y504716D01*
X65758Y504862D01*
X65862Y505010D01*
X65964Y505160D01*
X66061Y505313D01*
X66155Y505468D01*
X66245Y505625D01*
X66331Y505785D01*
X66413Y505946D01*
X66492Y506109D01*
X66566Y506275D01*
X66636Y506442D01*
X66703Y506610D01*
X66765Y506781D01*
X66823Y506952D01*
X66877Y507125D01*
X66927Y507300D01*
X66972Y507475D01*
X67013Y507652D01*
X67050Y507829D01*
X67083Y508007D01*
X67111Y508186D01*
X67135Y508366D01*
X67155Y508546D01*
X67170Y508727D01*
X67181Y508908D01*
X67188Y509089D01*
X67190Y509270D01*
D17*
X289560Y255270D03*
D18*
X297060Y255270D02*
X297058Y255451D01*
X297051Y255632D01*
X297040Y255813D01*
X297025Y255994D01*
X297005Y256174D01*
X296981Y256354D01*
X296953Y256533D01*
X296920Y256711D01*
X296883Y256888D01*
X296842Y257065D01*
X296797Y257240D01*
X296747Y257415D01*
X296693Y257588D01*
X296635Y257759D01*
X296573Y257930D01*
X296506Y258098D01*
X296436Y258265D01*
X296362Y258431D01*
X296283Y258594D01*
X296201Y258755D01*
X296115Y258915D01*
X296025Y259072D01*
X295931Y259227D01*
X295834Y259380D01*
X295732Y259530D01*
X295628Y259678D01*
X295519Y259824D01*
X295408Y259966D01*
X295292Y260106D01*
X295174Y260243D01*
X295052Y260378D01*
X294927Y260509D01*
X294799Y260637D01*
X294668Y260762D01*
X294533Y260884D01*
X294396Y261002D01*
X294256Y261118D01*
X294114Y261229D01*
X293968Y261338D01*
X293820Y261442D01*
X293670Y261544D01*
X293517Y261641D01*
X293362Y261735D01*
X293205Y261825D01*
X293045Y261911D01*
X292884Y261993D01*
X292721Y262072D01*
X292555Y262146D01*
X292388Y262216D01*
X292220Y262283D01*
X292049Y262345D01*
X291878Y262403D01*
X291705Y262457D01*
X291530Y262507D01*
X291355Y262552D01*
X291178Y262593D01*
X291001Y262630D01*
X290823Y262663D01*
X290644Y262691D01*
X290464Y262715D01*
X290284Y262735D01*
X290103Y262750D01*
X289922Y262761D01*
X289741Y262768D01*
X289560Y262770D01*
X289379Y262768D01*
X289198Y262761D01*
X289017Y262750D01*
X288836Y262735D01*
X288656Y262715D01*
X288476Y262691D01*
X288297Y262663D01*
X288119Y262630D01*
X287942Y262593D01*
X287765Y262552D01*
X287590Y262507D01*
X287415Y262457D01*
X287242Y262403D01*
X287071Y262345D01*
X286900Y262283D01*
X286732Y262216D01*
X286565Y262146D01*
X286399Y262072D01*
X286236Y261993D01*
X286075Y261911D01*
X285915Y261825D01*
X285758Y261735D01*
X285603Y261641D01*
X285450Y261544D01*
X285300Y261442D01*
X285152Y261338D01*
X285006Y261229D01*
X284864Y261118D01*
X284724Y261002D01*
X284587Y260884D01*
X284452Y260762D01*
X284321Y260637D01*
X284193Y260509D01*
X284068Y260378D01*
X283946Y260243D01*
X283828Y260106D01*
X283712Y259966D01*
X283601Y259824D01*
X283492Y259678D01*
X283388Y259530D01*
X283286Y259380D01*
X283189Y259227D01*
X283095Y259072D01*
X283005Y258915D01*
X282919Y258755D01*
X282837Y258594D01*
X282758Y258431D01*
X282684Y258265D01*
X282614Y258098D01*
X282547Y257930D01*
X282485Y257759D01*
X282427Y257588D01*
X282373Y257415D01*
X282323Y257240D01*
X282278Y257065D01*
X282237Y256888D01*
X282200Y256711D01*
X282167Y256533D01*
X282139Y256354D01*
X282115Y256174D01*
X282095Y255994D01*
X282080Y255813D01*
X282069Y255632D01*
X282062Y255451D01*
X282060Y255270D01*
X282062Y255089D01*
X282069Y254908D01*
X282080Y254727D01*
X282095Y254546D01*
X282115Y254366D01*
X282139Y254186D01*
X282167Y254007D01*
X282200Y253829D01*
X282237Y253652D01*
X282278Y253475D01*
X282323Y253300D01*
X282373Y253125D01*
X282427Y252952D01*
X282485Y252781D01*
X282547Y252610D01*
X282614Y252442D01*
X282684Y252275D01*
X282758Y252109D01*
X282837Y251946D01*
X282919Y251785D01*
X283005Y251625D01*
X283095Y251468D01*
X283189Y251313D01*
X283286Y251160D01*
X283388Y251010D01*
X283492Y250862D01*
X283601Y250716D01*
X283712Y250574D01*
X283828Y250434D01*
X283946Y250297D01*
X284068Y250162D01*
X284193Y250031D01*
X284321Y249903D01*
X284452Y249778D01*
X284587Y249656D01*
X284724Y249538D01*
X284864Y249422D01*
X285006Y249311D01*
X285152Y249202D01*
X285300Y249098D01*
X285450Y248996D01*
X285603Y248899D01*
X285758Y248805D01*
X285915Y248715D01*
X286075Y248629D01*
X286236Y248547D01*
X286399Y248468D01*
X286565Y248394D01*
X286732Y248324D01*
X286900Y248257D01*
X287071Y248195D01*
X287242Y248137D01*
X287415Y248083D01*
X287590Y248033D01*
X287765Y247988D01*
X287942Y247947D01*
X288119Y247910D01*
X288297Y247877D01*
X288476Y247849D01*
X288656Y247825D01*
X288836Y247805D01*
X289017Y247790D01*
X289198Y247779D01*
X289379Y247772D01*
X289560Y247770D01*
X289741Y247772D01*
X289922Y247779D01*
X290103Y247790D01*
X290284Y247805D01*
X290464Y247825D01*
X290644Y247849D01*
X290823Y247877D01*
X291001Y247910D01*
X291178Y247947D01*
X291355Y247988D01*
X291530Y248033D01*
X291705Y248083D01*
X291878Y248137D01*
X292049Y248195D01*
X292220Y248257D01*
X292388Y248324D01*
X292555Y248394D01*
X292721Y248468D01*
X292884Y248547D01*
X293045Y248629D01*
X293205Y248715D01*
X293362Y248805D01*
X293517Y248899D01*
X293670Y248996D01*
X293820Y249098D01*
X293968Y249202D01*
X294114Y249311D01*
X294256Y249422D01*
X294396Y249538D01*
X294533Y249656D01*
X294668Y249778D01*
X294799Y249903D01*
X294927Y250031D01*
X295052Y250162D01*
X295174Y250297D01*
X295292Y250434D01*
X295408Y250574D01*
X295519Y250716D01*
X295628Y250862D01*
X295732Y251010D01*
X295834Y251160D01*
X295931Y251313D01*
X296025Y251468D01*
X296115Y251625D01*
X296201Y251785D01*
X296283Y251946D01*
X296362Y252109D01*
X296436Y252275D01*
X296506Y252442D01*
X296573Y252610D01*
X296635Y252781D01*
X296693Y252952D01*
X296747Y253125D01*
X296797Y253300D01*
X296842Y253475D01*
X296883Y253652D01*
X296920Y253829D01*
X296953Y254007D01*
X296981Y254186D01*
X297005Y254366D01*
X297025Y254546D01*
X297040Y254727D01*
X297051Y254908D01*
X297058Y255089D01*
X297060Y255270D01*
D19*
X105410Y21590D03*
X130810Y21590D03*
X156210Y21590D03*
X181610Y21590D03*
X207010Y21590D03*
X232410Y21590D03*
X257810Y21590D03*
X283210Y21590D03*
X308610Y21590D03*
X334010Y21590D03*
X359410Y21590D03*
X384810Y21590D03*
X410210Y21590D03*
X435610Y21590D03*
X461010Y21590D03*
X486410Y21590D03*
X511810Y21590D03*
X537210Y21590D03*
X294640Y513080D03*
X320040Y513080D03*
D13*
X593090Y29210D03*
X27940Y29210D03*
M02*
