G04 EAGLE Gerber X2 export*
%TF.Part,Single*%
%TF.FileFunction,Copper,L1,Top,Mixed*%
%TF.FilePolarity,Positive*%
%TF.GenerationSoftware,Autodesk,EAGLE,9.1.0*%
%TF.CreationDate,2018-08-06T08:24:04Z*%
G75*
%MOMM*%
%FSLAX34Y34*%
%LPD*%
%AMOC8*
5,1,8,0,0,1.08239X$1,22.5*%
G01*
%ADD10C,0.130000*%
%ADD11C,0.152400*%
%ADD12R,0.600000X0.700000*%
%ADD13R,1.900000X1.600000*%
%ADD14R,1.600000X1.900000*%
%ADD15C,0.900000*%
%ADD16C,0.700000*%
%ADD17C,0.330000*%
%ADD18C,0.006094*%
%ADD19R,7.000000X0.850000*%
%ADD20R,1.498600X2.006600*%
%ADD21R,3.810000X2.006600*%
%ADD22R,1.800000X2.200000*%
%ADD23R,2.700000X2.950000*%
%ADD24R,2.950000X2.700000*%


D10*
X368300Y266700D02*
X368300Y234500D01*
X0Y234500D02*
X0Y266700D01*
X650Y254000D02*
X367650Y254000D01*
X342300Y257192D01*
X342300Y250808D01*
X367650Y254000D01*
X342300Y255300D01*
X342300Y252700D02*
X367650Y254000D01*
X342300Y256600D01*
X342300Y251400D02*
X367650Y254000D01*
X26000Y257192D02*
X650Y254000D01*
X26000Y257192D02*
X26000Y250808D01*
X650Y254000D01*
X26000Y255300D01*
X26000Y252700D02*
X650Y254000D01*
X26000Y256600D01*
X26000Y251400D02*
X650Y254000D01*
D11*
X153002Y260507D02*
X157518Y260507D01*
X157651Y260509D01*
X157783Y260515D01*
X157915Y260525D01*
X158047Y260538D01*
X158179Y260556D01*
X158309Y260577D01*
X158440Y260602D01*
X158569Y260631D01*
X158697Y260664D01*
X158825Y260700D01*
X158951Y260740D01*
X159076Y260784D01*
X159200Y260832D01*
X159322Y260883D01*
X159443Y260938D01*
X159562Y260996D01*
X159680Y261058D01*
X159795Y261123D01*
X159909Y261192D01*
X160020Y261263D01*
X160129Y261339D01*
X160236Y261417D01*
X160341Y261498D01*
X160443Y261583D01*
X160543Y261670D01*
X160640Y261760D01*
X160735Y261853D01*
X160826Y261949D01*
X160915Y262047D01*
X161001Y262148D01*
X161084Y262252D01*
X161164Y262358D01*
X161240Y262466D01*
X161314Y262576D01*
X161384Y262689D01*
X161451Y262803D01*
X161514Y262920D01*
X161574Y263038D01*
X161631Y263158D01*
X161684Y263280D01*
X161733Y263403D01*
X161779Y263527D01*
X161821Y263653D01*
X161859Y263780D01*
X161894Y263908D01*
X161925Y264037D01*
X161952Y264166D01*
X161975Y264297D01*
X161995Y264428D01*
X162010Y264560D01*
X162022Y264692D01*
X162030Y264824D01*
X162034Y264957D01*
X162034Y265089D01*
X162030Y265222D01*
X162022Y265354D01*
X162010Y265486D01*
X161995Y265618D01*
X161975Y265749D01*
X161952Y265880D01*
X161925Y266009D01*
X161894Y266138D01*
X161859Y266266D01*
X161821Y266393D01*
X161779Y266519D01*
X161733Y266643D01*
X161684Y266766D01*
X161631Y266888D01*
X161574Y267008D01*
X161514Y267126D01*
X161451Y267243D01*
X161384Y267357D01*
X161314Y267470D01*
X161240Y267580D01*
X161164Y267688D01*
X161084Y267794D01*
X161001Y267898D01*
X160915Y267999D01*
X160826Y268097D01*
X160735Y268193D01*
X160640Y268286D01*
X160543Y268376D01*
X160443Y268463D01*
X160341Y268548D01*
X160236Y268629D01*
X160129Y268707D01*
X160020Y268783D01*
X159909Y268854D01*
X159795Y268923D01*
X159680Y268988D01*
X159562Y269050D01*
X159443Y269108D01*
X159322Y269163D01*
X159200Y269214D01*
X159076Y269262D01*
X158951Y269306D01*
X158825Y269346D01*
X158697Y269382D01*
X158569Y269415D01*
X158440Y269444D01*
X158309Y269469D01*
X158179Y269490D01*
X158047Y269508D01*
X157915Y269521D01*
X157783Y269531D01*
X157651Y269537D01*
X157518Y269539D01*
X158421Y276763D02*
X153002Y276763D01*
X158421Y276763D02*
X158540Y276761D01*
X158660Y276755D01*
X158779Y276745D01*
X158897Y276731D01*
X159016Y276714D01*
X159133Y276692D01*
X159250Y276667D01*
X159365Y276637D01*
X159480Y276604D01*
X159594Y276567D01*
X159706Y276527D01*
X159817Y276482D01*
X159926Y276434D01*
X160034Y276383D01*
X160140Y276328D01*
X160244Y276269D01*
X160346Y276207D01*
X160446Y276142D01*
X160544Y276073D01*
X160640Y276001D01*
X160733Y275926D01*
X160823Y275849D01*
X160911Y275768D01*
X160996Y275684D01*
X161078Y275597D01*
X161158Y275508D01*
X161234Y275416D01*
X161308Y275322D01*
X161378Y275225D01*
X161445Y275127D01*
X161509Y275026D01*
X161569Y274922D01*
X161626Y274817D01*
X161679Y274710D01*
X161729Y274602D01*
X161775Y274492D01*
X161817Y274380D01*
X161856Y274267D01*
X161891Y274153D01*
X161922Y274038D01*
X161950Y273921D01*
X161973Y273804D01*
X161993Y273687D01*
X162009Y273568D01*
X162021Y273449D01*
X162029Y273330D01*
X162033Y273211D01*
X162033Y273091D01*
X162029Y272972D01*
X162021Y272853D01*
X162009Y272734D01*
X161993Y272615D01*
X161973Y272498D01*
X161950Y272381D01*
X161922Y272264D01*
X161891Y272149D01*
X161856Y272035D01*
X161817Y271922D01*
X161775Y271810D01*
X161729Y271700D01*
X161679Y271592D01*
X161626Y271485D01*
X161569Y271380D01*
X161509Y271276D01*
X161445Y271175D01*
X161378Y271077D01*
X161308Y270980D01*
X161234Y270886D01*
X161158Y270794D01*
X161078Y270705D01*
X160996Y270618D01*
X160911Y270534D01*
X160823Y270453D01*
X160733Y270376D01*
X160640Y270301D01*
X160544Y270229D01*
X160446Y270160D01*
X160346Y270095D01*
X160244Y270033D01*
X160140Y269974D01*
X160034Y269919D01*
X159926Y269868D01*
X159817Y269820D01*
X159706Y269775D01*
X159594Y269735D01*
X159480Y269698D01*
X159365Y269665D01*
X159250Y269635D01*
X159133Y269610D01*
X159016Y269588D01*
X158897Y269571D01*
X158779Y269557D01*
X158660Y269547D01*
X158540Y269541D01*
X158421Y269539D01*
X158421Y269538D02*
X154808Y269538D01*
X168633Y269538D02*
X174052Y269538D01*
X174170Y269536D01*
X174288Y269530D01*
X174406Y269521D01*
X174523Y269507D01*
X174640Y269490D01*
X174757Y269469D01*
X174872Y269444D01*
X174987Y269415D01*
X175101Y269382D01*
X175213Y269346D01*
X175324Y269306D01*
X175434Y269263D01*
X175543Y269216D01*
X175650Y269166D01*
X175755Y269111D01*
X175858Y269054D01*
X175959Y268993D01*
X176059Y268929D01*
X176156Y268862D01*
X176251Y268792D01*
X176343Y268718D01*
X176434Y268642D01*
X176521Y268562D01*
X176606Y268480D01*
X176688Y268395D01*
X176768Y268308D01*
X176844Y268217D01*
X176918Y268125D01*
X176988Y268030D01*
X177055Y267933D01*
X177119Y267833D01*
X177180Y267732D01*
X177237Y267629D01*
X177292Y267524D01*
X177342Y267417D01*
X177389Y267308D01*
X177432Y267198D01*
X177472Y267087D01*
X177508Y266975D01*
X177541Y266861D01*
X177570Y266746D01*
X177595Y266631D01*
X177616Y266514D01*
X177633Y266397D01*
X177647Y266280D01*
X177656Y266162D01*
X177662Y266044D01*
X177664Y265926D01*
X177664Y265023D01*
X177665Y265023D02*
X177663Y264890D01*
X177657Y264758D01*
X177647Y264626D01*
X177634Y264494D01*
X177616Y264362D01*
X177595Y264232D01*
X177570Y264101D01*
X177541Y263972D01*
X177508Y263844D01*
X177472Y263716D01*
X177432Y263590D01*
X177388Y263465D01*
X177340Y263341D01*
X177289Y263219D01*
X177234Y263098D01*
X177176Y262979D01*
X177114Y262861D01*
X177049Y262746D01*
X176980Y262632D01*
X176909Y262521D01*
X176833Y262412D01*
X176755Y262305D01*
X176674Y262200D01*
X176589Y262098D01*
X176502Y261998D01*
X176412Y261901D01*
X176319Y261806D01*
X176223Y261715D01*
X176125Y261626D01*
X176024Y261540D01*
X175920Y261457D01*
X175814Y261377D01*
X175706Y261301D01*
X175596Y261227D01*
X175483Y261157D01*
X175369Y261090D01*
X175252Y261027D01*
X175134Y260967D01*
X175014Y260910D01*
X174892Y260857D01*
X174769Y260808D01*
X174645Y260762D01*
X174519Y260720D01*
X174392Y260682D01*
X174264Y260647D01*
X174135Y260616D01*
X174006Y260589D01*
X173875Y260566D01*
X173744Y260546D01*
X173612Y260531D01*
X173480Y260519D01*
X173348Y260511D01*
X173215Y260507D01*
X173083Y260507D01*
X172950Y260511D01*
X172818Y260519D01*
X172686Y260531D01*
X172554Y260546D01*
X172423Y260566D01*
X172292Y260589D01*
X172163Y260616D01*
X172034Y260647D01*
X171906Y260682D01*
X171779Y260720D01*
X171653Y260762D01*
X171529Y260808D01*
X171406Y260857D01*
X171284Y260910D01*
X171164Y260967D01*
X171046Y261027D01*
X170929Y261090D01*
X170815Y261157D01*
X170702Y261227D01*
X170592Y261301D01*
X170484Y261377D01*
X170378Y261457D01*
X170274Y261540D01*
X170173Y261626D01*
X170075Y261715D01*
X169979Y261806D01*
X169886Y261901D01*
X169796Y261998D01*
X169709Y262098D01*
X169624Y262200D01*
X169543Y262305D01*
X169465Y262412D01*
X169389Y262521D01*
X169318Y262632D01*
X169249Y262746D01*
X169184Y262861D01*
X169122Y262979D01*
X169064Y263098D01*
X169009Y263219D01*
X168958Y263341D01*
X168910Y263465D01*
X168866Y263590D01*
X168826Y263716D01*
X168790Y263844D01*
X168757Y263972D01*
X168728Y264101D01*
X168703Y264232D01*
X168682Y264362D01*
X168664Y264494D01*
X168651Y264626D01*
X168641Y264758D01*
X168635Y264890D01*
X168633Y265023D01*
X168633Y269538D01*
X168635Y269715D01*
X168642Y269893D01*
X168653Y270070D01*
X168668Y270246D01*
X168687Y270422D01*
X168711Y270598D01*
X168739Y270773D01*
X168772Y270948D01*
X168809Y271121D01*
X168850Y271294D01*
X168895Y271465D01*
X168944Y271635D01*
X168998Y271804D01*
X169055Y271972D01*
X169117Y272138D01*
X169183Y272303D01*
X169253Y272466D01*
X169327Y272627D01*
X169404Y272786D01*
X169486Y272944D01*
X169572Y273099D01*
X169661Y273252D01*
X169754Y273403D01*
X169851Y273552D01*
X169951Y273698D01*
X170055Y273842D01*
X170162Y273983D01*
X170273Y274121D01*
X170387Y274257D01*
X170505Y274390D01*
X170625Y274520D01*
X170749Y274647D01*
X170876Y274771D01*
X171006Y274891D01*
X171139Y275009D01*
X171274Y275123D01*
X171413Y275234D01*
X171554Y275341D01*
X171698Y275445D01*
X171844Y275545D01*
X171993Y275642D01*
X172144Y275735D01*
X172297Y275824D01*
X172452Y275910D01*
X172610Y275992D01*
X172769Y276069D01*
X172930Y276143D01*
X173093Y276213D01*
X173258Y276279D01*
X173424Y276341D01*
X173592Y276398D01*
X173761Y276452D01*
X173931Y276501D01*
X174102Y276546D01*
X174275Y276587D01*
X174448Y276624D01*
X174623Y276657D01*
X174798Y276685D01*
X174974Y276709D01*
X175150Y276728D01*
X175326Y276743D01*
X175503Y276754D01*
X175681Y276761D01*
X175858Y276763D01*
X183639Y261410D02*
X183639Y260507D01*
X183639Y261410D02*
X184542Y261410D01*
X184542Y260507D01*
X183639Y260507D01*
X190516Y265023D02*
X190518Y265156D01*
X190524Y265288D01*
X190534Y265420D01*
X190547Y265552D01*
X190565Y265684D01*
X190586Y265814D01*
X190611Y265945D01*
X190640Y266074D01*
X190673Y266202D01*
X190709Y266330D01*
X190749Y266456D01*
X190793Y266581D01*
X190841Y266705D01*
X190892Y266827D01*
X190947Y266948D01*
X191005Y267067D01*
X191067Y267185D01*
X191132Y267300D01*
X191201Y267414D01*
X191272Y267525D01*
X191348Y267634D01*
X191426Y267741D01*
X191507Y267846D01*
X191592Y267948D01*
X191679Y268048D01*
X191769Y268145D01*
X191862Y268240D01*
X191958Y268331D01*
X192056Y268420D01*
X192157Y268506D01*
X192261Y268589D01*
X192367Y268669D01*
X192475Y268745D01*
X192585Y268819D01*
X192698Y268889D01*
X192812Y268956D01*
X192929Y269019D01*
X193047Y269079D01*
X193167Y269136D01*
X193289Y269189D01*
X193412Y269238D01*
X193536Y269284D01*
X193662Y269326D01*
X193789Y269364D01*
X193917Y269399D01*
X194046Y269430D01*
X194175Y269457D01*
X194306Y269480D01*
X194437Y269500D01*
X194569Y269515D01*
X194701Y269527D01*
X194833Y269535D01*
X194966Y269539D01*
X195098Y269539D01*
X195231Y269535D01*
X195363Y269527D01*
X195495Y269515D01*
X195627Y269500D01*
X195758Y269480D01*
X195889Y269457D01*
X196018Y269430D01*
X196147Y269399D01*
X196275Y269364D01*
X196402Y269326D01*
X196528Y269284D01*
X196652Y269238D01*
X196775Y269189D01*
X196897Y269136D01*
X197017Y269079D01*
X197135Y269019D01*
X197252Y268956D01*
X197366Y268889D01*
X197479Y268819D01*
X197589Y268745D01*
X197697Y268669D01*
X197803Y268589D01*
X197907Y268506D01*
X198008Y268420D01*
X198106Y268331D01*
X198202Y268240D01*
X198295Y268145D01*
X198385Y268048D01*
X198472Y267948D01*
X198557Y267846D01*
X198638Y267741D01*
X198716Y267634D01*
X198792Y267525D01*
X198863Y267414D01*
X198932Y267300D01*
X198997Y267185D01*
X199059Y267067D01*
X199117Y266948D01*
X199172Y266827D01*
X199223Y266705D01*
X199271Y266581D01*
X199315Y266456D01*
X199355Y266330D01*
X199391Y266202D01*
X199424Y266074D01*
X199453Y265945D01*
X199478Y265814D01*
X199499Y265684D01*
X199517Y265552D01*
X199530Y265420D01*
X199540Y265288D01*
X199546Y265156D01*
X199548Y265023D01*
X199546Y264890D01*
X199540Y264758D01*
X199530Y264626D01*
X199517Y264494D01*
X199499Y264362D01*
X199478Y264232D01*
X199453Y264101D01*
X199424Y263972D01*
X199391Y263844D01*
X199355Y263716D01*
X199315Y263590D01*
X199271Y263465D01*
X199223Y263341D01*
X199172Y263219D01*
X199117Y263098D01*
X199059Y262979D01*
X198997Y262861D01*
X198932Y262746D01*
X198863Y262632D01*
X198792Y262521D01*
X198716Y262412D01*
X198638Y262305D01*
X198557Y262200D01*
X198472Y262098D01*
X198385Y261998D01*
X198295Y261901D01*
X198202Y261806D01*
X198106Y261715D01*
X198008Y261626D01*
X197907Y261540D01*
X197803Y261457D01*
X197697Y261377D01*
X197589Y261301D01*
X197479Y261227D01*
X197366Y261157D01*
X197252Y261090D01*
X197135Y261027D01*
X197017Y260967D01*
X196897Y260910D01*
X196775Y260857D01*
X196652Y260808D01*
X196528Y260762D01*
X196402Y260720D01*
X196275Y260682D01*
X196147Y260647D01*
X196018Y260616D01*
X195889Y260589D01*
X195758Y260566D01*
X195627Y260546D01*
X195495Y260531D01*
X195363Y260519D01*
X195231Y260511D01*
X195098Y260507D01*
X194966Y260507D01*
X194833Y260511D01*
X194701Y260519D01*
X194569Y260531D01*
X194437Y260546D01*
X194306Y260566D01*
X194175Y260589D01*
X194046Y260616D01*
X193917Y260647D01*
X193789Y260682D01*
X193662Y260720D01*
X193536Y260762D01*
X193412Y260808D01*
X193289Y260857D01*
X193167Y260910D01*
X193047Y260967D01*
X192929Y261027D01*
X192812Y261090D01*
X192698Y261157D01*
X192585Y261227D01*
X192475Y261301D01*
X192367Y261377D01*
X192261Y261457D01*
X192157Y261540D01*
X192056Y261626D01*
X191958Y261715D01*
X191862Y261806D01*
X191769Y261901D01*
X191679Y261998D01*
X191592Y262098D01*
X191507Y262200D01*
X191426Y262305D01*
X191348Y262412D01*
X191272Y262521D01*
X191201Y262632D01*
X191132Y262746D01*
X191067Y262861D01*
X191005Y262979D01*
X190947Y263098D01*
X190892Y263219D01*
X190841Y263341D01*
X190793Y263465D01*
X190749Y263590D01*
X190709Y263716D01*
X190673Y263844D01*
X190640Y263972D01*
X190611Y264101D01*
X190586Y264232D01*
X190565Y264362D01*
X190547Y264494D01*
X190534Y264626D01*
X190524Y264758D01*
X190518Y264890D01*
X190516Y265023D01*
X191420Y273151D02*
X191422Y273270D01*
X191428Y273390D01*
X191438Y273509D01*
X191452Y273627D01*
X191469Y273746D01*
X191491Y273863D01*
X191516Y273980D01*
X191546Y274095D01*
X191579Y274210D01*
X191616Y274324D01*
X191656Y274436D01*
X191701Y274547D01*
X191749Y274656D01*
X191800Y274764D01*
X191855Y274870D01*
X191914Y274974D01*
X191976Y275076D01*
X192041Y275176D01*
X192110Y275274D01*
X192182Y275370D01*
X192257Y275463D01*
X192334Y275553D01*
X192415Y275641D01*
X192499Y275726D01*
X192586Y275808D01*
X192675Y275888D01*
X192767Y275964D01*
X192861Y276038D01*
X192958Y276108D01*
X193056Y276175D01*
X193157Y276239D01*
X193261Y276299D01*
X193366Y276356D01*
X193473Y276409D01*
X193581Y276459D01*
X193691Y276505D01*
X193803Y276547D01*
X193916Y276586D01*
X194030Y276621D01*
X194145Y276652D01*
X194262Y276680D01*
X194379Y276703D01*
X194496Y276723D01*
X194615Y276739D01*
X194734Y276751D01*
X194853Y276759D01*
X194972Y276763D01*
X195092Y276763D01*
X195211Y276759D01*
X195330Y276751D01*
X195449Y276739D01*
X195568Y276723D01*
X195685Y276703D01*
X195802Y276680D01*
X195919Y276652D01*
X196034Y276621D01*
X196148Y276586D01*
X196261Y276547D01*
X196373Y276505D01*
X196483Y276459D01*
X196591Y276409D01*
X196698Y276356D01*
X196803Y276299D01*
X196907Y276239D01*
X197008Y276175D01*
X197106Y276108D01*
X197203Y276038D01*
X197297Y275964D01*
X197389Y275888D01*
X197478Y275808D01*
X197565Y275726D01*
X197649Y275641D01*
X197730Y275553D01*
X197807Y275463D01*
X197882Y275370D01*
X197954Y275274D01*
X198023Y275176D01*
X198088Y275076D01*
X198150Y274974D01*
X198209Y274870D01*
X198264Y274764D01*
X198315Y274656D01*
X198363Y274547D01*
X198408Y274436D01*
X198448Y274324D01*
X198485Y274210D01*
X198518Y274095D01*
X198548Y273980D01*
X198573Y273863D01*
X198595Y273746D01*
X198612Y273627D01*
X198626Y273509D01*
X198636Y273390D01*
X198642Y273270D01*
X198644Y273151D01*
X198642Y273032D01*
X198636Y272912D01*
X198626Y272793D01*
X198612Y272675D01*
X198595Y272556D01*
X198573Y272439D01*
X198548Y272322D01*
X198518Y272207D01*
X198485Y272092D01*
X198448Y271978D01*
X198408Y271866D01*
X198363Y271755D01*
X198315Y271646D01*
X198264Y271538D01*
X198209Y271432D01*
X198150Y271328D01*
X198088Y271226D01*
X198023Y271126D01*
X197954Y271028D01*
X197882Y270932D01*
X197807Y270839D01*
X197730Y270749D01*
X197649Y270661D01*
X197565Y270576D01*
X197478Y270494D01*
X197389Y270414D01*
X197297Y270338D01*
X197203Y270264D01*
X197106Y270194D01*
X197008Y270127D01*
X196907Y270063D01*
X196803Y270003D01*
X196698Y269946D01*
X196591Y269893D01*
X196483Y269843D01*
X196373Y269797D01*
X196261Y269755D01*
X196148Y269716D01*
X196034Y269681D01*
X195919Y269650D01*
X195802Y269622D01*
X195685Y269599D01*
X195568Y269579D01*
X195449Y269563D01*
X195330Y269551D01*
X195211Y269543D01*
X195092Y269539D01*
X194972Y269539D01*
X194853Y269543D01*
X194734Y269551D01*
X194615Y269563D01*
X194496Y269579D01*
X194379Y269599D01*
X194262Y269622D01*
X194145Y269650D01*
X194030Y269681D01*
X193916Y269716D01*
X193803Y269755D01*
X193691Y269797D01*
X193581Y269843D01*
X193473Y269893D01*
X193366Y269946D01*
X193261Y270003D01*
X193157Y270063D01*
X193056Y270127D01*
X192958Y270194D01*
X192861Y270264D01*
X192767Y270338D01*
X192675Y270414D01*
X192586Y270494D01*
X192499Y270576D01*
X192415Y270661D01*
X192334Y270749D01*
X192257Y270839D01*
X192182Y270932D01*
X192110Y271028D01*
X192041Y271126D01*
X191976Y271226D01*
X191914Y271328D01*
X191855Y271432D01*
X191800Y271538D01*
X191749Y271646D01*
X191701Y271755D01*
X191656Y271866D01*
X191616Y271978D01*
X191579Y272092D01*
X191546Y272207D01*
X191516Y272322D01*
X191491Y272439D01*
X191469Y272556D01*
X191452Y272675D01*
X191438Y272793D01*
X191428Y272912D01*
X191422Y273032D01*
X191420Y273151D01*
X206148Y260507D02*
X210664Y260507D01*
X210797Y260509D01*
X210929Y260515D01*
X211061Y260525D01*
X211193Y260538D01*
X211325Y260556D01*
X211455Y260577D01*
X211586Y260602D01*
X211715Y260631D01*
X211843Y260664D01*
X211971Y260700D01*
X212097Y260740D01*
X212222Y260784D01*
X212346Y260832D01*
X212468Y260883D01*
X212589Y260938D01*
X212708Y260996D01*
X212826Y261058D01*
X212941Y261123D01*
X213055Y261192D01*
X213166Y261263D01*
X213275Y261339D01*
X213382Y261417D01*
X213487Y261498D01*
X213589Y261583D01*
X213689Y261670D01*
X213786Y261760D01*
X213881Y261853D01*
X213972Y261949D01*
X214061Y262047D01*
X214147Y262148D01*
X214230Y262252D01*
X214310Y262358D01*
X214386Y262466D01*
X214460Y262576D01*
X214530Y262689D01*
X214597Y262803D01*
X214660Y262920D01*
X214720Y263038D01*
X214777Y263158D01*
X214830Y263280D01*
X214879Y263403D01*
X214925Y263527D01*
X214967Y263653D01*
X215005Y263780D01*
X215040Y263908D01*
X215071Y264037D01*
X215098Y264166D01*
X215121Y264297D01*
X215141Y264428D01*
X215156Y264560D01*
X215168Y264692D01*
X215176Y264824D01*
X215180Y264957D01*
X215180Y265089D01*
X215176Y265222D01*
X215168Y265354D01*
X215156Y265486D01*
X215141Y265618D01*
X215121Y265749D01*
X215098Y265880D01*
X215071Y266009D01*
X215040Y266138D01*
X215005Y266266D01*
X214967Y266393D01*
X214925Y266519D01*
X214879Y266643D01*
X214830Y266766D01*
X214777Y266888D01*
X214720Y267008D01*
X214660Y267126D01*
X214597Y267243D01*
X214530Y267357D01*
X214460Y267470D01*
X214386Y267580D01*
X214310Y267688D01*
X214230Y267794D01*
X214147Y267898D01*
X214061Y267999D01*
X213972Y268097D01*
X213881Y268193D01*
X213786Y268286D01*
X213689Y268376D01*
X213589Y268463D01*
X213487Y268548D01*
X213382Y268629D01*
X213275Y268707D01*
X213166Y268783D01*
X213055Y268854D01*
X212941Y268923D01*
X212826Y268988D01*
X212708Y269050D01*
X212589Y269108D01*
X212468Y269163D01*
X212346Y269214D01*
X212222Y269262D01*
X212097Y269306D01*
X211971Y269346D01*
X211843Y269382D01*
X211715Y269415D01*
X211586Y269444D01*
X211455Y269469D01*
X211325Y269490D01*
X211193Y269508D01*
X211061Y269521D01*
X210929Y269531D01*
X210797Y269537D01*
X210664Y269539D01*
X211567Y276763D02*
X206148Y276763D01*
X211567Y276763D02*
X211686Y276761D01*
X211806Y276755D01*
X211925Y276745D01*
X212043Y276731D01*
X212162Y276714D01*
X212279Y276692D01*
X212396Y276667D01*
X212511Y276637D01*
X212626Y276604D01*
X212740Y276567D01*
X212852Y276527D01*
X212963Y276482D01*
X213072Y276434D01*
X213180Y276383D01*
X213286Y276328D01*
X213390Y276269D01*
X213492Y276207D01*
X213592Y276142D01*
X213690Y276073D01*
X213786Y276001D01*
X213879Y275926D01*
X213969Y275849D01*
X214057Y275768D01*
X214142Y275684D01*
X214224Y275597D01*
X214304Y275508D01*
X214380Y275416D01*
X214454Y275322D01*
X214524Y275225D01*
X214591Y275127D01*
X214655Y275026D01*
X214715Y274922D01*
X214772Y274817D01*
X214825Y274710D01*
X214875Y274602D01*
X214921Y274492D01*
X214963Y274380D01*
X215002Y274267D01*
X215037Y274153D01*
X215068Y274038D01*
X215096Y273921D01*
X215119Y273804D01*
X215139Y273687D01*
X215155Y273568D01*
X215167Y273449D01*
X215175Y273330D01*
X215179Y273211D01*
X215179Y273091D01*
X215175Y272972D01*
X215167Y272853D01*
X215155Y272734D01*
X215139Y272615D01*
X215119Y272498D01*
X215096Y272381D01*
X215068Y272264D01*
X215037Y272149D01*
X215002Y272035D01*
X214963Y271922D01*
X214921Y271810D01*
X214875Y271700D01*
X214825Y271592D01*
X214772Y271485D01*
X214715Y271380D01*
X214655Y271276D01*
X214591Y271175D01*
X214524Y271077D01*
X214454Y270980D01*
X214380Y270886D01*
X214304Y270794D01*
X214224Y270705D01*
X214142Y270618D01*
X214057Y270534D01*
X213969Y270453D01*
X213879Y270376D01*
X213786Y270301D01*
X213690Y270229D01*
X213592Y270160D01*
X213492Y270095D01*
X213390Y270033D01*
X213286Y269974D01*
X213180Y269919D01*
X213072Y269868D01*
X212963Y269820D01*
X212852Y269775D01*
X212740Y269735D01*
X212626Y269698D01*
X212511Y269665D01*
X212396Y269635D01*
X212279Y269610D01*
X212162Y269588D01*
X212043Y269571D01*
X211925Y269557D01*
X211806Y269547D01*
X211686Y269541D01*
X211567Y269539D01*
X211567Y269538D02*
X207954Y269538D01*
D10*
X393700Y254000D02*
X438600Y254000D01*
X438600Y0D02*
X393700Y0D01*
X419100Y650D02*
X419100Y253350D01*
X415908Y228000D01*
X422292Y228000D01*
X419100Y253350D01*
X417800Y228000D01*
X420400Y228000D02*
X419100Y253350D01*
X416500Y228000D01*
X421700Y228000D02*
X419100Y253350D01*
X415908Y26000D02*
X419100Y650D01*
X415908Y26000D02*
X422292Y26000D01*
X419100Y650D01*
X417800Y26000D01*
X420400Y26000D02*
X419100Y650D01*
X416500Y26000D01*
X421700Y26000D02*
X419100Y650D01*
D11*
X396337Y100819D02*
X396339Y100944D01*
X396345Y101069D01*
X396354Y101194D01*
X396368Y101318D01*
X396385Y101442D01*
X396406Y101566D01*
X396431Y101688D01*
X396460Y101810D01*
X396492Y101931D01*
X396528Y102051D01*
X396568Y102170D01*
X396611Y102287D01*
X396658Y102403D01*
X396709Y102518D01*
X396763Y102630D01*
X396821Y102742D01*
X396881Y102851D01*
X396946Y102958D01*
X397013Y103064D01*
X397084Y103167D01*
X397158Y103268D01*
X397235Y103367D01*
X397315Y103463D01*
X397398Y103557D01*
X397483Y103648D01*
X397572Y103737D01*
X397663Y103822D01*
X397757Y103905D01*
X397853Y103985D01*
X397952Y104062D01*
X398053Y104136D01*
X398156Y104207D01*
X398262Y104274D01*
X398369Y104339D01*
X398478Y104399D01*
X398590Y104457D01*
X398702Y104511D01*
X398817Y104562D01*
X398933Y104609D01*
X399050Y104652D01*
X399169Y104692D01*
X399289Y104728D01*
X399410Y104760D01*
X399532Y104789D01*
X399654Y104814D01*
X399778Y104835D01*
X399902Y104852D01*
X400026Y104866D01*
X400151Y104875D01*
X400276Y104881D01*
X400401Y104883D01*
X396337Y100819D02*
X396339Y100676D01*
X396345Y100534D01*
X396355Y100391D01*
X396368Y100249D01*
X396386Y100108D01*
X396407Y99966D01*
X396432Y99826D01*
X396461Y99686D01*
X396494Y99547D01*
X396531Y99409D01*
X396571Y99272D01*
X396615Y99137D01*
X396663Y99002D01*
X396715Y98869D01*
X396770Y98737D01*
X396829Y98607D01*
X396891Y98479D01*
X396957Y98352D01*
X397026Y98227D01*
X397098Y98104D01*
X397174Y97983D01*
X397253Y97865D01*
X397336Y97748D01*
X397421Y97634D01*
X397510Y97522D01*
X397601Y97413D01*
X397696Y97306D01*
X397793Y97201D01*
X397894Y97100D01*
X397997Y97001D01*
X398102Y96905D01*
X398211Y96812D01*
X398322Y96722D01*
X398435Y96635D01*
X398550Y96551D01*
X398668Y96471D01*
X398788Y96393D01*
X398910Y96319D01*
X399034Y96249D01*
X399160Y96181D01*
X399288Y96118D01*
X399417Y96057D01*
X399548Y96000D01*
X399680Y95947D01*
X399814Y95898D01*
X399949Y95852D01*
X403562Y103528D02*
X403470Y103622D01*
X403376Y103712D01*
X403279Y103800D01*
X403179Y103885D01*
X403077Y103967D01*
X402972Y104045D01*
X402865Y104121D01*
X402756Y104193D01*
X402645Y104262D01*
X402531Y104328D01*
X402416Y104390D01*
X402299Y104449D01*
X402180Y104504D01*
X402060Y104555D01*
X401938Y104603D01*
X401815Y104648D01*
X401691Y104688D01*
X401565Y104725D01*
X401438Y104758D01*
X401311Y104787D01*
X401182Y104813D01*
X401053Y104834D01*
X400923Y104852D01*
X400793Y104865D01*
X400663Y104875D01*
X400532Y104881D01*
X400401Y104883D01*
X403562Y103528D02*
X412593Y95852D01*
X412593Y104883D01*
X412593Y111483D02*
X412593Y116902D01*
X412591Y117020D01*
X412585Y117138D01*
X412576Y117256D01*
X412562Y117373D01*
X412545Y117490D01*
X412524Y117607D01*
X412499Y117722D01*
X412470Y117837D01*
X412437Y117951D01*
X412401Y118063D01*
X412361Y118174D01*
X412318Y118284D01*
X412271Y118393D01*
X412221Y118500D01*
X412166Y118605D01*
X412109Y118708D01*
X412048Y118809D01*
X411984Y118909D01*
X411917Y119006D01*
X411847Y119101D01*
X411773Y119193D01*
X411697Y119284D01*
X411617Y119371D01*
X411535Y119456D01*
X411450Y119538D01*
X411363Y119618D01*
X411272Y119694D01*
X411180Y119768D01*
X411085Y119838D01*
X410988Y119905D01*
X410888Y119969D01*
X410787Y120030D01*
X410684Y120087D01*
X410579Y120142D01*
X410472Y120192D01*
X410363Y120239D01*
X410253Y120282D01*
X410142Y120322D01*
X410030Y120358D01*
X409916Y120391D01*
X409801Y120420D01*
X409686Y120445D01*
X409569Y120466D01*
X409452Y120483D01*
X409335Y120497D01*
X409217Y120506D01*
X409099Y120512D01*
X408981Y120514D01*
X407174Y120514D01*
X407056Y120512D01*
X406938Y120506D01*
X406820Y120497D01*
X406703Y120483D01*
X406586Y120466D01*
X406469Y120445D01*
X406354Y120420D01*
X406239Y120391D01*
X406125Y120358D01*
X406013Y120322D01*
X405902Y120282D01*
X405792Y120239D01*
X405683Y120192D01*
X405576Y120142D01*
X405471Y120087D01*
X405368Y120030D01*
X405267Y119969D01*
X405167Y119905D01*
X405070Y119838D01*
X404975Y119768D01*
X404883Y119694D01*
X404792Y119618D01*
X404705Y119538D01*
X404620Y119456D01*
X404538Y119371D01*
X404458Y119284D01*
X404382Y119193D01*
X404308Y119101D01*
X404238Y119006D01*
X404171Y118909D01*
X404107Y118809D01*
X404046Y118708D01*
X403989Y118605D01*
X403934Y118500D01*
X403884Y118393D01*
X403837Y118284D01*
X403794Y118174D01*
X403754Y118063D01*
X403718Y117951D01*
X403685Y117837D01*
X403656Y117722D01*
X403631Y117607D01*
X403610Y117490D01*
X403593Y117373D01*
X403579Y117256D01*
X403570Y117138D01*
X403564Y117020D01*
X403562Y116902D01*
X403562Y111483D01*
X396337Y111483D01*
X396337Y120514D01*
X411690Y126489D02*
X412593Y126489D01*
X411690Y126489D02*
X411690Y127392D01*
X412593Y127392D01*
X412593Y126489D01*
X408981Y133367D02*
X396337Y136979D01*
X408981Y133367D02*
X408981Y142398D01*
X405368Y139689D02*
X412593Y139689D01*
X404465Y148998D02*
X404145Y149002D01*
X403826Y149013D01*
X403506Y149032D01*
X403188Y149059D01*
X402870Y149093D01*
X402553Y149135D01*
X402237Y149185D01*
X401922Y149242D01*
X401609Y149306D01*
X401297Y149378D01*
X400987Y149457D01*
X400680Y149544D01*
X400374Y149638D01*
X400071Y149739D01*
X399770Y149848D01*
X399472Y149963D01*
X399176Y150086D01*
X398884Y150216D01*
X398595Y150353D01*
X398594Y150354D02*
X398486Y150393D01*
X398379Y150436D01*
X398274Y150482D01*
X398171Y150532D01*
X398069Y150586D01*
X397969Y150643D01*
X397871Y150704D01*
X397775Y150768D01*
X397682Y150835D01*
X397591Y150905D01*
X397502Y150979D01*
X397416Y151055D01*
X397333Y151135D01*
X397252Y151217D01*
X397174Y151302D01*
X397100Y151389D01*
X397028Y151480D01*
X396959Y151572D01*
X396894Y151667D01*
X396832Y151764D01*
X396773Y151863D01*
X396718Y151964D01*
X396667Y152067D01*
X396619Y152172D01*
X396574Y152278D01*
X396533Y152385D01*
X396496Y152494D01*
X396463Y152605D01*
X396434Y152716D01*
X396408Y152828D01*
X396386Y152941D01*
X396369Y153055D01*
X396355Y153169D01*
X396345Y153284D01*
X396339Y153399D01*
X396337Y153514D01*
X396339Y153629D01*
X396345Y153744D01*
X396355Y153859D01*
X396369Y153973D01*
X396386Y154087D01*
X396408Y154200D01*
X396434Y154312D01*
X396463Y154424D01*
X396496Y154534D01*
X396533Y154643D01*
X396574Y154751D01*
X396619Y154857D01*
X396667Y154962D01*
X396718Y155064D01*
X396774Y155166D01*
X396832Y155265D01*
X396894Y155362D01*
X396960Y155457D01*
X397028Y155549D01*
X397100Y155639D01*
X397174Y155727D01*
X397252Y155812D01*
X397333Y155894D01*
X397416Y155973D01*
X397502Y156050D01*
X397591Y156123D01*
X397682Y156194D01*
X397776Y156261D01*
X397871Y156325D01*
X397969Y156386D01*
X398069Y156443D01*
X398171Y156496D01*
X398275Y156547D01*
X398380Y156593D01*
X398487Y156636D01*
X398595Y156675D01*
X398595Y156674D02*
X398884Y156811D01*
X399176Y156941D01*
X399472Y157064D01*
X399770Y157179D01*
X400071Y157288D01*
X400374Y157389D01*
X400680Y157483D01*
X400987Y157570D01*
X401297Y157649D01*
X401609Y157721D01*
X401922Y157785D01*
X402237Y157842D01*
X402553Y157892D01*
X402870Y157934D01*
X403188Y157968D01*
X403506Y157995D01*
X403826Y158014D01*
X404145Y158025D01*
X404465Y158029D01*
X404465Y148998D02*
X404785Y149002D01*
X405104Y149013D01*
X405424Y149032D01*
X405742Y149059D01*
X406060Y149093D01*
X406377Y149135D01*
X406693Y149185D01*
X407008Y149242D01*
X407321Y149306D01*
X407633Y149378D01*
X407943Y149457D01*
X408250Y149544D01*
X408556Y149638D01*
X408859Y149739D01*
X409160Y149848D01*
X409458Y149963D01*
X409754Y150086D01*
X410046Y150216D01*
X410335Y150353D01*
X410336Y150353D02*
X410444Y150392D01*
X410551Y150435D01*
X410656Y150481D01*
X410760Y150532D01*
X410862Y150585D01*
X410962Y150642D01*
X411060Y150703D01*
X411155Y150767D01*
X411249Y150834D01*
X411340Y150905D01*
X411429Y150978D01*
X411515Y151055D01*
X411598Y151134D01*
X411679Y151216D01*
X411757Y151301D01*
X411831Y151389D01*
X411903Y151479D01*
X411972Y151572D01*
X412037Y151666D01*
X412099Y151763D01*
X412157Y151863D01*
X412213Y151964D01*
X412264Y152066D01*
X412312Y152171D01*
X412357Y152277D01*
X412398Y152385D01*
X412435Y152494D01*
X412468Y152604D01*
X412497Y152716D01*
X412523Y152828D01*
X412545Y152941D01*
X412562Y153055D01*
X412576Y153169D01*
X412586Y153284D01*
X412592Y153399D01*
X412594Y153514D01*
X410335Y156674D02*
X410046Y156811D01*
X409754Y156941D01*
X409458Y157064D01*
X409160Y157179D01*
X408859Y157288D01*
X408556Y157389D01*
X408250Y157483D01*
X407943Y157570D01*
X407633Y157649D01*
X407321Y157721D01*
X407008Y157785D01*
X406693Y157842D01*
X406377Y157892D01*
X406060Y157934D01*
X405742Y157968D01*
X405424Y157995D01*
X405104Y158014D01*
X404785Y158025D01*
X404465Y158029D01*
X410335Y156675D02*
X410443Y156636D01*
X410550Y156593D01*
X410655Y156547D01*
X410759Y156496D01*
X410861Y156443D01*
X410961Y156386D01*
X411059Y156325D01*
X411154Y156261D01*
X411248Y156194D01*
X411339Y156123D01*
X411428Y156050D01*
X411514Y155973D01*
X411597Y155894D01*
X411678Y155812D01*
X411756Y155727D01*
X411830Y155639D01*
X411902Y155549D01*
X411971Y155456D01*
X412036Y155362D01*
X412098Y155265D01*
X412156Y155165D01*
X412212Y155064D01*
X412263Y154961D01*
X412311Y154857D01*
X412356Y154751D01*
X412397Y154643D01*
X412434Y154534D01*
X412467Y154424D01*
X412496Y154312D01*
X412522Y154200D01*
X412544Y154087D01*
X412561Y153973D01*
X412575Y153859D01*
X412585Y153744D01*
X412591Y153629D01*
X412593Y153514D01*
X408981Y149901D02*
X399949Y157126D01*
D12*
X33100Y50800D03*
X43100Y50800D03*
D13*
X181600Y50800D03*
X148600Y50800D03*
D14*
X165100Y85100D03*
X165100Y118100D03*
D12*
X33100Y88900D03*
X43100Y88900D03*
D15*
X76900Y93200D03*
X88940Y93200D03*
X100980Y93200D03*
X76900Y81260D03*
X100980Y81260D03*
D16*
X76900Y59140D03*
X100980Y59140D03*
D17*
X82210Y67040D02*
X82212Y67205D01*
X82218Y67370D01*
X82228Y67535D01*
X82242Y67700D01*
X82261Y67864D01*
X82283Y68027D01*
X82309Y68191D01*
X82339Y68353D01*
X82374Y68515D01*
X82412Y68675D01*
X82454Y68835D01*
X82500Y68994D01*
X82550Y69151D01*
X82603Y69307D01*
X82661Y69462D01*
X82722Y69615D01*
X82787Y69767D01*
X82856Y69917D01*
X82929Y70066D01*
X83005Y70213D01*
X83084Y70357D01*
X83167Y70500D01*
X83254Y70641D01*
X83344Y70779D01*
X83438Y70915D01*
X83534Y71049D01*
X83634Y71181D01*
X83738Y71309D01*
X83844Y71436D01*
X83953Y71560D01*
X84066Y71681D01*
X84181Y71799D01*
X84299Y71914D01*
X84420Y72027D01*
X84544Y72136D01*
X84671Y72242D01*
X84799Y72346D01*
X84931Y72446D01*
X85065Y72542D01*
X85201Y72636D01*
X85339Y72726D01*
X85480Y72813D01*
X85623Y72896D01*
X85767Y72975D01*
X85914Y73051D01*
X86063Y73124D01*
X86213Y73193D01*
X86365Y73258D01*
X86518Y73319D01*
X86673Y73377D01*
X86829Y73430D01*
X86986Y73480D01*
X87145Y73526D01*
X87305Y73568D01*
X87465Y73606D01*
X87627Y73641D01*
X87789Y73671D01*
X87953Y73697D01*
X88116Y73719D01*
X88280Y73738D01*
X88445Y73752D01*
X88610Y73762D01*
X88775Y73768D01*
X88940Y73770D01*
X89105Y73768D01*
X89270Y73762D01*
X89435Y73752D01*
X89600Y73738D01*
X89764Y73719D01*
X89927Y73697D01*
X90091Y73671D01*
X90253Y73641D01*
X90415Y73606D01*
X90575Y73568D01*
X90735Y73526D01*
X90894Y73480D01*
X91051Y73430D01*
X91207Y73377D01*
X91362Y73319D01*
X91515Y73258D01*
X91667Y73193D01*
X91817Y73124D01*
X91966Y73051D01*
X92113Y72975D01*
X92257Y72896D01*
X92400Y72813D01*
X92541Y72726D01*
X92679Y72636D01*
X92815Y72542D01*
X92949Y72446D01*
X93081Y72346D01*
X93209Y72242D01*
X93336Y72136D01*
X93460Y72027D01*
X93581Y71914D01*
X93699Y71799D01*
X93814Y71681D01*
X93927Y71560D01*
X94036Y71436D01*
X94142Y71309D01*
X94246Y71181D01*
X94346Y71049D01*
X94442Y70915D01*
X94536Y70779D01*
X94626Y70641D01*
X94713Y70500D01*
X94796Y70357D01*
X94875Y70213D01*
X94951Y70066D01*
X95024Y69917D01*
X95093Y69767D01*
X95158Y69615D01*
X95219Y69462D01*
X95277Y69307D01*
X95330Y69151D01*
X95380Y68994D01*
X95426Y68835D01*
X95468Y68675D01*
X95506Y68515D01*
X95541Y68353D01*
X95571Y68191D01*
X95597Y68027D01*
X95619Y67864D01*
X95638Y67700D01*
X95652Y67535D01*
X95662Y67370D01*
X95668Y67205D01*
X95670Y67040D01*
X95668Y66875D01*
X95662Y66710D01*
X95652Y66545D01*
X95638Y66380D01*
X95619Y66216D01*
X95597Y66053D01*
X95571Y65889D01*
X95541Y65727D01*
X95506Y65565D01*
X95468Y65405D01*
X95426Y65245D01*
X95380Y65086D01*
X95330Y64929D01*
X95277Y64773D01*
X95219Y64618D01*
X95158Y64465D01*
X95093Y64313D01*
X95024Y64163D01*
X94951Y64014D01*
X94875Y63867D01*
X94796Y63723D01*
X94713Y63580D01*
X94626Y63439D01*
X94536Y63301D01*
X94442Y63165D01*
X94346Y63031D01*
X94246Y62899D01*
X94142Y62771D01*
X94036Y62644D01*
X93927Y62520D01*
X93814Y62399D01*
X93699Y62281D01*
X93581Y62166D01*
X93460Y62053D01*
X93336Y61944D01*
X93209Y61838D01*
X93081Y61734D01*
X92949Y61634D01*
X92815Y61538D01*
X92679Y61444D01*
X92541Y61354D01*
X92400Y61267D01*
X92257Y61184D01*
X92113Y61105D01*
X91966Y61029D01*
X91817Y60956D01*
X91667Y60887D01*
X91515Y60822D01*
X91362Y60761D01*
X91207Y60703D01*
X91051Y60650D01*
X90894Y60600D01*
X90735Y60554D01*
X90575Y60512D01*
X90415Y60474D01*
X90253Y60439D01*
X90091Y60409D01*
X89927Y60383D01*
X89764Y60361D01*
X89600Y60342D01*
X89435Y60328D01*
X89270Y60318D01*
X89105Y60312D01*
X88940Y60310D01*
X88775Y60312D01*
X88610Y60318D01*
X88445Y60328D01*
X88280Y60342D01*
X88116Y60361D01*
X87953Y60383D01*
X87789Y60409D01*
X87627Y60439D01*
X87465Y60474D01*
X87305Y60512D01*
X87145Y60554D01*
X86986Y60600D01*
X86829Y60650D01*
X86673Y60703D01*
X86518Y60761D01*
X86365Y60822D01*
X86213Y60887D01*
X86063Y60956D01*
X85914Y61029D01*
X85767Y61105D01*
X85623Y61184D01*
X85480Y61267D01*
X85339Y61354D01*
X85201Y61444D01*
X85065Y61538D01*
X84931Y61634D01*
X84799Y61734D01*
X84671Y61838D01*
X84544Y61944D01*
X84420Y62053D01*
X84299Y62166D01*
X84181Y62281D01*
X84066Y62399D01*
X83953Y62520D01*
X83844Y62644D01*
X83738Y62771D01*
X83634Y62899D01*
X83534Y63031D01*
X83438Y63165D01*
X83344Y63301D01*
X83254Y63439D01*
X83167Y63580D01*
X83084Y63723D01*
X83005Y63867D01*
X82929Y64014D01*
X82856Y64163D01*
X82787Y64313D01*
X82722Y64465D01*
X82661Y64618D01*
X82603Y64773D01*
X82550Y64929D01*
X82500Y65086D01*
X82454Y65245D01*
X82412Y65405D01*
X82374Y65565D01*
X82339Y65727D01*
X82309Y65889D01*
X82283Y66053D01*
X82261Y66216D01*
X82242Y66380D01*
X82228Y66545D01*
X82218Y66710D01*
X82212Y66875D01*
X82210Y67040D01*
D18*
X86898Y72614D02*
X90902Y72614D01*
X86898Y72614D02*
X86898Y74586D01*
X90902Y74586D01*
X90902Y72614D01*
X90902Y72672D02*
X86898Y72672D01*
X86898Y72730D02*
X90902Y72730D01*
X90902Y72788D02*
X86898Y72788D01*
X86898Y72846D02*
X90902Y72846D01*
X90902Y72904D02*
X86898Y72904D01*
X86898Y72962D02*
X90902Y72962D01*
X90902Y73020D02*
X86898Y73020D01*
X86898Y73078D02*
X90902Y73078D01*
X90902Y73136D02*
X86898Y73136D01*
X86898Y73194D02*
X90902Y73194D01*
X90902Y73252D02*
X86898Y73252D01*
X86898Y73310D02*
X90902Y73310D01*
X90902Y73368D02*
X86898Y73368D01*
X86898Y73426D02*
X90902Y73426D01*
X90902Y73484D02*
X86898Y73484D01*
X86898Y73542D02*
X90902Y73542D01*
X90902Y73600D02*
X86898Y73600D01*
X86898Y73658D02*
X90902Y73658D01*
X90902Y73716D02*
X86898Y73716D01*
X86898Y73774D02*
X90902Y73774D01*
X90902Y73832D02*
X86898Y73832D01*
X86898Y73890D02*
X90902Y73890D01*
X90902Y73948D02*
X86898Y73948D01*
X86898Y74006D02*
X90902Y74006D01*
X90902Y74064D02*
X86898Y74064D01*
X86898Y74122D02*
X90902Y74122D01*
X90902Y74180D02*
X86898Y74180D01*
X86898Y74238D02*
X90902Y74238D01*
X90902Y74296D02*
X86898Y74296D01*
X86898Y74354D02*
X90902Y74354D01*
X90902Y74412D02*
X86898Y74412D01*
X86898Y74470D02*
X90902Y74470D01*
X90902Y74528D02*
X86898Y74528D01*
X86898Y74586D02*
X90902Y74586D01*
D19*
X304800Y65800D03*
X304800Y50800D03*
X304800Y35800D03*
D20*
X78994Y171704D03*
X101854Y171704D03*
X124714Y171704D03*
D21*
X101600Y234696D03*
D22*
X292000Y139700D03*
X343000Y139700D03*
D23*
X228600Y105950D03*
X228600Y173450D03*
D24*
X245650Y215900D03*
X313150Y215900D03*
D11*
X70104Y88392D02*
X44196Y88392D01*
X70104Y88392D02*
X76200Y82296D01*
X44196Y88392D02*
X43100Y88900D01*
X76200Y82296D02*
X76900Y81260D01*
X33528Y88392D02*
X33528Y50800D01*
X33100Y50800D01*
X33528Y88392D02*
X33100Y88900D01*
X181600Y50800D02*
X182880Y51816D01*
X303784Y51816D02*
X304800Y50800D01*
X303784Y51816D02*
X182880Y51816D01*
X76900Y93200D02*
X76200Y94488D01*
X147828Y50292D02*
X148600Y50800D01*
X59200Y110900D02*
X59200Y127000D01*
X12700Y127000D01*
X12700Y25400D01*
X25400Y12700D01*
X139700Y12700D01*
X139700Y41900D01*
X148600Y50800D01*
X76900Y93200D02*
X59200Y110900D01*
X69088Y50800D02*
X43100Y50800D01*
X69088Y50800D02*
X76200Y57912D01*
X76900Y59140D01*
X102108Y59436D02*
X102108Y60960D01*
X103632Y62484D01*
X103632Y76200D02*
X103632Y79248D01*
X103632Y76200D02*
X103632Y62484D01*
X103632Y79248D02*
X102108Y80772D01*
X102108Y59436D02*
X100980Y59140D01*
X102108Y80772D02*
X100980Y81260D01*
X100584Y82296D02*
X89916Y92964D01*
X88940Y93200D01*
X100584Y82296D02*
X100980Y81260D01*
X103632Y83820D02*
X164592Y83820D01*
X103632Y83820D02*
X102108Y82296D01*
X164592Y83820D02*
X165100Y85100D01*
X102108Y82296D02*
X100980Y81260D01*
X77724Y57912D02*
X83820Y51816D01*
X94488Y51816D01*
X100584Y57912D01*
X77724Y57912D02*
X76900Y59140D01*
X100584Y57912D02*
X100980Y59140D01*
X165100Y85100D02*
X166116Y83820D01*
X91500Y76200D02*
X88900Y73600D01*
X91500Y76200D02*
X103632Y76200D01*
X165100Y85100D02*
X165100Y12700D01*
X317500Y12700D02*
X330200Y25400D01*
X330200Y38100D01*
X317500Y12700D02*
X165100Y12700D01*
X304800Y35800D02*
X327900Y35800D01*
X330200Y38100D01*
X78994Y128517D02*
X78994Y171704D01*
X78994Y128517D02*
X87648Y119863D01*
X87648Y94492D02*
X88940Y93200D01*
X87648Y94492D02*
X87648Y119863D01*
X165100Y85100D02*
X260633Y85100D01*
X228600Y173450D02*
X217142Y177800D01*
X317500Y177800D02*
X342900Y177800D01*
X342900Y215900D01*
X313150Y215900D01*
X317500Y141967D02*
X260633Y85100D01*
X317500Y141967D02*
X317500Y177800D01*
X217142Y177800D01*
X144018Y139700D02*
X124714Y159004D01*
X144018Y139700D02*
X292000Y139700D01*
X124714Y159004D02*
X124714Y171704D01*
X168910Y215900D01*
X245650Y215900D01*
X125880Y118100D02*
X100980Y93200D01*
X125880Y118100D02*
X165100Y118100D01*
X101854Y94074D02*
X100980Y93200D01*
X101854Y94074D02*
X101854Y171704D01*
X216450Y118100D02*
X228600Y105950D01*
X216450Y118100D02*
X165100Y118100D01*
X328937Y60452D02*
X331463Y60452D01*
X323589Y65800D02*
X304800Y65800D01*
X323589Y65800D02*
X328937Y60452D01*
X331463Y60452D02*
X343000Y71989D01*
X343000Y139700D01*
M02*
