G04 EAGLE Gerber X2 export*
%TF.Part,Single*%
%TF.FileFunction,Soldermask,Top,1*%
%TF.FilePolarity,Negative*%
%TF.GenerationSoftware,Autodesk,EAGLE,9.1.0*%
%TF.CreationDate,2018-08-06T08:24:04Z*%
G75*
%MOMM*%
%FSLAX34Y34*%
%LPD*%
%AMOC8*
5,1,8,0,0,1.08239X$1,22.5*%
G01*
%ADD10R,0.803200X0.903200*%
%ADD11R,2.103200X1.803200*%
%ADD12R,1.803200X2.103200*%
%ADD13C,1.103200*%
%ADD14C,0.903200*%
%ADD15C,0.350000*%
%ADD16C,0.803200*%
%ADD17C,0.211325*%
%ADD18R,7.203200X1.053200*%
%ADD19R,1.701800X2.209800*%
%ADD20R,4.013200X2.209800*%
%ADD21R,2.003200X2.403200*%
%ADD22R,2.903200X3.153200*%
%ADD23R,3.153200X2.903200*%


D10*
X33100Y50800D03*
X43100Y50800D03*
D11*
X181600Y50800D03*
X148600Y50800D03*
D12*
X165100Y85100D03*
X165100Y118100D03*
D10*
X33100Y88900D03*
X43100Y88900D03*
D13*
X76900Y93200D03*
X88940Y93200D03*
X100980Y93200D03*
X76900Y81260D03*
X100980Y81260D03*
D14*
X76900Y59140D03*
X100980Y59140D03*
D15*
X81940Y67040D02*
X81942Y67212D01*
X81948Y67383D01*
X81959Y67555D01*
X81974Y67726D01*
X81993Y67897D01*
X82016Y68067D01*
X82043Y68237D01*
X82075Y68406D01*
X82110Y68574D01*
X82150Y68741D01*
X82194Y68907D01*
X82241Y69072D01*
X82293Y69236D01*
X82349Y69398D01*
X82409Y69559D01*
X82473Y69719D01*
X82541Y69877D01*
X82612Y70033D01*
X82687Y70187D01*
X82767Y70340D01*
X82849Y70490D01*
X82936Y70639D01*
X83026Y70785D01*
X83120Y70929D01*
X83217Y71071D01*
X83318Y71210D01*
X83422Y71347D01*
X83529Y71481D01*
X83640Y71612D01*
X83753Y71741D01*
X83870Y71867D01*
X83990Y71990D01*
X84113Y72110D01*
X84239Y72227D01*
X84368Y72340D01*
X84499Y72451D01*
X84633Y72558D01*
X84770Y72662D01*
X84909Y72763D01*
X85051Y72860D01*
X85195Y72954D01*
X85341Y73044D01*
X85490Y73131D01*
X85640Y73213D01*
X85793Y73293D01*
X85947Y73368D01*
X86103Y73439D01*
X86261Y73507D01*
X86421Y73571D01*
X86582Y73631D01*
X86744Y73687D01*
X86908Y73739D01*
X87073Y73786D01*
X87239Y73830D01*
X87406Y73870D01*
X87574Y73905D01*
X87743Y73937D01*
X87913Y73964D01*
X88083Y73987D01*
X88254Y74006D01*
X88425Y74021D01*
X88597Y74032D01*
X88768Y74038D01*
X88940Y74040D01*
X89112Y74038D01*
X89283Y74032D01*
X89455Y74021D01*
X89626Y74006D01*
X89797Y73987D01*
X89967Y73964D01*
X90137Y73937D01*
X90306Y73905D01*
X90474Y73870D01*
X90641Y73830D01*
X90807Y73786D01*
X90972Y73739D01*
X91136Y73687D01*
X91298Y73631D01*
X91459Y73571D01*
X91619Y73507D01*
X91777Y73439D01*
X91933Y73368D01*
X92087Y73293D01*
X92240Y73213D01*
X92390Y73131D01*
X92539Y73044D01*
X92685Y72954D01*
X92829Y72860D01*
X92971Y72763D01*
X93110Y72662D01*
X93247Y72558D01*
X93381Y72451D01*
X93512Y72340D01*
X93641Y72227D01*
X93767Y72110D01*
X93890Y71990D01*
X94010Y71867D01*
X94127Y71741D01*
X94240Y71612D01*
X94351Y71481D01*
X94458Y71347D01*
X94562Y71210D01*
X94663Y71071D01*
X94760Y70929D01*
X94854Y70785D01*
X94944Y70639D01*
X95031Y70490D01*
X95113Y70340D01*
X95193Y70187D01*
X95268Y70033D01*
X95339Y69877D01*
X95407Y69719D01*
X95471Y69559D01*
X95531Y69398D01*
X95587Y69236D01*
X95639Y69072D01*
X95686Y68907D01*
X95730Y68741D01*
X95770Y68574D01*
X95805Y68406D01*
X95837Y68237D01*
X95864Y68067D01*
X95887Y67897D01*
X95906Y67726D01*
X95921Y67555D01*
X95932Y67383D01*
X95938Y67212D01*
X95940Y67040D01*
X95938Y66868D01*
X95932Y66697D01*
X95921Y66525D01*
X95906Y66354D01*
X95887Y66183D01*
X95864Y66013D01*
X95837Y65843D01*
X95805Y65674D01*
X95770Y65506D01*
X95730Y65339D01*
X95686Y65173D01*
X95639Y65008D01*
X95587Y64844D01*
X95531Y64682D01*
X95471Y64521D01*
X95407Y64361D01*
X95339Y64203D01*
X95268Y64047D01*
X95193Y63893D01*
X95113Y63740D01*
X95031Y63590D01*
X94944Y63441D01*
X94854Y63295D01*
X94760Y63151D01*
X94663Y63009D01*
X94562Y62870D01*
X94458Y62733D01*
X94351Y62599D01*
X94240Y62468D01*
X94127Y62339D01*
X94010Y62213D01*
X93890Y62090D01*
X93767Y61970D01*
X93641Y61853D01*
X93512Y61740D01*
X93381Y61629D01*
X93247Y61522D01*
X93110Y61418D01*
X92971Y61317D01*
X92829Y61220D01*
X92685Y61126D01*
X92539Y61036D01*
X92390Y60949D01*
X92240Y60867D01*
X92087Y60787D01*
X91933Y60712D01*
X91777Y60641D01*
X91619Y60573D01*
X91459Y60509D01*
X91298Y60449D01*
X91136Y60393D01*
X90972Y60341D01*
X90807Y60294D01*
X90641Y60250D01*
X90474Y60210D01*
X90306Y60175D01*
X90137Y60143D01*
X89967Y60116D01*
X89797Y60093D01*
X89626Y60074D01*
X89455Y60059D01*
X89283Y60048D01*
X89112Y60042D01*
X88940Y60040D01*
X88768Y60042D01*
X88597Y60048D01*
X88425Y60059D01*
X88254Y60074D01*
X88083Y60093D01*
X87913Y60116D01*
X87743Y60143D01*
X87574Y60175D01*
X87406Y60210D01*
X87239Y60250D01*
X87073Y60294D01*
X86908Y60341D01*
X86744Y60393D01*
X86582Y60449D01*
X86421Y60509D01*
X86261Y60573D01*
X86103Y60641D01*
X85947Y60712D01*
X85793Y60787D01*
X85640Y60867D01*
X85490Y60949D01*
X85341Y61036D01*
X85195Y61126D01*
X85051Y61220D01*
X84909Y61317D01*
X84770Y61418D01*
X84633Y61522D01*
X84499Y61629D01*
X84368Y61740D01*
X84239Y61853D01*
X84113Y61970D01*
X83990Y62090D01*
X83870Y62213D01*
X83753Y62339D01*
X83640Y62468D01*
X83529Y62599D01*
X83422Y62733D01*
X83318Y62870D01*
X83217Y63009D01*
X83120Y63151D01*
X83026Y63295D01*
X82936Y63441D01*
X82849Y63590D01*
X82767Y63740D01*
X82687Y63893D01*
X82612Y64047D01*
X82541Y64203D01*
X82473Y64361D01*
X82409Y64521D01*
X82349Y64682D01*
X82293Y64844D01*
X82241Y65008D01*
X82194Y65173D01*
X82150Y65339D01*
X82110Y65506D01*
X82075Y65674D01*
X82043Y65843D01*
X82016Y66013D01*
X81993Y66183D01*
X81974Y66354D01*
X81959Y66525D01*
X81948Y66697D01*
X81942Y66868D01*
X81940Y67040D01*
D16*
X88940Y67040D03*
D17*
X90892Y72624D02*
X86908Y72624D01*
X86908Y74576D01*
X90892Y74576D01*
X90892Y72624D01*
D18*
X304800Y65800D03*
X304800Y50800D03*
X304800Y35800D03*
D19*
X78994Y171704D03*
X101854Y171704D03*
X124714Y171704D03*
D20*
X101600Y234696D03*
D21*
X292000Y139700D03*
X343000Y139700D03*
D22*
X228600Y105950D03*
X228600Y173450D03*
D23*
X245650Y215900D03*
X313150Y215900D03*
M02*
