G04 EAGLE Gerber RS-274X export*
G75*
%MOMM*%
%FSLAX34Y34*%
%LPD*%
%INBottom Copper*%
%IPPOS*%
%AMOC8*
5,1,8,0,0,1.08239X$1,22.5*%
G01*
%ADD10R,1.500000X1.300000*%
%ADD11C,1.524000*%
%ADD12R,1.320800X0.558800*%
%ADD13C,0.756400*%
%ADD14C,1.270000*%
%ADD15C,0.304800*%
%ADD16C,0.508000*%
%ADD17C,0.254000*%
%ADD18C,2.032000*%

G36*
X340284Y346662D02*
X340284Y346662D01*
X340304Y346660D01*
X340405Y346682D01*
X340507Y346699D01*
X340525Y346708D01*
X340544Y346713D01*
X340633Y346766D01*
X340724Y346814D01*
X340738Y346829D01*
X340755Y346839D01*
X340823Y346917D01*
X340894Y346992D01*
X340902Y347010D01*
X340915Y347026D01*
X340954Y347122D01*
X340997Y347216D01*
X341000Y347235D01*
X341007Y347254D01*
X341026Y347421D01*
X341026Y359863D01*
X342574Y363602D01*
X345436Y366464D01*
X347845Y367462D01*
X347945Y367523D01*
X348045Y367583D01*
X348049Y367588D01*
X348054Y367592D01*
X348129Y367681D01*
X348205Y367770D01*
X348207Y367776D01*
X348211Y367781D01*
X348253Y367889D01*
X348297Y367999D01*
X348298Y368006D01*
X348299Y368011D01*
X348300Y368029D01*
X348315Y368165D01*
X348315Y372324D01*
X350094Y376619D01*
X353381Y379906D01*
X357676Y381685D01*
X362324Y381685D01*
X366619Y379906D01*
X367482Y379043D01*
X367519Y379016D01*
X367550Y378983D01*
X367618Y378945D01*
X367681Y378900D01*
X367725Y378886D01*
X367765Y378864D01*
X367842Y378850D01*
X367916Y378827D01*
X367962Y378828D01*
X368007Y378820D01*
X368084Y378832D01*
X368162Y378834D01*
X368205Y378849D01*
X368251Y378856D01*
X368320Y378891D01*
X368393Y378918D01*
X368429Y378947D01*
X368470Y378968D01*
X368525Y379023D01*
X368585Y379072D01*
X368610Y379110D01*
X368642Y379143D01*
X368708Y379263D01*
X368718Y379279D01*
X368719Y379284D01*
X368723Y379290D01*
X369651Y381530D01*
X372513Y384392D01*
X375157Y385487D01*
X375239Y385538D01*
X375325Y385584D01*
X375343Y385603D01*
X375366Y385616D01*
X375428Y385691D01*
X375495Y385762D01*
X375506Y385786D01*
X375522Y385806D01*
X375557Y385897D01*
X375598Y385985D01*
X375601Y386011D01*
X375611Y386035D01*
X375615Y386133D01*
X375625Y386229D01*
X375620Y386255D01*
X375621Y386281D01*
X375594Y386375D01*
X375573Y386470D01*
X375560Y386492D01*
X375552Y386517D01*
X375497Y386597D01*
X375447Y386681D01*
X375427Y386698D01*
X375412Y386719D01*
X375334Y386778D01*
X375260Y386841D01*
X375236Y386851D01*
X375215Y386866D01*
X375122Y386896D01*
X375032Y386933D01*
X374999Y386936D01*
X374981Y386942D01*
X374948Y386942D01*
X374865Y386951D01*
X334771Y386951D01*
X334681Y386937D01*
X334590Y386929D01*
X334561Y386917D01*
X334529Y386912D01*
X334448Y386869D01*
X334364Y386833D01*
X334332Y386807D01*
X334311Y386796D01*
X334289Y386773D01*
X334233Y386728D01*
X332198Y384693D01*
X327802Y384693D01*
X324693Y387802D01*
X324693Y392198D01*
X327802Y395307D01*
X332198Y395307D01*
X334233Y393272D01*
X334307Y393219D01*
X334377Y393159D01*
X334407Y393147D01*
X334433Y393128D01*
X334520Y393101D01*
X334605Y393067D01*
X334646Y393063D01*
X334668Y393056D01*
X334700Y393057D01*
X334771Y393049D01*
X363170Y393049D01*
X363241Y393060D01*
X363313Y393062D01*
X363362Y393080D01*
X363413Y393088D01*
X363476Y393122D01*
X363544Y393147D01*
X363584Y393179D01*
X363631Y393204D01*
X363680Y393256D01*
X363736Y393300D01*
X363764Y393344D01*
X363800Y393382D01*
X363830Y393447D01*
X363869Y393507D01*
X363882Y393558D01*
X363904Y393605D01*
X363911Y393676D01*
X363929Y393746D01*
X363925Y393798D01*
X363931Y393849D01*
X363915Y393920D01*
X363910Y393991D01*
X363889Y394039D01*
X363878Y394090D01*
X363842Y394151D01*
X363813Y394217D01*
X363769Y394273D01*
X363752Y394301D01*
X363734Y394316D01*
X363709Y394348D01*
X362844Y395213D01*
X362252Y396641D01*
X362243Y396656D01*
X362238Y396674D01*
X362150Y396817D01*
X362129Y396844D01*
X362065Y397078D01*
X362052Y397106D01*
X362034Y397168D01*
X361284Y398978D01*
X361284Y399028D01*
X361260Y399108D01*
X361255Y399140D01*
X361246Y399157D01*
X361237Y399189D01*
X360914Y399969D01*
X360914Y407013D01*
X361237Y407793D01*
X361252Y407857D01*
X361276Y407918D01*
X361285Y408001D01*
X361293Y408033D01*
X361291Y408052D01*
X361295Y408085D01*
X361295Y441529D01*
X362844Y445268D01*
X365705Y448130D01*
X367200Y448749D01*
X367299Y448811D01*
X367400Y448871D01*
X367404Y448875D01*
X367409Y448879D01*
X367483Y448968D01*
X367560Y449058D01*
X367562Y449063D01*
X367566Y449068D01*
X367608Y449176D01*
X367652Y449286D01*
X367653Y449293D01*
X367654Y449298D01*
X367655Y449316D01*
X367670Y449452D01*
X367670Y482568D01*
X369219Y486307D01*
X372081Y489169D01*
X375820Y490718D01*
X379867Y490718D01*
X383606Y489169D01*
X386468Y486307D01*
X386996Y485033D01*
X387034Y484972D01*
X387063Y484907D01*
X387098Y484869D01*
X387125Y484824D01*
X387181Y484778D01*
X387229Y484726D01*
X387275Y484701D01*
X387315Y484667D01*
X387382Y484642D01*
X387445Y484607D01*
X387496Y484598D01*
X387545Y484579D01*
X387616Y484576D01*
X387687Y484563D01*
X387738Y484571D01*
X387790Y484569D01*
X387859Y484589D01*
X387930Y484599D01*
X387977Y484623D01*
X388027Y484637D01*
X388085Y484678D01*
X388149Y484711D01*
X388186Y484748D01*
X388229Y484778D01*
X388271Y484835D01*
X388322Y484886D01*
X388356Y484949D01*
X388375Y484975D01*
X388383Y484997D01*
X388402Y485033D01*
X389056Y486612D01*
X391918Y489474D01*
X395657Y491023D01*
X398428Y491023D01*
X398448Y491026D01*
X398467Y491024D01*
X398569Y491046D01*
X398671Y491062D01*
X398688Y491072D01*
X398708Y491076D01*
X398797Y491129D01*
X398888Y491177D01*
X398902Y491192D01*
X398919Y491202D01*
X398986Y491281D01*
X399058Y491356D01*
X399066Y491374D01*
X399079Y491389D01*
X399118Y491485D01*
X399161Y491579D01*
X399163Y491599D01*
X399171Y491617D01*
X399189Y491784D01*
X399189Y527914D01*
X399178Y527985D01*
X399176Y528056D01*
X399158Y528105D01*
X399150Y528157D01*
X399116Y528220D01*
X399091Y528287D01*
X399059Y528328D01*
X399034Y528374D01*
X398982Y528423D01*
X398938Y528479D01*
X398894Y528508D01*
X398856Y528543D01*
X398791Y528574D01*
X398731Y528612D01*
X398680Y528625D01*
X398633Y528647D01*
X398562Y528655D01*
X398492Y528672D01*
X398440Y528668D01*
X398389Y528674D01*
X398318Y528659D01*
X398247Y528653D01*
X398199Y528633D01*
X398148Y528622D01*
X398087Y528585D01*
X398021Y528557D01*
X397965Y528512D01*
X397937Y528496D01*
X397922Y528478D01*
X397890Y528452D01*
X316454Y447016D01*
X316401Y446942D01*
X316341Y446873D01*
X316329Y446843D01*
X316310Y446816D01*
X316283Y446729D01*
X316249Y446645D01*
X316245Y446604D01*
X316238Y446581D01*
X316239Y446549D01*
X316231Y446478D01*
X316231Y383275D01*
X316234Y383255D01*
X316232Y383236D01*
X316254Y383134D01*
X316270Y383032D01*
X316280Y383015D01*
X316284Y382995D01*
X316337Y382906D01*
X316386Y382815D01*
X316400Y382801D01*
X316410Y382784D01*
X316489Y382717D01*
X316564Y382646D01*
X316582Y382637D01*
X316597Y382624D01*
X316693Y382585D01*
X316787Y382542D01*
X316807Y382540D01*
X316825Y382532D01*
X316992Y382514D01*
X319949Y382514D01*
X323688Y380965D01*
X326550Y378103D01*
X328098Y374364D01*
X328098Y347421D01*
X328102Y347401D01*
X328099Y347381D01*
X328121Y347280D01*
X328138Y347178D01*
X328147Y347160D01*
X328152Y347141D01*
X328205Y347052D01*
X328253Y346960D01*
X328268Y346947D01*
X328278Y346930D01*
X328357Y346862D01*
X328432Y346791D01*
X328450Y346783D01*
X328465Y346770D01*
X328561Y346731D01*
X328655Y346687D01*
X328674Y346685D01*
X328693Y346678D01*
X328860Y346659D01*
X340264Y346659D01*
X340284Y346662D01*
G37*
D10*
X465600Y57400D03*
X465600Y82800D03*
X465600Y108200D03*
X218600Y57400D03*
X218600Y82800D03*
X218600Y108200D03*
X465600Y133600D03*
X218600Y133600D03*
D11*
X638100Y652080D02*
X638100Y667320D01*
X612700Y667320D02*
X612700Y652080D01*
X587300Y652080D02*
X587300Y667320D01*
X561900Y667320D02*
X561900Y652080D01*
X536500Y652080D02*
X536500Y667320D01*
X511100Y667320D02*
X511100Y652080D01*
X485700Y652080D02*
X485700Y667320D01*
X460300Y667320D02*
X460300Y652080D01*
X434900Y652080D02*
X434900Y667320D01*
X409500Y667320D02*
X409500Y652080D01*
X384100Y652080D02*
X384100Y667320D01*
X358700Y667320D02*
X358700Y652080D01*
X333300Y652080D02*
X333300Y667320D01*
X873280Y469000D02*
X888520Y469000D01*
X888520Y494400D02*
X873280Y494400D01*
X869700Y48520D02*
X869700Y33280D01*
X844300Y33280D02*
X844300Y48520D01*
X818900Y48520D02*
X818900Y33280D01*
X793500Y33280D02*
X793500Y48520D01*
X768100Y48520D02*
X768100Y33280D01*
X742700Y33280D02*
X742700Y48520D01*
X717300Y48520D02*
X717300Y33280D01*
X691900Y33280D02*
X691900Y48520D01*
X666500Y48520D02*
X666500Y33280D01*
D12*
X679700Y255202D03*
X679700Y264600D03*
X679700Y273998D03*
X705100Y273998D03*
X705100Y264600D03*
X705100Y255202D03*
D11*
X872180Y421400D02*
X887420Y421400D01*
X887420Y396000D02*
X872180Y396000D01*
X872180Y370600D02*
X887420Y370600D01*
X887420Y345200D02*
X872180Y345200D01*
D13*
X160000Y380000D03*
D14*
X160000Y410000D01*
X140000Y430000D01*
D13*
X140000Y430000D03*
D15*
X434340Y653796D02*
X434340Y657512D01*
D16*
X434340Y653796D02*
X342900Y562356D01*
D15*
X434340Y657512D02*
X434900Y659700D01*
X706374Y262890D02*
X706374Y256032D01*
X705100Y255202D01*
X706374Y262890D02*
X705100Y264600D01*
X656082Y205740D02*
X592074Y205740D01*
X656082Y205740D02*
X704088Y253746D01*
X705100Y255202D01*
X218600Y57400D02*
X203778Y57400D01*
D14*
X128026Y133152D01*
X128026Y217170D01*
D16*
X172974Y217170D02*
X238760Y282956D01*
D15*
X238760Y298450D01*
X162306Y374904D01*
X160000Y380000D01*
X470916Y205740D02*
X592074Y205740D01*
X470916Y205740D02*
X459486Y217170D01*
D14*
X157734Y217170D02*
X128026Y217170D01*
D16*
X157734Y217170D02*
X172974Y217170D01*
D15*
X459486Y217170D01*
D13*
X342900Y562356D03*
X592074Y205740D03*
X630000Y600000D03*
D15*
X620000Y610000D01*
X570000Y610000D01*
X570000Y590000D01*
D13*
X570000Y590000D03*
D16*
X493776Y117160D02*
X484816Y108200D01*
X465600Y108200D01*
X370332Y185166D02*
X370332Y210312D01*
X370332Y185166D02*
X440182Y115316D01*
X440182Y87884D01*
X454914Y73152D01*
D15*
X475488Y73152D01*
X477774Y75438D01*
X477774Y96012D01*
D16*
X466344Y107442D01*
D15*
X465600Y108200D01*
D13*
X493776Y117160D03*
X370332Y210312D03*
D15*
X681228Y262890D02*
X685800Y262890D01*
X690372Y258318D01*
X690372Y251460D01*
X651510Y212598D01*
X480060Y212598D01*
X679700Y264600D02*
X681228Y262890D01*
X218600Y108200D02*
X215642Y111158D01*
D16*
X199456Y111158D01*
D13*
X480060Y212598D03*
X199456Y111158D03*
D15*
X665400Y264600D02*
X679700Y264600D01*
X665400Y264600D02*
X660000Y270000D01*
D13*
X660000Y270000D03*
X640000Y250000D03*
D15*
X590000Y300000D01*
X590000Y310000D01*
D13*
X590000Y310000D03*
D15*
X464058Y89154D02*
X464058Y84582D01*
X464058Y89154D02*
X454914Y98298D01*
X454914Y198882D02*
X454914Y210312D01*
X454914Y198882D02*
X454914Y98298D01*
X464058Y84582D02*
X465600Y82800D01*
X454914Y198882D02*
X530352Y198882D01*
D13*
X454914Y210312D03*
X530352Y198882D03*
D14*
X517400Y57400D02*
X465600Y57400D01*
X517400Y57400D02*
X590000Y130000D01*
D13*
X590000Y130000D03*
X610000Y160000D03*
D15*
X640000Y160000D02*
X710000Y230000D01*
X640000Y160000D02*
X610000Y160000D01*
D13*
X710000Y230000D03*
X660000Y240000D03*
X590000Y260000D03*
X430000Y270000D03*
X560000Y270000D03*
D15*
X646125Y240000D02*
X660000Y240000D01*
X646125Y240000D02*
X644723Y238598D01*
X611402Y238598D01*
X590000Y260000D01*
X491115Y270000D02*
X430000Y270000D01*
X491115Y270000D02*
X491339Y269776D01*
X498197Y269776D01*
X500483Y267490D01*
X509929Y267490D01*
X512439Y270000D01*
X560000Y270000D01*
X678942Y272034D02*
X679700Y273998D01*
D16*
X285750Y201168D02*
X285750Y180848D01*
X238502Y133600D01*
X218600Y133600D01*
D13*
X505206Y278892D03*
X285750Y201168D03*
X550000Y310000D03*
D15*
X540000Y320000D01*
X540000Y340000D01*
X518922Y334953D02*
X518922Y292608D01*
X518922Y334953D02*
X508598Y345277D01*
D13*
X490000Y350000D03*
D15*
X508598Y345277D02*
X508598Y396584D01*
X585216Y473202D01*
X603504Y473202D01*
X617220Y459486D01*
X617220Y310896D01*
X654228Y273888D01*
X657171Y276830D01*
X662829Y276830D01*
X667625Y272034D02*
X678942Y272034D01*
X667625Y272034D02*
X662829Y276830D01*
X518922Y292608D02*
X505206Y278892D01*
D17*
X508598Y345277D02*
X503875Y350000D01*
X490000Y350000D01*
X530000Y350000D02*
X540000Y340000D01*
D13*
X530000Y350000D03*
D15*
X231775Y406908D02*
X203454Y406908D01*
X231775Y406908D02*
X242316Y406908D01*
X203454Y406908D02*
X192024Y418338D01*
D13*
X242316Y406908D03*
X192024Y418338D03*
X520000Y590000D03*
D15*
X540000Y580000D02*
X540000Y610000D01*
X540000Y580000D02*
X530000Y580000D01*
X520000Y590000D01*
D13*
X540000Y610000D03*
X650000Y590000D03*
D15*
X563534Y610000D02*
X560000Y610000D01*
X563534Y610000D02*
X568106Y614572D01*
X625428Y614572D01*
X650000Y590000D01*
D13*
X560000Y610000D03*
D15*
X521038Y588963D02*
X412750Y588963D01*
X231775Y407988D01*
X520000Y590000D02*
X521038Y588963D01*
X231775Y407988D02*
X231775Y406908D01*
D13*
X390000Y310000D03*
D15*
X390000Y380000D01*
X380000Y390000D01*
X330000Y390000D01*
D13*
X330000Y390000D03*
X290000Y390000D03*
D15*
X270000Y410000D01*
X270000Y420000D01*
D13*
X270000Y420000D03*
X800000Y290000D03*
D16*
X879800Y369800D01*
X879800Y370600D01*
D13*
X720000Y340000D03*
D16*
X750000Y310000D01*
X770000Y310000D01*
D13*
X770000Y310000D03*
X860000Y270000D03*
D16*
X950000Y270000D01*
D13*
X950000Y270000D03*
X806450Y358140D03*
D16*
X810260Y361950D01*
X834390Y361950D01*
X838200Y365760D01*
X838200Y367030D01*
D13*
X838200Y367030D03*
X780000Y290000D03*
D16*
X780000Y390000D01*
X780000Y405130D01*
X780000Y410000D01*
X800000Y430000D01*
X810000Y430000D01*
D13*
X810000Y430000D03*
X740000Y370000D03*
D16*
X760000Y370000D01*
X780000Y390000D01*
D13*
X880189Y249811D03*
D16*
X939811Y249811D01*
X950000Y260000D01*
D13*
X950000Y260000D03*
D15*
X814550Y425450D02*
X810000Y430000D01*
X814550Y425450D02*
X830580Y425450D01*
X831850Y426720D01*
D13*
X831850Y426720D03*
X760000Y300000D03*
D15*
X730000Y300000D01*
D16*
X700000Y330000D01*
X690000Y330000D01*
D13*
X690000Y330000D03*
X890000Y280000D03*
D16*
X950000Y280000D01*
D13*
X950000Y280000D03*
X730000Y470000D03*
D15*
X760000Y470000D01*
D13*
X760000Y470000D03*
X550000Y570000D03*
D15*
X550000Y520000D01*
D13*
X550000Y520000D03*
X540000Y500000D03*
D15*
X540000Y460000D01*
D13*
X540000Y460000D03*
D15*
X505498Y537210D02*
X502920Y537210D01*
X466344Y573786D01*
X425196Y573786D01*
X304038Y452628D01*
X304038Y299466D01*
X365760Y237744D01*
X475488Y237744D01*
X496062Y281178D02*
X496062Y308610D01*
X512064Y324612D01*
D13*
X505498Y537210D03*
X475488Y237744D03*
X496062Y281178D03*
X512064Y324612D03*
X630000Y570000D03*
D15*
X630000Y540000D01*
X620000Y530000D01*
D13*
X620000Y530000D03*
X610000Y570000D03*
D15*
X610000Y540000D01*
X590000Y520000D01*
D13*
X590000Y520000D03*
X570000Y490000D03*
D15*
X560000Y480000D01*
X560000Y460000D01*
D13*
X560000Y460000D03*
D15*
X491490Y537210D02*
X459486Y569214D01*
X427482Y569214D01*
X308610Y450342D01*
X308610Y301752D01*
X365760Y244602D01*
X585216Y244602D01*
D13*
X491490Y537210D03*
X534924Y368902D03*
D15*
X584319Y273716D02*
X576284Y265681D01*
X576284Y254319D01*
X584319Y273716D02*
X598932Y273716D01*
X576284Y254319D02*
X585216Y245387D01*
X585216Y244602D01*
D13*
X590000Y550000D03*
D15*
X590000Y560000D01*
X598730Y568730D01*
D13*
X598730Y568730D03*
D15*
X578598Y305277D02*
X580856Y303019D01*
X580856Y296212D01*
X598932Y278136D01*
X598932Y273716D01*
X578598Y335228D02*
X544924Y368902D01*
X534924Y368902D01*
X578598Y335228D02*
X578598Y305277D01*
D13*
X500218Y610000D03*
D16*
X536500Y646282D01*
X536500Y659700D01*
D13*
X491130Y612156D03*
D16*
X511100Y632126D01*
X511100Y659700D01*
D13*
X470000Y630000D03*
D16*
X480000Y640000D02*
X480000Y644000D01*
X480000Y640000D02*
X470000Y630000D01*
X485700Y649700D02*
X485700Y659700D01*
X485700Y649700D02*
X480000Y644000D01*
D13*
X450000Y630000D03*
D16*
X460300Y640300D01*
X460300Y659700D01*
D13*
X520000Y470000D03*
D15*
X520000Y500000D01*
D13*
X520000Y500000D03*
X510000Y560000D03*
D15*
X510000Y542367D01*
X512328Y540039D01*
X512328Y534381D01*
X510000Y532053D01*
X510000Y520000D01*
D13*
X510000Y520000D03*
X500000Y490000D03*
D15*
X490000Y480000D01*
X490000Y450000D01*
D13*
X490000Y450000D03*
X470000Y480000D03*
D15*
X470000Y540000D01*
D13*
X470000Y540000D03*
X510000Y470000D03*
D15*
X510000Y500000D01*
D13*
X510000Y500000D03*
X480000Y490000D03*
D15*
X490000Y500000D01*
X490000Y510000D01*
D13*
X490000Y510000D03*
D15*
X444914Y562356D02*
X427482Y562356D01*
X313182Y448056D01*
X313182Y304038D01*
X368046Y249174D01*
X486918Y249174D01*
X528066Y404622D02*
X571500Y448056D01*
D13*
X444914Y562356D03*
X571500Y448056D03*
D15*
X557171Y276830D02*
X554913Y274572D01*
X557171Y276830D02*
X562829Y276830D01*
X566830Y272829D01*
X566830Y267171D01*
X562829Y263170D01*
X557171Y263170D01*
X554913Y265428D01*
X554913Y274572D02*
X528066Y274572D01*
X513170Y347171D02*
X513170Y352829D01*
X528066Y367725D02*
X528066Y404622D01*
X528066Y332275D02*
X528066Y274572D01*
X513170Y352829D02*
X528066Y367725D01*
X513170Y347171D02*
X528066Y332275D01*
X514333Y265428D02*
X554913Y265428D01*
X514333Y265428D02*
X511823Y262918D01*
X500662Y262918D01*
X486918Y249174D01*
D13*
X457620Y607620D03*
D15*
X460000Y610000D01*
X470000Y610000D01*
X490000Y630000D02*
X489657Y630343D01*
D13*
X489657Y630343D03*
D15*
X490000Y630000D02*
X470000Y610000D01*
X612648Y452628D02*
X612648Y308610D01*
X612648Y452628D02*
X598932Y466344D01*
X678942Y256032D02*
X679700Y255202D01*
D13*
X598932Y466344D03*
D15*
X612648Y308610D02*
X653170Y268088D01*
X653170Y267171D01*
X664309Y256032D01*
X678942Y256032D01*
D16*
X409194Y640080D02*
X409194Y657512D01*
X409194Y640080D02*
X260604Y491490D01*
D15*
X409194Y657512D02*
X409500Y659700D01*
D13*
X260604Y491490D03*
D15*
X320675Y387350D02*
X321090Y387294D01*
X212598Y365760D02*
X196596Y365760D01*
X290322Y443484D02*
X290322Y459486D01*
X411480Y580644D01*
X507492Y580644D01*
D13*
X196596Y365760D03*
X507492Y580644D03*
D15*
X267171Y426830D02*
X263170Y422829D01*
X273668Y426830D02*
X290322Y443484D01*
X263170Y416332D02*
X212598Y365760D01*
X267171Y426830D02*
X273668Y426830D01*
X263170Y422829D02*
X263170Y416332D01*
D13*
X470000Y450000D03*
D15*
X470000Y470000D01*
D13*
X530000Y530000D03*
D15*
X510856Y510856D02*
X470000Y470000D01*
X510856Y510856D02*
X513788Y510856D01*
X519144Y516212D01*
X519144Y519144D01*
X530000Y530000D01*
D16*
X221742Y292608D02*
X102870Y411480D01*
D15*
X324612Y230886D02*
X578358Y230886D01*
X324612Y230886D02*
X276606Y278892D01*
D13*
X102870Y411480D03*
X221742Y292608D03*
X592074Y448056D03*
X276606Y278892D03*
D15*
X578358Y230886D02*
X592270Y244798D01*
X580856Y256212D01*
X580856Y263788D01*
X586212Y269144D01*
X603504Y269144D01*
X603504Y280030D01*
X585428Y298106D01*
X585428Y304913D01*
X583170Y307171D01*
X583170Y312829D01*
X587171Y316830D01*
X592074Y316830D01*
X592074Y448056D01*
D16*
X498348Y146304D02*
X477774Y146304D01*
X466344Y134874D01*
D15*
X465600Y133600D01*
D16*
X729234Y496062D02*
X791210Y496062D01*
X852678Y434594D01*
X852678Y354330D01*
D15*
X788670Y290322D01*
X788670Y288036D01*
X651510Y150876D01*
D16*
X502920Y150876D01*
X498348Y146304D01*
D13*
X498348Y146304D03*
X729234Y496062D03*
X360000Y370000D03*
D18*
X360000Y310000D01*
D13*
X360000Y310000D03*
X420000Y470000D03*
D15*
X460000Y470000D01*
D13*
X460000Y470000D03*
X580000Y170000D03*
D15*
X560000Y190000D01*
X500000Y190000D01*
D13*
X500000Y190000D03*
X520000Y280000D03*
D15*
X400000Y280000D02*
X380000Y300000D01*
X502377Y272062D02*
X508035Y272062D01*
X515973Y280000D02*
X520000Y280000D01*
X487581Y280000D02*
X400000Y280000D01*
X508035Y272062D02*
X515973Y280000D01*
X493233Y274348D02*
X487581Y280000D01*
X500091Y274348D02*
X502377Y272062D01*
X500091Y274348D02*
X493233Y274348D01*
X380000Y300000D02*
X380000Y370000D01*
D13*
X380000Y370000D03*
X670000Y560000D03*
D15*
X630000Y520000D01*
X630000Y460000D01*
D13*
X630000Y460000D03*
X760000Y420000D03*
D15*
X700000Y420000D01*
X690000Y410000D01*
D13*
X690000Y410000D03*
X740000Y400000D03*
D15*
X680000Y400000D01*
D13*
X680000Y400000D03*
X730000Y240000D03*
D15*
X730000Y280000D01*
X690000Y320000D01*
X680000Y320000D01*
X680000Y370000D01*
X690000Y380000D01*
X683969Y386031D01*
X634475Y386031D01*
D13*
X634475Y386031D03*
D15*
X605790Y448056D02*
X605790Y308610D01*
D13*
X605790Y448056D03*
X653796Y256032D03*
D15*
X653796Y260079D01*
X648598Y265277D01*
X648598Y265802D01*
X605790Y308610D01*
D13*
X950000Y240000D03*
D16*
X870000Y240000D01*
D13*
X870000Y240000D03*
D15*
X713232Y272034D02*
X706374Y272034D01*
X713232Y272034D02*
X717804Y267462D01*
X717804Y262890D01*
X640080Y262890D02*
X640080Y267462D01*
X630936Y276606D02*
X598932Y308610D01*
X630936Y276606D02*
X640080Y267462D01*
X598932Y308610D02*
X598932Y454914D01*
X705100Y273998D02*
X706374Y272034D01*
D16*
X356616Y598932D02*
X356616Y657512D01*
X356616Y598932D02*
X185166Y427482D01*
D15*
X185166Y358902D01*
X317754Y226314D01*
X580644Y226314D01*
D16*
X356616Y657512D02*
X358700Y659700D01*
D13*
X717804Y262890D03*
X640080Y262890D03*
X598932Y454914D03*
D15*
X597165Y242835D02*
X580644Y226314D01*
X625398Y271068D02*
X630936Y276606D01*
X625398Y271068D02*
X639636Y256830D01*
X642829Y256830D01*
X646830Y252829D01*
D17*
X601058Y242835D02*
X597165Y242835D01*
X662724Y233424D02*
X666576Y237276D01*
X666576Y242724D01*
X662724Y246576D01*
X610469Y233424D02*
X601058Y242835D01*
X610469Y233424D02*
X662724Y233424D01*
X662724Y246576D02*
X653083Y246576D01*
X646830Y252829D01*
D13*
X530000Y490000D03*
D17*
X530000Y470000D01*
D13*
X530000Y470000D03*
X480000Y470000D03*
D17*
X476576Y447276D02*
X472724Y443424D01*
X467276Y443424D01*
X476576Y466576D02*
X480000Y470000D01*
X460700Y450000D02*
X410000Y450000D01*
X476576Y447276D02*
X476576Y466576D01*
X460700Y450000D02*
X467276Y443424D01*
D13*
X410000Y450000D03*
M02*
