M48
;GenerationSoftware,Autodesk,EAGLE,9.2.1*%
;CreationDate,2018-11-14T10:31:40Z*%
FMAT,2
ICI,OFF
METRIC,TZ,000.000
T3C0.350
T2C1.016
T1C3.000
%
G90
M71
T1
X97344Y6598
X6682Y63446
X6702Y6583
X97000Y63540
T2
X87980Y34520
X46030Y65970
X63810Y65970
X61270Y65970
X58730Y65970
X56190Y65970
X53650Y65970
X51110Y65970
X48570Y65970
X43490Y65970
X40950Y65970
X38410Y65970
X35870Y65970
X33330Y65970
X88090Y46900
X88090Y49440
X86970Y4090
X84430Y4090
X81890Y4090
X79350Y4090
X76810Y4090
X74270Y4090
X71730Y4090
X69190Y4090
X66650Y4090
X87980Y42140
X87980Y39600
X87980Y37060
T3
X56000Y61000
X39000Y31000
X33000Y39000
X29000Y39000
X27000Y42000
X80000Y29000
X72000Y34000
X77000Y31000
X86000Y27000
X95000Y27000
X80645Y35814
X83820Y36703
X78000Y29000
X81000Y43000
X74000Y37000
X88019Y24981
X95000Y26000
X83185Y42672
X76000Y30000
X69000Y33000
X89000Y28000
X95000Y28000
X73000Y47000
X76000Y47000
X55000Y57000
X55000Y52000
X54000Y50000
X54000Y46000
X50550Y53721
X47549Y23774
X49606Y28118
X51206Y32461
X63000Y57000
X62000Y53000
X61000Y57000
X59000Y52000
X57000Y49000
X56000Y46000
X49149Y53721
X53492Y36890
X59000Y55000
X59873Y56873
X50022Y61000
X49113Y61216
X47000Y63000
X45000Y63000
X52000Y47000
X52000Y50000
X51000Y56000
X51000Y52000
X43000Y27000
X49000Y45000
X47000Y48000
X47000Y54000
X51000Y47000
X51000Y50000
X48000Y49000
X49000Y51000
X44491Y56236
X57150Y44806
X45762Y60762
X48966Y63034
X59893Y46634
X26060Y49149
X19660Y36576
X50749Y58064
X47000Y45000
X53000Y53000
X10287Y41148
X22174Y29261
X59207Y44806
X27661Y27889
X49835Y14630
X72923Y49606
X36000Y37000
X36000Y31000
X42000Y47000
X46000Y47000
X58000Y17000
X50000Y19000
X52000Y28000
X38000Y37000
X67000Y56000
X63000Y46000
X76000Y42000
X69000Y41000
X74000Y40000
X68000Y40000
X73000Y24000
X63448Y38603
X60579Y44806
X65380Y25603
X16000Y38000
X87000Y24000
X71780Y26289
X64008Y26289
X59893Y45491
X53000Y49000
X53000Y47000
X48000Y47000
X41000Y45000
X14000Y43000
X34290Y56236
X59207Y20574
X63000Y60000
X57000Y59000
X49378Y11716
X37033Y21031
X48006Y21260
X19946Y11116
X66000Y27000
X64000Y25000
X50000Y49000
X59000Y31000
X45491Y21031
X53035Y19888
X59000Y13000
X61000Y16000
X71000Y23000
X66000Y24000
X59000Y26000
X56000Y27000
X50521Y27889
X28575Y20117
X55000Y31000
X49000Y35000
X53000Y35000
X24232Y40691
X19202Y41834
X52000Y59000
X54000Y61000
X65000Y59000
X95000Y24000
M30