M48
;GenerationSoftware,Autodesk,EAGLE,9.2.1*%
;CreationDate,2018-11-16T10:04:49Z*%
FMAT,2
ICI,OFF
METRIC,TZ,000.000
T3C0.350
T2C1.016
T1C3.000
%
G90
M71
T1
X97000Y63540
X97344Y6598
X6682Y63446
X6702Y6583
T2
X100076Y46990
X63810Y65970
X61270Y65970
X58730Y65970
X56190Y65970
X53650Y65970
X51110Y65970
X48570Y65970
X46030Y65970
X43490Y65970
X40950Y65970
X38410Y65970
X35870Y65970
X33330Y65970
X86970Y4090
X84430Y4090
X81890Y4090
X79350Y4090
X76810Y4090
X74270Y4090
X71730Y4090
X69190Y4090
X66650Y4090
X100172Y42648
X100172Y40108
X100172Y37568
X100172Y35028
X100076Y54610
X100076Y52070
X100076Y49530
T3
X33020Y28448
X28448Y41656
X28448Y37592
X28448Y36576
X28448Y40640
X29464Y46736
X33528Y36576
X34544Y36068
X35560Y35052
X77216Y65024
X78232Y65024
X79248Y65024
X80264Y65024
X71628Y57404
X72644Y57404
X73660Y57404
X74676Y57404
X77216Y63500
X78232Y63500
X79248Y63500
X80264Y63500
X77216Y61976
X78232Y61976
X79248Y61976
X80264Y61976
X77216Y60452
X78232Y60452
X79248Y60452
X80264Y60452
X77216Y58928
X78232Y58928
X79248Y58928
X80264Y58928
X77216Y57404
X78232Y57404
X79248Y57404
X80264Y57404
X77216Y66548
X78232Y66548
X79248Y66548
X80264Y66548
X77216Y68072
X78232Y68072
X79248Y68072
X80264Y68072
X71628Y68072
X72644Y68072
X73660Y68072
X74676Y68072
X71628Y66548
X72644Y66548
X73660Y66548
X74676Y66548
X71628Y65024
X72644Y65024
X73660Y65024
X74676Y65024
X71628Y63500
X72644Y63500
X73660Y63500
X74676Y63500
X71628Y61976
X72644Y61976
X73660Y61976
X74676Y61976
X71628Y60452
X72644Y60452
X73660Y60452
X74676Y60452
X71628Y58928
X72644Y58928
X73660Y58928
X74676Y58928
X82296Y68072
X83312Y68072
X84328Y68072
X85344Y68072
X82296Y66548
X83312Y66548
X84328Y66548
X85344Y66548
X82296Y65024
X83312Y65024
X84328Y65024
X85344Y65024
X82296Y63500
X83312Y63500
X84328Y63500
X85344Y63500
X82296Y61976
X83312Y61976
X84328Y61976
X85344Y61976
X82296Y60452
X83312Y60452
X84328Y60452
X85344Y60452
X82296Y58928
X83312Y58928
X84328Y58928
X85344Y58928
X82296Y57404
X83312Y57404
X84328Y57404
X85344Y57404
X87884Y68072
X88900Y68072
X89916Y68072
X90932Y68072
X87884Y66548
X88900Y66548
X89916Y66548
X90932Y66548
X87884Y65024
X88900Y65024
X89916Y65024
X90932Y65024
X87884Y63500
X88900Y63500
X89916Y63500
X90932Y63500
X87884Y61976
X88900Y61976
X89916Y61976
X90932Y61976
X87884Y60452
X88900Y60452
X89916Y60452
X90932Y60452
X87884Y58928
X88900Y58928
X89916Y58928
X90932Y58928
X87884Y57404
X88900Y57404
X89916Y57404
X90932Y57404
X92964Y58420
X93980Y58420
X94996Y58420
X96012Y58420
X92964Y56896
X93980Y56896
X94996Y56896
X96012Y56896
X92964Y55372
X93980Y55372
X94996Y55372
X96012Y55372
X96520Y16256
X97536Y16256
X98552Y16256
X99568Y16256
X89408Y10668
X90424Y10668
X91440Y10668
X92456Y10668
X89408Y8636
X90424Y8636
X91440Y8636
X92456Y8636
X89408Y6604
X90424Y6604
X91440Y6604
X92456Y6604
X96520Y14732
X97536Y14732
X98552Y14732
X99568Y14732
X96520Y13208
X97536Y13208
X98552Y13208
X99568Y13208
X41148Y3556
X42164Y3556
X43180Y3556
X44196Y3556
X41148Y2032
X42164Y2032
X43180Y2032
X44196Y2032
X36068Y3556
X37084Y3556
X38100Y3556
X39116Y3556
X36068Y2032
X37084Y2032
X38100Y2032
X39116Y2032
X30988Y3556
X32004Y3556
X33020Y3556
X34036Y3556
X30988Y2032
X32004Y2032
X33020Y2032
X34036Y2032
X25908Y3556
X26924Y3556
X27940Y3556
X28956Y3556
X25908Y2032
X26924Y2032
X27940Y2032
X28956Y2032
X20320Y2032
X21336Y2032
X22352Y2032
X23368Y2032
X20320Y3556
X21336Y3556
X22352Y3556
X23368Y3556
X12192Y6096
X13208Y6096
X14224Y6096
X15240Y6096
X12192Y4572
X13208Y4572
X14224Y4572
X15240Y4572
X12192Y3048
X13208Y3048
X14224Y3048
X15240Y3048
X11176Y41656
X12192Y41656
X13208Y41656
X14224Y41656
X6604Y41656
X7620Y41656
X8636Y41656
X9652Y41656
X6604Y40132
X7620Y40132
X8636Y40132
X9652Y40132
X11176Y38608
X12192Y38608
X13208Y38608
X14224Y38608
X11176Y37084
X12192Y37084
X13208Y37084
X14224Y37084
X6604Y38608
X7620Y38608
X8636Y38608
X9652Y38608
X2032Y45212
X3048Y45212
X4064Y45212
X5080Y45212
X2032Y43688
X3048Y43688
X4064Y43688
X5080Y43688
X2032Y41656
X3048Y41656
X4064Y41656
X5080Y41656
X2032Y40132
X3048Y40132
X4064Y40132
X5080Y40132
X11684Y68072
X12700Y68072
X13716Y68072
X14732Y68072
X11684Y66548
X12700Y66548
X13716Y66548
X14732Y66548
X11684Y65024
X12700Y65024
X13716Y65024
X14732Y65024
X11684Y62992
X12700Y62992
X13716Y62992
X14732Y62992
X11684Y61468
X12700Y61468
X13716Y61468
X14732Y61468
X16764Y68072
X17780Y68072
X18796Y68072
X19812Y68072
X16764Y66548
X17780Y66548
X18796Y66548
X19812Y66548
X16764Y65024
X17780Y65024
X18796Y65024
X19812Y65024
X23876Y68072
X24892Y68072
X25908Y68072
X26924Y68072
X26924Y49784
X26924Y50800
X26924Y51816
X26924Y52832
X31496Y53848
X32512Y53848
X33528Y53848
X34544Y53848
X31496Y52324
X32512Y52324
X33528Y52324
X34544Y52324
X31496Y50800
X32512Y50800
X33528Y50800
X34544Y50800
X81280Y21844
X82296Y21844
X83312Y21844
X84328Y21844
X81280Y20320
X82296Y20320
X83312Y20320
X84328Y20320
X81280Y18796
X82296Y18796
X83312Y18796
X84328Y18796
X71628Y27940
X70612Y21844
X77724Y15748
X11176Y40132
X12192Y40132
X13208Y40132
X14224Y40132
X86360Y53340
X85344Y53340
X84328Y53340
X83312Y53340
X83312Y51816
X84328Y51816
X85344Y51816
X86360Y51816
X47244Y39624
X47244Y38608
X24892Y11176
X24892Y10160
X25908Y11176
X25908Y10160
X25908Y8636
X25908Y7620
X24892Y8636
X24892Y7620
X76708Y24892
X77724Y24892
X75692Y23368
X76708Y23368
X78232Y23368
X79248Y23368
X78232Y21844
X79248Y21844
X78232Y20320
X79248Y20320
X85852Y21844
X86868Y21844
X47244Y37084
X47244Y36068
X48768Y36576
X49784Y36576
X47244Y34544
X47244Y33528
X48768Y33528
X49784Y33528
X51816Y40640
X51816Y39624
X53848Y40132
X53848Y39116
X56388Y39624
X56388Y38608
X56388Y37592
X56388Y36576
X49378Y11716
X37033Y21031
X48006Y21260
X19946Y11116
X66000Y27000
X64000Y25000
X59000Y31000
X37592Y17907
X53848Y25400
X58735Y27625
X45491Y21031
X53035Y19888
X59000Y13000
X59984Y16000
X59000Y24476
X43000Y27000
X56000Y27000
X59436Y22634
X57657Y22099
X50521Y27889
X29591Y19609
X55000Y31000
X49000Y35000
X53000Y35000
X34036Y20345
X54864Y6096
X49276Y3048
X18186Y51486
X52000Y59000
X54000Y61000
X65000Y59000
X56000Y61000
X40016Y31000
X33000Y39000
X29000Y39000
X27000Y42000
X25400Y42672
X29972Y59436
X21844Y61468
X28956Y66040
X17272Y35560
X23193Y33020
X80000Y29000
X72000Y34000
X14984Y47652
X86000Y27000
X95000Y27000
X80645Y35814
X83820Y36703
X87376Y38608
X78000Y29000
X74000Y37000
X88019Y24981
X95000Y26000
X89408Y41656
X78000Y32004
X83185Y42672
X76000Y30000
X69000Y33000
X89408Y33020
X95504Y30988
X73000Y47000
X76000Y47000
X91948Y49276
X92456Y46736
X55000Y57000
X55000Y52000
X54000Y50000
X54000Y46000
X50550Y53721
X47549Y23774
X49606Y28118
X51206Y32461
X63000Y57000
X62000Y53000
X61000Y57000
X59000Y52000
X57000Y49000
X56000Y46000
X49149Y53721
X53492Y36890
X59000Y55000
X59873Y56873
X50022Y61000
X49113Y61216
X47000Y63000
X45000Y63000
X52000Y47000
X52000Y50000
X51000Y56000
X51000Y52000
X50000Y49000
X49000Y45000
X47000Y48000
X47000Y54000
X51000Y47000
X51000Y50000
X48000Y49000
X49000Y51000
X44491Y56236
X57150Y44806
X45762Y60762
X48966Y63034
X59893Y46634
X65024Y8636
X65024Y16256
X67056Y14224
X64008Y12700
X40640Y63500
X23368Y55372
X25400Y48260
X26416Y44704
X18796Y35052
X15748Y24384
X18644Y46228
X50749Y58064
X47000Y45000
X53000Y53000
X22624Y46228
X29388Y53924
X77000Y31000
X96012Y52324
X9271Y50800
X22174Y29261
X59207Y44806
X27661Y27889
X49835Y14630
X72923Y49606
X36000Y37000
X36508Y30492
X42000Y47000
X46000Y47000
X58000Y15984
X50000Y19000
X52000Y28000
X38508Y37000
X67000Y56000
X63000Y46000
X76000Y42000
X69000Y41000
X74000Y40000
X68000Y40000
X73000Y24000
X63448Y38603
X60579Y44806
X65380Y25603
X95000Y24000
X87000Y24000
X79756Y33020
X76124Y38608
X71780Y26289
X64008Y26289
X59893Y45491
X57912Y35052
X55880Y33528
X54356Y35052
X49276Y38100
X73152Y20828
X71628Y24384
X53000Y49000
X53000Y47000
X48000Y47000
X41000Y45000
X12984Y52652
X63000Y60000
X57000Y59000
X19888Y24308
X66548Y53340
X42164Y21717
X48768Y20571
X48260Y17780
X49276Y15748
X52832Y13208
X14732Y19304
X28956Y44704
X28956Y43688
X33020Y43180
X28448Y35560
X33020Y35560
X34036Y35052
X37084Y42164
X37084Y41148
X37084Y40132
X38608Y40132
X39624Y40132
X37592Y46736
X38608Y46736
X39624Y46228
X29464Y45720
X33528Y31496
X34544Y31496
X28448Y34036
X37084Y28956
X38100Y29972
X37592Y38100
X32004Y28956
X83312Y50800
M30