G04 EAGLE Gerber RS-274X export*
G75*
%MOMM*%
%FSLAX34Y34*%
%LPD*%
%INSilkscreen Bottom*%
%IPPOS*%
%AMOC8*
5,1,8,0,0,1.08239X$1,22.5*%
G01*
%ADD10C,0.127000*%
%ADD11C,0.400000*%
%ADD12C,0.152400*%
%ADD13C,0.050800*%


D10*
X177100Y9500D02*
X177100Y181500D01*
X473600Y181500D01*
X473600Y9500D02*
X177100Y9500D01*
D11*
X478850Y42500D02*
X478852Y42589D01*
X478858Y42678D01*
X478868Y42767D01*
X478882Y42855D01*
X478899Y42942D01*
X478921Y43028D01*
X478947Y43114D01*
X478976Y43198D01*
X479009Y43281D01*
X479045Y43362D01*
X479086Y43442D01*
X479129Y43519D01*
X479176Y43595D01*
X479227Y43668D01*
X479280Y43739D01*
X479337Y43808D01*
X479397Y43874D01*
X479460Y43938D01*
X479525Y43998D01*
X479593Y44056D01*
X479664Y44110D01*
X479737Y44161D01*
X479812Y44209D01*
X479889Y44254D01*
X479968Y44295D01*
X480049Y44332D01*
X480131Y44366D01*
X480215Y44397D01*
X480300Y44423D01*
X480386Y44446D01*
X480473Y44464D01*
X480561Y44479D01*
X480650Y44490D01*
X480739Y44497D01*
X480828Y44500D01*
X480917Y44499D01*
X481006Y44494D01*
X481094Y44485D01*
X481183Y44472D01*
X481270Y44455D01*
X481357Y44435D01*
X481443Y44410D01*
X481527Y44382D01*
X481610Y44350D01*
X481692Y44314D01*
X481772Y44275D01*
X481850Y44232D01*
X481926Y44186D01*
X482000Y44136D01*
X482072Y44083D01*
X482141Y44027D01*
X482208Y43968D01*
X482272Y43906D01*
X482333Y43842D01*
X482392Y43774D01*
X482447Y43704D01*
X482499Y43632D01*
X482548Y43557D01*
X482593Y43481D01*
X482635Y43402D01*
X482673Y43322D01*
X482708Y43240D01*
X482739Y43156D01*
X482767Y43071D01*
X482790Y42985D01*
X482810Y42898D01*
X482826Y42811D01*
X482838Y42722D01*
X482846Y42634D01*
X482850Y42545D01*
X482850Y42455D01*
X482846Y42366D01*
X482838Y42278D01*
X482826Y42189D01*
X482810Y42102D01*
X482790Y42015D01*
X482767Y41929D01*
X482739Y41844D01*
X482708Y41760D01*
X482673Y41678D01*
X482635Y41598D01*
X482593Y41519D01*
X482548Y41443D01*
X482499Y41368D01*
X482447Y41296D01*
X482392Y41226D01*
X482333Y41158D01*
X482272Y41094D01*
X482208Y41032D01*
X482141Y40973D01*
X482072Y40917D01*
X482000Y40864D01*
X481926Y40814D01*
X481850Y40768D01*
X481772Y40725D01*
X481692Y40686D01*
X481610Y40650D01*
X481527Y40618D01*
X481443Y40590D01*
X481357Y40565D01*
X481270Y40545D01*
X481183Y40528D01*
X481094Y40515D01*
X481006Y40506D01*
X480917Y40501D01*
X480828Y40500D01*
X480739Y40503D01*
X480650Y40510D01*
X480561Y40521D01*
X480473Y40536D01*
X480386Y40554D01*
X480300Y40577D01*
X480215Y40603D01*
X480131Y40634D01*
X480049Y40668D01*
X479968Y40705D01*
X479889Y40746D01*
X479812Y40791D01*
X479737Y40839D01*
X479664Y40890D01*
X479593Y40944D01*
X479525Y41002D01*
X479460Y41062D01*
X479397Y41126D01*
X479337Y41192D01*
X479280Y41261D01*
X479227Y41332D01*
X479176Y41405D01*
X479129Y41481D01*
X479086Y41558D01*
X479045Y41638D01*
X479009Y41719D01*
X478976Y41802D01*
X478947Y41886D01*
X478921Y41972D01*
X478899Y42058D01*
X478882Y42145D01*
X478868Y42233D01*
X478858Y42322D01*
X478852Y42411D01*
X478850Y42500D01*
D10*
X473600Y48000D02*
X473600Y9500D01*
X473600Y143000D02*
X473600Y181500D01*
D12*
X695448Y249106D02*
X697988Y249106D01*
X695448Y249106D02*
X689352Y249106D01*
X686812Y249106D01*
X689352Y249106D02*
X689354Y249215D01*
X689360Y249323D01*
X689369Y249432D01*
X689383Y249540D01*
X689400Y249647D01*
X689422Y249754D01*
X689447Y249860D01*
X689475Y249965D01*
X689508Y250069D01*
X689544Y250171D01*
X689584Y250272D01*
X689627Y250372D01*
X689674Y250470D01*
X689725Y250567D01*
X689779Y250661D01*
X689836Y250754D01*
X689896Y250844D01*
X689960Y250933D01*
X690027Y251019D01*
X690096Y251102D01*
X690169Y251183D01*
X690245Y251261D01*
X690323Y251337D01*
X690404Y251410D01*
X690487Y251479D01*
X690573Y251546D01*
X690662Y251610D01*
X690752Y251670D01*
X690845Y251727D01*
X690939Y251781D01*
X691036Y251832D01*
X691134Y251879D01*
X691234Y251922D01*
X691335Y251962D01*
X691437Y251998D01*
X691541Y252031D01*
X691646Y252059D01*
X691752Y252084D01*
X691859Y252106D01*
X691966Y252123D01*
X692074Y252137D01*
X692183Y252146D01*
X692291Y252152D01*
X692400Y252154D01*
X692509Y252152D01*
X692617Y252146D01*
X692726Y252137D01*
X692834Y252123D01*
X692941Y252106D01*
X693048Y252084D01*
X693154Y252059D01*
X693259Y252031D01*
X693363Y251998D01*
X693465Y251962D01*
X693566Y251922D01*
X693666Y251879D01*
X693764Y251832D01*
X693861Y251781D01*
X693955Y251727D01*
X694048Y251670D01*
X694138Y251610D01*
X694227Y251546D01*
X694313Y251479D01*
X694396Y251410D01*
X694477Y251337D01*
X694555Y251261D01*
X694631Y251183D01*
X694704Y251102D01*
X694773Y251019D01*
X694840Y250933D01*
X694904Y250844D01*
X694964Y250754D01*
X695021Y250661D01*
X695075Y250567D01*
X695126Y250470D01*
X695173Y250372D01*
X695216Y250272D01*
X695256Y250171D01*
X695292Y250069D01*
X695325Y249965D01*
X695353Y249860D01*
X695378Y249754D01*
X695400Y249647D01*
X695417Y249540D01*
X695431Y249432D01*
X695440Y249323D01*
X695446Y249215D01*
X695448Y249106D01*
D13*
X671159Y258393D02*
X667915Y258393D01*
X667846Y258395D01*
X667778Y258401D01*
X667710Y258410D01*
X667642Y258423D01*
X667575Y258440D01*
X667510Y258461D01*
X667445Y258485D01*
X667382Y258512D01*
X667321Y258543D01*
X667261Y258578D01*
X667204Y258615D01*
X667148Y258656D01*
X667095Y258700D01*
X667045Y258746D01*
X666997Y258796D01*
X666952Y258848D01*
X666909Y258902D01*
X666870Y258958D01*
X666834Y259017D01*
X666801Y259077D01*
X666772Y259140D01*
X666746Y259203D01*
X666724Y259268D01*
X666705Y259335D01*
X666690Y259402D01*
X666679Y259470D01*
X666671Y259538D01*
X666667Y259607D01*
X666667Y259675D01*
X666671Y259744D01*
X666679Y259812D01*
X666690Y259880D01*
X666705Y259947D01*
X666724Y260014D01*
X666746Y260079D01*
X666772Y260142D01*
X666801Y260205D01*
X666834Y260265D01*
X666870Y260324D01*
X666909Y260380D01*
X666952Y260434D01*
X666997Y260486D01*
X667045Y260536D01*
X667095Y260582D01*
X667148Y260626D01*
X667204Y260667D01*
X667261Y260704D01*
X667321Y260739D01*
X667382Y260770D01*
X667445Y260797D01*
X667510Y260821D01*
X667575Y260842D01*
X667642Y260859D01*
X667710Y260872D01*
X667778Y260881D01*
X667846Y260887D01*
X667915Y260889D01*
X671159Y260889D01*
X671159Y263991D02*
X666667Y263991D01*
X668913Y263991D02*
X669287Y263367D01*
X669288Y263367D02*
X669317Y263322D01*
X669349Y263280D01*
X669384Y263240D01*
X669422Y263203D01*
X669462Y263168D01*
X669504Y263137D01*
X669549Y263108D01*
X669596Y263083D01*
X669644Y263061D01*
X669694Y263042D01*
X669745Y263028D01*
X669796Y263017D01*
X669849Y263009D01*
X669902Y263005D01*
X669955Y263006D01*
X670008Y263009D01*
X670060Y263017D01*
X670112Y263028D01*
X670163Y263043D01*
X670213Y263062D01*
X670261Y263084D01*
X670307Y263109D01*
X670352Y263138D01*
X670394Y263170D01*
X670434Y263205D01*
X670472Y263242D01*
X670507Y263282D01*
X670539Y263325D01*
X670567Y263369D01*
X670593Y263416D01*
X670615Y263464D01*
X670633Y263513D01*
X670648Y263564D01*
X670660Y263616D01*
X670660Y263617D02*
X670673Y263700D01*
X670683Y263783D01*
X670689Y263866D01*
X670692Y263950D01*
X670691Y264034D01*
X670687Y264118D01*
X670679Y264201D01*
X670667Y264284D01*
X670652Y264367D01*
X670634Y264449D01*
X670612Y264530D01*
X670586Y264609D01*
X670558Y264688D01*
X670526Y264766D01*
X670490Y264842D01*
X670452Y264916D01*
X670410Y264989D01*
X668913Y263991D02*
X668539Y264615D01*
X668539Y264614D02*
X668510Y264659D01*
X668478Y264701D01*
X668443Y264741D01*
X668405Y264778D01*
X668365Y264813D01*
X668323Y264845D01*
X668278Y264873D01*
X668231Y264898D01*
X668183Y264920D01*
X668133Y264939D01*
X668082Y264953D01*
X668031Y264964D01*
X667978Y264972D01*
X667925Y264976D01*
X667872Y264975D01*
X667819Y264972D01*
X667767Y264964D01*
X667715Y264953D01*
X667664Y264938D01*
X667614Y264919D01*
X667566Y264897D01*
X667520Y264872D01*
X667475Y264843D01*
X667433Y264811D01*
X667393Y264776D01*
X667355Y264739D01*
X667320Y264699D01*
X667288Y264656D01*
X667260Y264612D01*
X667234Y264565D01*
X667212Y264517D01*
X667194Y264468D01*
X667179Y264417D01*
X667167Y264365D01*
X667166Y264365D02*
X667153Y264283D01*
X667143Y264199D01*
X667137Y264116D01*
X667134Y264032D01*
X667135Y263948D01*
X667139Y263864D01*
X667147Y263781D01*
X667159Y263698D01*
X667174Y263615D01*
X667192Y263533D01*
X667214Y263452D01*
X667240Y263372D01*
X667268Y263294D01*
X667300Y263216D01*
X667336Y263140D01*
X667374Y263066D01*
X667416Y262993D01*
X666667Y266943D02*
X666667Y268440D01*
X666669Y268500D01*
X666674Y268560D01*
X666683Y268620D01*
X666696Y268679D01*
X666712Y268737D01*
X666732Y268794D01*
X666755Y268850D01*
X666781Y268904D01*
X666811Y268956D01*
X666844Y269007D01*
X666879Y269055D01*
X666918Y269102D01*
X666959Y269146D01*
X667003Y269187D01*
X667050Y269226D01*
X667098Y269261D01*
X667149Y269294D01*
X667201Y269324D01*
X667255Y269350D01*
X667311Y269373D01*
X667368Y269393D01*
X667426Y269409D01*
X667485Y269422D01*
X667545Y269431D01*
X667605Y269436D01*
X667665Y269438D01*
X667665Y269439D02*
X668164Y269439D01*
X668164Y269438D02*
X668224Y269436D01*
X668284Y269431D01*
X668344Y269422D01*
X668403Y269409D01*
X668461Y269393D01*
X668518Y269373D01*
X668574Y269350D01*
X668628Y269324D01*
X668680Y269294D01*
X668731Y269261D01*
X668779Y269226D01*
X668826Y269187D01*
X668870Y269146D01*
X668911Y269102D01*
X668950Y269055D01*
X668985Y269007D01*
X669018Y268956D01*
X669048Y268904D01*
X669074Y268850D01*
X669097Y268794D01*
X669117Y268737D01*
X669133Y268679D01*
X669146Y268620D01*
X669155Y268560D01*
X669160Y268500D01*
X669162Y268440D01*
X669163Y268440D02*
X669163Y266943D01*
X671159Y266943D01*
X671159Y269439D01*
M02*
