G04 EAGLE Gerber RS-274X export*
G75*
%MOMM*%
%FSLAX34Y34*%
%LPD*%
%INSolderpaste Top*%
%IPPOS*%
%AMOC8*
5,1,8,0,0,1.08239X$1,22.5*%
G01*
%ADD10R,1.016000X2.286000*%
%ADD11R,10.591800X11.633200*%
%ADD12R,2.000000X2.100000*%
%ADD13R,1.900000X1.600000*%
%ADD14R,1.350000X0.400000*%
%ADD15R,1.050000X2.200000*%
%ADD16R,1.050000X1.000000*%
%ADD17R,0.250000X0.550000*%
%ADD18R,0.250000X0.450000*%
%ADD19R,0.450000X0.250000*%
%ADD20R,4.600000X1.000000*%
%ADD21R,3.400000X1.600000*%
%ADD22R,1.500000X1.300000*%
%ADD23R,1.000000X1.400000*%
%ADD24R,0.800000X0.800000*%
%ADD25R,1.300000X1.500000*%
%ADD26R,3.400000X1.900000*%
%ADD27R,0.599441X0.599441*%
%ADD28R,1.501141X0.800100*%
%ADD29R,1.501141X0.899159*%
%ADD30R,0.800100X1.501141*%
%ADD31R,1.099819X1.099819*%
%ADD32R,0.558800X1.320800*%


D10*
X234464Y474794D03*
X251482Y474794D03*
X268500Y474794D03*
X285518Y474794D03*
X302536Y474794D03*
D11*
X268500Y560900D03*
D12*
X982200Y235600D03*
X982200Y297600D03*
D13*
X1005700Y225600D03*
X1005700Y307600D03*
D14*
X978950Y253600D03*
X978950Y260100D03*
X978950Y266600D03*
X978950Y273100D03*
X978950Y279600D03*
D15*
X337650Y449600D03*
X367150Y449600D03*
D16*
X352400Y433600D03*
D17*
X613100Y594100D03*
D18*
X609100Y594600D03*
X605100Y594600D03*
X601100Y594600D03*
D19*
X595600Y593100D03*
X595600Y589100D03*
X595600Y585100D03*
X595600Y581100D03*
D18*
X601100Y579600D03*
X605100Y579600D03*
X609100Y579600D03*
X613100Y579600D03*
D19*
X618600Y581100D03*
X618600Y585100D03*
X618600Y589100D03*
X618600Y593100D03*
D20*
X85100Y303500D03*
X85100Y323500D03*
D21*
X33100Y279500D03*
X33100Y347500D03*
D17*
X492300Y594100D03*
D18*
X488300Y594600D03*
X484300Y594600D03*
X480300Y594600D03*
D19*
X474800Y593100D03*
X474800Y589100D03*
X474800Y585100D03*
X474800Y581100D03*
D18*
X480300Y579600D03*
X484300Y579600D03*
X488300Y579600D03*
X492300Y579600D03*
D19*
X497800Y581100D03*
X497800Y585100D03*
X497800Y589100D03*
X497800Y593100D03*
D22*
X174800Y455900D03*
X174800Y436900D03*
D23*
X95000Y451000D03*
X104500Y429000D03*
X85500Y429000D03*
D24*
X55000Y447500D03*
X55000Y432500D03*
D25*
X280500Y245000D03*
X299500Y245000D03*
D22*
X265000Y385500D03*
X265000Y404500D03*
X265000Y335500D03*
X265000Y354500D03*
D25*
X50500Y400000D03*
X69500Y400000D03*
D22*
X265000Y309500D03*
X265000Y290500D03*
X235000Y270500D03*
X235000Y289500D03*
X720000Y414500D03*
X720000Y395500D03*
X785000Y514500D03*
X785000Y495500D03*
X610000Y480500D03*
X610000Y499500D03*
X702700Y516800D03*
X702700Y497800D03*
D25*
X280500Y215000D03*
X299500Y215000D03*
D22*
X230000Y219500D03*
X230000Y200500D03*
X385000Y255500D03*
X385000Y274500D03*
D25*
X440500Y225000D03*
X459500Y225000D03*
X350500Y230000D03*
X369500Y230000D03*
D22*
X350000Y260500D03*
X350000Y279500D03*
X100000Y399500D03*
X100000Y380500D03*
X140000Y319500D03*
X140000Y300500D03*
X760000Y359500D03*
X760000Y340500D03*
D25*
X185500Y350000D03*
X204500Y350000D03*
X185500Y405000D03*
X204500Y405000D03*
X190500Y380000D03*
X209500Y380000D03*
D22*
X135000Y399500D03*
X135000Y380500D03*
D25*
X364500Y335000D03*
X345500Y335000D03*
D22*
X315000Y334500D03*
X315000Y315500D03*
D26*
X310000Y370500D03*
X310000Y409500D03*
D27*
X418998Y434975D03*
D28*
X420497Y420004D03*
X420479Y409009D03*
X420493Y364998D03*
X420492Y387000D03*
X420479Y376020D03*
X420479Y354004D03*
X420489Y398016D03*
X420480Y343995D03*
X420500Y319995D03*
X420493Y309988D03*
D29*
X420486Y331996D03*
D30*
X429992Y295492D03*
X451975Y295491D03*
X440977Y295479D03*
X462980Y295492D03*
X473988Y295493D03*
X484973Y295493D03*
X495991Y295493D03*
X506989Y295493D03*
X528980Y295479D03*
X517977Y295481D03*
X550970Y295491D03*
X539982Y295503D03*
X561976Y295483D03*
X572957Y295492D03*
X583954Y295482D03*
X594961Y295483D03*
X605959Y295487D03*
X627963Y295478D03*
X616960Y295491D03*
X649963Y295480D03*
X638962Y295501D03*
D28*
X659501Y310004D03*
X659505Y320997D03*
X659492Y331990D03*
X659510Y353980D03*
X659497Y342998D03*
X659514Y386982D03*
X659510Y375995D03*
X659514Y364988D03*
X659512Y397969D03*
X659509Y408984D03*
X659495Y419971D03*
D30*
X441043Y434511D03*
X430035Y434498D03*
X452040Y434502D03*
X463023Y434494D03*
X474051Y434509D03*
X496039Y434497D03*
X507041Y434498D03*
X529024Y434497D03*
X518038Y434511D03*
X540018Y434501D03*
X551021Y434512D03*
X485042Y434510D03*
X573012Y434494D03*
X562007Y434512D03*
X584021Y434508D03*
X595002Y434493D03*
X606016Y434506D03*
X628019Y434508D03*
X617012Y434493D03*
X650013Y434501D03*
X639000Y434501D03*
D31*
X455514Y312508D03*
X455509Y396532D03*
X455514Y375517D03*
X473526Y312520D03*
X455506Y354526D03*
X455521Y333516D03*
X437501Y312499D03*
X437505Y417535D03*
X437507Y396543D03*
X437506Y375537D03*
X437506Y354421D03*
X437502Y333526D03*
X624482Y312509D03*
X624480Y333507D03*
X624467Y354524D03*
X624485Y396525D03*
X624474Y417545D03*
X624477Y375519D03*
X642479Y396529D03*
X642475Y312513D03*
X642476Y375530D03*
X642476Y354518D03*
X642491Y333525D03*
X642486Y417497D03*
X509514Y312515D03*
X509512Y417530D03*
X606457Y417548D03*
X473522Y417536D03*
X570467Y417527D03*
X570470Y312499D03*
X455517Y417537D03*
X606470Y312516D03*
D25*
X461600Y260200D03*
X442600Y260200D03*
D32*
X591598Y245100D03*
X582200Y245100D03*
X572802Y245100D03*
X572802Y219700D03*
X582200Y219700D03*
X591598Y219700D03*
X824598Y401600D03*
X815200Y401600D03*
X805802Y401600D03*
X805802Y376200D03*
X815200Y376200D03*
X824598Y376200D03*
M02*
