G04 EAGLE Gerber RS-274X export*
G75*
%MOMM*%
%FSLAX34Y34*%
%LPD*%
%INSoldermask Bottom*%
%IPNEG*%
%AMOC8*
5,1,8,0,0,1.08239X$1,22.5*%
G01*
%ADD10R,1.703200X1.503200*%
%ADD11C,1.727200*%
%ADD12R,1.524000X0.762000*%
%ADD13C,3.203200*%
%ADD14C,0.959600*%


D10*
X465600Y57400D03*
X465600Y82800D03*
X465600Y108200D03*
X218600Y57400D03*
X218600Y82800D03*
X218600Y108200D03*
X465600Y133600D03*
X218600Y133600D03*
D11*
X638100Y652080D02*
X638100Y667320D01*
X612700Y667320D02*
X612700Y652080D01*
X587300Y652080D02*
X587300Y667320D01*
X561900Y667320D02*
X561900Y652080D01*
X536500Y652080D02*
X536500Y667320D01*
X511100Y667320D02*
X511100Y652080D01*
X485700Y652080D02*
X485700Y667320D01*
X460300Y667320D02*
X460300Y652080D01*
X434900Y652080D02*
X434900Y667320D01*
X409500Y667320D02*
X409500Y652080D01*
X384100Y652080D02*
X384100Y667320D01*
X358700Y667320D02*
X358700Y652080D01*
X333300Y652080D02*
X333300Y667320D01*
X869700Y48520D02*
X869700Y33280D01*
X844300Y33280D02*
X844300Y48520D01*
X818900Y48520D02*
X818900Y33280D01*
X793500Y33280D02*
X793500Y48520D01*
X768100Y48520D02*
X768100Y33280D01*
X742700Y33280D02*
X742700Y48520D01*
X717300Y48520D02*
X717300Y33280D01*
X691900Y33280D02*
X691900Y48520D01*
X666500Y48520D02*
X666500Y33280D01*
D12*
X578100Y41842D03*
X578100Y51240D03*
X578100Y60638D03*
X603500Y60638D03*
X603500Y51240D03*
X603500Y41842D03*
D11*
X994100Y426480D02*
X1009340Y426480D01*
X1009340Y401080D02*
X994100Y401080D01*
X994100Y375680D02*
X1009340Y375680D01*
X1009340Y350280D02*
X994100Y350280D01*
D13*
X973440Y65980D03*
X66820Y634460D03*
X67020Y65830D03*
X970000Y635400D03*
D11*
X993140Y546100D02*
X1008380Y546100D01*
X1008380Y520700D02*
X993140Y520700D01*
X993140Y495300D02*
X1008380Y495300D01*
X1008380Y469900D02*
X993140Y469900D01*
D14*
X149840Y476520D03*
X129840Y526520D03*
X630000Y600000D03*
X570000Y590000D03*
X198882Y243078D03*
X665480Y533400D03*
X421640Y217170D03*
X487680Y205712D03*
X482600Y177800D03*
X492760Y157480D03*
X528320Y132080D03*
X147320Y193040D03*
X289560Y447040D03*
X289560Y436880D03*
X330200Y431800D03*
X284480Y355600D03*
X330200Y355600D03*
X340360Y350520D03*
X370840Y421640D03*
X370840Y411480D03*
X370840Y401320D03*
X386080Y401320D03*
X396240Y401320D03*
X375920Y467360D03*
X386080Y467360D03*
X396240Y462280D03*
X294640Y457200D03*
X335280Y314960D03*
X345440Y314960D03*
X284480Y340360D03*
X370840Y289560D03*
X381000Y299720D03*
X375920Y381000D03*
X320040Y289560D03*
X330200Y284480D03*
X284480Y416560D03*
X284480Y375920D03*
X284480Y365760D03*
X284480Y406400D03*
X294640Y467360D03*
X335280Y365760D03*
X345440Y360680D03*
X355600Y350520D03*
X772160Y650240D03*
X782320Y650240D03*
X792480Y650240D03*
X802640Y650240D03*
X716280Y574040D03*
X726440Y574040D03*
X736600Y574040D03*
X746760Y574040D03*
X772160Y635000D03*
X782320Y635000D03*
X792480Y635000D03*
X802640Y635000D03*
X772160Y619760D03*
X782320Y619760D03*
X792480Y619760D03*
X802640Y619760D03*
X772160Y604520D03*
X782320Y604520D03*
X792480Y604520D03*
X802640Y604520D03*
X772160Y589280D03*
X782320Y589280D03*
X792480Y589280D03*
X802640Y589280D03*
X772160Y574040D03*
X782320Y574040D03*
X792480Y574040D03*
X802640Y574040D03*
X772160Y665480D03*
X782320Y665480D03*
X792480Y665480D03*
X802640Y665480D03*
X772160Y680720D03*
X782320Y680720D03*
X792480Y680720D03*
X802640Y680720D03*
X716280Y680720D03*
X726440Y680720D03*
X736600Y680720D03*
X746760Y680720D03*
X716280Y665480D03*
X726440Y665480D03*
X736600Y665480D03*
X746760Y665480D03*
X716280Y650240D03*
X726440Y650240D03*
X736600Y650240D03*
X746760Y650240D03*
X716280Y635000D03*
X726440Y635000D03*
X736600Y635000D03*
X746760Y635000D03*
X716280Y619760D03*
X726440Y619760D03*
X736600Y619760D03*
X746760Y619760D03*
X716280Y604520D03*
X726440Y604520D03*
X736600Y604520D03*
X746760Y604520D03*
X716280Y589280D03*
X726440Y589280D03*
X736600Y589280D03*
X746760Y589280D03*
X822960Y680720D03*
X833120Y680720D03*
X843280Y680720D03*
X853440Y680720D03*
X822960Y665480D03*
X833120Y665480D03*
X843280Y665480D03*
X853440Y665480D03*
X822960Y650240D03*
X833120Y650240D03*
X843280Y650240D03*
X853440Y650240D03*
X822960Y635000D03*
X833120Y635000D03*
X843280Y635000D03*
X853440Y635000D03*
X822960Y619760D03*
X833120Y619760D03*
X843280Y619760D03*
X853440Y619760D03*
X822960Y604520D03*
X833120Y604520D03*
X843280Y604520D03*
X853440Y604520D03*
X822960Y589280D03*
X833120Y589280D03*
X843280Y589280D03*
X853440Y589280D03*
X822960Y574040D03*
X833120Y574040D03*
X843280Y574040D03*
X853440Y574040D03*
X878840Y680720D03*
X889000Y680720D03*
X899160Y680720D03*
X909320Y680720D03*
X878840Y665480D03*
X889000Y665480D03*
X899160Y665480D03*
X909320Y665480D03*
X878840Y650240D03*
X889000Y650240D03*
X899160Y650240D03*
X909320Y650240D03*
X878840Y635000D03*
X889000Y635000D03*
X899160Y635000D03*
X909320Y635000D03*
X878840Y619760D03*
X889000Y619760D03*
X899160Y619760D03*
X909320Y619760D03*
X878840Y604520D03*
X889000Y604520D03*
X899160Y604520D03*
X909320Y604520D03*
X878840Y589280D03*
X889000Y589280D03*
X899160Y589280D03*
X909320Y589280D03*
X878840Y574040D03*
X889000Y574040D03*
X899160Y574040D03*
X909320Y574040D03*
X929640Y584200D03*
X939800Y584200D03*
X949960Y584200D03*
X960120Y584200D03*
X929640Y568960D03*
X939800Y568960D03*
X949960Y568960D03*
X960120Y568960D03*
X929640Y553720D03*
X939800Y553720D03*
X949960Y553720D03*
X960120Y553720D03*
X965200Y162560D03*
X975360Y162560D03*
X985520Y162560D03*
X995680Y162560D03*
X894080Y106680D03*
X904240Y106680D03*
X914400Y106680D03*
X924560Y106680D03*
X894080Y86360D03*
X904240Y86360D03*
X914400Y86360D03*
X924560Y86360D03*
X894080Y66040D03*
X904240Y66040D03*
X914400Y66040D03*
X924560Y66040D03*
X965200Y147320D03*
X975360Y147320D03*
X985520Y147320D03*
X995680Y147320D03*
X965200Y132080D03*
X975360Y132080D03*
X985520Y132080D03*
X995680Y132080D03*
X411480Y35560D03*
X421640Y35560D03*
X431800Y35560D03*
X441960Y35560D03*
X411480Y20320D03*
X421640Y20320D03*
X431800Y20320D03*
X441960Y20320D03*
X360680Y35560D03*
X370840Y35560D03*
X381000Y35560D03*
X391160Y35560D03*
X360680Y20320D03*
X370840Y20320D03*
X381000Y20320D03*
X391160Y20320D03*
X309880Y35560D03*
X320040Y35560D03*
X330200Y35560D03*
X340360Y35560D03*
X309880Y20320D03*
X320040Y20320D03*
X330200Y20320D03*
X340360Y20320D03*
X259080Y35560D03*
X269240Y35560D03*
X279400Y35560D03*
X289560Y35560D03*
X259080Y20320D03*
X269240Y20320D03*
X279400Y20320D03*
X289560Y20320D03*
X203200Y20320D03*
X213360Y20320D03*
X223520Y20320D03*
X233680Y20320D03*
X203200Y35560D03*
X213360Y35560D03*
X223520Y35560D03*
X233680Y35560D03*
X121920Y60960D03*
X132080Y60960D03*
X142240Y60960D03*
X152400Y60960D03*
X121920Y45720D03*
X132080Y45720D03*
X142240Y45720D03*
X152400Y45720D03*
X121920Y30480D03*
X132080Y30480D03*
X142240Y30480D03*
X152400Y30480D03*
X111760Y416560D03*
X121920Y416560D03*
X132080Y416560D03*
X142240Y416560D03*
X66040Y416560D03*
X76200Y416560D03*
X86360Y416560D03*
X96520Y416560D03*
X66040Y401320D03*
X76200Y401320D03*
X86360Y401320D03*
X96520Y401320D03*
X111760Y386080D03*
X121920Y386080D03*
X132080Y386080D03*
X142240Y386080D03*
X111760Y370840D03*
X121920Y370840D03*
X132080Y370840D03*
X142240Y370840D03*
X66040Y386080D03*
X76200Y386080D03*
X86360Y386080D03*
X96520Y386080D03*
X20320Y452120D03*
X30480Y452120D03*
X40640Y452120D03*
X50800Y452120D03*
X20320Y436880D03*
X30480Y436880D03*
X40640Y436880D03*
X50800Y436880D03*
X20320Y416560D03*
X30480Y416560D03*
X40640Y416560D03*
X50800Y416560D03*
X20320Y401320D03*
X30480Y401320D03*
X40640Y401320D03*
X50800Y401320D03*
X116840Y680720D03*
X127000Y680720D03*
X137160Y680720D03*
X147320Y680720D03*
X116840Y665480D03*
X127000Y665480D03*
X137160Y665480D03*
X147320Y665480D03*
X116840Y650240D03*
X127000Y650240D03*
X137160Y650240D03*
X147320Y650240D03*
X116840Y629920D03*
X127000Y629920D03*
X137160Y629920D03*
X147320Y629920D03*
X116840Y614680D03*
X127000Y614680D03*
X137160Y614680D03*
X147320Y614680D03*
X167640Y680720D03*
X177800Y680720D03*
X187960Y680720D03*
X198120Y680720D03*
X167640Y665480D03*
X177800Y665480D03*
X187960Y665480D03*
X198120Y665480D03*
X167640Y650240D03*
X177800Y650240D03*
X187960Y650240D03*
X198120Y650240D03*
X238760Y680720D03*
X248920Y680720D03*
X259080Y680720D03*
X269240Y680720D03*
X269240Y497840D03*
X269240Y508000D03*
X269240Y518160D03*
X269240Y528320D03*
X314960Y538480D03*
X325120Y538480D03*
X335280Y538480D03*
X345440Y538480D03*
X314960Y523240D03*
X325120Y523240D03*
X335280Y523240D03*
X345440Y523240D03*
X314960Y508000D03*
X325120Y508000D03*
X335280Y508000D03*
X345440Y508000D03*
X812800Y218440D03*
X822960Y218440D03*
X833120Y218440D03*
X843280Y218440D03*
X812800Y203200D03*
X822960Y203200D03*
X833120Y203200D03*
X843280Y203200D03*
X812800Y187960D03*
X822960Y187960D03*
X833120Y187960D03*
X843280Y187960D03*
X716280Y279400D03*
X706120Y218440D03*
X777240Y157480D03*
X111760Y401320D03*
X121920Y401320D03*
X132080Y401320D03*
X142240Y401320D03*
X863600Y533400D03*
X853440Y533400D03*
X843280Y533400D03*
X833120Y533400D03*
X833120Y518160D03*
X843280Y518160D03*
X853440Y518160D03*
X863600Y518160D03*
X472440Y396240D03*
X472440Y386080D03*
X248920Y111760D03*
X248920Y101600D03*
X259080Y111760D03*
X259080Y101600D03*
X259080Y86360D03*
X259080Y76200D03*
X248920Y86360D03*
X248920Y76200D03*
X767080Y248920D03*
X777240Y248920D03*
X756920Y233680D03*
X767080Y233680D03*
X782320Y233680D03*
X792480Y233680D03*
X782320Y218440D03*
X792480Y218440D03*
X782320Y203200D03*
X792480Y203200D03*
X858520Y218440D03*
X868680Y218440D03*
X472440Y370840D03*
X472440Y360680D03*
X487680Y365760D03*
X497840Y365760D03*
X472440Y345440D03*
X472440Y335280D03*
X487680Y335280D03*
X497840Y335280D03*
X518160Y406400D03*
X518160Y396240D03*
X538480Y401320D03*
X538480Y391160D03*
X563880Y396240D03*
X563880Y386080D03*
X563880Y375920D03*
X563880Y365760D03*
X493776Y117160D03*
X370332Y210312D03*
X480060Y212598D03*
X199456Y111158D03*
X660000Y270000D03*
X640000Y250000D03*
X590000Y310000D03*
X375920Y179070D03*
X538480Y254000D03*
X587352Y276248D03*
X454914Y210312D03*
X530352Y198882D03*
X590000Y130000D03*
X599840Y160000D03*
X590000Y244760D03*
X430000Y270000D03*
X560000Y270000D03*
X594360Y226342D03*
X576566Y220994D03*
X505206Y278892D03*
X295910Y196088D03*
X550000Y310000D03*
X490000Y350000D03*
X530000Y350000D03*
X340360Y203454D03*
X548640Y60960D03*
X492760Y30480D03*
X181864Y514858D03*
X520000Y590000D03*
X540000Y610000D03*
X650000Y590000D03*
X560000Y610000D03*
X400160Y310000D03*
X330000Y390000D03*
X290000Y390000D03*
X270000Y420000D03*
X254000Y426720D03*
X299720Y594360D03*
X218440Y614680D03*
X289560Y660400D03*
X172720Y355600D03*
X231930Y330200D03*
X800000Y290000D03*
X720000Y340000D03*
X770000Y310000D03*
X860000Y270000D03*
X950000Y270000D03*
X806450Y358140D03*
X838200Y367030D03*
X873760Y386080D03*
X780000Y290000D03*
X740000Y370000D03*
X880189Y249811D03*
X950000Y260000D03*
X894080Y416560D03*
X780000Y320040D03*
X831850Y426720D03*
X760000Y300000D03*
X690000Y330000D03*
X894080Y330200D03*
X955040Y309880D03*
X730000Y470000D03*
X760000Y470000D03*
X919480Y492760D03*
X924560Y467360D03*
X550000Y570000D03*
X550000Y520000D03*
X540000Y500000D03*
X540000Y460000D03*
X505498Y537210D03*
X475488Y237744D03*
X496062Y281178D03*
X512064Y324612D03*
X630000Y570000D03*
X620000Y530000D03*
X610000Y570000D03*
X590000Y520000D03*
X570000Y490000D03*
X560000Y460000D03*
X491490Y537210D03*
X534924Y368902D03*
X590000Y550000D03*
X598730Y568730D03*
X500218Y610000D03*
X491130Y612156D03*
X470000Y630000D03*
X450000Y630000D03*
X520000Y470000D03*
X520000Y500000D03*
X510000Y560000D03*
X510000Y520000D03*
X500000Y490000D03*
X490000Y450000D03*
X470000Y480000D03*
X470000Y540000D03*
X510000Y470000D03*
X510000Y500000D03*
X480000Y490000D03*
X490000Y510000D03*
X444914Y562356D03*
X571500Y448056D03*
X457620Y607620D03*
X489657Y630343D03*
X598932Y466344D03*
X650240Y86360D03*
X650240Y162560D03*
X670560Y142240D03*
X640080Y127000D03*
X406400Y635000D03*
X233680Y553720D03*
X254000Y482600D03*
X264160Y447040D03*
X187960Y350520D03*
X157480Y243840D03*
X186436Y462280D03*
X507492Y580644D03*
X470000Y450000D03*
X530000Y530000D03*
X226236Y462280D03*
X293878Y539242D03*
X833120Y508000D03*
X960120Y523240D03*
X92710Y508000D03*
X221742Y292608D03*
X592074Y448056D03*
X276606Y278892D03*
X498348Y146304D03*
X729234Y496062D03*
X360000Y370000D03*
X365080Y304920D03*
X420000Y470000D03*
X460000Y470000D03*
X580000Y159840D03*
X500000Y190000D03*
X520000Y280000D03*
X385080Y370000D03*
X670000Y560000D03*
X630000Y460000D03*
X760000Y420000D03*
X690000Y410000D03*
X740000Y400000D03*
X680000Y400000D03*
X730000Y240000D03*
X634475Y386031D03*
X605790Y448056D03*
X653796Y256032D03*
X950000Y240000D03*
X870000Y240000D03*
X797560Y330200D03*
X761238Y386080D03*
X717804Y262890D03*
X640080Y262890D03*
X598932Y454914D03*
X579120Y350520D03*
X558800Y335280D03*
X543560Y350520D03*
X492760Y381000D03*
X731520Y208280D03*
X716280Y243840D03*
X530000Y490000D03*
X530000Y470000D03*
X480000Y470000D03*
X410000Y450000D03*
M02*
